<?xml version="1.0" encoding="utf-8"?>
<!-- Generator: Adobe Illustrator 23.0.2, SVG Export Plug-In . SVG Version: 6.00 Build 0)  -->
<svg version="1.1" id="Layer_1" xmlns="http://www.w3.org/2000/svg" xmlns:xlink="http://www.w3.org/1999/xlink" x="0px" y="0px"
	 viewBox="0 0 512 512" style="enable-background:new 0 0 512 512;" xml:space="preserve">
<style type="text/css">
	.st0{fill:#CF2027;}
</style>
<g>
	<g>
		<g>
			<path class="st0" d="M41.3,464V376l19-12.7h30.5v-16.5H55.3l-30.5,20.4V464c-9.6,3.4-16.5,12.5-16.5,23.3
				C8.3,500.9,19.4,512,33,512s24.8-11.1,24.8-24.8C57.8,476.5,50.9,467.4,41.3,464z M33,495.5c-4.6,0-8.3-3.7-8.3-8.3
				s3.7-8.3,8.3-8.3s8.3,3.7,8.3,8.3S37.6,495.5,33,495.5z"/>
			<path class="st0" d="M48,330.3h42.8v-16.5H48c-3.4-9.6-12.5-16.5-23.3-16.5C11.1,297.3,0,308.4,0,322.1
				c0,13.7,11.1,24.8,24.8,24.8C35.5,346.8,44.6,339.9,48,330.3z M16.5,322.1c0-4.6,3.7-8.3,8.3-8.3s8.3,3.7,8.3,8.3
				s-3.7,8.3-8.3,8.3S16.5,326.6,16.5,322.1z"/>
			<path class="st0" d="M24.8,280.8c10.8,0,19.8-6.9,23.3-16.5h42.8v-16.5H48c-3.4-9.6-12.5-16.5-23.3-16.5
				C11.1,231.2,0,242.3,0,256C0,269.7,11.1,280.8,24.8,280.8z M24.8,247.7c4.6,0,8.3,3.7,8.3,8.3c0,4.6-3.7,8.3-8.3,8.3
				s-8.3-3.7-8.3-8.3C16.5,251.4,20.2,247.7,24.8,247.7z"/>
			<rect x="57.8" y="280.8" class="st0" width="33" height="16.5"/>
			<rect x="57.8" y="214.7" class="st0" width="33" height="16.5"/>
			<rect y="181.7" class="st0" width="90.8" height="16.5"/>
			<path class="st0" d="M62.6,165.2h28.2v-16.5H69.5l-19.9-19.9v-14.6c9.6-3.4,16.5-12.5,16.5-23.3c0-13.7-11.1-24.8-24.8-24.8
				S16.5,77.2,16.5,90.8c0,10.8,6.9,19.8,16.5,23.3v21.5L62.6,165.2z M41.3,82.6c4.6,0,8.3,3.7,8.3,8.3s-3.7,8.3-8.3,8.3
				S33,95.4,33,90.8S36.7,82.6,41.3,82.6z"/>
			<polygon class="st0" points="148.6,69.5 148.6,90.8 165.2,90.8 165.2,62.6 135.5,33 0,33 0,49.5 128.7,49.5 			"/>
			<polygon class="st0" points="181.7,36.5 181.7,90.8 198.2,90.8 198.2,29.6 168.6,0 0,0 0,16.5 161.7,16.5 			"/>
			<rect x="214.7" y="57.8" class="st0" width="16.5" height="33"/>
			<rect x="313.8" class="st0" width="16.5" height="90.8"/>
			<path class="st0" d="M247.7,48v42.8h16.5V61.2l16.5,16.5v13.1h16.5V70.9l-26.4-26.4c6-4.5,9.9-11.6,9.9-19.7
				C280.8,11.1,269.7,0,256,0c-13.7,0-24.8,11.1-24.8,24.8C231.2,35.5,238.1,44.6,247.7,48z M256,16.5c4.6,0,8.3,3.7,8.3,8.3
				S260.6,33,256,33c-4.6,0-8.3-3.7-8.3-8.3S251.4,16.5,256,16.5z"/>
			<path class="st0" d="M363.4,53L383.3,33H464c2.5,7,8,12.5,15,15v113.7L459,181.7h-37.9v16.5h44.7l29.6-29.6V48
				c9.6-3.4,16.5-12.5,16.5-23.3C512,11.1,500.9,0,487.2,0c-10.8,0-19.8,6.9-23.3,16.5h-87.5l-29.6,29.6v44.7h16.5V53z M487.2,16.5
				c4.6,0,8.3,3.7,8.3,8.3s-3.7,8.3-8.3,8.3s-8.3-3.7-8.3-8.3S482.7,16.5,487.2,16.5z"/>
			<path class="st0" d="M427.4,100.5l18.5,18.5v9.7L426,148.6h-4.8v16.5h11.7l29.6-29.6v-23.4l-29.6-29.6h-4.9
				c-3.4-9.6-12.5-16.5-23.3-16.5c-13.7,0-24.8,11.1-24.8,24.8s11.1,24.8,24.8,24.8C414.9,115.6,423.7,109.4,427.4,100.5z
				 M404.6,99.1c-4.6,0-8.3-3.7-8.3-8.3s3.7-8.3,8.3-8.3s8.3,3.7,8.3,8.3S409.2,99.1,404.6,99.1z"/>
			<rect x="421.2" y="214.7" class="st0" width="90.8" height="16.5"/>
			<path class="st0" d="M495.5,464V277.4l-29.6-29.6h-44.7v16.5H459l19.9,19.9v42.7l-13.1-13.1h-44.7v16.5H459l19.9,19.9V464
				c-9.6,3.4-16.5,12.5-16.5,23.3c0,13.7,11.1,24.8,24.8,24.8c13.7,0,24.8-11.1,24.8-24.8C512,476.5,505.1,467.4,495.5,464z
				 M487.2,495.5c-4.6,0-8.3-3.7-8.3-8.3s3.7-8.3,8.3-8.3s8.3,3.7,8.3,8.3S491.8,495.5,487.2,495.5z"/>
			<rect x="421.2" y="280.8" class="st0" width="33" height="16.5"/>
			<path class="st0" d="M462.5,376.5l-29.6-29.6h-11.7v16.5h4.8l19.9,19.9v46.1h-82.6v-8.3h-16.5v24.8h99.1V459L426,479h-14.6
				c-3.4-9.6-12.5-16.5-23.3-16.5c-13.7,0-24.8,11.1-24.8,24.8c0,13.7,11.1,24.8,24.8,24.8c10.8,0,19.8-6.9,23.3-16.5h21.5
				l29.6-29.6V376.5z M388.1,495.5c-4.6,0-8.3-3.7-8.3-8.3s3.7-8.3,8.3-8.3s8.3,3.7,8.3,8.3S392.7,495.5,388.1,495.5z"/>
			<path class="st0" d="M165.2,421.2h-16.5v8.3h-42.8c-3.4-9.6-12.5-16.5-23.3-16.5c-13.7,0-24.8,11.1-24.8,24.8
				c0,13.7,11.1,24.8,24.8,24.8c10.8,0,19.8-6.9,23.3-16.5h59.3V421.2z M82.6,445.9c-4.6,0-8.3-3.7-8.3-8.3s3.7-8.3,8.3-8.3
				s8.3,3.7,8.3,8.3S87.1,445.9,82.6,445.9z"/>
			<rect x="313.8" y="421.2" class="st0" width="16.5" height="90.8"/>
			<rect x="280.8" y="421.2" class="st0" width="16.5" height="90.8"/>
			<path class="st0" d="M247.7,434.3l-16.5,16.5v-29.6h-16.5V464c-9.6,3.4-16.5,12.5-16.5,23.3c0,13.7,11.1,24.8,24.8,24.8
				c13.7,0,24.8-11.1,24.8-24.8c0-8.1-3.9-15.2-9.9-19.7l26.4-26.4v-19.9h-16.5V434.3z M223,495.5c-4.6,0-8.3-3.7-8.3-8.3
				s3.7-8.3,8.3-8.3c4.6,0,8.3,3.7,8.3,8.3S227.5,495.5,223,495.5z"/>
			<polygon class="st0" points="198.2,421.2 181.7,421.2 181.7,442.5 156.9,467.3 156.9,512 173.4,512 173.4,474.1 198.2,449.4 			
				"/>
			<path class="st0" d="M346.8,404.6h16.5v-16.5h24.8v-24.8h16.5v-16.5h-16.5v-16.5h16.5v-16.5h-16.5v-16.5h16.5v-16.5h-16.5v-16.5
				h16.5v-16.5h-16.5v-16.5h16.5v-16.5h-16.5v-16.5h16.5v-16.5h-16.5v-16.5h16.5v-16.5h-16.5v-24.8h-24.8v-16.5h-16.5v16.5h-16.5
				v-16.5h-16.5v16.5h-16.5v-16.5h-16.5v16.5h-16.5v-16.5h-16.5v16.5h-16.5v-16.5h-16.5v16.5h-16.5v-16.5h-16.5v16.5h-16.5v-16.5
				h-16.5v16.5h-3.4l-21.4,21.4v3.4h-16.5v16.5h16.5v16.5h-16.5v16.5h16.5v16.5h-16.5v16.5h16.5v16.5h-16.5v16.5h16.5v16.5h-16.5
				v16.5h16.5v16.5h-16.5v16.5h16.5v16.5h-16.5v16.5h16.5v24.8h24.8v16.5h16.5v-16.5h16.5v16.5h16.5v-16.5h16.5v16.5h16.5v-16.5
				h16.5v16.5h16.5v-16.5h16.5v16.5h16.5v-16.5h16.5v16.5h16.5v-16.5h16.5V404.6z M140.4,371.6V152.1l11.7-11.7h219.5v231.2H140.4z"
				/>
			<path class="st0" d="M329.2,217.9l14.4-14.4l-35-35l-14.4,14.4c-4.3-2.3-8.8-4.1-13.4-5.6v-20.4h-49.5v20.4
				c-4.6,1.5-9.1,3.3-13.4,5.6l-14.4-14.4l-35,35l14.4,14.4c-2.2,4.3-4.1,8.8-5.6,13.4h-20.4v49.5h20.4c1.5,4.6,3.3,9.1,5.6,13.4
				l-14.4,14.4l35,35l14.4-14.4c4.3,2.2,8.8,4.1,13.4,5.6v20.4h49.5v-20.4c4.6-1.5,9.1-3.3,13.4-5.6l14.4,14.4l35-35l-14.4-14.4
				c2.2-4.3,4.1-8.8,5.6-13.4h20.4v-49.5h-20.4C333.3,226.6,331.4,222.1,329.2,217.9z M338.6,264.3h-16.7l-1.5,6.4
				c-1.7,7.2-4.5,14.1-8.5,20.4l-3.5,5.6l11.9,11.9l-11.7,11.7l-11.9-11.9l-5.6,3.5c-6.3,4-13.2,6.8-20.4,8.5l-6.4,1.5v16.7h-16.5
				v-16.7l-6.4-1.5c-7.2-1.7-14.1-4.5-20.4-8.5l-5.6-3.5l-11.9,11.9l-11.7-11.7l11.9-11.9l-3.5-5.6c-4-6.3-6.8-13.2-8.5-20.4
				l-1.5-6.4h-16.7v-16.5h16.7l1.5-6.4c1.7-7.2,4.5-14.1,8.5-20.4l3.5-5.6l-11.9-11.9l11.7-11.7l11.9,11.9l5.6-3.5
				c6.3-4,13.2-6.8,20.4-8.5l6.4-1.5v-16.7h16.5v16.7l6.4,1.5c7.2,1.7,14.1,4.5,20.4,8.5l5.6,3.5l11.9-11.9l11.7,11.7l-11.9,11.9
				l3.5,5.6c4,6.3,6.8,13.2,8.5,20.4l1.5,6.4h16.7V264.3z"/>
			<path class="st0" d="M256,214.7c-22.8,0-41.3,18.5-41.3,41.3s18.5,41.3,41.3,41.3s41.3-18.5,41.3-41.3S278.8,214.7,256,214.7z
				 M256,280.8c-13.7,0-24.8-11.1-24.8-24.8c0-13.7,11.1-24.8,24.8-24.8c13.7,0,24.8,11.1,24.8,24.8
				C280.8,269.7,269.7,280.8,256,280.8z"/>
		</g>
	</g>
</g>
</svg>
