<?xml version="1.0" encoding="utf-8"?>
<!-- Generator: Adobe Illustrator 23.0.2, SVG Export Plug-In . SVG Version: 6.00 Build 0)  -->
<svg version="1.1" id="Capa_1" xmlns="http://www.w3.org/2000/svg" xmlns:xlink="http://www.w3.org/1999/xlink" x="0px" y="0px"
	 viewBox="0 0 512 512" style="enable-background:new 0 0 512 512;" xml:space="preserve">
<style type="text/css">
	.st0{fill:#CF2027;}
</style>
<g>
	<g>
		<path class="st0" d="M256,0c-28.3,0-51.2,22.9-51.2,51.2s22.9,51.2,51.2,51.2c28.3,0,51.2-22.9,51.2-51.2
			C307.2,22.9,284.3,0,256,0z M256,85.3c-18.9,0-34.1-15.3-34.1-34.1s15.3-34.1,34.1-34.1c18.9,0,34.1,15.3,34.1,34.1
			S274.9,85.3,256,85.3z"/>
	</g>
</g>
<g>
	<g>
		<path class="st0" d="M290.1,110.9h-2l-1.8,0.9c-19.1,9.5-41.5,9.5-60.6,0l-1.8-0.9h-2c-23.6,0-42.6,19.1-42.7,42.7v51.2
			c0,14.1,11.5,25.6,25.6,25.6h102.4c14.1,0,25.6-11.5,25.6-25.6v-51.2C332.8,130,313.7,111,290.1,110.9z M315.7,204.8
			c0,4.7-3.8,8.5-8.5,8.5H204.8c-4.7,0-8.5-3.8-8.5-8.5v-51.2c0-13.4,10.4-24.6,23.8-25.5c22.8,10.6,49.1,10.6,71.9,0
			c13.4,1,23.8,12.1,23.8,25.5V204.8z"/>
	</g>
</g>
<g>
	<g>
		<path class="st0" d="M435.2,281.6c-28.3,0-51.2,22.9-51.2,51.2s22.9,51.2,51.2,51.2s51.2-22.9,51.2-51.2
			C486.4,304.5,463.5,281.6,435.2,281.6z M435.2,366.9c-18.9,0-34.1-15.3-34.1-34.1s15.3-34.1,34.1-34.1c18.9,0,34.1,15.3,34.1,34.1
			S454.1,366.9,435.2,366.9z"/>
	</g>
</g>
<g>
	<g>
		<path class="st0" d="M469.3,392.5h-2l-1.8,0.9c-19.1,9.5-41.5,9.5-60.6,0l-1.8-0.9h-2c-23.6,0-42.6,19.1-42.7,42.7v51.2
			c0,14.1,11.5,25.6,25.6,25.6h102.4c14.1,0,25.6-11.5,25.6-25.6v-51.2C512,411.6,492.9,392.6,469.3,392.5z M494.9,486.4
			c0,4.7-3.8,8.5-8.5,8.5H384c-4.7,0-8.5-3.8-8.5-8.5v-51.2c0-13.4,10.4-24.6,23.8-25.5c22.8,10.6,49.1,10.6,71.9,0
			c13.4,1,23.8,12.1,23.8,25.5V486.4z"/>
	</g>
</g>
<g>
	<g>
		<path class="st0" d="M76.8,281.6c-28.3,0-51.2,22.9-51.2,51.2S48.5,384,76.8,384s51.2-22.9,51.2-51.2
			C128,304.5,105.1,281.6,76.8,281.6z M76.8,366.9c-18.9,0-34.1-15.3-34.1-34.1s15.3-34.1,34.1-34.1s34.1,15.3,34.1,34.1
			S95.7,366.9,76.8,366.9z"/>
	</g>
</g>
<g>
	<g>
		<path class="st0" d="M110.9,392.5h-2l-1.8,0.9c-19.1,9.5-41.5,9.5-60.6,0l-1.8-0.9h-2C19.1,392.6,0,411.6,0,435.2v51.2
			C0,500.5,11.5,512,25.6,512H128c14.1,0,25.6-11.5,25.6-25.6v-51.2C153.6,411.6,134.5,392.6,110.9,392.5z M136.5,486.4
			c0,4.7-3.8,8.5-8.5,8.5H25.6c-4.7,0-8.5-3.8-8.5-8.5v-51.2c0-13.4,10.4-24.6,23.8-25.5c22.8,10.6,49.1,10.6,71.9,0
			c13.4,1,23.8,12.1,23.8,25.5V486.4z"/>
	</g>
</g>
<g>
	<g>
		<path class="st0" d="M340.7,433.4C340.7,433.4,340.7,433.3,340.7,433.4c-1.9-4.4-6.9-6.4-11.2-4.5l0,0
			c-38.5,16.1-81.3,19.1-121.7,8.4l8-2.3c4.5-1.3,7.1-6.1,5.8-10.6s-6.1-7.1-10.6-5.8l-34.1,10c-0.1,0-0.2,0.1-0.3,0.2
			c-0.8,0.3-1.5,0.7-2.2,1.2c-0.3,0.2-0.6,0.3-0.9,0.5c-0.9,0.8-1.6,1.8-2.1,2.9c-0.5,1.1-0.7,2.3-0.6,3.5c0.2,1.2,0.5,2.3,0.9,3.4
			c0.1,0.1,0,0.3,0.1,0.4l17.1,32.7c2.2,4.2,7.3,5.8,11.5,3.6c4.2-2.2,5.8-7.3,3.6-11.5l-6.9-13.3c45.9,13.8,95.1,11.1,139.3-7.6
			C340.5,442.7,342.5,437.7,340.7,433.4z"/>
	</g>
</g>
<g>
	<g>
		<path class="st0" d="M483.9,224.4c-3.3-3.3-8.7-3.3-12.1,0l-12.1,12.1c-7.1-74.7-54.5-139.6-123.6-169c-4.3-1.8-9.3,0.2-11.2,4.5
			c-1.8,4.3,0.2,9.3,4.5,11.2c62,26.3,105.1,83.9,112.9,150.8l-9.6-9.6c-3.4-3.3-8.8-3.2-12.1,0.2c-3.2,3.3-3.2,8.5,0,11.9
			l25.6,25.6c3.3,3.3,8.7,3.3,12.1,0c0,0,0,0,0,0l25.6-25.6C487.2,233.1,487.2,227.7,483.9,224.4z"/>
	</g>
</g>
<g>
	<g>
		<path class="st0" d="M187.5,73.9c0-0.5-0.1-1-0.2-1.5c0-0.1-0.1-0.1-0.1-0.2c0-0.1,0-0.1,0-0.2c-0.2-0.4-0.5-0.8-0.8-1.2
			c-0.3-0.5-0.6-1-1-1.4c-0.5-0.4-1.1-0.8-1.7-1.1c-0.3-0.3-0.6-0.5-1-0.7L148.6,52c-4.4-1.8-9.3,0.3-11.1,4.7
			c-1.7,4.1,0.1,8.9,4.1,10.9l17.7,8.1c-66.5,35.6-108,105-108,180.4c0,4.7,3.8,8.5,8.5,8.5s8.5-3.8,8.5-8.5
			c0-66.4,35.1-127.9,92.4-161.7l-6.2,12.9c-2,4.2-0.3,9.3,4,11.4c1.2,0.6,2.4,0.9,3.7,0.9c3.3,0,6.3-1.9,7.7-4.8L186.9,79
			c0-0.1,0-0.2,0.1-0.3c0.2-0.6,0.4-1.2,0.5-1.8c0.1-0.5,0.3-0.9,0.3-1.4C187.7,75,187.6,74.4,187.5,73.9z"/>
	</g>
</g>
</svg>
