<?xml version="1.0" encoding="utf-8"?>
<!-- Generator: Adobe Illustrator 23.0.2, SVG Export Plug-In . SVG Version: 6.00 Build 0)  -->
<svg version="1.1" id="Capa_1" xmlns="http://www.w3.org/2000/svg" xmlns:xlink="http://www.w3.org/1999/xlink" x="0px" y="0px"
	 viewBox="0 0 512 512" style="enable-background:new 0 0 512 512;" xml:space="preserve">
<style type="text/css">
	.st0{fill:#CF2027;}
</style>
<g>
	<g>
		<path class="st0" d="M351.1,494.9c-1.9-1.9-4.4-2.9-7.1-2.9s-5.2,1.1-7.1,2.9c-1.9,1.9-2.9,4.4-2.9,7.1s1.1,5.2,2.9,7.1
			c1.9,1.9,4.4,2.9,7.1,2.9s5.2-1.1,7.1-2.9c1.9-1.9,2.9-4.4,2.9-7.1S352.9,496.8,351.1,494.9z"/>
	</g>
</g>
<g>
	<g>
		<path class="st0" d="M256,454.6c-5.5,0-10,4.5-10,10V502c0,5.5,4.5,10,10,10c5.5,0,10-4.5,10-10v-37.4
			C266,459.1,261.5,454.6,256,454.6z"/>
	</g>
</g>
<g>
	<g>
		<path class="st0" d="M256,0c-5.5,0-10,4.5-10,10v37.4c0,5.5,4.5,10,10,10c5.5,0,10-4.5,10-10V10C266,4.5,261.5,0,256,0z"/>
	</g>
</g>
<g>
	<g>
		<path class="st0" d="M47.4,158H10c-5.5,0-10,4.5-10,10s4.5,10,10,10h37.4c5.5,0,10-4.5,10-10S52.9,158,47.4,158z"/>
	</g>
</g>
<g>
	<g>
		<path class="st0" d="M47.4,334H10c-5.5,0-10,4.5-10,10s4.5,10,10,10h37.4c5.5,0,10-4.5,10-10S52.9,334,47.4,334z"/>
	</g>
</g>
<g>
	<g>
		<path class="st0" d="M502,158h-37.4c-5.5,0-10,4.5-10,10s4.5,10,10,10H502c5.5,0,10-4.5,10-10S507.5,158,502,158z"/>
	</g>
</g>
<g>
	<g>
		<path class="st0" d="M502,334h-37.4c-5.5,0-10,4.5-10,10s4.5,10,10,10H502c5.5,0,10-4.5,10-10S507.5,334,502,334z"/>
	</g>
</g>
<g>
	<g>
		<path class="st0" d="M502,246h-64V84c0-5.5-4.5-10-10-10h-74V10c0-5.5-4.5-10-10-10s-10,4.5-10,10v64H178V47c0-5.5-4.5-10-10-10
			s-10,4.5-10,10v27H84c-5.5,0-10,4.5-10,10v162H10c-5.5,0-10,4.5-10,10s4.5,10,10,10h64v162c0,5.5,4.5,10,10,10h74v64
			c0,5.5,4.5,10,10,10s10-4.5,10-10v-64h156v24c0,5.5,4.5,10,10,10s10-4.5,10-10v-24h74c5.5,0,10-4.5,10-10V266h64
			c5.5,0,10-4.5,10-10S507.5,246,502,246z M418,418H94V94h324V418z"/>
	</g>
</g>
<g>
	<g>
		<path class="st0" d="M380,122H132c-5.5,0-10,4.5-10,10v248c0,5.5,4.5,10,10,10h248c5.5,0,10-4.5,10-10V132
			C390,126.5,385.5,122,380,122z M370,370H142V142h228V370z"/>
	</g>
</g>
<g>
	<g>
		<path class="st0" d="M175.1,2.9C173.2,1.1,170.6,0,168,0s-5.2,1.1-7.1,2.9S158,7.4,158,10s1.1,5.2,2.9,7.1
			c1.9,1.9,4.4,2.9,7.1,2.9s5.2-1.1,7.1-2.9c1.9-1.9,2.9-4.4,2.9-7.1S176.9,4.8,175.1,2.9z"/>
	</g>
</g>
<g>
	<g>
		<path class="st0" d="M304,221.9v-10.3c0-26.4-21.5-47.9-48-47.9s-48,21.5-48,47.9v10.3c-12.8,0.6-23.1,11.3-23.1,24.3V324
			c0,13.4,10.9,24.3,24.3,24.3h93.5c13.4,0,24.3-10.9,24.3-24.3v-77.9C327.1,233.2,316.8,222.5,304,221.9z M228,211.6
			c0-15.4,12.5-27.9,28-27.9s28,12.5,28,27.9v10.2H228L228,211.6L228,211.6z M307.1,324c0,2.4-1.9,4.3-4.3,4.3h-37
			c0.2-0.8,0.3-1.5,0.3-2.3v-26c0-5.5-4.5-10-10-10s-10,4.5-10,10v26c0,0.8,0.1,1.6,0.3,2.3h-37c-2.4,0-4.3-1.9-4.3-4.3v-77.9h0
			c0-2.4,1.9-4.3,4.3-4.3h93.5c2.4,0,4.3,1.9,4.3,4.3L307.1,324L307.1,324z"/>
	</g>
</g>
<g>
	<g>
		<path class="st0" d="M263.1,259.4c-1.9-1.9-4.4-2.9-7.1-2.9s-5.2,1.1-7.1,2.9c-1.9,1.9-2.9,4.4-2.9,7.1s1.1,5.2,2.9,7.1
			c1.9,1.9,4.4,2.9,7.1,2.9s5.2-1.1,7.1-2.9c1.9-1.9,2.9-4.4,2.9-7.1S264.9,261.3,263.1,259.4z"/>
	</g>
</g>
</svg>
