<?xml version="1.0" encoding="utf-8"?>
<!-- Generator: Adobe Illustrator 23.0.2, SVG Export Plug-In . SVG Version: 6.00 Build 0)  -->
<svg version="1.1" id="Capa_1" xmlns="http://www.w3.org/2000/svg" xmlns:xlink="http://www.w3.org/1999/xlink" x="0px" y="0px"
	 viewBox="0 0 512 512" style="enable-background:new 0 0 512 512;" xml:space="preserve">
<style type="text/css">
	.st0{fill:#CF2027;}
</style>
<g>
	<g>
		<path class="st0" d="M256,148.6c-59.2,0-107.4,48.2-107.4,107.4S196.8,363.4,256,363.4S363.4,315.2,363.4,256
			S315.2,148.6,256,148.6z M256,346.8c-50.1,0-90.8-40.8-90.8-90.8s40.8-90.8,90.8-90.8s90.8,40.8,90.8,90.8S306.1,346.8,256,346.8z
			"/>
	</g>
</g>
<g>
	<g>
		<path class="st0" d="M286.1,256c6.9-6.1,11.2-14.9,11.2-24.8c0-12.2-6.7-22.7-16.5-28.4v-21.1h-16.5v16.5h-16.5v-16.5h-16.5v16.5
			h-16.5v115.6h16.5v16.5h16.5v-16.5h16.5v16.5h16.5v-21.1c9.8-5.7,16.5-16.3,16.5-28.4C297.3,270.9,293,262.1,286.1,256z
			 M264.3,297.3h-33v-33h33c9.1,0,16.5,7.4,16.5,16.5C280.8,289.9,273.4,297.3,264.3,297.3z M264.3,247.7h-33v-33h33
			c9.1,0,16.5,7.4,16.5,16.5S273.4,247.7,264.3,247.7z"/>
	</g>
</g>
<g>
	<g>
		<path class="st0" d="M479,223c-15.4,0-28.2,10.6-31.9,24.8H396c-1.8-31.7-14-61.3-35.1-84.9l50-50l-11,47.9l16.1,3.7l20.5-88.8
			l-88.8,20.5l3.7,16.1l47.9-11l-50,50c-23.8-21.2-53.3-33.5-84.9-35.3v-51C278.5,61.2,289,48.4,289,33c0-18.2-14.8-33-33-33
			s-33,14.8-33,33c0,15.3,10.6,28.2,24.8,31.9v51c-32.5,1.9-62,14.9-84.9,35.3l-50-50l47.9,11l3.7-16.1L75.6,75.6l20.5,88.8
			l16.1-3.7l-11-47.9l50.1,50.1c-20.4,22.9-33.3,52.4-35.2,84.8H64.9C61.2,233.5,48.4,223,33,223c-18.2,0-33,14.8-33,33
			s14.8,33,33,33c15.4,0,28.2-10.6,31.9-24.8h51c1.5,26.9,10.6,52.4,26.6,74.3c10.7,14.7,18.6,30.4,23.9,46.8
			c-5.7,4.5-9.4,11.5-9.4,19.3c0,6.4,2.5,12.1,6.4,16.5c-4,4.4-6.4,10.1-6.4,16.5c0,13.2,10.4,23.9,23.4,24.6
			c13,29.9,42.7,49.7,75.7,49.7c33,0,62.7-19.8,75.7-49.7c13-0.8,23.4-11.5,23.4-24.6c0-6.4-2.5-12.1-6.4-16.5
			c4-4.4,6.4-10.1,6.4-16.5c0-8-3.8-15-9.7-19.5c5-16.1,12.6-31.3,22.9-44.9c16.7-22.2,26.2-48.4,27.8-76h51.1
			c3.7,14.2,16.5,24.8,31.9,24.8c18.2,0,33-14.8,33-33S497.2,223,479,223z M33,272.5c-9.1,0-16.5-7.4-16.5-16.5
			c0-9.1,7.4-16.5,16.5-16.5s16.5,7.4,16.5,16.5C49.5,265.1,42.1,272.5,33,272.5z M239.5,33c0-9.1,7.4-16.5,16.5-16.5
			c9.1,0,16.5,7.4,16.5,16.5s-7.4,16.5-16.5,16.5C246.9,49.5,239.5,42.1,239.5,33z M256,495.5c-23.8,0-45.4-12.9-57.1-33h114.2
			C301.4,482.6,279.8,495.5,256,495.5z M330.3,429.4c4.6,0,8.3,3.7,8.3,8.3c0,4.6-3.7,8.3-8.3,8.3H181.7c-4.6,0-8.3-3.7-8.3-8.3
			c0-4.6,3.7-8.3,8.3-8.3h115.6v-16.5H181.7c-4.6,0-8.3-3.7-8.3-8.3c0-4.6,3.7-8.3,8.3-8.3h148.6c4.6,0,8.3,3.7,8.3,8.3
			c0,4.6-3.7,8.3-8.3,8.3h-16.5v16.5H330.3z M355.1,330.3c-11.3,15-19.7,31.7-25.3,49.5H181.9c-5.8-17.9-14.4-35-26.1-51
			c-16.1-22-24.2-48.1-23.7-75.5c1.3-63.8,54.2-118.1,117.9-121.1c34.3-1.6,66.8,10.5,91.5,34.1c24.7,23.6,38.4,55.5,38.4,89.6
			C379.9,283.1,371.3,308.8,355.1,330.3z M479,272.5c-9.1,0-16.5-7.4-16.5-16.5c0-9.1,7.4-16.5,16.5-16.5c9.1,0,16.5,7.4,16.5,16.5
			C495.5,265.1,488.1,272.5,479,272.5z"/>
	</g>
</g>
<g>
	<g>
		<rect x="313.8" y="247.7" class="st0" width="16.5" height="16.5"/>
	</g>
</g>
<g>
	<g>
		<rect x="181.7" y="247.7" class="st0" width="16.5" height="16.5"/>
	</g>
</g>
</svg>
