<?xml version="1.0" encoding="utf-8"?>
<!-- Generator: Adobe Illustrator 23.0.2, SVG Export Plug-In . SVG Version: 6.00 Build 0)  -->
<svg version="1.1" id="Capa_1" xmlns="http://www.w3.org/2000/svg" xmlns:xlink="http://www.w3.org/1999/xlink" x="0px" y="0px"
	 viewBox="0 0 512 512" style="enable-background:new 0 0 512 512;" xml:space="preserve">
<style type="text/css">
	.st0{fill:#CF2027;}
</style>
<g>
	<path class="st0" d="M83.9,379.6c-24.3,0-44.1,19.8-44.1,44.1c0,24.3,19.8,44.1,44.1,44.1s44.1-19.8,44.1-44.1
		C128,399.4,108.2,379.6,83.9,379.6z M83.9,450.2c-14.6,0-26.5-11.9-26.5-26.5c0-14.6,11.9-26.5,26.5-26.5s26.5,11.9,26.5,26.5
		C110.3,438.3,98.5,450.2,83.9,450.2z"/>
	<path class="st0" d="M498.8,309c0-22-12.1-32.3-24-37.4c9.3-8.1,15.1-20,15.1-33.3c0-24.3-19.8-44.1-44.1-44.1H319l6.4-30.1
		c8.6-40.2,2.9-85.8,1-98.8C321.9,34.5,294.6,0,264.9,0h-2.1c-14.1,0-37.7,8-37.7,61.8c0,70.8-17.7,103.2-32.5,117.9
		c-14.5,14.4-28.5,14.3-29.3,14.5h-8.8v-17.7H13.2V512h141.2v-17.7h247.2c24.3,0,44.1-19.8,44.1-44.1c0-10.3-3.5-19.7-9.4-27.3
		c20.4-3.9,35.9-21.8,35.9-43.4c0-10.3-3.5-19.7-9.4-27.3C483.3,348.5,498.8,330.5,498.8,309z M30.9,494.3V194.2h105.9v300.1H30.9z
		 M454.6,335.4h-26.5h-70.6c-4.9,0-8.8,3.9-8.8,8.8c0,4.9,4,8.8,8.8,8.8h70.6c14.6,0,26.5,11.9,26.5,26.5s-11.9,26.5-26.5,26.5
		h-17.7h-8.8h-61.8c-4.9,0-8.8,3.9-8.8,8.8c0,4.9,4,8.8,8.8,8.8h61.8c14.6,0,26.5,11.9,26.5,26.5c0,14.6-11.9,26.5-26.5,26.5H154.5
		V211.9l8.6,0c0.9,0.2,21.4,0.4,41.3-18.9c25.5-24.7,38.4-68.8,38.4-131.1c0-16.5,2.6-44.1,20.1-44.1h2.1c19.7,0,40.7,27.6,44,50.2
		c1.8,12.3,7.2,55.3-0.8,92.5l-11,51.5h148.6c14.6,0,26.5,11.9,26.5,26.5c0,14.6-11.9,26.5-26.5,26.5h-17.7h-8.8h-61.8
		c-4.9,0-8.8,3.9-8.8,8.8s4,8.8,8.8,8.8h61.8c7.8,0,24.9,0.4,34,1.7c23,3.4,27.8,12.4,27.8,24.8
		C481.1,323.6,469.2,335.4,454.6,335.4z"/>
</g>
</svg>
