<?xml version="1.0" encoding="utf-8"?>
<!-- Generator: Adobe Illustrator 23.0.2, SVG Export Plug-In . SVG Version: 6.00 Build 0)  -->
<svg version="1.1" id="Layer_1" xmlns="http://www.w3.org/2000/svg" xmlns:xlink="http://www.w3.org/1999/xlink" x="0px" y="0px"
	 viewBox="0 0 512 512" style="enable-background:new 0 0 512 512;" xml:space="preserve">
<style type="text/css">
	.st0{fill:#CF2027;}
</style>
<g>
	<g>
		<path class="st0" d="M469,0c-23.8,0-43,19.2-43,43s19.2,43,43,43c23.8,0,43-19.2,43-43C512,19.2,492.8,0,469,0z M469,63.9
			c-11.6,0-20.9-9.3-20.9-20.9s9.3-20.9,20.9-20.9c11.6,0,20.9,9.3,20.9,20.9C489.9,54.5,480.6,63.9,469,63.9z"/>
	</g>
</g>
<g>
	<g>
		<path class="st0" d="M43,245c-23.8,0-43,19.2-43,43s19.2,43,43,43s43-19.2,43-43S66.8,245,43,245z M43,308.8
			c-11.6,0-20.9-9.3-20.9-20.9S31.4,267,43,267s20.9,9.3,20.9,20.9S54.5,308.8,43,308.8z"/>
	</g>
</g>
<g>
	<g>
		<path class="st0" d="M170.7,117.2c-23.8,0-43,19.2-43,43c0,23.8,19.2,43,43,43c23.8,0,43-19.2,43-43S194.5,117.2,170.7,117.2z
			 M170.7,181.1c-11.6,0-20.9-9.3-20.9-20.9c0-11.6,9.3-20.9,20.9-20.9c11.6,0,20.9,9.3,20.9,20.9
			C191.6,171.7,182.3,181.1,170.7,181.1z"/>
	</g>
</g>
<g>
	<g>
		<path class="st0" d="M261.3,207.8c-23.8,0-43,19.2-43,43c0,23.8,19.2,43,43,43s43-19.2,43-43C304.2,227,285,207.8,261.3,207.8z
			 M261.3,271.6c-11.6,0-20.9-9.3-20.9-20.9c0-11.6,9.3-20.9,20.9-20.9c11.6,0,20.9,9.3,20.9,20.9
			C282.2,262.3,272.8,271.6,261.3,271.6z"/>
	</g>
</g>
<g>
	<g>
		
			<rect x="250.2" y="135.7" transform="matrix(0.7064 -0.7078 0.7078 0.7064 3.3515 301.4942)" class="st0" width="229.8" height="22.1"/>
	</g>
</g>
<g>
	<g>
		
			<rect x="205.1" y="173.3" transform="matrix(0.7058 -0.7084 0.7084 0.7058 -81.9268 213.5314)" class="st0" width="22.1" height="64.2"/>
	</g>
</g>
<g>
	<g>
		
			<rect x="48.6" y="213" transform="matrix(0.7071 -0.7071 0.7071 0.7071 -127.0709 141.2101)" class="st0" width="116.7" height="22.1"/>
	</g>
</g>
<g>
	<g>
		<rect x="0.3" y="489.9" class="st0" width="511.3" height="22.1"/>
	</g>
</g>
<g>
	<g>
		<rect x="458" y="181.4" class="st0" width="22.1" height="319.5"/>
	</g>
</g>
<g>
	<g>
		<rect x="255.7" y="341.3" class="st0" width="22.1" height="159.7"/>
	</g>
</g>
<g>
	<g>
		<rect x="31.9" y="373.2" class="st0" width="22.1" height="127.7"/>
	</g>
</g>
<g>
	<g>
		<rect x="159.7" y="277.2" class="st0" width="22.1" height="223.7"/>
	</g>
</g>
</svg>
