<?xml version="1.0" encoding="utf-8"?>
<!-- Generator: Adobe Illustrator 23.0.2, SVG Export Plug-In . SVG Version: 6.00 Build 0)  -->
<svg version="1.1" id="Capa_1" xmlns="http://www.w3.org/2000/svg" xmlns:xlink="http://www.w3.org/1999/xlink" x="0px" y="0px"
	 viewBox="0 0 512 512" style="enable-background:new 0 0 512 512;" xml:space="preserve">
<style type="text/css">
	.st0{fill:#CF2027;}
</style>
<g>
	<g>
		<path class="st0" d="M445.9,115.6V0H0v470.7C0,493.5,18.5,512,41.3,512h429.4c22.8,0,41.3-18.5,41.3-41.3V115.6H445.9z
			 M41.3,495.5c-13.7,0-24.8-11.1-24.8-24.8V16.5h412.9v99.1v41.3v313.8c0,9.3,3.2,17.9,8.5,24.8H41.3z M495.5,470.7
			c0,13.7-11.1,24.8-24.8,24.8c-13.7,0-24.8-11.1-24.8-24.8V156.9v-24.8h49.5V470.7z"/>
	</g>
</g>
<g>
	<g>
		<path class="st0" d="M148.6,132.1c-9.1,0-16.5-7.4-16.5-16.5s7.4-16.5,16.5-16.5s16.5,7.4,16.5,16.5h16.5
			c0-15.3-10.6-28.2-24.8-31.9V66.1h-16.5v17.7c-14.2,3.7-24.8,16.5-24.8,31.9c0,18.2,14.8,33,33,33c9.1,0,16.5,7.4,16.5,16.5
			s-7.4,16.5-16.5,16.5s-16.5-7.4-16.5-16.5h-16.5c0,15.3,10.6,28.2,24.8,31.9v17.7h16.5V197c14.2-3.7,24.8-16.5,24.8-31.9
			C181.7,146.9,166.9,132.1,148.6,132.1z"/>
	</g>
</g>
<g>
	<g>
		<path class="st0" d="M33,33v214.7h231.2V33H33z M247.7,231.2H49.5V49.5h198.2V231.2z"/>
	</g>
</g>
<g>
	<g>
		<path class="st0" d="M396.4,462.5V330.3h-49.5v132.1h-33v-99.1h-49.5v99.1h-33V330.3h-49.5v132.1h-16.5V479h247.7v-16.5H396.4z
			 M214.7,462.5h-16.5V346.8h16.5V462.5z M297.3,462.5h-16.5v-82.6h16.5V462.5z M379.9,462.5h-16.5V346.8h16.5V462.5z"/>
	</g>
</g>
<g>
	<g>
		<rect x="280.8" y="33" class="st0" width="132.1" height="16.5"/>
	</g>
</g>
<g>
	<g>
		<rect x="280.8" y="66.1" class="st0" width="132.1" height="16.5"/>
	</g>
</g>
<g>
	<g>
		<rect x="280.8" y="99.1" class="st0" width="132.1" height="16.5"/>
	</g>
</g>
<g>
	<g>
		<rect x="280.8" y="132.1" class="st0" width="132.1" height="16.5"/>
	</g>
</g>
<g>
	<g>
		<rect x="280.8" y="165.2" class="st0" width="99.1" height="16.5"/>
	</g>
</g>
<g>
	<g>
		<rect x="396.4" y="165.2" class="st0" width="16.5" height="16.5"/>
	</g>
</g>
<g>
	<g>
		<rect x="33" y="264.3" class="st0" width="132.1" height="16.5"/>
	</g>
</g>
<g>
	<g>
		<rect x="33" y="297.3" class="st0" width="132.1" height="16.5"/>
	</g>
</g>
<g>
	<g>
		<rect x="33" y="330.3" class="st0" width="132.1" height="16.5"/>
	</g>
</g>
<g>
	<g>
		<rect x="33" y="363.4" class="st0" width="132.1" height="16.5"/>
	</g>
</g>
<g>
	<g>
		<rect x="148.6" y="396.4" class="st0" width="16.5" height="16.5"/>
	</g>
</g>
<g>
	<g>
		<rect x="33" y="396.4" class="st0" width="99.1" height="16.5"/>
	</g>
</g>
<g>
	<g>
		<path class="st0" d="M371.6,264.3c-13.7,0-24.8,11.1-24.8,24.8c0,0.3,0.1,0.6,0.1,1l-39.4,15.8c-4.5-5.2-11.1-8.5-18.5-8.5
			s-14,3.3-18.5,8.5L231.1,290c0-0.3,0.1-0.6,0.1-1c0-13.7-11.1-24.8-24.8-24.8c-13.7,0-24.8,11.1-24.8,24.8
			c0,13.7,11.1,24.8,24.8,24.8c7.4,0,14-3.3,18.5-8.5l39.4,15.8c0,0.3-0.1,0.6-0.1,1c0,13.7,11.1,24.8,24.8,24.8
			c13.7,0,24.8-11.1,24.8-24.8c0-0.3-0.1-0.6-0.1-1l39.4-15.8c4.5,5.2,11.1,8.5,18.5,8.5c13.7,0,24.8-11.1,24.8-24.8
			C396.4,275.4,385.3,264.3,371.6,264.3z M206.5,297.3c-4.6,0-8.3-3.7-8.3-8.3c0-4.6,3.7-8.3,8.3-8.3c4.6,0,8.3,3.7,8.3,8.3
			C214.7,293.6,211,297.3,206.5,297.3z M289,330.3c-4.6,0-8.3-3.7-8.3-8.3c0-4.6,3.7-8.3,8.3-8.3s8.3,3.7,8.3,8.3
			C297.3,326.6,293.6,330.3,289,330.3z M371.6,297.3c-4.6,0-8.3-3.7-8.3-8.3c0-4.6,3.7-8.3,8.3-8.3s8.3,3.7,8.3,8.3
			C379.9,293.6,376.2,297.3,371.6,297.3z"/>
	</g>
</g>
<g>
	<g>
		<rect x="198.2" y="132.1" class="st0" width="16.5" height="16.5"/>
	</g>
</g>
<g>
	<g>
		<rect x="82.6" y="132.1" class="st0" width="16.5" height="16.5"/>
	</g>
</g>
</svg>
