<?xml version="1.0" encoding="utf-8"?>
<!-- Generator: Adobe Illustrator 23.0.2, SVG Export Plug-In . SVG Version: 6.00 Build 0)  -->
<svg version="1.1" id="Capa_1" xmlns="http://www.w3.org/2000/svg" xmlns:xlink="http://www.w3.org/1999/xlink" x="0px" y="0px"
	 viewBox="0 0 512 512" style="enable-background:new 0 0 512 512;" xml:space="preserve">
<style type="text/css">
	.st0{fill:#CF2027;}
</style>
<g>
	<g>
		<path class="st0" d="M279.3,214.7c-91.9-60.6-205.5,40-157.6,138.6c28.5,58.6,103,79.9,158.1,43.1
			C345.7,353.1,343.6,256.3,279.3,214.7z M193.1,216.8c-7.9,7.7-15,16.7-20.9,27.3c-4.6-2.4-9-5.2-13.2-8.4
			C169.5,226.5,180.6,220.5,193.1,216.8z M147.8,247.4c5.5,4.3,11.4,8.1,17.6,11.3c-4.9,12.3-7.8,25.5-8.6,39H127
			C128.5,279.7,135.6,262.3,147.8,247.4z M127,313.8h29.8c0.8,13.6,3.8,26.6,8.5,38.8c-6.2,3.3-12.2,7.1-17.8,11.5
			C136,349.8,128.7,332,127,313.8z M158.8,375.7c4.3-3.2,8.7-6,13.4-8.5c5.6,10.2,12.6,19.4,20.8,27.3
			C180,390.6,168.2,383.9,158.8,375.7z M211.5,389.4c-9.9-7.8-18.2-17.5-24.5-28.6c7.9-2.7,16.1-4.4,24.5-5.1V389.4z M211.5,339.5
			c-10.8,0.7-21.4,3-31.5,6.6c-3.9-10.1-6.4-21-7.2-32.3h38.6V339.5z M211.5,297.7h-38.6c0.8-11.3,3.3-22.3,7.3-32.5
			c10,3.6,20.6,5.8,31.3,6.5V297.7z M211.5,255.5c-8.3-0.7-16.5-2.3-24.3-5c6.3-11,14.6-20.8,24.3-28.5V255.5z M311.8,297.7h-29.5v0
			c-0.8-13.8-3.7-26.9-8.4-39.1c6.2-3.2,12.1-7.1,17.7-11.4C303.1,261.2,310.2,278.6,311.8,297.7z M280.3,235.6
			c-4.2,3.1-8.6,5.9-13.2,8.4c-5.5-10-12.5-19.1-20.7-27C259.4,221,270.4,227,280.3,235.6z M227.7,222c10,7.8,18.3,17.4,24.6,28.4
			c-7.9,2.7-16.2,4.4-24.6,5.1V222z M259.2,265.1c3.9,10.2,6.3,21.1,7,32.6h-38.6v-26h0C238.5,270.9,249.1,268.7,259.2,265.1z
			 M227.6,313.8L227.6,313.8h38.6c-0.8,11.4-3.2,22.3-7,32.4c-10.1-3.6-20.7-5.9-31.6-6.6V313.8z M227.7,389.4v-33.7
			c8.5,0.7,16.7,2.4,24.7,5.1C246,371.9,237.7,381.6,227.7,389.4z M246.3,394.5c8.3-7.9,15.3-17.1,20.9-27.3c4.6,2.5,9,5.3,13.2,8.4
			C270.5,384.3,258.9,390.7,246.3,394.5z M291.8,364.1c-5.6-4.4-11.6-8.2-17.8-11.5c4.7-12.1,7.5-25.1,8.3-38.8h29.5
			C310.4,332.6,303.3,350,291.8,364.1z"/>
	</g>
</g>
<g>
	<g>
		<path class="st0" d="M249.4,34.2h-86.6c-4.2,0-7.6,3.4-7.6,7.6s3.4,7.6,7.6,7.6h86.6c4.2,0,7.6-3.4,7.6-7.6S253.6,34.2,249.4,34.2
			z"/>
	</g>
</g>
<g>
	<g>
		<path class="st0" d="M303.8,34.2h-24.2c-4.2,0-7.6,3.4-7.6,7.6s3.4,7.6,7.6,7.6h24.2c4.2,0,7.6-3.4,7.6-7.6S307.9,34.2,303.8,34.2
			z"/>
	</g>
</g>
<g>
	<g>
		<path class="st0" d="M303.8,64.4h-141c-4.2,0-7.6,3.4-7.6,7.6s3.4,7.6,7.6,7.6h141c4.2,0,7.6-3.4,7.6-7.6S307.9,64.4,303.8,64.4z"
			/>
	</g>
</g>
<g>
	<g>
		<path class="st0" d="M437.4,56L342,25.8v-8.7C342,7.7,334.3,0,324.9,0c-0.1,0-178.2,0-183.3,0c-9.4,0-17.1,7.7-17.1,17.1v82.2
			H82.8c-11.1,0-20.2,9.1-20.2,20.2v372.4c0,11.1,9.1,20.2,20.2,20.2h228.7c35.7,0,64.7-29,64.7-64.7V332.7h20.5
			c11.5,0,20.8-9.3,20.8-20.8V279c0-11.5-9.3-20.8-20.8-20.8h-5.3l36.4-115.2c1.3-4-0.9-8.2-4.9-9.5c-4-1.3-8.2,0.9-9.5,4.9
			l-37.3,118V164c0-21.6-10.6-40.7-26.8-52.4c45.8,14.4,44.1,14.2,46.2,14.2c8.6,0,10.5-12.2,2.3-14.8L342,93.4V77.6
			C405.3,97.4,402.5,97,404.7,97c8.6,0,10.5-12.2,2.3-14.8L342,61.7V41.6l90.9,28.7c1,0.3,1.7,1.4,1.3,2.5l-11.6,36.7
			c-1.3,4,0.9,8.2,4.9,9.5c4,1.2,8.2-0.9,9.5-4.9c11.7-37.8,12.4-37.3,12.4-41.9C449.4,64.8,444.6,58.2,437.4,56z M396.7,273.3
			c3.1,0,5.7,2.6,5.7,5.7v32.9c0,3.1-2.5,5.7-5.7,5.7c-13.7,0-29.7,0-42.9,0c-3.1,0-5.7-2.6-5.7-5.7V279c0-3.1,2.5-5.7,5.7-5.7
			C357.6,273.3,389.8,273.3,396.7,273.3z M361.1,164v94.2h-7.3c-11.5,0-20.8,9.3-20.8,20.8v32.9c0,11.5,9.3,20.8,20.8,20.8h7.3
			c0,12.9,0,99.9,0,114.6c0,27.4-22.3,49.6-49.6,49.6H82.8c-2.8,0-5.1-2.3-5.1-5.1V119.5c0-2.8,2.3-5.1,5.1-5.1
			c16.6,0,56.8,0,71.1,0c4.2,0,7.6-3.4,7.6-7.6c0-4.2-3.4-7.6-7.6-7.6h-14.3V17.1c0-1.1,0.9-2,2-2c35.8,0,147.5,0,183.3,0
			c1.1,0,2,0.9,2,2c0,17.6,0,64.6,0,84c-13.3-3.3-11.1-1.2-142.8-1.9c-4.2,0-7.6,3.4-7.6,7.6c0,4.2,3.4,7.6,7.6,7.6
			c131.5,0.8,129.6-1.9,142.8,2.5C346.7,123.3,361.1,142,361.1,164z"/>
	</g>
</g>
</svg>
