<?xml version="1.0" encoding="utf-8"?>
<!-- Generator: Adobe Illustrator 23.0.2, SVG Export Plug-In . SVG Version: 6.00 Build 0)  -->
<svg version="1.1" id="Capa_1" xmlns="http://www.w3.org/2000/svg" xmlns:xlink="http://www.w3.org/1999/xlink" x="0px" y="0px"
	 viewBox="0 0 512 512" style="enable-background:new 0 0 512 512;" xml:space="preserve">
<style type="text/css">
	.st0{fill:#CF2027;}
</style>
<g>
	<g>
		<path class="st0" d="M503.5,85.3H298.7c-4.7,0-8.5,3.8-8.5,8.5v76.8c0,4.7,3.8,8.5,8.5,8.5c0.9,0,1.8-0.1,2.7-0.4l10.7-3.6
			c11.6-3.8,24.2,2.5,28,14.2c3.8,11.6-2.5,24.2-14.2,28c-4.5,1.5-9.3,1.5-13.8,0l-10.7-3.6c-4.5-1.5-9.3,0.9-10.8,5.4
			c-0.3,0.9-0.4,1.8-0.4,2.7v68.3h-68.3c-4.7,0-8.5,3.8-8.5,8.5c0,0.9,0.1,1.8,0.4,2.7l3.6,10.7c3.8,11.6-2.5,24.2-14.2,28
			c-11.6,3.8-24.2-2.5-28-14.2c-1.5-4.5-1.5-9.3,0-13.8l3.6-10.7c1.5-4.5-0.9-9.3-5.4-10.8c-0.9-0.3-1.8-0.4-2.7-0.4H93.9
			c-4.7,0-8.5,3.8-8.5,8.5v204.8c0,4.7,3.8,8.5,8.5,8.5h409.6c4.7,0,8.5-3.8,8.5-8.5V93.9C512,89.2,508.2,85.3,503.5,85.3z
			 M290.6,424c-0.3,0.9-0.4,1.8-0.4,2.7v68.3H102.4V307.2h56.4c-6.5,20.7,5,42.7,25.6,49.2c20.7,6.5,42.7-5,49.2-25.6
			c2.4-7.7,2.4-15.9,0-23.6h56.4v68.3c0,4.7,3.8,8.5,8.5,8.5c0.9,0,1.8-0.1,2.7-0.4l10.7-3.6c11.6-3.8,24.2,2.5,28,14.2
			s-2.5,24.2-14.2,28c-4.5,1.5-9.3,1.5-13.8,0l-10.7-3.6C296.9,417.1,292.1,419.5,290.6,424z M494.9,494.9H307.2v-56.4
			c20.7,6.5,42.7-5,49.2-25.6c6.5-20.7-5-42.7-25.6-49.2c-7.7-2.4-15.9-2.4-23.6,0v-56.4h68.3c4.7,0,8.5-3.8,8.5-8.5
			c0-0.9-0.1-1.8-0.4-2.7l-3.6-10.7c-3.8-11.6,2.5-24.2,14.2-28c11.6-3.8,24.2,2.5,28,14.2c1.5,4.5,1.5,9.3,0,13.8l-3.6,10.7
			c-1.5,4.5,0.9,9.3,5.4,10.8c0.9,0.3,1.8,0.4,2.7,0.4h68.3L494.9,494.9L494.9,494.9z M494.9,290.1h-56.4c6.5-20.7-5-42.7-25.6-49.2
			c-20.7-6.5-42.7,5-49.2,25.6c-2.4,7.7-2.4,15.9,0,23.6h-56.4v-56.4c11.9,3.8,24.8,1.8,34.9-5.6c17.6-12.6,21.8-37.1,9.2-54.8
			c-9.9-13.9-27.8-19.8-44.1-14.5v-56.4h187.7V290.1z"/>
	</g>
</g>
<g>
	<g>
		<path class="st0" d="M245.5,73.5c-7.7-2.4-15.9-2.4-23.6,0v-65c0-4.7-3.8-8.5-8.5-8.5H8.5C3.8,0,0,3.8,0,8.5v204.8
			c0,4.7,3.8,8.5,8.5,8.5h65c-6.5,20.7,5,42.7,25.6,49.2s42.7-5,49.2-25.6c2.4-7.7,2.4-15.9,0-23.6h65c4.7,0,8.5-3.8,8.5-8.5v-65
			c20.7,6.5,42.7-5,49.2-25.6C277.6,102.1,266.2,80,245.5,73.5z M240.6,132c-4.5,1.5-9.3,1.5-13.8,0l-10.7-3.6
			c-4.5-1.5-9.3,0.9-10.8,5.4c-0.3,0.9-0.4,1.8-0.4,2.7v68.3h-68.3c-4.7,0-8.5,3.8-8.5,8.5c0,0.9,0.1,1.8,0.4,2.7l3.6,10.7
			c3.8,11.6-2.5,24.2-14.2,28c-11.6,3.8-24.2-2.5-28-14.2c-1.5-4.5-1.5-9.3,0-13.8l3.6-10.7c1.5-4.5-0.9-9.3-5.4-10.8
			c-0.9-0.3-1.8-0.4-2.7-0.4H17.1V17.1h187.7v68.3c0,4.7,3.8,8.5,8.5,8.5c0.9,0,1.8-0.1,2.7-0.4l10.7-3.6c11.6-3.8,24.2,2.5,28,14.2
			C258.6,115.7,252.2,128.2,240.6,132z"/>
	</g>
</g>
</svg>
