<?xml version="1.0" encoding="utf-8"?>
<!-- Generator: Adobe Illustrator 23.0.2, SVG Export Plug-In . SVG Version: 6.00 Build 0)  -->
<svg version="1.1" id="Capa_1" xmlns="http://www.w3.org/2000/svg" xmlns:xlink="http://www.w3.org/1999/xlink" x="0px" y="0px"
	 viewBox="0 0 512 512" style="enable-background:new 0 0 512 512;" xml:space="preserve">
<style type="text/css">
	.st0{fill:#CF2027;}
</style>
<g>
	<path class="st0" d="M479.5,334c3.9-17,6-34.2,6-51.5c0-80.3-40.9-153.4-109.4-195.6c-4.2-2.6-9.6-1.3-12.1,2.9
		c-2.6,4.2-1.3,9.6,2.9,12.1c63.2,38.9,101,106.4,101,180.5c0,15.2-1.8,30.5-5.1,45.4c-4.1-0.8-8.3-1.3-12.6-1.3
		c-34.1,0-61.8,27.7-61.8,61.8s27.7,61.8,61.8,61.8s61.8-27.7,61.8-61.8C512,364.9,498.8,344.5,479.5,334z M450.2,432.6
		c-24.3,0-44.1-19.8-44.1-44.1s19.8-44.1,44.1-44.1c24.3,0,44.1,19.8,44.1,44.1S474.5,432.6,450.2,432.6z"/>
	<path class="st0" d="M337,478.3c-25.7,10.6-53,16-81,16c-56.4,0-110.6-22.7-150.2-62.6c11-11.2,17.8-26.5,17.8-43.3
		c0-34.1-27.7-61.8-61.8-61.8S0,354.3,0,388.4s27.7,61.8,61.8,61.8c10.8,0,21-2.8,29.8-7.7C134.7,486.7,194.2,512,256,512
		c30.3,0,59.8-5.9,87.7-17.4c4.5-1.9,6.6-7,4.8-11.5C346.6,478.6,341.5,476.4,337,478.3z M17.7,388.4c0-24.3,19.8-44.1,44.1-44.1
		s44.1,19.8,44.1,44.1s-19.8,44.1-44.1,44.1S17.7,412.8,17.7,388.4z"/>
	<path class="st0" d="M35.3,275.5c0.2,0,0.4,0,0.6,0c4.6,0,8.5-3.5,8.8-8.2c6.3-89.1,67-163.5,152-188.2
		c7.5,25.6,31.2,44.4,59.3,44.4c34.1,0,61.8-27.7,61.8-61.8S290.1,0,256,0c-34,0-61.7,27.6-61.8,61.6
		C100.8,87.6,34,168.8,27.1,266.1C26.8,271,30.4,275.2,35.3,275.5z M256,17.7c24.3,0,44.1,19.8,44.1,44.1s-19.8,44.1-44.1,44.1
		s-44.1-19.8-44.1-44.1S231.7,17.7,256,17.7z"/>
</g>
</svg>
