<?xml version="1.0" encoding="utf-8"?>
<!-- Generator: Adobe Illustrator 23.0.2, SVG Export Plug-In . SVG Version: 6.00 Build 0)  -->
<svg version="1.1" id="Capa_1" xmlns="http://www.w3.org/2000/svg" xmlns:xlink="http://www.w3.org/1999/xlink" x="0px" y="0px"
	 viewBox="0 0 512 512" style="enable-background:new 0 0 512 512;" xml:space="preserve">
<style type="text/css">
	.st0{fill:#CF2027;}
</style>
<g>
	<g>
		<g>
			<path class="st0" d="M59.3,366.5c-17.8,0-32.9,14.6-32.9,32.9c0,17.8,14.6,32.9,32.9,32.9c17.8,0,32.9-14.6,32.9-32.9
				S77.6,366.5,59.3,366.5z M59.3,417.7c-10.2,0-18.9-8.6-18.9-18.9c0-10.2,8.6-18.9,18.9-18.9s18.9,8.6,18.9,18.9
				C78.1,409.6,70.1,417.7,59.3,417.7z"/>
			<path class="st0" d="M166,222.6c-17.8,0-32.9,14.6-32.9,32.9c0,17.8,14.6,32.9,32.9,32.9c17.8,0,32.9-14.6,32.9-32.9
				C198.3,237.7,183.8,222.6,166,222.6z M166,274.3c-10.2,0-18.9-8.6-18.9-18.9s8.6-18.9,18.9-18.9c10.2,0,18.9,8.6,18.9,18.9
				C184.9,265.7,176.2,274.3,166,274.3z"/>
			<path class="st0" d="M326.1,215c-17.8,0-32.9,14.6-32.9,32.9c0,17.8,14.6,32.9,32.9,32.9c17.8,0,32.9-14.6,32.9-32.9
				C358.4,229.6,343.8,215,326.1,215z M326.1,266.2c-10.2,0-18.9-8.6-18.9-18.9c0-10.2,8.6-18.9,18.9-18.9s18.9,8.6,18.9,18.9
				C344.4,258.2,336.3,266.2,326.1,266.2z"/>
			<path class="st0" d="M450.6,51.7c-33.4,0-60.4,26.9-60.4,60.4c0,15.1,5.9,29.1,15.1,39.9l-43.1,48c-10.2-7.5-22.6-12.4-36.1-12.4
				c-31.8,0-57.7,24.8-59.8,56.1h-41c-5.4-27.5-30.2-48-58.7-48c-33.4,0-60.4,26.9-60.4,60.4c0,17.2,7,32.3,18.9,43.7l-35,48
				c-8.6-4.9-18.9-8.1-29.6-8.1C26.9,339.5,0,366.5,0,399.9s26.9,60.4,60.4,60.4s60.4-26.9,60.4-60.4c0-17.2-7.5-32.9-19.4-44.2
				l35-48c9.2,5.4,19.4,8.1,30.2,8.1c32.3,0,59.3-25.9,60.4-58.2h40.4c4.9,28.6,29.6,50.7,59.3,50.7c33.4,0,60.4-26.9,60.4-60.4
				c0-14.6-5.4-28-13.5-38.3l43.7-48.5c9.7,7,21.6,10.8,34.5,10.8c33.4,0,60.4-26.9,60.4-60.4C510.4,78.7,483.4,51.7,450.6,51.7z
				 M105.6,398.8c0,25.3-20.5,46.3-46.3,46.3c-25.3,0-46.3-20.5-46.3-46.3c0-25.3,20.5-46.3,46.3-46.3
				C85.2,353,105.6,373.5,105.6,398.8z M166,301.8c-25.3,0-46.3-20.5-46.3-46.3c0-25.3,20.5-46.3,46.3-46.3
				c25.3,0,46.3,20.5,46.3,46.3C212.3,280.8,191.3,301.8,166,301.8z M326.1,293.7c-25.3,0-46.3-20.5-46.3-46.3
				c0-25.3,20.5-46.3,46.3-46.3c25.3,0,46.3,20.5,46.3,46.3C371.9,273.2,351.4,293.7,326.1,293.7z M450.6,157.9
				c-25.3,0-46.3-20.5-46.3-46.3c0-25.3,20.5-46.3,46.3-46.3c25.3,0,46.3,20.5,46.3,46.3C496.4,137.4,475.9,157.9,450.6,157.9z"/>
			<path class="st0" d="M450.6,79.2c-17.8,0-32.9,14.6-32.9,32.9c0,17.8,14.6,32.9,32.9,32.9c17.8,0,32.9-14.6,32.9-32.9
				C482.9,93.8,468.3,79.2,450.6,79.2z M450.6,130.4c-10.2,0-18.9-8.6-18.9-18.9s8.6-18.9,18.9-18.9c10.2,0,18.9,8.6,18.9,18.9
				C468.9,122.3,460.8,130.4,450.6,130.4z"/>
		</g>
	</g>
</g>
</svg>
