<?xml version="1.0" encoding="utf-8"?>
<!-- Generator: Adobe Illustrator 23.0.2, SVG Export Plug-In . SVG Version: 6.00 Build 0)  -->
<svg version="1.1" id="Capa_1" xmlns="http://www.w3.org/2000/svg" xmlns:xlink="http://www.w3.org/1999/xlink" x="0px" y="0px"
	 viewBox="0 0 512 512" style="enable-background:new 0 0 512 512;" xml:space="preserve">
<style type="text/css">
	.st0{fill:#CF2027;}
</style>
<g>
	<g>
		<path class="st0" d="M404.6,148.6c-59.2,0-107.4,48.2-107.4,107.4s48.2,107.4,107.4,107.4S512,315.2,512,256
			S463.8,148.6,404.6,148.6z M404.6,346.8c-50.1,0-90.8-40.8-90.8-90.8s40.8-90.8,90.8-90.8s90.8,40.8,90.8,90.8
			S454.7,346.8,404.6,346.8z"/>
	</g>
</g>
<g>
	<g>
		<path class="st0" d="M404.6,247.7c-9.1,0-16.5-7.4-16.5-16.5s7.4-16.5,16.5-16.5s16.5,7.4,16.5,16.5h16.5
			c0-15.3-10.6-28.2-24.8-31.9v-17.7h-16.5v17.7c-14.2,3.7-24.8,16.5-24.8,31.9c0,18.2,14.8,33,33,33c9.1,0,16.5,7.4,16.5,16.5
			c0,9.1-7.4,16.5-16.5,16.5s-16.5-7.4-16.5-16.5h-16.5c0,15.4,10.6,28.2,24.8,31.9v17.7h16.5v-17.7c14.2-3.7,24.8-16.5,24.8-31.9
			C437.7,262.6,422.9,247.7,404.6,247.7z"/>
	</g>
</g>
<g>
	<g>
		<path class="st0" d="M198,325.2l-49.4-9.9v-11.9c8.3-5.8,14.9-13.7,19.2-22.9c16.9-1.4,30.3-15.5,30.3-32.8v-41.3
			c0-45.5-37-82.6-82.6-82.6S33,160.9,33,206.5v41.3c0,17.3,13.4,31.3,30.3,32.8c4.3,9.2,11,17.1,19.2,22.9v11.9l-49.4,9.9
			C14,329,0,346,0,365.7v22.5h231.2v-22.5C231.2,346,217.3,329,198,325.2z M173.1,262.1c0.2-2,0.3-4.1,0.3-6.1v-22.5
			c4.9,2.9,8.3,8.1,8.3,14.2C181.7,254,178.2,259.3,173.1,262.1z M49.5,247.7c0-6.1,3.3-11.4,8.3-14.2V256c0,2.1,0.1,4.1,0.3,6.1
			C53,259.3,49.5,254,49.5,247.7z M59.1,215.5c-3.4,0.7-6.6,2.1-9.5,3.8v-12.8c0-36.4,29.6-66.1,66.1-66.1s66.1,29.6,66.1,66.1v12.8
			c-2.9-1.7-6.1-3.1-9.5-3.8c-3.2-10-12.5-17.3-23.5-17.3H82.6C71.5,198.2,62.3,205.5,59.1,215.5z M74.3,256v-33
			c0-4.6,3.7-8.3,8.3-8.3h66.1c4.6,0,8.3,3.7,8.3,8.3v33c0,22.8-18.5,41.3-41.3,41.3S74.3,278.8,74.3,256z M132.1,311.4v7.3
			l-16.5,16.5l-16.5-16.5v-7.3c5.2,1.6,10.8,2.4,16.5,2.4S126.9,312.9,132.1,311.4z M214.7,371.6H16.5v-6c0-11.8,8.4-22,19.9-24.3
			L88.1,331l27.5,27.5l27.5-27.5l51.7,10.3c11.5,2.3,19.9,12.5,19.9,24.3V371.6z"/>
	</g>
</g>
<g>
	<g>
		<path class="st0" d="M396.4,379.9v107.4c0,4.6-3.7,8.3-8.3,8.3h-256c-4.6,0-8.3-3.7-8.3-8.3v-56.4l44.2,37.9l10.8-12.5L115.6,402
			l-63.2,54.2l10.8,12.5l44.2-37.9v56.4c0,13.7,11.1,24.8,24.8,24.8h256c13.7,0,24.8-11.1,24.8-24.8V379.9H396.4z"/>
	</g>
</g>
<g>
	<g>
		<path class="st0" d="M457.1,68l-44.2,37.9V24.8c0-13.7-11.1-24.8-24.8-24.8h-256c-13.7,0-24.8,11.1-24.8,24.8v82.6h16.5V24.8
			c0-4.6,3.7-8.3,8.3-8.3h256c4.6,0,8.3,3.7,8.3,8.3v81.1l-44.2-37.9l-10.8,12.5l63.2,54.1l63.2-54.2L457.1,68z"/>
	</g>
</g>
<g>
	<g>
		<rect x="454.2" y="247.7" class="st0" width="16.5" height="16.5"/>
	</g>
</g>
<g>
	<g>
		<rect x="338.6" y="247.7" class="st0" width="16.5" height="16.5"/>
	</g>
</g>
<g>
	<g>
		<rect x="280.8" y="33" class="st0" width="16.5" height="16.5"/>
	</g>
</g>
<g>
	<g>
		<rect x="247.7" y="33" class="st0" width="16.5" height="16.5"/>
	</g>
</g>
<g>
	<g>
		<rect x="214.7" y="33" class="st0" width="16.5" height="16.5"/>
	</g>
</g>
<g>
	<g>
		<rect x="280.8" y="462.5" class="st0" width="16.5" height="16.5"/>
	</g>
</g>
<g>
	<g>
		<rect x="247.7" y="462.5" class="st0" width="16.5" height="16.5"/>
	</g>
</g>
<g>
	<g>
		<rect x="214.7" y="462.5" class="st0" width="16.5" height="16.5"/>
	</g>
</g>
</svg>
