<?xml version="1.0" encoding="utf-8"?>
<!-- Generator: Adobe Illustrator 23.0.2, SVG Export Plug-In . SVG Version: 6.00 Build 0)  -->
<svg version="1.1" id="Capa_1" xmlns="http://www.w3.org/2000/svg" xmlns:xlink="http://www.w3.org/1999/xlink" x="0px" y="0px"
	 viewBox="0 0 512 512" style="enable-background:new 0 0 512 512;" xml:space="preserve">
<style type="text/css">
	.st0{fill:#CF2027;}
</style>
<g>
	<g>
		<path class="st0" d="M461.4,88.2L305.1,3.5c-14.8-8-35.2-1.9-43.2,13l-91.4,169.9H59.2c-14.2,0-25.3,11.1-25.3,25.3v44.5v230.4
			c0,14.2,11.1,25.3,25.3,25.3h355.2c14.2,0,25.3-11.1,25.3-25.3v-64.3h10.5c5.6,0,9.9-4.3,9.9-9.9V339c0-5.6-4.3-9.9-9.9-9.9h-10.5
			v-72.3c0-11.7-8.6-22.2-19.8-24.7l54.4-100.7C482.5,116,476.9,96.8,461.4,88.2z M350.2,50.5l-97.6,181h-27.8L329.2,39.4
			L350.2,50.5z M279.8,25.8c3.1-5.6,10.5-8,16.1-4.9l15.4,8.6l-108.7,202h-34L279.8,25.8z M53.1,211.1c0-1.9,2.5-4.9,5.6-4.9h100.7
			l-13.6,24.7H58.6c-1.9,0-3.7,0-5.6,0.6L53.1,211.1L53.1,211.1z M419.4,486.7c0,3.1-2.5,5.6-5.6,5.6H58.6c-3.1,0-5.6-2.5-5.6-5.6
			V256.8c0-3.1,2.5-5.6,5.6-5.6h93.3h39.5h72.3h139h10.5c3.1,0,5.6,2.5,5.6,5.6v72.3h-37.7l0,0c-16.7,0-29.7,13.6-29.7,29.7v34
			c0,16.7,13.6,29.7,29.7,29.7h38.3L419.4,486.7L419.4,486.7z M439.2,348.9h0.6v53.7h-0.6h-58.1c-5.6,0-9.9-4.3-9.9-9.9v-34
			c0-5.6,4.3-9.9,9.9-9.9H439.2z M456.5,121.5l-59.3,110H274.9l92.7-171.1l84,45.7C457.7,108.6,459.6,116,456.5,121.5z"/>
	</g>
</g>
<g>
	<g>
		<path class="st0" d="M418.8,112.3l-4.9-2.5c-12.4-6.8-29-1.9-35.8,10.5l-6.2,11.7c-3.1,6.2-4.3,13.6-1.9,20.4
			c1.9,6.8,6.8,12.4,13,15.4l4.9,2.5c3.7,1.9,8,3.1,12.4,3.1c9.9,0,18.5-5.6,23.5-13.6l6.2-11.7
			C436.1,135.1,431.2,119.1,418.8,112.3z M412,138.8l-6.2,11.7c-1.9,3.1-6.2,4.3-9.3,2.5l-4.9-3.1c-1.2-0.6-2.5-2.5-3.1-3.7
			c-0.6-1.9-0.6-3.7,0.6-4.9l6.2-11.7c1.2-1.9,3.7-3.7,6.2-3.7c1.2,0,1.9,0,3.1,0.6l4.9,2.5C412,131.4,413.3,135.1,412,138.8z"/>
	</g>
</g>
</svg>
