<?xml version="1.0" encoding="utf-8"?>
<!-- Generator: Adobe Illustrator 23.0.2, SVG Export Plug-In . SVG Version: 6.00 Build 0)  -->
<svg version="1.1" id="Layer_1" xmlns="http://www.w3.org/2000/svg" xmlns:xlink="http://www.w3.org/1999/xlink" x="0px" y="0px"
	 viewBox="0 0 512 512" style="enable-background:new 0 0 512 512;" xml:space="preserve">
<style type="text/css">
	.st0{fill:#D12027;}
</style>
<g>
	<path class="st0" d="M508.3,368.4c-9.5-22.2-34.8-32.1-56.6-24.8l-90.8,30.3c-0.3-3.7-1-7.5-2.2-11.1c-3.8-11.4-11.8-20.6-22.6-26
		l-124.4-62.2c-16.8-8.4-36.1-10.2-54.1-5l-37.1,10.6c-3.3-21.6-22-38.1-44.5-38.1H15c-8.3,0-15,6.7-15,15v210c0,8.3,6.7,15,15,15
		h91c8.3,0,15-6.7,15-15v-8l77.6,38.8c34.7,17.3,76.1,19.4,113.5,3.3l172.7-73.6C507.6,417.7,518.1,391.3,508.3,368.4z M91,452H30
		V272h46c8.3,0,15,6.7,15,15V452z M472.9,399.9l-172.7,73.6c-28.8,12.4-61,11.1-88.3-2.6l-91-45.5V311.2l44.8-12.8
		c10.9-3.1,22.4-2,32.5,3l124.4,62.2c7.4,3.7,10.4,12.7,6.7,20.1c-3.8,7.5-12.9,10.3-20.1,6.7l-74.2-37.1
		c-18.9-9.5-42.2-4.3-55.4,12.3c-5.1,6.5-4.1,15.9,2.4,21.1c6.5,5.1,15.9,4.1,21.1-2.4c4.4-5.5,12.1-7.3,18.5-4.1l74.2,37.1
		c16.3,8.2,36.3,5.7,50.2-6.8l115.1-38.4c7.5-2.5,16.4,0.8,19.5,8.1C484.1,387.9,480.4,396.7,472.9,399.9z"/>
	<path class="st0" d="M331,107c0,8.3-6.7,15-15,15s-15-6.7-15-15c0-8.3,6.7-15,15-15S331,98.7,331,107z"/>
	<path class="st0" d="M391,167c0,8.3-6.7,15-15,15c-8.3,0-15-6.7-15-15c0-8.3,6.7-15,15-15C384.2,152,391,158.7,391,167z"/>
	<path class="st0" d="M386.6,96.4c-5.9-5.9-15.4-5.9-21.2,0l-60,60c-5.9,5.9-5.9,15.4,0,21.2c5.9,5.9,15.4,5.9,21.2,0l60-60
		C392.5,111.7,392.5,102.3,386.6,96.4z"/>
	<path class="st0" d="M186.6,178.7l150,120c2.7,2.2,6.1,3.3,9.4,3.3c3.3,0,6.6-1.1,9.3-3.3l151-120c5-4,6.9-10.7,4.8-16.7
		S503.4,152,497,152h-46V15c0-8.3-6.7-15-15-15H256c-8.3,0-15,6.7-15,15v137h-45c-6.4,0-12,4-14.2,10
		C179.7,168,181.7,174.7,186.6,178.7z M256,182c8.3,0,15-6.7,15-15V30h150v137c0,8.3,6.7,15,15,15h18l-108,85.8L238.8,182H256z"/>
</g>
</svg>
