<?xml version="1.0" encoding="utf-8"?>
<!-- Generator: Adobe Illustrator 23.0.2, SVG Export Plug-In . SVG Version: 6.00 Build 0)  -->
<svg version="1.1" id="Layer_1" xmlns="http://www.w3.org/2000/svg" xmlns:xlink="http://www.w3.org/1999/xlink" x="0px" y="0px"
	 viewBox="0 0 512 512" style="enable-background:new 0 0 512 512;" xml:space="preserve">
<style type="text/css">
	.st0{fill:#D12026;}
</style>
<g>
	<path class="st0" d="M478.6,406.5v-280c0-13.3-10.7-24-24-24h-104c-4.4,0-8,3.6-8,8s3.6,8,8,8h104c4.4,0,8,3.6,8,8v280h-16v-256
		c0-8.8-7.2-16-16-16h-80c-4.4,0-8,3.6-8,8c0,4.4,3.6,8,8,8h80v256h-352v-256h80c4.4,0,8-3.6,8-8c0-4.4-3.6-8-8-8h-80
		c-8.8,0-16,7.2-16,16v256h-16v-280c0-4.4,3.6-8,8-8h104c4.4,0,8-3.6,8-8s-3.6-8-8-8h-104c-13.3,0-24,10.7-24,24v280
		c-8.8,0-16,7.2-16,16v32c0,22.1,17.9,40,40,40h400c22.1,0,40-17.9,40-40v-32C494.6,413.7,487.4,406.5,478.6,406.5z M321.6,422.6
		l-5.8,11.6c-1.3,2.7-4.1,4.4-7.2,4.4H200.4c-3,0-5.8-1.7-7.2-4.4l-5.8-11.6H321.6z M454.5,478.6h-400c-13.3,0-24-10.7-24-24h88
		c4.4,0,8-3.6,8-8s-3.6-8-8-8h-88v-16h139.1l9.4,18.7c4,8.1,12.4,13.3,21.5,13.3h108.2c9.1,0,17.4-5.1,21.5-13.3l9.4-18.7h139.1v16
		h-88c-4.4,0-8,3.6-8,8s3.6,8,8,8h88C478.6,467.8,467.8,478.6,454.5,478.6z"/>
	<path class="st0" d="M158.6,438.5h-8c-4.4,0-8,3.6-8,8s3.6,8,8,8h8c4.4,0,8-3.6,8-8S163,438.5,158.6,438.5z"/>
	<path class="st0" d="M358.6,438.5h-8c-4.4,0-8,3.6-8,8s3.6,8,8,8h8c4.4,0,8-3.6,8-8S363,438.5,358.6,438.5z"/>
	<path class="st0" d="M326.6,230.6c-31.6-0.1-59.6,20.5-68.9,50.7c-9.3,30.2,2.1,63,28.3,80.8c26.1,17.8,60.8,16.4,85.5-3.3
		l29.5,29.5c3.1,3,8.1,3,11.2-0.1c3.1-3.1,3.1-8.1,0.1-11.2l-29.5-29.5c17.3-21.6,20.7-51.2,8.7-76.1
		C379.5,246.4,354.2,230.5,326.6,230.6z M326.6,358.6c-30.9,0-56-25.1-56-56c0-30.9,25.1-56,56-56c30.9,0,56,25.1,56,56
		C382.5,333.5,357.5,358.5,326.6,358.6z"/>
	<path class="st0" d="M350.6,278.6h-16c-8.8,0-16,7.2-16,16v16c0,8.8,7.2,16,16,16h16c8.8,0,16-7.2,16-16v-16
		C366.5,285.7,359.4,278.6,350.6,278.6z M334.5,310.6v-16h16v16H334.5z"/>
	<path class="st0" d="M294.6,278.6c-4.4,0-8,3.6-8,8v32c0,4.4,3.6,8,8,8c4.4,0,8-3.6,8-8v-32C302.6,282.1,299,278.6,294.6,278.6z"/>
	<path class="st0" d="M96.9,324.2c3.1,3.1,8.2,3.1,11.3,0l18.3-18.3l18.3,18.3c3.1,3,8.1,3,11.2-0.1c3.1-3.1,3.1-8.1,0.1-11.2
		l-18.3-18.3l18.3-18.3c3-3.1,3-8.1-0.1-11.2c-3.1-3.1-8.1-3.1-11.2-0.1l-18.3,18.3l-18.3-18.3c-3.1-3-8.1-3-11.2,0.1
		c-3.1,3.1-3.1,8.1-0.1,11.2l18.3,18.3l-18.3,18.3C93.8,316,93.8,321.1,96.9,324.2z"/>
	<path class="st0" d="M236.2,264.9c-3.1-3.1-8.2-3.1-11.3,0l-18.3,18.3l-18.3-18.3c-3.1-3-8.1-3-11.2,0.1c-3.1,3.1-3.1,8.1-0.1,11.2
		l18.3,18.3l-18.3,18.3c-2.1,2-2.9,5-2.2,7.8c0.7,2.8,2.9,5,5.7,5.7c2.8,0.7,5.8-0.1,7.8-2.2l18.3-18.3l18.3,18.3
		c3.1,3,8.1,3,11.2-0.1c3.1-3.1,3.1-8.1,0.1-11.2l-18.3-18.3l18.3-18.3C239.3,273.1,239.3,268,236.2,264.9z"/>
	<path class="st0" d="M102.6,358.6h128c4.4,0,8-3.6,8-8s-3.6-8-8-8h-128c-4.4,0-8,3.6-8,8S98.1,358.6,102.6,358.6z"/>
	<path class="st0" d="M254.6,110.6c-11.7,0-21.7,8.4-23.6,19.9c-2,11.5,4.6,22.8,15.6,26.6v9.5c0,4.4,3.6,8,8,8c4.4,0,8-3.6,8-8
		v-9.5c11-3.9,17.6-15.1,15.6-26.6C276.2,118.9,266.2,110.5,254.6,110.6z M254.6,142.6c-4.4,0-8-3.6-8-8s3.6-8,8-8c4.4,0,8,3.6,8,8
		S259,142.6,254.6,142.6z"/>
	<path class="st0" d="M206.6,62.6v16c-13.3,0-24,10.7-24,24v64c0,22.1,17.9,40,40,40h64c22.1,0,40-17.9,40-40v-64
		c0-13.3-10.7-24-24-24v-16c0-26.5-21.5-48-48-48C228,14.6,206.6,36,206.6,62.6z M310.6,102.6v8h-16c-4.4,0-8,3.6-8,8
		c0,4.4,3.6,8,8,8h16v24h-16c-4.4,0-8,3.6-8,8s3.6,8,8,8h16c0,13.3-10.7,24-24,24h-64c-13.3,0-24-10.7-24-24h16c4.4,0,8-3.6,8-8
		s-3.6-8-8-8h-16v-24h16c4.4,0,8-3.6,8-8c0-4.4-3.6-8-8-8h-16v-8c0-4.4,3.6-8,8-8h96C307,94.5,310.6,98.1,310.6,102.6z M286.5,62.6
		v16h-64v-16c0-17.7,14.3-32,32-32S286.5,44.9,286.5,62.6z"/>
</g>
</svg>
