<?xml version="1.0" encoding="utf-8"?>
<!-- Generator: Adobe Illustrator 23.0.2, SVG Export Plug-In . SVG Version: 6.00 Build 0)  -->
<svg version="1.1" id="Capa_1" xmlns="http://www.w3.org/2000/svg" xmlns:xlink="http://www.w3.org/1999/xlink" x="0px" y="0px"
	 viewBox="0 0 512 512" style="enable-background:new 0 0 512 512;" xml:space="preserve">
<style type="text/css">
	.st0{fill:#D12027;}
</style>
<g>
	<g>
		<g>
			<rect x="42.7" y="51.2" class="st0" width="110.9" height="17.1"/>
		</g>
	</g>
	<g>
		<g>
			<rect x="42.7" y="85.3" class="st0" width="110.9" height="17.1"/>
		</g>
	</g>
	<g>
		<g>
			<rect x="42.7" y="119.5" class="st0" width="76.8" height="17.1"/>
		</g>
	</g>
	<g>
		<g>
			<rect x="42.7" y="153.6" class="st0" width="76.8" height="17.1"/>
		</g>
	</g>
	<g>
		<g>
			<rect x="0" y="494.9" class="st0" width="512" height="17.1"/>
		</g>
	</g>
	<g>
		<g>
			<path class="st0" d="M494,73L459.9,4.7c-2.1-4.2-7.2-5.9-11.4-3.8c0,0,0,0,0,0L380.2,35c-4.2,2.1-5.9,7.2-3.8,11.5
				c2.1,4.2,7.2,5.9,11.5,3.8l49.4-24.7l-13.5,38.5C364.5,233,211.7,351.5,33.4,366.9l1.5,17.1c185-16,343.5-139,405-314.2
				l13.8-39.4l25.1,50.2c2.1,4.2,7.2,5.9,11.5,3.8C494.4,82.3,496.1,77.2,494,73z"/>
		</g>
	</g>
	<g>
		<g>
			<path class="st0" d="M102.4,409.6H42.7c-4.7,0-8.5,3.8-8.5,8.5v51.2c0,4.7,3.8,8.5,8.5,8.5h59.7c4.7,0,8.5-3.8,8.5-8.5v-51.2
				C110.9,413.4,107.1,409.6,102.4,409.6z M93.9,460.8H51.2v-34.1h42.7V460.8z"/>
		</g>
	</g>
	<g>
		<g>
			<path class="st0" d="M196.3,384h-59.7c-4.7,0-8.5,3.8-8.5,8.5v76.8c0,4.7,3.8,8.5,8.5,8.5h59.7c4.7,0,8.5-3.8,8.5-8.5v-76.8
				C204.8,387.8,201,384,196.3,384z M187.7,460.8h-42.7v-59.7h42.7V460.8z"/>
		</g>
	</g>
	<g>
		<g>
			<path class="st0" d="M290.1,341.3h-59.7c-4.7,0-8.5,3.8-8.5,8.5v119.5c0,4.7,3.8,8.5,8.5,8.5h59.7c4.7,0,8.5-3.8,8.5-8.5V349.9
				C298.7,345.2,294.8,341.3,290.1,341.3z M281.6,460.8h-42.7V358.4h42.7V460.8z"/>
		</g>
	</g>
	<g>
		<g>
			<path class="st0" d="M384,281.6h-59.7c-4.7,0-8.5,3.8-8.5,8.5v179.2c0,4.7,3.8,8.5,8.5,8.5H384c4.7,0,8.5-3.8,8.5-8.5V290.1
				C392.5,285.4,388.7,281.6,384,281.6z M375.5,460.8h-42.7V298.7h42.7V460.8z"/>
		</g>
	</g>
	<g>
		<g>
			<path class="st0" d="M477.9,162.1h-59.7c-4.7,0-8.5,3.8-8.5,8.5v298.7c0,4.7,3.8,8.5,8.5,8.5h59.7c4.7,0,8.5-3.8,8.5-8.5V170.7
				C486.4,166,482.6,162.1,477.9,162.1z M469.3,460.8h-42.7V179.2h42.7V460.8z"/>
		</g>
	</g>
</g>
</svg>
