<?xml version="1.0" encoding="utf-8"?>
<!-- Generator: Adobe Illustrator 23.0.2, SVG Export Plug-In . SVG Version: 6.00 Build 0)  -->
<svg version="1.1" id="Capa_1" xmlns="http://www.w3.org/2000/svg" xmlns:xlink="http://www.w3.org/1999/xlink" x="0px" y="0px"
	 viewBox="0 0 512 512" style="enable-background:new 0 0 512 512;" xml:space="preserve">
<style type="text/css">
	.st0{fill:#D12027;}
	.st1{font-family:'MyriadPro-Regular';}
	.st2{font-size:12px;}
</style>
<text transform="matrix(1 0 0 1 306 396)" class="st0 st1 st2">99</text>
<text transform="matrix(1 0 0 1 306 396)" class="st0 st1 st2">99</text>
<g>
	<g>
		<path class="st0" d="M87.1,369.8c30.7,0,58.9-18.1,71.9-45.6h7c4.5,0,8.2-3.7,8.2-8.2c0-4.5-3.7-8.2-8.2-8.2H8.2
			c-4.5,0-8.2,3.7-8.2,8.2c0,4.5,3.7,8.2,8.2,8.2h7C28.2,351.6,56.4,369.8,87.1,369.8z M140.3,324.2c-11.5,17.9-31.6,29.3-53.2,29.3
			S45.3,342,33.8,324.2H140.3z"/>
		<path class="st0" d="M503.8,307.8H346c-4.5,0-8.2,3.7-8.2,8.2c0,4.5,3.7,8.2,8.2,8.2h7c13,27.5,41.2,45.6,71.9,45.6
			s58.9-18.1,71.9-45.6h7c4.5,0,8.2-3.7,8.2-8.2C512,311.5,508.3,307.8,503.8,307.8z M424.9,353.4c-21.7,0-41.8-11.4-53.2-29.3
			h106.5C466.7,342,446.6,353.4,424.9,353.4z"/>
		<path class="st0" d="M460.3,492.8h-41.8c-3.9-23.7-24.5-41.8-49.3-41.8H364c-3.9-23.7-24.5-41.8-49.3-41.8h-50.6V100.1h149.4
			l-62.9,188.2c-1.4,4.3,0.9,8.9,5.2,10.3c4.3,1.4,8.9-0.9,10.3-5.2l58.8-175.8l58.8,175.8c1.1,3.4,4.3,5.6,7.7,5.6
			c0.9,0,1.7-0.1,2.6-0.4c4.3-1.4,6.6-6.1,5.2-10.3l-62.9-188.2h13.4c4.5,0,8.2-3.7,8.2-8.2c0-4.5-3.7-8.2-8.2-8.2H264.2V36h39.9
			c12.8,0,23.3,10.4,23.3,23.3c0,4.5,3.7,8.2,8.2,8.2h24.7c4.5,0,8.2-3.7,8.2-8.2s-3.7-8.2-8.2-8.2h-17.4
			c-3.8-17.9-19.7-31.4-38.8-31.4h-39.9v-8.6c0-4.5-3.7-8.2-8.2-8.2c-4.5,0-8.2,3.7-8.2,8.2v8.6h-39.9c-19,0-35,13.5-38.8,31.4
			h-17.4c-4.5,0-8.2,3.7-8.2,8.2s3.7,8.2,8.2,8.2h24.7c4.5,0,8.2-3.7,8.2-8.2c0-12.8,10.4-23.3,23.3-23.3h39.9v47.8H62.3
			c-4.5,0-8.2,3.7-8.2,8.2c0,4.5,3.7,8.2,8.2,8.2h13.4L12.8,288.3c-1.4,4.3,0.9,8.9,5.2,10.3c4.3,1.4,8.9-0.9,10.3-5.2l58.8-175.8
			l58.8,175.8c1.1,3.4,4.3,5.6,7.7,5.6c0.9,0,1.7-0.1,2.6-0.4c4.3-1.4,6.6-6.1,5.2-10.3L98.4,100.1h149.4v309.1h-50.6
			c-24.8,0-45.4,18.1-49.3,41.8h-5.2c-24.8,0-45.3,18.1-49.3,41.8H51.7c-4.5,0-8.2,3.7-8.2,8.2c0,4.5,3.7,8.2,8.2,8.2h408.5
			c4.5,0,8.2-3.7,8.2-8.2C468.4,496.4,464.8,492.8,460.3,492.8z M142.8,467.4h12.7c4.5,0,8.2-3.7,8.2-8.2
			c0-18.5,15.1-33.6,33.6-33.6h117.5c18.5,0,33.6,15.1,33.6,33.6c0,4.5,3.7,8.2,8.2,8.2h12.7c15.7,0,28.9,10.8,32.6,25.4H110.2
			C113.9,478.2,127.1,467.4,142.8,467.4z"/>
		<path class="st0" d="M323.8,451H188.2c-4.5,0-8.2,3.7-8.2,8.2s3.7,8.2,8.2,8.2h135.6c4.5,0,8.2-3.7,8.2-8.2S328.3,451,323.8,451z"
			/>
	</g>
</g>
</svg>
