<?xml version="1.0" encoding="utf-8"?>
<!-- Generator: Adobe Illustrator 23.0.2, SVG Export Plug-In . SVG Version: 6.00 Build 0)  -->
<svg version="1.1" id="Layer_1" xmlns="http://www.w3.org/2000/svg" xmlns:xlink="http://www.w3.org/1999/xlink" x="0px" y="0px"
	 viewBox="0 0 512 512" style="enable-background:new 0 0 512 512;" xml:space="preserve">
<style type="text/css">
	.st0{fill:#D12027;}
</style>
<g>
	<path class="st0" d="M416.8,61h15v15h-15V61z"/>
	<path class="st0" d="M441.8,61h15v15h-15V61z"/>
	<path class="st0" d="M466.8,61h15v15h-15V61z"/>
	<path class="st0" d="M0,33v15h497v32.8h15V33H0z"/>
	<path class="st0" d="M26.9,165.9H70v-43.2H26.9V165.9z M41.9,137.7H55v13.2H41.9V137.7z"/>
	<path class="st0" d="M78.5,165.9h43.2v-43.2H78.5V165.9z M93.5,137.7h13.2v13.2H93.5V137.7z"/>
	<path class="st0" d="M485.1,122.7h-349v43.2h349V122.7z M470.1,150.9h-319v-13.2h319V150.9z"/>
	<path class="st0" d="M126.4,63.3H0V195h512V93.3H136.4L126.4,63.3z M497,180H15V78.3h100.6l10,30H497V180z"/>
	<path class="st0" d="M497,464.2H15V207.5H0v271.8h512V207.5h-15V464.2z"/>
	<path class="st0" d="M405.5,277h72.8v-64.1H199.5v236h60.4v-43h57.8v28h-45.3v15h205.9V289.5h-15V305h-57.8V277z M259.9,227.9
		h203.4V262H259.9V227.9z M317.7,277v28h-57.8v-28H317.7z M390.5,390.9h-57.8v-28h57.8V390.9z M405.5,362.9h57.8v28h-57.8V362.9z
		 M332.7,347.9v-28h57.8v28H332.7z M317.7,347.9h-57.8v-28h57.8V347.9z M214.5,227.9h30.4V262h-30.4V227.9z M244.9,433.9h-30.4V277
		h30.4V433.9z M259.9,390.9v-28h57.8v28H259.9z M332.7,433.9v-28h57.8v28H332.7z M405.5,433.9v-28h57.8v28H405.5z M463.3,320v28
		h-57.8v-28H463.3z M390.5,305h-57.8v-28h57.8V305z"/>
	<path class="st0" d="M41.4,371.2v55h40.1v25.1h46.2v-25.1h39.1V304.7h-66.6v-15.5h66.6v-55h-39.1v-25.1H81.5v25.1H41.4v121.5h66.6
		v15.5H41.4z M56.4,340.8v-91.5h40.1v-25.1h16.2v25.1h39.1v25H85.3v45.5h66.6v91.5h-39.1v25.1H96.5v-25.1H56.4v-25h66.6v-45.5H56.4z
		"/>
	<path class="st0" d="M326,75.3h-90v-15h90V75.3z M226,75.3h-15v-15h15V75.3z M201,75.3h-15v-15h15V75.3z"/>
	<path class="st0" d="M427.3,252.5h-98.4v-15h98.4V252.5z M318.8,252.5h-15v-15h15V252.5z M293.8,252.5h-15v-15h15V252.5z"/>
	<path class="st0" d="M141.1,268.2H116v-15h25.1V268.2z M106,268.2H91v-15h15V268.2z M81,268.2H66v-15h15V268.2z"/>
</g>
</svg>
