<?xml version="1.0" encoding="utf-8"?>
<!-- Generator: Adobe Illustrator 23.0.2, SVG Export Plug-In . SVG Version: 6.00 Build 0)  -->
<svg version="1.1" id="Capa_1" xmlns="http://www.w3.org/2000/svg" xmlns:xlink="http://www.w3.org/1999/xlink" x="0px" y="0px"
	 viewBox="0 0 512 512" style="enable-background:new 0 0 512 512;" xml:space="preserve">
<style type="text/css">
	.st0{fill:#D12027;}
</style>
<g>
	<g>
		<g>
			<path class="st0" d="M428.2,363.8l-28.6-29.1c-2.9-3-7.6-3.4-11-0.9l-124.8,91.9l-44.2-20.8l38.8-4.3c4.3-0.5,7.5-4.2,7.4-8.4
				v-36.5c0-4.7-3.8-8.4-8.4-8.4h-42.2l-71.1-7.3c-1.4-0.1-2.9,0.1-4.2,0.7l-48.5,20.8H0v16.9h93.1c1.2,0,2.3-0.2,3.4-0.7l48.1-21
				l69.4,7.1h35.4v20.9l-31.3,3.9l-45.4-4.8c-4.1-0.4-7.9,2.2-9,6.2c-1.1,3.9,0.8,8.1,4.5,9.9l93.7,43.1c2.8,1.3,6,0.9,8.4-0.8
				l122.8-90.2l16.9,17.6L268.9,492.6h-38.3L95.9,442.5c-0.9-0.4-1.9-0.6-3-0.6H0v16.9h91.5L226.1,509c0.9,0.3,1.9,0.5,3,0.5H272
				c2.1,0,4-0.8,5.6-2.1l150.2-131.3c0.1-0.1,0.3-0.3,0.4-0.4C431.5,372.4,431.5,367.1,428.2,363.8z"/>
		</g>
	</g>
	<g>
		<g>
			<path class="st0" d="M450.7,213.9l-44.6-46.4c-1.4-1.5-3.3-2.4-5.4-2.6l-91.2-8.4h-34.8l1.7-25.3l33-6.7l46.1,10.3
				c1,0.2,1.9,0.2,2.9,0l44.9-5.3l-2-16.9l-43.4,4.6l-46.5-10.3c-1.1-0.3-2.3-0.3-3.5,0l-41.1,8.4c-3.8,0.7-6.6,3.9-6.8,7.8
				l-2.7,41.1c0,0.2,0,0.3,0,0.5c0,4.7,3.8,8.4,8.5,8.4h43.1l87.3,7.9l44.9,47.1c1.6,1.7,3.8,2.6,6.1,2.6h59.8v-16.9H450.7z"/>
		</g>
	</g>
	<g>
		<g>
			<path class="st0" d="M436,38c-0.9-0.8-2-1.3-3.2-1.5L289.2,2.7c-2.4-0.5-5,0.1-6.9,1.6l-92.9,67.6l10,13.7l89.8-65.3l138,32.4
				l74.6,58L512,97.1L436,38z"/>
		</g>
	</g>
	<g>
		<g>
			<path class="st0" d="M298.8,54.3c-2.2-1-4.7-1-6.9,0l-50.7,25.3l7.6,15l47.3-23.6l38.7,15.8l6.3-15.7L298.8,54.3z"/>
		</g>
	</g>
	<g>
		<g>
			<path class="st0" d="M211.4,147.9l-14.9-2.2c-6.8-1-10.7-3.6-10.7-7.9s5.9-8.4,13.9-8h6.1c7.9,0,13.9,4.2,13.9,8v2.3h16.9v-2.3
				c0-14.4-13.5-25.3-30.7-25.3h-6.1c-17.2,0-30.7,11-30.7,25.3c1.4,13.2,12.1,23.4,25.3,24.2l14.6,2.2c6.8,1,10.7,4.1,10.7,7.9
				s-5.9,8-13.9,8h-6.1c-7.9,0-13.9-4.2-13.9-8v-2.3h-16.9v2.3c0,13.9,13.9,24.9,30.7,24.9h6.1c17.2,0,30.7-11,31-24.5
				C235.6,159.1,224.8,148.7,211.4,147.9z"/>
		</g>
	</g>
	<g>
		<g>
			<path class="st0" d="M269.7,163.6c-3.1,23-17.7,42.8-38.8,52.5c-33.9,15.6-74,0.7-89.6-33.2s-0.7-74,33.2-89.6s74-0.7,89.6,33.2
				l15.3-7.1c-13.8-29.9-43.7-49.1-76.7-49.1c-46.7,0-84.5,37.8-84.5,84.5c0,46.7,37.8,84.5,84.5,84.5c42.4,0.1,78.3-31.3,83.9-73.3
				L269.7,163.6z"/>
		</g>
	</g>
	<g>
		<g>
			<rect x="194.3" y="104" class="st0" width="16.9" height="16.9"/>
		</g>
	</g>
</g>
</svg>
