<?xml version="1.0" encoding="utf-8"?>
<!-- Generator: Adobe Illustrator 23.0.2, SVG Export Plug-In . SVG Version: 6.00 Build 0)  -->
<svg version="1.1" id="Capa_1" xmlns="http://www.w3.org/2000/svg" xmlns:xlink="http://www.w3.org/1999/xlink" x="0px" y="0px"
	 viewBox="0 0 512 512" style="enable-background:new 0 0 512 512;" xml:space="preserve">
<style type="text/css">
	.st0{fill:#D12026;}
</style>
<g>
	<g>
		<path class="st0" d="M452.3,324.3v-25.6c0-34.7-26.1-63.5-59.7-67.7v-26.2h17.1c56.5,0,102.4-45.9,102.4-102.4S466.1,0,409.6,0
			H298.7c-14.9,0-29.2,3.3-42.7,9.5C242.5,3.3,228.2,0,213.3,0H102.4C45.9,0,0,45.9,0,102.4s45.9,102.4,102.4,102.4h17.1V231
			c-33.6,4.2-59.7,32.9-59.7,67.7v25.6c-23.5,0-42.7,19.1-42.7,42.7v102.4c0,23.5,19.1,42.7,42.7,42.7h136.5
			c23.5,0,42.7-19.1,42.7-42.7V366.9c0-23.5-19.1-42.7-42.7-42.7v-25.6c0-34.7-26.1-63.5-59.7-67.7v-26.2h76.8
			c14.9,0,29.2-3.3,42.7-9.5c13.5,6.2,27.8,9.5,42.7,9.5h76.8V231c-33.6,4.2-59.7,32.9-59.7,67.7v25.6c-23.5,0-42.7,19.1-42.7,42.7
			v102.4c0,23.5,19.1,42.7,42.7,42.7h136.5c23.5,0,42.7-19.1,42.7-42.7V366.9C494.9,343.4,475.8,324.3,452.3,324.3z M221.9,366.9
			v102.4c0,14.1-11.5,25.6-25.6,25.6H59.7c-14.1,0-25.6-11.5-25.6-25.6V366.9c0-14.1,11.5-25.6,25.6-25.6h136.5
			C210.4,341.3,221.9,352.8,221.9,366.9z M179.2,298.7v25.6H76.8v-25.6c0-28.2,23-51.2,51.2-51.2S179.2,270.4,179.2,298.7z
			 M252.1,178.3c-12.2,6.2-25.2,9.4-38.8,9.4H102.4c-47.1,0-85.3-38.3-85.3-85.3s38.3-85.3,85.3-85.3h110.9c8.2,0,16.2,1.2,23.9,3.4
			c-5.6,4.2-10.7,8.9-15.3,14.2c-2.9-0.4-5.7-0.5-8.6-0.5H102.4c-37.6,0-68.3,30.6-68.3,68.3s30.6,68.3,68.3,68.3h110.9
			c4.6,0,9.2-0.5,13.7-1.4c13.3-2.7,25.4-9.3,35-19.1c12.6-12.8,19.5-29.8,19.5-47.7c0-3.4-0.3-6.7-0.8-9.9
			c-0.1-0.6-0.2-1.2-0.3-1.8c-0.5-3.1-1.3-6.2-2.3-9.2c-0.2-0.6-0.4-1.1-0.6-1.7c-2.2-6.2-5.3-12-9.2-17.4c-0.2-0.3-0.3-0.6-0.6-0.9
			c4.6-3.5,9.8-6.2,15.3-7.9c10.1,14.4,15.4,31.1,15.4,48.8c0,19.5-6.5,37.9-18.7,53.2C272.4,165.1,263,172.8,252.1,178.3z
			 M210.1,153.6H102.4c-28.2,0-51.2-23-51.2-51.2s23-51.2,51.2-51.2h107.7c-9,15.5-13.8,32.9-13.8,51.2S201,138.1,210.1,153.6z
			 M247.5,102.4c0-2.3,0.2-4.5,0.5-6.7c0.1-0.5,0.1-1.1,0.2-1.6c0.4-2.2,0.8-4.4,1.4-6.5c0-0.1,0.1-0.2,0.1-0.3c0.6-2,1.4-4,2.3-5.9
			c0.2-0.5,0.4-1,0.7-1.5c1-2,2-3.9,3.2-5.7c0,0,0-0.1,0.1-0.1c0,0,0,0.1,0.1,0.1c1.2,1.8,2.3,3.8,3.2,5.7c0.2,0.5,0.5,1,0.7,1.5
			c0.9,1.9,1.7,3.9,2.3,5.9c0,0.1,0.1,0.2,0.1,0.3c0.6,2.1,1.1,4.3,1.4,6.5c0.1,0.5,0.2,1.1,0.2,1.6c0.3,2.2,0.5,4.4,0.5,6.7
			c0,2.3-0.2,4.5-0.5,6.7c-0.1,0.5-0.2,1.1-0.2,1.6c-0.4,2.2-0.8,4.3-1.4,6.4c0,0.1-0.1,0.2-0.1,0.3c-0.6,2-1.4,4-2.3,5.9
			c-0.2,0.5-0.5,1-0.7,1.5c-1,2-2,3.9-3.2,5.7c0,0,0,0.1-0.1,0.1c0,0,0-0.1-0.1-0.1c-1.2-1.8-2.3-3.8-3.2-5.7
			c-0.2-0.5-0.5-1-0.7-1.5c-0.9-1.9-1.6-3.9-2.3-5.9c0-0.1-0.1-0.2-0.1-0.3c-0.6-2.1-1.1-4.3-1.4-6.4c-0.1-0.5-0.2-1.1-0.2-1.6
			C247.7,106.9,247.5,104.7,247.5,102.4z M298.7,187.7c-8.2,0-16.2-1.2-23.9-3.4c5.6-4.2,10.7-8.9,15.3-14.2
			c2.9,0.4,5.7,0.5,8.6,0.5h110.9c37.6,0,68.3-30.6,68.3-68.3s-30.6-68.3-68.3-68.3H298.7c-4.6,0-9.2,0.5-13.7,1.4
			c-13.3,2.7-25.4,9.3-35,19.1c-12.6,12.8-19.5,29.8-19.5,47.7c0,3.4,0.3,6.7,0.8,9.9c0.1,0.6,0.2,1.2,0.3,1.8
			c0.5,3.1,1.3,6.2,2.3,9.2c0.2,0.6,0.4,1.1,0.6,1.7c2.2,6.2,5.2,12,9.2,17.4c0.2,0.3,0.4,0.6,0.6,0.9c-4.6,3.5-9.8,6.2-15.3,7.9
			c-10.1-14.4-15.4-31.1-15.4-48.8c0-19.5,6.5-37.9,18.7-53.2c7.6-9.5,17-17.2,27.9-22.7c12.2-6.2,25.2-9.4,38.8-9.4h110.9
			c47.1,0,85.3,38.3,85.3,85.3s-38.3,85.3-85.3,85.3H298.7z M301.9,51.2h107.7c28.2,0,51.2,23,51.2,51.2s-23,51.2-51.2,51.2H301.9
			c9-15.5,13.8-32.9,13.8-51.2S311,66.7,301.9,51.2z M332.8,298.7c0-28.2,23-51.2,51.2-51.2s51.2,23,51.2,51.2v25.6H332.8V298.7z
			 M477.9,469.3c0,14.1-11.5,25.6-25.6,25.6H315.7c-14.1,0-25.6-11.5-25.6-25.6V366.9c0-14.1,11.5-25.6,25.6-25.6h136.5
			c14.1,0,25.6,11.5,25.6,25.6V469.3z"/>
	</g>
</g>
<g>
	<g>
		<path class="st0" d="M128,358.4c-23.5,0-42.7,19.1-42.7,42.7c0,13.3,6.4,25.9,17.1,34v34.3c0,4.7,3.8,8.5,8.5,8.5h34.1
			c4.7,0,8.5-3.8,8.5-8.5V435c10.6-8,17.1-20.6,17.1-34C170.7,377.5,151.5,358.4,128,358.4z M140.8,423.1c-2.6,1.5-4.2,4.3-4.2,7.4
			v30.3h-17.1v-30.3c0-3-1.6-5.8-4.2-7.4c-8-4.7-12.8-12.9-12.8-22c0-14.1,11.5-25.6,25.6-25.6s25.6,11.5,25.6,25.6
			C153.6,410.2,148.8,418.4,140.8,423.1z"/>
	</g>
</g>
<g>
	<g>
		<path class="st0" d="M384,358.4c-23.5,0-42.7,19.1-42.7,42.7c0,13.3,6.4,25.9,17.1,34v34.3c0,4.7,3.8,8.5,8.5,8.5h34.1
			c4.7,0,8.5-3.8,8.5-8.5V435c10.6-8,17.1-20.6,17.1-34C426.7,377.5,407.5,358.4,384,358.4z M396.8,423.1c-2.6,1.5-4.2,4.3-4.2,7.4
			v30.3h-17.1v-30.3c0-3-1.6-5.8-4.2-7.4c-8-4.7-12.8-12.9-12.8-22c0-14.1,11.5-25.6,25.6-25.6c14.1,0,25.6,11.5,25.6,25.6
			C409.6,410.2,404.8,418.4,396.8,423.1z"/>
	</g>
</g>
<g>
	<g>
		<rect x="187.7" y="460.8" class="st0" width="17.1" height="17.1"/>
	</g>
</g>
<g>
	<g>
		<rect x="443.7" y="460.8" class="st0" width="17.1" height="17.1"/>
	</g>
</g>
</svg>
