<?xml version="1.0" encoding="utf-8"?>
<!-- Generator: Adobe Illustrator 23.0.2, SVG Export Plug-In . SVG Version: 6.00 Build 0)  -->
<svg version="1.1" id="Capa_1" xmlns="http://www.w3.org/2000/svg" xmlns:xlink="http://www.w3.org/1999/xlink" x="0px" y="0px"
	 viewBox="0 0 512 512" style="enable-background:new 0 0 512 512;" xml:space="preserve">
<style type="text/css">
	.st0{fill:#D12026;}
</style>
<g>
	<g>
		<g>
			<path class="st0" d="M509,45.6L465.8,2.4c-3.4-3.3-8.8-3.2-12,0.2c-3.2,3.3-3.2,8.5,0,11.8l28.6,28.7H256
				C138.5,43.2,43.2,138.5,43.1,256c0,4.7,3.8,8.5,8.5,8.5s8.5-3.8,8.5-8.5C60.2,147.9,147.9,60.2,256,60.1h226.4l-28.6,28.7
				c-3.4,3.3-3.5,8.7-0.2,12c3.3,3.4,8.7,3.5,12,0.2c0.1-0.1,0.1-0.1,0.2-0.2L509,57.6C512.3,54.3,512.3,48.9,509,45.6z"/>
			<path class="st0" d="M434.8,256c0-98.8-80.1-178.8-178.8-178.8S77.2,157.2,77.2,256S157.2,434.8,256,434.8
				C354.7,434.7,434.7,354.7,434.8,256z M94.2,256c0-89.4,72.4-161.8,161.8-161.8S417.8,166.6,417.8,256S345.4,417.8,256,417.8
				C166.7,417.7,94.3,345.3,94.2,256z"/>
			<path class="st0" d="M264.5,392.3c0-4.7-3.8-8.5-8.5-8.5c-70.6,0-127.7-57.2-127.7-127.7S185.4,128.3,256,128.3
				S383.7,185.4,383.7,256c0,4.7,3.8,8.5,8.5,8.5c4.7,0,8.5-3.8,8.5-8.5c0-80-64.8-144.8-144.8-144.8S111.2,176,111.2,256
				S176,400.8,256,400.8C260.7,400.8,264.5,397,264.5,392.3z"/>
			<path class="st0" d="M460.4,247.5c-4.7,0-8.5,3.8-8.5,8.5c-0.1,108.1-87.8,195.8-195.9,195.9H29.6l28.7-28.6
				c3.3-3.4,3.2-8.8-0.2-12c-3.3-3.2-8.5-3.2-11.8,0L3,454.4c-3.3,3.3-3.3,8.7,0,12l43.2,43.2c3.4,3.3,8.8,3.2,12-0.2
				c3.2-3.3,3.2-8.5,0-11.8l-28.7-28.7H256c117.5-0.1,212.8-95.4,212.9-212.9C468.9,251.3,465.1,247.5,460.4,247.5z"/>
			<path class="st0" d="M297.8,281.6c-4-19.9-21.5-34.1-41.8-34.1c-14.1,0-25.5-11.4-25.5-25.5s11.4-25.5,25.5-25.5
				s25.5,11.4,25.5,25.5c0,4.7,3.8,8.5,8.5,8.5c4.7,0,8.5-3.8,8.5-8.5c0-20.2-14.3-37.7-34.1-41.7v-9.4c0-4.7-3.8-8.5-8.5-8.5
				c-4.7,0-8.5,3.8-8.5,8.5v9.4c-23,4.7-37.9,27.2-33.3,50.2c4,19.9,21.5,34.1,41.8,34.1c14.1,0,25.5,11.4,25.5,25.5
				c0,14.1-11.4,25.5-25.5,25.5c-14.1,0-25.5-11.4-25.5-25.5c0-4.7-3.8-8.5-8.5-8.5s-8.5,3.8-8.5,8.5c0,20.2,14.3,37.7,34.1,41.7
				v9.4c0,4.7,3.8,8.5,8.5,8.5c4.7,0,8.5-3.8,8.5-8.5v-9.4C287.6,327.1,302.5,304.6,297.8,281.6z"/>
			<path class="st0" d="M299.5,385.4l-4.4-16.4c-1.1-4.6-5.7-7.4-10.2-6.3s-7.4,5.7-6.3,10.2c0,0.2,0.1,0.3,0.1,0.5l4.4,16.5
				c1,3.7,4.4,6.3,8.2,6.3c0.7,0,1.5-0.1,2.2-0.3C298,394.6,300.7,390,299.5,385.4C299.5,385.4,299.5,385.4,299.5,385.4z"/>
			<path class="st0" d="M331.5,369.7L323,355c-2.3-4.1-7.5-5.5-11.6-3.2c-4.1,2.3-5.5,7.5-3.2,11.6c0,0,0,0.1,0.1,0.1l8.5,14.8
				c2.3,4.1,7.5,5.5,11.6,3.2C332.5,379.1,333.9,373.9,331.5,369.7C331.5,369.8,331.5,369.8,331.5,369.7z"/>
			<path class="st0" d="M346.3,334.3c-3.4-3.3-8.8-3.2-12,0.2c-3.2,3.3-3.2,8.5,0,11.8l12,12.1c3.3,3.3,8.7,3.3,12.1,0
				c3.3-3.3,3.3-8.7,0-12.1L346.3,334.3z"/>
			<path class="st0" d="M378.4,316.8C378.3,316.8,378.3,316.8,378.4,316.8l-14.8-8.6c-4.1-2.3-9.3-0.9-11.6,3.2
				c-2.3,4.1-0.9,9.2,3.1,11.6l14.7,8.5c4.1,2.4,9.3,1,11.7-3C383.8,324.4,382.4,319.2,378.4,316.8z"/>
			<path class="st0" d="M389.8,283L389.8,283l-16.4-4.4c-4.5-1.2-9.2,1.5-10.4,6c-1.2,4.5,1.5,9.2,6,10.4l16.5,4.4
				c0.7,0.2,1.5,0.3,2.2,0.3c4.7,0,8.5-3.8,8.5-8.5C396.1,287.4,393.5,284,389.8,283z"/>
		</g>
	</g>
</g>
</svg>
