<?xml version="1.0" encoding="utf-8"?>
<!-- Generator: Adobe Illustrator 23.0.2, SVG Export Plug-In . SVG Version: 6.00 Build 0)  -->
<svg version="1.1" id="Capa_1" xmlns="http://www.w3.org/2000/svg" xmlns:xlink="http://www.w3.org/1999/xlink" x="0px" y="0px"
	 viewBox="0 0 512 512" style="enable-background:new 0 0 512 512;" xml:space="preserve">
<style type="text/css">
	.st0{fill:#D12026;}
</style>
<g>
	<g>
		<path class="st0" d="M503.5,264.5h-9.2c0.4-5.8,0.7-11.5,0.7-17.1c0-5-0.2-10-0.5-14.9c-0.1-1.3-0.2-2.5-0.3-3.8
			c-0.3-3.9-0.7-7.9-1.2-11.7c-0.1-1.1-0.3-2.2-0.4-3.3c-1.4-10.2-3.4-20.3-6-30.1c-0.1-0.2-0.1-0.5-0.2-0.7
			c-1.2-4.6-2.6-9.2-4.2-13.7c-0.3-0.8-0.6-1.7-0.9-2.5c-1.5-4.3-3.1-8.6-4.8-12.8c-0.2-0.5-0.4-1-0.6-1.5c-1.9-4.5-3.9-9-6.1-13.4
			c-0.6-1.2-1.2-2.4-1.8-3.5c-1.6-3.1-3.2-6.1-4.9-9.1c-0.5-0.9-0.9-1.8-1.4-2.6c-0.1-0.2-0.3-0.3-0.4-0.5
			C418.4,49.6,338.6,0,247.5,0c0,0,0,0,0,0C156.3,0,76.5,49.6,33.6,123.2c-0.1,0.2-0.3,0.3-0.4,0.5c-0.5,0.9-0.9,1.8-1.4,2.6
			c-1.7,3-3.3,6-4.9,9.1c-0.6,1.2-1.2,2.4-1.8,3.5c-2.2,4.4-4.2,8.9-6.1,13.4c-0.2,0.5-0.4,1-0.6,1.5c-1.7,4.2-3.3,8.5-4.8,12.8
			c-0.3,0.8-0.6,1.7-0.9,2.5c-1.5,4.5-2.9,9.1-4.2,13.7c-0.1,0.2-0.1,0.5-0.2,0.7c-2.6,9.8-4.6,19.9-6,30.1
			c-0.2,1.1-0.3,2.2-0.4,3.3c-0.5,3.9-0.9,7.8-1.2,11.7c-0.1,1.3-0.2,2.5-0.3,3.8c-0.3,4.9-0.5,9.9-0.5,14.9c0,4.9,0.2,9.8,0.5,14.6
			c0.1,1.3,0.2,2.5,0.3,3.7C1,270,1.5,274.1,2,278.2c0.1,0.8,0.2,1.5,0.3,2.3c0.7,4.9,1.5,9.7,2.4,14.4c0.2,0.9,0.4,1.9,0.6,2.8
			c0.8,3.9,1.7,7.8,2.7,11.7c0.3,1.2,0.6,2.3,0.9,3.5c1.2,4.5,2.6,8.9,4,13.2c0.4,1.3,0.9,2.6,1.4,3.8c1.1,3.1,2.2,6.1,3.4,9.1
			c0.7,1.9,1.5,3.7,2.3,5.6c1.2,2.7,2.4,5.4,3.7,8.1c1.5,3.1,3,6.1,4.5,9.1c1,2,2,3.9,3.1,5.8c0.6,1.2,1.2,2.4,1.9,3.5
			c0.2,0.3,0.4,0.5,0.6,0.8c37,63.3,101.3,109.1,177.8,120.2c7.6,11.9,20.8,19.8,35.9,19.8h119.5c23.5,0,42.7-19.1,42.7-42.7v-51.2
			h93.9c4.7,0,8.5-3.8,8.5-8.5V273.1C512,268.4,508.2,264.5,503.5,264.5z M449.7,137.2c2.1,3.8,4,7.6,5.9,11.5
			c0.4,0.9,0.8,1.7,1.2,2.6c1.5,3.3,3,6.6,4.3,9.9c0.4,1,0.8,1.9,1.1,2.9c1.4,3.6,2.7,7.3,4,11c0.2,0.5,0.4,1,0.5,1.6
			c2.8,8.8,5.1,17.8,6.9,26.9c0.1,0.6,0.2,1.3,0.3,1.9c0.7,3.7,1.3,7.5,1.8,11.3c0.1,1.1,0.3,2.2,0.4,3.3c0.4,3.4,0.7,6.9,1,10.4
			c0.1,1.2,0.2,2.3,0.3,3.4c0.3,4.5,0.4,9,0.4,13.5c0,5.6-0.2,11.3-0.7,17.1h-67.6v-51.2c0-23.5-19.1-42.7-42.7-42.7h-11.7
			c-3.5-11.8-7.6-23.2-12.1-34.1h106.2C449.5,136.8,449.6,137,449.7,137.2z M392.5,213.3H221.9c0-14.1,11.5-25.6,25.6-25.6h101.4h18
			C381,187.7,392.5,199.2,392.5,213.3z M438.9,119.5H335.5C313.4,73.2,285.1,37.3,268.1,18C339.2,24.4,401.2,63.1,438.9,119.5z
			 M247.5,20.8c12.9,13.8,44.4,49.9,69,98.7H178.6C203.2,70.8,234.6,34.6,247.5,20.8z M226.8,18c-17.1,19.3-45.6,55.2-67.6,101.4H56
			C93.8,63.2,155.7,24.4,226.8,18z M17.3,237.5c0.1-3.3,0.4-6.5,0.7-9.8c0.1-0.9,0.1-1.8,0.2-2.6c0.9-8.7,2.2-17.3,4-25.9
			c0.1-0.3,0.1-0.5,0.2-0.8c0.9-3.9,1.8-7.8,2.9-11.6c0.2-0.7,0.4-1.4,0.6-2c1-3.4,2-6.8,3.1-10.2c0.3-0.9,0.6-1.7,0.9-2.6
			c1.1-3.2,2.3-6.3,3.5-9.5c0.4-0.9,0.7-1.8,1.1-2.7c1.4-3.3,2.8-6.6,4.3-9.8c0.3-0.6,0.6-1.3,0.9-1.9c1.8-3.7,3.6-7.3,5.6-10.9
			c0.1-0.3,0.3-0.5,0.4-0.7h106c-12.8,30.8-22.1,65.5-23.4,102.4H17.3C17.3,238.5,17.3,238,17.3,237.5z M170.2,358.4
			c-13.7-30.9-23.6-65.6-24.9-102.4h59.5v102.4H170.2z M204.8,375.5v44.9c-9.1-13.5-18.2-28.6-26.5-44.9H204.8z M31.9,328.6
			c-0.4-1-0.8-2-1.1-3.1c-2-5.7-3.9-11.4-5.5-17.2c-0.1-0.5-0.2-1.1-0.4-1.6c-1.4-5.2-2.6-10.5-3.6-15.8c-0.3-1.5-0.6-3.1-0.9-4.6
			c-1-5.8-1.8-11.6-2.4-17.5c-0.1-0.8-0.1-1.6-0.2-2.4c-0.3-3.4-0.3-6.9-0.5-10.3h110.8c1.3,36.7,10.5,71.3,23.4,102.4H45.8
			C40.5,348.8,35.8,338.9,31.9,328.6z M56.2,375.5h103.1c13.7,28.7,30.2,53.8,45.5,74.2v19.7c0,1.5,0.1,3,0.2,4.6
			C142.7,462.3,89.9,425.7,56.2,375.5z M204.8,213.3v25.6h-59.4c1.4-36.8,11.4-71.7,25-102.4h154c4.8,10.9,9.3,22.3,13,34.1h-90
			C223.9,170.7,204.8,189.8,204.8,213.3z M366.9,494.9H247.5c-10,0-18.6-5.8-22.8-14.2c0,0,0-0.1,0-0.1c-1.8-3.7-2.8-7.5-2.8-11.3
			h170.7C392.5,483.4,381,494.9,366.9,494.9z M392.5,452.3H221.9v-5.4v-79.9V247.5v-17.1h170.7v34.1h-93.9v-17.1h-17.1v25.6v136.5
			v25.6h17.1v-17.1h93.9V452.3z M494.9,401.1h-24.4c3.1-11.9,12.5-21.3,24.4-24.4V401.1z M494.9,359.2
			c-21.4,3.6-38.3,20.5-41.9,41.9h-52H298.7V281.6h102.4h52c3.6,21.4,20.5,38.3,41.9,41.9V359.2z M494.9,306
			c-11.9-3.1-21.3-12.5-24.4-24.4H485h9.9V306z"/>
	</g>
</g>
<g>
	<g>
		<path class="st0" d="M375.5,307.2c-18.8,0-34.1,15.3-34.1,34.1c0,18.8,15.3,34.1,34.1,34.1c18.8,0,34.1-15.3,34.1-34.1
			C409.6,322.5,394.3,307.2,375.5,307.2z M375.5,358.4c-9.4,0-17.1-7.7-17.1-17.1c0-9.4,7.7-17.1,17.1-17.1
			c9.4,0,17.1,7.7,17.1,17.1C392.5,350.7,384.9,358.4,375.5,358.4z"/>
	</g>
</g>
</svg>
