<?xml version="1.0" encoding="utf-8"?>
<!-- Generator: Adobe Illustrator 23.0.2, SVG Export Plug-In . SVG Version: 6.00 Build 0)  -->
<svg version="1.1" id="Capa_1" xmlns="http://www.w3.org/2000/svg" xmlns:xlink="http://www.w3.org/1999/xlink" x="0px" y="0px"
	 viewBox="0 0 512 512" style="enable-background:new 0 0 512 512;" xml:space="preserve">
<style type="text/css">
	.st0{fill:#D12026;}
</style>
<g>
	<g>
		<path class="st0" d="M455.5,268.1l-26,41.6V181.7c0-22.8-18.5-41.3-41.3-41.3h-9.5c0.7-5.4,1.2-10.9,1.2-16.5h8.3
			c31.9,0,57.8,25.9,57.8,57.8h16.5c0-41-33.3-74.3-74.3-74.3h-9.5C370.5,46.9,318.7,0,256,0S141.5,46.9,133.4,107.4h-9.5
			c-41,0-74.3,33.3-74.3,74.3h16.5c0-31.9,25.9-57.8,57.8-57.8h8.3c0,5.6,0.5,11.1,1.2,16.5h-9.5c-22.8,0-41.3,18.5-41.3,41.3v128.1
			l-26-41.6l-14,8.8l48.3,77.3l48.3-77.3l-14-8.8l-26,41.6V181.7c0-13.7,11.1-24.8,24.8-24.8h12.9c14.5,52.3,62.4,90.8,119.3,90.8
			s104.8-38.5,119.3-90.8h12.9c13.7,0,24.8,11.1,24.8,24.8v128.1l-26-41.7l-14,8.8l48.3,77.3l48.3-77.3L455.5,268.1z M256,231.2
			c-59.2,0-107.4-48.2-107.4-107.4S196.8,16.5,256,16.5s107.4,48.2,107.4,107.4S315.2,231.2,256,231.2z"/>
	</g>
</g>
<g>
	<g>
		<path class="st0" d="M289,123.9c10-7.5,16.5-19.5,16.5-33c0-19.9-14.2-36.6-33-40.5V33H256v16.5h-16.5V33H223v16.5h-16.5v148.6
			H223v16.5h16.5v-16.5H256v16.5h16.5v-17.4c18.8-3.8,33-20.5,33-40.5C305.5,143.4,299,131.4,289,123.9z M223,66.1h41.3
			c13.7,0,24.8,11.1,24.8,24.8s-11.1,24.8-24.8,24.8H223V66.1z M264.3,181.7H223v-49.5h41.3c13.7,0,24.8,11.1,24.8,24.8
			C289,170.6,277.9,181.7,264.3,181.7z"/>
	</g>
</g>
<g>
	<g>
		<path class="st0" d="M487.2,363.4H355.1c-13.7,0-24.8,11.1-24.8,24.8v99.1c0,13.7,11.1,24.8,24.8,24.8h132.1
			c13.7,0,24.8-11.1,24.8-24.8v-99.1C512,374.5,500.9,363.4,487.2,363.4z M429.4,495.5h-74.3c-4.6,0-8.3-3.7-8.3-8.3v-99.1
			c0-4.6,3.7-8.3,8.3-8.3h74.3V495.5z M495.5,487.2c0,4.6-3.7,8.3-8.3,8.3h-41.3V379.9h41.3c4.6,0,8.3,3.7,8.3,8.3V487.2z"/>
	</g>
</g>
<g>
	<g>
		<path class="st0" d="M156.9,363.4H24.8C11.1,363.4,0,374.5,0,388.1v99.1C0,500.9,11.1,512,24.8,512h132.1
			c13.7,0,24.8-11.1,24.8-24.8v-99.1C181.7,374.5,170.6,363.4,156.9,363.4z M99.1,495.5H24.8c-4.6,0-8.3-3.7-8.3-8.3v-99.1
			c0-4.6,3.7-8.3,8.3-8.3h74.3V495.5z M165.2,487.2c0,4.6-3.7,8.3-8.3,8.3h-41.3V379.9h41.3c4.6,0,8.3,3.7,8.3,8.3V487.2z"/>
	</g>
</g>
<g>
	<g>
		<rect x="445.9" y="198.2" class="st0" width="16.5" height="16.5"/>
	</g>
</g>
<g>
	<g>
		<rect x="445.9" y="231.2" class="st0" width="16.5" height="16.5"/>
	</g>
</g>
<g>
	<g>
		<rect x="49.5" y="198.2" class="st0" width="16.5" height="16.5"/>
	</g>
</g>
<g>
	<g>
		<rect x="49.5" y="231.2" class="st0" width="16.5" height="16.5"/>
	</g>
</g>
<g>
	<g>
		<rect x="330.3" y="115.6" class="st0" width="16.5" height="16.5"/>
	</g>
</g>
<g>
	<g>
		<rect x="165.2" y="115.6" class="st0" width="16.5" height="16.5"/>
	</g>
</g>
</svg>
