<?xml version="1.0" encoding="utf-8"?>
<!-- Generator: Adobe Illustrator 23.0.2, SVG Export Plug-In . SVG Version: 6.00 Build 0)  -->
<svg version="1.1" id="Capa_1" xmlns="http://www.w3.org/2000/svg" xmlns:xlink="http://www.w3.org/1999/xlink" x="0px" y="0px"
	 viewBox="0 0 512 512" style="enable-background:new 0 0 512 512;" xml:space="preserve">
<style type="text/css">
	.st0{fill:#D12026;}
</style>
<g>
	<g>
		<path class="st0" d="M195.7,358.2c-6.5-4.9-15.6-3.6-20.5,2.9c-24.4,32.4-61.7,50.9-102.2,50.9H32.6c-8.1,0-14.7,6.5-14.7,14.7
			s6.5,14.7,14.7,14.7h40.5c25.1,0,49.1-5.8,71.2-17c21.2-10.8,40-26.5,54.3-45.6C203.5,372.3,202.3,363.1,195.7,358.2z"/>
		<path class="st0" d="M237.1,152.1c2.7,2.1,5.9,3,9,3c4.3,0,8.7-2,11.6-5.6C282.2,118,319,100,358.7,100H444l-45.5,45.5
			c-5.8,5.8-5.8,15,0,20.7c2.8,2.8,6.6,4.3,10.3,4.3s7.5-1.4,10.3-4.3l70.6-70.6c5.8-5.8,5.8-15,0-20.7L419.1,4.3
			c-5.8-5.8-15-5.8-20.7,0s-5.8,15,0,20.7l45.5,45.5h-85.2c-48.9,0-94.2,22.2-124.2,60.9C229.6,138,230.7,147.1,237.1,152.1z"/>
		<path class="st0" d="M419.2,345.8c-5.8-5.8-15-5.8-20.7,0c-5.8,5.8-5.8,15,0,20.7l45.5,45.5h-85.2c-70.5,0-127.8-57.3-127.8-127.8
			v-56.5c0-86.7-70.5-157.1-157.1-157.1H33.3c-8.1,0-14.7,6.5-14.7,14.7S25.1,100,33.3,100h40.5c70.5,0,127.8,57.3,127.8,127.8v56.5
			c0,86.7,70.5,157.1,157.1,157.1H444l-45.5,45.5c-5.8,5.8-5.8,15,0,20.7c2.8,2.8,6.6,4.3,10.3,4.3s7.5-1.4,10.3-4.3l70.6-70.6
			c5.8-5.8,5.8-15,0-20.7L419.2,345.8z"/>
	</g>
</g>
</svg>
