<?xml version="1.0" encoding="utf-8"?>
<!-- Generator: Adobe Illustrator 23.0.2, SVG Export Plug-In . SVG Version: 6.00 Build 0)  -->
<svg version="1.1" id="Capa_1" xmlns="http://www.w3.org/2000/svg" xmlns:xlink="http://www.w3.org/1999/xlink" x="0px" y="0px"
	 viewBox="0 0 512 512" style="enable-background:new 0 0 512 512;" xml:space="preserve">
<style type="text/css">
	.st0{fill:#D12426;}
</style>
<g>
	<g>
		<path class="st0" d="M460.8,25.7v76.9C376-10.5,215.6-33.5,102.5,51.3C14.7,117.1-21.4,231.5,12.7,335.7c1.1,3.5,4.4,5.9,8.1,5.9
			c0.9,0,1.8-0.1,2.7-0.4c4.5-1.5,6.9-6.3,5.5-10.8c-7.8-24-11.8-49.1-11.8-74.4C17.1,124.1,124,17.1,256,17.1
			c78.2,0,151.4,38.2,196.1,102.4h-93.7v17.1h119.4V25.7L460.8,25.7L460.8,25.7z"/>
	</g>
</g>
<g>
	<g>
		<path class="st0" d="M499.3,176.3c-1.6-4.4-6.5-6.7-10.9-5.2c-4.3,1.5-6.6,6.1-5.3,10.5C524.1,307,455.8,442,330.4,483
			c-100.3,32.8-210.2-4-270.5-90.5h93.7v-17.1H34.2v110.9h17.1v-76.9c84.8,113.1,245.2,136.1,358.3,51.3
			C497.3,394.9,533.4,280.5,499.3,176.3z"/>
	</g>
</g>
<g>
	<g>
		<path class="st0" d="M256,247.5c-33,0-59.7-26.7-59.7-59.7S223,128,256,128c33,0,59.7,26.8,59.7,59.7h17.1
			c-0.1-39.1-29.4-71.9-68.3-76.3V85.4h-17.1v26.1c-42.1,4.8-72.4,42.9-67.5,85.1c4.4,38.7,37.1,67.9,76,68
			c33,0,59.7,26.7,59.7,59.7S289,384,256,384s-59.7-26.7-59.7-59.7h-17.1c0.1,39.1,29.4,71.9,68.3,76.3v26.1h17.1v-26.1
			c42.1-4.8,72.4-42.9,67.5-85.1C327.6,276.8,294.9,247.6,256,247.5z"/>
	</g>
</g>
</svg>
