<?xml version="1.0" encoding="utf-8"?>
<!-- Generator: Adobe Illustrator 23.0.2, SVG Export Plug-In . SVG Version: 6.00 Build 0)  -->
<svg version="1.1" id="Capa_1" xmlns="http://www.w3.org/2000/svg" xmlns:xlink="http://www.w3.org/1999/xlink" x="0px" y="0px"
	 viewBox="0 0 480.1 480.1" style="enable-background:new 0 0 480.1 480.1;" xml:space="preserve">
<style type="text/css">
	.st0{fill:#CF2027;}
</style>
<g>
	<g>
		<path class="st0" d="M480,372l-0.1-146c0-18.8-15.3-34-34-34c-16.5,0-30.7,11.8-33.5,28.1l-18.9,107c-7.6-1-15.4,0.9-21.7,5.3
			l-64.4,45.3c-2.1,1.5-3.4,3.9-3.4,6.5V472c0,4.4,3.6,8,8,8h80c4.4,0,8-3.6,8-8v-10.1l52.7-33.5C470.5,415.2,480.7,394.1,480,372z
			 M443.9,415L443.9,415l-56.2,35.8c-2.3,1.5-3.7,4-3.7,6.8v6.5h-64v-75.6l61-42.9c6.6-4.7,15.8-3.1,20.5,3.6
			c4.6,6.5,3.1,15.4-3.2,20.2l-43.1,32.3l9.6,12.8l43.1-32.3c13.6-10.2,16.3-29.4,6.1-43c-0.9-1.2-1.8-2.3-2.9-3.3
			c-0.8-0.8-1.7-1.6-2.6-2.3l19.5-110.6c1.7-9.8,11.1-16.4,20.9-14.6c8.6,1.5,14.9,9,14.9,17.8l0.1,146
			C464.7,388.7,457.2,404.8,443.9,415z"/>
	</g>
</g>
<g>
	<g>
		<path class="st0" d="M172.6,377.8l-64.4-45.3c-6.3-4.4-14-6.4-21.7-5.3l-18.9-107c-3.3-18.5-20.9-30.9-39.4-27.6
			C12,195.4,0.2,209.5,0.1,226L0,372c-0.6,22.2,9.6,43.3,27.5,56.5L80,461.9V472c0,4.4,3.6,8,8,8h80c4.4,0,8-3.6,8-8v-87.7
			C176,381.7,174.8,379.3,172.6,377.8z M160,464H96v-6.5c0-2.7-1.4-5.3-3.7-6.8l-56-35.7C22.9,404.9,15.4,388.8,16,372l0.1-146
			c0-10,8.1-18,18.1-18c8.8,0,16.2,6.3,17.8,14.9l19.5,110.6c-0.9,0.7-1.8,1.5-2.6,2.3c-12,12-12,31.4,0,43.4c1,1,2.1,2,3.3,2.9
			l43.1,32.3l9.6-12.8l-43.1-32.3c-6.5-4.9-7.8-14.1-2.9-20.6c4.8-6.3,13.7-7.8,20.2-3.2l61,42.9L160,464L160,464z"/>
	</g>
</g>
<g>
	<g>
		<path class="st0" d="M240,0h-0.5l0.5,16c9.8,0,19.6,0.9,29.2,2.8l3.1-15.7C261.6,1.1,250.8,0,240,0z"/>
	</g>
</g>
<g>
	<g>
		<path class="st0" d="M206.8,3.3C196,5.5,185.4,8.7,175.3,13l6.2,14.8c9.2-3.8,18.7-6.8,28.5-8.7L206.8,3.3z"/>
	</g>
</g>
<g>
	<g>
		<path class="st0" d="M347.6,275.5c-7,7-14.7,13.4-23,18.9l8.9,13.3c9.1-6.1,17.6-13.1,25.4-20.9L347.6,275.5z"/>
	</g>
</g>
<g>
	<g>
		<path class="st0" d="M303.8,12.6l-6.1,14.8c9.2,3.8,18,8.5,26.3,14l8.9-13.3C323.7,21.9,314,16.7,303.8,12.6z"/>
	</g>
</g>
<g>
	<g>
		<path class="st0" d="M392,168c0,10-1,19.9-2.9,29.6l15.7,3.1C407,190,408,179,408,168v-0.7L392,168z"/>
	</g>
</g>
<g>
	<g>
		<path class="st0" d="M358.4,48.8l-11.3,11.4c7.1,7,13.4,14.7,19,23l13.3-9C373.2,65,366.2,56.5,358.4,48.8z"/>
	</g>
</g>
<g>
	<g>
		<path class="st0" d="M298.3,308.5c-9.2,3.8-18.7,6.7-28.5,8.7l3.1,15.7c10.8-2.1,21.3-5.4,31.5-9.6L298.3,308.5z"/>
	</g>
</g>
<g>
	<g>
		<path class="st0" d="M395,103.1l-14.8,6.2c3.8,9.2,6.8,18.7,8.8,28.5l15.7-3.2C402.5,123.8,399.3,113.3,395,103.1z"/>
	</g>
</g>
<g>
	<g>
		<path class="st0" d="M380.5,226.2c-3.8,9.2-8.5,18-14.1,26.3l13.3,8.9c6.1-9.1,11.3-18.9,15.5-29L380.5,226.2z"/>
	</g>
</g>
<g>
	<g>
		<path class="st0" d="M240,320c-9.9,0-19.8-1-29.5-2.9l-3.1,15.7c10.7,2.1,21.6,3.2,32.6,3.2h0.2L240,320z"/>
	</g>
</g>
<g>
	<g>
		<path class="st0" d="M113.8,252.7l-13.3,8.9c6.1,9.1,13.2,17.6,20.9,25.4l11.3-11.3C125.7,268.6,119.3,260.9,113.8,252.7z"/>
	</g>
</g>
<g>
	<g>
		<path class="st0" d="M146.3,28.6c-9.1,6.1-17.6,13.2-25.4,21l11.3,11.3c7-7.1,14.7-13.4,23-19L146.3,28.6z"/>
	</g>
</g>
<g>
	<g>
		<path class="st0" d="M75.2,135.6C73.1,146.3,72,157.2,72,168v0.3l16-0.3c0-9.8,0.9-19.7,2.8-29.3L75.2,135.6z"/>
	</g>
</g>
<g>
	<g>
		<path class="st0" d="M100.1,75c-6.1,9.2-11.3,18.9-15.5,29.1l14.8,6.1c3.8-9.2,8.5-18,14-26.3L100.1,75z"/>
	</g>
</g>
<g>
	<g>
		<path class="st0" d="M91,198l-15.7,3.1c2.2,10.8,5.4,21.3,9.6,31.5l14.8-6.2C95.8,217.3,92.9,207.7,91,198z"/>
	</g>
</g>
<g>
	<g>
		<path class="st0" d="M155.8,294.6l-8.9,13.3c9.2,6.1,18.9,11.3,29,15.5l6.1-14.8C172.8,304.8,164,300.1,155.8,294.6z"/>
	</g>
</g>
<g>
	<g>
		<path class="st0" d="M360,136c0-24.6-15.3-50.9-40.4-55.3c-2.4-27.3-25.1-48.3-52.5-48.7c-9.5,0-18.9,2.6-27,7.5
			c-8.2-4.9-17.5-7.5-27-7.5c-28.3,0.4-51.6,22.2-54.1,50.3c-23.4,7.3-39.2,29.1-38.9,53.7c0,11.4,3.4,22.6,9.8,32
			c-6.4,9.4-9.8,20.6-9.8,32c0,24.6,15.3,50.9,40.4,55.3c2.4,27.3,25.1,48.3,52.5,48.7c9.5,0,18.9-2.6,27-7.5
			c8.2,4.9,17.5,7.5,27,7.5c28.3-0.4,51.6-22.2,54.1-50.3c23.4-7.4,39.2-29.1,38.9-53.7c0-11.4-3.4-22.6-9.8-32
			C356.6,158.6,360,147.4,360,136z M232,104c0,8.8-7.2,16-16,16s-16-7.2-16-16h-16c0,17.7,14.3,32,32,32c5.6,0,11.2-1.6,16-4.5v151
			c-5.7,3.5-12.3,5.4-19,5.4c-18.8-0.4-34.3-14.7-36.4-33.3c17-4.7,26.9-22.3,22.2-39.3C195,201.6,182.4,192,168,192v16
			c8.8,0,16,7.2,16,16s-7.2,16-16,16c-19.1,0-32-20.7-32-40c0-9.8,3.5-19.3,9.9-26.8c2.6-3,2.6-7.5,0-10.5
			c-6.4-7.4-9.9-16.9-9.9-26.8c-0.4-19.2,13.2-35.8,32-39.4c3.9-1,6.6-4.6,6.6-8.6c-0.4-21.6,16.7-39.5,38.3-40
			c6.7,0,13.3,1.9,19,5.4L232,104L232,104z M334.1,173.3c6.4,7.4,9.9,16.9,9.9,26.8c0.4,19.2-13.2,35.8-32,39.4
			c-3.9,1-6.6,4.6-6.6,8.6c0.4,21.6-16.7,39.5-38.3,40c-6.7,0-13.3-1.9-19-5.4V192c0-8.8,7.2-16,16-16s16,7.2,16,16h16
			c0-17.7-14.3-32-32-32c-5.6,0-11.2,1.6-16,4.5v-111c5.7-3.5,12.3-5.4,19-5.4c18.8,0.4,34.3,14.7,36.4,33.3
			c-17,4.7-26.9,22.3-22.2,39.3c3.8,13.9,16.5,23.4,30.8,23.4v-16c-8.8,0-16-7.2-16-16s7.2-16,16-16c19.1,0,32,20.7,32,40
			c0,9.8-3.5,19.3-9.9,26.8C331.5,165.8,331.5,170.3,334.1,173.3z"/>
	</g>
</g>
</svg>
