<?xml version="1.0" encoding="utf-8"?>
<!-- Generator: Adobe Illustrator 23.0.2, SVG Export Plug-In . SVG Version: 6.00 Build 0)  -->
<svg version="1.1" id="Capa_1" xmlns="http://www.w3.org/2000/svg" xmlns:xlink="http://www.w3.org/1999/xlink" x="0px" y="0px"
	 viewBox="0 0 512 512" style="enable-background:new 0 0 512 512;" xml:space="preserve">
<style type="text/css">
	.st0{fill:#D12026;}
</style>
<g transform="translate(-1 -1)">
	<g>
		<g>
			<path class="st0" d="M293.6,245.9c3.9-4.9,6.1-11,6.1-17.3v-2.8c-0.1-14.5-11.1-26.7-25.6-28.1v-8.8c0-4.7-3.8-8.5-8.5-8.5
				s-8.5,3.8-8.5,8.5v8.5H240v-8.5c0-4.7-3.8-8.5-8.5-8.5s-8.5,3.8-8.5,8.5v8.5h-8.5c-4.7,0-8.5,3.8-8.5,8.5c0,4.7,3.8,8.5,8.5,8.5
				H271c6.4-0.1,11.6,5,11.6,11.4v2.8c-0.1,6.4-5.3,11.5-11.6,11.4h-31c0-4.7-3.8-8.5-8.5-8.5s-8.5,3.8-8.5,8.5v25.6
				c0,4.7,3.8,8.5,8.5,8.5s8.5-3.8,8.5-8.5V257h34.5c9.1-0.1,16.6,7.2,16.7,16.3v1.6c-0.1,9.1-7.6,16.4-16.7,16.3h-60.1
				c-4.7,0-8.5,3.8-8.5,8.5s3.8,8.5,8.5,8.5h8.5v8.5c0,4.7,3.8,8.5,8.5,8.5s8.5-3.8,8.5-8.5v-8.5h17.1v8.5c0,4.7,3.8,8.5,8.5,8.5
				s8.5-3.8,8.5-8.5v-8.5h0.4c18.5,0.1,33.6-14.8,33.8-33.3v-1.6C308.2,262.3,302.7,252,293.6,245.9z"/>
			<path class="st0" d="M251,160.7c1.6,1.6,3.8,2.4,6.1,2.5c0.5,0,1.1-0.1,1.6-0.2c0.6-0.1,1.1-0.3,1.6-0.5c0.5-0.2,1-0.4,1.4-0.8
				c0.5-0.3,0.9-0.7,1.4-1c0.8-0.8,1.4-1.8,1.8-2.8c0.4-1,0.7-2.1,0.7-3.2c0-2.3-0.9-4.4-2.5-6.1c-0.4-0.3-0.9-0.7-1.4-1
				c-0.4-0.3-0.9-0.6-1.4-0.8c-0.5-0.3-1.1-0.4-1.6-0.5c-2.8-0.5-5.6,0.3-7.7,2.3c-0.4,0.4-0.7,0.8-1,1.3c-0.3,0.5-0.6,1-0.8,1.5
				c-0.2,0.5-0.4,1-0.5,1.5c-0.1,0.6-0.2,1.1-0.2,1.7c0,1.1,0.2,2.2,0.7,3.2C249.6,158.9,250.3,159.9,251,160.7z"/>
			<path class="st0" d="M263.1,353.3c-0.4-0.3-0.9-0.7-1.4-1c-0.4-0.3-0.9-0.6-1.4-0.8c-0.5-0.3-1.1-0.4-1.6-0.5
				c-2.8-0.6-5.7,0.3-7.7,2.3c-0.8,0.8-1.4,1.8-1.8,2.8c-0.4,1-0.7,2.1-0.7,3.2c0,0.6,0.1,1.1,0.2,1.7c0.1,0.5,0.3,1.1,0.5,1.5
				c0.2,0.5,0.4,1.1,0.8,1.5c0.3,0.4,0.7,0.9,1,1.3c1.6,1.6,3.8,2.4,6.1,2.5c0.5,0,1.1-0.1,1.6-0.2c0.6-0.1,1.1-0.3,1.6-0.5
				c0.5-0.2,1-0.4,1.4-0.8c0.5-0.3,0.9-0.7,1.4-1c1.6-1.6,2.5-3.8,2.5-6.1c0-1.1-0.2-2.2-0.7-3.2
				C264.5,355.1,263.9,354.1,263.1,353.3z"/>
			<path class="st0" d="M222.1,169.3L222.1,169.3c2.2,0,4.4-0.9,6-2.5c0.4-0.4,0.8-0.8,1.1-1.3c0.3-0.5,0.5-0.9,0.8-1.4
				c0.2-0.5,0.3-1.1,0.5-1.6c0.1-0.6,0.2-1.1,0.2-1.7c0-2.3-0.9-4.4-2.6-6c-0.4-0.4-0.8-0.8-1.3-1.1c-0.4-0.3-0.9-0.5-1.4-0.8
				c-0.5-0.2-1.1-0.3-1.6-0.5c-2.8-0.5-5.7,0.4-7.7,2.4c-2.4,2.4-3.2,6.1-1.8,9.3C215.5,167.3,218.6,169.3,222.1,169.3z"/>
			<path class="st0" d="M298.1,347.2c-0.4-0.4-0.8-0.8-1.3-1.1c-0.5-0.3-0.9-0.5-1.4-0.8c-0.5-0.2-1.1-0.3-1.6-0.4
				c-1.1-0.3-2.2-0.3-3.3,0c-0.6,0.1-1.1,0.2-1.6,0.4c-0.5,0.3-1,0.5-1.4,0.8c-0.5,0.3-0.9,0.7-1.3,1.1c-0.8,0.8-1.5,1.7-1.9,2.7
				c-0.4,1.1-0.7,2.2-0.7,3.3c0,2.3,0.9,4.4,2.6,6c0.4,0.4,0.8,0.8,1.3,1.1c0.4,0.3,0.9,0.5,1.4,0.8c0.5,0.2,1.1,0.4,1.6,0.5
				c0.5,0.1,1.1,0.2,1.6,0.2c0.6,0,1.1-0.1,1.7-0.2c0.6-0.1,1.1-0.3,1.6-0.5c0.5-0.3,0.9-0.5,1.4-0.8c0.5-0.3,0.9-0.7,1.3-1.1
				c1.6-1.6,2.5-3.7,2.5-6c0-1.1-0.2-2.3-0.6-3.3C299.5,348.9,298.9,347.9,298.1,347.2z"/>
			<path class="st0" d="M183.4,181.9c0.3,0.5,0.5,1,0.8,1.4c0.3,0.5,0.7,0.9,1.1,1.4c0.8,0.8,1.7,1.4,2.7,1.8
				c1.1,0.4,2.2,0.7,3.3,0.7c2.2,0,4.4-0.9,6-2.5c0.4-0.4,0.8-0.9,1.1-1.4c0.2-0.4,0.5-0.9,0.8-1.4c0.2-0.5,0.3-1,0.5-1.6
				c0.1-0.5,0.2-1.1,0.2-1.6c0-0.6-0.1-1.1-0.2-1.7c-0.2-0.5-0.3-1.1-0.5-1.6c-0.3-0.5-0.5-0.9-0.8-1.4c-0.3-0.4-0.7-0.9-1.1-1.3
				c-0.8-0.8-1.7-1.4-2.7-1.9c-2.1-0.9-4.5-0.9-6.6,0c-1,0.5-1.9,1.1-2.7,1.9c-0.4,0.4-0.8,0.8-1.1,1.3c-0.3,0.5-0.5,0.9-0.8,1.4
				c-0.2,0.5-0.3,1.1-0.5,1.6c-0.1,0.6-0.2,1.1-0.2,1.7c0,0.5,0.1,1.1,0.2,1.6C183,180.8,183.2,181.3,183.4,181.9z"/>
			<path class="st0" d="M327.6,328.3c-0.5-0.3-0.9-0.5-1.4-0.8c-0.5-0.2-1.1-0.4-1.6-0.5c-2.5-0.5-5.1,0.2-7.1,1.8
				c-2,1.6-3.1,4-3.2,6.6c0,1.1,0.3,2.3,0.7,3.3c0.4,1,1.1,2,1.9,2.7c1.6,1.6,3.7,2.5,6,2.5c0.6,0,1.2,0,1.7-0.2
				c0.5-0.1,1.1-0.2,1.6-0.4c0.5-0.2,1-0.5,1.4-0.8c0.5-0.3,0.9-0.6,1.3-1c0.8-0.8,1.4-1.7,1.9-2.7c0.4-1.1,0.6-2.2,0.6-3.3
				c0-2.3-0.9-4.4-2.5-6.1C328.5,329,328,328.6,327.6,328.3z"/>
			<path class="st0" d="M162.4,199.8c-1.6,1.6-2.5,3.8-2.5,6.1c0,1.1,0.2,2.2,0.6,3.2c0.5,1,1.1,2,1.9,2.8c1.6,1.6,3.8,2.5,6.1,2.5
				c3.4,0,6.5-2.1,7.9-5.3c0.4-1,0.7-2.1,0.7-3.2c0-2.3-0.9-4.5-2.6-6.1C171,196.6,165.8,196.6,162.4,199.8z"/>
			<path class="st0" d="M351.7,302.1c-2-2-4.9-2.9-7.7-2.3c-0.6,0.1-1.1,0.2-1.6,0.5c-0.5,0.2-1,0.4-1.4,0.8c-0.5,0.3-0.9,0.6-1.3,1
				c-1.6,1.6-2.5,3.8-2.5,6.1c0,2.3,0.9,4.5,2.5,6.1c0.4,0.4,0.8,0.7,1.3,1c0.4,0.3,0.9,0.6,1.4,0.8c0.5,0.3,1.1,0.4,1.6,0.5
				c0.5,0.1,1.1,0.2,1.6,0.2c2.3,0,4.4-0.9,6.1-2.5c0.8-0.8,1.4-1.8,1.8-2.8c0.9-2.1,0.9-4.4,0-6.5
				C353.1,303.9,352.5,302.9,351.7,302.1z"/>
			<path class="st0" d="M156.2,247.8L156.2,247.8c2.3,0,4.5-0.9,6.1-2.6c1.6-1.6,2.5-3.7,2.5-6c0-1.1-0.2-2.3-0.7-3.3
				c-0.4-1-1-1.9-1.8-2.7c-3.4-3.2-8.6-3.2-12,0c-0.8,0.8-1.5,1.7-1.9,2.7c-0.4,1.1-0.7,2.2-0.7,3.3
				C147.8,243.9,151.6,247.7,156.2,247.8z"/>
			<path class="st0" d="M365.7,271.5c-0.2-0.5-0.4-1-0.8-1.4c-0.3-0.5-0.7-0.9-1.1-1.3c-2-2-4.9-2.9-7.7-2.4
				c-0.5,0.2-1.1,0.3-1.6,0.5c-0.5,0.3-0.9,0.5-1.4,0.8c-0.4,0.3-0.9,0.7-1.3,1.1c-1.6,1.6-2.5,3.7-2.5,6c0,0.6,0,1.2,0.2,1.7
				c0.1,0.5,0.2,1.1,0.4,1.6c0.2,0.5,0.5,1,0.9,1.4c0.3,0.5,0.6,0.9,1,1.3c0.4,0.4,0.8,0.8,1.3,1.1c0.5,0.3,0.9,0.5,1.4,0.8
				c0.5,0.2,1.1,0.3,1.6,0.4c0.6,0.1,1.1,0.2,1.7,0.2c2.2,0,4.4-0.9,6-2.5c0.4-0.4,0.8-0.8,1.1-1.3c0.3-0.4,0.6-0.9,0.8-1.4
				c0.2-0.5,0.4-1.1,0.5-1.6c0.1-0.6,0.2-1.1,0.2-1.7c0-0.5-0.1-1.1-0.2-1.6C366.1,272.6,366,272,365.7,271.5z"/>
			<path class="st0" d="M162.3,280.8c0.8-0.8,1.4-1.7,1.8-2.7c0.5-1,0.7-2.2,0.7-3.3c0-2.2-0.9-4.4-2.5-6c-3.4-3.2-8.7-3.2-12,0
				c-1.6,1.6-2.5,3.7-2.6,6c0,1.1,0.2,2.3,0.7,3.3c0.4,1,1.1,2,1.9,2.7c1.6,1.6,3.7,2.5,6,2.5c0.6,0,1.1,0,1.7-0.2
				c0.5-0.1,1-0.2,1.5-0.4c0.5-0.3,1-0.5,1.5-0.8C161.5,281.6,161.9,281.2,162.3,280.8z"/>
			<path class="st0" d="M351.8,233.2c-1.6,1.6-2.5,3.8-2.5,6.1c0,0.5,0,1.1,0.2,1.6c0.1,0.6,0.2,1.1,0.4,1.6c0.2,0.5,0.5,1,0.9,1.4
				c0.2,0.5,0.6,0.9,1,1.3c0.4,0.4,0.8,0.8,1.3,1.1c0.5,0.3,0.9,0.5,1.4,0.8c0.5,0.2,1.1,0.3,1.6,0.5c0.6,0.1,1.1,0.2,1.7,0.2
				c2.3,0,4.4-0.9,6-2.6c0.4-0.4,0.8-0.8,1.1-1.3c0.3-0.4,0.6-0.9,0.8-1.4c0.3-0.5,0.4-1.1,0.5-1.6c0.1-0.5,0.2-1.1,0.2-1.6
				c0-0.6-0.1-1.1-0.2-1.7c-0.1-0.6-0.3-1.1-0.5-1.6c-0.2-0.5-0.5-1-0.8-1.4c-0.3-0.5-0.7-0.9-1.1-1.3c-2-2-4.9-2.9-7.7-2.3
				c-0.6,0.1-1.1,0.2-1.6,0.4c-0.5,0.3-0.9,0.5-1.4,0.8C352.7,232.4,352.2,232.8,351.8,233.2z"/>
			<path class="st0" d="M162.4,302.1c-3.3,3.4-3.3,8.7,0,12.1c1.6,1.6,3.8,2.5,6.1,2.5c3.5,0,6.6-2.1,7.9-5.3
				c1.3-3.2,0.6-6.9-1.9-9.3C171,299,165.8,299,162.4,302.1z"/>
			<path class="st0" d="M344.1,197.5c-0.6,0.1-1.1,0.2-1.6,0.5c-0.5,0.2-1,0.4-1.4,0.8c-0.5,0.3-0.9,0.6-1.3,1
				c-0.4,0.4-0.8,0.8-1.1,1.3c-0.3,0.5-0.6,1-0.8,1.5c-0.2,0.5-0.4,1-0.5,1.5c-0.1,0.6-0.2,1.1-0.2,1.7c0,2.3,0.9,4.4,2.6,6.1
				c0.4,0.4,0.8,0.7,1.3,1c0.4,0.3,0.9,0.6,1.4,0.8c0.5,0.3,1.1,0.4,1.6,0.5c0.5,0.1,1.1,0.2,1.6,0.2c0.6,0,1.1-0.1,1.7-0.2
				c0.5-0.1,1-0.3,1.5-0.5c0.5-0.2,1.1-0.4,1.5-0.8c0.4-0.3,0.8-0.7,1.3-1c0.4-0.4,0.7-0.8,1-1.3c0.3-0.5,0.6-1,0.8-1.5
				c0.2-0.5,0.4-1,0.5-1.5c0.2-1.1,0.2-2.3,0-3.4c-0.1-0.5-0.3-1.1-0.5-1.5c-0.2-0.5-0.4-1.1-0.8-1.5c-0.3-0.4-0.7-0.9-1-1.3
				C349.7,197.8,346.8,197,344.1,197.5z"/>
			<path class="st0" d="M199.2,332.1c-0.3-0.5-0.5-1-0.8-1.5c-0.3-0.5-0.7-0.9-1.1-1.3c-0.8-0.8-1.7-1.5-2.7-1.9
				c-2.1-0.9-4.5-0.9-6.6,0c-1,0.4-2,1.1-2.7,1.9c-0.4,0.4-0.8,0.8-1.1,1.3c-0.3,0.4-0.5,0.9-0.8,1.5c-0.2,0.5-0.3,1-0.5,1.6
				c-0.1,0.5-0.2,1.1-0.2,1.6c0,2.3,0.9,4.5,2.6,6.1c0.8,0.8,1.7,1.4,2.7,1.9c1.1,0.4,2.2,0.6,3.3,0.6c1.1,0,2.2-0.2,3.2-0.6
				c1-0.4,1.9-1.1,2.7-1.9c1.6-1.6,2.5-3.8,2.6-6.1c0-0.5-0.1-1.1-0.2-1.6C199.5,333.2,199.3,332.6,199.2,332.1z"/>
			<path class="st0" d="M316.8,184.6c1.6,1.6,3.7,2.6,6,2.6c0.6,0,1.1-0.1,1.7-0.2c0.6-0.1,1.1-0.3,1.6-0.5c0.5-0.2,1-0.4,1.4-0.8
				c0.4-0.3,0.9-0.7,1.3-1.1c0.8-0.8,1.4-1.7,1.9-2.7c1.2-3.2,0.5-6.8-1.9-9.3c-0.4-0.4-0.8-0.7-1.3-1c-0.5-0.3-0.9-0.6-1.4-0.9
				c-0.5-0.2-1.1-0.3-1.6-0.4c-3.1-0.7-6.3,0.5-8.3,2.9c-2,2.4-2.5,5.8-1.2,8.7C315.4,182.9,316,183.8,316.8,184.6z"/>
			<path class="st0" d="M228.1,347.2c-3.4-3.2-8.6-3.2-12,0c-0.8,0.8-1.4,1.7-1.9,2.7c-0.4,1.1-0.6,2.2-0.6,3.3
				c0,1.1,0.2,2.2,0.6,3.2c0.4,1,1.1,2,1.9,2.7c1.6,1.6,3.7,2.6,6,2.6s4.4-0.9,6-2.6c0.8-0.8,1.4-1.7,1.9-2.7c0.4-1,0.7-2.1,0.7-3.2
				c0-1.1-0.2-2.3-0.7-3.3C229.5,348.9,228.9,347.9,228.1,347.2z"/>
			<path class="st0" d="M287.3,168c0.4,0.3,0.9,0.5,1.4,0.8c0.5,0.2,1.1,0.3,1.6,0.4c0.5,0.1,1.1,0.2,1.6,0.2c0.6,0,1.2,0,1.7-0.2
				c0.6-0.1,1.1-0.2,1.6-0.4c0.5-0.3,0.9-0.5,1.4-0.8c0.5-0.3,0.9-0.7,1.3-1.1c3.3-3.3,3.3-8.7,0-12c-0.4-0.4-0.8-0.8-1.3-1.1
				c-0.5-0.3-1-0.5-1.4-0.8c-0.5-0.2-1.1-0.4-1.6-0.5c-1.1-0.2-2.2-0.2-3.3,0c-0.6,0.1-1.1,0.3-1.6,0.5c-0.5,0.3-1,0.5-1.4,0.8
				c-0.5,0.3-0.9,0.7-1.3,1.1c-1.6,1.6-2.6,3.7-2.6,6c0,2.3,0.9,4.4,2.6,6C286.4,167.3,286.9,167.7,287.3,168z"/>
			<path class="st0" d="M470.3,274.1c9.4,0,17-7.6,17.1-17.1v-26.8c16.6-4.3,27.5-20.2,25.3-37.3s-16.7-29.8-33.8-29.7
				c-17.2,0-31.7,12.7-33.8,29.7c-2.2,17,8.7,33,25.3,37.3V257h-68.2c0.1-38.5-15.2-75.4-42.5-102.5c-5.4-5.3-11.1-10.2-17.2-14.6
				v-10.9h119.4c9.4,0,17-7.6,17.1-17.1V93.7c16.6-4.3,27.5-20.3,25.3-37.3c-2.2-17-16.7-29.8-33.8-29.8
				c-17.2,0-31.7,12.8-33.8,29.8s8.7,33,25.3,37.3V112H342.4c-9.4,0-17,7.6-17.1,17c-18.5-9.8-38.8-15.5-59.7-16.6V94.9h34.1
				c9.4,0,17-7.6,17.1-17.1v-9.7c16.6-4.3,27.5-20.3,25.3-37.3C339.9,13.8,325.4,1,308.2,1c-17.2,0-31.7,12.8-33.8,29.8
				c-2.2,17,8.7,33,25.3,37.3v9.7h-34.1c-9.4,0-17,7.6-17.1,17.1v17.5c-11.6,0.6-23,2.6-34.1,5.9V52.3c0-9.4-7.6-17-17.1-17.1h-86.5
				C106.6,18.6,90.6,7.8,73.5,9.9c-17,2.2-29.8,16.7-29.8,33.8s12.8,31.7,29.8,33.8s33-8.7,37.3-25.3h86.5V125
				c-37.9,17.1-66.7,49.6-78.9,89.4H43.8v-43.9c16.6-4.3,27.5-20.3,25.3-37.3c-2.2-17-16.7-29.8-33.8-29.8
				c-17.2,0-31.7,12.8-33.8,29.8s8.7,33,25.3,37.3v43.9c0,9.4,7.6,17,17.1,17.1h70.6c-1.5,8.4-2.3,17-2.4,25.6H95
				c-9.4,0-17,7.6-17.1,17.1v119.4h-9.7c-4.3-16.6-20.3-27.5-37.3-25.3c-17,2.2-29.8,16.7-29.8,33.8c0,17.2,12.8,31.7,29.8,33.8
				s33-8.7,37.3-25.3H78c9.4,0,17-7.6,17.1-17.1V274.1h18.2c5.9,50.5,37.8,94.2,84.2,115v81.2H145c-4.3-16.6-20.3-27.5-37.3-25.3
				c-17,2.2-29.8,16.7-29.8,33.8c0,17.2,12.8,31.7,29.8,33.8c17,2.2,33-8.7,37.3-25.3h52.4c9.4,0,17-7.6,17.1-17.1v-74.6
				c11.1,3.3,22.5,5.3,34.1,5.9V419c0,9.4,7.6,17,17.1,17.1h59.7v9.7c-16.6,4.3-27.5,20.3-25.3,37.3c2.2,17,16.7,29.8,33.8,29.8
				c17.2,0,31.7-12.8,33.8-29.8c2.2-17-8.7-33-25.3-37.3v-9.7c0-9.4-7.6-17-17.1-17.1h-59.7v-17.5c35.4-1.9,68.9-16.9,94-42.1
				c10.1-10.1,18.7-21.7,25.5-34.3h68.2v86.5c-16.6,4.3-27.5,20.3-25.3,37.3c2.2,17,16.7,29.8,33.8,29.8c17.2,0,31.7-12.8,33.8-29.8
				c2.2-17-8.7-33-25.3-37.3v-86.5c0-9.4-7.6-17-17.1-17.1h-60.6c4.2-11,6.9-22.4,8.3-34.1L470.3,274.1L470.3,274.1z M461.8,197.3
				c0-9.4,7.6-17.1,17.1-17.1c9.4,0,17.1,7.6,17.1,17.1c0,9.4-7.6,17-17.1,17.1C469.4,214.4,461.8,206.7,461.8,197.3z M453.2,60.8
				c0-9.4,7.6-17.1,17.1-17.1c9.4,0,17.1,7.6,17.1,17.1s-7.6,17.1-17.1,17.1C460.9,77.9,453.2,70.2,453.2,60.8z M291.2,35.2
				c0-9.4,7.6-17.1,17.1-17.1c9.4,0,17.1,7.6,17.1,17.1s-7.6,17.1-17.1,17.1C298.8,52.3,291.2,44.7,291.2,35.2z M78,60.8
				c-9.4,0-17.1-7.6-17.1-17.1S68.5,26.7,78,26.7S95,34.4,95,43.8C95,53.2,87.4,60.8,78,60.8z M35.3,154.7c-9.4,0-17-7.6-17.1-17.1
				c0-9.4,7.6-17.1,17.1-17.1s17.1,7.6,17.1,17.1C52.4,147,44.7,154.7,35.3,154.7z M35.3,419.1c-9.4,0-17.1-7.6-17.1-17.1
				c0-9.4,7.6-17.1,17.1-17.1s17.1,7.6,17.1,17.1C52.4,411.4,44.7,419,35.3,419.1z M112.1,495.8c-9.4,0-17.1-7.6-17.1-17.1
				c0-9.4,7.6-17.1,17.1-17.1s17.1,7.6,17.1,17.1C129.1,488.2,121.5,495.8,112.1,495.8z M333.8,461.7c9.4,0,17,7.6,17.1,17.1
				c0,9.4-7.6,17.1-17.1,17.1c-9.4,0-17.1-7.6-17.1-17.1C316.8,469.3,324.4,461.7,333.8,461.7z M347.5,347.5
				c-43.2,43.2-110.8,49.8-161.5,15.9c-50.7-33.9-70.5-98.9-47.1-155.3s83.3-88.4,143.1-76.5S385,196,385,257
				C385.1,290.9,371.6,323.5,347.5,347.5z M461.8,427.6c9.4,0,17,7.6,17.1,17.1c0,9.4-7.6,17.1-17.1,17.1c-9.4,0-17.1-7.6-17.1-17.1
				C444.7,435.2,452.3,427.6,461.8,427.6z"/>
		</g>
	</g>
</g>
</svg>
