<?xml version="1.0" encoding="utf-8"?>
<!-- Generator: Adobe Illustrator 23.0.2, SVG Export Plug-In . SVG Version: 6.00 Build 0)  -->
<svg version="1.1" id="Capa_1" xmlns="http://www.w3.org/2000/svg" xmlns:xlink="http://www.w3.org/1999/xlink" x="0px" y="0px"
	 viewBox="0 0 512 512" style="enable-background:new 0 0 512 512;" xml:space="preserve">
<style type="text/css">
	.st0{fill:#D12026;}
</style>
<g>
	<g>
		<path class="st0" d="M463.3,403.6l-36.6,36.6l-19.6-19.6L395,432.7l25.6,25.6c1.7,1.7,3.8,2.5,6,2.5s4.4-0.8,6-2.5l42.7-42.7
			L463.3,403.6z"/>
	</g>
</g>
<g>
	<g>
		<path class="st0" d="M290.1,358.4c4.7,0,8.5-3.8,8.5-8.5v-17.1h204.8c4.7,0,8.5-3.8,8.5-8.5V34.1c0-4.7-3.8-8.5-8.5-8.5h-25.6V8.5
			c0-4.7-3.8-8.5-8.5-8.5H366.9c-4.7,0-8.5,3.8-8.5,8.5v17.1h-25.6c-4.7,0-8.5,3.8-8.5,8.5v76.8h-76.8V68.3h42.7
			c4.7,0,8.5-3.8,8.5-8.5V8.5c0-4.7-3.8-8.5-8.5-8.5H187.7c-4.7,0-8.5,3.8-8.5,8.5v51.2c0,4.7,3.8,8.5,8.5,8.5h42.7v42.7h-76.8V34.1
			c0-4.7-3.8-8.5-8.5-8.5h-25.6V8.5c0-4.7-3.8-8.5-8.5-8.5H8.5C3.8,0,0,3.8,0,8.5v51.2c0,4.7,3.8,8.5,8.5,8.5h102.4
			c4.7,0,8.5-3.8,8.5-8.5V42.7h17.1v76.8c0,4.7,3.8,8.5,8.5,8.5h85.3v25.6h-42.7c-4.7,0-8.5,3.8-8.5,8.5v51.2c0,4.7,3.8,8.5,8.5,8.5
			h42.7v25.6H119.5v-17.1c0-4.7-3.8-8.5-8.5-8.5H68.3v-25.6h42.7c4.7,0,8.5-3.8,8.5-8.5v-51.2c0-4.7-3.8-8.5-8.5-8.5H8.5
			c-4.7,0-8.5,3.8-8.5,8.5v51.2c0,4.7,3.8,8.5,8.5,8.5h42.7v25.6H8.5c-4.7,0-8.5,3.8-8.5,8.5v51.2c0,4.7,3.8,8.5,8.5,8.5h102.4
			c4.7,0,8.5-3.8,8.5-8.5v-17.1h110.9v25.6h-42.7c-4.7,0-8.5,3.8-8.5,8.5v51.2c0,4.7,3.8,8.5,8.5,8.5h42.7v42.7h-42.7
			c-4.7,0-8.5,3.8-8.5,8.5v51.2c0,4.7,3.8,8.5,8.5,8.5h102.4c4.7,0,8.5-3.8,8.5-8.5v-17.1h60.2c4.3,38.3,36.8,68.3,76.3,68.3
			c42.3,0,76.8-34.4,76.8-76.8s-34.5-76.8-76.8-76.8c-39.5,0-72,29.9-76.3,68.3h-60.2v-17.1c0-4.7-3.8-8.5-8.5-8.5h-42.7v-42.7
			H290.1z M102.4,51.2H17.1V17.1h85.3V51.2z M17.1,179.2v-34.1h85.3v34.1H17.1z M102.4,273.1H17.1v-34.1h85.3V273.1z M435.2,375.5
			c32.9,0,59.7,26.8,59.7,59.7s-26.8,59.7-59.7,59.7s-59.7-26.8-59.7-59.7S402.3,375.5,435.2,375.5z M375.5,17.1h85.3v34.1h-85.3
			V17.1z M332.8,128c4.7,0,8.5-3.8,8.5-8.5V42.7h17.1v17.1c0,4.7,3.8,8.5,8.5,8.5h102.4c4.7,0,8.5-3.8,8.5-8.5V42.7h17.1v273.1
			H298.7v-17.1c0-4.7-3.8-8.5-8.5-8.5h-42.7v-68.3h42.7c4.7,0,8.5-3.8,8.5-8.5v-51.2c0-4.7-3.8-8.5-8.5-8.5h-42.7V128H332.8z
			 M196.3,51.2V17.1h85.3v34.1H196.3z M196.3,204.8v-34.1h85.3v34.1H196.3z M281.6,418.1v34.1h-85.3v-34.1H281.6z M196.3,341.3
			v-34.1h85.3v34.1H196.3z"/>
	</g>
</g>
</svg>
