<?xml version="1.0" encoding="utf-8"?>
<!-- Generator: Adobe Illustrator 23.0.2, SVG Export Plug-In . SVG Version: 6.00 Build 0)  -->
<svg version="1.1" id="Layer_1" xmlns="http://www.w3.org/2000/svg" xmlns:xlink="http://www.w3.org/1999/xlink" x="0px" y="0px"
	 viewBox="0 0 512 512" style="enable-background:new 0 0 512 512;" xml:space="preserve">
<style type="text/css">
	.st0{fill:#D02027;}
</style>
<g>
	<path class="st0" d="M164.2,352.9h49.4c5.5,0,10-4.5,10-10.1c0-5.5-4.5-10-10-10h-49.4c-12,0-21.7-9.7-21.7-21.7V171.5
		c0-12,9.7-21.7,21.7-21.7h174.3c12,0,21.7,9.7,21.7,21.7v139.6c0,12-9.7,21.7-21.7,21.7h-44.6c-5.6,0-10.1,4.5-10.1,10
		c0,5.6,4.5,10.1,10.1,10.1h44.6c23,0,41.8-18.7,41.8-41.8V171.5c0-19.3-13.1-35.5-30.9-40.3c-3.9-56-46-100.2-97-100.2
		c-50.9,0-92.9,43.9-97,99.7c-18.8,4.1-32.9,20.8-32.9,40.8v139.6C122.5,334.1,141.2,352.9,164.2,352.9z M215.1,129.7
		c3.6-22.5,18.9-39.4,37.2-39.4s33.6,16.9,37.2,39.4H215.1z M252.4,51.1c39.6,0,72.4,34.4,76.8,78.6h-19.3
		c-4.1-33.6-28.3-59.5-57.5-59.5s-53.4,25.9-57.5,59.5h-19.3C180,85.5,212.7,51.1,252.4,51.1z"/>
	<path class="st0" d="M290.4,220.2c0-20.3-16.5-36.7-36.7-36.7c-20.3,0-36.7,16.5-36.7,36.7c0,16.8,11.3,30.9,26.7,35.3v29.4
		c0,5.5,4.5,10,10,10c5.6,0,10.1-4.5,10.1-10v-29.4C279.1,251.1,290.4,236.9,290.4,220.2z M253.6,236.8c-9.2,0-16.6-7.5-16.6-16.6
		c0-9.2,7.5-16.6,16.6-16.6c9.2,0,16.6,7.5,16.6,16.6C270.3,229.3,262.8,236.8,253.6,236.8z"/>
	<path class="st0" d="M262.9,338.9c-2.1-5.1-7.9-7.6-13.1-5.6c-5.1,2.1-7.6,7.9-5.6,13.1l0.1,0.3c1.6,3.9,5.3,6.3,9.3,6.3
		c1.3,0,2.5-0.2,3.8-0.7c5.1-2.1,7.6-7.9,5.6-13.1L262.9,338.9z"/>
	<path class="st0" d="M176.2,235.5c-2.1-5.1-7.9-7.6-13.1-5.6s-7.6,7.9-5.6,13.1l0.1,0.3c1.6,3.9,5.3,6.3,9.3,6.3
		c1.2,0,2.5-0.2,3.8-0.7c5.1-2.1,7.6-7.9,5.6-13.1L176.2,235.5z"/>
	<path class="st0" d="M181.3,182.1h18c5.5,0,10-4.5,10-10.1c0-5.5-4.5-10-10-10h-18c-13.5,0-24.5,11-24.5,24.5v12.3
		c0,5.6,4.5,10.1,10.1,10.1c5.5,0,10-4.5,10-10.1v-12.3C176.9,184.1,178.9,182.1,181.3,182.1z"/>
	<path class="st0" d="M501,402.1H397.3c-5.5,0-10,4.5-10,10v19.8l-74.1,0v-19.8c0-5.5-4.5-10-10.1-10h-39.7V369
		c0-5.6-4.5-10.1-10-10.1c-5.6,0-10,4.5-10,10.1v33.1h-43.8c-5.5,0-10,4.5-10,10v19.8l-66.8,0v-19.8c0-5.5-4.5-10-10-10H9
		c-5.5,0-10,4.5-10,10v59.7c0,5.6,4.5,10,10,10h103.6c5.6,0,10.1-4.5,10.1-10v-19.8l66.8,0v19.8c0,5.6,4.5,10,10,10h103.6
		c5.6,0,10-4.5,10-10v-19.8l74.1,0v19.8c0,5.6,4.5,10,10.1,10h103.6c5.6,0,10.1-4.5,10.1-10v-59.7C511,406.6,506.5,402.1,501,402.1z
		 M102.6,461.8H19.1v-39.6h83.5V461.8z M293.1,461.8h-83.5v-39.6h83.5V461.8z M490.9,461.8h-83.5v-39.6h83.5V461.8z"/>
</g>
</svg>
