<?xml version="1.0" encoding="utf-8"?>
<!-- Generator: Adobe Illustrator 23.0.2, SVG Export Plug-In . SVG Version: 6.00 Build 0)  -->
<svg version="1.1" id="Capa_1" xmlns="http://www.w3.org/2000/svg" xmlns:xlink="http://www.w3.org/1999/xlink" x="0px" y="0px"
	 viewBox="0 0 512 512" style="enable-background:new 0 0 512 512;" xml:space="preserve">
<style type="text/css">
	.st0{fill:#D12026;}
</style>
<g>
	<g>
		<path class="st0" d="M409.5,136.7H394c-27.7-43.1-85.2-55.6-128.3-27.9c-0.9,0.6-1.8,1.2-2.7,1.8c9.2-51-24.6-99.8-75.6-109.1
			c-51-9.2-99.8,24.6-109.1,75.6c-3.8,21.3-0.2,43.2,10.2,62.1c-17.1,5.9-28.6,22-28.7,40.1v290c0,23.5,19.1,42.6,42.7,42.7h307.1
			c23.5,0,42.6-19.1,42.7-42.7v-290C452.2,155.8,433.1,136.7,409.5,136.7z M315.6,111c27.5,0,52.8,14.6,66.5,38.4
			c6.8,11.7,10.3,24.9,10.4,38.4c0,8.7-1.5,17.4-4.4,25.6h-18.5c12.8-26.8,3.9-59-20.9-75.3c-20.1-13-45.9-13-66,0
			c-24.8,16.4-33.7,48.5-20.9,75.3h-18.5c-2.9-8.2-4.4-16.9-4.4-25.6C238.9,145.5,273.2,111.1,315.6,111z M351.5,210.7
			c-0.6,0.9-1.3,1.8-1.9,2.7h-67.7c-5.7-7.3-8.8-16.3-8.8-25.6c0-14.3,7.2-27.7,19.1-35.5c14.3-9.3,32.8-9.3,47.1,0
			C358.8,165.1,364.2,191.2,351.5,210.7z M170.7,17.2c42.4,0,76.8,34.4,76.8,76.8c0,42.4-34.4,76.8-76.8,76.8
			c-42.4,0-76.8-34.4-76.8-76.8C94,51.6,128.3,17.3,170.7,17.2z M76.9,179.3c0.1-12.7,9.3-23.4,21.9-25.2
			c30.9,37.1,84.9,44.7,124.8,17.4c-1,5.4-1.6,10.9-1.6,16.3c0,8.7,1.3,17.3,3.7,25.6H102.5c-14.1,0-25.6-11.5-25.6-25.6V179.3z
			 M187.8,375.5c-4.7,0-8.5-3.8-8.5-8.5s3.8-8.5,8.5-8.5c4.7,0,8.5,3.8,8.5,8.5S192.5,375.5,187.8,375.5z M435.1,367h-145
			c-14.1,0-25.6-11.5-25.6-25.6c0-14.1,11.5-25.6,25.6-25.6h145V367z M435.1,298.7h-145c-23.6,0-42.7,19.1-42.7,42.7
			c0,23.6,19.1,42.7,42.7,42.7h145v85.3c0,14.1-11.5,25.6-25.6,25.6H238.9v-38.4l28.4-21.3h15.8c4.7,13.3,19.3,20.3,32.7,15.6
			c13.3-4.7,20.3-19.3,15.6-32.7c-4.7-13.3-19.3-20.3-32.7-15.6c-7.3,2.6-13,8.3-15.6,15.6h-18.6c-1.8,0-3.6,0.6-5.1,1.7l-34.1,25.6
			c-2.1,1.6-3.4,4.1-3.4,6.8v42.7h-25.6V391c13.3-4.7,20.3-19.3,15.6-32.7c-4.7-13.3-19.3-20.3-32.7-15.6
			c-13.3,4.7-20.3,19.3-15.6,32.7c2.6,7.3,8.3,13,15.6,15.6v103.9h-25.6v-68.2c0-2.3-0.9-4.4-2.5-6L128,397.6v-40.7
			c13.3-4.7,20.3-19.3,15.6-32.7c-4.7-13.3-19.3-20.3-32.7-15.6S90.7,328,95.4,341.3c2.6,7.3,8.3,13,15.6,15.6v44.2
			c0,2.3,0.9,4.4,2.5,6l23.1,23.1v64.7h-34.1c-14.1,0-25.6-11.5-25.6-25.6V221.7c7.3,5.6,16.3,8.7,25.6,8.8h307.1
			c9.3,0,18.3-3.1,25.6-8.8L435.1,298.7L435.1,298.7z M298.7,426.7c0-4.7,3.8-8.5,8.5-8.5s8.5,3.8,8.5,8.5c0,4.7-3.8,8.5-8.5,8.5
			S298.7,431.4,298.7,426.7z M119.5,341.4c-4.7,0-8.5-3.8-8.5-8.5c0-4.7,3.8-8.5,8.5-8.5c4.7,0,8.5,3.8,8.5,8.5
			C128,337.6,124.2,341.4,119.5,341.4z M435.1,187.8c0,14.1-11.5,25.6-25.6,25.6h-3.7c5.8-19.7,4.7-40.7-2.9-59.7h6.6
			c14.1,0,25.6,11.5,25.6,25.6V187.8z"/>
	</g>
</g>
<g>
	<g>
		<path class="st0" d="M170.7,34.3C137.7,34.3,111,61,111,94c0,33,26.8,59.7,59.7,59.7c33,0,59.7-26.7,59.7-59.7
			S203.7,34.3,170.7,34.3z M170.7,136.7c-23.6,0-42.7-19.1-42.7-42.7c0-23.5,19.1-42.6,42.7-42.7c23.6,0,42.7,19.1,42.7,42.7
			S194.3,136.7,170.7,136.7z"/>
	</g>
</g>
<g>
	<g>
		<rect x="281.6" y="0.2" class="st0" width="17.1" height="17.1"/>
	</g>
</g>
<g>
	<g>
		<rect x="281.6" y="34.3" class="st0" width="17.1" height="42.7"/>
	</g>
</g>
<g>
	<g>
		<rect x="315.7" y="0.2" class="st0" width="17.1" height="17.1"/>
	</g>
</g>
<g>
	<g>
		<rect x="315.7" y="34.3" class="st0" width="17.1" height="42.7"/>
	</g>
</g>
</svg>
