<?xml version="1.0" encoding="utf-8"?>
<!-- Generator: Adobe Illustrator 22.1.0, SVG Export Plug-In . SVG Version: 6.00 Build 0)  -->
<svg version="1.1" id="Capa_1" xmlns="http://www.w3.org/2000/svg" xmlns:xlink="http://www.w3.org/1999/xlink" x="0px" y="0px"
	 viewBox="0 0 505.1 505.1" style="enable-background:new 0 0 505.1 505.1;" xml:space="preserve">
<style type="text/css">
	.st0{fill:#3DF256;}
	.st1{fill:#FFFFFF;}
</style>
<circle class="st0" cx="252.6" cy="252.6" r="244.8"/>
<g>
	<g>
		<g>
			<path class="st1" d="M197.5,226.3h-0.4c-5,0-9,4.1-9,9v39.2c0,5,4,9,9,9h0.4c5,0,9-4.1,9-9v-39.2
				C206.5,230.3,202.5,226.3,197.5,226.3z"/>
			<path class="st1" d="M210.8,289.7c0,4.6,3.7,8.3,8.3,8.3h8.8v21.2c0,5,4.1,9,9,9h0.4c5,0,9-4.1,9-9v-21.2h12.4v21.2
				c0,5,4.1,9,9,9h0.4c5,0,9-4.1,9-9v-21.2h8.9c4.6,0,8.3-3.7,8.3-8.3v-61.9h-83.5V289.7z"/>
			<path class="st1" d="M273.4,190.2l7-10.8c0.5-0.7,0.3-1.6-0.4-2.1c-0.7-0.5-1.6-0.3-2.1,0.4l-7.3,11.2c-5.5-2.2-11.6-3.5-18-3.5
				c-6.5,0-12.5,1.3-18,3.5l-7.3-11.2c-0.4-0.7-1.4-0.9-2.1-0.4c-0.7,0.4-0.9,1.4-0.4,2.1l7,10.8c-12.7,6.2-21.2,17.9-21.2,31.4
				c0,0.8,0.1,1.6,0.1,2.4h83.8c0.1-0.8,0.1-1.6,0.1-2.4C294.6,208.1,286,196.4,273.4,190.2z M233.1,209.6c-2.2,0-4-1.8-4-4
				s1.8-4,4-4c2.2,0,4,1.8,4,4C237.2,207.8,235.4,209.6,233.1,209.6z M272,209.6c-2.2,0-4-1.8-4-4s1.8-4,4-4c2.2,0,4,1.8,4,4
				C276,207.8,274.2,209.6,272,209.6z"/>
			<path class="st1" d="M308,226.3h-0.4c-5,0-9,4.1-9,9v39.2c0,5,4.1,9,9,9h0.4c5,0,9-4.1,9-9v-39.2C317,230.3,313,226.3,308,226.3z
				"/>
		</g>
	</g>
</g>
</svg>
