<?xml version="1.0" encoding="utf-8"?>
<!-- Generator: Adobe Illustrator 22.1.0, SVG Export Plug-In . SVG Version: 6.00 Build 0)  -->
<svg version="1.1" id="Capa_1" xmlns="http://www.w3.org/2000/svg" xmlns:xlink="http://www.w3.org/1999/xlink" x="0px" y="0px"
	 viewBox="0 0 512 512" style="enable-background:new 0 0 512 512;" xml:space="preserve">
<style type="text/css">
	.st0{fill:#F2AF4C;}
	.st1{fill:#FFFFFF;}
</style>
<circle class="st0" cx="256" cy="256" r="247"/>
<g>
	<g>
		<g>
			<path class="st1" d="M312.7,258.6c-2.6-8.8-7.4-16.9-13.7-23.5l1.9-1.9c1.3-1.3,1.3-3.5,0-4.8l-17.2-17.2c-1.3-1.3-3.5-1.3-4.8,0
				l-1.9,1.9c-6.6-6.4-14.7-11.1-23.5-13.8c-9.1-2.7-18.7-3.1-27.9-1.1c-1.6,0.3-2.7,1.7-2.7,3.3c0,1.6,1.1,3,2.6,3.3l3.3,0.8
				c9,2.1,17.3,6.8,23.8,13.3l9.2,9.2l-1,1c-1.3,1.3-1.3,3.5,0,4.8l17.2,17.2c1.3,1.3,3.5,1.3,4.8,0l1-1l9.2,9.2
				c6.5,6.5,11.2,14.8,13.3,23.8l0.8,3.3c0.4,1.5,1.7,2.6,3.3,2.6c0,0,0,0,0,0c1.6,0,2.9-1.1,3.3-2.7
				C315.7,277.3,315.3,267.6,312.7,258.6z"/>
		</g>
	</g>
	<g>
		<g>
			<path class="st1" d="M292.3,284.6c0-5.4-4.4-9.8-9.8-9.8h-0.4v-4.3c0-1.9-1.5-3.4-3.4-3.4c-1.9,0-3.4,1.5-3.4,3.4v4.3h-6.8
				c-1.9,0-3.4,1.5-3.4,3.4v25.5c0,1.9,1.5,3.4,3.4,3.4h6.8v4.3c0,1.9,1.5,3.4,3.4,3.4s3.4-1.5,3.4-3.4v-4.3h0.4
				c5.4,0,9.8-4.4,9.8-9.8c0-2.4-0.9-4.7-2.4-6.4C291.4,289.3,292.3,287.1,292.3,284.6z M282.5,300.4h-10.6v-5.9h10.6
				c1.6,0,3,1.3,3,3S284.2,300.4,282.5,300.4z M282.5,287.6h-10.6v-5.9h10.6c1.6,0,3,1.3,3,3C285.5,286.3,284.2,287.6,282.5,287.6z"
				/>
		</g>
	</g>
	<g>
		<g>
			<path class="st1" d="M257,239.9l-59,59c-1.3,1.3-1.3,3.5,0,4.8l10.3,10.3c0.7,0.7,1.5,1,2.4,1c0.9,0,1.8-0.3,2.4-1l59-59
				L257,239.9z"/>
		</g>
	</g>
</g>
</svg>
