<?xml version="1.0" encoding="utf-8"?>
<!-- Generator: Adobe Illustrator 22.1.0, SVG Export Plug-In . SVG Version: 6.00 Build 0)  -->
<svg version="1.1" id="Capa_1" xmlns="http://www.w3.org/2000/svg" xmlns:xlink="http://www.w3.org/1999/xlink" x="0px" y="0px"
	 viewBox="0 0 512 512" style="enable-background:new 0 0 512 512;" xml:space="preserve">
<style type="text/css">
	.st0{fill:#EA5CD6;}
	.st1{fill:#FFFFFF;}
</style>
<circle class="st0" cx="256" cy="256" r="248.5"/>
<g>
	<g>
		<g>
			<path class="st1" d="M302.2,241.1h-92.4c-22.5,0-40.7,18.3-40.7,40.7s18.3,40.7,40.7,40.7c7.8,0,15.5-2.2,22.1-6.5
				c5.5-3.5,10-8.3,13.2-13.9h21.8c3.2,5.6,7.8,10.4,13.2,13.9c6.6,4.2,14.2,6.5,22.1,6.5c22.5,0,40.7-18.3,40.7-40.7
				S324.6,241.1,302.2,241.1z M224.4,286.2h-10.2v10.2H204v-10.2h-10.2V276H204v-10.2h10.2V276h10.2V286.2z M249.2,276.4H239v-10.2
				h10.2V276.4z M273,276.4h-10.2v-10.2H273V276.4z M302.5,265.8c2.8,0,5.1,2.3,5.1,5.1c0,2.8-2.3,5.1-5.1,5.1
				c-2.8,0-5.1-2.3-5.1-5.1C297.4,268.1,299.7,265.8,302.5,265.8z M292.3,286.2c-2.8,0-5.1-2.3-5.1-5.1c0-2.8,2.3-5.1,5.1-5.1
				c2.8,0,5.1,2.3,5.1,5.1C297.4,283.9,295.1,286.2,292.3,286.2z M302.5,296.4c-2.8,0-5.1-2.3-5.1-5.1c0-2.8,2.3-5.1,5.1-5.1
				c2.8,0,5.1,2.3,5.1,5.1C307.6,294.1,305.3,296.4,302.5,296.4z M312.7,286.2c-2.8,0-5.1-2.3-5.1-5.1c0-2.8,2.3-5.1,5.1-5.1
				c2.8,0,5.1,2.3,5.1,5.1C317.8,283.9,315.5,286.2,312.7,286.2z"/>
		</g>
	</g>
	<g>
		<g>
			<path class="st1" d="M214,205.4l-14.3,24.7l12,6.9c2-9.7,7.1-18.3,14.3-24.7L214,205.4z"/>
		</g>
	</g>
	<g>
		<g>
			<path class="st1" d="M298,205.4l-12,6.9c7.2,6.4,12.3,15,14.3,24.7l12-6.9L298,205.4z"/>
		</g>
	</g>
	<g>
		<g>
			<path class="st1" d="M241.7,189.4v13.9c4.5-1.5,9.3-2.3,14.3-2.3c5,0,9.8,0.8,14.3,2.3v-13.9H241.7z"/>
		</g>
	</g>
	<g>
		<g>
			<path class="st1" d="M256,211.2c-13.8,0-25.8,8-31.4,19.7h62.9C281.8,219.2,269.8,211.2,256,211.2z"/>
		</g>
	</g>
</g>
</svg>
