<?xml version="1.0" encoding="utf-8"?>
<!-- Generator: Adobe Illustrator 22.1.0, SVG Export Plug-In . SVG Version: 6.00 Build 0)  -->
<svg version="1.1" id="Capa_1" xmlns="http://www.w3.org/2000/svg" xmlns:xlink="http://www.w3.org/1999/xlink" x="0px" y="0px"
	 viewBox="0 0 475.1 475.1" style="enable-background:new 0 0 475.1 475.1;" xml:space="preserve">
<style type="text/css">
	.st0{fill:#11D156;}
	.st1{fill:#FFFFFF;}
</style>
<circle class="st0" cx="237.6" cy="237.6" r="232"/>
<g>
	<g>
		<path class="st1" d="M308.2,271.3c-6-8.6-9.1-18.4-9.1-29.3c0-9.9,2.9-18.9,8.6-27.2c3.1-4.5,8-9.6,15-15.5
			c-4.6-5.6-9.1-10-13.7-13.1c-8.2-5.7-17.6-8.6-28-8.6c-6.2,0-13.8,1.5-22.7,4.5c-8.6,3-14.9,4.5-18.8,4.5c-3,0-9-1.3-18.1-4
			c-9.2-2.6-16.9-4-23.2-4c-15,0-27.5,6.3-37.3,18.9c-9.9,12.8-14.9,29.2-14.9,49.1c0,21.2,6.4,43.2,19.3,66
			c13.1,22.7,26.2,34,39.5,34c4.5,0,10.3-1.5,17.3-4.5c7.1-2.9,13.3-4.3,18.6-4.3c5.7,0,12.3,1.4,19.8,4.2c8,2.8,14.1,4.2,18.4,4.2
			c11.2,0,22.4-8.6,33.8-25.8c7.4-10.9,12.7-21.9,16.1-32.8C321.2,285.5,314.2,280,308.2,271.3z"/>
		<path class="st1" d="M263.6,169.8c5.5-5.5,9.6-11.5,12.2-18.1c2.5-6.6,3.8-12.5,3.8-17.8c0-0.4,0-0.8,0-1.3c0-0.5,0-1,0-1.3
			c-0.1-0.3-0.2-0.7-0.3-1.4c-0.1-0.7-0.2-1.2-0.3-1.4c-15.5,3.6-26.4,10.1-32.9,19.5c-6.6,9.5-10,20.7-10.3,33.8
			c5.9-0.5,10.4-1.3,13.7-2.3C254.1,177.7,258.8,174.6,263.6,169.8z"/>
	</g>
</g>
</svg>
