<?xml version="1.0" encoding="utf-8"?>
<!-- Generator: Adobe Illustrator 22.1.0, SVG Export Plug-In . SVG Version: 6.00 Build 0)  -->
<svg version="1.1" id="Capa_1" xmlns="http://www.w3.org/2000/svg" xmlns:xlink="http://www.w3.org/1999/xlink" x="0px" y="0px"
	 viewBox="0 0 512 512" style="enable-background:new 0 0 512 512;" xml:space="preserve">
<style type="text/css">
	.st0{fill:#3AEDBA;}
	.st1{fill:#FFFFFF;}
</style>
<circle class="st0" cx="256" cy="256" r="247"/>
<g>
	<g>
		<g>
			<path class="st1" d="M315.7,243.7l-56.5-56.5c-3.3-3.3-8.7-3.3-12,0c-3.3,3.3-3.3,8.7,0,12l56.5,56.4c3.3,3.3,8.7,3.3,12,0
				C319,252.4,319,247,315.7,243.7z"/>
		</g>
	</g>
	<g>
		<g>
			<path class="st1" d="M243,207.1l-0.4,2.1c-3,15-10.3,29.2-20.1,40.7l30.7,30.7c11.5-9.8,25.6-17.3,40.6-20.3l2.1-0.4L243,207.1z"
				/>
		</g>
	</g>
	<g>
		<g>
			<path class="st1" d="M216.9,256.3l-21,21c-4.9,4.9-5,13,0,18l12,12c4.9,4.9,13,5,18,0l21-21L216.9,256.3z M219.9,289.3
				c-1.7,1.7-4.4,1.7-6,0c-1.6-1.7-1.7-4.4,0-6l6-6c1.7-1.7,4.4-1.7,6,0s1.7,4.4,0,6L219.9,289.3z"/>
		</g>
	</g>
	<g>
		<g>
			<path class="st1" d="M264.6,309.5l5.8-5.8c5-5,5-13,0-18l-4.3-4.3c-2.4,1.6-4.6,3.3-6.8,5.2l5.1,5.1c1.6,1.6,1.7,4.3,0,6
				l-5.9,5.9l-8.6-8.3l-12,12l19.3,18.6c3.3,3.3,8.7,3.3,12,0s3.3-8.7,0-12L264.6,309.5z"/>
		</g>
	</g>
	<g>
		<g>
			<path class="st1" d="M281.7,183.6c-2.3,0-4.2,1.9-4.2,4.2v8.5c0,2.3,1.9,4.2,4.2,4.2c2.3,0,4.2-1.9,4.2-4.2v-8.5
				C285.9,185.5,284,183.6,281.7,183.6z"/>
		</g>
	</g>
	<g>
		<g>
			<path class="st1" d="M315.6,217.5h-8.5c-2.3,0-4.2,1.9-4.2,4.2c0,2.3,1.9,4.2,4.2,4.2h8.5c2.3,0,4.2-1.9,4.2-4.2
				C319.9,219.4,318,217.5,315.6,217.5z"/>
		</g>
	</g>
	<g>
		<g>
			<path class="st1" d="M310.2,193.3c-1.7-1.7-4.4-1.7-6,0l-8.5,8.5c-1.7,1.7-1.7,4.4,0,6c1.7,1.6,4.4,1.7,6,0l8.5-8.5
				C311.8,197.7,311.8,195,310.2,193.3z"/>
		</g>
	</g>
</g>
</svg>
