<?xml version="1.0" encoding="utf-8"?>
<!-- Generator: Adobe Illustrator 22.1.0, SVG Export Plug-In . SVG Version: 6.00 Build 0)  -->
<svg version="1.1" id="Capa_1" xmlns="http://www.w3.org/2000/svg" xmlns:xlink="http://www.w3.org/1999/xlink" x="0px" y="0px"
	 viewBox="0 0 437.6 437.6" style="enable-background:new 0 0 437.6 437.6;" xml:space="preserve">
<style type="text/css">
	.st0{fill:#4ECDEA;}
	.st1{fill:#FFFFFF;}
</style>
<circle class="st0" cx="218.8" cy="218.8" r="212"/>
<g>
	<g>
		<g>
			<path class="st1" d="M235.3,248.3h-33.2c-27.3,0-49.5,22.2-49.5,49.5H285C284.9,270.6,262.6,248.3,235.3,248.3z"/>
			<path class="st1" d="M224.6,225.6c2.6,0,5.1,0.9,6.9,2.5h12c5.9-6.2,9.5-14.4,9.5-23.7c0-19.1-15.4-34.4-34.4-34.4
				s-34.4,15.3-34.4,34.4c0,12.9,7.1,24.1,17.6,30c1.2-5.1,5.6-8.8,10.8-8.8H224.6z"/>
			<path class="st1" d="M167.9,207.2c0.4,3.6,2.2,6.9,4.6,9.4c1.9,1.9,4.3,3.3,7.1,4.2c-0.1-0.6-0.1-1.2-0.1-1.6v-28
				c0-0.6,0-1.2,0.1-1.7c-2.7,0.7-5.1,2.2-7.1,4.2c-0.1,0.1-0.4,0.4-0.6,0.6v-1.2c0-2.7,0.3-5.5,0.7-8.1c0.4-2.7,1.2-5.3,2.2-7.8
				c0.9-2.6,2-5.1,3.5-7.4c1.3-2.3,2.9-4.6,4.6-6.6c0.1-0.1,0.3-0.4,0.3-0.6c1.3,0.1,2.6-0.3,3.5-1.2c8.8-8.8,20.4-13.1,31.8-13.1
				s23.1,4.3,31.8,13.1c1,1,2.3,1.3,3.5,1.2c0.1,0.1,0.1,0.4,0.3,0.6c1.7,2,3.3,4.3,4.6,6.6c1.3,2.3,2.5,4.8,3.5,7.4
				c0.9,2.6,1.6,5.2,2.2,7.9c0.4,2.6,0.7,5.3,0.7,8.1v1.2c-0.1-0.3-0.4-0.4-0.6-0.6c-1.9-1.9-4.3-3.3-7.1-4.2
				c0.1,0.6,0.1,1.2,0.1,1.7v27.9c0,0.6,0,1.2-0.1,1.6c0.7-0.1,1.4-0.4,2.2-0.7v9.1c0,1-0.1,2-0.3,2.7s-0.4,1.2-0.7,1.6
				c-0.3,0.3-0.7,0.6-1.2,0.7c-0.6,0.1-1.2,0.3-1.9,0.3h-0.1h-26.6c-0.9-1.4-2.3-2.5-4.2-2.5h-11.8c-2.6,0-4.6,2.2-4.6,4.6
				c0.1,2.6,2.2,4.6,4.8,4.6h11.8c1.7,0,3.3-1,4.2-2.5h26.9h1c1,0,1.9-0.3,2.7-0.6c1.2-0.4,2-1,2.9-1.9c0.7-0.9,1.3-1.9,1.7-3.2
				c0.3-1.2,0.6-2.6,0.6-4.2v-11.6v-0.4c0.1-0.1,0.3-0.3,0.4-0.4c2.5-2.5,4.2-5.8,4.6-9.4c0.1-0.1,0.3-0.1,0.3-0.3
				c0.4-0.4,0.7-1.2,0.7-1.7v-12c0-3-0.3-6.1-0.7-9c-0.9-3-1.6-5.9-2.6-8.8c-1-2.9-2.3-5.6-3.9-8.2c-1.4-2.6-3.2-5.1-5.2-7.4
				c-0.1-0.3-0.4-0.4-0.7-0.6c0.3-1.3-0.1-2.9-1.2-3.9c-10.4-10.4-24-15.6-37.7-15.6c-13.7,0-27.3,5.2-37.8,15.6
				c-1,1-1.4,2.6-1.2,3.9c-0.3,0.1-0.4,0.3-0.7,0.6c-2,2.3-3.8,4.8-5.2,7.4c-1.4,2.6-2.7,5.3-3.9,8.2c-1,2.9-1.9,5.8-2.3,8.8
				c-0.6,2.9-0.7,5.9-0.7,9v12c0,0.7,0.3,1.3,0.7,1.7C167.8,207.1,167.9,207.1,167.9,207.2z"/>
		</g>
	</g>
</g>
</svg>
