<?xml version="1.0" encoding="utf-8"?>
<!-- Generator: Adobe Illustrator 22.1.0, SVG Export Plug-In . SVG Version: 6.00 Build 0)  -->
<svg version="1.1" id="Layer_1" xmlns="http://www.w3.org/2000/svg" xmlns:xlink="http://www.w3.org/1999/xlink" x="0px" y="0px"
	 viewBox="0 0 512 512" style="enable-background:new 0 0 512 512;" xml:space="preserve">
<style type="text/css">
	.st0{fill:#615EEF;}
	.st1{fill:#FFFFFF;}
</style>
<circle class="st0" cx="256" cy="256" r="248.5"/>
<g>
	<path class="st1" d="M320.5,346.2h-21.1l-4.3-12.9h-78l-4.3,12.9h-21.1c-3.6,0-6.4,2.9-6.4,6.4s2.9,6.4,6.4,6.4h128.9
		c3.6,0,6.4-2.9,6.4-6.4S324,346.2,320.5,346.2z"/>
	<path class="st1" d="M320.5,191.5c-3.6,0-6.4,2.9-6.4,6.4s2.9,6.4,6.4,6.4s6.4-2.9,6.4-6.4S324,191.5,320.5,191.5z"/>
	<path class="st1" d="M346.2,152.9H165.3c-10.7,0-19.3,8.7-19.3,19.3v109.6h39.1v-19.3c0-3.6,2.9-6.4,6.4-6.4h10
		c0.7-1.9,1.4-3.7,2.3-5.5l-7-7c-2.5-2.5-2.5-6.6,0-9.1l18.2-18.2c2.5-2.5,6.6-2.5,9.1,0l7,7c1.8-0.9,3.7-1.6,5.5-2.3v-10
		c0-3.6,2.9-6.4,6.4-6.4h25.8c3.6,0,6.4,2.9,6.4,6.4v10c1.9,0.7,3.7,1.4,5.5,2.3l7-7c2.5-2.5,6.6-2.5,9.1,0l18.2,18.2
		c2.5,2.5,2.5,6.6,0,9.1l-7,7c0.9,1.8,1.6,3.7,2.3,5.5h10.1c3.6,0,6.4,2.9,6.4,6.4v19.3H366V172.2
		C366,161.6,356.9,152.9,346.2,152.9z M320.5,217.3c-10.7,0-19.3-8.7-19.3-19.3s8.7-19.3,19.3-19.3s19.3,8.7,19.3,19.3
		S331.1,217.3,320.5,217.3z"/>
	<path class="st1" d="M236.7,275.3c0,2.2,0.5,4.4,1.2,6.4h36.2c0.7-2.1,1.2-4.2,1.2-6.4c0-10.7-8.7-19.3-19.3-19.3
		S236.7,264.7,236.7,275.3z"/>
	<path class="st1" d="M212.5,264.1c-0.7,2.8-3.3,4.9-6.2,4.9H198v12.9h26.6c-0.4-2.1-0.9-4.3-0.9-6.4c0-17.8,14.4-32.2,32.2-32.2
		s32.2,14.4,32.2,32.2c0,2.2-0.4,4.3-0.9,6.4H314v-12.9h-8.3c-2.9,0-5.5-2-6.2-4.9c-1-4-2.6-7.9-4.8-11.5c-1.5-2.5-1.1-5.8,1-7.8
		l5.8-5.9l-9.1-9.1l-5.9,5.9c-2.1,2.1-5.3,2.5-7.8,1c-3.6-2.1-7.5-3.7-11.5-4.8c-2.8-0.7-4.9-3.3-4.9-6.2v-8.3h-12.9v8.3
		c0,2.9-2,5.5-4.9,6.2c-4,1-7.9,2.6-11.5,4.8c-2.5,1.5-5.8,1.1-7.8-1l-5.9-5.9l-9.1,9.1l5.8,5.9c2.1,2.1,2.5,5.3,1,7.8
		C215.1,256.2,213.5,260,212.5,264.1z"/>
	<path class="st1" d="M146,301.1c0,10.7,8.7,19.3,19.3,19.3h180.9c10.7,0,19.8-8.7,19.8-19.3v-6.4H146V301.1z"/>
</g>
</svg>
