<?xml version="1.0" encoding="utf-8"?>
<!-- Generator: Adobe Illustrator 23.0.2, SVG Export Plug-In . SVG Version: 6.00 Build 0)  -->
<svg version="1.1" id="Layer_1" xmlns="http://www.w3.org/2000/svg" xmlns:xlink="http://www.w3.org/1999/xlink" x="0px" y="0px"
	 viewBox="0 0 512 512" style="enable-background:new 0 0 512 512;" xml:space="preserve">
<style type="text/css">
	.st0{fill:#D12027;}
</style>
<g>
	<g>
		<g>
			<polygon class="st0" points="207.9,385.2 207.9,369.7 112.4,369.7 112.4,433.2 207.9,433.2 207.9,417.7 127.9,417.7 127.9,385.2 
							"/>
		</g>
	</g>
	<g>
		<g>
			<rect x="152.3" y="393.9" class="st0" width="32.1" height="15.6"/>
		</g>
	</g>
	<g>
		<g>
			<polygon class="st0" points="376,369.7 376,385.2 456.2,385.2 456.2,417.7 376,417.7 376,433.2 471.7,433.2 471.7,369.7 			"/>
		</g>
	</g>
	<g>
		<g>
			<rect x="400" y="393.9" class="st0" width="32.1" height="15.6"/>
		</g>
	</g>
	<g>
		<g>
			<path class="st0" d="M359.7,393.9l0.2-16.3H224.3v16.3h-32.7v15.6h32.7v15.7h135.1l0.1-15.7h32.2v-15.6H359.7z M344,409.7H239.9
				v-16.4h104.3L344,409.7z"/>
		</g>
	</g>
	<g>
		<g>
			<rect x="160.5" y="338" class="st0" width="63.2" height="15.6"/>
		</g>
	</g>
	<g>
		<g>
			<rect x="359.6" y="338" class="st0" width="64.3" height="15.6"/>
		</g>
	</g>
	<g>
		<g>
			<rect x="232.1" y="338" class="st0" width="120.3" height="15.6"/>
		</g>
	</g>
	<g>
		<g>
			<polygon class="st0" points="432.2,338 432.2,353.5 496.5,353.5 496.5,449.9 88,449.9 88,353.5 152.2,353.5 152.2,338 72.4,338 
				72.4,465.5 512,465.5 512,338 			"/>
		</g>
	</g>
	<g>
		<g>
			<path class="st0" d="M241.8,297.7h-84.6c-18.3,0-33.1,14.9-33.1,33.1h15.6c0-9.7,7.9-17.6,17.6-17.6h84.6
				c9.7,0,17.6,7.9,17.6,17.6h15.6C274.9,312.6,260,297.7,241.8,297.7z"/>
		</g>
	</g>
	<g>
		<g>
			<path class="st0" d="M427.8,297.7H317.9c-18.3,0-33.1,14.9-33.1,33.1h15.6c0-9.7,7.9-17.6,17.6-17.6h109.9
				c9.7,0,17.6,7.9,17.6,17.6H461C461,312.6,446.1,297.7,427.8,297.7z"/>
		</g>
	</g>
	<g>
		<g>
			<path class="st0" d="M262.1,90.7c-26.1-26.1-68.6-26.1-94.7,0c-26.1,26.1-26.1,68.6,0,94.7c13.1,13.1,30.2,19.6,47.4,19.6
				s34.3-6.5,47.4-19.6C288.3,159.3,288.3,116.8,262.1,90.7z M251.1,174.4c-20,20-52.7,20-72.7,0c-20-20-20-52.7,0-72.7
				c9.7-9.7,22.6-15.1,36.4-15.1c13.7,0,26.6,5.3,36.4,15.1C271.2,121.7,271.2,154.4,251.1,174.4z"/>
		</g>
	</g>
	<g>
		<g>
			<path class="st0" d="M279.5,73.3c-35.7-35.7-93.8-35.7-129.5,0c-17.3,17.3-26.8,40.3-26.8,64.8c0,21.8,7.6,42.5,21.6,59
				l-13.2,13.2l11,11l13.2-13.2c17,14.3,38,21.5,59,21.5c23.4,0,46.9-8.9,64.8-26.8c17.3-17.3,26.8-40.3,26.8-64.8
				C306.4,113.6,296.8,90.6,279.5,73.3z M268.5,191.8c-14.4,14.4-33.4,22.3-53.8,22.3s-39.4-7.9-53.8-22.3
				c-14.4-14.4-22.3-33.4-22.3-53.8s7.9-39.4,22.3-53.8c14.8-14.8,34.3-22.2,53.8-22.2c19.5,0,38.9,7.4,53.8,22.2
				C298.2,113.9,298.2,162.2,268.5,191.8z"/>
		</g>
	</g>
	<g>
		<g>
			
				<rect x="15.7" y="304" transform="matrix(0.7071 -0.7071 0.7071 0.7071 -226.0602 113.0517)" class="st0" width="15.6" height="50.7"/>
		</g>
	</g>
	<g>
		<g>
			<path class="st0" d="M113.1,204.8l-9.6,9.6v-84.8h8.3V114H88V230l-69.5,69.5l34.9,34.9L88,299.8v29.9h15.6v-45.4l44.5-44.5
				L113.1,204.8z M53.3,312.4l-12.9-12.9l72.7-72.7l12.9,12.9L53.3,312.4z"/>
		</g>
	</g>
	<g>
		<g>
			<polygon class="st0" points="311.9,114 311.9,129.6 479.9,129.6 479.9,329.7 495.4,329.7 495.4,114 			"/>
		</g>
	</g>
	<g>
		<g>
			
				<rect x="187.5" y="111.4" transform="matrix(0.7071 -0.7071 0.7071 0.7071 -25.8303 175.9478)" class="st0" width="23.9" height="15.6"/>
		</g>
	</g>
	<g>
		<g>
			
				<rect x="190.7" y="132.5" transform="matrix(0.7071 -0.7071 0.7071 0.7071 -34.5839 197.091)" class="st0" width="59.8" height="15.6"/>
		</g>
	</g>
	<g>
		<g>
			<polygon class="st0" points="432.2,233.2 432.2,273.7 311.9,273.7 311.9,233.2 296.4,233.2 296.4,289.2 447.7,289.2 447.7,233.2 
							"/>
		</g>
	</g>
	<g>
		<g>
			<polygon class="st0" points="255.9,233.2 255.9,273.7 159.5,273.7 159.5,257.1 144,257.1 144,289.2 271.5,289.2 271.5,233.2 			
				"/>
		</g>
	</g>
	<g>
		<g>
			<path class="st0" d="M432.2,185.6v-8.3h8.3v-15.6h-23.8v23.8H400v-23.8h-71.5v23.8h-16.6v15.6h128.6v8.3H288.1V225h168v-39.4
				L432.2,185.6L432.2,185.6z M384.5,185.6H344v-8.3h40.4V185.6z"/>
		</g>
	</g>
	<g>
		<g>
			<rect x="416.6" y="137.9" class="st0" width="16.6" height="15.6"/>
		</g>
	</g>
</g>
</svg>
