<?xml version="1.0" encoding="utf-8"?>
<!-- Generator: Adobe Illustrator 23.0.2, SVG Export Plug-In . SVG Version: 6.00 Build 0)  -->
<svg version="1.1" id="Layer_1" xmlns="http://www.w3.org/2000/svg" xmlns:xlink="http://www.w3.org/1999/xlink" x="0px" y="0px"
	 viewBox="0 0 683 683" style="enable-background:new 0 0 683 683;" xml:space="preserve">
<style type="text/css">
	.st0{fill:#D12027;}
</style>
<path class="st0" d="M682.1,641.8c1.1-2.8,1.1-5.9,0-8.7c-0.6-1.4-1.4-2.7-2.5-3.7l-34.2-34.2c-4.5-4.5-11.6-4.5-16.1,0
	c-4.5,4.5-4.5,11.6,0,16.1l14.7,14.7h-40.8V227.7c0-6.3-5.1-11.4-11.4-11.4h-45.5c-6.3,0-11.4,5.1-11.4,11.4v398.4h-22.8V296
	c0-6.3-5.1-11.4-11.4-11.4h-45.5c-6.3,0-11.4,5.1-11.4,11.4v330.1h-22.8V364.3c0-6.3-5.1-11.4-11.4-11.4h-45.5
	c-6.3,0-11.4,5.1-11.4,11.4v261.8h-22.8V432.6c0-6.3-5.1-11.4-11.4-11.4h-45.5c-6.3,0-11.4,5.1-11.4,11.4v193.5h-22.8V500.9
	c0-6.3-5.1-11.4-11.4-11.4h-45.5c-6.3,0-11.4,5.1-11.4,11.4v125.2H148V535c0-6.3-5.1-11.4-11.4-11.4H91.1c-6.3,0-11.4,5.1-11.4,11.4
	v91.1H56.9V38.8l14.7,14.7c2.1,2.1,5,3.3,8.1,3.3c3,0,5.9-1.2,8-3.3c4.5-4.5,4.5-11.6,0-16.1L53.6,3.3c-1-1-2.3-1.9-3.7-2.5
	c-2.8-1.1-5.9-1.1-8.7,0c-1.4,0.6-2.7,1.4-3.7,2.5L3.3,37.5c-4.4,4.4-4.5,11.6,0,16.1c0,0,0,0,0,0C7.8,58,15,58,19.4,53.6l14.7-14.7
	v598.6c0,6.3,5.1,11.4,11.4,11.4h598.6l-14.7,14.7c-4.5,4.5-4.5,11.6,0,16.1c2.2,2.2,5.1,3.3,8,3.3c3,0,5.9-1.2,8.1-3.3l34.2-34.1
	C680.7,644.5,681.6,643.2,682.1,641.8L682.1,641.8z M102.5,626.1v-22.8h22.8v22.8H102.5z M193.5,626.1v-45.5h22.8v45.5H193.5z
	 M284.6,626.1v-79.7h22.8v79.7H284.6z M375.7,626.1V512.2h22.8v113.8H375.7z M466.7,626.1V489.5h22.8v136.6H466.7z M557.8,626.1
	V443.9h22.8v182.1H557.8z M136.6,250.4h45.5c6.3,0,11.4-5.1,11.4-11.4v-45.5c0-6.3-5.1-11.4-11.4-11.4h-45.5
	c-6.3,0-11.4,5.1-11.4,11.4V239C125.2,245.3,130.3,250.4,136.6,250.4L136.6,250.4z M273.2,182.1h-45.5c-6.3,0-11.4,5.1-11.4,11.4
	V239c0,6.3,5.1,11.4,11.4,11.4h45.5c6.3,0,11.4-5.1,11.4-11.4v-45.5C284.6,187.2,279.5,182.1,273.2,182.1L273.2,182.1z M136.6,113.8
	h91.1c6.3,0,11.4-5.1,11.4-11.4c0-6.3-5.1-11.4-11.4-11.4h-91.1c-6.3,0-11.4,5.1-11.4,11.4C125.2,108.7,130.3,113.8,136.6,113.8
	L136.6,113.8z M136.6,159.4h136.6c6.3,0,11.4-5.1,11.4-11.4c0-6.3-5.1-11.4-11.4-11.4H136.6c-6.3,0-11.4,5.1-11.4,11.4
	C125.2,154.2,130.3,159.4,136.6,159.4L136.6,159.4z M136.6,296h136.6c6.3,0,11.4-5.1,11.4-11.4c0-6.3-5.1-11.4-11.4-11.4H136.6
	c-6.3,0-11.4,5.1-11.4,11.4C125.2,290.9,130.3,296,136.6,296L136.6,296z"/>
</svg>
