<?xml version="1.0" encoding="utf-8"?>
<!-- Generator: Adobe Illustrator 23.0.2, SVG Export Plug-In . SVG Version: 6.00 Build 0)  -->
<svg version="1.1" id="Capa_1" xmlns="http://www.w3.org/2000/svg" xmlns:xlink="http://www.w3.org/1999/xlink" x="0px" y="0px"
	 viewBox="0 0 512 512" style="enable-background:new 0 0 512 512;" xml:space="preserve">
<style type="text/css">
	.st0{fill:#D12027;}
</style>
<g>
	<g>
		<g>
			<path class="st0" d="M425.5,41.1c-39.1,0-70,31.4-70,70.5s31.4,70,70,70s70.5-31.4,70.5-70.5S464.6,41.1,425.5,41.1z
				 M425.5,166.2c-30.4,0-55.1-24.6-55.1-55.1s25.1-54.6,55.1-54.6c30.4,0,55.1,24.6,55.1,55.1S455.9,166.2,425.5,166.2z"/>
		</g>
	</g>
	<g>
		<g>
			<path class="st0" d="M447.7,122.2c-0.5-1.4-0.5-2.4-1.4-3.9c-0.5-1-1-2.4-1.9-3.4c-1-1-1.4-1.9-2.4-2.9c-1-1-1.9-1.9-3.4-2.4
				c-1-1-2.4-1.4-3.4-1.9c-1.4-0.5-2.4-1.4-3.9-1.9c-1.4-0.5-2.9-1-3.9-1.4c-0.5,0-1.4-0.5-1.9-1c-0.5-0.5-1.4-0.5-1.9-1
				s-1.4-0.5-1.9-1c-0.5-0.5-1-1-1.4-1.4c-0.5-0.5-1-1-1-1.9c-0.5-0.5-0.5-1.4-0.5-1.9c0-1,0-1.4,0-2.4c0-0.5,0.5-1.4,0.5-1.9
				c0.5-0.5,0.5-1.4,1-1.9s1-1,1.4-1.4c0.5-0.5,1.4-1,2.4-1c1-0.5,1.4-0.5,2.4-0.5c0.5,0,1,0,1.4,0s1,0,1.4,0c1,0,1.4,0,2.4,0.5
				c1,0,1.9,0.5,2.4,0.5s1.4,0.5,1.9,0.5c1,0,1.4,0.5,1.9,0.5l2.4,1L441,87l1-7.7v-1.9l-1.9-0.5c-0.5,0-1.4-0.5-1.9-0.5
				s-1-0.5-1.9-0.5c-0.5,0-1.4-0.5-2.4-0.5s-1.4-0.5-2.4-0.5h-0.5v-6.8v-2.4h-2.4h-6.8h-2.4v2.4v7.2h-0.5c-1.4,0.5-2.9,1-4.3,1.9
				c-1.4,0.5-2.4,1.4-3.4,2.4c-1,1-1.9,1.9-2.9,3.4c-1,1-1.4,2.4-1.9,3.9c-0.5,1.4-1,2.9-1.4,4.3c-0.5,1.4-0.5,3.4-0.5,4.8
				s0,2.4,0.5,3.9c0.5,1.4,0.5,2.4,1.4,3.9c0.5,1,1.4,2.4,1.9,3.4c1,1,1.4,1.9,2.4,2.9c1,1,1.9,1.9,3.4,2.4c1,1,2.4,1.4,3.4,1.9
				c1.4,0.5,2.9,1.4,3.9,1.9c1.4,0.5,2.9,1,3.9,1.4c0.5,0,1.4,0.5,1.9,1s1.4,0.5,1.9,1s1,1,1.4,1c0.5,0.5,1,1,1.4,1.4
				c0.5,0.5,0.5,1,1,1.9c0,0.5,0.5,1.4,0.5,2.4c0,1,0,1.4,0,2.4c0,0.5-0.5,1.4-1,1.9c-0.5,0.5-1,1-1.4,1.4c-0.5,0.5-1,1-1.9,1.4
				c-0.5,0.5-1.4,0.5-1.9,1c-0.5,0-1.4,0.5-2.4,0.5c-0.5,0-1,0-1.9,0c-0.5,0-1.4,0-1.9,0c-1,0-1.9,0-2.4,0c-1,0-1.9-0.5-2.4-0.5
				c-1,0-1.9-0.5-2.9-1c-1-0.5-1.9-0.5-2.9-1c-0.5,0-1-0.5-1.4-0.5c-0.5,0-1-0.5-1.4-0.5l-2.9-1.4l-0.5,3.4l-1,8.7v1.4l1.4,0.5
				c1.9-0.5,2.9,0,4.3,0.5c1,0.5,2.4,1,3.4,1c1,0.5,2.4,0.5,3.9,1c1.4,0.5,2.4,0.5,3.9,0.5h1v7.2v2.4h2.4h6.8h2.4v-2.4v-7.7h0.5
				c1.4-0.5,2.9-1,4.3-1.9c1.4-0.5,2.4-1.4,3.9-2.4c1-1,1.9-1.9,2.9-3.4c1-1,1.4-2.4,2.4-3.9c0.5-1.4,1-2.9,1.4-4.3
				c0.5-1.4,0.5-2.9,0.5-4.8C448.2,124.6,448.2,123.7,447.7,122.2z"/>
		</g>
	</g>
	<g>
		<g>
			<path class="st0" d="M391.7,190.8c-2.4-3.4-7.7-3.9-11.1-1.4l-78.2,62.3l-100.9-42c-2.4-1-5.3-0.5-7.2,1L86,287.9
				c-3.4,2.4-4.3,7.2-1.9,10.6c1.4,2.4,3.9,3.4,6.3,3.4c1.4,0,2.9-0.5,4.3-1.4l104.8-74.9l101.4,42c2.4,1,5.8,0.5,7.7-1l81.6-64.7
				C393.6,199.5,394.1,194.2,391.7,190.8z"/>
		</g>
	</g>
	<g>
		<g>
			<path class="st0" d="M504.7,455.5H469V231.9c0-4.3-3.4-7.7-7.7-7.7h-71c-4.3,0-7.7,3.4-7.7,7.7v223.6h-26.1V309.1
				c0-4.3-3.4-7.7-7.7-7.7h-71.5c-4.3,0-7.7,3.4-7.7,7.7v146.3h-26.1V297.5c0-4.3-3.4-7.7-7.7-7.7h-71c-4.3,0-7.7,3.4-7.7,7.7v157.9
				h-26.1V342.9c0-4.3-3.4-7.7-7.7-7.7H51.7c-4.3,0-7.7,3.4-7.7,7.7v112.5H7.7c-4.3,0-7.7,3.4-7.7,7.7c0,4.3,3.4,7.7,7.7,7.7h43.5
				h71h42.5h71h41.5h71h41.5h71h43.5c4.3,0,7.7-3.4,7.7-7.7C512.4,458.8,509.1,455.5,504.7,455.5z M114.9,455.5H59.4V350.7h55.5
				V455.5z M228,455.5h-55.5V305.3H228V455.5z M340.5,455.5H285V316.9h55.5V455.5z M453.5,455.5H398V239.6h55.5V455.5z"/>
		</g>
	</g>
</g>
</svg>
