<?xml version="1.0" encoding="utf-8"?>
<!-- Generator: Adobe Illustrator 23.0.2, SVG Export Plug-In . SVG Version: 6.00 Build 0)  -->
<svg version="1.1" id="Capa_1" xmlns="http://www.w3.org/2000/svg" xmlns:xlink="http://www.w3.org/1999/xlink" x="0px" y="0px"
	 viewBox="0 0 450.3 450.3" style="enable-background:new 0 0 450.3 450.3;" xml:space="preserve">
<style type="text/css">
	.st0{fill:#D12027;}
</style>
<g>
	<g>
		<path class="st0" d="M344.1,296.7c-1.6-4-4-8-6.4-11.2s-5.6-5.6-9.6-8s-7.2-3.2-12-4c3.2-1.6,6.4-3.2,8.8-5.6s4.8-4.8,6.4-7.2
			c1.6-2.4,3.2-5.6,4-8.8s1.6-6.4,1.6-10.4c0-6.4-0.8-11.2-3.2-16c-1.6-4.8-4.8-8.8-8.8-12s-8.8-5.6-14.4-7.2v-0.8v-23.2
			c0-4.8-3.2-8-8-8s-8,3.2-8,8v21.6c-2.4,0-4.8,0-6.4,0h-11.2v-21.6c0-4.8-3.2-8-8-8s-8,3.2-8,8v21.6h-7.2c-1.6,0-3.2,0.8-4.8,1.6
			s-2.4,3.2-2.4,6.4v136.8c0,3.2,0.8,5.6,2.4,6.4c1.6,0,3.2,0.8,4.8,0.8h7.2v23.2c0,4.8,3.2,8,8,8s8-3.2,8-8v-23.2h16.8
			c0.8,0,0.8,0,1.6,0v23.2c0,4.8,3.2,8,8,8s8-3.2,8-8v-23.2c0-0.8,0-0.8,0-1.6c4-0.8,7.2-1.6,10.4-3.2c4-1.6,7.2-4,10.4-6.4
			c3.2-2.4,5.6-5.6,8-8.8c2.4-3.2,4-7.2,4.8-11.2c1.6-4,1.6-8.8,1.6-13.6C346.5,305.5,345.7,301.5,344.1,296.7z M266.5,219.9h20.8
			c5.6-0.8,10.4,0,14.4,0.8c3.2,0.8,6.4,2.4,8.8,4.8c2.4,2.4,4,4.8,4.8,8s1.6,6.4,1.6,10.4c0,3.2-0.8,6.4-1.6,9.6
			c-0.8,3.2-2.4,5.6-4.8,8c-2.4,2.4-4.8,4-8,5.6s-7.2,2.4-12.8,2.4h-23.2L266.5,219.9L266.5,219.9z M323.3,324.7
			c-1.6,3.2-3.2,5.6-6.4,8c-2.4,2.4-5.6,4-8.8,4.8c-3.2,0.8-7.2,1.6-12,1.6h-29.6v-53.6h24c6.4,0,12,0.8,16,1.6
			c4,0.8,8,3.2,10.4,5.6s4.8,5.6,6.4,8.8c1.6,3.2,2.4,7.2,2.4,12C325.7,317.5,324.9,321.5,323.3,324.7z"/>
	</g>
</g>
<g>
	<g>
		<path class="st0" d="M441.7,400.7l-32-32c18.4-24.8,28.8-55.2,28.8-88c0-81.6-66.4-148.8-148.8-148.8c-32.8,0-63.2,11.2-88,28.8
			l-44-44c0,0-0.8-0.8-1.6-0.8c87.2-66.4,207.2-83.2,208.8-83.2c2.4,0,4-1.6,5.6-3.2c0.8-0.8,1.6-1.6,2.4-3.2c1.6-4,0-8.8-4-10.4
			c-2.4-0.8-134.4-57.6-261.6,48.8c0-0.8-0.8-0.8-1.6-1.6l-23.2-24c-6.4-6.4-18.4-4.8-25.6,2.4l-16,16c-3.2,3.2-5.6,8-6.4,12
			c-0.8,5.6,0.8,10.4,4,13.6l23.2,23.2c0.8,0.8,0.8,0.8,1.6,1.6C-38.3,235.1,16.9,364.7,17.7,366.3c1.6,3.2,4,4.8,7.2,4.8
			c0.8,0,2.4,0,3.2-0.8c1.6-0.8,2.4-1.6,3.2-2.4c1.6-1.6,3.2-3.2,3.2-5.6c0-1.6,14.4-118.4,80-203.2c0,0.8,0.8,0.8,0.8,1.6
			l47.2,47.2c-12,21.6-19.2,46.4-19.2,72.8c0,81.6,66.4,148,148,148c26.4,0,51.2-7.2,72.8-19.2l34.4,34.4c4,4,9.6,6.4,14.4,6.4
			s8.8-1.6,12-4.8l18.4-18.4C450.5,419.9,449.7,407.9,441.7,400.7z M50.5,72.7c0-0.8,0-2.4,1.6-4l16-16c1.6-1.6,3.2-1.6,3.2-2.4
			l23.2,23.2c0,0.8,0,2.4-1.6,4l-16,16c-1.6,1.6-2.4,1.6-3.2,1.6L50.5,72.7z M114.5,133.5c-0.8,0.8-2.4,2.4-2.4,4
			c-56,64-79.2,149.6-88.8,193.6C12.1,284.7,4.9,187.9,96.9,94.3c93.6-92,191.2-84,237.6-72.8c-44,9.6-132.8,34.4-197.6,91.2
			c-1.6,0.8-2.4,1.6-4,2.4l-8.8,8.8L114.5,133.5z M127.3,148.7c-0.8-0.8-1.6-2.4-1.6-3.2c3.2-3.2,5.6-6.4,8.8-9.6l0.8-0.8
			c3.2-3.2,6.4-6.4,9.6-8.8c0.8,0,1.6,0,3.2,1.6l43.2,43.2c-7.2,6.4-13.6,14.4-20,22.4L127.3,148.7z M291.3,412.7
			c-73.6,0-132.8-59.2-132.8-132.8s60-132,132.8-132s132.8,59.2,132.8,132C424.1,352.7,364.9,412.7,291.3,412.7z M414.5,433.5
			c-0.8,0-2.4,0.8-4-1.6l-32-32c8-5.6,15.2-12.8,22.4-20l30.4,31.2c1.6,1.6,1.6,4,1.6,4L414.5,433.5z"/>
	</g>
</g>
</svg>
