<?xml version="1.0" encoding="utf-8"?>
<!-- Generator: Adobe Illustrator 23.0.2, SVG Export Plug-In . SVG Version: 6.00 Build 0)  -->
<svg version="1.1" id="Layer_1" xmlns="http://www.w3.org/2000/svg" xmlns:xlink="http://www.w3.org/1999/xlink" x="0px" y="0px"
	 viewBox="0 0 512 512" style="enable-background:new 0 0 512 512;" xml:space="preserve">
<style type="text/css">
	.st0{fill:#D12027;}
</style>
<g>
	<g>
		<g>
			<path class="st0" d="M501.8,47.9H10.2C4.6,47.9,0,52.5,0,58.1v322.6c0,5.6,4.6,10.2,10.2,10.2H190v52.8h-36.2
				c-5.6,0-10.2,4.6-10.2,10.2s4.6,10.2,10.2,10.2h204.3v0c5.6,0,10.2-4.6,10.2-10.2s-4.6-10.2-10.2-10.2H322v-52.8h179.8
				c5.6,0,10.2-4.6,10.2-10.2V58.1C512,52.5,507.4,47.9,501.8,47.9z M301.6,443.7h-91.1v-52.8h91.1V443.7z M491.6,370.5H20.4V68.3
				h471.2L491.6,370.5L491.6,370.5z"/>
		</g>
	</g>
	<g>
		<g>
			<path class="st0" d="M238.7,92.2H55.8c-5.6,0-10.2,4.6-10.2,10.2v131.8c0,5.6,4.6,10.2,10.2,10.2h182.9c5.6,0,10.2-4.6,10.2-10.2
				V102.4C248.9,96.7,244.3,92.2,238.7,92.2z M80.8,224l32.4-32.4l32.4,32.4H80.8z M228.5,224h-54.1v0c-0.3-0.3-0.5-0.7-0.8-1
				L156,205.5l39.7-39.7l32.8,32.8L228.5,224L228.5,224z M228.5,169.7l-25.5-25.5c-4-4-10.4-4-14.4,0l-46.9,46.9l-21.1-21.1
				c-4-4-10.4-4-14.4,0L65.9,210v-97.5h162.5V169.7z"/>
		</g>
	</g>
	<g>
		<g>
			<path class="st0" d="M465.3,110.5l-18.5-18.5c-9.4-9.4-24.7-9.4-34.1,0L280.4,224.4c-1.2,1.2-2.1,2.7-2.5,4.3l0,0l0,0
				c0,0,0,0.1,0,0.1l-14.3,47.3H55.8c-5.6,0-10.2,4.6-10.2,10.2s4.6,10.2,10.2,10.2H271c0,0,0,0,0,0c0,0,0,0,0,0h0.3
				c1.5,0,2.9-0.3,4.2-0.9l53.1-16.1l0,0c1.6-0.5,3.1-1.4,4.3-2.5l132.3-132.3c4.6-4.6,7.1-10.6,7.1-17
				C472.3,121.2,469.8,115.1,465.3,110.5z M286.3,271l6.1-20.1l14,14L286.3,271z M325.7,255.3L302,231.6l103.5-103.5l23.7,23.7
				L325.7,255.3z M450.8,130.2l-7.2,7.2L420,113.7l7.2-7.2c1.4-1.4,3.8-1.4,5.2,0l18.5,18.5c0.9,0.9,1.1,2,1.1,2.6
				C451.9,128.2,451.8,129.3,450.8,130.2z"/>
		</g>
	</g>
	<g>
		<g>
			<path class="st0" d="M412,325.2H55.8c-5.6,0-10.2,4.6-10.2,10.2s4.6,10.2,10.2,10.2H412c5.6,0,10.2-4.6,10.2-10.2
				S417.7,325.2,412,325.2z"/>
		</g>
	</g>
	<g>
		<g>
			<path class="st0" d="M457.3,325.2h-5.5c-5.6,0-10.2,4.6-10.2,10.2s4.6,10.2,10.2,10.2h5.5c5.6,0,10.2-4.6,10.2-10.2
				C467.5,329.7,463,325.2,457.3,325.2z"/>
		</g>
	</g>
</g>
</svg>
