<?xml version="1.0" encoding="utf-8"?>
<!-- Generator: Adobe Illustrator 23.0.2, SVG Export Plug-In . SVG Version: 6.00 Build 0)  -->
<svg version="1.1" id="Capa_1" xmlns="http://www.w3.org/2000/svg" xmlns:xlink="http://www.w3.org/1999/xlink" x="0px" y="0px"
	 viewBox="0 0 512 512" style="enable-background:new 0 0 512 512;" xml:space="preserve">
<style type="text/css">
	.st0{fill:#D12027;}
</style>
<g>
	<g>
		<path class="st0" d="M251.4,432.8c-1.9-1.9-4.4-2.9-7.1-2.9s-5.2,1.1-7.1,2.9c-1.9,1.9-2.9,4.4-2.9,7.1c0,2.6,1.1,5.2,2.9,7.1
			c1.9,1.9,4.4,2.9,7.1,2.9s5.2-1.1,7.1-2.9c1.9-1.9,2.9-4.4,2.9-7.1C254.3,437.2,253.2,434.6,251.4,432.8z"/>
	</g>
</g>
<g>
	<g>
		<path class="st0" d="M299,340.5V267c0-3.3-1.6-6.4-4.4-8.3s-6.3-2.2-9.3-1L113,327.1H57.4C25.8,327.1,0,352.8,0,384.5
			s25.8,57.4,57.4,57.4H64V502c0,5.5,4.5,10,10,10h40.8c5.5,0,10-4.5,10-10v-55.2l160.4,64.5c1.2,0.5,2.5,0.7,3.7,0.7
			c2,0,3.9-0.6,5.6-1.7c2.8-1.9,4.4-5,4.4-8.3v-73.6c20.1-4.6,35.1-22.5,35.1-43.9C334.1,363.1,319,345.1,299,340.5z M104.9,492H84
			v-50.1h20.8L104.9,492L104.9,492z M104.9,421.9H57.4c-20.6,0-37.4-16.8-37.4-37.4s16.8-37.4,37.4-37.4h47.4L104.9,421.9z
			 M279,487.2L279,487.2l-154.1-62v-81.4l109.4-44.1V399c0,5.5,4.5,10,10,10s10-4.5,10-10V291.7l24.7-9.9V487.2z M299,407.5v-46
			c8.9,3.9,15.1,12.7,15.1,23S307.8,403.6,299,407.5z"/>
	</g>
</g>
<g>
	<g>
		<path class="st0" d="M429.5,374.8h-56.6c-5.5,0-10,4.5-10,10s4.5,10,10,10h56.6c5.5,0,10-4.5,10-10S435,374.8,429.5,374.8z"/>
	</g>
</g>
<g>
	<g>
		<path class="st0" d="M383,301.5c-3.9-3.9-10.2-3.9-14.1,0L349.3,321c-3.9,3.9-3.9,10.2,0,14.1c2,2,4.5,2.9,7.1,2.9s5.1-1,7.1-2.9
			l19.5-19.5C386.9,311.7,386.9,305.4,383,301.5z"/>
	</g>
</g>
<g>
	<g>
		<path class="st0" d="M383.8,453l-20.2-20.2c-3.9-3.9-10.2-3.9-14.1,0s-3.9,10.2,0,14.1l20.2,20.2c2,2,4.5,2.9,7.1,2.9
			s5.1-1,7.1-2.9C387.7,463.2,387.7,456.9,383.8,453z"/>
	</g>
</g>
<g>
	<g>
		<path class="st0" d="M472,0H286c-22.1,0-40,17.9-40,40v4H78c-13.2,0-24,10.8-24,24v158c0,13.2,10.8,24,24,24h10.3v30.7
			c0,4,2.4,7.7,6.2,9.2c1.2,0.5,2.5,0.8,3.8,0.8c2.6,0,5.2-1,7.1-2.9l37.7-37.7h198.6c13.2,0,24-10.8,24-24v-30H472
			c22.1,0,40-17.9,40-40V40C512,17.9,494.1,0,472,0z M345.8,226c0,2.2-1.8,4-4,4H139c-2.7,0-5.2,1.1-7.1,2.9l-23.6,23.6V240
			c0-5.5-4.5-10-10-10H78c-2.2,0-4-1.8-4-4V68c0-2.2,1.8-4,4-4h168v92c0,22.1,17.9,40,40,40h59.8V226z M492,156c0,11-9,20-20,20H286
			c-11,0-20-9-20-20V40c0-11,9-20,20-20h186c11,0,20,9,20,20V156z"/>
	</g>
</g>
<g>
	<g>
		<path class="st0" d="M419.2,89.3l-68.4-39.5c-3.1-1.8-6.9-1.8-10,0s-5,5.1-5,8.7v79c0,3.6,1.9,6.9,5,8.7c1.5,0.9,3.3,1.3,5,1.3
			s3.5-0.4,5-1.3l68.4-39.5c3.1-1.8,5-5.1,5-8.7S422.3,91.1,419.2,89.3z M355.7,120.2V75.8L394.2,98L355.7,120.2z"/>
	</g>
</g>
<g>
	<g>
		<path class="st0" d="M214.5,105h-100c-5.5,0-10,4.5-10,10s4.5,10,10,10h100c5.5,0,10-4.5,10-10S220,105,214.5,105z"/>
	</g>
</g>
<g>
	<g>
		<path class="st0" d="M221.6,163.9c-1.9-1.9-4.4-2.9-7.1-2.9s-5.2,1.1-7.1,2.9c-1.9,1.9-2.9,4.4-2.9,7.1s1.1,5.2,2.9,7.1
			c1.9,1.9,4.4,2.9,7.1,2.9c2.6,0,5.2-1.1,7.1-2.9c1.9-1.9,2.9-4.4,2.9-7.1S223.4,165.8,221.6,163.9z"/>
	</g>
</g>
<g>
	<g>
		<path class="st0" d="M177,161h-62.5c-5.5,0-10,4.5-10,10s4.5,10,10,10H177c5.5,0,10-4.5,10-10S182.5,161,177,161z"/>
	</g>
</g>
</svg>
