<?xml version="1.0" encoding="utf-8"?>
<!-- Generator: Adobe Illustrator 23.0.2, SVG Export Plug-In . SVG Version: 6.00 Build 0)  -->
<svg version="1.1" id="Capa_1" xmlns="http://www.w3.org/2000/svg" xmlns:xlink="http://www.w3.org/1999/xlink" x="0px" y="0px"
	 viewBox="0 0 512 512" style="enable-background:new 0 0 512 512;" xml:space="preserve">
<style type="text/css">
	.st0{fill:#D12027;}
</style>
<g>
	<g>
		<g>
			<path class="st0" d="M460.4,152.3h-32.6v-32.6c0-4.2-3.4-7.5-7.5-7.5h-48.1c-4.1,0-7.5,3.4-7.5,7.5s3.4,7.5,7.5,7.5h40.6v217.4
				H75.1V127.3h262c4.1,0,7.5-3.4,7.5-7.5s-3.4-7.5-7.5-7.5H67.6c-4.2,0-7.5,3.4-7.5,7.5v232.5c0,4.2,3.4,7.5,7.5,7.5h32.6v32.6
				c0,4.2,3.4,7.5,7.5,7.5h352.7c4.1,0,7.5-3.4,7.5-7.5V159.8C467.9,155.7,464.6,152.3,460.4,152.3z M452.9,384.8H115.2v-25.1h305.1
				c4.1,0,7.5-3.4,7.5-7.5V167.3h25.1V384.8z"/>
		</g>
	</g>
	<g>
		<g>
			<path class="st0" d="M388.3,192.4c-22.4,0-40.6-18.2-40.6-40.6c0-4.2-3.4-7.5-7.5-7.5H147.8c-4.1,0-7.5,3.4-7.5,7.5
				c0,22.4-18.2,40.6-40.6,40.6c-4.2,0-7.5,3.4-7.5,7.5V272c0,4.2,3.4,7.5,7.5,7.5c22.4,0,40.6,18.2,40.6,40.6
				c0,4.2,3.4,7.5,7.5,7.5h192.4c4.1,0,7.5-3.4,7.5-7.5c0-22.4,18.2-40.6,40.6-40.6c4.1,0,7.5-3.4,7.5-7.5v-72.1
				C395.8,195.8,392.4,192.4,388.3,192.4z M380.8,265c-24.7,3.3-44.2,22.9-47.6,47.6H154.8c-3.3-24.7-22.9-44.2-47.6-47.6v-58.1
				c24.7-3.3,44.2-22.9,47.6-47.6h178.4c3.3,24.7,22.9,44.2,47.6,47.6L380.8,265L380.8,265z"/>
		</g>
	</g>
	<g>
		<g>
			<path class="st0" d="M264.8,227.9c4.1,0,7.5-3.4,7.5-7.5v-5.2c0-12-9.2-21.9-20.8-23v-8.2c0-4.2-3.4-7.5-7.5-7.5
				s-7.5,3.4-7.5,7.5v8.6c-11.9,2.3-20.8,12.8-20.8,25.3c0,14.2,11.6,25.8,25.8,25.8h5.2c5.9,0,10.7,4.8,10.7,10.7
				c0,5.9-4.8,10.7-10.7,10.7h-7.8c-4.5,0-8.1-3.6-8.1-8.1c0-4.2-3.4-7.5-7.5-7.5s-7.5,3.4-7.5,7.5c0,12,9.2,21.9,20.8,23v8.2
				c0,4.2,3.4,7.5,7.5,7.5s7.5-3.4,7.5-7.5v-8.6c11.9-2.3,20.8-12.8,20.8-25.3c0-14.2-11.6-25.8-25.8-25.8h-5.2
				c-5.9,0-10.7-4.8-10.7-10.7s4.8-10.7,10.7-10.7h7.8c4.5,0,8.1,3.6,8.1,8.1v5.2C257.3,224.5,260.7,227.9,264.8,227.9z"/>
		</g>
	</g>
	<g>
		<g>
			<path class="st0" d="M420.3,32.1c-10.9,0-15.9-3.8-22.2-8.5c-7.2-5.4-15.4-11.5-31.2-11.5c-15.9,0-24,6.1-31.2,11.5
				c-6.3,4.8-11.4,8.5-22.2,8.5c-10.9,0-15.9-3.8-22.2-8.5C284,18.1,275.9,12,260,12s-24,6.1-31.2,11.5c-6.3,4.8-11.4,8.5-22.2,8.5
				c-10.9,0-15.9-3.8-22.2-8.5C177.2,18.1,169,12,153.1,12s-24,6.1-31.2,11.5c-6.3,4.8-11.4,8.5-22.2,8.5h-30L89,12.8
				c2.9-2.9,2.9-7.7,0-10.6s-7.7-2.9-10.6,0L46.3,34.3c-2.9,2.9-2.9,7.7,0,10.6L78.3,77c1.5,1.5,3.4,2.2,5.3,2.2
				c6.6,0,9.9-8.2,5.3-12.8L69.7,47.1h30c15.9,0,24-6.1,31.2-11.5c6.3-4.8,11.4-8.5,22.2-8.5c10.9,0,15.9,3.8,22.2,8.5
				c7.2,5.4,15.4,11.5,31.2,11.5c15.9,0,24-6.1,31.2-11.5c6.3-4.8,11.4-8.5,22.2-8.5s15.9,3.8,22.2,8.5c7.2,5.4,15.4,11.5,31.2,11.5
				s24-6.1,31.2-11.5c6.3-4.8,11.4-8.5,22.2-8.5s15.9,3.8,22.2,8.5c7.2,5.4,15.4,11.5,31.2,11.5c4.1,0,7.5-3.4,7.5-7.5
				S424.5,32.1,420.3,32.1z"/>
		</g>
	</g>
	<g>
		<g>
			<path class="st0" d="M441.7,467.1l-32.1-32.1c-2.9-2.9-7.7-2.9-10.6,0c-2.9,2.9-2.9,7.7,0,10.6l19.2,19.2h-30
				c-10.9,0-15.9-3.8-22.2-8.5c-7.2-5.4-15.4-11.5-31.2-11.5s-24,6.1-31.2,11.5c-6.3,4.8-11.4,8.5-22.2,8.5
				c-10.9,0-15.9-3.8-22.2-8.5c-7.2-5.4-15.4-11.5-31.2-11.5s-24,6.1-31.2,11.5c-6.3,4.8-11.4,8.5-22.2,8.5
				c-10.9,0-15.9-3.8-22.2-8.5c-7.2-5.4-15.4-11.5-31.2-11.5s-24,6.1-31.2,11.5c-6.3,4.8-11.4,8.5-22.2,8.5c-4.2,0-7.5,3.4-7.5,7.5
				s3.4,7.5,7.5,7.5c15.9,0,24-6.1,31.2-11.5c6.3-4.8,11.4-8.5,22.2-8.5s15.9,3.8,22.2,8.5c7.2,5.4,15.4,11.5,31.2,11.5
				c15.9,0,24-6.1,31.2-11.5c6.3-4.8,11.4-8.5,22.2-8.5s15.9,3.8,22.2,8.5c7.2,5.4,15.4,11.5,31.2,11.5c15.9,0,24-6.1,31.2-11.5
				c6.3-4.8,11.4-8.5,22.2-8.5s15.9,3.8,22.2,8.5c7.2,5.4,15.4,11.5,31.2,11.5h30L399,499.2c-2.7,2.7-2.9,7.3-0.4,10.2
				c2.8,3.3,8,3.5,11,0.4l32.1-32.1C444.6,474.8,444.6,470.1,441.7,467.1z"/>
		</g>
	</g>
</g>
</svg>
