<?xml version="1.0" encoding="utf-8"?>
<!-- Generator: Adobe Illustrator 23.0.2, SVG Export Plug-In . SVG Version: 6.00 Build 0)  -->
<svg version="1.1" id="Capa_1" xmlns="http://www.w3.org/2000/svg" xmlns:xlink="http://www.w3.org/1999/xlink" x="0px" y="0px"
	 viewBox="0 0 512 512" style="enable-background:new 0 0 512 512;" xml:space="preserve">
<style type="text/css">
	.st0{fill:#D12027;}
</style>
<g>
	<g>
		<path class="st0" d="M489.6,33.3c-23.1-12.4-48.9,11.6-64,25.8c-34.7,33.8-64,72.9-96.9,108.4c-36.4,39.1-70.2,78.2-107.5,116.4
			c-21.3,21.3-44.4,44.4-58.6,71.1c-32-31.1-59.5-64.9-95.1-92.4C41.8,243-0.9,228.8,0,275.9C1.8,337.2,56,403,96,444.8
			c16.9,17.8,39.1,36.4,64.9,37.3c31.1,1.8,63.1-35.5,81.8-56c32.9-35.5,59.5-75.5,89.8-112c39.1-48,79.1-95.1,117.3-144
			C473.6,140,549.2,65.3,489.6,33.3z M39.1,272.4c-0.9,0-1.8,0-3.6,0.9c-3.6-0.9-6.2-1.8-9.8-3.6l0,0
			C28.4,267.9,32.9,268.8,39.1,272.4z"/>
	</g>
</g>
</svg>
