<?xml version="1.0" encoding="utf-8"?>
<!-- Generator: Adobe Illustrator 23.0.2, SVG Export Plug-In . SVG Version: 6.00 Build 0)  -->
<svg version="1.1" id="Capa_1" xmlns="http://www.w3.org/2000/svg" xmlns:xlink="http://www.w3.org/1999/xlink" x="0px" y="0px"
	 viewBox="0 0 512 512" style="enable-background:new 0 0 512 512;" xml:space="preserve">
<style type="text/css">
	.st0{fill:#D12027;}
</style>
<g>
	<g>
		<g>
			<path class="st0" d="M445,198.1l-9.3,11.8c38.9,30.7,61.2,76.7,61.2,126.2c0,88.6-72.1,160.8-160.8,160.8
				c-86.2,0-156.7-67.3-160.5-153.2l0-0.1c-0.1-2.4-0.2-4.9-0.2-7.4c0-13.1,1.6-25.9,4.7-38.4c14.3-58.4,59.4-103.5,117.8-117.7
				c12.4-3.1,25.3-4.7,38.3-4.7c0.2,0,0.3,0,0.5,0c0,0.2,0,0.3,0,0.5h10.8c25.8,1.8,50.9,9.8,72.9,23.3l7.9-12.9
				C404.9,172,378.4,163.3,351,161c-3.4-41.3-21.3-80-50.8-109.5C267,18.3,222.8,0,175.9,0S84.7,18.3,51.5,51.5
				C18.3,84.7,0,128.9,0,175.9c0,47.9,19.8,93.9,54.2,126.8l6.7,6.7l0.3-0.3c27.9,24.1,62.8,38.8,99.7,42
				c3.5,42.7,22.4,82.3,53.5,112.1c32.9,31.5,76.1,48.8,121.6,48.8c97,0,175.9-78.9,175.9-175.9C512,282,487.6,231.6,445,198.1z
				 M335.8,160.3c-11.1,0-22.1,1.1-32.8,3.2c-2.6-27-13.6-52.2-31.7-72.4l23.4-23.4C318.2,93.3,332.5,125.8,335.8,160.3z
				 M183.4,15.3C221,17,256.3,31.6,284.1,57l-23.4,23.4c-21.5-19.2-48.5-30.4-77.3-32.1L183.4,15.3L183.4,15.3z M168.3,15.3v33
				C139.5,50,112.5,61.2,91,80.4L67.6,57C95.4,31.6,130.7,17,168.3,15.3z M57,67.6l23.4,23.4c-19.2,21.5-30.4,48.5-32.1,77.3h-33
				C17,130.7,31.6,95.4,57,67.6z M60.9,288.1c-27.5-28-43.8-65.5-45.7-104.7h33c1.8,30.5,14.6,59.5,35.9,81.4L60.9,288.1z
				 M160.3,335.9c-32.6-3.2-63.4-16.3-88.3-37.5L95.4,275c15.9,13,34.8,21.9,54.9,26l3-14.8c-19.8-4-38.2-13.4-53.3-27.1
				c-23.4-21.3-36.9-51.6-36.9-83.3c0-30.1,11.7-58.4,33.1-79.6c21.2-21.3,49.5-33,79.6-33s58.4,11.7,79.6,33.1
				c19.1,19.1,30.6,44,32.7,70.8c-28.7,8.1-55,23.5-76.3,44.8c-22.8,22.8-38.8,51.3-46.4,82.3C162,307.7,160.3,321.7,160.3,335.9z"
				/>
			<path class="st0" d="M320.1,391.8h8.5v16.5h15.1v-16.5h8.5c13,0,23.6-10.6,23.6-23.6v-16c0-13-10.6-23.6-23.6-23.6h-32.1
				c-4.7,0-8.5-3.8-8.5-8.5v-16c0-4.7,3.8-8.5,8.5-8.5h32.1c4.7,0,8.5,3.8,8.5,8.5v16h15.1v-16c0-13-10.6-23.6-23.6-23.6h-8.5V264
				h-15.1l0,0v16.5h-8.5c-13,0-23.6,10.6-23.6,23.6v16c0,13,10.6,23.6,23.6,23.6h32.1c4.7,0,8.5,3.8,8.5,8.5v16
				c0,4.7-3.8,8.5-8.5,8.5h-32.1c-4.7,0-8.5-3.8-8.5-8.5v-16h-15.1v16C296.5,381.2,307.1,391.8,320.1,391.8z"/>
			<path class="st0" d="M200.4,336.1c0,74.9,60.9,135.8,135.8,135.8S471.9,411,471.9,336.1S411,200.4,336.1,200.4
				S200.4,261.3,200.4,336.1z M456.8,336.1c0,66.5-54.1,120.7-120.7,120.7s-120.7-54.1-120.7-120.7s54.1-120.7,120.7-120.7
				S456.8,269.6,456.8,336.1z"/>
			<rect x="408.3" y="328.6" class="st0" width="16" height="15.1"/>
			<rect x="248" y="328.6" class="st0" width="16" height="15.1"/>
			<path class="st0" d="M96.2,175.9h15.1c0-35.6,29-64.6,64.6-64.6V96.2C131.9,96.2,96.2,131.9,96.2,175.9z"/>
			<rect x="96.2" y="191.9" class="st0" width="15.1" height="16"/>
		</g>
	</g>
</g>
</svg>
