<?xml version="1.0" encoding="utf-8"?>
<!-- Generator: Adobe Illustrator 23.0.2, SVG Export Plug-In . SVG Version: 6.00 Build 0)  -->
<svg version="1.1" id="Capa_1" xmlns="http://www.w3.org/2000/svg" xmlns:xlink="http://www.w3.org/1999/xlink" x="0px" y="0px"
	 viewBox="0 0 512 512" style="enable-background:new 0 0 512 512;" xml:space="preserve">
<style type="text/css">
	.st0{fill:#D12027;}
</style>
<g>
	<g>
		<path class="st0" d="M407.1,377c-1.9-1.9-4.4-2.9-7.1-2.9s-5.2,1.1-7.1,2.9c-1.9,1.9-2.9,4.4-2.9,7.1c0,2.6,1.1,5.2,2.9,7.1
			c1.9,1.9,4.4,2.9,7.1,2.9s5.2-1.1,7.1-2.9c1.9-1.9,2.9-4.4,2.9-7.1S408.9,378.9,407.1,377z"/>
	</g>
</g>
<g>
	<g>
		<path class="st0" d="M472,0H40C17.9,0,0,17.9,0,40v314.1c0,22.1,17.9,40,40,40h157v50.2c-29.3,2.9-52.3,27.6-52.3,57.7
			c0,5.5,4.5,10,10,10h202.7c5.5,0,10-4.5,10-10c0-30.7-24.1-56-54.3-57.9v-50h46.7c5.5,0,10-4.5,10-10s-4.5-10-10-10H40
			c-11,0-20-9-20-20V40c0-11,9-20,20-20h432c11,0,20,9,20,20v314.1c0,11-9,20-20,20h-34.9c-5.5,0-10,4.5-10,10s4.5,10,10,10H472
			c22.1,0,40-17.9,40-40V40C512,17.9,494.1,0,472,0z M217,394.1h76V444h-76V394.1z M309.3,464c17.5,0,32.3,11.9,36.7,28H166
			c4.4-16.1,19.2-28,36.7-28H309.3z"/>
	</g>
</g>
<g>
	<g>
		<path class="st0" d="M262.1,345c-1.9-1.9-4.4-2.9-7.1-2.9s-5.2,1.1-7.1,2.9c-1.9,1.9-2.9,4.4-2.9,7.1s1.1,5.2,2.9,7.1
			c1.9,1.9,4.4,2.9,7.1,2.9s5.2-1.1,7.1-2.9c1.9-1.9,2.9-4.4,2.9-7.1S263.9,346.9,262.1,345z"/>
	</g>
</g>
<g>
	<g>
		<path class="st0" d="M248,160.4c-1.1-0.7-2.3-1.3-3.5-1.9c0.1-1.3,0.1-2.6,0.1-3.9c0-35.1-28.5-63.6-63.6-63.6
			c-35.1,0-63.6,28.5-63.6,63.6c0,1.3,0.1,2.6,0.1,3.9c-1.2,0.6-2.3,1.2-3.5,1.9c-30.4,17.5-40.8,56.5-23.3,86.8
			c8.5,14.7,22.2,25.2,38.6,29.6c5.5,1.5,11,2.2,16.6,2.2c11,0,21.9-2.9,31.7-8.5c1.1-0.7,2.3-1.4,3.3-2.1c1.1,0.7,2.2,1.4,3.3,2.1
			c9.8,5.7,20.7,8.5,31.7,8.5c5.5,0,11.1-0.7,16.6-2.2c16.4-4.4,30.1-14.9,38.6-29.6C288.8,216.9,278.4,177.9,248,160.4z M181.1,111
			c23.3,0,42.4,18.4,43.5,41.4c-15.2-2-30.7,1.6-43.5,10c-5.7-3.8-12-6.6-18.7-8.4c-8.2-2.2-16.6-2.7-24.8-1.6
			C138.7,129.4,157.8,111,181.1,111z M185.8,197.9c-1.6,0.2-3.1,0.3-4.8,0.3s-3.2-0.1-4.8-0.3c0.6-1.4,1.4-2.9,2.2-4.3
			c0.8-1.4,1.7-2.7,2.6-4c0.9,1.3,1.8,2.6,2.6,4C184.5,195.1,185.2,196.5,185.8,197.9z M134.7,257.5c-11.2-3-20.6-10.2-26.5-20.3
			c-11.7-20.2-5.3-45.9,14.1-58.4c5.9,14.2,16.8,25.8,30.4,32.6c-0.4,6.8,0.2,13.7,2.1,20.4c2.2,8.2,6,15.8,11,22.3
			C156.2,259.2,145.2,260.4,134.7,257.5z M161.2,183.7c-1.4,2.4-2.6,5-3.7,7.5c-7.1-4.6-12.8-11.2-16.3-19.1
			c1.6-0.2,3.1-0.3,4.7-0.3c3.8,0,7.6,0.5,11.3,1.5c3,0.8,5.9,1.9,8.6,3.3C164.2,178.9,162.6,181.2,161.2,183.7z M188,226.7
			c-1.4,5.3-3.8,10.2-7,14.5c-3.2-4.3-5.5-9.2-7-14.5c-0.8-3-1.3-6.1-1.4-9.1c2.7,0.4,5.5,0.6,8.4,0.6c2.8,0,5.6-0.2,8.4-0.6
			C189.3,220.7,188.9,223.7,188,226.7z M216.3,171.9c1.6,0,3.1,0.1,4.7,0.3c-3.5,7.8-9.1,14.4-16.2,19c-1.1-2.6-2.3-5.1-3.7-7.5
			c-1.4-2.4-3-4.8-4.7-7C202.5,173.6,209.4,171.9,216.3,171.9z M253.9,237.2c-5.8,10.1-15.2,17.3-26.5,20.3
			c-10.5,2.8-21.5,1.6-31.1-3.3c5-6.6,8.8-14.1,11-22.3c1.8-6.8,2.5-13.6,2.1-20.4c13.7-6.8,24.5-18.4,30.4-32.6
			C259.2,191.3,265.6,217.1,253.9,237.2z"/>
	</g>
</g>
<g>
	<g>
		<path class="st0" d="M422.6,175.1h-46.3v-1.4c0-5.5-4.5-10-10-10s-10,4.5-10,10v1.4H310c-5.5,0-10,4.5-10,10s4.5,10,10,10h46.3
			v1.4c0,5.5,4.5,10,10,10s10-4.5,10-10v-1.4h46.3c5.5,0,10-4.5,10-10C432.6,179.6,428.1,175.1,422.6,175.1z"/>
	</g>
</g>
<g>
	<g>
		<path class="st0" d="M422.6,111.1h-86.9v-1.4c0-5.5-4.5-10-10-10s-10,4.5-10,10v1.4H310c-5.5,0-10,4.5-10,10s4.5,10,10,10h5.7v1.4
			c0,5.5,4.5,10,10,10s10-4.5,10-10v-1.4h86.9c5.5,0,10-4.5,10-10C432.6,115.6,428.1,111.1,422.6,111.1z"/>
	</g>
</g>
<g>
	<g>
		<path class="st0" d="M422.6,239.1h-5.7v-1.4c0-5.5-4.5-10-10-10s-10,4.5-10,10v1.4H310c-5.5,0-10,4.5-10,10s4.5,10,10,10h86.9v1.4
			c0,5.5,4.5,10,10,10s10-4.5,10-10v-1.4h5.7c5.5,0,10-4.5,10-10S428.1,239.1,422.6,239.1z"/>
	</g>
</g>
<g>
	<g>
		<path class="st0" d="M462,40.1H50c-5.5,0-10,4.5-10,10v270c0,5.5,4.5,10,10,10h412c5.5,0,10-4.5,10-10v-270
			C472,44.6,467.5,40.1,462,40.1z M452,310.1H60v-250h392V310.1z"/>
	</g>
</g>
</svg>
