<?xml version="1.0" encoding="utf-8"?>
<!-- Generator: Adobe Illustrator 23.0.2, SVG Export Plug-In . SVG Version: 6.00 Build 0)  -->
<svg version="1.1" id="Capa_1" xmlns="http://www.w3.org/2000/svg" xmlns:xlink="http://www.w3.org/1999/xlink" x="0px" y="0px"
	 viewBox="0 0 512 512" style="enable-background:new 0 0 512 512;" xml:space="preserve">
<style type="text/css">
	.st0{fill:#D12027;}
</style>
<g>
	<g>
		<g>
			<path class="st0" d="M396.8,273.2l-55.4-70.5C361.1,182.5,373,156,375,128h85.7v9.4c-19.8,4.1-34.1,21.5-34.1,41.8
				c0,23.6,19.1,42.6,42.7,42.6c23.6,0,42.6-19.1,42.6-42.7c0-20.3-14.3-37.7-34.1-41.8v-17.9c0-4.7-3.8-8.5-8.5-8.5H375
				c-1.7-23.6-10.4-46.2-25-64.9l11.9-11.9h100.4c4.7,13.3,19.3,20.3,32.7,15.6c13.3-4.7,20.3-19.3,15.6-32.7
				c-4.7-13.3-19.3-20.3-32.7-15.6c-7.3,2.6-13,8.3-15.6,15.6H358.3c-2.3,0-4.4,0.9-6,2.5l-13.8,13.8
				c-47.4-45.7-122.8-44.2-168.5,3.2C150.6,56.7,139,83,137,110.9H65.4L37.5,48.2c12.5-6.6,17.3-22,10.7-34.4S26.2-3.5,13.7,3
				C1.3,9.6-3.5,25,3,37.5c3.4,6.6,9.6,11.3,16.8,13L52,122.9c1.4,3.1,4.4,5.1,7.8,5.1H137c2,27.8,13.6,54,32.9,74l-72,72
				c-46.6-7-90,25.1-96.9,71.7s25.1,90,71.7,96.9c1.4,0.2,2.8,0.4,4.2,0.5v43.1c0,4.7,3.8,8.5,8.5,8.5h78.3
				c4.7,13.3,19.3,20.3,32.7,15.6s20.3-19.3,15.6-32.7s-19.3-20.3-32.7-15.6c-7.3,2.6-13,8.3-15.6,15.6H93.9v-34.6
				c46.8-4.7,81-46.4,76.4-93.3c-3.2-31.7-23.7-59-53.3-70.8l65.7-65.7c42.8,33.7,103,33.9,146,0.6l47.3,60.2
				C310.6,283.3,265,343.7,274.2,409c9.1,65.3,69.5,110.9,134.8,101.8c65.3-9.1,110.9-69.5,101.8-134.8
				C502.8,318.6,454.7,275.3,396.8,273.2z M494.8,179.1c0,14.1-11.5,25.6-25.6,25.6c-14.1,0-25.6-11.5-25.6-25.6
				c0-14.1,11.5-25.6,25.6-25.6C483.4,153.5,494.8,165,494.8,179.1z M486.3,17.1c4.7,0,8.5,3.8,8.5,8.5s-3.8,8.5-8.5,8.5
				c-4.7,0-8.5-3.8-8.5-8.5S481.6,17.1,486.3,17.1z M25.7,34.1c-4.7,0-8.5-3.8-8.5-8.5s3.8-8.5,8.5-8.5s8.5,3.8,8.5,8.5
				S30.4,34.1,25.7,34.1z M187.8,477.7c4.7,0,8.5,3.8,8.5,8.5s-3.8,8.5-8.5,8.5c-4.7,0-8.5-3.8-8.5-8.5S183,477.7,187.8,477.7z
				 M119.5,417.3c-21.1,12.3-47.2,12.3-68.2,0v-16.4c0-18.8,15.3-34.1,34.1-34.1s34.1,15.3,34.1,34.1V417.3z M68.3,332.7
				c0-9.4,7.6-17.1,17.1-17.1s17.1,7.6,17.1,17.1s-7.6,17.1-17.1,17.1S68.3,342.1,68.3,332.7z M136.6,313
				c11,12.5,17.1,28.6,17.1,45.3c0,16.6-6.1,32.6-17.1,45v-2.3c0-18.6-10.2-35.8-26.5-44.8c13-13.6,12.5-35.2-1.1-48.2
				c-13.6-13-35.2-12.5-48.2,1.1c-12.6,13.2-12.6,33.9,0,47.1c-16.3,9-26.5,26.2-26.5,44.8v2.3c-24.9-28.3-22.2-71.4,6-96.3
				C68.5,282,111.6,284.7,136.6,313z M315.7,202.4c-35.6,25.9-83.8,25.9-119.4,0v-20.7c0-15.5,12.6-28.1,28.1-28.1h18.9L231,184.5
				c-1.3,3.2-0.5,6.8,1.9,9.2l17.1,17.1c3.3,3.3,8.7,3.3,12.1,0l17.1-17.1c2.4-2.4,3.2-6,1.9-9.2l-12.4-30.9h19
				c15.5,0,28.1,12.6,28.1,28.1L315.7,202.4L315.7,202.4z M257.2,63.9c-0.3,0.5-0.6,1.1-0.8,1.7c-4.3,12.9-27.6,17.8-42.6,19.3
				c2.3-28.6,15.7-42.2,42.2-42.2c24.2,0,37.5,11.4,41.3,35.3l-28.4-17.1C264.9,58.5,259.6,59.8,257.2,63.9z M267.7,80.1l30.5,18.3
				c-3.4,20.9-29.2,38.1-42.2,38.1c-19-3.2-34.8-16.4-41.5-34.6C229.1,100.7,255.5,96.3,267.7,80.1z M263,185.6l-7,7.1l-7-7.1
				l7-17.6L263,185.6z M293.2,136.9c13.3-10.5,21.5-26.1,22.5-43c0-56.4-32.5-68.2-59.7-68.2s-59.7,11.8-59.7,68.2
				c1,16.9,9.2,32.6,22.5,43.1c-22.6,2.8-39.6,22-39.6,44.8v5.2c-37.4-42.4-33.3-107.1,9.1-144.5s107.1-33.3,144.5,9.1
				c34.1,38.7,34.1,96.7,0,135.4v-5.2C332.8,158.9,315.8,139.7,293.2,136.9z M452.2,475.3c-35.6,25.9-83.8,25.9-119.4,0v-20.7
				c0-15.5,12.6-28.1,28.1-28.1h18.9l-12.4,30.9c-1.3,3.2-0.5,6.8,1.9,9.2l17.1,17.1c3.3,3.3,8.7,3.3,12.1,0l17.1-17.1
				c2.4-2.4,3.2-6,1.9-9.2l-12.4-30.9h19c15.5,0,28.1,12.6,28.1,28.1V475.3z M404.2,353.1L404.2,353.1l30.5,18.3
				c-3.4,20.9-29.2,38.1-42.2,38.1c-19-3.2-34.8-16.4-41.5-34.6C365.6,373.7,392,369.2,404.2,353.1z M350.3,357.8L350.3,357.8
				c2.3-28.6,15.7-42.2,42.2-42.2c24.2,0,37.5,11.4,41.3,35.3l-28.4-17.1c-4-2.4-9.3-1.1-11.7,2.9c-0.3,0.5-0.6,1.1-0.8,1.7
				C388.6,351.4,365.3,356.3,350.3,357.8z M399.5,458.6l-7,7.1l-7-7.1l7-17.6L399.5,458.6z M469.2,459.8v-5.2
				c0-22.8-16.9-42-39.6-44.8c13.3-10.5,21.5-26.1,22.5-43c0-56.4-32.5-68.2-59.7-68.2c-27.2,0-59.7,11.8-59.7,68.2
				c1,16.9,9.2,32.6,22.5,43.1c-22.6,2.8-39.6,22-39.6,44.8v5.2c-37.3-42.4-33.1-107.1,9.3-144.4c42.4-37.3,107.1-33.1,144.4,9.3
				c16.4,18.7,25.5,42.7,25.5,67.6C494.8,417.2,485.7,441.2,469.2,459.8z"/>
		</g>
	</g>
</g>
</svg>
