<?xml version="1.0" encoding="utf-8"?>
<!-- Generator: Adobe Illustrator 23.0.2, SVG Export Plug-In . SVG Version: 6.00 Build 0)  -->
<svg version="1.1" id="Layer_1" xmlns="http://www.w3.org/2000/svg" xmlns:xlink="http://www.w3.org/1999/xlink" x="0px" y="0px"
	 viewBox="0 0 496 496" style="enable-background:new 0 0 496 496;" xml:space="preserve">
<style type="text/css">
	.st0{fill:#D12027;}
</style>
<path class="st0" d="M432,48v176h64V48H432z M480,208h-32V64h32V208z M352,128.9c-5.1-4.6-10.5-8.9-16-12.8V112h-6
	c-31.2-20.6-68-32-106-32h-8v200h200v-8c0-16.3-2.2-32.3-6.2-48h6.2V80h-64V128.9z M232,264V96.2c22.6,1,44.7,6.5,65,15.8h-25v112
	h64v-87.5c5.6,4.6,11,9.5,16,14.9V224h41.2c3.7,13,6,26.4,6.6,40H232z M320,128v80h-32v-80H320z M368,96h32v112h-32V96z M62.3,310.3
	l68-68l11.3,11.3l-68,68L62.3,310.3z M96,248c0-13.2-10.8-24-24-24s-24,10.8-24,24s10.8,24,24,24S96,261.2,96,248z M64,248
	c0-4.4,3.6-8,8-8s8,3.6,8,8s-3.6,8-8,8S64,252.4,64,248z M136,288c-13.2,0-24,10.8-24,24s10.8,24,24,24s24-10.8,24-24
	S149.2,288,136,288z M136,320c-4.4,0-8-3.6-8-8s3.6-8,8-8s8,3.6,8,8S140.4,320,136,320z M350.9,411.5C372.5,379.7,384,342.7,384,304
	v-8H200V112h-8c-7.9,0-15.9,0.7-24,1.7V0H0v112h100.7l15.6,15.6C46.3,157.7,0,227,0,304c0,105.9,86.1,192,192,192
	c46.4,0,90.6-16.8,125.6-47.1l24.8,24.8c4.9,4.9,11.3,7.3,17.7,7.3s12.8-2.4,17.7-7.3c9.7-9.7,9.7-25.6,0-35.3L350.9,411.5
	L350.9,411.5z M107.3,96H16V16h136v124.7L107.3,96z M192,480c-97,0-176-79-176-176c0-72.7,45.1-138,112.6-164.1l39.4,39.4v-49.6
	c5.4-0.7,10.7-1.3,16-1.6V312h183.8c-1.4,31.6-11.2,61.7-28.5,88l-12.8-12.8c0.9-3.6,1.4-7.4,1.4-11.3c0-26.5-21.5-48-48-48
	s-48,21.5-48,48s21.5,48,48,48c3.9,0,7.7-0.5,11.3-1.4l15,15C274.4,464.9,234.2,480,192,480z M312,376c0,17.6-14.4,32-32,32
	s-32-14.4-32-32s14.4-32,32-32S312,358.4,312,376z M366.3,462.3c-3.5,3.5-9.2,3.5-12.7,0L307,415.7c5-3.4,9.3-7.7,12.7-12.7
	l46.7,46.7C369.8,453.2,369.8,458.8,366.3,462.3z M32,32h104v16H32V32z M32,64h104v16H32V64z M272,368h16v16h-16V368z M200,368h16
	v16h-16V368z M168,368h16v16h-16V368z M136,368h16v16h-16V368z"/>
</svg>
