<?xml version="1.0" encoding="utf-8"?>
<!-- Generator: Adobe Illustrator 23.0.2, SVG Export Plug-In . SVG Version: 6.00 Build 0)  -->
<svg version="1.1" id="Capa_1" xmlns="http://www.w3.org/2000/svg" xmlns:xlink="http://www.w3.org/1999/xlink" x="0px" y="0px"
	 viewBox="0 0 512 512" style="enable-background:new 0 0 512 512;" xml:space="preserve">
<style type="text/css">
	.st0{fill:#D12027;}
</style>
<g>
	<g>
		<path class="st0" d="M509,185.8l-29-21.5V39.6c0-4.2-3.4-7.5-7.5-7.5h-171c-0.3-0.3-41-30.6-41-30.6c-2.7-2-6.3-2-9,0l-41.2,30.6
			H39.6c-4.2,0-7.5,3.4-7.5,7.5v124.7L3,185.8c-1.9,1.4-3,3.7-3,6v312.6c0,4.1,3.4,7.5,7.5,7.5h497c3.8,0,7-2.9,7.5-6.7
			c0-0.3,0-0.6,0-0.8V191.9C512,189.5,510.8,187.3,509,185.8z M479.9,183l11.2,8.3l-11.2,7.1V183z M256,16.9l20.5,15.2h-40.9
			L256,16.9z M47.1,47.1h417.8v160.8l-26.3,16.5h-72.9c-4.2,0-7.5,3.4-7.5,7.5s3.4,7.5,7.5,7.5h49L256,339.3L97.3,239.5h232.4
			c4.2,0,7.5-3.4,7.5-7.5s-3.4-7.5-7.5-7.5H73.4L47.1,208C47.1,207.9,47.1,47.1,47.1,47.1z M32.1,183v15.4l-11.2-7.1L32.1,183z
			 M15,497V205.5L478.4,497H15L15,497z M497,490.9L270.1,348.2L497,205.5V490.9z"/>
	</g>
</g>
<g>
	<g>
		<path class="st0" d="M416.3,88.2h-64.1c-4.2,0-7.5,3.4-7.5,7.5v80.2c0,4.1,3.4,7.5,7.5,7.5h64.1c4.2,0,7.5-3.4,7.5-7.5V95.7
			C423.8,91.5,420.5,88.2,416.3,88.2z M408.8,168.3h-49.1v-65.1h49.1V168.3z"/>
	</g>
</g>
<g>
	<g>
		<path class="st0" d="M320.1,88.2H95.7c-4.2,0-7.5,3.4-7.5,7.5s3.4,7.5,7.5,7.5h224.4c4.2,0,7.5-3.4,7.5-7.5S324.3,88.2,320.1,88.2
			z"/>
	</g>
</g>
<g>
	<g>
		<path class="st0" d="M216.4,128.3H95.7c-4.2,0-7.5,3.4-7.5,7.5s3.4,7.5,7.5,7.5h120.7c4.1,0,7.5-3.4,7.5-7.5
			C223.9,131.6,220.6,128.3,216.4,128.3z"/>
	</g>
</g>
<g>
	<g>
		<path class="st0" d="M320.1,128.3H248c-4.1,0-7.5,3.4-7.5,7.5s3.4,7.5,7.5,7.5h72.1c4.2,0,7.5-3.4,7.5-7.5
			C327.6,131.6,324.3,128.3,320.1,128.3z"/>
	</g>
</g>
<g>
	<g>
		<path class="st0" d="M256.5,168.3H95.7c-4.2,0-7.5,3.4-7.5,7.5s3.4,7.5,7.5,7.5h160.8c4.2,0,7.5-3.4,7.5-7.5
			S260.7,168.3,256.5,168.3z"/>
	</g>
</g>
<g>
	<g>
		<path class="st0" d="M320.1,168.3H288c-4.2,0-7.5,3.4-7.5,7.5s3.4,7.5,7.5,7.5h32.1c4.2,0,7.5-3.4,7.5-7.5
			S324.3,168.3,320.1,168.3z"/>
	</g>
</g>
<g>
	<g>
		<path class="st0" d="M336.2,256.5h-40.1c-4.2,0-7.5,3.4-7.5,7.5s3.4,7.5,7.5,7.5h40.1c4.2,0,7.5-3.4,7.5-7.5
			S340.3,256.5,336.2,256.5z"/>
	</g>
</g>
<g>
	<g>
		<path class="st0" d="M264,256.5h-88.2c-4.1,0-7.5,3.4-7.5,7.5s3.4,7.5,7.5,7.5H264c4.2,0,7.5-3.4,7.5-7.5S268.2,256.5,264,256.5z"
			/>
	</g>
</g>
<g>
	<g>
		<path class="st0" d="M248,296.6h-32.1c-4.1,0-7.5,3.4-7.5,7.5s3.4,7.5,7.5,7.5H248c4.1,0,7.5-3.4,7.5-7.5S252.1,296.6,248,296.6z"
			/>
	</g>
</g>
<g>
	<g>
		<path class="st0" d="M288.1,296.6h-16c-4.2,0-7.5,3.4-7.5,7.5s3.4,7.5,7.5,7.5h16c4.2,0,7.5-3.4,7.5-7.5S292.2,296.6,288.1,296.6z
			"/>
	</g>
</g>
</svg>
