<?xml version="1.0" encoding="utf-8"?>
<!-- Generator: Adobe Illustrator 23.0.2, SVG Export Plug-In . SVG Version: 6.00 Build 0)  -->
<svg version="1.1" id="Layer_1" xmlns="http://www.w3.org/2000/svg" xmlns:xlink="http://www.w3.org/1999/xlink" x="0px" y="0px"
	 viewBox="0 0 488 488" style="enable-background:new 0 0 488 488;" xml:space="preserve">
<style type="text/css">
	.st0{fill:#D12027;}
</style>
<path class="st0" d="M207.7,17.7l8.6,13.5c31.6-19.8,71.7-19.8,103.3,0l8.6-13.5C291.5-5.9,244.4-5.9,207.7,17.7L207.7,17.7z
	 M172,112h-16c0,14.8,2.9,29.5,8.6,43.1l14.8-6.2C174.5,137.2,172,124.7,172,112z M304.9,200.6c-11.7,4.9-24.2,7.4-36.9,7.4v16
	c14.8,0,29.4-2.9,43.1-8.6L304.9,200.6L304.9,200.6z M364,112c0,12.7-2.5,25.2-7.4,36.9l14.8,6.2c5.7-13.6,8.6-28.3,8.6-43.1H364z
	 M268,32c-44.2,0-80,35.8-80,80s35.8,80,80,80c44.2-0.1,80-35.8,80-80C348,67.8,312.2,32,268,32z M268,176c-35.3,0-64-28.7-64-64
	s28.7-64,64-64s64,28.7,64,64C332,147.3,303.3,176,268,176z M285.6,109.4l-9.6-3.2V85.7c4.5,1.6,7.6,5.6,8,10.3h16
	c-0.7-13.5-10.7-24.7-24-27v-5h-16v5c-13.3,2.3-23.3,13.5-24,27c0.3,8.6,6.1,16.1,14.4,18.6l9.6,3.2v20.5c-4.5-1.6-7.6-5.6-8-10.3
	h-16c0.7,13.5,10.7,24.7,24,27v5h16v-5c13.3-2.3,23.3-13.5,24-27C299.7,119.4,293.9,111.9,285.6,109.4z M260,100.9l-4.6-1.5
	c-2-0.7-3.4-2.1-3.4-3.4c0.4-4.7,3.5-8.7,8-10.3C260,85.7,260,100.9,260,100.9z M276,138.3v-15.2l4.6,1.5c2,0.7,3.4,2.1,3.4,3.4
	C283.6,132.7,280.5,136.7,276,138.3L276,138.3z M481.7,330.3L455.3,304l26.3-26.3c3.1-3.1,3.1-8.2,0-11.3l-104-104
	c-3.1-3.1-8.2-3.1-11.3,0L264,264.7L153.7,154.3c-3.1-3.1-8.2-3.1-11.3,0l-104,104c-3.1,3.1-3.1,8.2,0,11.3L96.7,328H4v16h104
	c1.1,0,2.2-0.2,3.2-0.6l54.5-23.4H284v32h-88c-4.4,0-8,3.6-8,8c0,3.1,1.8,6,4.6,7.3l104,48c2.6,1.2,5.7,0.9,8-0.8l138.6-100
	l21.1,21.1L305,472h-43.6l-150.7-55.5c-0.9-0.3-1.8-0.5-2.8-0.5H4v16h102.6l150.7,55.5c0.9,0.3,1.8,0.5,2.8,0.5h48
	c1.9,0,3.8-0.7,5.2-1.9l168-144c3.4-2.9,3.7-7.9,0.9-11.3L481.7,330.3L481.7,330.3z M164,304c-1.1,0-2.2,0.2-3.2,0.6l-1.9,0.8
	c7.9-20.5,30.9-30.7,51.4-22.8c10,3.8,18,11.5,22.2,21.4H164z M249.6,304c-7-23.8-28.9-40.1-53.6-40c-28.3,0.2-52.1,21.3-55.6,49.4
	l-25,10.7L55.3,264l92.7-92.7L280.7,304H249.6L249.6,304z M299.1,398.8L232.4,368H292c4.4,0,8-3.6,8-8v-36.7l43.4,43.4L299.1,398.8z
	 M300.7,301.4c3-17.1,17.9-29.5,35.2-29.4c19.8,0,36,16,36,35.9c0,17.4-12.4,32.3-29.4,35.4L300.7,301.4z M355.5,356.2
	c3.2-1.3,6.3-2.9,9.2-4.8l-8.1,5.9L355.5,356.2L355.5,356.2z M438.8,297.9l-70.5,50.9c22.5-17.9,26.2-50.6,8.3-73.1
	s-50.6-26.2-73.1-8.3c-7,5.5-12.4,12.8-15.7,21L275.3,276l96.7-96.7l92.7,92.7L438.8,297.9L438.8,297.9z"/>
</svg>
