<?xml version="1.0" encoding="utf-8"?>
<!-- Generator: Adobe Illustrator 23.0.2, SVG Export Plug-In . SVG Version: 6.00 Build 0)  -->
<svg version="1.1" id="Capa_1" xmlns="http://www.w3.org/2000/svg" xmlns:xlink="http://www.w3.org/1999/xlink" x="0px" y="0px"
	 viewBox="0 0 512 512" style="enable-background:new 0 0 512 512;" xml:space="preserve">
<style type="text/css">
	.st0{fill:#D12027;}
</style>
<g>
	<g>
		<path class="st0" d="M391.4,219.5c0-0.1,0-0.2,0-0.3c-0.1-0.5-0.2-0.9-0.3-1.4c0,0,0,0,0,0c-0.1-0.4-0.3-0.9-0.4-1.3
			c0-0.1-0.1-0.2-0.2-0.4c-0.1-0.3-0.3-0.6-0.4-0.9c-0.1-0.1-0.1-0.3-0.2-0.4c0-0.1-0.1-0.1-0.1-0.2c-0.2-0.3-0.4-0.5-0.5-0.8
			c0,0-0.1-0.1-0.1-0.1c-0.3-0.4-0.6-0.7-0.9-1.1c-0.1-0.1-0.1-0.1-0.2-0.2c-0.3-0.3-0.6-0.5-0.9-0.8c-0.1-0.1-0.2-0.1-0.2-0.2
			c-0.4-0.3-0.8-0.6-1.3-0.8l-170.7-97l98.3-61.9l164.7,93.6l-69.4,43.7c-5.4,3.4-7,10.6-3.6,16c3.4,5.4,10.6,7,16,3.6l85.7-54
			c3.4-2.2,5.5-6,5.4-10.1c-0.1-4.1-2.3-7.8-5.9-9.8L318.6,28.3c-3.7-2.1-8.3-2-11.9,0.3l-120.4,75.8c0,0,0,0-0.1,0L126,142.3
			c0,0-0.1,0-0.1,0.1L5.4,218.2c-3.4,2.2-5.5,6-5.4,10.1c0.1,4.1,2.3,7.8,5.9,9.8l187.6,106.6c1.8,1,3.8,1.5,5.7,1.5
			c2.1,0,4.3-0.6,6.2-1.8l85.7-54c5.4-3.4,7-10.6,3.6-16c-3.4-5.4-10.6-7-16-3.6l-79.9,50.3L34.1,227.5l98.3-61.9l175.7,99.9v132.3
			c0,4.2,2.3,8.1,6,10.1c1.7,1,3.7,1.4,5.6,1.4c2.1,0,4.3-0.6,6.2-1.8l60.3-37.9c3.4-2.1,5.4-5.8,5.4-9.8v-139c0-0.1,0-0.1,0-0.2
			C391.5,220.3,391.5,219.9,391.4,219.5z M331.2,376.8v-118c0-4.2-2.2-8-5.9-10.1l-170.8-97.1l38-23.9l164.7,93.6l-14.4,9.1
			c-5.4,3.4-7,10.6-3.6,16c2.2,3.5,6,5.4,9.8,5.4c2.1,0,4.2-0.6,6.2-1.8l13-8.2v111.6L331.2,376.8z"/>
		<path class="st0" d="M494.2,181.5l-85.7,54c-5.4,3.4-7,10.6-3.6,16c2.2,3.5,6,5.4,9.8,5.4c2.1,0,4.2-0.6,6.2-1.8l85.7-54
			c5.4-3.4,7-10.6,3.6-16C506.8,179.7,499.7,178.1,494.2,181.5z"/>
		<path class="st0" d="M278.7,317.2l-79.9,50.3L17.3,264.3c-5.6-3.2-12.6-1.2-15.8,4.3c-3.2,5.6-1.2,12.6,4.3,15.8l187.6,106.6
			c1.8,1,3.8,1.5,5.7,1.5c2.1,0,4.3-0.6,6.2-1.8l85.7-54c5.4-3.4,7-10.6,3.6-16C291.3,315.4,284.2,313.8,278.7,317.2z"/>
		<path class="st0" d="M494.2,227.8l-85.7,54c-5.4,3.4-7,10.6-3.6,16c2.2,3.5,6,5.4,9.8,5.4c2.1,0,4.2-0.6,6.2-1.8l85.7-54
			c5.4-3.4,7-10.6,3.6-16C506.8,226,499.7,224.4,494.2,227.8z"/>
		<path class="st0" d="M278.7,363.5l-79.9,50.3L17.3,310.6c-5.6-3.2-12.6-1.2-15.8,4.3c-3.2,5.6-1.2,12.6,4.3,15.8l187.6,106.6
			c1.8,1,3.8,1.5,5.7,1.5c2.1,0,4.3-0.6,6.2-1.8l85.7-54c5.4-3.4,7-10.6,3.6-16C291.3,361.7,284.2,360.1,278.7,363.5z"/>
		<path class="st0" d="M494.2,274.2l-85.7,54c-5.4,3.4-7,10.6-3.6,16c2.2,3.5,6,5.4,9.8,5.4c2.1,0,4.2-0.6,6.2-1.8l85.7-54
			c5.4-3.4,7-10.6,3.6-16C506.8,272.4,499.7,270.8,494.2,274.2z"/>
		<path class="st0" d="M278.7,409.9l-79.9,50.3L17.3,357c-5.6-3.2-12.6-1.2-15.8,4.3c-3.2,5.6-1.2,12.6,4.3,15.8l187.6,106.6
			c1.8,1,3.8,1.5,5.7,1.5c2.1,0,4.3-0.6,6.2-1.8l85.7-54c5.4-3.4,7-10.6,3.6-16C291.3,408.1,284.2,406.5,278.7,409.9z"/>
	</g>
</g>
</svg>
