<?xml version="1.0" encoding="utf-8"?>
<!-- Generator: Adobe Illustrator 23.0.2, SVG Export Plug-In . SVG Version: 6.00 Build 0)  -->
<svg version="1.1" id="Layer_1" xmlns="http://www.w3.org/2000/svg" xmlns:xlink="http://www.w3.org/1999/xlink" x="0px" y="0px"
	 viewBox="0 0 662 662" style="enable-background:new 0 0 662 662;" xml:space="preserve">
<style type="text/css">
	.st0{fill:#D12027;}
</style>
<path class="st0" d="M510.5,178.7l-491,287l54,191.1l287-167.8L317.3,662h326.3l-48-192.2H393.5L647,321.6L510.5,178.7z
	 M387.5,640.6l27.8-106.8h130.3l27.8,106.8H387.5z M616.3,640.6h-20.8l-33.3-128.1H398.8l-33.3,128.1h-20.8L382,491.2h196.9
	L616.3,640.6z M61,533.9l371.5-217.1l-10.8-18.4L55,512.6l-10.4-36.8l462.2-270.1l26.3,27.6l-78.9,46.1l10.8,18.4l83.3-48.7
	l64.7,67.7L86.6,624.5L61,533.9z M277.6,117.5v10.7H299v-10.7c0-23.6,19.2-42.7,42.7-42.7V53.4c-23.6,0-42.7-19.2-42.7-42.7V0h-21.4
	v10.7c0,23.6-19.2,42.7-42.7,42.7v21.4C258.5,74.7,277.6,93.9,277.6,117.5z M288.3,46c4.8,7.2,10.9,13.3,18,18
	c-7.2,4.8-13.3,10.9-18,18c-4.8-7.2-10.9-13.3-18-18C277.4,59.3,283.5,53.2,288.3,46z M42.7,331v10.7h21.4V331
	c0-23.6,19.2-42.7,42.7-42.7v-21.4c-23.6,0-42.7-19.2-42.7-42.7v-10.7H42.7v10.7c0,23.6-19.2,42.7-42.7,42.7v21.4
	C23.6,288.3,42.7,307.4,42.7,331z M53.4,259.6c4.8,7.2,10.9,13.3,18,18c-7.2,4.8-13.3,10.9-18,18c-4.8-7.2-10.9-13.3-18-18
	C42.5,272.9,48.6,266.7,53.4,259.6z M619.3,64.1V53.4h-21.4v10.7c0,23.6-19.2,42.7-42.7,42.7v21.4c23.6,0,42.7,19.2,42.7,42.7v10.7
	h21.4v-10.7c0-23.6,19.2-42.7,42.7-42.7v-21.4C638.4,106.8,619.3,87.6,619.3,64.1z M608.6,135.5c-4.8-7.2-10.9-13.3-18-18
	c7.2-4.8,13.3-10.9,18-18c4.8,7.2,10.9,13.3,18,18C619.5,122.2,613.4,128.3,608.6,135.5L608.6,135.5z"/>
</svg>
