<?xml version="1.0" encoding="utf-8"?>
<!-- Generator: Adobe Illustrator 23.0.2, SVG Export Plug-In . SVG Version: 6.00 Build 0)  -->
<svg version="1.1" id="Layer_1" xmlns="http://www.w3.org/2000/svg" xmlns:xlink="http://www.w3.org/1999/xlink" x="0px" y="0px"
	 viewBox="0 0 2846 4790" style="enable-background:new 0 0 2846 4790;" xml:space="preserve">
<style type="text/css">
	.st0{display:none;}
	.st1{display:inline;fill:#035A6E;}
	.st2{fill:#FFFFFF;}
	.st3{fill:#D12027;}
	.st4{opacity:0.22;enable-background:new    ;}
	.st5{fill:#A0BD03;}
	.st6{fill:#C8E700;}
	.st7{fill:#B24718;}
	.st8{fill:#22272B;}
	.st9{fill:#4E5255;}
	.st10{fill:#A83900;}
	.st11{fill:#541D00;}
	.st12{fill:#FBCA47;}
	.st13{fill:#F4AA10;}
	.st14{fill:#E7930F;}
</style>
<g class="st0">
	<rect x="-1242" y="-210" class="st1" width="5000" height="5000"/>
</g>
<g>
	<path class="st2" d="M1528.8,2606.7l0.1-17.3l8.9,0l0.2-58.5l33.2,0v-5.6h5.5c13.5,0,15.7-21.7,16-31l0-10h0l0-67.7
		c-0.2-0.3-0.4-0.7-0.5-1c-0.1-0.1-0.1-0.3-0.2-0.4l-2.5-2c-9.9-5-18.8-12.6-26.6-22.5c-3.5-1.1-6.8-2.4-10-3.8
		c-67.8-29-69.2-107-69.2-107.8c0-10.4,8.2-15.1,12.5-16.2l0.4-0.1l28.8,0c-0.1-1.9-0.2-3.8-0.3-5.7c-4.7-1.8-8-6.4-8-11.6v-12.4
		c0-3.3,1.3-6.4,3.7-8.8c2.4-2.4,5.5-3.7,8.8-3.7l152.9,0l0,0c3.3,0,6.4,1.3,8.8,3.6c2.4,2.4,3.7,5.5,3.7,8.8v12.4
		c0,5.2-3.3,9.8-8,11.6c-0.1,1.9-0.2,3.8-0.3,5.7l31.1,0l0.4,0.1c4.3,1.1,12.5,5.8,12.5,16.2c0,0.9-0.3,20.9-9.5,44.6
		c-8.6,21.9-26.7,51.1-64.8,65.3c-2.4,0.9-5.1,1.8-7.9,2.6c-7.6,9.5-16.3,16.7-25.8,21.6l-2.3,1.9l-2-2.3l2,2.3
		c-0.2,0.1-0.3,0.4-0.5,0.6c-0.2,0.2-0.3,0.4-0.5,0.6l0,78.1c0.5,9.2,2.9,31,16,31h5.8v5.6l33.1,0l0.3,58.5h8.8l0,17.3
		L1528.8,2606.7z M1534.9,2595.5l0,5.1l142.6,0v-5.1h-8.8l-0.3-58.5l-33.1,0v-5.6c-12.9-0.2-20.7-13.3-21.9-36.9l0-81.4l1.4-0.9
		c0.1-0.1,0.3-0.4,0.5-0.6c0.3-0.4,0.7-0.8,1.2-1.2l2.8-2.4l0.3-0.2c9.1-4.6,17.4-11.6,24.7-20.8l0.6-0.8l0.9-0.3
		c3-0.9,5.8-1.8,8.4-2.8c68.8-25.8,70.3-103.5,70.3-104.2c0-7.3-6.1-9.7-7.6-10.1l-36.8,0l0.2-3.2c0.3-3.8,0.4-7.5,0.6-11l0.1-2.5
		l2.5-0.4c3.1-0.5,5.4-3.2,5.4-6.3v-12.4c0-1.7-0.7-3.3-1.9-4.5c-1.2-1.2-2.8-1.9-4.5-1.9l0,0l-152.9,0c-1.7,0-3.3,0.7-4.5,1.9
		c-1.2,1.2-1.9,2.8-1.9,4.5v12.4c0,3.1,2.3,5.8,5.4,6.3l2.5,0.4l0.1,2.5c0.1,3.6,0.3,7.3,0.6,11l0.2,3.2l-34.5,0
		c-1.6,0.5-7.6,2.9-7.6,10.2c0,0.7,1.5,74.8,65.5,102.2c3.3,1.4,6.7,2.7,10.3,3.8l0.9,0.3l0.6,0.8c7.4,9.7,16,17,25.4,21.7l0.5,0.4
		l3,2.4c0.8,0.6,1.2,1.4,1.6,2.2c0.1,0.1,0.1,0.3,0.2,0.4l1,0.6l0,76.5h0l0,4c-0.8,23.6-8.5,36.6-21.5,37v5.6l-33.2,0l-0.2,58.5
		L1534.9,2595.5z M1653.4,2373.6l3.6-7.2c13.9-28,19.8-62.7,22.2-86.9l0.3-2.7l22.8,0l0.1,0c4.7,0.3,8.2,1.9,10.4,4.7
		c3,3.8,2.4,8.2,2.3,8.7c-6.4,45.4-28.3,66.4-45.5,76.1c-2.8,1.6-5.7,3-8.7,4.2L1653.4,2373.6z M1685,2282.9
		c-2.4,22.3-7.7,52.3-19,78.5c0.2-0.1,0.4-0.2,0.6-0.3c16-9,36.4-28.7,42.5-71.7c0-0.1,0.3-2.4-1.1-4.1c-1.1-1.4-3.1-2.2-5.9-2.4
		L1685,2282.9z M1558.3,2372.8l-7.7-3.5c-3.8-1.7-7.4-3.8-10.8-6l0,0c-22-14.7-35.6-39.2-40.4-73c-0.1-0.4-0.7-4.9,2.3-8.7
		c2.2-2.8,5.7-4.4,10.4-4.7l0.2,0h20.4l0.3,2.7c2.4,23.7,8.2,57.8,21.7,85.6L1558.3,2372.8z M1512.4,2283c-2.8,0.2-4.8,1-5.9,2.4
		c-1.4,1.7-1.1,4-1.1,4c4.6,32,17.3,55.1,37.8,68.8l0,0c0.8,0.5,1.5,1,2.3,1.5c-10.8-25.8-15.9-55-18.3-76.7L1512.4,2283z"/>
	<g>
		<path class="st3" d="M893.5,2492.3c-8.5,0-17-3.6-22.8-10.5c-0.5-0.6-1-1.2-1.5-1.9l-155.4-215.5c-0.2-0.3-0.4-0.6-0.6-0.8
			c-9-13.4-5.8-31.4,7.3-40.8l468.7-338c13.1-9.5,31.2-6.9,41.1,5.9c0.2,0.3,0.4,0.5,0.6,0.8l155.4,215.5c0.4,0.6,0.9,1.3,1.3,2
			c8,13.2,4.5,30.6-8.1,39.7l-468.7,338C905.7,2490.4,899.6,2492.3,893.5,2492.3z M1206.8,1884.4c-5,0-10,1.5-14.4,4.7l-468.7,338
			c-10.8,7.8-13.4,22.5-6,33.6c0.2,0.2,0.3,0.5,0.5,0.7l155.4,215.4c0.4,0.5,0.8,1,1.2,1.5c8.2,9.7,22.7,11.4,33,4l468.7-338
			c10.3-7.4,13.2-21.8,6.6-32.6c-0.3-0.6-0.7-1.1-1.1-1.6l-155.4-215.5c-0.2-0.2-0.3-0.4-0.5-0.7
			C1221.3,1887.7,1214.1,1884.4,1206.8,1884.4z"/>
		<path class="st3" d="M893.6,2492.3c-0.2,0-0.4,0-0.7,0c-0.2,0-0.5,0-0.7,0c-0.2,0-0.5,0-0.7,0c-0.2,0-0.4,0-0.7-0.1
			c-0.2,0-0.5-0.1-0.7-0.1c-0.2,0-0.4-0.1-0.7-0.1c-0.2,0-0.5-0.1-0.7-0.1c-0.2,0-0.4-0.1-0.6-0.1c-0.2,0-0.5-0.1-0.7-0.1
			c-0.2,0-0.4-0.1-0.7-0.1c-0.2-0.1-0.5-0.1-0.7-0.2c-0.2-0.1-0.4-0.1-0.6-0.2c-0.2-0.1-0.5-0.1-0.7-0.2c-0.2-0.1-0.4-0.1-0.6-0.2
			c-0.2-0.1-0.5-0.1-0.7-0.2c-0.2-0.1-0.4-0.1-0.6-0.2c-0.2-0.1-0.5-0.2-0.7-0.3c-0.2-0.1-0.4-0.2-0.6-0.3c-0.3-0.1-0.5-0.2-0.7-0.3
			c-0.2-0.1-0.4-0.2-0.6-0.3s-0.4-0.2-0.6-0.3s-0.4-0.2-0.6-0.3c-0.2-0.1-0.4-0.2-0.6-0.3c-0.2-0.1-0.4-0.2-0.6-0.3l-0.1-0.1
			c-0.2-0.1-0.3-0.2-0.5-0.3c-0.2-0.1-0.4-0.3-0.6-0.4l-0.1-0.1c-0.2-0.1-0.3-0.2-0.5-0.3c-0.2-0.1-0.4-0.3-0.6-0.4l-0.2-0.1
			c-0.1-0.1-0.2-0.2-0.3-0.3c-0.2-0.2-0.5-0.4-0.7-0.6l-0.1-0.1c-0.1-0.1-0.2-0.2-0.3-0.3c-0.2-0.2-0.5-0.4-0.7-0.6l-0.1-0.1
			c-0.1-0.1-0.2-0.2-0.3-0.2c-0.3-0.2-0.5-0.5-0.7-0.8l-0.1-0.1c-0.1-0.1-0.1-0.1-0.2-0.2c-0.3-0.3-0.5-0.6-0.8-0.9l-0.2-0.3
			c-0.3-0.3-0.5-0.7-0.8-1l-0.1-0.1c-0.2-0.2-0.4-0.5-0.6-0.8l-155.4-215.5c-0.2-0.3-0.4-0.6-0.6-0.8c-9-13.4-5.8-31.4,7.3-40.8
			l468.7-338c13.1-9.5,31.2-6.9,41.1,5.9c0.2,0.3,0.4,0.5,0.6,0.8l155.4,215.5c0.2,0.3,0.4,0.6,0.6,0.8c0.3,0.4,0.5,0.8,0.7,1.1
			l0.1,0.1l0-0.1l0.1,0.2c0.2,0.4,0.4,0.7,0.6,1.1l0.2,0.3c0.2,0.3,0.3,0.6,0.5,0.9c0.1,0.1,0.1,0.2,0.2,0.3l0.1,0.1
			c0.1,0.3,0.3,0.6,0.4,0.9c0.1,0.1,0.1,0.2,0.1,0.3l0.1,0.2c0.1,0.3,0.2,0.5,0.3,0.8c0.1,0.1,0.1,0.3,0.1,0.4l0.1,0.1
			c0.1,0.3,0.2,0.5,0.3,0.8c0,0.1,0.1,0.3,0.1,0.4l0.1,0.3c0.1,0.2,0.1,0.4,0.2,0.6c0,0.2,0.1,0.3,0.1,0.5l0,0.1
			c0.1,0.3,0.1,0.5,0.2,0.8c0,0.2,0.1,0.4,0.1,0.6l0,0.1c0.1,0.3,0.1,0.5,0.1,0.7c0,0.2,0.1,0.4,0.1,0.6c0,0.3,0.1,0.6,0.1,0.8
			c0,0.2,0.1,0.4,0.1,0.7c0,0.2,0,0.5,0.1,0.7c0,0.2,0,0.4,0,0.7c0,0.2,0,0.5,0,0.7c0,0.2,0,0.5,0,0.7s0,0.5,0,0.7
			c0,0.2,0,0.4,0,0.7c0,0.2,0,0.5,0,0.7c0,0.2,0,0.5-0.1,0.7c0,0.2-0.1,0.4-0.1,0.7c0,0.2-0.1,0.5-0.1,0.7c0,0.2-0.1,0.4-0.1,0.7
			c0,0.2-0.1,0.5-0.1,0.7s-0.1,0.4-0.1,0.7c-0.1,0.2-0.1,0.4-0.2,0.7c-0.1,0.2-0.1,0.4-0.2,0.7s-0.1,0.4-0.2,0.7
			c-0.1,0.2-0.1,0.4-0.2,0.6c-0.1,0.2-0.1,0.4-0.2,0.7c-0.1,0.2-0.2,0.4-0.2,0.6s-0.2,0.4-0.2,0.6c-0.1,0.2-0.2,0.4-0.3,0.6l0,0.1
			c-0.1,0.2-0.2,0.4-0.2,0.6c-0.1,0.2-0.2,0.4-0.3,0.7c-0.1,0.2-0.2,0.4-0.3,0.6c-0.1,0.2-0.2,0.4-0.3,0.5l-0.1,0.3
			c-0.1,0.1-0.2,0.3-0.2,0.4c-0.1,0.2-0.3,0.4-0.4,0.6l-0.1,0.1c-0.1,0.2-0.2,0.3-0.3,0.5c-0.1,0.2-0.3,0.4-0.4,0.6l-0.1,0.1
			c-0.1,0.1-0.2,0.3-0.3,0.4c-0.1,0.2-0.3,0.4-0.4,0.5l-0.2,0.2c-0.1,0.1-0.2,0.3-0.3,0.4c-0.1,0.2-0.3,0.3-0.4,0.5l-0.2,0.3
			c-0.1,0.1-0.2,0.3-0.3,0.4c-0.1,0.2-0.3,0.3-0.4,0.5l-0.2,0.2c-0.1,0.1-0.2,0.2-0.3,0.4c-0.2,0.2-0.3,0.3-0.5,0.5l-0.2,0.2
			c-0.1,0.1-0.2,0.2-0.3,0.3c-0.2,0.1-0.3,0.3-0.5,0.4l-0.3,0.3c-0.1,0.1-0.2,0.2-0.3,0.3c-0.2,0.2-0.4,0.4-0.6,0.5l-0.2,0.2
			c-0.1,0.1-0.2,0.2-0.3,0.2c-0.4,0.3-0.8,0.6-1.2,0.9l-468.7,338c-0.4,0.3-0.8,0.6-1.2,0.8c-0.1,0.1-0.2,0.1-0.3,0.2l-0.2,0.1
			c-0.2,0.1-0.5,0.3-0.7,0.4c-0.1,0.1-0.3,0.1-0.4,0.2l-0.3,0.2c-0.2,0.1-0.4,0.2-0.6,0.3c-0.1,0.1-0.3,0.1-0.4,0.2l-0.3,0.1
			c-0.2,0.1-0.4,0.2-0.6,0.3c-0.2,0.1-0.3,0.1-0.4,0.2l-0.3,0.1c-0.2,0.1-0.4,0.2-0.6,0.3c-0.2,0.1-0.3,0.1-0.5,0.2l-0.3,0.1
			c-0.2,0.1-0.4,0.1-0.6,0.2c-0.2,0.1-0.3,0.1-0.5,0.2l-0.2,0.1c-0.2,0.1-0.4,0.1-0.6,0.2c-0.2,0.1-0.3,0.1-0.5,0.1l-0.3,0.1
			c-0.2,0.1-0.4,0.1-0.6,0.1c-0.2,0-0.3,0.1-0.5,0.1l-0.3,0.1c-0.2,0-0.4,0.1-0.6,0.1c-0.2,0.1-0.5,0.1-0.7,0.1l-0.1,0
			c-0.2,0-0.4,0.1-0.6,0.1c-0.2,0-0.4,0.1-0.7,0.1c-0.3,0-0.5,0.1-0.7,0.1c-0.2,0-0.4,0-0.6,0.1l-0.1,0c-0.3,0-0.5,0-0.7,0.1
			c-0.2,0-0.5,0-0.7,0C894.1,2492.3,893.9,2492.3,893.6,2492.3C893.6,2492.3,893.6,2492.3,893.6,2492.3z M874,2477.4L874,2477.4
			c0.3,0.3,0.5,0.6,0.7,0.9l0.2,0.2c0.2,0.3,0.5,0.5,0.7,0.8l0.2,0.2c0.2,0.2,0.4,0.4,0.6,0.6l0.3,0.3c0.2,0.2,0.4,0.4,0.6,0.5
			c0.1,0.1,0.2,0.1,0.2,0.2l0.1,0.1c0.2,0.2,0.4,0.3,0.5,0.4l0.5,0.4c0.2,0.1,0.3,0.2,0.5,0.3c0.1,0.1,0.2,0.2,0.3,0.2l0.1,0.1
			c0.2,0.1,0.3,0.2,0.5,0.4c0.1,0.1,0.3,0.2,0.4,0.2l0.1,0.1c0.2,0.1,0.3,0.2,0.5,0.3c0.2,0.1,0.3,0.2,0.5,0.3
			c0.2,0.1,0.4,0.2,0.5,0.3s0.3,0.2,0.5,0.3s0.3,0.2,0.5,0.3c0.2,0.1,0.4,0.2,0.5,0.2s0.3,0.1,0.5,0.2c0.2,0.1,0.4,0.1,0.6,0.2
			c0.2,0.1,0.3,0.1,0.5,0.2c0.2,0.1,0.4,0.1,0.6,0.2c0.2,0.1,0.3,0.1,0.5,0.2c0.2,0.1,0.4,0.1,0.6,0.2c0.2,0.1,0.3,0.1,0.5,0.1
			c0.2,0.1,0.4,0.1,0.6,0.1c0.2,0,0.3,0.1,0.5,0.1c0.2,0,0.4,0.1,0.6,0.1c0.2,0,0.3,0.1,0.5,0.1c0.2,0,0.4,0.1,0.6,0.1
			c0.2,0,0.4,0.1,0.5,0.1c0.2,0,0.4,0,0.6,0.1c0.2,0,0.4,0,0.5,0c0.2,0,0.4,0,0.6,0c0.2,0,0.4,0,0.5,0c0.2,0,0.4,0,0.6,0
			c0.2,0,0.4,0,0.5,0c0.2,0,0.4,0,0.6,0c0.2,0,0.3,0,0.5,0l0.2,0c0.2,0,0.3,0,0.5,0c0.2,0,0.4,0,0.6-0.1c0.2,0,0.4-0.1,0.6-0.1
			c0.2,0,0.3-0.1,0.5-0.1l0.1,0c0.2,0,0.4-0.1,0.6-0.1c0.2,0,0.3-0.1,0.5-0.1l0.3-0.1c0.1,0,0.3-0.1,0.4-0.1c0.2,0,0.3-0.1,0.4-0.1
			l0.3-0.1c0.1,0,0.3-0.1,0.4-0.1c0.2-0.1,0.3-0.1,0.5-0.1l0.3-0.1c0.1,0,0.3-0.1,0.4-0.1c0.2-0.1,0.3-0.1,0.5-0.2l0.3-0.1
			c0.1,0,0.2-0.1,0.3-0.1c0.2-0.1,0.3-0.1,0.5-0.2l0.3-0.1c0.1,0,0.2-0.1,0.3-0.1c0.1-0.1,0.3-0.1,0.4-0.2l0.3-0.2
			c0.1,0,0.2-0.1,0.3-0.1c0.2-0.1,0.3-0.2,0.4-0.2l0.4-0.2c0.1,0,0.2-0.1,0.2-0.1c0.2-0.1,0.4-0.2,0.6-0.4l0.4-0.3
			c0.3-0.2,0.7-0.4,1-0.7l468.7-338c0.3-0.2,0.7-0.5,1-0.7l0.4-0.4c0.2-0.1,0.3-0.3,0.5-0.4c0.1-0.1,0.1-0.1,0.2-0.2l0.3-0.3
			c0.1-0.1,0.3-0.2,0.4-0.4c0.1-0.1,0.1-0.1,0.2-0.2l0.3-0.3c0.1-0.1,0.3-0.3,0.4-0.4c0.1-0.1,0.2-0.2,0.2-0.3l0.2-0.2
			c0.1-0.1,0.2-0.3,0.3-0.4c0.1-0.1,0.1-0.2,0.2-0.3l0.2-0.3c0.1-0.1,0.2-0.2,0.3-0.4c0.1-0.1,0.2-0.2,0.2-0.3l0.2-0.2
			c0.1-0.1,0.2-0.3,0.3-0.4c0.1-0.1,0.2-0.2,0.2-0.3l0.1-0.1c0.1-0.2,0.2-0.3,0.3-0.5c0.1-0.1,0.2-0.2,0.2-0.4l0.1-0.1
			c0.1-0.2,0.2-0.4,0.3-0.5c0.1-0.1,0.1-0.2,0.2-0.3l0.1-0.3c0.1-0.1,0.1-0.3,0.2-0.4c0.1-0.2,0.2-0.3,0.2-0.5
			c0.1-0.2,0.2-0.4,0.3-0.5c0.1-0.1,0.1-0.3,0.2-0.4c0.1-0.3,0.2-0.4,0.3-0.6c0.1-0.2,0.1-0.3,0.2-0.5c0.1-0.2,0.1-0.4,0.2-0.5
			c0.1-0.2,0.1-0.4,0.2-0.5c0.1-0.2,0.1-0.4,0.2-0.6c0.1-0.2,0.1-0.4,0.2-0.5c0.1-0.2,0.1-0.4,0.1-0.6s0.1-0.4,0.1-0.6
			s0.1-0.4,0.1-0.6c0-0.2,0.1-0.4,0.1-0.6s0.1-0.4,0.1-0.6c0-0.2,0.1-0.4,0.1-0.6c0-0.2,0-0.4,0.1-0.6s0-0.4,0.1-0.6
			c0-0.2,0-0.4,0-0.6c0-0.2,0-0.4,0-0.6c0-0.2,0-0.4,0-0.6c0-0.2,0-0.4,0-0.6c0-0.2,0-0.4,0-0.6c0-0.2,0-0.4,0-0.6
			c0-0.2,0-0.4-0.1-0.6c0-0.2,0-0.4-0.1-0.6c0-0.2-0.1-0.4-0.1-0.6c0-0.2-0.1-0.4-0.1-0.5c0-0.2-0.1-0.4-0.1-0.5l0-0.1
			c0-0.1-0.1-0.3-0.1-0.5c0-0.2-0.1-0.4-0.1-0.6l0-0.1c0-0.1-0.1-0.3-0.1-0.4c0-0.2-0.1-0.3-0.1-0.5l-0.1-0.3c0-0.1-0.1-0.2-0.1-0.3
			c-0.1-0.2-0.1-0.4-0.2-0.6l-0.1-0.2c0-0.1-0.1-0.2-0.1-0.3c-0.1-0.2-0.2-0.4-0.2-0.6l-0.2-0.5c-0.1-0.2-0.2-0.5-0.3-0.7l-0.2-0.4
			c-0.1-0.3-0.3-0.5-0.4-0.8l-0.1-0.3c-0.2-0.3-0.3-0.6-0.5-0.9l-0.2-0.3c-0.2-0.3-0.4-0.6-0.6-0.9c-0.2-0.2-0.3-0.5-0.5-0.7
			l-155.4-215.4c-0.2-0.2-0.3-0.4-0.5-0.7l0,0c-8.1-10.5-22.9-12.7-33.7-4.9l-468.7,338c-10.8,7.8-13.4,22.5-6,33.6
			c0.2,0.2,0.3,0.5,0.5,0.7l155.4,215.4C873.7,2477,873.9,2477.2,874,2477.4z M958.6,2419.8l-1.5-0.8
			c-19.7-10.3-42.7-15.1-66.7-14.1c-14,0.6-27.6,3.2-40.4,7.7l-1.9,0.7l-77.7-107.7l1.2-1.6c8.3-10.7,15-22.8,20-35.9
			c8.5-22.5,11.2-45.9,7.6-67.9l-0.3-1.6l1.3-1l341-245.9l1.5,0.8c19.7,10.3,42.8,15.2,66.8,14.2c11.7-0.5,23.1-2.4,34.1-5.6
			l1.8-0.5l80,110.9l-1.1,1.6c-6.5,9.4-11.9,19.6-16.1,30.5c-8.5,22.4-11.2,45.9-7.6,67.8l0.3,1.6l-1.3,1L958.6,2419.8z
			 M896.6,2399.4c22,0,43.2,4.8,61.6,14.1l337.1-243.1c-3.3-22.3-0.5-46.1,8.2-68.9c4.1-10.7,9.3-20.9,15.6-30.1l-75.6-104.8
			c-10.8,3.1-22.1,4.8-33.5,5.3c-24.3,1-47.8-3.8-68-14.1l-337,243.1c3.3,22.4,0.5,46.2-8.2,69c-4.9,13-11.5,24.9-19.6,35.7
			l73,101.2c12.7-4.3,26.2-6.7,40-7.3C892.3,2399.4,894.5,2399.4,896.6,2399.4z"/>
		<path class="st3" d="M1049.6,2306.5c-6.4,0-12.8-0.5-19.2-1.6c-31.3-5.1-58.8-22-77.3-47.8c-18.6-25.7-26-57.1-20.9-88.5
			c5.1-31.3,22-58.8,47.8-77.3c53.1-38.3,127.5-26.3,165.8,26.9c38.3,53.1,26.3,127.5-26.9,165.8
			C1098.3,2298.8,1074.3,2306.5,1049.6,2306.5z M1049.1,2074.3c-23,0-46.2,6.9-66.2,21.4c-24.6,17.7-40.8,44-45.6,73.9
			c-4.8,29.9,2.3,59.9,20,84.5c17.7,24.6,44,40.8,73.9,45.6c29.9,4.8,59.9-2.3,84.5-20c50.7-36.6,62.2-107.6,25.7-158.4l0,0
			C1119.2,2090.7,1084.4,2074.3,1049.1,2074.3z"/>
		<path class="st3" d="M1093.5,2272.7l-15.5-21.4c-11.9,7.5-25,12.8-38.9,15.8l-1.7,0.4l-23.1-32l4.3-0.7c8.4-1.3,17.1-3.6,25.8-6.7
			c8.7-3.1,15.8-6.6,21.2-10.5c5.3-3.8,7.3-6.5,8.1-8c0.9-1.8,0.7-3.4-0.6-5.1c-0.8-1.1-2-1.7-3.6-1.8c-2.2-0.1-5.6,0.3-10.1,1.3
			c-4.7,1-10.9,2.6-18.6,4.8c-9,2.5-16.9,3.7-23.7,3.6c-6.9-0.1-13-1.6-18.2-4.3c-5.1-2.7-10-7.2-14.4-13.4
			c-6.9-9.6-9.3-19.5-7-29.4c2.1-9.2,8.2-18.5,18.2-27.9l-13.2-18.3l21.2-15.3l13,18.1c11-6.7,23.4-11.6,37.2-14.6l2.6-0.6l8.3,35.5
			l-2.7,0.6c-14.6,3-26.5,7.7-35.2,14.1c-4.9,3.5-6.6,5.8-7.1,7.1c-0.6,1.5-0.5,2.7,0.4,4c0.9,1.2,1.9,1.8,3.3,2
			c1.3,0.1,3.8,0.1,8.6-0.9c4.1-0.8,9.6-2.3,16.5-4.4c14.6-4.3,26.6-5.6,35.6-4c9.3,1.7,17.2,6.9,23.4,15.6c7,9.7,9.6,20,7.8,30.5
			c-1.7,9.9-7.3,19.5-16.8,28.7l15.9,22.1L1093.5,2272.7z M1079.4,2244l15.3,21.2l12.6-9.1l-15.6-21.6l1.7-1.6
			c9.6-8.9,15.3-18.1,16.9-27.4c1.6-9.2-0.7-17.9-6.9-26.5c-5.5-7.6-12-12-20.1-13.4c-8.2-1.5-19.3-0.2-33.2,3.8
			c-7,2.1-12.7,3.7-17,4.5c-4.5,0.9-7.9,1.2-10.3,0.9c-2.8-0.3-5.3-1.8-7-4.1c-2-2.8-2.4-6-1-9.2c1.2-2.8,4.1-5.9,8.9-9.3
			c8.8-6.4,20.5-11.2,34.6-14.4l-5.8-25c-13,3.1-24.8,8.1-35,14.6l-2.1,1.4l-12.8-17.8l-12.6,9.1l12.9,17.9l-1.8,1.6
			c-10.2,9.1-16.4,18.1-18.3,26.7c-2,8.5,0,16.7,6.1,25.1c4,5.5,8.2,9.5,12.6,11.8c4.4,2.3,9.7,3.6,15.8,3.7
			c6.3,0.1,13.7-1,22.2-3.4c7.8-2.2,14.1-3.9,18.9-4.9c5-1.1,8.8-1.6,11.5-1.4c3.2,0.2,5.9,1.6,7.6,4c2.5,3.4,2.8,7.1,1,10.7
			c-1.6,3.1-4.8,6.3-9.8,9.9c-5.8,4.2-13.3,7.9-22.5,11.2c-7.6,2.7-15.2,4.8-22.6,6.2l16,22.2c13.5-3.1,26.1-8.6,37.6-16.1
			L1079.4,2244z"/>
		<path class="st3" d="M1204.3,2091.9c-1.4,0-2.8-0.1-4.3-0.4c-6.9-1.1-13-4.9-17.1-10.6c-4.1-5.7-5.8-12.7-4.6-19.6
			c1.1-6.9,4.9-13,10.6-17.1c11.8-8.5,28.2-5.8,36.7,6l0,0c4.1,5.7,5.8,12.7,4.6,19.6c-1.1,6.9-4.9,13-10.6,17.1
			C1215.1,2090.2,1209.7,2091.9,1204.3,2091.9z M1204.2,2044.6c-4.3,0-8.5,1.3-12.2,4c-4.6,3.3-7.5,8.1-8.4,13.7
			c-0.9,5.5,0.4,11.1,3.7,15.6c3.3,4.6,8.1,7.5,13.7,8.4s11.1-0.4,15.6-3.7s7.5-8.1,8.4-13.7c0.9-5.5-0.4-11.1-3.7-15.6l0,0
			C1217.1,2047.6,1210.7,2044.6,1204.2,2044.6z"/>
		<path class="st3" d="M880.3,2325.4c-8.2,0-16.2-3.8-21.4-10.9c-8.5-11.8-5.8-28.2,6-36.7c5.7-4.1,12.7-5.8,19.6-4.6
			c6.9,1.1,13,4.9,17.1,10.6c4.1,5.7,5.8,12.7,4.6,19.6c-1.1,6.9-4.9,13-10.6,17.1C891,2323.8,885.6,2325.4,880.3,2325.4z
			 M880.2,2278.1c-4.4,0-8.6,1.4-12.2,4c-4.5,3.3-7.5,8.1-8.4,13.7s0.4,11.1,3.7,15.6c6.8,9.4,19.9,11.5,29.3,4.8
			c4.5-3.3,7.5-8.1,8.4-13.7s-0.4-11.1-3.7-15.6c-3.3-4.6-8.1-7.5-13.7-8.4C882.5,2278.2,881.3,2278.1,880.2,2278.1z"/>
	</g>
	<g>
		<path class="st3" d="M2379.5,1625.6c-5,0-10-0.9-14.8-2.8l-407.8-162.2c-9.9-3.9-17.7-11.6-22-21.4s-4.4-20.8-0.5-30.7l83.1-209
			c3.9-9.9,11.6-17.7,21.4-22c9.9-4.3,20.8-4.4,30.7-0.5l407.8,162.2c20.6,8.2,30.6,31.6,22.4,52.1l-83.1,209
			c-3.9,9.9-11.6,17.7-21.4,22C2390.3,1624.5,2384.9,1625.6,2379.5,1625.6z M2055,1179.4c-4.7,0-9.4,1-13.8,2.9
			c-8.6,3.7-15.2,10.5-18.6,19.1l-83.1,209c-3.4,8.6-3.3,18.1,0.4,26.6c3.7,8.6,10.5,15.2,19.1,18.6l407.8,162.2
			c8.6,3.4,18.1,3.3,26.6-0.4c8.6-3.7,15.2-10.5,18.6-19.1l83.1-209c7.1-17.8-1.6-38.1-19.5-45.2l-407.8-162.2
			C2063.6,1180.3,2059.3,1179.4,2055,1179.4z"/>
		<path class="st3" d="M2478,1446.7l-482.4-191.9l20.8-52.3l482.4,191.9L2478,1446.7z M2002.5,1251.8l472.5,188l16.9-42.4
			l-472.5-188L2002.5,1251.8z"/>
		<path class="st3" d="M2222.7,1533.5l-98-39l7.4-18.7l98,39L2222.7,1533.5z M2131.7,1491.5l88.1,35l3.5-8.8l-88.1-35L2131.7,1491.5
			z"/>
		<path class="st3" d="M2334.5,1583.5l-90.3-35.9l7-17.6l90.3,35.9L2334.5,1583.5z M2251.1,1544.7l80.4,32l3.1-7.7l-80.4-32
			L2251.1,1544.7z"/>
		<path class="st3" d="M2170.3,1411.7l-186.2-74.1l24.7-62.2l186.2,74.1L2170.3,1411.7z M1991.1,1334.7l176.3,70.1l20.8-52.3
			l-176.3-70.1L1991.1,1334.7z"/>
		<path class="st3" d="M2405.8,1479.5l-188.1-74.8l9.4-23.7l188.1,74.8L2405.8,1479.5z M2224.5,1401.7l178.3,70.9l5.5-13.8
			l-178.3-70.9L2224.5,1401.7z"/>
		<path class="st3" d="M2392.3,1513.2l-188.1-74.8l9.4-23.7l188.1,74.8L2392.3,1513.2z M2211.1,1435.4l178.3,70.9l5.5-13.8
			l-178.3-70.9L2211.1,1435.4z"/>
		<path class="st3" d="M2378.7,1547.4l-188.1-74.8l9.4-23.7l188.1,74.8L2378.7,1547.4z M2197.5,1469.6l178.3,70.9l5.5-13.8
			l-178.3-70.9L2197.5,1469.6z"/>
	</g>
	<g>
		<path class="st2" d="M337.1,3040.2c-8.2,0-16-2.8-22.2-8.1l-413.3-349.3c-12.6-10.6-15.9-28.6-8.2-43.6c0.7-1.4,1.5-2.7,2.4-3.9
			c0.3-0.4,0.6-0.9,0.9-1.3c0.4-0.5,0.8-1.1,1.3-1.6l287.4-340.1c0.5-0.6,0.9-1.1,1.4-1.6c0.3-0.4,0.7-0.7,1.1-1.1
			c1.1-1.1,2.3-2.1,3.5-3c13.5-10.2,31.8-9.9,44.4,0.8L649,2636.7c7.2,6.1,11.5,14.7,12.1,24.3c0.6,9.5-2.5,18.7-8.7,26.1
			l-287.4,340.1c-6.2,7.3-14.8,11.9-24.3,12.9C339.6,3040.2,338.3,3040.2,337.1,3040.2z M213.3,2284.6c-6.6,0-13.2,2.1-18.7,6.3h0
			c-1.1,0.8-2.1,1.6-3,2.6c-0.3,0.3-0.6,0.6-0.9,0.9c-0.4,0.4-0.8,0.9-1.2,1.3l-287.4,340.1c-0.4,0.5-0.8,0.9-1.1,1.4
			c-0.3,0.4-0.6,0.7-0.8,1.1c-0.8,1.1-1.4,2.2-2,3.4c-6.5,12.6-3.7,28.2,6.9,37.1l413.3,349.3c6.1,5.2,13.9,7.5,22,6.7
			c8.1-0.9,15.4-4.8,20.7-11l287.4-340.1c5.3-6.3,7.9-14.2,7.4-22.3c-0.5-8.1-4.2-15.4-10.3-20.6l-413.3-349.3
			C226.9,2286.9,220.2,2284.6,213.3,2284.6z M22.5,2736.5l-99.1-83.8l288.5-341.4l99.1,83.8l-1.7,2L22.5,2736.5z M-69.1,2652.1
			l91,76.9l281.6-333.3l-91-76.9L-69.1,2652.1z"/>
		<path class="st2" d="M20.8,2738.6l-99.1-83.8l1.7-2l288.5-341.4l99.1,83.8l-1.7,2L20.8,2738.6z M-70.8,2654.2l91,76.9l283.4-335.3
			l-91-76.9L-70.8,2654.2z"/>
		<g>
			<path class="st2" d="M311.3,2672.6c-7,0-13.7-2.4-19.1-7l-77.7-65.6c-12.5-10.6-14.1-29.4-3.5-41.9l92.1-108.9
				c3.2-3.8,7.4-6.8,12.1-8.6c4-1.5,8.4-2.2,12.6-1.9c6.3,0.4,12.3,2.8,17.1,6.9l77.7,65.6c12.5,10.6,14.1,29.4,3.5,41.9L334.1,2662
				c-4.1,4.9-9.5,8.2-15.7,9.7c-1.6,0.4-3.3,0.6-5,0.8C312.7,2672.5,312,2672.6,311.3,2672.6z M325.7,2443.9c-3,0-5.9,0.5-8.6,1.6
				c-3.9,1.5-7.3,3.9-9.9,7l-92.1,108.9c-8.7,10.3-7.4,25.7,2.9,34.4l77.7,65.6c4.8,4.1,11,6.1,17.3,5.7c1.5-0.1,2.8-0.3,4.1-0.6
				c5.1-1.2,9.6-4,12.9-7.9l92-108.9c8.7-10.3,7.4-25.7-2.9-34.4l-77.7-65.6c-4-3.4-8.9-5.3-14.1-5.7
				C326.9,2444,326.3,2443.9,325.7,2443.9z"/>
			<path class="st2" d="M300.7,2597.3l-21-17.7l18.8-22.3l-25-21.1l16.2-19.2l25,21.1l18.9-22.4l21,17.7l-18.9,22.4l24.8,21
				l-16.2,19.2l-24.8-21L300.7,2597.3z M287.2,2578.9l12.9,10.9l18.8-22.3l24.8,21l9.4-11.1l-24.8-21l18.9-22.4l-12.9-10.9
				l-18.9,22.4l-25-21.1l-9.4,11.1l25,21.1L287.2,2578.9z"/>
		</g>
		<g>
			<path class="st2" d="M174.5,2836.5c-7,0-13.8-2.5-19.2-7L77,2763.4c-12.6-10.6-14.2-29.6-3.5-42.2l92.7-109.7
				c3.3-3.9,7.5-6.8,12.2-8.6c4-1.5,8.4-2.2,12.7-1.9c6.4,0.4,12.4,2.8,17.3,6.9l78.3,66.1c6.1,5.1,9.8,12.4,10.5,20.3
				c0.7,8-1.8,15.7-6.9,21.8l-92.7,109.7c-4.1,4.9-9.6,8.3-15.9,9.7c-1.6,0.4-3.3,0.7-5.1,0.8
				C175.8,2836.5,175.1,2836.5,174.5,2836.5z M188.9,2606.3c-3,0-5.9,0.5-8.7,1.6c-3.9,1.5-7.3,3.9-10,7.1l-92.7,109.7
				c-8.8,10.4-7.4,25.9,2.9,34.7l78.3,66.1c4.9,4.1,11.1,6.2,17.5,5.7c1.5-0.1,2.9-0.3,4.2-0.6c5.2-1.2,9.7-4,13-8l92.7-109.7
				c4.2-5,6.2-11.4,5.7-17.9c-0.5-6.6-3.6-12.5-8.6-16.7l-78.3-66.1c-4-3.4-8.9-5.4-14.2-5.7
				C190.1,2606.3,189.5,2606.3,188.9,2606.3z"/>
			<path class="st2" d="M163.8,2760.8l-21.8-18.4l54.3-64.3l21.8,18.4L163.8,2760.8z M149.5,2741.8l13.6,11.5l47.4-56.1l-13.6-11.5
				L149.5,2741.8z"/>
		</g>
		<g>
			<path class="st2" d="M471.1,2801c-7,0-13.7-2.4-19.1-7l-77.7-65.6c-6-5.1-9.7-12.3-10.4-20.2c-0.7-7.9,1.8-15.6,6.9-21.7
				l92.1-108.9c3.2-3.8,7.4-6.8,12.1-8.6c4-1.5,8.4-2.2,12.6-1.9c6.3,0.4,12.3,2.8,17.1,6.9l77.7,65.6c12.5,10.6,14.1,29.4,3.5,41.9
				l-92,108.9c-4.1,4.9-9.5,8.2-15.7,9.7c-1.6,0.4-3.3,0.6-5,0.8C472.4,2801,471.8,2801,471.1,2801z M485.5,2572.4
				c-3,0-5.9,0.5-8.6,1.6c-3.9,1.5-7.3,3.9-9.9,7l-92.1,108.9c-4.2,5-6.2,11.3-5.6,17.8c0.5,6.5,3.6,12.4,8.5,16.6l77.7,65.7
				c4.8,4.1,11,6.1,17.3,5.7c1.5-0.1,2.8-0.3,4.1-0.6c5.1-1.2,9.6-4,12.9-7.9l92-108.9c8.7-10.3,7.4-25.7-2.9-34.4l-77.7-65.6
				c-4-3.4-8.9-5.3-14.1-5.7C486.6,2572.4,486,2572.4,485.5,2572.4z"/>
			<path class="st2" d="M472,2731.2l-17.7-14.9l51.8-61.3l17.7,14.9L472,2731.2z M461.8,2715.6l9.6,8.1l44.9-53.2l-9.6-8.1
				L461.8,2715.6z M450.6,2713.2l-17.7-14.9l51.8-61.3l17.7,14.9L450.6,2713.2z M440.5,2697.6l9.6,8.1l45-53.2l-9.6-8.1
				L440.5,2697.6z"/>
		</g>
		<g>
			<path class="st2" d="M328.3,2964.5c-6.8,0-13.4-2.4-18.6-6.8l-75.7-64c-5.9-5-9.5-12-10.2-19.7c-0.6-7.7,1.7-15.3,6.7-21.2
				l89.7-106.1c3.2-3.7,7.3-6.6,11.8-8.4c3.9-1.5,8.2-2.1,12.3-1.8c6.2,0.4,12,2.7,16.7,6.7l75.7,64c5.9,5,9.5,12,10.1,19.7
				c0.6,7.8-1.7,15.3-6.7,21.2l-89.7,106.1c-4,4.7-9.3,8-15.4,9.4c-1.5,0.4-3.2,0.6-4.9,0.8C329.6,2964.5,329,2964.5,328.3,2964.5z
				 M342.3,2741.8c-2.9,0-5.7,0.5-8.4,1.5c-3.7,1.4-7.1,3.8-9.6,6.8l-89.7,106.1c-4.1,4.8-6,10.9-5.5,17.3s3.5,12.1,8.3,16.1
				l75.7,64c4.7,4,10.7,5.9,16.8,5.5c1.4-0.1,2.8-0.3,4-0.6c5-1.2,9.3-3.8,12.6-7.7l89.7-106.1c4.1-4.8,6-10.9,5.5-17.3
				s-3.5-12.1-8.3-16.1l-75.7-64c-3.9-3.3-8.6-5.2-13.7-5.5C343.5,2741.8,342.9,2741.8,342.3,2741.8z"/>
			<path class="st2" d="M332.7,2890.8l-2.9-24l-17.2,15.6l-13-22l20.5-10.3l-21-12.9l17.7-21l16.3,18.5l6.6-21.8l24,8.9l-12.5,19.6
				l24.1-1.2l-2.6,26l-23.7-5l8.9,22.5L332.7,2890.8z M333.9,2855.9l3.4,28.1l13.6-3.8l-10.3-26.2l27.6,5.8l1.4-13.9l-28.2,1.4
				l14.5-22.7l-12.5-4.6l-7.7,25.6l-18.5-21.1l-9.7,11.5l23.9,14.7l-24,12l6.8,11.5L333.9,2855.9z"/>
		</g>
	</g>
	<path class="st2" d="M1291.1,1611c-12.8,0-19.4-4.4-20-4.8l-5-3.5l5.9-1.3c21-4.6,32.7-23.4,38.3-35.9c-22.3-8.3-41.2-21-54.8-37
		c-14.7-17.2-22.4-37.2-22.4-57.9c0-28.3,14.3-54.8,40.2-74.7c25.7-19.7,59.9-30.6,96.2-30.6s70.5,10.9,96.2,30.6
		c25.9,19.9,40.2,46.4,40.2,74.7s-14.3,54.8-40.2,74.7c-25.7,19.7-59.9,30.6-96.2,30.6c-1.2,0-2.4,0-3.8-0.1
		C1331.5,1604.4,1306.8,1611,1291.1,1611z M1280.7,1604.4c3.6,0.9,8.7,1.6,15.3,1c13.5-1.2,36.1-8.1,67.2-34.3l0.8-0.7l1,0
		c1.8,0.1,3.3,0.1,4.7,0.1c72.3,0,131.1-44.8,131.1-100s-58.8-100-131.1-100s-131.1,44.8-131.1,100c0,38.9,30,74.6,76.3,90.8
		l2.7,0.9l-1.1,2.6C1311.6,1576.9,1300.7,1596.6,1280.7,1604.4z"/>
	<g>
		<path class="st2" d="M1063.5,1335.9l-201.9-44.6l-19.2-47.1l250.3,57.9L1063.5,1335.9z M865.4,1286.7l196.1,43.3l21.3-24.6
			l-231.7-53.6L865.4,1286.7z"/>
		<path class="st2" d="M700.6,1539.9l-223.2-54.8l-17.7,20.5l-74.7-59.9l147.8-24.5l-25.3,29.2l172.1,41.1l-40.8-109.1l25.9-29.9
			l246,54l-30.9,35.6l-192.9-42.3l43,106.2L700.6,1539.9z M475.5,1479.2l223.2,54.8l25-28.9l-45.5-112.5l199.7,43.8l22.9-26.5
			l-234.1-51.4l-21.8,25.1l43.2,115.5l-190.3-45.5l21.4-24.7l-121.5,20.2l61.4,49.2L475.5,1479.2z"/>
		<path class="st2" d="M910,1406.7l-48.3-8.3l-45.9-122.7l27.8-32.1L910,1406.7z M865.6,1393.7l35.9,6.1l-59.6-146.1l-20,23.1
			L865.6,1393.7z"/>
	</g>
	<g>
		<path class="st3" d="M2197,2754.9c-4.3,0-8.5-0.6-12.7-1.9l-354.4-110.9c-11.4-3.6-20.8-11.6-26.4-22.7c-5.6-11-6.7-23.4-3.1-34.8
			l80.3-256.7c7.2-23.1,31.8-35.2,56.1-27.6l40.9,12.8l-8.2,26.1c-4.6,14.6,3.4,30.1,17.9,34.6c7,2.2,14.4,1.5,20.9-2
			c6.5-3.4,11.3-9.2,13.5-16.3l8.2-26.1l166.9,52.2l-8.1,26.1c-4.6,14.6,3.5,30.1,17.9,34.6c14.4,4.5,29.8-3.7,34.4-18.3l8.1-26.1
			l42.1,13.2c24,7.5,36.6,30.8,29.3,54.3l-2.5-0.8l2.5,0.8l-80.3,256.7c-3.6,11.6-11.3,21.2-21.8,27
			C2211.7,2752.9,2204.4,2754.9,2197,2754.9z M1922.2,2303.3c-6,0-11.8,1.3-17.2,3.8c-9.3,4.4-16.1,12.4-19.3,22.3l-80.3,256.7
			c-3.2,10.2-2.2,21.1,2.7,30.9c5,9.8,13.2,16.9,23.3,20l354.4,110.9c10,3.1,20.6,1.9,29.9-3.3c9.2-5.2,16.1-13.7,19.3-24
			l80.3-256.7c6.4-20.5-4.6-41-25.8-47.6l-37-11.6l-6.6,21c-4.4,14.1-17.4,23.2-31.4,23.2c-3.2,0-6.4-0.5-9.6-1.5
			c-17.2-5.4-26.8-23.9-21.4-41.3l6.6-21l-156.7-49l-6.6,21c-2.6,8.4-8.3,15.3-16.1,19.4c-7.8,4.1-16.6,5-25,2.4
			c-17.2-5.4-26.8-23.9-21.3-41.3l6.6-21l-35.8-11.2C1930.9,2304,1926.5,2303.3,1922.2,2303.3z"/>
		<path class="st3" d="M2204.9,2718.6l-372.4-116.5l58.8-187.9l372.4,116.5L2204.9,2718.6z M1839.2,2598.6l362.3,113.3l55.6-177.7
			l-362.3-113.3L1839.2,2598.6z"/>
		<g>
			<path class="st3" d="M1948.9,2528.3l-59.5-18.6l18.6-59.5l59.5,18.6L1948.9,2528.3z M1896.2,2506.2l49.3,15.4l15.4-49.3
				l-49.3-15.4L1896.2,2506.2z"/>
			<path class="st3" d="M2036.2,2555.6l-59.5-18.6l18.6-59.5l59.5,18.6L2036.2,2555.6z M1983.4,2533.5l49.3,15.4l15.4-49.3
				l-49.3-15.4L1983.4,2533.5z"/>
			<path class="st3" d="M2123.5,2582.9l-59.5-18.6l18.6-59.5l59.5,18.6L2123.5,2582.9z M2070.7,2560.8l49.3,15.4l15.4-49.3
				l-49.3-15.4L2070.7,2560.8z"/>
			<path class="st3" d="M2210.8,2610.2l-59.5-18.6l18.6-59.5l59.5,18.6L2210.8,2610.2z M2158,2588.1l49.3,15.4l15.4-49.3l-49.3-15.4
				L2158,2588.1z"/>
		</g>
		<g>
			<path class="st3" d="M1924.9,2605.1l-59.5-18.6l18.6-59.5l59.5,18.6L1924.9,2605.1z M1872.1,2583.1l49.3,15.4l15.4-49.3
				l-49.3-15.4L1872.1,2583.1z"/>
			<path class="st3" d="M2012.2,2632.4l-59.5-18.6l18.6-59.5l59.5,18.6L2012.2,2632.4z M1959.4,2610.4l49.3,15.4l15.4-49.3
				l-49.3-15.4L1959.4,2610.4z"/>
			<path class="st3" d="M2099.5,2659.7l-59.5-18.6l18.6-59.5l59.5,18.6L2099.5,2659.7z M2046.7,2637.6l49.3,15.4l15.4-49.3
				l-49.3-15.4L2046.7,2637.6z"/>
			<path class="st3" d="M2186.7,2687l-59.5-18.6l18.6-59.5l59.5,18.6L2186.7,2687z M2133.9,2664.9l49.3,15.4l15.4-49.3l-49.3-15.4
				L2133.9,2664.9z"/>
		</g>
		<path class="st3" d="M1997.5,2366.6c-1.8,0-3.6-0.3-5.4-0.8l-3.5-1.1c-9.5-3-14.8-13.1-11.8-22.6l10.7-34.3
			c1.4-4.6,4.6-8.3,8.9-10.6s9.2-2.7,13.7-1.3l3.5,1.1c9.5,3,14.8,13.1,11.8,22.6l-10.7,34.3
			C2012.3,2361.6,2005.1,2366.6,1997.5,2366.6z M2004.8,2300.4c-2,0-4.1,0.5-5.9,1.5c-3,1.6-5.2,4.2-6.2,7.4l-10.7,34.3
			c-2.1,6.7,1.7,13.8,8.3,15.9l3.5,1.1c6.7,2.1,13.8-1.6,15.9-8.3l10.7-34.3c1-3.2,0.7-6.7-0.9-9.7s-4.2-5.2-7.4-6.2l-3.5-1.1
			C2007.3,2300.6,2006,2300.4,2004.8,2300.4z"/>
		<path class="st3" d="M2216.6,2435.1c-1.8,0-3.6-0.3-5.4-0.8l-3.5-1.1c-4.6-1.4-8.3-4.6-10.6-8.9c-2.2-4.3-2.7-9.2-1.3-13.7
			l10.7-34.3c3-9.5,13.1-14.8,22.6-11.8l3.5,1.1c9.5,3,14.8,13.1,11.8,22.6l-10.7,34.3C2231.4,2430.1,2224.3,2435.1,2216.6,2435.1z
			 M2212.8,2429.2c6.7,2.1,13.8-1.6,15.9-8.3l10.7-34.3c2.1-6.7-1.6-13.8-8.3-15.9l-3.5-1.1c-6.7-2.1-13.8,1.6-15.9,8.3l-10.7,34.3
			c-1,3.2-0.7,6.7,0.9,9.7c1.6,3,4.2,5.2,7.4,6.2L2212.8,2429.2z"/>
	</g>
	<path class="st2" d="M1686.5,1391.8c-11.2,0-21.8-1.5-31.6-4.6l-2.3-0.7l0.5-2.4c0.3-1.3,0.6-2.7,0.9-4.1c0.6-2.9,1.3-6,2-9
		c3-11.9,6-24,9-35.6c7.5-29.7,15.3-60.4,22.3-90.8c2.2-9.7,2.1-20.7-0.4-30c-8.2-31.1-17.3-62.5-26.2-92.9
		c-3.2-11.1-6.5-22.5-9.8-33.8l-4.4-15.3l2.7-0.6c31.8-7.5,64.8-4.8,95.7,7.9c30.7,12.6,56.5,33.9,74.7,61.7
		c18.4,28.1,27.4,60.7,26,94.2c-1.4,33.5-13,65.5-33.6,92.6c-17.7,23.3-43.8,42.3-73.3,53.4
		C1721,1388.4,1703.2,1391.8,1686.5,1391.8z M1658.8,1382.8c47.9,13.6,114.1-11.9,149-57.7c40.3-53,43.3-125.6,7.3-180.7
		c-35.4-54.2-100.2-81.3-162-67.9l2.9,10c3.2,11.3,6.5,22.7,9.8,33.8c8.8,30.4,17.9,61.9,26.2,93c2.7,10.1,2.8,22,0.4,32.5
		c-7,30.4-14.8,61.2-22.3,90.9c-2.9,11.7-6,23.7-9,35.6c-0.7,2.9-1.3,5.9-1.9,8.8C1659.1,1381.7,1658.9,1382.3,1658.8,1382.8z"/>
	<path class="st2" d="M1637.4,1384.9l-2.8-1c-50.7-18.2-84.3-50.7-102.8-99.3l-1-2.7l142.5-40.8L1637.4,1384.9z M1537.9,1285.5
		c17.8,44.7,49.1,75,95.8,92.4l32.2-129.1L1537.9,1285.5z"/>
	<path class="st2" d="M1526.8,1266.1l-0.7-2.7c-9.1-36.2-2.9-77.5,17-113.1c19.8-35.7,51.3-62,86.2-72.3l2.6-0.8L1674,1224
		L1526.8,1266.1z M1628.3,1083.9c-68.1,21.8-113.9,104.1-97.6,175.6l136.7-39.2L1628.3,1083.9z"/>
	<path class="st2" d="M326.1,2001.3c-4.6,0-9.4-0.8-14.3-2.5c-12-4.1-23.1-12.9-31.2-24.7l-73.8-107.3l0.3-0.2
		c-0.9-2.9-0.1-6.2,2.4-7.8l4.8-3.3l-24.8-36.1c-16.8,6.9-34.4,10.3-51.9,10.3c-44.1,0-87-21.3-113.2-59.4
		c-42.8-62.3-27-147.8,35.3-190.6c62.3-42.8,147.8-27,190.6,35.3c18.4,26.8,26.7,59.4,23.4,91.7c-3.2,31.2-17.1,60.4-39,82.5
		l24.5,35.6l6.5-4.5c3.1-2.1,7.5-1.1,9.8,2.2l72.5,105.4c17,24.7,15.7,55.2-2.8,67.9C339.5,1999.4,333.1,2001.3,326.1,2001.3z
		 M214.3,1868.2l70.8,102.9c7.5,10.9,17.6,19,28.5,22.7c10.6,3.7,20.7,2.8,28.4-2.5c16.1-11.1,16.8-38.2,1.5-60.5L271,1825.4
		c-0.6-0.9-1.7-1.3-2.4-0.8l-10.9,7.5l-30-43.6l1.6-1.6c46.1-44.8,53-115.9,16.6-168.9c-41.2-59.8-123.3-75.1-183.2-33.9
		c-59.8,41.2-75.1,123.3-33.9,183.2c35.5,51.7,103.1,71.2,160.6,46.4l2-0.9l30.3,44.1l-9.1,6.3c-0.6,0.4-0.7,1.6,0,2.6L214.3,1868.2
		L214.3,1868.2z M137.5,1794.3c-0.5,0-1.1,0-1.6,0c-20.7-0.3-40.5-6.8-57.4-18.7c-9.8-6.9-18.2-15.4-25-25.4
		c-31.8-46.2-20-109.7,26.2-141.5c22-15.1,48.6-20.9,74.8-16.4c27.3,4.7,50.9,19.8,66.6,42.6c15.4,22.4,21.1,49.4,16.2,76.2
		c-4.9,26.7-20,49.9-42.4,65.3C177.9,1788.1,158.1,1794.3,137.5,1794.3z M137.2,1596.1c-19.3,0-38.2,5.8-54.5,17
		c-43.8,30.1-54.9,90.3-24.8,134.1c6.5,9.4,14.4,17.5,23.7,24.1l0,0c32.8,23.3,77.2,23.6,110.4,0.8c21.2-14.6,35.5-36.6,40.2-61.9
		c4.7-25.3-0.8-50.9-15.4-72.2c-14.9-21.6-37.3-36-63.1-40.4C148.2,1596.6,142.7,1596.1,137.2,1596.1z"/>
	<path class="st2" d="M137.2,1794.3c-24.5,0-47.9-8.7-66.6-25c-20.5-17.8-32.8-42.6-34.7-69.7s6.9-53.3,24.7-73.8
		s42.6-32.8,69.7-34.7c56-3.9,104.7,38.4,108.6,94.4c1.9,27.1-6.9,53.3-24.7,73.8s-42.6,32.8-69.7,34.7
		C142,1794.2,139.6,1794.3,137.2,1794.3z M137.4,1596.1c-2.2,0-4.5,0.1-6.8,0.2c-53,3.7-93.2,49.8-89.5,102.9
		c1.8,25.7,13.5,49.2,32.9,66.1s44.3,25.2,70,23.4c53-3.7,93.2-49.9,89.5-102.9C230,1635.1,187.6,1596.1,137.4,1596.1z"/>
	<path class="st2" d="M716.5,1172.3c-1.2,0-2.4-0.2-3.6-0.5l-46.9-12.6c-3.6-1-6.6-3.3-8.4-6.5c-1.9-3.2-2.4-7-1.4-10.5l6.4-25.5
		c-14.6-8.2-25-16.3-35-27.5l-22.4,12.9c-3.3,1.9-6.6,2.4-9.5,1.6c-2.9-0.8-5.5-3-7.3-6.3l-24.2-42.1c-1.9-3.3-2.5-6.6-1.9-9.7
		c0.7-3.3,2.7-6.1,6-7.9l22.3-12.8c-4.3-14.2-5.9-27.2-5.5-43.9l-25.2-6.9c-7.4-2-11.8-9.7-9.8-17.1l12.7-46.9
		c1-3.6,3.3-6.6,6.5-8.4c3.2-1.8,6.9-2.3,10.5-1.4l26,6.2c7.9-14.1,16.7-25.1,28-35.3l-12.9-22.4c-4.4-7.6-3.3-14.7,2.7-18.2
		l42.1-24.2c3.2-1.8,7.1-2.3,10.9-1.2c3.7,1,6.9,3.4,8.7,6.6l12.8,22.4c15.8-4.8,28.9-5.7,43.2-5.3l6.7-25c1-3.6,3.3-6.6,6.5-8.4
		c3.2-1.8,7-2.3,10.5-1.4l46.8,12.7c3.6,1,6.6,3.3,8.4,6.5s2.3,7,1.4,10.5l-6.7,25.1c11.7,6.7,23.9,16.2,34.6,27.1l22.5-12.9
		c3.2-1.8,7.1-2.5,10.8-2c4.1,0.7,7.4,2.8,9.3,6l24.2,42.1c3.9,6.9-0.8,14.5-7.3,18.3l-22.3,12.8c4.4,14.4,6.2,28.3,5.8,44.5l25.4,7
		c3.6,1,6.6,3.3,8.4,6.5s2.4,7,1.4,10.6l-12.7,46.9c-2,7.4-9.7,11.8-17,9.8l-24.6-6.9c-7.3,13-14.5,23.5-26.6,34.4l12.9,22.4
		c3.7,6.4,1,14.8-6,18.8l-42.1,24.2c-4.2,2.4-7.5,1.8-9.6,0.8c-2.5-1.2-4.8-3.4-6.7-6.8l-12.8-22.3c-14.8,4.5-29.3,6.4-45.2,6
		l-7.2,25.6c-1,3.6-3.3,6.6-6.6,8.4C721.4,1171.7,719,1172.3,716.5,1172.3z M628.7,1082.3l1.4,1.6c10.5,12,21.2,20.4,36.8,29l1.8,1
		l-7.4,29.6c-0.6,2.3-0.3,4.6,0.8,6.5c1.2,2,3,3.4,5.2,4l46.9,12.6c2.2,0.6,4.5,0.3,6.6-0.9s3.5-3,4.1-5.2l7.8-28l2.1-1.6l0.9,0
		c16.7,0.6,31.6-1.4,47-6.4l2-0.7l15,26.1c1.3,2.3,2.8,3.9,4.3,4.6c0.9,0.4,2.4,0.8,4.8-0.6l42.1-24.2c3.8-2.2,6.5-7.3,4-11.5
		l-15-26.2l1.6-1.4c13-11.4,20.4-22.4,28.1-36.3l1-1.8l28.7,8c4.5,1.2,9.2-1.5,10.5-6.1l12.7-46.9c0.6-2.2,0.3-4.5-0.9-6.6
		s-3-3.5-5.2-4l-27.9-7.7l-1.5-1.8l0-1c0.6-17.3-1.2-31.3-6.1-46.6l-0.7-2l26.1-15c4.3-2.4,7.6-7.1,5.3-11l0,0l-24.2-42.1
		c-1.4-2.4-4-3.2-5.5-3.4c-2.5-0.4-5.2,0.1-7.4,1.3l-26.1,15l-1.4-1.5c-11.3-11.7-24.3-21.8-36.6-28.6l-1.8-1l7.7-29.1
		c0.6-2.2,0.3-4.5-0.8-6.5s-3-3.4-5.2-4l-46.8-12.7c-2.2-0.6-4.5-0.3-6.5,0.8c-2,1.1-3.4,3-4,5.2l-6.9,25.7l2.5,3.5l-5.4-0.2
		c-15.3-0.5-28.8,0.2-45.7,5.6l-2,0.7l-15-26.1c-1.1-2-3.1-3.5-5.5-4.1c-2.4-0.7-4.8-0.4-6.8,0.7l-42.1,24.2
		c-4.8,2.8-2.1,8.6-0.8,10.9l15,26.2l-1.6,1.4c-12.3,10.8-21,21.8-29.4,37.1l-1,1.8l-30.1-7.2c-2.2-0.6-4.5-0.3-6.5,0.8
		s-3.4,3-4,5.2l-12.7,46.9c-1.2,4.6,1.5,9.3,6.1,10.5l27.5,7.5l1.7,1.4l0,1.3c-0.6,17.8,1.1,31.2,5.8,46.1l0.7,2.1l-26.1,15
		c-1.9,1.1-3.1,2.6-3.4,4.4c-0.4,1.8,0.1,3.9,1.3,6l24.2,42.1c1.2,2.1,2.6,3.3,4.2,3.8c1.6,0.4,3.4,0.1,5.4-1.1L628.7,1082.3z
		 M738.9,1055.2c-1.8,0-3.5-0.1-5.3-0.2c-1.2-0.1-2.3-0.2-3.5-0.3c-0.6-0.1-1.2-0.2-1.7-0.2c-1.7-0.3-3.4-0.6-5.1-0.9
		c-19.9-4.4-37.2-17.1-47.4-34.7c-4.9-8.6-8-17.9-9.2-27.7c-0.5-4-0.6-8.1-0.4-12.2c0.1-1.3,0.2-2.7,0.3-4c0.4-3.3,1-6.7,1.8-9.9
		c0.8-3.3,1.9-6.5,3.1-9.6c0.2-0.5,0.4-1.1,0.7-1.6c0.5-1.1,1-2.1,1.5-3.2s1-2.1,1.6-3.1c1.1-2,2.4-4,3.7-6c0.4-0.6,0.9-1.3,1.3-1.9
		c0.5-0.7,1-1.3,1.5-2l0,0c5.8-7.3,12.8-13.4,20.9-18c10.1-5.8,21.1-9,32.6-9.6c1.2-0.1,2.3-0.1,3.5-0.1c0.6,0,1.2,0,1.8,0
		c1.2,0,2.3,0.1,3.5,0.2c1.2,0.1,2.3,0.2,3.5,0.3c0.6,0.1,1.2,0.2,1.7,0.2c2.3,0.3,4.6,0.8,6.8,1.3c0.6,0.1,1.1,0.3,1.7,0.4
		c1.1,0.3,2.2,0.6,3.3,1c0.5,0.2,1.1,0.4,1.7,0.5c1.1,0.4,2.2,0.8,3.3,1.2c0.5,0.2,1.1,0.4,1.6,0.7c0.8,0.3,1.5,0.7,2.2,1
		c0.9,0.4,1.7,0.8,2.5,1.2c1,0.5,2.1,1.1,3.1,1.7c1.3,0.8,2.6,1.6,4,2.5c0.7,0.4,1.3,0.9,1.9,1.3c1,0.7,1.9,1.4,2.8,2.1
		c1.4,1.1,2.7,2.3,4,3.5c0.9,0.8,1.7,1.7,2.6,2.5c4.3,4.3,8,9.3,11,14.6c5.5,9.6,8.7,19.9,9.5,30.8c0.1,1.7,0.2,3.5,0.2,5.3
		c0,1.2,0,2.3-0.1,3.5c-0.1,1.2-0.1,2.3-0.3,3.5c-0.3,2.9-0.7,5.8-1.4,8.6c-0.3,1.1-0.5,2.3-0.8,3.4c-0.5,1.7-1,3.4-1.5,5
		c-0.4,1.1-0.8,2.2-1.2,3.3c-0.2,0.5-0.4,1.1-0.7,1.6c-0.5,1.1-1,2.1-1.5,3.2c-0.8,1.6-1.6,3.1-2.5,4.6c-0.6,1-1.2,2-1.8,3
		c-6.3,9.7-14.6,17.5-24.7,23.3c-8.5,4.9-17.7,7.9-27.3,9.1c-1.2,0.1-2.3,0.3-3.5,0.3C742.4,1055.2,740.6,1055.2,738.9,1055.2z
		 M686,941c-0.5,0.6-0.9,1.2-1.4,1.8c-0.4,0.6-0.8,1.2-1.2,1.7c-1.2,1.8-2.4,3.7-3.4,5.5c-0.5,0.9-1,1.9-1.5,2.9
		c-0.5,1-0.9,2-1.3,2.9c-0.2,0.5-0.4,1-0.6,1.5c-1.2,2.9-2.1,5.9-2.9,8.9s-1.3,6.1-1.6,9.2c-0.1,1.2-0.2,2.5-0.3,3.7
		c-0.2,3.8-0.1,7.5,0.4,11.3c1.1,9,3.9,17.7,8.5,25.6c9.4,16.4,25.4,28.1,43.9,32.2c1.6,0.3,3.2,0.6,4.8,0.9
		c0.5,0.1,1.1,0.2,1.6,0.2c1.1,0.1,2.2,0.2,3.2,0.3c3.2,0.2,6.5,0.2,9.7,0c1.1-0.1,2.2-0.2,3.3-0.3c8.9-1.1,17.5-3.9,25.3-8.4
		c9.3-5.4,17-12.6,22.9-21.6c0.6-0.9,1.2-1.8,1.7-2.8c0.8-1.4,1.6-2.8,2.3-4.3c0.5-1,0.9-2,1.3-2.9c0.2-0.5,0.4-1,0.6-1.5
		c0.4-1,0.8-2,1.1-3c0.5-1.5,1-3.1,1.4-4.6c0.3-1,0.5-2.1,0.8-3.1c0.6-2.6,1-5.3,1.3-8c0.1-1.1,0.2-2.2,0.2-3.2
		c0-1.1,0.1-2.2,0.1-3.2c0-1.6-0.1-3.3-0.2-4.9c-0.7-10.1-3.7-19.7-8.8-28.6c-2.8-4.9-6.3-9.5-10.2-13.5c-0.8-0.8-1.6-1.6-2.4-2.3
		c-1.2-1.1-2.5-2.2-3.7-3.2c-0.8-0.7-1.7-1.3-2.6-2c-0.6-0.4-1.2-0.8-1.8-1.2c-1.2-0.8-2.5-1.6-3.7-2.3c-0.9-0.5-1.9-1.1-2.8-1.6
		c-0.7-0.4-1.5-0.7-2.3-1.1c-0.7-0.3-1.4-0.6-2.1-0.9c-0.5-0.2-1-0.4-1.5-0.6c-1-0.4-2-0.8-3-1.1c-0.5-0.2-1-0.3-1.5-0.5
		c-1-0.3-2.1-0.6-3.1-0.9c-0.5-0.1-1-0.3-1.6-0.4c-2.1-0.5-4.2-0.9-6.3-1.2c-0.5-0.1-1.1-0.2-1.6-0.2c-1.1-0.1-2.2-0.2-3.2-0.3
		c-1.1-0.1-2.2-0.1-3.2-0.2c-0.5,0-1.1,0-1.7,0c-1.1,0-2.1,0-3.2,0.1c-10.7,0.5-20.8,3.5-30.2,8.9C697.8,928.7,691.3,934.3,686,941
		L686,941z"/>
	<g>
		<path class="st2" d="M1920.6,2123.9c-4.9,0-9.9-0.7-14.8-2.1c-23.3-6.8-39.2-27.5-39.5-51.6c0-3.9,0.3-8.1,0.6-12.3
			c0.1-0.6,0.1-1.3,0.2-1.9h-95.8c-0.2,2.5-0.3,4.9-0.3,7.3c-0.3,7.2-0.6,14.1-2.3,20.9c-5.7,22.1-25.6,38.2-48.6,39.1
			c-24,1-45-12.5-53.5-34.2c-8.6-22-2.1-46.8,15.6-60.3c7.3-5.5,7.4-9.2,4.1-17.6c-31.7-81.8-59.7-155-85.8-224
			c-3.1-8.2-6.4-10.5-14.2-9.8c-8.7,0.7-17.5,0.5-26,0.3c-2-0.1-4-0.1-6-0.1c-12.4-0.2-19.8-7.1-20.8-19.3
			c-0.4-5.2,1.2-10.1,4.5-13.8c3.9-4.3,9.8-6.7,16.6-6.9c8.7-0.2,17.6-0.1,26.2-0.1c8.7,0,17.8,0.1,26.6-0.1
			c11.8-0.3,19.4,5.1,23.5,16.2c1.7,4.7,3.5,9.3,5.3,13.9c3,7.6,6.1,15.4,8.5,23.3c2.3,7.5,5.8,9.8,14.7,9.8
			c85.5-0.3,172.4-0.2,256.4-0.2c21.9,0,43.8,0,65.7,0c1.1,0,2.2,0,3.3,0c2.9,0,5.9-0.1,8.8,0.2c7.7,0.6,13.8,3.7,17.3,8.7
			c3.4,4.9,4,11.3,1.8,18.3l0,0c-10.9,35.6-22.1,71.7-33,106.6c-4.8,15.3-9.5,30.5-14.3,45.8c-4.6,14.7-16.4,16.7-27.4,16.7
			c-0.1,0-0.1,0-0.2,0c-37.7-0.1-76.1,0.1-113.2,0.2c-29.1,0.1-59.2,0.2-88.8,0.2h-11.1c1.9,8.8,3.1,13.8,5.7,16.1
			c2.7,2.4,7.9,2.8,18.4,2.8c23.8,0,48.1-0.1,71.6-0.1c31.9-0.1,64.9-0.2,97.4-0.1c23,0.1,39.8,9.7,50.1,28.8
			c9.7,18,9.1,36.2-1.8,54.1C1956.2,2114.5,1938.8,2123.9,1920.6,2123.9z M1766.3,2050.7h106.4l-0.2,2.8c-0.1,1.6-0.2,3.2-0.4,4.8
			c-0.3,4-0.6,8.2-0.6,11.8c0.2,21.7,14.6,40.4,35.6,46.5c20.7,6,43-2.6,54.3-21c9.9-16.1,10.4-32.5,1.7-48.8
			c-9.3-17.2-24.5-25.9-45.4-26c-32.5-0.1-65.5,0-97.4,0.1c-23.5,0.1-47.8,0.1-71.6,0.1c-23.6,0-24.9-2.5-29.7-25.3l-0.9-4.3h17.7
			c29.6,0,59.7-0.1,88.7-0.2c37.1-0.1,75.5-0.3,113.3-0.2c0.1,0,0.1,0,0.2,0c11,0,19-2.2,22.3-13c4.7-15.3,9.5-30.5,14.3-45.8
			c10.9-34.9,22.2-71,33-106.5c1.7-5.5,1.3-10.2-1.1-13.8c-2.5-3.7-7.2-5.9-13.3-6.4c-2.7-0.2-5.5-0.2-8.4-0.1c-1.1,0-2.2,0-3.3,0
			c-21.9,0-43.8,0-65.7,0c-84,0-170.9,0-256.4,0.2c-9.4,0-16.3-2.3-19.8-13.5c-2.4-7.7-5.4-15.4-8.4-22.9c-1.8-4.6-3.7-9.3-5.4-14
			c-3.3-9-8.9-12.9-18.3-12.7c-8.9,0.2-18,0.2-26.8,0.1c-8.5,0-17.4-0.1-26,0.1c-5.3,0.1-9.9,1.9-12.7,5.1c-2.4,2.6-3.5,6-3.2,9.8
			c0.8,9.4,6,14.2,15.6,14.4c2,0,4,0.1,6,0.1c8.4,0.2,17,0.4,25.4-0.3c11.8-1,16.4,4.6,19.7,13.3c26,69,54.1,142.2,85.8,224
			c3.8,9.7,3.9,16.3-5.9,23.8c-15.9,12.1-21.6,34.3-13.9,54.1c7.6,19.6,26.6,31.7,48.3,30.9c20.6-0.8,38.6-15.3,43.6-35.1
			c1.6-6.3,1.9-12.5,2.2-19.8c0.1-3.2,0.3-6.5,0.5-10L1766.3,2050.7z"/>
		<path class="st2" d="M1727.7,1960.1c-5.5,0-10.9,0-16.3-0.2c-3.4-0.1-7.9-3.1-9.2-6.2c-5.9-14.2-10.9-26.3-16.7-43.1l-1.2-3.5
			h82.3l0.2,2.5c0.9,11.3,1.7,21.2,2.7,31.5c0.4,5.1,0.9,10.3,1.4,15.9l0.3,2.9h-2.9c-7.2,0-14.3,0.1-21.1,0.1
			C1740.5,1960,1734.1,1960.1,1727.7,1960.1z M1691.8,1912.4c5.2,14.9,9.9,26.2,15.3,39.3c0.5,1.2,3.1,2.9,4.4,2.9
			c11.7,0.2,23.3,0.1,35.6,0c5.9-0.1,12-0.1,18.2-0.1c-0.4-4.5-0.8-8.8-1.1-13c-0.9-9.6-1.7-18.8-2.5-29.1L1691.8,1912.4
			L1691.8,1912.4z"/>
		<path class="st2" d="M1717.6,2088.7c-0.5,0-1,0-1.5-0.1c-10.8-1.1-17.3-7.9-17.9-18.8l0,0c-0.3-4.9,1.7-9.8,5.4-13.4
			c3.9-3.8,9.2-5.8,14.4-5.4c10.2,0.7,16.7,7.1,18.2,17.8l0,0.2v0.2c0,5.5-2.5,10.9-6.8,14.8
			C1725.9,2087,1721.7,2088.7,1717.6,2088.7z M1716.7,2056.3c-3.4,0-6.8,1.4-9.4,3.9c-2.6,2.6-4,5.9-3.8,9.3l0,0
			c0.4,8.2,5,13,13.2,13.8c3.1,0.3,6.4-0.9,9.1-3.3c3.1-2.8,5-6.8,5-10.7c-1.2-8.2-5.5-12.5-13.2-13
			C1717.3,2056.3,1717,2056.3,1716.7,2056.3z"/>
		<path class="st2" d="M1919.7,2088.7c-4.5,0-9-1.9-12.6-5.5c-3.9-3.9-6-8.9-5.7-13.8c0.7-10.9,7.1-17.5,18.1-18.6l0.2,0
			c5.5-0.2,10.8,2,14.6,5.9c3.5,3.6,5.3,8.3,5,13.1c-0.7,10.9-7.3,17.7-18.1,18.7C1920.6,2088.7,1920.2,2088.7,1919.7,2088.7z
			 M1919.9,2056.2c-8.2,0.9-12.7,5.4-13.2,13.6c-0.2,3.3,1.3,6.9,4.1,9.6c2.8,2.8,6.5,4.2,9.8,3.9l0,0c8.2-0.8,12.7-5.5,13.3-13.7
			c0.2-3.3-1-6.5-3.5-9.1C1927.7,2057.7,1923.8,2056.1,1919.9,2056.2z"/>
		<path class="st2" d="M1766,1895.5h-25c-5.9,0-11.9-0.1-17.7-0.1c-10.6-0.1-21.5-0.2-32.2,0c-8.7,0.2-13.6-3.1-16.2-11
			c-5.1-15.4-11.1-31-16.7-44.1l-1.6-3.7H1761l0.2,2.4c1.5,16.9,2.9,33.8,4.6,53.5L1766,1895.5z M1705.6,1889.9
			c6,0,11.9,0.1,17.7,0.1c5.8,0.1,11.8,0.1,17.7,0.1h19.2c-1.5-17.6-2.8-32.9-4.1-48.2h-91.5c5.3,12.5,10.5,26.5,15.3,40.8
			c1.9,5.7,4.6,7.5,11,7.3C1695.8,1889.9,1700.7,1889.9,1705.6,1889.9z"/>
		<path class="st2" d="M1853.8,1960.3h-70.3l-0.2-2.5c-0.7-9.5-1.4-18-2.2-26.9c-0.6-6.8-1.1-13.6-1.7-21l-0.2-2.9h78.9l-0.2,2.9
			c-0.6,8-1.2,15.5-1.8,22.7c-0.7,8-1.3,16.3-2,25.2L1853.8,1960.3z M1788.4,1954.9h60.5c0.6-8,1.2-15.5,1.8-22.8
			c0.5-6.3,1.1-12.9,1.6-19.8h-67.3c0.5,6.3,1,12.2,1.5,18.1C1787.1,1938.6,1787.7,1946.4,1788.4,1954.9z"/>
		<path class="st2" d="M1859.6,1895.5h-81l-0.2-2.4c0-0.4-3.3-39.6-4.4-53.5l-0.2-2.9h89.8l-0.2,2.9c-1.1,13.9-3,42.9-3,43.2
			L1859.6,1895.5z M1783.5,1890.1h71.1l0.4-7.8c0-0.3,1.7-25.7,2.8-40.4h-78.3C1780.5,1855.3,1782.8,1882,1783.5,1890.1z"/>
		<path class="st2" d="M1908.6,1894.7c-5.5,0-11.1,0-16.7,0c-5.8,0-11.6,0-17.5,0h-2.9l0.2-2.8c0.4-5.9,0.8-11.8,1.3-17.7
			c0.9-12.2,1.7-23.7,2.6-35l0.2-2.5h97.2l-1,3.4c-5.5,19.2-9.6,32.5-14.4,45.9c-1.5,4.1-7.3,8.4-11.6,8.5
			C1933.6,1894.6,1921.3,1894.7,1908.6,1894.7z M1877.3,1889.3c4.9,0,9.8,0,14.6,0c18.6,0,36.3,0.1,54-0.3c2.1-0.1,6-2.9,6.7-4.9
			c4.4-12.4,8.3-24.8,13.3-42.1h-85.2c-0.8,10.5-1.6,21.2-2.4,32.5C1878,1879.4,1877.7,1884.4,1877.3,1889.3z"/>
		<path class="st2" d="M1904.7,1960.2c-5.6,0-11.3,0-17.1-0.1c-6,0-12.2-0.1-18.6-0.1h-2.9l0.2-2.9c0.5-5.5,0.9-10.7,1.3-15.7
			c0.9-10.6,1.8-20.6,2.7-32l0.2-2.5h80.4l-1.1,3.5c-2,6.1-3.9,12.7-5.8,19c-2.5,8.3-5.1,16.8-7.8,24.9c-1.2,3.4-6.6,5.6-9.8,5.7
			C1919.1,1960.2,1911.9,1960.2,1904.7,1960.2z M1871.9,1954.8c5.4,0,10.6,0,15.7,0.1c13.3,0.1,25.9,0.1,38.6-0.1
			c1.8,0,4.4-1.4,4.9-2.2c2.7-7.9,5.3-16.4,7.7-24.6c1.6-5.2,3.1-10.5,4.8-15.6h-68.1c-0.8,10.4-1.6,19.8-2.5,29.6
			C1872.7,1946.2,1872.3,1950.4,1871.9,1954.8z"/>
	</g>
	<path class="st2" d="M2159.4,1030.9c-52.4,0-101.7-20.4-138.8-57.5c-37.1-37.1-57.5-86.4-57.5-138.8c0-52.4,20.4-101.7,57.5-138.8
		c37.1-37.1,86.4-57.5,138.8-57.5c52.4,0,101.7,20.4,138.8,57.5c37.1,37.1,57.5,86.4,57.5,138.8c0,52.4-20.4,101.7-57.5,138.8
		C2261.1,1010.5,2211.9,1030.9,2159.4,1030.9z M2159.4,643.6c-105.3,0-191,85.7-191,191s85.7,191,191,191s191-85.7,191-191
		S2264.7,643.6,2159.4,643.6z"/>
	<path class="st2" d="M2159.4,961.5c-70,0-127-57-127-127s57-127,127-127c70,0,127,57,127,127
		C2286.4,904.6,2229.4,961.5,2159.4,961.5z M2159.4,712.9c-67.1,0-121.7,54.6-121.7,121.7s54.6,121.7,121.7,121.7
		s121.7-54.6,121.7-121.7C2281.1,767.5,2226.5,712.9,2159.4,712.9z"/>
	<path class="st2" d="M2173.3,936.8h-27.1v-27.7c-14.7-1-29.1-4.5-42.8-10.4l-1.6-0.7v-41l3.9,2c8,4,16.7,7.5,26.1,10.2
		c9.3,2.7,17.5,4,24.4,4c5.5,0,9.5-0.6,11.9-1.9c1.9-1,2.7-2.5,2.7-4.8c0-1.5-0.6-2.7-2-3.8c-1.8-1.5-5-3.2-9.4-5.1
		c-4.6-2-10.9-4.5-18.7-7.3c-9.1-3.4-16.6-7.2-22.3-11.5c-5.8-4.3-10.1-9.3-12.7-14.8c-2.7-5.4-4-12.2-4-20.2
		c0-12.3,4.1-22.1,12.1-29.2c7.4-6.5,18.4-10.7,32.6-12.5v-23.7h27.1v23.3c13.4,1,27.1,4.5,40.6,10.4l2.4,1l-14.6,35l-2.5-1.1
		c-14.3-6.4-27.3-9.7-38.6-9.7c-6.4,0-9.2,0.9-10.5,1.7c-1.5,0.9-2.1,2-2.1,3.8c0,1.6,0.5,2.8,1.6,3.8c1,0.9,3.2,2.4,7.9,4.6
		c4,1.8,9.6,4,16.7,6.4c15,5.3,26,11.5,32.6,18.4c6.9,7.1,10.3,16.4,10.3,27.5c0,12.5-4,22.8-12,30.6c-7.4,7.3-18.2,12.1-31.9,14.1
		L2173.3,936.8L2173.3,936.8z M2151.6,931.5h16.5v-27.9l2.3-0.3c13.6-1.7,24.1-6,31.1-12.9s10.4-15.7,10.4-26.8
		c0-9.8-2.9-17.6-8.8-23.8c-6.1-6.3-16.4-12-30.6-17.1c-7.3-2.5-13-4.7-17.2-6.6c-4.4-2-7.4-3.8-9.3-5.5c-2.2-2-3.3-4.6-3.3-7.7
		c0-3.6,1.6-6.5,4.7-8.3c2.7-1.6,7.1-2.4,13.2-2.4c11.4,0,24.3,3,38.3,9l10.5-25c-13-5.3-26.1-8.4-38.9-9.1l-2.5-0.1v-23h-16.5v23.1
		l-2.4,0.3c-14.3,1.5-25,5.3-32,11.5c-6.9,6-10.3,14.3-10.3,25.2c0,7.1,1.2,13.1,3.5,17.8c2.3,4.7,6,9,11.2,12.8
		c5.3,3.9,12.3,7.5,20.9,10.7c7.9,2.9,14.3,5.4,19,7.4c4.9,2.2,8.4,4.1,10.6,5.8c2.6,2.1,4,4.9,4,8c0,4.4-1.9,7.7-5.6,9.6
		c-3.2,1.7-7.9,2.5-14.3,2.5c-7.4,0-16.2-1.4-25.9-4.3c-8.2-2.4-15.9-5.3-23.1-8.7v28.9c13.4,5.6,27.5,8.8,41.9,9.4l2.5,0.1
		L2151.6,931.5L2151.6,931.5z"/>
	<path class="st2" d="M448.3,429.9c-2.9,0-5.6-0.9-7.9-2.7l-17.3-13c-2.8-2.1-4.6-5.2-5.1-8.7s0.4-7,2.5-9.8l61-80.7
		c4.4-5.8,12.7-7,18.5-2.6l17.3,13c2.8,2.1,4.6,5.2,5.1,8.7s-0.4,7-2.5,9.8l-61,80.7c-2.1,2.8-5.2,4.6-8.7,5.1
		C449.5,429.8,448.9,429.9,448.3,429.9z M443.5,423c1.7,1.3,3.8,1.8,5.8,1.5c2.1-0.3,4-1.4,5.2-3l61-80.7c1.3-1.7,1.8-3.8,1.5-5.8
		c-0.3-2.1-1.4-4-3-5.2l-17.3-13c-3.5-2.6-8.4-1.9-11.1,1.5l-61,80.7c-1.3,1.7-1.8,3.8-1.5,5.8c0.3,2.1,1.4,4,3,5.2L443.5,423z"/>
	<path class="st2" d="M706,461c-5.1,0-9.9-2.9-12.1-7.9l-40.6-92c-1.4-3.2-1.5-6.8-0.2-10.1s3.8-5.9,7-7.3l19.6-8.6
		c6.7-2.9,14.5,0.1,17.4,6.8l40.6,92c2.9,6.7-0.1,14.5-6.8,17.4l-19.6,8.6C709.6,460.6,707.8,461,706,461z M685,339.3
		c-1.1,0-2.1,0.2-3.2,0.7l-19.6,8.6c-1.9,0.9-3.4,2.4-4.2,4.4c-0.8,2-0.7,4.1,0.1,6l40.6,92c1.8,4,6.4,5.8,10.4,4l19.6-8.6
		c4-1.8,5.8-6.4,4-10.4l-40.6-92C691,341,688,339.3,685,339.3z"/>
	<path class="st2" d="M583.5,522.8c-10.7,0-21.4-5.9-23.9-7.3c-2.6-0.4-5.3-1-8.1-1.8l-0.9,1c-5.8,6.1-15.4,6.3-21.5,0.6
		c-4.5-4.3-5.9-10.7-3.8-16.4c-0.5-0.4-1.1-0.9-1.7-1.4c-3.7,2.1-8.5,1.6-11.7-1.4c-1.9-1.8-3-4.3-3.1-6.9c0-1.7,0.3-3.3,1.1-4.8
		c-0.2-0.2-0.4-0.5-0.6-0.7c-2.8,2.7-6.5,4.3-10.5,4.4c-4.2,0.1-8.2-1.4-11.3-4.3c-3-2.9-4.8-6.8-4.9-11c-0.1-3.5,0.9-6.8,2.9-9.6
		c-3.9,0.2-7.8-1.1-10.8-3.9c-2.8-2.6-4.4-6.2-4.5-10c-0.1-3.8,1.3-7.5,3.9-10.3l1.5-1.5c-1.5-2.6-2.4-4.3-2.6-4.7L462.1,415
		l52.7-69.8l1.6,4.7c1.9,5.6,9.8,9.1,13.1,10.6c0.3,0.1,0.6,0.3,0.8,0.4c4.7,1.4,9.4,3,14.1,4.8c5.7-5.5,9.8-8.9,10-9l0.5-0.4
		l0.6-0.1c36-8.8,71.6,6.7,73.1,7.4c20.6,8.5,26.2,5.2,27,4.6l2.4-5.4l2.2,5.9l33.5,75.5l-1.4,1.3c-12,11-18.5,14.7-22.1,15.8l0.1,1
		c0.9,8.9-1,15.1-5.4,18.7c-6.1,4.8-14.7,2.4-16.5,1.9c-0.9,6.3-3.4,10.8-7.4,13.3c-4.7,2.9-10.1,2.2-12.9,1.5
		c-0.9,6.3-3.4,10.8-7.6,13.3c-6,3.6-13.3,1.7-15.3,1c-1.4,2.7-5.1,5.5-11.5,8.7C590.4,522.2,586.9,522.8,583.5,522.8z M550,507.5
		l1.6,0.6c3.1,1.1,6.2,1.8,9.2,2.2l0.6,0.1l0.5,0.3c0.2,0.1,18,10.9,29.3,5.2c5.9-2.9,8-4.9,8.8-5.9l-27-21.1l3.2-4.3l30.5,22.2
		c1.3,0.4,6.8,2,11-0.5c2.5-1.5,4.1-4.3,4.9-8.4l-36.6-29.4l3.2-4.2l39.1,27.9c1.2,0.4,6.1,1.8,9.8-0.6c2.7-1.7,4.3-5,4.9-9.8
		l-41-33.7l3.3-4.2l44.7,33.9c1.5,0.5,7.6,2,11.4-1c2.8-2.2,4-6.6,3.5-13c-2.5-2.4-11.1-10.6-22-20.8l3.5-4l21,17.4
		c1,0,5.8-1,19.7-13.5l-30.7-69.2c-4.1,1.6-12.7,2-30-5.2c-0.4-0.2-35.2-15.3-69.1-7.2c-1.3,1.1-5.4,4.6-10.4,9.5l-1.2,1.2l-1.6-0.6
		c-5.1-2-10.3-3.8-15.5-5.4l-0.3-0.1c-0.3-0.1-0.6-0.3-0.9-0.4c-3.2-1.4-10-4.5-13.8-9.7l-45,59.6l9.1,14.8c0,0,1.3,2.4,3.6,6.3
		l1,1.7l-4.2,4.5c-1.6,1.7-2.5,4-2.5,6.5s1.1,4.7,2.8,6.3c3.3,3.1,8.4,3.3,11.9,0.4l2.2-1.8l1.6,2.3c0.3,0.4,0.5,0.8,0.8,1.2
		l1.3,1.8l-5.5,5.8c-4,4.2-3.8,10.8,0.4,14.8c2,1.9,4.7,2.9,7.5,2.9c2.8-0.1,5.4-1.2,7.3-3.3l3.5-3.6l1.9,2.1
		c1.3,1.4,2.6,2.9,3.9,4.2l1.7,1.8l-1.6,1.8c-0.8,0.9-1.2,2-1.1,3.1c0,1.2,0.5,2.4,1.4,3.2c1.8,1.7,4.5,1.7,6.3,0l1.8-1.7l1.8,1.6
		c1.6,1.4,3.2,2.7,4.7,3.9l1.8,1.4l-1.1,2c-2.2,4-1.5,8.9,1.8,12c4,3.8,10.2,3.6,14-0.4L550,507.5z M655.5,368.3L655.5,368.3
		L655.5,368.3z"/>
	<path class="st2" d="M2127.3,468.2l-2.4,1l-329.4,139.6l-82.8-195.3l2.4-1l329.4-139.6L2127.3,468.2z M1798.3,601.8l322-136.5
		l-78.6-185.5l-322,136.5L1798.3,601.8z"/>
	<path class="st2" d="M2047.2,271.7L1930,466.8l-218.7-52.7L2047.2,271.7z M1927.5,460.7L2034.2,283l-305.9,129.7L1927.5,460.7z"/>
	<path class="st2" d="M2129.3,467.3l-334.1,141.6l80.7-161.5l51.4,12.6l26.1-43.7L2129.3,467.3z M1806.4,598.4l307-130.1
		l-157.6-45.5l-26,43.5l-51.1-12.6L1806.4,598.4z"/>
	<ellipse class="st4" cx="1315.8" cy="4409.3" rx="1047.7" ry="232.8"/>
	<path class="st5" d="M1772.4,1539.8c-323.3-20-337.4,217.6-332,303.7L1291,1993l25.9,25.9l142.8-142.8
		C1812.3,1915,1772.4,1539.8,1772.4,1539.8z"/>
	<g>
		<path class="st6" d="M1772.4,1539.8c-323.3-20-337.4,217.6-332,303.7L1291,1993l12.8,12.8l468.7-464.9
			C1772.4,1540.2,1772.4,1539.8,1772.4,1539.8z"/>
	</g>
	<path class="st6" d="M1317.8,1754.7l-138.9-138.9c5-80.1-8-301-308.6-282.3c0,0-37.1,348.7,290.7,312.6l132.8,132.8L1317.8,1754.7z
		"/>
	<g>
		<g>
			<path class="st5" d="M870.7,1333.4c300.6-18.6,313.6,202.3,308.6,282.3l138.9,138.9l-11.9,11.9l-435.8-432.2
				C870.7,1333.8,870.7,1333.4,870.7,1333.4z"/>
		</g>
	</g>
	<polygon class="st7" points="2052.8,3154.4 2019.7,3477.1 2019.6,3478 2011.4,3579.3 1943.7,4409.3 694.4,4409.3 626.7,3579.3 
		618.5,3478 618.4,3477.1 595.2,3154.4 	"/>
	
		<rect x="1052.4" y="1977" transform="matrix(0.6772 -0.7358 0.7358 0.6772 -1331.0466 1528.4922)" class="st8" width="48.3" height="608.5"/>
	
		<rect x="1072.9" y="1968.4" transform="matrix(0.6772 -0.7358 0.7358 0.6772 -1322.0198 1531.9218)" class="st9" width="24.1" height="608.5"/>
	
		<rect x="1178.9" y="2268.3" transform="matrix(0.7358 -0.6772 0.6772 0.7358 -1118.1449 1722.7024)" class="st8" width="939.6" height="52.2"/>
	
		<rect x="1169.7" y="2272.3" transform="matrix(0.7358 -0.6772 0.6772 0.7358 -1114.4485 1714.0524)" class="st9" width="939.6" height="26.1"/>
	<g>
		<g>
			<g>
				<polygon class="st10" points="595.2,3154.4 618.4,3477.1 618.5,3478 626.7,3579.3 694.4,4409.3 1324,4409.3 1324,3154.4 				"/>
			</g>
		</g>
	</g>
	<polygon class="st11" points="2019.6,3473.9 2011.4,3579.1 626.7,3579.1 618.4,3473.9 	"/>
	<rect x="1285.3" y="1205.5" class="st8" width="37.4" height="1969.5"/>
	<rect x="1304.1" y="1205.5" class="st9" width="18.7" height="1969.5"/>
	<path class="st7" d="M2041.3,3498.6H590.2c-39,0-70.7-31.6-70.7-70.7v-203.6c0-39,31.7-70.7,70.7-70.7h1451.2
		c39,0,70.7,31.6,70.7,70.7v203.6C2112,3466.9,2080.4,3498.6,2041.3,3498.6z"/>
	<path class="st10" d="M1315.8,3498.6H590.1c-39,0-70.6-31.6-70.6-70.6v-203.8c0-39,31.6-70.6,70.6-70.6h725.7V3498.6z"/>
	<g>
		<polygon class="st12" points="577.8,3148.4 682.9,3226.7 861,3227.7 989.9,3142.9 989.1,3092.7 577,3099.6 		"/>
		<path class="st13" d="M577.6,3139.4l0.1,3.5c1.1,32.5,18.5,57,47.5,75.9c2,1.3,4,2.6,6.1,3.8c83.7,49.9,233.2,46.6,312.1-7.8
			c33.2-22.9,53.1-52.1,44.4-98.5c-54.1,104.1-255.9,121.1-357.3,58.6c-23.2-14.3-43.3-30.2-53.1-52.9
			C577.5,3129.4,577.6,3133,577.6,3139.4z"/>
		<path class="st13" d="M574.5,3083.7c1.1,62.9,95.1,112.4,210.1,110.5s207.4-54.5,206.3-117.5s-95.2-112.4-210.1-110.5
			C665.7,2968.2,573.4,3020.8,574.5,3083.7z"/>
		<path class="st2" d="M661.1,3141.3c-34.1-15.8-53.1-37.7-53.5-61.5s17.8-46.3,51.4-63.3c32.5-16.5,75.9-25.9,122.1-26.7
			c46.2-0.8,89.8,7.3,122.9,22.6c34.1,15.8,53.1,37.7,53.5,61.5s-17.8,46.3-51.4,63.3c-32.5,16.5-75.9,25.9-122.1,26.7
			C737.8,3164.7,694.2,3156.7,661.1,3141.3z M663,3024.3c-30.4,15.4-46.9,35-46.5,55.4c0.3,20.3,17.5,39.4,48.4,53.8
			c31.9,14.8,74.1,22.5,119,21.8c44.9-0.8,86.9-9.9,118.2-25.8c30.4-15.4,46.9-35,46.5-55.4s-17.5-39.4-48.4-53.8
			c-31.9-14.8-74.1-22.5-119-21.8C736.4,2999.3,694.4,3008.4,663,3024.3z"/>
		<path class="st2" d="M700,3077c-2.3,14.3-1.5,29.3,2.8,45.1l42.8-0.7c-4.3-9.1-7.6-18.6-9.9-28.2c-2.1-9.1-2.8-16.7-2.1-23
			c0.6-5,1.7-8.6,3.4-10.8c1.7-2.2,4.2-3.3,7.6-3.4c2.3,0,4.2,0.7,5.8,2.3c1.5,1.6,3.3,4.2,5.2,8c2,3.9,4.4,9.3,7.3,16.5
			c3.5,8.4,7.8,15.5,12.6,21.1c5,5.8,10.7,10.1,17,12.8c6.4,2.7,14.3,4.1,23.6,3.9c14.2-0.2,24.4-4.7,30.5-13
			c5.8-8,7.5-19.2,5.6-32.9l25-0.4l-6.3-18.1l-23.3,0.4c-3.6-10.6-9.4-20.4-17.3-29.6l-26.2,8.7c7.7,10.2,12.6,20.1,14.1,29.5
			c0.8,4.7,0.6,8.2-0.5,10.2c-1.2,2.1-3.2,3.1-6.1,3.2c-2.5,0-4.7-0.7-6.5-2.1c-1.8-1.4-3.8-3.9-6.2-7.4c-2.3-3.4-4.9-8-7.8-13.6
			c-5.8-10.9-11.8-18.1-18.1-22.3c-6.1-4.1-13.8-6-23.3-5.8c-10.7,0.2-19.7,2.7-27.2,7.7c-7.8,5.2-13.8,13.1-17.8,24l-28.4,0.5
			l-5.7,18.3L700,3077z"/>
		<path class="st14" d="M577.6,3139.4l0.1,3.5c1.1,32.5,18.5,57,47.5,75.9c2,1.3,4,2.6,6.1,3.8l-0.8-47.8
			c-46.4-28.2-53.1-52.9-53.1-52.9S577.6,3133,577.6,3139.4z"/>
	</g>
	<g>
		<polygon class="st12" points="1353.4,2972.7 1458.4,3051 1636.6,3052 1765.4,2967.2 1764.6,2917 1352.6,2923.9 		"/>
		<path class="st13" d="M1353.2,2963.7l0.1,3.5c1.1,32.5,18.5,57,47.5,75.9c2,1.3,4,2.6,6.1,3.8c83.7,49.9,233.2,46.6,312.1-7.8
			c33.2-22.9,53.1-52.1,44.4-98.5c-54.1,104.1-255.9,121.1-357.3,58.6c-23.2-14.3-43.3-30.2-53.1-52.9
			C1353.1,2953.8,1353.2,2957.3,1353.2,2963.7z"/>
		<path class="st13" d="M1350,2908c1.1,62.9,95.1,112.4,210.1,110.5s207.4-54.5,206.3-117.5s-95.2-112.4-210.2-110.5
			C1441.3,2792.5,1348.9,2845.1,1350,2908z"/>
		<path class="st2" d="M1436.7,2965.6c-34.1-15.8-53.1-37.7-53.5-61.5c-0.4-23.9,17.8-46.3,51.4-63.3
			c32.5-16.5,75.9-25.9,122.1-26.7c46.2-0.8,89.8,7.3,122.9,22.6c34.1,15.8,53.1,37.7,53.5,61.5c0.4,23.9-17.8,46.3-51.4,63.3
			c-32.5,16.5-75.9,25.9-122.1,26.7C1513.4,2989,1469.7,2981,1436.7,2965.6z M1438.6,2848.6c-30.4,15.4-46.9,35-46.6,55.4
			c0.3,20.3,17.5,39.4,48.4,53.8c31.9,14.8,74.1,22.5,119,21.8c44.9-0.8,86.9-9.9,118.2-25.8c30.4-15.4,46.9-35,46.6-55.4
			s-17.5-39.4-48.4-53.8c-31.9-14.8-74.1-22.5-119-21.8C1511.9,2823.6,1469.9,2832.7,1438.6,2848.6z"/>
		<path class="st2" d="M1475.6,2901.3c-2.3,14.3-1.5,29.3,2.8,45.1l42.8-0.7c-4.3-9.1-7.6-18.6-9.9-28.2c-2.1-9.1-2.8-16.7-2.1-23
			c0.6-5,1.7-8.6,3.4-10.8c1.7-2.2,4.2-3.3,7.6-3.4c2.3,0,4.2,0.7,5.8,2.3c1.5,1.6,3.3,4.2,5.2,8c2,3.9,4.4,9.3,7.3,16.5
			c3.6,8.4,7.8,15.5,12.6,21.1c5,5.8,10.7,10.1,17,12.8c6.4,2.7,14.3,4.1,23.6,3.9c14.2-0.2,24.4-4.7,30.5-13
			c5.8-8,7.5-19.2,5.6-32.9l25-0.4l-6.3-18.1l-23.3,0.4c-3.6-10.6-9.4-20.4-17.3-29.6l-26.2,8.7c7.7,10.2,12.6,20.1,14.1,29.5
			c0.8,4.7,0.6,8.2-0.5,10.2c-1.2,2.1-3.2,3.1-6.1,3.2c-2.5,0-4.7-0.7-6.5-2.1c-1.8-1.4-3.8-3.9-6.2-7.4c-2.3-3.4-4.9-8-7.8-13.6
			c-5.8-10.9-11.8-18.1-18.1-22.3c-6.1-4.1-13.8-6-23.3-5.8c-10.7,0.2-19.7,2.7-27.2,7.7c-7.8,5.2-13.8,13.1-17.8,24l-28.4,0.5
			l-5.7,18.3L1475.6,2901.3z"/>
		<path class="st14" d="M1353.2,2963.7l0.1,3.5c1.1,32.5,18.5,57,47.5,75.9c2,1.3,4,2.6,6.1,3.8l-0.8-47.8
			c-46.4-28.2-53.1-52.9-53.1-52.9S1353.2,2957.3,1353.2,2963.7z"/>
	</g>
	<g>
		<polygon class="st12" points="1099.1,3007.3 1204.2,3085.6 1382.3,3086.6 1511.2,3001.8 1510.3,2951.5 1098.3,2958.4 		"/>
		<path class="st13" d="M1098.9,2998.3l0.1,3.5c1.1,32.5,18.5,57,47.5,75.9c2,1.3,4,2.6,6.1,3.8c83.7,49.9,233.2,46.6,312.1-7.8
			c33.2-22.9,53.1-52.1,44.4-98.5c-54.1,104.1-255.9,121.1-357.3,58.6c-23.2-14.3-43.3-30.2-53.1-52.9
			C1098.8,2988.3,1098.9,2991.9,1098.9,2998.3z"/>
		<path class="st13" d="M1095.7,2942.6c1.1,62.9,95.1,112.4,210.1,110.5s207.4-54.5,206.3-117.5s-95.2-112.4-210.2-110.5
			C1187,2827.1,1094.7,2879.6,1095.7,2942.6z"/>
		<path class="st2" d="M1182.4,3000.2c-34.1-15.8-53.1-37.7-53.5-61.5c-0.4-23.9,17.8-46.3,51.4-63.3
			c32.5-16.5,75.9-25.9,122.1-26.7c46.2-0.8,89.8,7.3,122.9,22.6c34.1,15.8,53.1,37.7,53.5,61.5c0.4,23.9-17.8,46.3-51.4,63.3
			c-32.5,16.5-75.9,25.9-122.1,26.7C1259.1,3023.6,1215.5,3015.5,1182.4,3000.2z M1184.3,2883.1c-30.4,15.4-46.9,35-46.6,55.4
			c0.3,20.3,17.5,39.4,48.4,53.8c31.9,14.8,74.1,22.5,119,21.8c44.9-0.8,86.9-9.9,118.2-25.8c30.4-15.4,46.9-35,46.6-55.4
			s-17.5-39.4-48.4-53.8c-31.9-14.8-74.1-22.5-119-21.8C1257.7,2858.1,1215.7,2867.3,1184.3,2883.1z"/>
		<path class="st2" d="M1221.3,2935.9c-2.3,14.3-1.5,29.3,2.8,45.1l42.8-0.7c-4.3-9.1-7.6-18.6-9.9-28.2c-2.1-9.1-2.8-16.7-2.1-23
			c0.6-5,1.7-8.6,3.4-10.8c1.7-2.2,4.2-3.3,7.6-3.4c2.3,0,4.2,0.7,5.8,2.3c1.5,1.6,3.3,4.2,5.2,8c2,3.9,4.4,9.3,7.3,16.5
			c3.6,8.4,7.8,15.5,12.6,21.1c5,5.8,10.7,10.1,17,12.8c6.4,2.7,14.3,4.1,23.6,3.9c14.2-0.2,24.4-4.7,30.5-13
			c5.8-8,7.5-19.2,5.6-32.9l25-0.4l-6.3-18.1l-23.3,0.4c-3.6-10.6-9.4-20.4-17.3-29.6l-26.2,8.7c7.7,10.2,12.6,20.1,14.1,29.5
			c0.8,4.7,0.6,8.2-0.5,10.2c-1.2,2.1-3.2,3.1-6.1,3.2c-2.5,0-4.7-0.7-6.5-2.1c-1.8-1.4-3.8-3.9-6.2-7.4c-2.3-3.4-4.9-8-7.8-13.6
			c-5.8-10.9-11.8-18.1-18.1-22.3c-6.1-4.1-13.8-6-23.3-5.8c-10.7,0.2-19.7,2.7-27.2,7.7c-7.8,5.2-13.8,13.1-17.8,24l-28.4,0.5
			l-5.7,18.3L1221.3,2935.9z"/>
		<path class="st14" d="M1098.9,2998.3l0.1,3.5c1.1,32.5,18.5,57,47.5,75.9c2,1.3,4,2.6,6.1,3.8l-0.8-47.8
			c-46.4-28.2-53.1-52.9-53.1-52.9S1098.9,2991.9,1098.9,2998.3z"/>
	</g>
	<g>
		<polygon class="st12" points="1325.2,3146.4 1205.3,3199.2 1031.4,3160.4 924.8,3048.9 936.8,3000.2 1336.9,3099 		"/>
		<path class="st13" d="M1327.4,3137.7l-0.8,3.4c-8.4,31.5-30.8,51.4-63.3,63.4c-2.2,0.8-4.5,1.6-6.8,2.3
			c-92.7,30-237.7-6.7-302.4-77.4c-27.3-29.8-40.1-62.6-21.3-106c29.5,113.5,222.3,175.3,335.2,136.9c25.9-8.8,49-19.8,63.5-39.6
			C1329.7,3128,1328.8,3131.5,1327.4,3137.7z"/>
		<path class="st13" d="M1342.9,3084.1c-15.1,61.1-117.8,88.3-229.5,60.7s-189.9-99.5-174.8-160.6c15.1-61.1,117.9-88.3,229.5-60.7
			C1279.8,2951.1,1358,3023,1342.9,3084.1z"/>
		<path class="st2" d="M1120.7,3115.4c-44.9-11.1-85-30-113-53.3c-28.9-24-41.6-50-35.9-73.2c5.7-23.1,29.1-40.2,65.9-48
			c35.7-7.6,80-5.6,124.9,5.4c44.9,11.1,85,30,113,53.3c28.9,24,41.6,50,35.9,73.2s-29.1,40.2-65.9,48
			C1209.9,3128.5,1165.6,3126.5,1120.7,3115.4z M1160.4,2954.8c-43.6-10.8-86.5-12.7-120.9-5.4c-33.3,7.1-54.3,21.8-59.2,41.6
			s6.8,42.6,33,64.4c27,22.5,65.9,40.8,109.5,51.6c43.6,10.8,86.5,12.7,120.9,5.4c33.3-7.1,54.3-21.8,59.2-41.6s-6.8-42.6-33-64.4
			C1242.8,2983.9,1204,2965.6,1160.4,2954.8z"/>
		<path class="st2" d="M1222,3049.5c-0.9,14.5-5.1,28.9-12.8,43.3l-41.6-10.3c6.3-7.9,11.6-16.4,15.9-25.3c4.1-8.4,6.5-15.7,7.2-22
			c0.6-5,0.3-8.8-0.9-11.3c-1.1-2.5-3.3-4.2-6.6-5c-2.3-0.6-4.3-0.3-6.1,0.9c-1.8,1.2-4.1,3.4-6.8,6.7c-2.8,3.4-6.4,8.1-10.8,14.4
			c-5.3,7.4-11,13.4-17,17.8c-6.2,4.5-12.7,7.4-19.4,8.7c-6.8,1.2-14.8,0.8-23.8-1.5c-13.8-3.4-22.8-10-26.8-19.5
			c-3.8-9.1-3.1-20.4,1.9-33.4l-24.3-6l10.2-16.3l22.7,5.6c5.8-9.5,13.8-17.8,23.5-25l23.6,14.3c-9.8,8.2-16.7,16.8-20.3,25.6
			c-1.8,4.4-2.4,7.8-1.8,10.1c0.7,2.3,2.4,3.8,5.2,4.4c2.4,0.6,4.7,0.4,6.8-0.6c2.1-1,4.6-2.9,7.7-5.8c3-2.8,6.6-6.7,10.7-11.6
			c8.1-9.3,15.6-15,22.7-17.7c6.9-2.6,14.8-2.7,24-0.5c10.3,2.6,18.5,7,24.8,13.6c6.5,6.8,10.5,15.8,12,27.4l27.6,6.8l1.4,19.1
			L1222,3049.5z"/>
		<path class="st14" d="M1327.4,3137.7l-0.8,3.4c-8.4,31.5-30.8,51.4-63.3,63.4c-2.2,0.8-4.5,1.6-6.8,2.3l11.5-46.4
			c51.5-17.1,63.5-39.6,63.5-39.6S1328.8,3131.5,1327.4,3137.7z"/>
	</g>
	<g>
		<polygon class="st12" points="2081.7,3142.6 1961.8,3195.4 1787.9,3156.5 1681.3,3045.1 1693.3,2996.3 2093.4,3095.2 		"/>
		<path class="st13" d="M2083.9,3133.8l-0.8,3.4c-8.4,31.5-30.8,51.4-63.3,63.4c-2.2,0.8-4.5,1.6-6.8,2.3
			c-92.7,30-237.7-6.7-302.4-77.4c-27.3-29.8-40.1-62.6-21.3-106c29.5,113.5,222.3,175.3,335.2,136.9c25.9-8.8,49-19.8,63.5-39.6
			C2086.2,3124.1,2085.3,3127.6,2083.9,3133.8z"/>
		<path class="st13" d="M2099.4,3080.3c-15.1,61.1-117.8,88.3-229.5,60.7s-189.9-99.5-174.8-160.6s117.9-88.3,229.5-60.7
			C2036.3,2947.3,2114.5,3019.1,2099.4,3080.3z"/>
		<path class="st2" d="M1877.2,3111.6c-44.9-11.1-85-30-113-53.3c-28.9-24-41.6-50-35.9-73.2s29.1-40.2,65.9-48
			c35.7-7.6,80-5.6,124.9,5.4c44.9,11.1,85,30,113,53.3c28.9,24,41.6,50,35.9,73.2s-29.1,40.2-65.9,48
			C1966.4,3124.6,1922.1,3122.7,1877.2,3111.6z M1916.9,2951c-43.6-10.8-86.5-12.7-120.9-5.4c-33.3,7.1-54.3,21.8-59.2,41.6
			s6.8,42.6,33,64.4c27,22.5,65.9,40.8,109.5,51.6s86.5,12.7,120.9,5.4c33.3-7.1,54.3-21.8,59.2-41.6s-6.8-42.6-33-64.4
			C1999.3,2980.1,1960.5,2961.7,1916.9,2951z"/>
		<path class="st2" d="M1978.5,3045.7c-0.9,14.5-5.1,28.9-12.8,43.3l-41.6-10.3c6.3-7.9,11.6-16.4,15.9-25.3
			c4.1-8.4,6.5-15.7,7.2-22c0.6-5,0.3-8.8-0.9-11.3c-1.1-2.5-3.3-4.2-6.6-5c-2.3-0.6-4.3-0.3-6.1,0.9c-1.8,1.2-4.1,3.4-6.8,6.7
			c-2.8,3.4-6.4,8.1-10.8,14.4c-5.3,7.4-11,13.4-17,17.8c-6.2,4.5-12.7,7.4-19.4,8.7c-6.8,1.2-14.8,0.8-23.8-1.5
			c-13.8-3.4-22.8-10-26.8-19.5c-3.8-9.1-3.1-20.4,1.9-33.4l-24.3-6l10.2-16.3l22.7,5.6c5.8-9.5,13.8-17.8,23.5-25l23.6,14.3
			c-9.8,8.2-16.7,16.8-20.3,25.6c-1.8,4.4-2.4,7.8-1.8,10.1c0.7,2.3,2.4,3.8,5.2,4.4c2.4,0.6,4.7,0.4,6.8-0.6c2.1-1,4.6-2.9,7.7-5.8
			c3-2.8,6.6-6.7,10.7-11.6c8.1-9.3,15.6-15,22.7-17.7c6.9-2.6,14.8-2.7,24-0.5c10.3,2.6,18.5,7,24.8,13.6
			c6.5,6.8,10.5,15.8,12,27.4l27.6,6.8l1.4,19.1L1978.5,3045.7z"/>
		<path class="st14" d="M2083.9,3133.8l-0.8,3.4c-8.4,31.5-30.8,51.4-63.3,63.4c-2.2,0.8-4.5,1.6-6.8,2.3l11.5-46.4
			c51.5-17.1,63.5-39.6,63.5-39.6S2085.3,3127.6,2083.9,3133.8z"/>
	</g>
	<g>
		<polygon class="st12" points="705.8,3017.6 825.7,3070.5 999.6,3031.6 1106.2,2920.1 1094.2,2871.4 694.1,2970.2 		"/>
		<path class="st13" d="M703.6,3008.9l0.8,3.4c8.4,31.5,30.8,51.4,63.3,63.4c2.2,0.8,4.5,1.6,6.8,2.3c92.7,30,237.7-6.7,302.4-77.4
			c27.3-29.8,40.1-62.6,21.3-106c-29.5,113.5-222.3,175.3-335.2,136.9c-25.9-8.8-49-19.8-63.5-39.6
			C701.3,2999.2,702.2,3002.7,703.6,3008.9z"/>
		<path class="st13" d="M688.1,2955.3c15.1,61.1,117.8,88.3,229.5,60.7s189.9-99.5,174.8-160.6s-117.9-88.3-229.5-60.7
			C751.2,2822.3,673,2894.2,688.1,2955.3z"/>
		<path class="st2" d="M785.4,2992.1c-36.8-7.8-60.1-24.9-65.9-48c-5.7-23.1,7-49.1,35.9-73.2c28-23.3,68.2-42.3,113-53.3
			s89.2-13,124.9-5.4c36.8,7.8,60.1,24.9,65.9,48s-7,49.1-35.9,73.2c-28,23.3-68.2,42.3-113,53.3
			C865.4,2997.8,821.1,2999.7,785.4,2992.1z M761.1,2877.6c-26.2,21.8-37.9,44.6-33,64.4s25.9,34.5,59.2,41.6
			c34.4,7.3,77.3,5.4,120.9-5.4s82.5-29.1,109.5-51.6c26.2-21.8,37.9-44.6,33-64.4s-25.9-34.5-59.2-41.6
			c-34.4-7.3-77.3-5.4-120.9,5.4S788.2,2855.1,761.1,2877.6z"/>
		<path class="st2" d="M809,2920.7c0.9,14.5,5,28.9,12.8,43.3l41.6-10.3c-6.3-7.9-11.6-16.4-15.9-25.3c-4.1-8.4-6.5-15.7-7.2-22
			c-0.6-5-0.3-8.8,0.9-11.3c1.1-2.5,3.3-4.2,6.6-5c2.3-0.6,4.3-0.3,6.1,0.9c1.8,1.2,4.1,3.4,6.8,6.7c2.8,3.4,6.4,8.1,10.8,14.4
			c5.3,7.4,11,13.4,17,17.8c6.2,4.5,12.7,7.4,19.4,8.7c6.8,1.2,14.8,0.8,23.8-1.5c13.8-3.4,22.8-10,26.8-19.5
			c3.8-9.1,3-20.4-1.9-33.4l24.3-6l-10.2-16.3l-22.7,5.6c-5.8-9.5-13.8-17.8-23.5-25l-23.5,14.3c9.8,8.2,16.7,16.8,20.3,25.6
			c1.8,4.4,2.4,7.8,1.8,10.1c-0.7,2.3-2.4,3.8-5.2,4.4c-2.4,0.6-4.7,0.4-6.8-0.6c-2.1-1-4.6-2.9-7.7-5.8c-3-2.8-6.6-6.7-10.7-11.6
			c-8.1-9.3-15.6-15-22.7-17.7c-6.9-2.6-14.8-2.7-24-0.5c-10.3,2.6-18.5,7-24.8,13.6c-6.5,6.8-10.5,15.8-12,27.4l-27.6,6.8
			l-1.5,19.1L809,2920.7z"/>
		<path class="st14" d="M703.6,3008.9l0.8,3.4c8.4,31.5,30.8,51.4,63.3,63.4c2.2,0.8,4.5,1.6,6.8,2.3l-11.5-46.4
			c-51.5-17.1-63.5-39.6-63.5-39.6S702.2,3002.7,703.6,3008.9z"/>
	</g>
	<g>
		<polygon class="st12" points="1489.6,3139.2 1609.5,3192 1783.3,3153.2 1890,3041.7 1877.9,2992.9 1477.8,3091.8 		"/>
		<path class="st13" d="M1487.3,3130.5l0.8,3.4c8.4,31.5,30.8,51.4,63.3,63.4c2.2,0.8,4.5,1.6,6.8,2.3c92.7,30,237.7-6.7,302.4-77.4
			c27.3-29.8,40.1-62.6,21.3-106c-29.5,113.5-222.3,175.3-335.2,136.9c-25.9-8.8-49-19.8-63.5-39.6
			C1485,3120.8,1485.9,3124.3,1487.3,3130.5z"/>
		<path class="st13" d="M1471.8,3076.9c15.1,61.1,117.8,88.3,229.5,60.7s189.9-99.5,174.8-160.6s-117.9-88.3-229.5-60.7
			C1535,2943.9,1456.7,3015.8,1471.8,3076.9z"/>
		<path class="st2" d="M1569.2,3113.7c-36.8-7.8-60.1-24.9-65.9-48c-5.7-23.1,7-49.1,35.9-73.2c28-23.3,68.2-42.3,113-53.4
			c44.9-11.1,89.2-13,124.9-5.4c36.8,7.8,60.1,24.9,65.9,48c5.7,23.1-7,49.1-35.9,73.2c-28,23.3-68.2,42.3-113,53.3
			C1649.2,3119.3,1604.8,3121.3,1569.2,3113.7z M1544.9,2999.2c-26.2,21.8-37.9,44.6-33,64.4s25.9,34.5,59.2,41.6
			c34.4,7.3,77.3,5.4,120.9-5.4s82.4-29.1,109.5-51.6c26.2-21.8,37.9-44.6,33-64.4s-25.9-34.5-59.2-41.6
			c-34.4-7.3-77.3-5.4-120.9,5.4S1571.9,2976.7,1544.9,2999.2z"/>
		<path class="st2" d="M1592.7,3042.3c0.9,14.5,5.1,28.9,12.8,43.3l41.6-10.3c-6.3-7.9-11.6-16.4-15.9-25.3
			c-4.1-8.4-6.5-15.7-7.2-22c-0.6-5-0.3-8.8,0.9-11.3c1.1-2.5,3.3-4.2,6.6-5c2.3-0.6,4.3-0.3,6.1,0.9c1.8,1.2,4.1,3.4,6.8,6.7
			c2.8,3.4,6.4,8.1,10.8,14.4c5.3,7.4,11,13.4,17,17.8c6.2,4.5,12.7,7.4,19.4,8.7c6.8,1.2,14.8,0.8,23.8-1.5
			c13.8-3.4,22.8-10,26.8-19.5c3.8-9.1,3.1-20.4-1.9-33.4l24.3-6l-10.2-16.3l-22.7,5.6c-5.8-9.5-13.8-17.8-23.5-25l-23.6,14.3
			c9.8,8.2,16.7,16.8,20.3,25.6c1.8,4.4,2.4,7.8,1.8,10.1c-0.7,2.3-2.4,3.8-5.2,4.4c-2.4,0.6-4.7,0.4-6.8-0.6
			c-2.1-1-4.6-2.9-7.7-5.8c-3-2.8-6.6-6.7-10.7-11.6c-8.1-9.3-15.6-15-22.7-17.7c-6.9-2.6-14.8-2.7-24-0.5
			c-10.3,2.6-18.5,7-24.8,13.6c-6.5,6.8-10.5,15.8-12,27.4l-27.6,6.8l-1.4,19.1L1592.7,3042.3z"/>
		<path class="st14" d="M1487.3,3130.5l0.8,3.4c8.4,31.5,30.8,51.4,63.3,63.4c2.2,0.8,4.5,1.6,6.8,2.3l-11.5-46.4
			c-51.5-17.1-63.5-39.6-63.5-39.6S1485.9,3124.3,1487.3,3130.5z"/>
	</g>
	<g>
		<polygon class="st12" points="1603.7,3032.2 1483.2,2980.7 1309.8,3021.4 1204.4,3134 1216.9,3182.7 1615.9,3079.4 		"/>
		<path class="st13" d="M1606,3040.9l-0.9-3.4c-8.7-31.4-31.4-51-64-62.7c-2.2-0.8-4.5-1.6-6.8-2.3c-93-28.9-237.6,9.3-301.6,80.7
			c-26.9,30.1-39.4,63.1-20.1,106.2c28.2-113.8,220.4-177.7,333.7-140.6c25.9,8.5,49.2,19.3,64,38.9
			C1608.4,3050.5,1607.5,3047.1,1606,3040.9z"/>
		<path class="st13" d="M1622.1,3094.3c-15.8-60.9-118.8-87-230.1-58.2c-111.3,28.8-188.8,101.6-173.1,162.5s118.8,87,230.2,58.2
			C1560.4,3228,1637.9,3155.2,1622.1,3094.3z"/>
		<path class="st2" d="M1524.4,3058.6c36.8,7.4,60.4,24.2,66.4,47.3c6,23.1-6.5,49.2-35.1,73.6c-27.8,23.6-67.7,43-112.4,54.6
			c-44.7,11.6-89.1,14-124.8,6.8c-36.8-7.4-60.4-24.2-66.4-47.3c-6-23.1,6.5-49.2,35.1-73.6c27.8-23.6,67.7-43,112.4-54.6
			S1488.6,3051.4,1524.4,3058.6z M1549.9,3172.8c25.9-22.1,37.4-45,32.3-64.7c-5.1-19.7-26.3-34.2-59.6-40.9
			c-34.4-6.9-77.3-4.6-120.8,6.7c-43.5,11.2-82.1,30-108.9,52.7c-25.9,22.1-37.4,45-32.3,64.7c5.1,19.7,26.3,34.2,59.6,40.9
			c34.4,6.9,77.3,4.6,120.8-6.7C1484.5,3214.3,1523.1,3195.6,1549.9,3172.8z"/>
		<path class="st2" d="M1501.6,3130.2c-1.1-14.5-5.4-28.9-13.3-43.2l-41.4,10.7c6.4,7.9,11.8,16.3,16.2,25.1
			c4.2,8.4,6.6,15.6,7.4,21.9c0.6,5,0.4,8.8-0.8,11.3c-1.1,2.5-3.3,4.2-6.6,5.1c-2.3,0.6-4.3,0.3-6.1-0.8c-1.9-1.2-4.2-3.3-6.9-6.6
			c-2.8-3.3-6.5-8.1-11-14.3c-5.4-7.4-11.2-13.3-17.2-17.6c-6.2-4.4-12.7-7.3-19.5-8.4c-6.9-1.2-14.8-0.6-23.8,1.7
			c-13.7,3.6-22.7,10.3-26.6,19.8c-3.8,9.1-2.8,20.4,2.3,33.3l-24.2,6.3l10.4,16.1l22.6-5.9c5.9,9.4,13.9,17.6,23.8,24.7l23.4-14.5
			c-9.9-8.1-16.9-16.6-20.6-25.4c-1.9-4.4-2.5-7.8-1.9-10c0.6-2.3,2.4-3.8,5.2-4.5c2.4-0.6,4.7-0.4,6.8,0.5c2.1,1,4.7,2.9,7.7,5.7
			c3,2.8,6.6,6.6,10.8,11.4c8.2,9.2,15.8,14.9,22.8,17.5c6.9,2.5,14.8,2.6,24,0.2c10.3-2.7,18.5-7.2,24.6-13.9
			c6.4-6.9,10.3-15.9,11.7-27.5l27.5-7.1l1.2-19.1L1501.6,3130.2z"/>
		<path class="st14" d="M1606,3040.9l-0.9-3.4c-8.7-31.4-31.4-51-64-62.7c-2.2-0.8-4.5-1.6-6.8-2.3l12,46.3
			c51.7,16.6,64,38.9,64,38.9S1607.5,3047.1,1606,3040.9z"/>
	</g>
	<path class="st13" d="M2619.6,1746.5c0,197.8-160.4,358.2-358.2,358.2c-197.8,0-358.2-160.4-358.2-358.2
		c0-197.8,160.4-358.2,358.2-358.2C2459.3,1388.3,2619.6,1548.7,2619.6,1746.5z"/>
	<path class="st2" d="M2261.5,1406.9c-187.5,0-339.6,152-339.6,339.6c0,187.5,152,339.6,339.6,339.6c187.5,0,339.6-152,339.6-339.6
		C2601,1559,2449,1406.9,2261.5,1406.9z M2261.5,2073.8c-180.7,0-327.3-146.5-327.3-327.3c0-180.7,146.5-327.3,327.3-327.3
		c180.7,0,327.3,146.5,327.3,327.3C2588.7,1927.3,2442.2,2073.8,2261.5,2073.8z"/>
	<ellipse class="st14" cx="2261.5" cy="1746.4" rx="244.5" ry="244.5"/>
	<path class="st12" d="M2491.4,1746.5c0,127-102.9,229.9-229.9,229.9c-127,0-229.9-102.9-229.9-229.9c0-127,102.9-229.9,229.9-229.9
		C2388.4,1516.6,2491.4,1619.5,2491.4,1746.5z"/>
	<path class="st2" d="M2242,1879.7c-28.4-1.3-55.8-7.7-82.2-19.1v-64.7c15.1,7.7,31.4,14.1,49.1,19.2c17.6,5.1,33.2,7.7,46.5,7.7
		c11,0,19.1-1.3,24.2-4s7.7-7.1,7.7-13.3c0-4.3-1.9-7.9-5.6-10.9c-3.7-3-9.9-6.4-18.5-10.1c-8.6-3.8-20.3-8.3-34.9-13.6
		c-16.5-6.1-29.8-12.9-39.9-20.5c-10.1-7.6-17.5-16.1-22.1-25.5c-4.6-9.4-6.9-21.1-6.9-35.2c0-21.4,6.9-38.2,20.6-50.2
		s34.4-19.5,61.9-22.4v-43.2h40.3v42.8c25.8,1.4,51.9,7.8,78.1,19.1l-23.2,55.5c-27.1-12.2-51.6-18.3-73.4-18.3
		c-10.4,0-17.7,1.3-21.9,3.8s-6.3,6.3-6.3,11.2c0,4.3,1.5,7.8,4.6,10.6c3.1,2.8,8.3,5.9,15.9,9.3s18,7.4,31.4,12
		c27.1,9.6,46.6,20.5,58.4,32.8c11.8,12.3,17.7,28.1,17.7,47.4c0,21.8-6.9,39.5-20.7,53.2c-13.8,13.6-34,22.1-60.5,25.3v52.1H2242
		L2242,1879.7L2242,1879.7z"/>
	<path class="st13" d="M973,1890.8c0,197.8-160.4,358.2-358.2,358.2s-358.2-160.4-358.2-358.2c0-197.8,160.4-358.2,358.2-358.2
		C812.6,1532.7,973,1693,973,1890.8z"/>
	<path class="st2" d="M614.8,1551.3c-187.5,0-339.5,152-339.5,339.6c0,187.5,152,339.6,339.5,339.6c187.5,0,339.6-152,339.6-339.6
		C954.3,1703.3,802.3,1551.3,614.8,1551.3z M614.8,2218.1c-180.7,0-327.3-146.5-327.3-327.3c0-180.7,146.5-327.3,327.3-327.3
		c180.7,0,327.3,146.5,327.3,327.3C942,2071.6,795.5,2218.1,614.8,2218.1z"/>
	<ellipse class="st14" cx="614.7" cy="1890.8" rx="244.5" ry="244.5"/>
	<path class="st12" d="M844.7,1890.8c0,127-102.9,229.9-229.9,229.9c-127,0-229.9-102.9-229.9-229.9c0-127,102.9-229.9,229.9-229.9
		C741.8,1660.9,844.7,1763.9,844.7,1890.8z"/>
	<path class="st2" d="M595.3,2024c-28.4-1.3-55.8-7.7-82.2-19.1v-64.7c15.1,7.7,31.4,14.1,49.1,19.2s33.2,7.7,46.5,7.7
		c11,0,19.1-1.3,24.2-4s7.7-7.1,7.7-13.3c0-4.3-1.8-7.9-5.5-10.9c-3.7-3-9.9-6.4-18.5-10.1c-8.6-3.8-20.3-8.3-35-13.6
		c-16.5-6.1-29.8-12.9-39.9-20.5c-10.1-7.6-17.5-16.1-22.1-25.5s-6.9-21.1-6.9-35.2c0-21.4,6.9-38.2,20.6-50.2s34.4-19.5,61.9-22.4
		v-43.2h40.3v42.8c25.8,1.4,51.9,7.8,78.1,19.1l-23.2,55.5c-27.1-12.2-51.6-18.3-73.4-18.3c-10.4,0-17.7,1.3-21.9,3.8
		s-6.3,6.3-6.3,11.2c0,4.3,1.5,7.8,4.6,10.6c3,2.8,8.3,5.9,15.9,9.3c7.5,3.4,18,7.4,31.3,12c27.1,9.6,46.6,20.5,58.4,32.8
		c11.8,12.3,17.7,28.1,17.7,47.4c0,21.8-6.9,39.5-20.7,53.2c-13.8,13.6-34,22.1-60.5,25.3v52.1h-40.3L595.3,2024L595.3,2024z"/>
	<path class="st13" d="M1872.9,690.6c0,314.1-254.7,568.8-568.8,568.8c-314.2,0-568.8-254.7-568.8-568.8
		c0-314.1,254.7-568.8,568.8-568.8C1618.2,121.8,1872.9,376.4,1872.9,690.6z"/>
	<path class="st2" d="M1304,151.3c-297.8,0-539.3,241.4-539.3,539.3c0,297.8,241.4,539.3,539.3,539.3s539.3-241.4,539.3-539.3
		S1601.9,151.3,1304,151.3z M1304,1210.3c-287,0-519.7-232.7-519.7-519.7c0-287,232.7-519.7,519.7-519.7
		c287,0,519.7,232.7,519.7,519.7C1823.8,977.6,1591.1,1210.3,1304,1210.3z"/>
	
		<ellipse transform="matrix(0.7071 -0.7071 0.7071 0.7071 -106.3666 1124.3552)" class="st14" cx="1304" cy="690.6" rx="388.2" ry="388.2"/>
	<path class="st12" d="M1669.2,690.6c0,201.7-163.5,365.2-365.2,365.2c-201.7,0-365.2-163.5-365.2-365.2s163.5-365.2,365.2-365.2
		C1505.7,325.4,1669.2,488.9,1669.2,690.6z"/>
	<path class="st2" d="M1273.1,902c-45.2-2.1-88.7-12.2-130.5-30.3V769.1c23.9,12.2,49.9,22.3,77.9,30.5c28,8.2,52.7,12.2,73.9,12.2
		c17.5,0,30.3-2.1,38.5-6.3c8.1-4.2,12.2-11.3,12.2-21.2c0-6.8-2.9-12.6-8.8-17.3c-5.9-4.7-15.7-10.1-29.4-16.1
		c-13.7-6-32.2-13.2-55.5-21.7c-26.2-9.7-47.3-20.6-63.4-32.6c-16.1-12.1-27.8-25.6-35.1-40.5s-11-33.5-11-55.8
		c0-34,10.9-60.6,32.8-79.8c21.8-19.2,54.6-31,98.3-35.6v-68.6h64v68c41,2.3,82.4,12.4,124,30.3l-36.8,88.1
		c-43.1-19.4-81.9-29.1-116.6-29.1c-16.5,0-28.1,2-34.8,6c-6.7,4-10.1,10-10.1,17.8c0,6.8,2.4,12.4,7.3,16.9
		c4.8,4.4,13.2,9.4,25.2,14.8s28.6,11.8,49.8,19c43.1,15.3,74,32.6,92.8,52.1c18.8,19.5,28.1,44.6,28.1,75.3
		c0,34.6-11,62.8-32.9,84.4c-21.9,21.7-54,35-96,40.2V983h-64V902z"/>
	<path class="st2" d="M1097.8,2837c-47.2,0.4-57.8,11-57.6,58.3c-0.2-47.2-10.9-57.8-58.1-57.4c47.2-0.3,57.8-11,57.6-58.3
		C1039.9,2826.8,1050.6,2837.3,1097.8,2837z"/>
	<path class="st2" d="M1441.1,3070c-47.2,0.4-57.8,11-57.6,58.3c-0.2-47.2-10.9-57.8-58.1-57.4c47.2-0.3,57.8-11,57.6-58.3
		C1383.2,3059.9,1393.8,3070.4,1441.1,3070z"/>
	<path class="st2" d="M1665.1,2827.3c-47.2,0.4-57.8,11-57.6,58.3c-0.2-47.2-10.9-57.8-58.1-57.4c47.2-0.3,57.8-11,57.6-58.3
		C1607.2,2817.1,1617.8,2827.6,1665.1,2827.3z"/>
	<path class="st2" d="M2118.3,3057.4c-47.2,0.4-57.8,11-57.6,58.3c-0.2-47.2-10.9-57.8-58.1-57.4c47.2-0.3,57.8-11,57.6-58.3
		C2060.4,3047.2,2071,3057.7,2118.3,3057.4z"/>
	<path class="st2" d="M665.5,3081.8c-47.2,0.4-57.8,11-57.6,58.3c-0.2-47.2-10.9-57.8-58.1-57.4c47.2-0.3,57.8-11,57.6-58.3
		C607.6,3071.6,618.3,3082.2,665.5,3081.8z"/>
	<path class="st2" d="M463.1,1634.2c-47.2,0.3-57.8,11-57.6,58.3c-0.2-47.2-10.9-57.8-58.1-57.4c47.2-0.3,57.8-11,57.6-58.3
		C405.3,1624.1,415.9,1634.6,463.1,1634.2z"/>
	<path class="st2" d="M1753,291.9c-87,0.6-106.4,20.3-106,107.3c-0.4-87-20-106.3-107-105.7c86.9-0.6,106.4-20.3,106-107.3
		C1646.4,273.1,1666,292.5,1753,291.9z"/>
</g>
</svg>
