<?xml version="1.0" encoding="utf-8"?>
<!-- Generator: Adobe Illustrator 23.0.2, SVG Export Plug-In . SVG Version: 6.00 Build 0)  -->
<svg version="1.1" id="Capa_1" xmlns="http://www.w3.org/2000/svg" xmlns:xlink="http://www.w3.org/1999/xlink" x="0px" y="0px"
	 viewBox="0 0 512 512" style="enable-background:new 0 0 512 512;" xml:space="preserve">
<style type="text/css">
	.st0{fill:#D12027;}
</style>
<g>
	<g transform="translate(-1)">
		<g>
			<g>
				<path class="st0" d="M128.7,37.2c-4.8-4.1-11.8-4-16.5,0.1L77.8,68.1v-4c0-4.7-3.8-8.5-8.5-8.5s-8.5,3.8-8.5,8.5v19.3L46.6,96.1
					c-3.5,3.2-3.7,8.5-0.6,12c3.1,3.5,8.5,3.8,12,0.7l62.6-56l62.6,56c2.3,2.1,5.5,2.8,8.4,1.8c2.9-0.9,5.1-3.4,5.7-6.4
					c0.6-3-0.4-6.1-2.7-8.1L128.7,37.2z"/>
				<path class="st0" d="M171.7,119.5c-4.7,0-8.5,3.8-8.5,8.5v59.7H77.8V128c0-4.7-3.8-8.5-8.5-8.5s-8.5,3.8-8.5,8.5v65.1
					c0.1,6.5,5.4,11.7,11.9,11.6h95.6c6.5,0.1,11.9-5.2,11.9-11.7V128C180.2,123.3,176.4,119.5,171.7,119.5z"/>
				<path class="st0" d="M120.5,221.9c-33,0-59.7,26.7-59.7,59.7c0,33,26.7,59.7,59.7,59.7s59.7-26.7,59.7-59.7
					C180.2,248.6,153.5,221.9,120.5,221.9z M77.8,281.6c0-20.3,14.3-37.7,34.1-41.8v37l-31.6,18.9C78.7,291.2,77.9,286.4,77.8,281.6
					z M89.2,310.3l30-18l24.8,24.8C126.6,328.8,103.2,325.9,89.2,310.3z M156,305.1l-27-27v-38.3c13.9,2.8,25.5,12.4,30.9,25.4
					C165.3,278.3,163.9,293.3,156,305.1z"/>
				<path class="st0" d="M461.8,153.6v-29.2c0-7.4-6-13.4-13.5-13.5H424c-7.4,0-13.4,6-13.5,13.5v29.2h-17.1v-53.5
					c0-8.1-6.6-14.7-14.8-14.8h-21.7c-8.1,0-14.7,6.6-14.8,14.8v53.5h-17.1V59.8c0-9.4-7.6-17.1-17.1-17.1h-17.1
					c-9.4,0-17.1,7.6-17.1,17.1v93.8h-8.5c-4.7,0-8.5-3.8-8.5-8.5V42.7c0-4.7-3.8-8.5-8.5-8.5s-8.5,3.8-8.5,8.5v102.4
					c0,14.1,11.5,25.6,25.6,25.6h196.2c4.7,0,8.5-3.8,8.5-8.5S466.5,153.6,461.8,153.6z M308.2,153.6h-17.1V59.8h17.1V153.6z
					 M376.4,153.6h-17.1v-51.2h17.1V153.6z M444.7,153.6h-17.1V128h17.1L444.7,153.6L444.7,153.6z"/>
				<path class="st0" d="M461.8,324.3H265.5c-4.7,0-8.5-3.8-8.5-8.5v-13.5l28.1-28.1c3.4-3.2,8.7-3.2,12.1,0l10,10
					c10,10,26.2,10,36.2,0l35.6-35.6c3.4-3.2,8.7-3.2,12.1,0l10,10c10,10,26.2,10,36.2,0l30.6-30.6c3.2-3.3,3.2-8.7-0.1-12
					c-3.3-3.3-8.6-3.3-12-0.1l-30.6,30.6c-3.3,3.3-8.7,3.3-12.1,0l-10-10c-10.1-9.7-26.1-9.7-36.2,0L331.3,272
					c-3.3,3.3-8.7,3.3-12.1,0l-10-10c-10.1-9.7-26.1-9.7-36.2,0l-16,16v-64.7c0-4.7-3.8-8.5-8.5-8.5s-8.5,3.8-8.5,8.5v102.4
					c0,14.1,11.5,25.6,25.6,25.6h196.2c4.7,0,8.5-3.8,8.5-8.5C470.3,328.1,466.5,324.3,461.8,324.3z"/>
				<path class="st0" d="M512.9,396.4v-349c1.2-24.8-17.9-45.9-42.7-47.3H43.7C18.9,1.4-0.1,22.6,1.1,47.4v349
					c-1.2,24.8,17.9,45.9,42.7,47.3h136.5v17.1h-34.1c-18.8,0-34.1,15.3-34.1,34.1v8.5c0,4.7,3.8,8.5,8.5,8.5h273
					c4.7,0,8.5-3.8,8.5-8.5v-8.5c0-18.8-15.3-34.1-34.1-34.1h-34.1v-17.1h136.5C495.1,442.3,514.1,421.2,512.9,396.4z M367.9,477.8
					c9.4,0,17.1,7.6,17.1,17.1H129c0-9.4,7.6-17.1,17.1-17.1H367.9z M197.3,460.8v-17.1h119.4v17.1H197.3z M470.3,426.6H43.7
					c-15.4-1.4-26.7-14.9-25.6-30.3v-20.9h477.8v20.9C497,411.8,485.6,425.2,470.3,426.6z M495.9,47.4v311H18.1v-311
					C17,32,28.4,18.5,43.7,17.1h426.6C485.6,18.5,497,32,495.9,47.4z"/>
			</g>
		</g>
	</g>
</g>
</svg>
