<?xml version="1.0" encoding="utf-8"?>
<!-- Generator: Adobe Illustrator 23.0.2, SVG Export Plug-In . SVG Version: 6.00 Build 0)  -->
<svg version="1.1" id="Capa_1" xmlns="http://www.w3.org/2000/svg" xmlns:xlink="http://www.w3.org/1999/xlink" x="0px" y="0px"
	 viewBox="0 0 480.1 480.1" style="enable-background:new 0 0 480.1 480.1;" xml:space="preserve">
<style type="text/css">
	.st0{fill:#D12027;}
</style>
<g>
	<g>
		<path class="st0" d="M276.3,168.8c2.5-5.2,3.7-10.9,3.7-16.7c0-22.1-17.9-40-40-40s-40,17.9-40,40c0,5.8,1.3,11.5,3.7,16.7
			c-25.2,4.2-43.7,26-43.7,51.6v75.7c0,4.4,3.6,8,8,8h24v104c0,4.4,3.6,8,8,8h80c4.4,0,8-3.6,8-8v-104h24c4.4,0,8-3.6,8-8v-75.7
			C320,194.8,301.5,173,276.3,168.8z M304.1,288.1h-16v-80h-16v192h-24v-112h-16v112h-24v-192h-16v80h-16v-67.7
			c0-20,16.3-36.3,36.3-36.3h6.8c4.4,0,8-3.6,8-8c0-2.3-1-4.5-2.7-6c-5.3-4.5-8.3-11.1-8.3-18c0-13.3,10.7-24,24-24s24,10.7,24,24
			c0,6.9-3,13.5-8.3,18c-3.3,2.9-3.7,8-0.8,11.3c1.5,1.7,3.7,2.7,6,2.7h6.8c20,0,36.3,16.3,36.3,36.3L304.1,288.1L304.1,288.1z"/>
	</g>
</g>
<g>
	<g>
		<path class="st0" d="M330.8,17.9C302,6.2,271.2,0.1,240.1,0.1C189.6,0,140.3,15.9,99.4,45.6l9.4,13
			C209.1-13.9,349.1,8.7,421.6,109c45.3,62.7,55.1,144.4,25.8,216.1l14.8,6.1C512.4,208.4,453.6,68.1,330.8,17.9z"/>
	</g>
</g>
<g>
	<g>
		<path class="st0" d="M348.2,436.3c-108.5,59.6-244.8,20-304.4-88.4c-27.9-50.8-35.1-110.4-20-166.3l-15.4-4.2
			c-34.5,128.1,41.3,259.9,169.4,294.4c20.3,5.5,41.3,8.3,62.3,8.3c40.5,0,80.4-10.2,115.9-29.8L348.2,436.3z"/>
	</g>
</g>
<g>
	<g>
		<path class="st0" d="M385.2,172.7c-26.2-56.5-82.8-92.6-145.1-92.6c-88.4,0-160,71.7-160,160c0,62.3,36.1,118.9,92.6,145.1
			l6.7-14.5c-72.1-33.5-103.5-119.1-70-191.2s119.1-103.5,191.2-70s103.5,119.1,70,191.2c-14.3,30.9-39.1,55.7-70,70l6.7,14.5
			C387.6,348,422.4,252.9,385.2,172.7z"/>
	</g>
</g>
<g>
	<g>
		<path class="st0" d="M438.7,354c1.7-5.3,1.8-10.9,0.3-16.2c-2.8-9.2-10.2-16.4-19.5-18.8c-8.6-2.3-17.7-0.4-24.7,5
			c-9.1,7-12.9,19.1-9.2,30c-10.2,2.8-17.3,12.1-17.4,22.6v46.7c0,4.4,3.6,8,8,8h8V472c0,4.4,3.6,8,8,8h40c4.4,0,8-3.6,8-8v-40.7h8
			c4.4,0,8-3.6,8-8v-46.7C456,366.1,448.9,356.8,438.7,354z M440.1,415.4h-8c-4.4,0-8,3.6-8,8v40.7h-24v-40.7c0-4.4-3.6-8-8-8h-8
			v-38.7c0.1-4.3,3.7-7.7,8-7.6h8.1c4.4,0,8-3.6,8-8c0-2.6-1.2-5-3.3-6.5c-5-3.5-6.3-10.3-2.9-15.4c0.7-1,1.5-1.9,2.5-2.6
			c3.1-2.4,7.2-3.2,11-2.1c3.8,1,6.9,3.9,8.1,7.7c1.4,4.6-0.3,9.7-4.3,12.4c-3.6,2.6-4.4,7.6-1.8,11.2c1.5,2.1,3.9,3.3,6.5,3.3h8.1
			c4.3-0.1,7.9,3.3,8,7.6L440.1,415.4L440.1,415.4z"/>
	</g>
</g>
<g>
	<g>
		<path class="st0" d="M70.7,36c1.7-5.3,1.8-10.9,0.3-16.2C68.2,10.5,60.8,3.4,51.4,1c-8.6-2.3-17.7-0.4-24.7,5
			c-9.1,7-12.9,19.1-9.2,30C7.2,38.8,0.1,48.1,0.1,58.7v45.4c0,4.4,3.6,8,8,8h8v48c0,4.4,3.6,8,8,8h40c4.4,0,8-3.6,8-8v-48h8
			c4.4,0,8-3.6,8-8V58.7C88,48.1,80.9,38.8,70.7,36z M72.1,96.1h-8c-4.4,0-8,3.6-8,8v48h-24v-48c0-4.4-3.6-8-8-8h-8V58.7
			c0.1-4.3,3.7-7.7,8-7.6h8.1c4.4,0,8-3.6,8-8c0-2.6-1.2-5-3.3-6.5c-5-3.5-6.3-10.3-2.9-15.4c0.7-1,1.5-1.9,2.5-2.6
			c3.1-2.4,7.2-3.2,11-2.1c3.8,1,6.9,3.9,8.1,7.7c1.4,4.6-0.3,9.7-4.3,12.4c-3.6,2.6-4.4,7.6-1.8,11.2c1.5,2.1,3.9,3.3,6.5,3.3h8.1
			c4.3-0.1,7.9,3.3,8,7.6C72.1,58.7,72.1,96.1,72.1,96.1z"/>
	</g>
</g>
<g>
	<g>
		<rect x="464.1" y="0.1" class="st0" width="16" height="16"/>
	</g>
</g>
<g>
	<g>
		<rect x="440.1" y="24.1" class="st0" width="16" height="16"/>
	</g>
</g>
<g>
	<g>
		<rect x="24.1" y="440.1" class="st0" width="16" height="16"/>
	</g>
</g>
<g>
	<g>
		<rect x="0.1" y="464.1" class="st0" width="16" height="16"/>
	</g>
</g>
</svg>
