<?xml version="1.0" encoding="utf-8"?>
<!-- Generator: Adobe Illustrator 23.0.2, SVG Export Plug-In . SVG Version: 6.00 Build 0)  -->
<svg version="1.1" id="Capa_1" xmlns="http://www.w3.org/2000/svg" xmlns:xlink="http://www.w3.org/1999/xlink" x="0px" y="0px"
	 viewBox="0 0 512 512" style="enable-background:new 0 0 512 512;" xml:space="preserve">
<style type="text/css">
	.st0{fill:#D12027;}
</style>
<g>
	<g>
		<path class="st0" d="M504.5,100.2H313.3L327.5,29c0.9-4.6-2.7-9-7.4-9H191.9c-4.7,0-8.3,4.4-7.4,9l14.2,71.2H7.5
			c-4.2,0-7.5,3.4-7.5,7.5v376.7c0,4.2,3.4,7.5,7.5,7.5h497c4.2,0,7.5-3.4,7.5-7.5V107.7C512,103.6,508.6,100.2,504.5,100.2z
			 M311,35.1l-21,105.2h-67.8L201,35.1H311z M497,476.9H15V115.2h186.7l5,25H47.6c-4.2,0-7.5,3.4-7.5,7.5v296.6
			c0,4.2,3.4,7.5,7.5,7.5h416.8c4.2,0,7.5-3.4,7.5-7.5v-83.8c0-4.2-3.4-7.5-7.5-7.5s-7.5,3.4-7.5,7.5v76.3h-97.2v-64.6
			c0-21.8-17.8-39.6-39.6-39.6H305c23.3-15.8,38.6-42.5,38.6-72.6c0-48.3-39.3-87.7-87.7-87.7s-87.7,39.3-87.7,87.7
			c0,30.2,15.3,56.9,38.6,72.6h-15.1c-21.8,0-39.6,17.8-39.6,39.6v64.6H55.1V155.3h401.8v168.8c0,4.2,3.4,7.5,7.5,7.5
			s7.5-3.4,7.5-7.5V147.8c0-4.2-3.4-7.5-7.5-7.5H305.2l5-25H497V476.9z M256,332.6c-40.1,0-72.6-32.6-72.6-72.6s32.6-72.6,72.6-72.6
			s72.6,32.6,72.6,72.6S296.1,332.6,256,332.6z M290.8,347.7l-17.2,28.6l-1.9-11.5l5.7-17.1L290.8,347.7L290.8,347.7z M254.4,371.7
			h3.3l4.1,24.4l-5.7,9.5l-5.8-9.6c0.1-0.2,0.1-0.4,0.1-0.6L254.4,371.7z M250.4,347.7h11.2l-3,9h-5.2L250.4,347.7z M234.6,347.7
			l5.7,17.1l-1.9,11.5l-17.2-28.6L234.6,347.7L234.6,347.7z M249.6,424.2c2.9,4.8,10,4.8,12.9,0l45.9-76.5h11.8
			c13.5,0,24.5,11,24.5,24.5v64.6H167.3v-64.6c0-13.5,11-24.5,24.5-24.5h11.8L249.6,424.2z"/>
	</g>
</g>
<g>
	<g>
		<path class="st0" d="M276.8,251.9c4.2,0,7.5-3.4,7.5-7.5v-5.2c0-12-9.2-21.9-20.8-23v-8.2c0-4.2-3.4-7.5-7.5-7.5s-7.5,3.4-7.5,7.5
			v8.6c-11.9,2.3-20.8,12.8-20.8,25.3c0,14.2,11.6,25.7,25.8,25.7h5.2c5.9,0,10.7,4.8,10.7,10.7s-4.8,10.7-10.7,10.7h-7.8
			c-4.5,0-8.1-3.6-8.1-8.1c0-4.2-3.4-7.5-7.5-7.5s-7.5,3.4-7.5,7.5c0,12,9.2,21.9,20.8,23v8.2c0,4.2,3.4,7.5,7.5,7.5
			c4.2,0,7.5-3.4,7.5-7.5v-8.6c11.9-2.3,20.8-12.8,20.8-25.3c0-14.2-11.6-25.8-25.8-25.8h-5.2c-5.9,0-10.7-4.8-10.7-10.7
			s4.8-10.7,10.7-10.7h7.8c4.5,0,8.1,3.6,8.1,8.1v5.2C269.3,248.5,272.7,251.9,276.8,251.9z"/>
	</g>
</g>
<g>
	<g>
		<path class="st0" d="M256,52.1c-13,0-23.5,10.6-23.5,23.5S243,99.2,256,99.2s23.5-10.6,23.5-23.5C279.5,62.7,269,52.1,256,52.1z
			 M256,84.2c-4.7,0-8.5-3.8-8.5-8.5s3.8-8.5,8.5-8.5s8.5,3.8,8.5,8.5S260.7,84.2,256,84.2z"/>
	</g>
</g>
</svg>
