<?xml version="1.0" encoding="utf-8"?>
<!-- Generator: Adobe Illustrator 23.0.2, SVG Export Plug-In . SVG Version: 6.00 Build 0)  -->
<svg version="1.1" id="Layer_1" xmlns="http://www.w3.org/2000/svg" xmlns:xlink="http://www.w3.org/1999/xlink" x="0px" y="0px"
	 viewBox="0 0 496 496" style="enable-background:new 0 0 496 496;" xml:space="preserve">
<style type="text/css">
	.st0{fill:#D12027;}
</style>
<path class="st0" d="M392,320c-4.4,0-8-3.6-8-8h-16c0,10.4,6.7,19.2,16,22.5v9.5h16v-9.5c9.3-3.3,16-12.1,16-22.5
	c0-13.2-10.8-24-24-24c-4.4,0-8-3.6-8-8s3.6-8,8-8s8,3.6,8,8h16c0-10.4-6.7-19.2-16-22.5V248h-16v9.5c-9.3,3.3-16,12.1-16,22.5
	c0,13.2,10.8,24,24,24c4.4,0,8,3.6,8,8S396.4,320,392,320z"/>
<path class="st0" d="M392,224c-16.1,0-31.3,5.2-44.1,15.2l9.8,12.6c9.9-7.7,21.8-11.8,34.3-11.8c30.9,0,56,25.1,56,56
	c0,12.5-4.1,24.4-11.8,34.3l12.6,9.8c9.9-12.8,15.2-28,15.2-44.1C464,256.3,431.7,224,392,224z"/>
<path class="st0" d="M392,352c-30.9,0-56-25.1-56-56c0-12.5,4.1-24.4,11.8-34.3l-12.6-9.8c-9.9,12.8-15.2,28-15.2,44.1
	c0,39.7,32.3,72,72,72c16.1,0,31.3-5.2,44.1-15.2l-9.8-12.6C416.4,347.9,404.5,352,392,352z"/>
<path class="st0" d="M392,192c-39.8,0-74.3,22.4-91.8,55.3c-14.3-33.4-40.4-59.7-72.7-74.4c7.4-4.1,12.5-11.9,12.5-20.9
	c0-7.8-3.8-14.7-9.6-19.1L272,91.3V67.1l-29.3-14.6l7.6-15.2L216,14.4l-22.1,14.8L172,0h-20v40h-45.8l-5.7,17.2L91.3,48H48v35.3
	l53.5,53.5C98.1,141,96,146.2,96,152c0,9.1,5.1,16.9,12.6,21C58.8,195.7,24,245.8,24,304c0,25.8-3.4,51.6-10.2,76.5L2,423.5
	c-1.3,4.9-2,10-2,15.1C0,470.3,25.7,496,57.4,496h221.2c31.6,0,57.4-25.7,57.4-57.4c0-0.5-0.1-1-0.1-1.5
	c17.4,6.9,36.3,10.9,56.1,10.9v-16c-21.4,0-41.5-5.1-59.5-13.9l-10.3-37.6c-0.8-3.1-1.5-6.4-2.2-9.6c18.7,18,44,29.1,72,29.1
	c57.3,0,104-46.7,104-104S449.3,192,392,192z M64,64h20.7l22.8,22.8L117.8,56H152v40h16V21.3l22.1,29.5L216,33.6l13.7,9.1
	l-20.8,41.7l14.3,7.2l12.4-24.9L256,76.9v7.7L212.7,128h-19.6l6.9-55l-15.9-2l-7.1,57h-34l-7-49.1l-15.8,2.3l6.7,46.9H120
	c-1.5,0-2.9,0.2-4.3,0.4L64,76.7V64z M120,160c-4.4,0-8-3.6-8-8s3.6-8,8-8h96c4.4,0,8,3.6,8,8s-3.6,8-8,8H120z M248,284.7
	l-29.7,29.7l11.3,11.3l11.5-11.5c5.9,49.6,35.7,91.9,77.6,115c0.7,3.1,1.2,6.3,1.2,9.5c0,22.8-18.6,41.4-41.4,41.4H57.4
	C34.6,480,16,461.4,16,438.6c0-3.7,0.5-7.3,1.5-10.9l11.7-43C36.4,358.4,40,331.2,40,304c0-70.6,57.4-128,128-128
	c57.7,0,108.2,38.6,123.3,94.2c-0.1,0.2-0.1,0.4-0.1,0.6c-0.9,3.6-1.6,7.3-2.1,11.1c-0.1,0.6-0.2,1.2-0.3,1.7
	c-0.5,4.1-0.8,8.2-0.8,12.3c0,3.8,0.2,7.5,0.6,11.2c0.1,1,0.3,2,0.4,2.9c0.4,2.8,0.8,5.5,1.4,8.2c0.2,0.9,0.5,1.8,0.7,2.8
	c0.7,2.8,1.5,5.6,2.4,8.3c0.2,0.7,0.5,1.4,0.8,2.1c1.1,3,2.3,5.9,3.7,8.8c0.1,0.3,0.2,0.6,0.4,0.8c1.8,15.2,4.7,29.8,8.4,43.6
	l5.9,21.6c-28.8-20.8-49.1-52.5-54.9-89.1l8.5,8.5l11.3-11.3L248,284.7z M392,384c-34.6,0-64.5-20.1-78.9-49.2
	c-1.3-2.7-2.5-5.5-3.6-8.2c-0.2-0.5-0.4-1-0.6-1.5c-0.9-2.5-1.6-4.9-2.2-7.5c-0.2-0.8-0.4-1.5-0.6-2.3c-0.5-2.4-0.9-4.8-1.3-7.1
	c-0.1-0.8-0.3-1.7-0.4-2.5c-0.3-3.2-0.5-6.4-0.5-9.6c0-3.7,0.3-7.4,0.8-11.2c0.1-0.5,0.2-1,0.2-1.5c0.5-3.6,1.3-7.3,2.3-10.9
	c0-0.1,0-0.2,0.1-0.3l0.5-1.9l0-0.1c11-36,44.6-62.2,84.1-62.2c48.5,0,88,39.5,88,88S440.5,384,392,384z"/>
<path class="st0" d="M153.2,209.1c4.9-0.8,9.8-1.1,14.8-1.1v-16c-5.8,0-11.5,0.4-17.2,1.3L153.2,209.1z"/>
<path class="st0" d="M56,304c0,28.7-3.8,57.2-11.4,84.9l15.4,4.2C68,364.1,72,334.1,72,304c0-41.8,26.7-78.5,66.5-91.4l-4.9-15.2
	C87.2,212.5,56,255.3,56,304z"/>
<path class="st0" d="M408,432h16v16h-16V432z"/>
<path class="st0" d="M440,432h16v16h-16V432z"/>
<path class="st0" d="M480,80h16v16h-16V80z"/>
<path class="st0" d="M448,80h16v16h-16V80z"/>
<path class="st0" d="M304,80h128v16H304V80z"/>
<path class="st0" d="M480,112h16v16h-16V112z"/>
<path class="st0" d="M448,112h16v16h-16V112z"/>
<path class="st0" d="M304,112h128v16H304V112z"/>
<path class="st0" d="M480,144h16v16h-16V144z"/>
<path class="st0" d="M448,144h16v16h-16V144z"/>
<path class="st0" d="M304,144h128v16H304V144z"/>
</svg>
