<?xml version="1.0" encoding="utf-8"?>
<!-- Generator: Adobe Illustrator 23.0.2, SVG Export Plug-In . SVG Version: 6.00 Build 0)  -->
<svg version="1.1" id="Capa_1" xmlns="http://www.w3.org/2000/svg" xmlns:xlink="http://www.w3.org/1999/xlink" x="0px" y="0px"
	 viewBox="0 0 512 512" style="enable-background:new 0 0 512 512;" xml:space="preserve">
<style type="text/css">
	.st0{fill:#D12027;}
</style>
<g>
	<g>
		<path class="st0" d="M234.8,333.5c4.1,0,7.5-3.4,7.5-7.5v-26.5c28.2-3.7,50-27.8,50-57c0-29.5-22.3-53.8-50.9-57.1
			c-3.1-11.7-13.9-20.4-26.6-20.4h-3.3c9.7-9.5,15.8-22.8,15.8-37.5v-75c0-28.9-23.6-52.5-52.5-52.5s-52.5,23.6-52.5,52.5v75
			c0,14.7,6.1,28,15.8,37.5h-3.3c-12.5,0-23,8.3-26.4,19.7c-42.5-3.3-76.1-38.9-76.1-82.2c0-4.1-3.4-7.5-7.5-7.5s-7.5,3.4-7.5,7.5
			c0,51.2,39.7,93.4,90,97.2V266c0,4.1,3.4,7.5,7.5,7.5s7.5-3.4,7.5-7.5v-73.5c0-6.9,5.6-12.5,12.5-12.5h2.5v138.5h-15V296
			c0-4.1-3.4-7.5-7.5-7.5s-7.5,3.4-7.5,7.5v30c0,4.1,3.4,7.5,7.5,7.5h22.5v155.6l-24.9,8.3c-3.9,1.3-6.1,5.6-4.7,9.5
			c1,3.1,4,5.1,7.1,5.1c0.8,0,1.6-0.1,2.4-0.4l30-10c3.1-1,5.1-3.9,5.1-7.1V339.9c7,3.3,14.6,5.1,22.5,5.1s15.5-1.8,22.5-5.1v154.6
			c0,3.2,2.1,6.1,5.1,7.1l30,10c0.8,0.3,1.6,0.4,2.4,0.4c3.1,0,6.1-2,7.1-5.1c1.3-3.9-0.8-8.2-4.7-9.5l-24.9-8.3V333.5H234.8z
			 M242.3,200.7c19.9,3.6,35,20.9,35,41.8s-15.1,38.3-35,41.8L242.3,200.7L242.3,200.7z M212.3,180h2.5c6.9,0,12.5,5.6,12.5,12.5
			v126h-15V180z M137.3,52.5c0-20.7,16.8-37.5,37.5-37.5s37.5,16.8,37.5,37.5v8.3c-9.5-9.7-22.8-15.8-37.5-15.8s-28,6.1-37.5,15.8
			V52.5z M137.3,97.5c0-20.7,16.8-37.5,37.5-37.5s37.5,16.8,37.5,37.5v2.5h-15.1c-5.7-6.3-13.7-10-22.4-10s-16.7,3.7-22.4,10h-15.1
			V97.5L137.3,97.5z M197.3,322.5c-6.5,4.9-14.3,7.5-22.5,7.5s-16-2.6-22.5-7.5V300h45V322.5z M197.3,285h-45V180h15v22.5
			c0,4.1,3.4,7.5,7.5,7.5s7.5-3.4,7.5-7.5V180h15V285z M174.8,165c-20.7,0-37.5-16.8-37.5-37.5V115H156c2.5,0,4.8-1.2,6.2-3.3
			c2.8-4.2,7.5-6.7,12.5-6.7s9.7,2.5,12.5,6.7c1.4,2.1,3.7,3.3,6.2,3.3h18.8v12.5C212.3,148.2,195.4,165,174.8,165z"/>
	</g>
</g>
<g>
	<g>
		<path class="st0" d="M382.3,0c-62,0-112.5,50.5-112.5,112.5c0,0.3,0,0.5,0,0.8c0,0.1,0,0.1,0,0.2c0,0.2,0.1,0.4,0.1,0.6
			c0,0.1,0,0.2,0.1,0.2c0,0.2,0.1,0.3,0.1,0.5c0,0.1,0.1,0.2,0.1,0.2c0.1,0.2,0.1,0.3,0.2,0.5c0,0.1,0.1,0.1,0.1,0.2
			c0.1,0.2,0.2,0.3,0.2,0.5c0,0.1,0.1,0.1,0.1,0.2c0.1,0.1,0.2,0.3,0.3,0.4c0.1,0.1,0.1,0.2,0.2,0.2c0.1,0.1,0.2,0.2,0.3,0.4
			c0.1,0.1,0.1,0.2,0.2,0.2l0.1,0.1c0.1,0.1,0.2,0.2,0.3,0.2c0.1,0.1,0.1,0.1,0.2,0.2L362,195h-17.2c-4.1,0-7.5,3.4-7.5,7.5v70
			c0,4.1,3.4,7.5,7.5,7.5h75c4.1,0,7.5-3.4,7.5-7.5v-70c0-4.1-3.4-7.5-7.5-7.5h-17.2l89.6-76.8c0.1,0,0.1-0.1,0.2-0.2
			s0.2-0.2,0.3-0.2l0.1-0.1c0.1-0.1,0.1-0.2,0.2-0.2c0.1-0.1,0.2-0.2,0.3-0.4c0.1-0.1,0.1-0.2,0.2-0.2c0.1-0.1,0.2-0.3,0.3-0.4
			c0-0.1,0.1-0.1,0.1-0.2c0.1-0.2,0.2-0.3,0.2-0.5c0-0.1,0.1-0.1,0.1-0.2c0.1-0.2,0.1-0.3,0.2-0.5c0-0.1,0.1-0.2,0.1-0.2
			c0.1-0.2,0.1-0.3,0.1-0.5c0-0.1,0-0.2,0.1-0.2c0-0.2,0.1-0.4,0.1-0.6c0-0.1,0-0.1,0-0.2c0-0.3,0-0.5,0-0.8
			C494.7,50.5,444.3,0,382.3,0z M382.3,15c4.5,0,11.7,7.9,17.6,25.6c5.2,15.5,8.4,35.3,9.5,56.7c-16.9-9.1-37.4-9.1-54.3,0
			c1-21.5,4.3-41.2,9.5-56.7C370.5,22.9,377.7,15,382.3,15z M408.4,114.6l-26.1,67.2l-26.1-67.2
			C371.4,102.5,393.1,102.5,408.4,114.6z M358.1,18c-10.5,18.3-16.5,48.3-18,79.7c-16.7-9.3-37.2-9.6-54.1-0.9
			C292.2,58.5,320.9,27.6,358.1,18z M288.9,112.6c15.9-10.7,37.6-9.3,52,4.2l23.6,60.6L288.9,112.6z M412.3,210v55h-60v-55H412.3z
			 M400.1,177.3l23.6-60.6c14.4-13.4,36.1-14.8,52-4.2L400.1,177.3z M424.4,97.8c-1.4-31.4-7.5-61.4-18-79.7
			c37.2,9.5,65.9,40.5,72.1,78.9C461.6,88.1,441.1,88.4,424.4,97.8z"/>
	</g>
</g>
</svg>
