<?xml version="1.0" encoding="utf-8"?>
<!-- Generator: Adobe Illustrator 23.0.2, SVG Export Plug-In . SVG Version: 6.00 Build 0)  -->
<svg version="1.1" id="Layer_1" xmlns="http://www.w3.org/2000/svg" xmlns:xlink="http://www.w3.org/1999/xlink" x="0px" y="0px"
	 viewBox="0 0 1613 1613" style="enable-background:new 0 0 1613 1613;" xml:space="preserve">
<style type="text/css">
	.st0{fill:#D12027;}
</style>
<path class="st0" d="M734.9,711.8C624.3,744.3,548.2,845.7,548.1,961v233.7c0,14.3,11.6,26,26,26h467.5c14.3,0,26-11.6,26-26V961
	c-0.2-115.3-76.2-216.7-186.8-249.1c78.8-34.5,122.7-119.6,105-203.8c-17.6-84.2-91.9-144.6-178-144.6s-160.3,60.3-177.9,144.6
	C612.2,592.3,656.1,677.3,734.9,711.8L734.9,711.8z M1015.6,961v207.8H600V961c0-114.8,93-207.8,207.8-207.8
	C922.5,753.2,1015.6,846.2,1015.6,961L1015.6,961z M807.8,415.6c71.7,0,129.9,58.1,129.9,129.9s-58.1,129.8-129.9,129.8
	c-71.7,0-129.9-58.1-129.9-129.8C678,473.7,736.1,415.6,807.8,415.6z M251.6,394l-0.9,2.2l10.8,4.6c8,4.8,16.6,8.4,25.6,10.8
	l11.4,4.8l0.9-2.2c4.9,0.8,9.9,1.3,14.8,1.5c18.5-0.1,36.6-5.2,52.5-14.7l92,92l36.7-36.7l-92-92c9.5-15.9,14.6-34,14.7-52.5
	c-0.1-5-0.6-9.9-1.5-14.8l2.2-1l-4.8-11.4c-2.4-9-6-17.6-10.8-25.6l-4.6-10.8l-2.2,0.9c-2.7-3.8-5.7-7.4-8.8-10.8
	c-41.1-39.3-105.8-39.3-146.9,0c-40.6,40.6-40.6,106.3,0,146.9C244.3,388.3,247.9,391.2,251.6,394L251.6,394z M277.6,274.9
	c13-13.5,32.3-18.9,50.5-14.2c18.2,4.8,32.3,18.9,37.1,37.1c4.7,18.2-0.7,37.5-14.2,50.5c-20.6,19.6-52.9,19.6-73.4,0
	C257.3,328.1,257.3,295.2,277.6,274.9L277.6,274.9z M1363.9,1216.4l1-2.3l-14.5-6.1c-5.1-2.7-10.4-5-15.9-6.7l-17.4-7.3l-1.3,3.1
	c-23-3.1-46.5,1.3-66.8,12.6l-92.2-92.2l-36.7,36.7l92,92c-9.5,15.9-14.6,34-14.7,52.5c0.1,5,0.6,9.9,1.5,14.8l-2.2,0.9l4.8,11.4
	c2.4,9,6,17.6,10.8,25.6l4.6,10.8l2.2-0.9c2.7,3.8,5.7,7.4,8.9,10.8c26.1,27,64.7,37.8,101,28.3c36.3-9.5,64.7-37.9,74.2-74.2
	c9.5-36.3-1.3-75-28.3-101C1371.3,1222,1367.7,1219.1,1363.9,1216.4L1363.9,1216.4z M1337.9,1335.3c-20.5,19.6-52.9,19.6-73.4,0
	c-20.3-20.3-20.3-53.2,0-73.5c20.3-20.3,53.2-20.3,73.5,0C1358.2,1282.1,1358.2,1315,1337.9,1335.3L1337.9,1335.3z M1509,701.2
	c-5,0.1-10,0.6-14.9,1.5l-1.4-3.3l-22.7,9.6c-1,0.4-2,0.8-2.9,1.3l-22.4,9.4l1.4,3.3c-18.4,14-31.5,33.8-37.3,56.1h-133.5v51.9
	h133.5c5.8,22.4,19,42.2,37.5,56.3l-1.4,3.3l22.4,9.4c0.9,0.4,1.9,0.8,2.9,1.3l22.6,9.5l1.4-3.3c38.4,5.6,76.8-10.7,99.4-42.3
	c22.6-31.6,25.6-73.2,7.8-107.8C1583.5,722.9,1547.9,701.2,1509,701.2L1509,701.2z M1509,857.1c-28.7,0-51.9-23.2-51.9-51.9
	c0-28.7,23.3-51.9,51.9-51.9c28.7,0,51.9,23.3,51.9,51.9C1561,833.8,1537.7,857.1,1509,857.1z M1196.6,295.9l2.2,1
	c-0.8,4.9-1.3,9.9-1.5,14.8c0.1,18.5,5.2,36.6,14.7,52.5l-92,92l36.7,36.7l92-92c15.9,9.5,34,14.6,52.5,14.7c5-0.1,9.9-0.6,14.8-1.5
	l0.9,2.2l11.5-4.8c9-2.4,17.6-6,25.6-10.8l10.8-4.6l-0.9-2.2c3.8-2.7,7.4-5.7,10.8-8.9c40.5-40.6,40.5-106.3,0-146.9
	c-41.1-39.3-105.8-39.3-146.9,0c-3.2,3.4-6.2,7-8.9,10.8l-2.2-0.9l-4.6,10.8c-4.7,8-8.4,16.6-10.8,25.6L1196.6,295.9z M1264.5,274.9
	c13-13.5,32.4-18.9,50.5-14.2c18.2,4.8,32.4,18.9,37.1,37.1c4.8,18.2-0.7,37.5-14.2,50.5c-20.6,19.6-52.9,19.6-73.4,0
	C1244.3,328.1,1244.3,295.2,1264.5,274.9L1264.5,274.9z M1022.7,223.2l20.2-47.8l43.3,18.2l-20.2,47.9L1022.7,223.2z M936.6,186.3
	l20.2-47.9l43.3,18.3L980,204.5L936.6,186.3z M1109.3,259.8l20.2-47.8l43.3,18.2l-20.1,47.8L1109.3,259.8z M1408.3,977.3l18.3-43.3
	l47.9,20.2l-18.3,43.3L1408.3,977.3z M1335.3,1150.6l18.3-43.3l47.9,20.2l-18.3,43.3L1335.3,1150.6z M1371.8,1063.9l18.3-43.3
	l47.9,20.2l-18.3,43.3L1371.8,1063.9z M527.9,1416.6l20.1-47.8l43.3,18.2l-20.1,47.8L527.9,1416.6z M614.5,1453.2l20.2-47.9
	l43.3,18.3l-20.1,47.8L614.5,1453.2z M442.1,1380.5l20.2-47.9l43.3,18.3l-20.2,47.9L442.1,1380.5z M419,1314.4l-2.2-0.9
	c0.8-4.9,1.3-9.9,1.5-14.8c-0.1-18.5-5.2-36.6-14.7-52.5l92-92l-36.7-36.7l-92.3,92.2c-20.3-11.3-43.7-15.7-66.7-12.6l-1.3-3.1
	l-17.4,7.3c-5.5,1.8-10.8,4-15.9,6.7l-14.5,6.1l1,2.3c-3.8,2.6-7.4,5.6-10.8,8.7c-27,26.1-37.9,64.7-28.3,101
	c9.5,36.3,37.9,64.7,74.2,74.2c36.3,9.5,74.9-1.3,101-28.3c3.2-3.4,6.1-7,8.8-10.8l2.2,0.9l4.6-10.8c4.8-8,8.4-16.6,10.8-25.6
	L419,1314.4z M351.1,1335.3c-20.6,19.6-52.9,19.6-73.4,0c-20.3-20.3-20.3-53.2,0-73.5c20.3-20.3,53.2-20.3,73.5,0
	C371.3,1282.2,371.3,1315,351.1,1335.3L351.1,1335.3z M177.6,569.4l18.3-43.3l47.9,20.2l-18.3,43.3L177.6,569.4z M141.1,656.1
	l18.3-43.3l47.9,20.2l-18.3,43.3L141.1,656.1z M214.2,482.8l18.3-43.3l47.9,20.2L262,503L214.2,482.8z M141.1,954.1l47.9-20.2
	l18.3,43.3l-47.9,20.2L141.1,954.1z M214.2,1127.5l47.9-20.2l18.3,43.3l-47.9,20.2L214.2,1127.5z M177.6,1040.8l47.9-20.2l18.3,43.3
	l-47.9,20.2L177.6,1040.8z M145.5,901.2l2.9-1.3l22.4-9.4l-1.4-3.3c18.4-14,31.5-33.8,37.4-56.2h133.6v-51.9H206.8
	c-5.8-22.4-19-42.2-37.5-56.3l1.4-3.3l-22.4-9.4c-1-0.4-2-0.8-2.9-1.2l-22.6-9.5l-1.4,3.3c-4.9-0.9-9.9-1.4-14.9-1.5
	c-57.4,0-103.9,46.5-103.9,103.9C2.7,862.5,49.2,909,106.6,909c5-0.1,10-0.7,14.9-1.5l1.4,3.3L145.5,901.2z M54.6,805.1
	c0-28.7,23.2-51.9,51.9-51.9s51.9,23.3,51.9,51.9c0,28.7-23.3,51.9-51.9,51.9S54.6,833.8,54.6,805.1z M1109.9,1350.9l43.3-18.3
	l20.2,47.9l-43.3,18.3L1109.9,1350.9z M936.6,1424l43.3-18.3l20.2,47.9l-43.3,18.3L936.6,1424z M1023.3,1387.4l43.3-18.3l20.2,47.9
	l-43.3,18.3L1023.3,1387.4z M903.9,1467.4l-1.2-2.9l-9.4-22.4l-3.3,1.4c-14-18.4-33.8-31.5-56.1-37.3v-133.6h-51.9v133.6
	c-22.4,5.8-42.2,19-56.2,37.5l-3.3-1.4l-20.2,47.9l3.3,1.4c-7,40.8,10.8,81.8,45.4,104.5c34.6,22.7,79.3,22.7,113.9,0
	c34.6-22.7,52.4-63.7,45.4-104.5l3.3-1.4L903.9,1467.4z M807.8,1558.3c-28.7,0-51.9-23.3-51.9-51.9s23.2-51.9,51.9-51.9
	s51.9,23.2,51.9,51.9S836.5,1558.3,807.8,1558.3z M1335.3,459.7l47.9-20.2l18.3,43.4l-47.9,20.2L1335.3,459.7z M1408.3,632.9
	l47.9-20.2l18.3,43.3l-47.9,20.2L1408.3,632.9z M1371.8,546.3l47.9-20.2l18.2,43.3l-47.9,20.2L1371.8,546.3z M711.7,142.9l1.2,2.9
	l9.4,22.4l3.3-1.4c14,18.4,33.8,31.5,56.1,37.3v133.6h52V204.1c22.4-5.8,42.2-19,56.2-37.5l3.3,1.4l20.2-47.9l-3.3-1.4
	c0.9-4.9,1.4-9.9,1.5-14.9C911.7,46.5,865.1,0,807.8,0c-57.4,0-103.9,46.5-103.9,103.9c0.1,5,0.7,10,1.5,14.9l-3.3,1.4L711.7,142.9z
	 M807.8,51.9c28.7,0,51.9,23.2,51.9,51.9s-23.3,52-51.9,52c-28.7,0-51.9-23.3-51.9-52S779.1,51.9,807.8,51.9z M442.1,229.8
	l43.3-18.3l20.2,47.9l-43.3,18.3L442.1,229.8z M615.4,156.7l43.3-18.3l20.2,47.9l-43.3,18.3L615.4,156.7z M528.8,193.2l43.3-18.3
	l20.2,47.9L549,241.1L528.8,193.2z"/>
</svg>
