<?xml version="1.0" encoding="utf-8"?>
<!-- Generator: Adobe Illustrator 23.0.2, SVG Export Plug-In . SVG Version: 6.00 Build 0)  -->
<svg version="1.1" id="Capa_1" xmlns="http://www.w3.org/2000/svg" xmlns:xlink="http://www.w3.org/1999/xlink" x="0px" y="0px"
	 viewBox="0 0 60 60" style="enable-background:new 0 0 60 60;" xml:space="preserve">
<style type="text/css">
	.st0{fill:#D12027;}
</style>
<g>
	<path class="st0" d="M2,30c0-8.8,7.2-16,16-16h21.6l-7.3,7.3c-0.4,0.4-0.4,1,0,1.4c0.2,0.2,0.5,0.3,0.7,0.3s0.5-0.1,0.7-0.3l9-9
		c0.1-0.1,0.2-0.2,0.2-0.3c0.1-0.2,0.1-0.5,0-0.8c-0.1-0.1-0.1-0.2-0.2-0.3l-9-9c-0.4-0.4-1-0.4-1.4,0s-0.4,1,0,1.4l7.3,7.3H18
		C8.1,12,0,20.1,0,30c0,4.8,1.9,9.3,5.3,12.7C5.5,42.9,5.7,43,6,43s0.5-0.1,0.7-0.3c0.4-0.4,0.4-1,0-1.4C3.7,38.3,2,34.3,2,30z"/>
	<path class="st0" d="M55.7,18.3c-0.4-0.4-1-0.5-1.4-0.1s-0.5,1-0.1,1.4C56.6,22.5,58,26.2,58,30c0,8.8-7.2,16-16,16H18.4l7.3-7.3
		c0.4-0.4,0.4-1,0-1.4s-1-0.4-1.4,0l-9,9c-0.4,0.4-0.4,1,0,1.4l9,9c0.2,0.2,0.5,0.3,0.7,0.3s0.5-0.1,0.7-0.3c0.4-0.4,0.4-1,0-1.4
		L18.4,48H42c9.9,0,18-8.1,18-18C60,25.7,58.5,21.6,55.7,18.3z"/>
</g>
</svg>
