<?xml version="1.0" encoding="utf-8"?>
<!-- Generator: Adobe Illustrator 23.0.2, SVG Export Plug-In . SVG Version: 6.00 Build 0)  -->
<svg version="1.1" id="Layer_1" xmlns="http://www.w3.org/2000/svg" xmlns:xlink="http://www.w3.org/1999/xlink" x="0px" y="0px"
	 viewBox="0 0 512 512" style="enable-background:new 0 0 512 512;" xml:space="preserve">
<style type="text/css">
	.st0{fill:#D12027;}
</style>
<path class="st0" d="M336,336c-5.5,0-10,4.5-10,10s4.5,10,10,10s10-4.5,10-10S341.5,336,336,336z M200,326c-5.5,0-10-4.5-10-10
	c0-5.5,4.5-10,10-10c3.5,0,7.3,1.8,10.8,5.2c4,3.8,10.4,3.6,14.1-0.5c3.7-3.9,3.6-10.1-0.2-13.9c-5.1-4.9-10.2-7.7-14.7-9.2V276
	c0-5.5-4.5-10-10-10s-10,4.5-10,10v11.7c-11.6,4.1-20,15.2-20,28.3c0,16.5,13.5,30,30,30c5.5,0,10,4.5,10,10s-4.5,10-10,10
	c-4.3,0-8.9-2.7-13-7.6c-3.6-4.2-9.9-4.8-14.1-1.2c-4.2,3.6-4.8,9.9-1.2,14.1c5.3,6.4,11.6,10.8,18.3,13V396c0,5.5,4.5,10,10,10
	s10-4.5,10-10v-11.7c11.6-4.1,20-15.2,20-28.3C230,339.5,216.5,326,200,326L200,326z M120,166c5.5,0,10-4.5,10-10v-40
	c0-5.5-4.5-10-10-10s-10,4.5-10,10v40C110,161.5,114.5,166,120,166z M472,236v-80c0-27.6-22.4-50-50-50h-56V30c0-16.5-13.5-30-30-30
	H150c-16.5,0-30,13.5-30,30v36H90c-16.5,0-30,13.5-30,30v10H50c-27.6,0-50,22.4-50,50v306c0,27.6,22.4,50,50,50h306
	c24.1,0,44.3-17.2,49-40h17c27.6,0,50-22.4,50-50v-26h10c16.5,0,30-13.5,30-30v-90C512,253.9,494.1,236,472,236z M492,276
	c0,11-9,20-20,20v-40C483,256,492,265,492,276z M422,126c16.5,0,30,13.5,30,30v140h-46v-60c0-24.1-17.2-44.3-40-49v-61H422z M140,30
	c0-5.5,4.5-10,10-10h186c5.5,0,10,4.5,10,10v156h-46V96c0-16.5-13.5-30-30-30H140V30z M240,186V86h30c5.5,0,10,4.5,10,10v90H240z
	 M180,186V86h40v100H180z M80,96c0-5.5,4.5-10,10-10h70v100H80V96z M50,126h10v60h-7.9C35.6,186,20,174,20,156
	C20,139.5,33.5,126,50,126z M356,492H50c-16.5,0-30-13.5-30-30V195.4C28.9,202,40.2,206,52.1,206H356c16.5,0,30,13.5,30,30v60h-70
	c-16.5,0-30,13.5-30,30v40c0,16.5,13.5,30,30,30h70v66C386,478.5,372.5,492,356,492z M452,422c0,16.5-13.5,30-30,30h-16v-56h46V422z
	 M482,376H316c-5.5,0-10-4.5-10-10v-40c0-5.5,4.5-10,10-10h156c7.1,0,14-1.9,20-5.4V366C492,371.5,487.5,376,482,376z M422,336h-46
	c-5.5,0-10,4.5-10,10s4.5,10,10,10h46c5.5,0,10-4.5,10-10S427.5,336,422,336z"/>
</svg>
