<?xml version="1.0" encoding="utf-8"?>
<!-- Generator: Adobe Illustrator 23.0.2, SVG Export Plug-In . SVG Version: 6.00 Build 0)  -->
<svg version="1.1" id="Capa_1" xmlns="http://www.w3.org/2000/svg" xmlns:xlink="http://www.w3.org/1999/xlink" x="0px" y="0px"
	 viewBox="0 0 512 512" style="enable-background:new 0 0 512 512;" xml:space="preserve">
<style type="text/css">
	.st0{fill:#D12026;}
</style>
<g>
	<g>
		<path class="st0" d="M418.1,324.3C418.1,324.3,418.1,324.3,418.1,324.3h-98.9l-31.6-31.6c-1.6-1.6-3.8-2.5-6-2.5H179.2
			c-4.7,0-8.5,3.8-8.5,8.5c0,0,0,0,0,0v25.6h-23.6l-49.4-24.7c-4.2-2.1-9.3-0.4-11.4,3.8c-0.6,1.2-0.9,2.5-0.9,3.8v170.7
			c0,3.2,1.8,6.2,4.7,7.6l51.2,25.6c1.2,0.6,2.5,0.9,3.8,0.9h119.5c0.9,0,1.8-0.1,2.7-0.4l49.9-16.6h101c4.7,0,8.5-3.8,8.5-8.5
			c0,0,0,0,0,0V332.8C426.7,328.1,422.8,324.3,418.1,324.3z M409.6,477.9h-93.9c-0.9,0-1.8,0.1-2.7,0.4l-49.9,16.6H147.1l-44.7-22.3
			V449l38.9,19.4c1.2,0.6,2.5,0.9,3.8,0.9h51.2c4.7,0,8.5-3.8,8.5-8.5c0-4.7-3.8-8.5-8.5-8.5h-49.2l-44.7-22.3v-23.6l38.9,19.4
			c1.2,0.6,2.5,0.9,3.8,0.9h51.2c4.7,0,8.5-3.8,8.5-8.5s-3.8-8.5-8.5-8.5h-49.2l-44.7-22.3v-23.6l38.9,19.4c1.2,0.6,2.5,0.9,3.8,0.9
			h51.2c4.7,0,8.5-3.8,8.5-8.5c0-4.7-3.8-8.5-8.5-8.5h-49.2l-44.7-22.3V321l38.9,19.4c1.2,0.6,2.5,0.9,3.8,0.9H256v-17.1h-68.3
			v-17.1h90.3l31.6,31.6c1.6,1.6,3.8,2.5,6,2.5h93.9V477.9z"/>
	</g>
</g>
<g>
	<g>
		<path class="st0" d="M370.5,264.5l-24.7-24.7c30.6-25.4,47.8-63.5,46.7-103.3C392.5,61.1,331.4,0,256,0S119.5,61.1,119.5,136.5
			S180.6,273.1,256,273.1c26.9-0.5,53.2-8.5,75.8-23.1l31.6,31.6h63.3v-17.1H370.5z M256,256c-65.9-0.1-119.4-53.5-119.5-119.5
			c0-66,53.5-119.5,119.5-119.5s119.5,53.5,119.5,119.5C375.5,218.9,305.6,256,256,256z"/>
	</g>
</g>
<g>
	<g>
		
			<rect x="174.5" y="123.7" transform="matrix(0.7328 -0.6805 0.6805 0.7328 -21.5968 209.5457)" class="st0" width="163" height="17.1"/>
	</g>
</g>
<g>
	<g>
		<path class="st0" d="M213.3,68.3c-14.1,0-25.6,11.5-25.6,25.6c0,14.1,11.5,25.6,25.6,25.6c14.1,0,25.6-11.5,25.6-25.6
			S227.5,68.3,213.3,68.3z M213.3,102.4c-4.7,0-8.5-3.8-8.5-8.5c0-4.7,3.8-8.5,8.5-8.5c4.7,0,8.5,3.8,8.5,8.5S218,102.4,213.3,102.4
			z"/>
	</g>
</g>
<g>
	<g>
		<path class="st0" d="M298.7,145.1c-14.1,0-25.6,11.5-25.6,25.6s11.5,25.6,25.6,25.6s25.6-11.5,25.6-25.6
			C324.3,156.5,312.8,145.1,298.7,145.1z M298.7,179.2c-4.7,0-8.5-3.8-8.5-8.5c0-4.7,3.8-8.5,8.5-8.5s8.5,3.8,8.5,8.5
			C307.2,175.4,303.4,179.2,298.7,179.2z"/>
	</g>
</g>
</svg>
