<?xml version="1.0" encoding="utf-8"?>
<!-- Generator: Adobe Illustrator 23.0.2, SVG Export Plug-In . SVG Version: 6.00 Build 0)  -->
<svg version="1.1" id="Capa_1" xmlns="http://www.w3.org/2000/svg" xmlns:xlink="http://www.w3.org/1999/xlink" x="0px" y="0px"
	 viewBox="0 0 512 512" style="enable-background:new 0 0 512 512;" xml:space="preserve">
<style type="text/css">
	.st0{fill:#D12026;}
</style>
<g>
	<g>
		<path class="st0" d="M375.4,169V76.7c0-4.8-2.6-9.1-6.9-11.3c-4.2-2.2-9.3-1.9-13.3,0.8c-91.8,63.5-144.5,71.6-180.1,71.6H73.2
			C32.8,137.9,0,170.7,0,211v27.2c0,40.3,32.8,73.2,73.2,73.2h48.9l53.1,128.7c2,4.9,6.8,7.9,11.8,7.9c1.7,0,3.2-0.3,4.9-0.9
			c6.6-2.7,9.6-10.1,7-16.7l-49.1-119H175c124.2,0,175,65.8,177.3,68.8c2.5,3.3,6.3,5.2,10.2,5.2c1.4,0,2.7-0.2,4-0.6
			c5.2-1.8,8.8-6.6,8.8-12.1v-92.2c25.4-5.9,44.3-28.5,44.3-55.7C419.8,197.6,400.8,174.8,375.4,169z M25.6,238.2V211
			c0-26.2,21.3-47.6,47.6-47.6h44.7v122.3H73.2C46.9,285.8,25.6,264.5,25.6,238.2z M349.8,341.8c-28.4-23.4-84.3-56-174.8-56h-31.6
			V163.5H175c36.6,0,89.1-7.5,174.8-62.7V341.8z M375.4,253.5v-57.6c11.1,4.9,18.7,16,18.7,28.9
			C394.2,237.5,386.5,248.6,375.4,253.5z"/>
		<path class="st0" d="M499.1,211.9h-50.1c-7.1,0-12.9,5.7-12.9,12.9s5.7,12.9,12.9,12.9h50.1c7.1,0,12.9-5.7,12.9-12.9
			C512,217.5,506.3,211.9,499.1,211.9z"/>
		<path class="st0" d="M431.3,184.9c2,5,6.8,8.2,11.9,8.2c1.6,0,3.1-0.3,4.7-0.8l48.5-19c6.6-2.6,9.8-10,7.2-16.6
			c-2.6-6.6-10-9.8-16.6-7.2l-48.5,19C432,170.9,428.8,178.3,431.3,184.9z"/>
		<path class="st0" d="M496.4,276.1l-48.5-19c-6.6-2.6-14,0.6-16.6,7.2c-2.6,6.6,0.6,14,7.2,16.6l48.5,19c1.6,0.6,3.1,0.8,4.7,0.8
			c5.1,0,9.9-3.1,11.9-8.2C506.3,286.1,503,278.7,496.4,276.1z"/>
	</g>
</g>
</svg>
