<?xml version="1.0" encoding="utf-8"?>
<!-- Generator: Adobe Illustrator 23.0.2, SVG Export Plug-In . SVG Version: 6.00 Build 0)  -->
<svg version="1.1" id="Capa_1" xmlns="http://www.w3.org/2000/svg" xmlns:xlink="http://www.w3.org/1999/xlink" x="0px" y="0px"
	 viewBox="0 0 480 480" style="enable-background:new 0 0 480 480;" xml:space="preserve">
<style type="text/css">
	.st0{fill:#CF2027;}
</style>
<g>
	<g>
		<rect x="232" y="392" class="st0" width="16" height="16"/>
	</g>
</g>
<g>
	<g>
		<path class="st0" d="M472,408h-8V120c0-17.7-14.3-32-32-32h-32V40c0-17.7-14.3-32-32-32H176c-17.7,0-32,14.3-32,32v8h-16
			c-17.7,0-32,14.3-32,32v8H48c-17.7,0-32,14.3-32,32v288H8c-4.4,0-8,3.6-8,8v24c0,17.7,14.3,32,32,32h416c17.7,0,32-14.3,32-32v-24
			C480,411.6,476.4,408,472,408z M160,40c0-8.8,7.2-16,16-16h192c8.8,0,16,7.2,16,16v128c0,8.8-7.2,16-16,16h-16
			c-2.5,0-4.9,1.2-6.4,3.2L328,210.7l-17.6-23.5c-1.5-2-3.9-3.2-6.4-3.2H176c-8.8,0-16-7.2-16-16V40z M112,80c0-8.8,7.2-16,16-16h16
			v104c0,17.7,14.3,32,32,32h104v8c0,8.8-7.2,16-16,16h-56c-2.5,0-4.9,1.2-6.4,3.2L184,250.7l-17.6-23.5c-1.5-2-3.9-3.2-6.4-3.2h-32
			c-8.8,0-16-7.2-16-16V80z M128,240h28l21.6,28.8c2.7,3.5,7.7,4.3,11.2,1.6c0.6-0.5,1.1-1,1.6-1.6L212,240h52c17.7,0,32-14.3,32-32
			v-8h4l21.6,28.8c2.7,3.5,7.7,4.3,11.2,1.6c0.6-0.5,1.1-1,1.6-1.6L356,200h12c17.7,0,32-14.3,32-32v-32h16v224h-32v-8
			c0-13.3-6.6-25.7-17.6-33.2c12.6-12.3,12.9-32.6,0.5-45.3c-12.3-12.6-32.6-12.9-45.3-0.5c-12.6,12.3-12.9,32.6-0.5,45.3
			c0.2,0.2,0.4,0.4,0.5,0.5c-11,7.4-17.6,19.9-17.6,33.2v8H176v-8c0-13.3-6.6-25.7-17.6-33.2c12.6-12.3,12.9-32.6,0.5-45.3
			c-12.3-12.6-32.6-12.9-45.3-0.5c-12.6,12.3-12.9,32.6-0.5,45.3c0.2,0.2,0.4,0.4,0.5,0.5c-11,7.4-17.6,19.9-17.6,33.2v8H64V136h32
			v72C96,225.7,110.3,240,128,240z M344,328c13.3,0,24,10.7,24,24v8h-48v-8C320,338.7,330.7,328,344,328z M328,296
			c0-8.8,7.2-16,16-16s16,7.2,16,16s-7.2,16-16,16S328,304.8,328,296z M136,328c13.3,0,24,10.7,24,24v8h-48v-8
			C112,338.7,122.7,328,136,328z M120,296c0-8.8,7.2-16,16-16s16,7.2,16,16s-7.2,16-16,16S120,304.8,120,296z M32,120
			c0-8.8,7.2-16,16-16h48v16H56c-4.4,0-8,3.6-8,8v240c0,4.4,3.6,8,8,8h368c4.4,0,8-3.6,8-8V128c0-4.4-3.6-8-8-8h-24v-16h32
			c8.8,0,16,7.2,16,16v288H312c-2.1,0-4.2,0.8-5.7,2.3L292.7,424H187.3l-13.7-13.7c-1.5-1.5-3.5-2.3-5.7-2.3H32V120z M464,440
			c0,8.8-7.2,16-16,16H32c-8.8,0-16-7.2-16-16v-16h148.7l13.7,13.7c1.5,1.5,3.5,2.3,5.7,2.3h112c2.1,0,4.2-0.8,5.7-2.3l13.7-13.7
			H464V440z"/>
	</g>
</g>
<g>
	<g>
		<rect x="232" y="48" class="st0" width="128" height="16"/>
	</g>
</g>
<g>
	<g>
		<rect x="184" y="80" class="st0" width="176" height="16"/>
	</g>
</g>
<g>
	<g>
		<rect x="184" y="112" class="st0" width="176" height="16"/>
	</g>
</g>
<g>
	<g>
		<rect x="184" y="144" class="st0" width="144" height="16"/>
	</g>
</g>
<g>
	<g>
		<rect x="200" y="48" class="st0" width="16" height="16"/>
	</g>
</g>
</svg>
