<?xml version="1.0" encoding="utf-8"?>
<!-- Generator: Adobe Illustrator 23.0.2, SVG Export Plug-In . SVG Version: 6.00 Build 0)  -->
<svg version="1.1" id="Capa_1" xmlns="http://www.w3.org/2000/svg" xmlns:xlink="http://www.w3.org/1999/xlink" x="0px" y="0px"
	 viewBox="0 0 512 512" style="enable-background:new 0 0 512 512;" xml:space="preserve">
<style type="text/css">
	.st0{fill:#CF2027;}
</style>
<g>
	<g>
		<path class="st0" d="M456.7,390.6c-1.9-1.9-4.4-2.9-7.1-2.9s-5.2,1.1-7.1,2.9s-2.9,4.4-2.9,7.1s1.1,5.2,2.9,7.1
			c1.9,1.9,4.4,2.9,7.1,2.9c2.6,0,5.2-1.1,7.1-2.9c1.9-1.9,2.9-4.4,2.9-7.1S458.6,392.5,456.7,390.6z"/>
	</g>
</g>
<g>
	<g>
		<path class="st0" d="M503.6,437.5l-21.1-21.1c-3.9-3.9-10.2-3.9-14.1,0s-3.9,10.2,0,14.1l21.1,21.1c1.6,1.6,2.5,3.8,2.5,6.1
			c0,2.3-0.9,4.5-2.5,6.1l-25.6,25.6c-3.4,3.4-8.8,3.4-12.2,0L359.2,397l37.8-37.8l19.4,19.4c3.9,3.9,10.2,3.9,14.1,0
			s3.9-10.2,0-14.1L404.1,338c-3.9-3.9-10.2-3.9-14.1,0l-4.4,4.4l-27.7-27.7C381.9,282,396,241.6,396,198C396,88.8,307.2,0,198,0
			S0,88.8,0,198s88.8,198,198,198c43.6,0,83.9-14.2,116.6-38.1l27.7,27.7l-4.4,4.4c-3.9,3.9-3.9,10.2,0,14.1l99.5,99.5
			c5.6,5.6,12.9,8.4,20.2,8.4c7.3,0,14.7-2.8,20.2-8.4l25.6-25.6c5.4-5.4,8.4-12.6,8.4-20.2S509,442.9,503.6,437.5z M198,376
			c-98.2,0-178-79.9-178-178S99.9,20,198,20s178,79.9,178,178S296.2,376,198,376z M330.3,345.2c5.2-4.7,10.2-9.7,14.9-14.9
			l26.2,26.2l-14.9,14.9L330.3,345.2z"/>
	</g>
</g>
<g>
	<g>
		<path class="st0" d="M198.6,50.1l-0.5,0c-5.5,0-10,4.5-10,10s4.5,10,10,10l0.5,0c0,0,0,0,0,0c5.5,0,10-4.5,10-10
			C208.5,54.6,204.1,50.1,198.6,50.1z"/>
	</g>
</g>
<g>
	<g>
		<path class="st0" d="M315.6,108.2c-19.2-25.1-46.5-43.8-76.8-52.4c-5.3-1.5-10.8,1.6-12.4,6.9s1.6,10.8,6.9,12.4
			c54.6,15.6,92.7,66.2,92.7,123c0,34.8-14,66.4-36.6,89.5c0.4-1.1,0.6-2.2,0.6-3.5v-21.5c0-32.4-23.7-59.3-54.7-64.3
			c5.5-7.6,8.7-16.9,8.7-26.9v-60.1c0-5.5-4.5-10-10-10h-44.7c-20.7,0-37.5,16.8-37.5,37.5v32.6c0,10.1,3.2,19.4,8.7,26.9
			c-31,5.1-54.7,32-54.7,64.3V284c0,1.2,0.2,2.4,0.6,3.5C84,264.4,70.1,232.8,70.1,198c0-56.4,36.1-105.5,89.9-122.2
			c5.3-1.6,8.2-7.2,6.6-12.5c-1.6-5.3-7.2-8.2-12.5-6.6c-29.5,9.2-56,27.9-74.6,52.8c-19.2,25.7-29.4,56.3-29.4,88.5
			C50.1,279.6,116.4,346,198,346S346,279.6,346,198C346,165.2,335.5,134.1,315.6,108.2z M198,197.3c-14.4,0-26.1-11.7-26.1-26.1
			v-7.1h41.3c3.8,0,7.5-0.7,10.8-2v9.1C224.1,185.6,212.4,197.3,198,197.3z M213.9,217.3L198,233.2l-15.9-15.9H213.9z M171.9,138.6
			L171.9,138.6c0-9.6,7.8-17.5,17.5-17.5h34.7v12.2c0,6-4.9,10.8-10.8,10.8h-41.3V138.6z M126,262.5L126,262.5
			c0-19.7,12.7-36.5,30.4-42.7l34.6,34.6c2,2,4.5,2.9,7.1,2.9s5.1-1,7.1-2.9l34.6-34.6c17.6,6.2,30.4,23,30.4,42.7V274H126V262.5z
			 M198,326c-32.6,0-62.4-12.3-85-32.4c0.9,0.3,1.9,0.5,3,0.5h164c1,0,2-0.2,3-0.5C260.4,313.7,230.6,326,198,326z"/>
	</g>
</g>
</svg>
