<?xml version="1.0" encoding="utf-8"?>
<!-- Generator: Adobe Illustrator 23.0.2, SVG Export Plug-In . SVG Version: 6.00 Build 0)  -->
<svg version="1.1" id="Layer_1" xmlns="http://www.w3.org/2000/svg" xmlns:xlink="http://www.w3.org/1999/xlink" x="0px" y="0px"
	 viewBox="0 0 512 512" style="enable-background:new 0 0 512 512;" xml:space="preserve">
<style type="text/css">
	.st0{fill:#CF2027;}
</style>
<g>
	<g>
		<path class="st0" d="M463.3,419.6c14.6-10.5,24.1-27.5,24.1-46.8c0-31.7-25.8-57.6-57.6-57.6s-57.6,25.8-57.6,57.6
			c0,19.3,9.5,36.4,24.2,46.8c-28.7,12.8-48.7,41.6-48.7,75c0,4.9,4,8.9,8.9,8.9s8.9-4,8.9-8.9c0-35.4,28.8-64.2,64.2-64.2
			s64.2,28.8,64.2,64.2c0,4.9,4,8.9,8.9,8.9s8.9-4,8.9-8.9C512,461.2,492,432.4,463.3,419.6z M429.9,412.5
			c-21.9,0-39.7-17.8-39.7-39.7S408,333,429.9,333c21.9,0,39.7,17.8,39.7,39.7S451.8,412.5,429.9,412.5z"/>
	</g>
</g>
<g>
	<g>
		<path class="st0" d="M313,31.9c-15.6-15.4-36.2-23.7-58.1-23.3c-44.7,0.6-80.5,37.5-79.9,82.2c0.3,20.8,8.4,40.4,22.9,55.4
			c9.8,10.2,15.3,23.3,15.3,36.9v10.4c0,20.9,17,37.9,37.9,37.9h10.2c20.9,0,37.9-17,37.9-37.9V183c0-13.7,5.4-26.8,15.2-36.9
			c14.8-15.2,22.9-35.3,22.9-56.5C337.1,67.8,328.5,47.2,313,31.9z M281.1,193.4c0,11-9,20-20,20h-10.2c-11,0-20-9-20-20V192h50.3
			L281.1,193.4L281.1,193.4z M301.4,133.7c-10.9,11.2-17.7,25.3-19.7,40.4h-16.8v-51.5l26.4-26.4c3.5-3.5,3.5-9.1,0-12.6
			c-3.5-3.5-9.1-3.5-12.6,0L256,106.3l-22.7-22.7c-3.5-3.5-9.1-3.5-12.6,0c-3.5,3.5-3.5,9.1,0,12.6l26.4,26.4v51.5h-16.8
			c-1.9-15-8.8-29.2-19.7-40.4c-11.3-11.6-17.6-27-17.8-43.2c-0.5-34.9,27.5-63.6,62.3-64.1c0.3,0,0.6,0,0.9,0
			c16.7,0,32.5,6.4,44.4,18.2c12.2,12,18.8,28,18.8,45C319.3,106.2,312.9,121.8,301.4,133.7z"/>
	</g>
</g>
<g>
	<g>
		<path class="st0" d="M171.1,233.9c-3.5-3.5-9.1-3.5-12.6,0L105,287.4c-3.5,3.5-3.5,9.1,0,12.6c1.7,1.7,4,2.6,6.3,2.6
			s4.6-0.9,6.3-2.6l53.6-53.6C174.6,243,174.6,237.4,171.1,233.9z"/>
	</g>
</g>
<g>
	<g>
		<path class="st0" d="M407,287.4l-53.6-53.6c-3.5-3.5-9.1-3.5-12.6,0c-3.5,3.5-3.5,9.1,0,12.6l53.6,53.6c1.7,1.7,4,2.6,6.3,2.6
			s4.6-0.9,6.3-2.6C410.5,296.6,410.5,290.9,407,287.4z"/>
	</g>
</g>
<g>
	<g>
		<path class="st0" d="M256,252.5c-4.9,0-8.9,4-8.9,8.9v34.1c0,4.9,4,8.9,8.9,8.9c4.9,0,8.9-4,8.9-8.9v-34.1
			C264.9,256.5,260.9,252.5,256,252.5z"/>
	</g>
</g>
<g>
	<g>
		<circle class="st0" cx="409.5" cy="352.7" r="8.9"/>
	</g>
</g>
<g>
	<g>
		<circle class="st0" cx="442.3" cy="352.7" r="8.9"/>
	</g>
</g>
<g>
	<g>
		<path class="st0" d="M289.4,419.6c14.6-10.5,24.1-27.5,24.1-46.8c0-31.7-25.8-57.6-57.6-57.6s-57.6,25.8-57.6,57.6
			c0,19.3,9.5,36.4,24.2,46.8c-28.7,12.8-48.7,41.6-48.7,75c0,4.9,4,8.9,8.9,8.9s8.9-4,8.9-8.9c0-35.4,28.8-64.2,64.2-64.2
			s64.2,28.8,64.2,64.2c0,4.9,4,8.9,8.9,8.9s8.9-4,8.9-8.9C338.1,461.2,318.1,432.4,289.4,419.6z M256,412.5
			c-21.9,0-39.7-17.8-39.7-39.7S234.1,333,256,333c21.9,0,39.7,17.8,39.7,39.7C295.7,394.6,277.9,412.5,256,412.5z"/>
	</g>
</g>
<g>
	<g>
		<circle class="st0" cx="239.6" cy="352.7" r="8.9"/>
	</g>
</g>
<g>
	<g>
		<circle class="st0" cx="272.4" cy="352.7" r="8.9"/>
	</g>
</g>
<g>
	<g>
		<path class="st0" d="M115.5,419.6c14.6-10.5,24.2-27.6,24.2-46.8c0-31.7-25.8-57.6-57.6-57.6S24.5,341,24.5,372.7
			c0,19.3,9.5,36.4,24.1,46.8C20,432.4,0,461.2,0,494.5c0,4.9,4,8.9,8.9,8.9s8.9-4,8.9-8.9c0-35.4,28.8-64.2,64.2-64.2
			s64.2,28.8,64.2,64.2c0,4.9,4,8.9,8.9,8.9s8.9-4,8.9-8.9C164.2,461.2,144.2,432.4,115.5,419.6z M82.1,412.5
			c-21.9,0-39.7-17.8-39.7-39.7S60.2,333,82.1,333c21.9,0,39.7,17.8,39.7,39.7S104,412.5,82.1,412.5z"/>
	</g>
</g>
<g>
	<g>
		<circle class="st0" cx="102.5" cy="352.7" r="8.9"/>
	</g>
</g>
<g>
	<g>
		<circle class="st0" cx="69.7" cy="352.7" r="8.9"/>
	</g>
</g>
</svg>
