<?xml version="1.0" encoding="utf-8"?>
<!-- Generator: Adobe Illustrator 23.0.2, SVG Export Plug-In . SVG Version: 6.00 Build 0)  -->
<svg version="1.1" id="Capa_1" xmlns="http://www.w3.org/2000/svg" xmlns:xlink="http://www.w3.org/1999/xlink" x="0px" y="0px"
	 viewBox="0 0 512 512" style="enable-background:new 0 0 512 512;" xml:space="preserve">
<style type="text/css">
	.st0{fill:#D12027;}
</style>
<g>
	<g>
		<g>
			<path class="st0" d="M486.4,0H25.6C11.5,0,0,11.5,0,25.6v460.8C0,500.5,11.5,512,25.6,512h460.8c14.1,0,25.6-11.5,25.6-25.6V25.6
				C512,11.5,500.5,0,486.4,0z M494.9,486.4c0,4.7-3.8,8.5-8.5,8.5H25.6c-4.7,0-8.5-3.8-8.5-8.5V85.3h477.9L494.9,486.4L494.9,486.4
				z M494.9,68.3H17.1V25.6c0-4.7,3.8-8.5,8.5-8.5h460.8c4.7,0,8.5,3.8,8.5,8.5L494.9,68.3L494.9,68.3z"/>
			<path class="st0" d="M36.6,36.6c-3.3,3.4-3.3,8.8,0,12.1c3.4,3.3,8.8,3.3,12.1,0c3.3-3.4,3.3-8.8,0-12.1
				C45.3,33.4,40,33.4,36.6,36.6z"/>
			<path class="st0" d="M81.6,35.6c-0.5-0.3-1-0.6-1.5-0.8c-0.5-0.2-1-0.4-1.5-0.5c-1.7-0.3-3.4-0.2-4.9,0.5c-1,0.4-2,1-2.8,1.8
				c-3.3,3.4-3.3,8.8,0,12.1c0.8,0.8,1.8,1.4,2.8,1.8c1,0.4,2.1,0.7,3.2,0.7c0.6,0,1.1-0.1,1.7-0.2c0.5-0.1,1.1-0.3,1.5-0.5
				c0.5-0.2,1.1-0.4,1.5-0.8c0.4-0.3,0.8-0.7,1.3-1c0.3-0.4,0.7-0.9,1-1.4c0.3-0.4,0.6-0.9,0.8-1.5c0.2-0.5,0.4-1,0.5-1.5
				c0.1-0.6,0.2-1.1,0.2-1.7c0-2.3-0.9-4.4-2.5-6.1C82.4,36.3,82,35.9,81.6,35.6z"/>
			<path class="st0" d="M118.8,39.4c-0.2-0.5-0.4-1.1-0.8-1.5c-0.3-0.4-0.7-0.9-1-1.3c-2.4-2.5-6.1-3.2-9.3-1.9s-5.3,4.5-5.3,7.9
				c0,3.5,2.1,6.6,5.3,7.9c3.2,1.3,6.9,0.6,9.3-1.8c0.4-0.4,0.7-0.8,1-1.3c0.3-0.5,0.6-1,0.8-1.5c0.2-0.5,0.4-1,0.5-1.5
				c0.1-0.6,0.2-1.1,0.2-1.7c0-0.6-0.1-1.1-0.2-1.7C119.2,40.4,119,39.9,118.8,39.4z"/>
			<path class="st0" d="M315.7,34.1H196.3c-4.7,0-8.5,3.8-8.5,8.5s3.8,8.5,8.5,8.5h119.5c4.7,0,8.5-3.8,8.5-8.5
				S320.4,34.1,315.7,34.1z"/>
			<path class="st0" d="M469.3,34.1h-8.5c-4.7,0-8.5,3.8-8.5,8.5s3.8,8.5,8.5,8.5h8.5c4.7,0,8.5-3.8,8.5-8.5S474,34.1,469.3,34.1z"
				/>
			<path class="st0" d="M426.7,34.1h-8.5c-4.7,0-8.5,3.8-8.5,8.5s3.8,8.5,8.5,8.5h8.5c4.7,0,8.5-3.8,8.5-8.5S431.4,34.1,426.7,34.1z
				"/>
			<path class="st0" d="M76.8,196.3c20.3,0,37.7-14.3,41.8-34.1h31.5l-11,11c-2.2,2.2-3,5.3-2.2,8.3c0.8,3,3.1,5.3,6.1,6.1
				s6.1-0.1,8.3-2.2l23.1-23.1h30.6v17.1c0,9.4,7.6,17.1,17.1,17.1h136.5c9.4,0,17.1-7.6,17.1-17.1v-17.1h85.3v102.4H302.2l11-11
				c2.2-2.2,3-5.3,2.3-8.3s-3.1-5.3-6.1-6.1s-6.1,0.1-8.3,2.3l-23.1,23.1H256v-17.1c0-9.4-7.6-17.1-17.1-17.1H102.4
				c-9.4,0-17.1,7.6-17.1,17.1v51.2c0,9.4,7.6,17.1,17.1,17.1h59.7v30.6l-11-11c-3.3-3.3-8.7-3.3-12,0c-3.3,3.3-3.3,8.7,0,12
				l23.1,23.1V384H128c-3.2,0-6.2,1.8-7.6,4.7L86.2,457c-1.3,2.6-1.2,5.8,0.4,8.3c1.6,2.5,4.3,4,7.3,4h119.5c3.2,0,6.2-1.8,7.6-4.7
				l14.7-29.4h119.2l-11,11c-2.2,2.2-3,5.3-2.3,8.3c0.8,3,3.1,5.3,6.1,6.1s6.1-0.1,8.3-2.3l23.1-23.1h14.4
				c4.4,21.5,24.3,36.1,46.1,33.9c21.8-2.2,38.4-20.5,38.4-42.5s-16.6-40.2-38.4-42.5c-21.8-2.2-41.7,12.5-46.1,33.9H379L355.9,395
				c-3.3-3.3-8.7-3.3-12,0c-3.3,3.3-3.3,8.7,0,12l11,11H244.2l10.9-21.8c1.3-2.6,1.2-5.8-0.4-8.3c-1.6-2.5-4.3-4-7.3-4h-68.3v-13.5
				l23.1-23.1c3.3-3.3,3.3-8.7,0-12s-8.7-3.3-12,0l-11,11v-30.6h59.7c9.4,0,17.1-7.6,17.1-17.1v-17.1h22.1l23.1,23.1
				c3.3,3.3,8.7,3.3,12,0c3.3-3.3,3.3-8.7,0-12l-11-11h167.1c2.3,0,4.4-0.9,6-2.5c1.6-1.6,2.5-3.8,2.5-6V153.6c0-2.3-0.9-4.4-2.5-6
				c-1.6-1.6-3.8-2.5-6-2.5h-93.9V128c0-9.4-7.6-17.1-17.1-17.1H221.9c-9.4,0-17.1,7.6-17.1,17.1v17.1h-30.6L151.1,122
				c-3.3-3.3-8.7-3.3-12,0c-3.3,3.3-3.3,8.7,0,12l11,11h-31.5c-4.5-22-25.3-36.8-47.5-33.7c-22.3,3-38.4,22.7-36.9,45.1
				S54.3,196.3,76.8,196.3z M435.2,401.1c14.1,0,25.6,11.5,25.6,25.6s-11.5,25.6-25.6,25.6s-25.6-11.5-25.6-25.6
				C409.6,412.5,421.1,401.1,435.2,401.1z M233.7,401.1l-25.6,51.2H107.7l25.6-51.2H233.7z M102.4,298.7v-51.2h136.5l0,25.6l0,0l0,0
				l0,25.6L102.4,298.7L102.4,298.7z M221.9,128h136.5l0,25.6l0,0l0,0l0,25.6H221.9V128z M76.8,128c14.1,0,25.6,11.5,25.6,25.6
				c0,14.1-11.5,25.6-25.6,25.6s-25.6-11.5-25.6-25.6C51.2,139.5,62.7,128,76.8,128z"/>
		</g>
	</g>
</g>
</svg>
