<?xml version="1.0" encoding="utf-8"?>
<!-- Generator: Adobe Illustrator 23.0.2, SVG Export Plug-In . SVG Version: 6.00 Build 0)  -->
<svg version="1.1" id="Capa_1" xmlns="http://www.w3.org/2000/svg" xmlns:xlink="http://www.w3.org/1999/xlink" x="0px" y="0px"
	 viewBox="0 0 512 512" style="enable-background:new 0 0 512 512;" xml:space="preserve">
<style type="text/css">
	.st0{fill:#D12027;}
</style>
<g>
	<g>
		<g>
			<path class="st0" d="M506.7,0.6c-3.2-1.3-6.9-0.6-9.3,1.9L256,243.9l-58-58c-3.3-3.3-8.7-3.3-12.1,0L68.3,303.7L14.6,250
				c-3.3-3.3-8.7-3.3-12.1,0c-1.6,1.6-2.5,3.8-2.5,6v247.5c0,4.7,3.8,8.5,8.5,8.5h494.9c4.7,0,8.5-3.8,8.5-8.5V8.5
				C512,5.1,509.9,2,506.7,0.6z M494.9,182.7l-237.5,135L198,258.4c-3.3-3.3-8.7-3.3-12.1,0L62.2,382.1c-3.4,3.3-3.5,8.7-0.2,12.1
				c3.3,3.4,8.7,3.5,12.1,0.2c0.1-0.1,0.1-0.1,0.2-0.2L192,276.5l58,58c2.7,2.7,6.9,3.3,10.2,1.4l234.7-133.4v292.5H17.1V276.6
				l45.2,45.2c3.3,3.3,8.7,3.3,12.1,0L192,204.1l58,58c3.3,3.3,8.7,3.3,12.1,0L494.9,29.1V182.7z"/>
			<path class="st0" d="M238.9,477.9h34.1c4.7,0,8.5-3.8,8.5-8.5s-3.8-8.5-8.5-8.5h-34.1c-4.7,0-8.5,3.8-8.5,8.5
				S234.2,477.9,238.9,477.9z"/>
			<path class="st0" d="M307.2,477.9h34.1c4.7,0,8.5-3.8,8.5-8.5s-3.8-8.5-8.5-8.5h-34.1c-4.7,0-8.5,3.8-8.5,8.5
				S302.5,477.9,307.2,477.9z"/>
			<path class="st0" d="M170.7,477.9h34.1c4.7,0,8.5-3.8,8.5-8.5s-3.8-8.5-8.5-8.5h-34.1c-4.7,0-8.5,3.8-8.5,8.5
				S166,477.9,170.7,477.9z"/>
		</g>
	</g>
</g>
</svg>
