<?xml version="1.0" encoding="utf-8"?>
<!-- Generator: Adobe Illustrator 23.0.2, SVG Export Plug-In . SVG Version: 6.00 Build 0)  -->
<svg version="1.1" id="Capa_1" xmlns="http://www.w3.org/2000/svg" xmlns:xlink="http://www.w3.org/1999/xlink" x="0px" y="0px"
	 viewBox="0 0 512 512" style="enable-background:new 0 0 512 512;" xml:space="preserve">
<style type="text/css">
	.st0{fill:#D12027;}
</style>
<g>
	<g>
		<g>
			<path class="st0" d="M447.5,279h-62.4c0,0-0.1,0-0.1,0c-22.5,0-42.1,13.3-50,33.8c-1.1,2.7-2.3,6.2-3.7,10.2H200.4
				c-5.4,0-10.6,2.2-14.4,6.1l-34.4,35.4c-7.6,7.8-7.5,20.2,0.1,28l35,35.6c3.8,3.8,8.9,6,14.3,6h65c11,0,20-9,20-20s-9-20-20-20
				h-56.6L194,378.3l14.9-15.3h137.5c9.2,0,17.2-6.3,19.4-15.2c1.6-6.6,3.6-13,6.6-20.6c1.9-5,6.8-8.2,12.7-8.2c0,0,0,0,0,0h62.4
				c5.7,0,10.5,3.1,12.7,7.9c5.4,12,11.8,30.6,11.8,51c0,20.5-6.4,39.5-11.7,51.9c-2.2,5-7.1,8.2-12.6,8.2c0,0,0,0,0,0h-63.1
				c-5.5,0-10.7-3.6-12.9-8.9c-2.3-5.7-4.4-12.1-6.2-19.8c-2.6-10.7-13.4-17.4-24.1-14.8c-10.7,2.6-17.4,13.4-14.8,24.1
				c2.3,9.7,5,18.1,8.1,25.7c8.4,20.4,27.9,33.6,49.8,33.6h63.1c0,0,0.1,0,0.1,0c21.4,0,40.6-12.6,49.2-32.2
				c6.9-15.9,15.1-40.5,15.1-68c-0.1-27.4-8.4-51.7-15.3-67.2C488.1,291.5,468.8,279,447.5,279z"/>
			<circle class="st0" cx="431" cy="378" r="20"/>
			<path class="st0" d="M432,34H80C35.9,34,0,69.9,0,114v231c0,44.1,35.9,80,80,80h7c11,0,20-9,20-20s-9-20-20-20h-7
				c-22.1,0-40-17.9-40-40V118.2l173.8,108c13,8.1,27.6,12.2,42.2,12.2c14.6,0,29.2-4.1,42.2-12.2l173.8-108V225c0,11,9,20,20,20
				s20-9,20-20V114C512,69.9,476.1,34,432,34z M277.1,192.3c-13,8.1-29.2,8.1-42.2,0L56.7,81.5C63.3,76.8,71.3,74,80,74h352
				c8.7,0,16.7,2.8,23.3,7.5L277.1,192.3z"/>
		</g>
	</g>
</g>
</svg>
