<?xml version="1.0" encoding="utf-8"?>
<!-- Generator: Adobe Illustrator 23.0.2, SVG Export Plug-In . SVG Version: 6.00 Build 0)  -->
<svg version="1.1" id="Capa_1" xmlns="http://www.w3.org/2000/svg" xmlns:xlink="http://www.w3.org/1999/xlink" x="0px" y="0px"
	 viewBox="0 0 512 512" style="enable-background:new 0 0 512 512;" xml:space="preserve">
<style type="text/css">
	.st0{fill:#D12027;}
</style>
<g>
	<g>
		<g>
			<path class="st0" d="M256,215.2l111.7-37.2L256,1L144.3,177.9L256,215.2z M264.3,45.1l78.2,123.9L264.3,195V45.1z M247.7,195
				l-78.2-26.1l78.2-123.9V195z"/>
			<polygon class="st0" points="247.7,231.2 247.7,305.5 163.5,193.2 150.3,203.1 256,344.1 361.7,203.1 348.5,193.2 264.3,305.5 
				264.3,231.2 			"/>
			<path class="st0" d="M396.4,173.4c0,65.9-44.9,122.2-109.2,136.8l3.7,16.1c31.4-7.1,58.6-23.1,79.3-45l21.4,18.2
				c-2.1,4.4-3.4,9.2-3.4,14.3c0,18.2,14.8,33,33,33c18.2,0,33-14.8,33-33c0-18.2-14.8-33-33-33c-7.1,0-13.6,2.3-19,6.1l-21.4-18.2
				c20.3-26.5,32.1-59.6,32.1-95.2s-11.8-68.7-32.1-95.3L402.2,60c5.4,3.8,11.9,6.1,19,6.1c18.2,0,33-14.8,33-33s-14.8-33-33-33
				c-18.2,0-33,14.8-33,33c0,5.2,1.3,10,3.4,14.3l-21.4,18.2c-20.7-21.9-48-37.9-79.3-45l-3.7,16.1
				C351.5,51.2,396.4,107.5,396.4,173.4z M421.2,297.3c9.1,0,16.5,7.4,16.5,16.5c0,9.1-7.4,16.5-16.5,16.5s-16.5-7.4-16.5-16.5
				C404.6,304.7,412.1,297.3,421.2,297.3z M421.2,16.5c9.1,0,16.5,7.4,16.5,16.5s-7.4,16.5-16.5,16.5s-16.5-7.4-16.5-16.5
				S412.1,16.5,421.2,16.5z"/>
			<path class="st0" d="M0,421.2c0,22.8,18.5,41.3,41.3,41.3h123.9v33h-33V512h247.7v-16.5h-33v-33h123.9
				c22.8,0,41.3-18.5,41.3-41.3v-24.8H0V421.2z M330.3,495.5H181.7v-33h148.6V495.5z M16.5,412.9h479v8.3
				c0,13.7-11.1,24.8-24.8,24.8H41.3c-13.7,0-24.8-11.1-24.8-24.8V412.9z"/>
			<path class="st0" d="M470.7,82.6h-66.1v16.5h66.1c13.7,0,24.8,11.1,24.8,24.8v256H512v-256C512,101.1,493.5,82.6,470.7,82.6z"/>
			<path class="st0" d="M16.5,123.9c0-13.7,11.1-24.8,24.8-24.8h66.1V82.6H41.3C18.5,82.6,0,101.1,0,123.9v256h16.5V123.9z"/>
			<path class="st0" d="M90.8,66.1c7.1,0,13.6-2.3,19-6.1l21.4,18.2c-20.3,26.5-32.1,59.6-32.1,95.2s11.8,68.7,32.1,95.3l-21.4,18.2
				c-5.4-3.8-11.9-6.1-19-6.1c-18.2,0-33,14.8-33,33c0,18.2,14.8,33,33,33s33-14.8,33-33c0-5.2-1.3-10-3.4-14.3l21.4-18.2
				c20.7,21.9,48,37.9,79.3,45l3.7-16.1c-64.3-14.6-109.2-70.8-109.2-136.8S160.5,51.2,224.8,36.6l-3.7-16.1
				c-31.4,7.1-58.6,23.1-79.3,45l-21.4-18.2c2.1-4.4,3.4-9.2,3.4-14.3c0-18.2-14.8-33-33-33s-33,14.8-33,33S72.6,66.1,90.8,66.1z
				 M90.8,330.3c-9.1,0-16.5-7.4-16.5-16.5c0-9.1,7.4-16.5,16.5-16.5s16.5,7.4,16.5,16.5C107.4,322.9,99.9,330.3,90.8,330.3z
				 M90.8,16.5c9.1,0,16.5,7.4,16.5,16.5s-7.4,16.5-16.5,16.5S74.3,42.1,74.3,33S81.7,16.5,90.8,16.5z"/>
		</g>
	</g>
</g>
</svg>
