<?xml version="1.0" encoding="utf-8"?>
<!-- Generator: Adobe Illustrator 23.0.2, SVG Export Plug-In . SVG Version: 6.00 Build 0)  -->
<svg version="1.1" id="Capa_1" xmlns="http://www.w3.org/2000/svg" xmlns:xlink="http://www.w3.org/1999/xlink" x="0px" y="0px"
	 viewBox="0 0 512 512" style="enable-background:new 0 0 512 512;" xml:space="preserve">
<style type="text/css">
	.st0{fill:#D12027;}
</style>
<g>
	<g>
		<path class="st0" d="M156,32H12c-4.4,0-8,3.6-8,8v144c0,4.4,3.6,8,8,8h144c4.4,0,8-3.6,8-8V40C164,35.6,160.4,32,156,32z M148,176
			H20V48h128V176z"/>
	</g>
</g>
<g>
	<g>
		<path class="st0" d="M188,0H44c-4.4,0-8,3.6-8,8s3.6,8,8,8h136v136c0,4.4,3.6,8,8,8c4.4,0,8-3.6,8-8V8C196,3.6,192.4,0,188,0z"/>
	</g>
</g>
<g>
	<g>
		<path class="st0" d="M49.6,2.3c-3.1-3.1-8.2-3.1-11.3,0l-32,32c-3.1,3.1-3.1,8.2,0,11.3C7.9,47.2,9.9,48,12,48s4.1-0.8,5.7-2.3
			l32-32C52.8,10.5,52.8,5.5,49.6,2.3z"/>
	</g>
</g>
<g>
	<g>
		<path class="st0" d="M193.7,146.4c-3.1-3.1-8.2-3.1-11.3,0l-32,32c-3.1,3.1-3.1,8.2,0,11.3c1.6,1.6,3.6,2.3,5.7,2.3
			c2,0,4.1-0.8,5.7-2.3l32-32C196.8,154.6,196.8,149.5,193.7,146.4z"/>
	</g>
</g>
<g>
	<g>
		<path class="st0" d="M193.7,2.3c-3.1-3.1-8.2-3.1-11.3,0l-32,32c-3.1,3.1-3.1,8.2,0,11.3c1.6,1.6,3.6,2.3,5.7,2.3
			c2,0,4.1-0.8,5.7-2.3l32-32C196.8,10.5,196.8,5.5,193.7,2.3z"/>
	</g>
</g>
<g>
	<g>
		<path class="st0" d="M156,352H12c-4.4,0-8,3.6-8,8v144c0,4.4,3.6,8,8,8h144c4.4,0,8-3.6,8-8V360C164,355.5,160.4,352,156,352z
			 M148,496H20V368h128V496z"/>
	</g>
</g>
<g>
	<g>
		<path class="st0" d="M188,320H44c-4.4,0-8,3.6-8,8s3.6,8,8,8h136v136c0,4.4,3.6,8,8,8c4.4,0,8-3.6,8-8V328
			C196,323.5,192.4,320,188,320z"/>
	</g>
</g>
<g>
	<g>
		<path class="st0" d="M49.6,322.3c-3.1-3.1-8.2-3.1-11.3,0l-32,32c-3.1,3.1-3.1,8.2,0,11.3c1.6,1.6,3.6,2.3,5.7,2.3
			s4.1-0.8,5.7-2.3l32-32C52.8,330.5,52.8,325.4,49.6,322.3z"/>
	</g>
</g>
<g>
	<g>
		<path class="st0" d="M193.7,466.3c-3.1-3.1-8.2-3.1-11.3,0l-32,32c-3.1,3.1-3.1,8.2,0,11.3c1.6,1.6,3.6,2.3,5.7,2.3
			c2,0,4.1-0.8,5.7-2.3l32-32C196.8,474.5,196.8,469.5,193.7,466.3z"/>
	</g>
</g>
<g>
	<g>
		<path class="st0" d="M193.7,322.3c-3.1-3.1-8.2-3.1-11.3,0l-32,32c-3.1,3.1-3.1,8.2,0,11.3c1.6,1.6,3.6,2.3,5.7,2.3
			c2,0,4.1-0.8,5.7-2.3l32-32C196.8,330.5,196.8,325.4,193.7,322.3z"/>
	</g>
</g>
<g>
	<g>
		<path class="st0" d="M100,280c-4.4,0-8,3.6-8,8v56c0,4.4,3.6,8,8,8c4.4,0,8-3.6,8-8v-56C108,283.5,104.4,280,100,280z"/>
	</g>
</g>
<g>
	<g>
		<path class="st0" d="M100,215.9c-17.7,0-32,14.4-32,32v32c0,17.7,14.4,32,32,32s32-14.4,32-32v-32
			C132,230.3,117.6,215.9,100,215.9z M116,280c0,8.8-7.2,16-16,16s-16-7.2-16-16v-32c0-8.8,7.2-16,16-16c8.8,0,16,7.2,16,16V280z"/>
	</g>
</g>
<g>
	<g>
		<path class="st0" d="M100,175.9c-4.4,0-8,3.6-8,8v56c0,4.4,3.6,8,8,8c4.4,0,8-3.6,8-8v-56C108,179.5,104.4,175.9,100,175.9z"/>
	</g>
</g>
<g>
	<g>
		<path class="st0" d="M228,408h-56c-4.4,0-8,3.6-8,8c0,4.4,3.6,8,8,8h56c4.4,0,8-3.6,8-8C236,411.6,232.4,408,228,408z"/>
	</g>
</g>
<g>
	<g>
		<path class="st0" d="M268,384h-32c-17.7,0-32,14.4-32,32c0,17.7,14.4,32,32,32h32c17.7,0,32-14.4,32-32
			C300,398.3,285.6,384,268,384z M268,432h-32c-8.8,0-16-7.2-16-16c0-8.8,7.2-16,16-16h32c8.8,0,16,7.2,16,16
			C284,424.8,276.8,432,268,432z"/>
	</g>
</g>
<g>
	<g>
		<path class="st0" d="M324,408h-48c-4.4,0-8,3.6-8,8c0,4.4,3.6,8,8,8h48c4.4,0,8-3.6,8-8C332,411.6,328.4,408,324,408z"/>
	</g>
</g>
<g>
	<g>
		<path class="st0" d="M228,87.9h-56c-4.4,0-8,3.6-8,8c0,4.4,3.6,8,8,8h56c4.4,0,8-3.6,8-8S232.4,87.9,228,87.9z"/>
	</g>
</g>
<g>
	<g>
		<path class="st0" d="M268,63.9h-32c-17.7,0-32,14.4-32,32s14.4,32,32,32h32c17.7,0,32-14.4,32-32S285.6,63.9,268,63.9z M268,111.9
			h-32c-8.8,0-16-7.2-16-16s7.2-16,16-16h32c8.8,0,16,7.2,16,16S276.8,111.9,268,111.9z"/>
	</g>
</g>
<g>
	<g>
		<path class="st0" d="M324,87.9h-48c-4.4,0-8,3.6-8,8c0,4.4,3.6,8,8,8h48c4.4,0,8-3.6,8-8S328.4,87.9,324,87.9z"/>
	</g>
</g>
<g>
	<g>
		<path class="st0" d="M468,32H324c-4.4,0-8,3.6-8,8v144c0,4.4,3.6,8,8,8h144c4.4,0,8-3.6,8-8V40C476,35.6,472.4,32,468,32z
			 M460,176H332V48h128V176z"/>
	</g>
</g>
<g>
	<g>
		<path class="st0" d="M500,0H356c-4.4,0-8,3.6-8,8s3.6,8,8,8h136v136c0,4.4,3.6,8,8,8c4.4,0,8-3.6,8-8V8C508,3.6,504.4,0,500,0z"/>
	</g>
</g>
<g>
	<g>
		<path class="st0" d="M361.7,2.3c-3.1-3.1-8.2-3.1-11.3,0l-32,32c-3.1,3.1-3.1,8.2,0,11.3c1.6,1.6,3.6,2.3,5.7,2.3s4.1-0.8,5.7-2.3
			l32-32C364.8,10.5,364.8,5.5,361.7,2.3z"/>
	</g>
</g>
<g>
	<g>
		<path class="st0" d="M505.7,146.4c-3.1-3.1-8.2-3.1-11.3,0l-32,32c-3.1,3.1-3.1,8.2,0,11.3c1.6,1.6,3.6,2.3,5.7,2.3
			c2,0,4.1-0.8,5.7-2.3l32-32C508.8,154.6,508.8,149.5,505.7,146.4z"/>
	</g>
</g>
<g>
	<g>
		<path class="st0" d="M505.7,2.3c-3.1-3.1-8.2-3.1-11.3,0l-32,32c-3.1,3.1-3.1,8.2,0,11.3c1.6,1.6,3.6,2.3,5.7,2.3
			c2,0,4.1-0.8,5.7-2.3l32-32C508.8,10.5,508.8,5.5,505.7,2.3z"/>
	</g>
</g>
<g>
	<g>
		<path class="st0" d="M468,352H324c-4.4,0-8,3.6-8,8v144c0,4.4,3.6,8,8,8h144c4.4,0,8-3.6,8-8V360C476,355.5,472.4,352,468,352z
			 M460,496H332V368h128V496z"/>
	</g>
</g>
<g>
	<g>
		<path class="st0" d="M500,320H356c-4.4,0-8,3.6-8,8s3.6,8,8,8h136v136c0,4.4,3.6,8,8,8c4.4,0,8-3.6,8-8V328
			C508,323.5,504.4,320,500,320z"/>
	</g>
</g>
<g>
	<g>
		<path class="st0" d="M361.7,322.3c-3.1-3.1-8.2-3.1-11.3,0l-32,32c-3.1,3.1-3.1,8.2,0,11.3c1.6,1.6,3.6,2.3,5.7,2.3
			s4.1-0.8,5.7-2.3l32-32C364.8,330.5,364.8,325.4,361.7,322.3z"/>
	</g>
</g>
<g>
	<g>
		<path class="st0" d="M505.7,466.3c-3.1-3.1-8.2-3.1-11.3,0l-32,32c-3.1,3.1-3.1,8.2,0,11.3c1.6,1.6,3.6,2.3,5.7,2.3
			c2,0,4.1-0.8,5.7-2.3l32-32C508.8,474.5,508.8,469.5,505.7,466.3z"/>
	</g>
</g>
<g>
	<g>
		<path class="st0" d="M505.7,322.3c-3.1-3.1-8.2-3.1-11.3,0l-32,32c-3.1,3.1-3.1,8.2,0,11.3c1.6,1.6,3.6,2.3,5.7,2.3
			c2,0,4.1-0.8,5.7-2.3l32-32C508.8,330.5,508.8,325.4,505.7,322.3z"/>
	</g>
</g>
<g>
	<g>
		<path class="st0" d="M412,280c-4.4,0-8,3.6-8,8v56c0,4.4,3.6,8,8,8c4.4,0,8-3.6,8-8v-56C420,283.5,416.4,280,412,280z"/>
	</g>
</g>
<g>
	<g>
		<path class="st0" d="M412,215.9c-17.7,0-32,14.4-32,32v32c0,17.7,14.4,32,32,32c17.7,0,32-14.4,32-32v-32
			C444,230.3,429.7,215.9,412,215.9z M428,280c0,8.8-7.2,16-16,16c-8.8,0-16-7.2-16-16v-32c0-8.8,7.2-16,16-16c8.8,0,16,7.2,16,16
			V280z"/>
	</g>
</g>
<g>
	<g>
		<path class="st0" d="M412,175.9c-4.4,0-8,3.6-8,8v56c0,4.4,3.6,8,8,8c4.4,0,8-3.6,8-8v-56C420,179.5,416.4,175.9,412,175.9z"/>
	</g>
</g>
</svg>
