<?xml version="1.0" encoding="utf-8"?>
<!-- Generator: Adobe Illustrator 23.0.2, SVG Export Plug-In . SVG Version: 6.00 Build 0)  -->
<svg version="1.1" id="Capa_1" xmlns="http://www.w3.org/2000/svg" xmlns:xlink="http://www.w3.org/1999/xlink" x="0px" y="0px"
	 viewBox="0 0 512 512" style="enable-background:new 0 0 512 512;" xml:space="preserve">
<style type="text/css">
	.st0{fill:#CF2027;}
</style>
<g>
	<path class="st0" d="M141.5,85.6c3.5,10.1,12.8,16.8,23.3,16.8h63.4c10.5,0,19.8-6.8,23.3-16.8c3.3-9.6,13.7-31.1,21.8-37.9
		c7.1-6,10.4-15.3,8.7-24.3c-1.7-8.8-7.9-15.8-16.5-18.6c-25.6-8.5-48.3-5.6-65.7,8.3c-3.1,2.5-7.3,2.5-10.4,0
		C172-0.8,149.3-3.6,123.7,4.9c-8.6,2.8-14.8,9.8-16.5,18.6c-1.7,9,1.6,18.3,8.7,24.3C125.1,55.4,139.1,78.4,141.5,85.6z M124,26.7
		c0.3-1.6,1.4-4.4,5.1-5.7c7.9-2.6,15.3-3.9,22.2-3.9c10.5,0,19.7,3.1,27.5,9.3c9.3,7.5,22.4,7.5,31.7,0c12.8-10.2,29.5-12,49.7-5.4
		c3.7,1.2,4.8,4.1,5.1,5.7c0.6,3-0.5,5.9-2.9,8c-13,11-24.7,39-26.9,45.4c-1.1,3.2-4,5.3-7.2,5.3h-63.4c-3.2,0-6.1-2.1-7.2-5.3
		c-3.6-10.3-19.4-35.8-30.7-45.4C124.6,32.6,123.5,29.6,124,26.7z"/>
	<path class="st0" d="M269.1,119.5c0-4.7-3.8-8.5-8.5-8.5c-1.6,0-3,0.6-4.3,1.3c-1.3-0.8-2.7-1.3-4.3-1.3H149.6
		c-4.7,0-8.5,3.8-8.5,8.5s3.8,8.5,8.5,8.5H252v8.5h-93.9c-4.7,0-8.5,3.8-8.5,8.5s3.8,8.5,8.5,8.5h101.8c7.6,6.4,17.1,10,27.1,10
		c11.4,0,22.1-4.4,30.2-12.5c3.3-3.3,3.3-8.7,0-12.1c-3.3-3.3-8.7-3.3-12.1,0c-9.6,9.6-26.4,9.7-36.1,0.1L269.1,119.5L269.1,119.5z"
		/>
	<path class="st0" d="M183.7,221.9c-54.7,0-119.5,69.4-119.5,128c0,4.7,3.8,8.5,8.5,8.5s8.5-3.8,8.5-8.5
		c0-48.7,57.4-110.9,102.4-110.9c4.7,0,8.5-3.8,8.5-8.5S188.5,221.9,183.7,221.9z"/>
	<path class="st0" d="M422.7,273.1c-8.8,0-19.3,0.5-29.8,1.7c-11.5-21-26.7-39.1-45.8-53.8l-61.5-41.8
		c-10.2-7.8-26.2-17.1-44.8-17.1h-66.4c-16.4,0-32.6,5.6-45.2,15.5l-60.4,44C5.9,271.2-14,357.9,21.5,427.9
		c12.9,25.5,34.5,56.3,64,58.3c2.3,0.2,4.7,0.2,7,0.2h166.1c12.5,15.6,31.7,25.6,53.2,25.6c24.7,0,46.4-13.3,58.4-33
		c15.2,4.7,33.9,7.4,52.6,7.4c41,0,85.3-13,85.3-34.1v-46.9h-0.7c0.4-1.4,0.7-2.8,0.7-4.3v-51.2V303
		C508,279.3,454.4,273.1,422.7,273.1z M490.3,302.8c-0.2,0.2-0.3,0.4-0.6,0.6c-0.3,0.3-0.7,0.5-1.2,0.8c-0.6,0.4-1.2,0.7-2,1.1
		c-0.6,0.3-1.2,0.6-2,0.9c-0.9,0.4-2,0.8-3,1.2c-0.9,0.3-1.7,0.6-2.7,1c-1.2,0.4-2.7,0.8-4.1,1.2c-1.1,0.3-2.2,0.6-3.5,0.9
		c-1.6,0.4-3.4,0.8-5.3,1.1c-1.4,0.3-2.7,0.6-4.2,0.8c-2,0.4-4.3,0.7-6.6,1c-1.5,0.2-3,0.5-4.6,0.6c-2.7,0.3-5.6,0.5-8.6,0.7
		c-1.5,0.1-2.9,0.3-4.4,0.4c-4.7,0.3-9.6,0.4-14.9,0.4s-10.2-0.2-14.9-0.4c-1.6-0.1-2.9-0.2-4.4-0.4c-3-0.2-5.9-0.4-8.6-0.7
		c-1.6-0.2-3.1-0.4-4.6-0.6c-2.3-0.3-4.5-0.6-6.6-1c-1.5-0.3-2.8-0.6-4.2-0.8c-1.8-0.4-3.6-0.7-5.3-1.1c-1.2-0.3-2.3-0.6-3.5-0.9
		c-1.4-0.4-2.9-0.8-4.1-1.2c-1-0.3-1.9-0.7-2.7-1c-1.1-0.4-2.1-0.8-3-1.2c-0.7-0.3-1.4-0.6-2-0.9c-0.7-0.4-1.4-0.8-2-1.1
		c-0.5-0.3-0.9-0.6-1.2-0.8c-0.2-0.2-0.4-0.3-0.5-0.5c0.1-0.1,0.2-0.2,0.3-0.3c0.3-0.3,0.8-0.6,1.2-0.9c0.7-0.5,1.6-0.9,2.6-1.4
		c0.6-0.3,1.1-0.6,1.7-0.8c0.7-0.3,1.5-0.6,2.2-0.9c0.9-0.4,1.9-0.7,3-1.1c0.8-0.3,1.5-0.5,2.4-0.8c1.9-0.6,4-1.2,6.3-1.7
		c1.1-0.3,2.3-0.5,3.4-0.7c1.4-0.3,2.8-0.6,4.3-0.9c1.7-0.3,3.4-0.6,5.3-0.9c9.6-1.5,21.1-2.5,34.9-2.5
		C463,290.1,485.5,298.4,490.3,302.8z M360.2,373.1c0.8,0.3,1.6,0.6,2.4,0.9c1.5,0.6,3,1.1,4.6,1.7c0.8,0.3,1.6,0.6,2.5,0.8
		c1.8,0.6,3.7,1.1,5.5,1.6c0.7,0.2,1.3,0.4,2,0.5c2.6,0.6,5.2,1.2,7.9,1.8c0.6,0.1,1.2,0.2,1.7,0.3c2.2,0.4,4.4,0.8,6.6,1.1
		c1,0.1,1.9,0.3,2.9,0.4c1.9,0.3,3.8,0.5,5.8,0.7c1,0.1,2,0.2,3.1,0.3c2,0.2,4,0.3,6.1,0.4c0.9,0.1,1.8,0.1,2.7,0.2
		c2.9,0.1,5.8,0.2,8.7,0.2s5.8-0.1,8.7-0.2c0.9,0,1.8-0.1,2.8-0.2c2-0.1,4-0.3,6-0.4c1-0.1,2.1-0.2,3.1-0.3c1.9-0.2,3.8-0.4,5.7-0.7
		c1-0.1,2-0.3,3-0.4c2.2-0.3,4.4-0.7,6.5-1.1c0.6-0.1,1.2-0.2,1.8-0.3c2.7-0.5,5.3-1.1,7.9-1.8c0.7-0.2,1.4-0.4,2.1-0.6
		c1.9-0.5,3.7-1,5.4-1.6c0.9-0.3,1.7-0.6,2.5-0.8c1.6-0.5,3.1-1.1,4.6-1.7c0.8-0.3,1.6-0.6,2.4-0.9c1.5-0.6,3-1.3,4.4-2
		c0.4-0.2,0.9-0.4,1.4-0.6l0.1,30.1c-2,4.9-24.1,15.7-58.8,17.4c-3.1,0.1-6.1,0.3-9.5,0.3c-18.8,0-37.4-2.9-51.6-8
		c-0.1-0.1-0.1-0.2-0.2-0.3c-1-1.8-2.1-3.5-3.2-5.1c-0.2-0.2-0.4-0.5-0.5-0.7c-1.1-1.5-2.2-3-3.4-4.4c-0.4-0.4-0.7-0.8-1.1-1.2
		c-1-1.2-2.1-2.4-3.2-3.5c-0.6-0.6-1.2-1.1-1.8-1.6c-1-0.9-2-1.8-3-2.7c-0.1-0.1-0.2-0.2-0.3-0.3c0-3.3,0-10.8,0-20.1
		c0.4,0.2,1,0.4,1.4,0.6C357.2,371.7,358.7,372.4,360.2,373.1z M247.4,469.3h-155c-2,0-3.9-0.1-5.9-0.2
		C69.7,468,52,450.6,36.6,420.2C4.8,357.4,22.8,279.6,79.1,235.3l60.4-44c9.9-7.8,22.3-12.1,34.9-12.1h66.4
		c13.8,0,26.3,7.4,34.8,13.9l61.5,41.8c15.3,11.7,28,26,37.9,42.7c-10.8,2.2-21.2,5.6-28.4,10.6c-0.2,0.1-0.4,0.3-0.6,0.4
		c-1.1,0.8-2.1,1.6-3,2.5c-0.4,0.4-0.7,0.7-1.1,1.1c-0.7,0.7-1.3,1.5-1.9,2.3c-0.4,0.7-0.8,1.4-1.1,2.1c-0.3,0.6-0.7,1.2-0.9,1.9
		c-0.5,1.4-0.8,3-0.8,4.6V350v30.6c-2.9-1.2-5.9-2.1-8.9-2.9c-0.4-0.1-0.8-0.2-1.2-0.3c-3-0.7-6-1.2-9.1-1.5c-0.3,0-0.7,0-1-0.1
		c-1.7-0.1-3.5-0.3-5.3-0.3c-0.9,0-1.8,0.1-2.8,0.1c-0.7,0-1.5,0.1-2.2,0.1c-3,0.2-6,0.6-9,1.2c-0.1,0-0.1,0-0.2,0
		c-0.2,0.1-0.4,0.1-0.7,0.2c-2.7,0.6-5.3,1.4-7.8,2.3c-0.9,0.3-1.8,0.6-2.7,1c-2.5,1-5,2.1-7.4,3.4c-0.9,0.5-1.7,1-2.6,1.6
		c-1.7,1-3.3,2.1-4.8,3.2c-0.9,0.7-1.9,1.3-2.7,2c-2,1.6-3.9,3.4-5.7,5.2c-0.8,0.8-1.5,1.7-2.3,2.5c-1.3,1.4-2.5,2.9-3.7,4.5
		c-0.6,0.8-1.3,1.6-1.9,2.5c-1.5,2.2-2.8,4.5-4.1,6.9c-0.5,0.9-0.9,1.9-1.4,2.8c-1,2.1-1.8,4.2-2.6,6.4c-0.2,0.6-0.5,1.2-0.7,1.9
		c-0.9,2.8-1.5,5.7-2,8.6c-0.1,0.4-0.2,0.7-0.3,1.1c-0.1,0.5-0.1,1-0.1,1.4c-0.3,2-0.4,4-0.5,6.1c0,0.7-0.1,1.5-0.1,2.2
		c0,0.3-0.1,0.6-0.1,0.9c0,1.4,0.1,2.7,0.2,4C244,455.1,245.2,462.5,247.4,469.3z M311.8,494.9c-28,0-50.8-22.6-51.2-50.6
		c0-0.7,0-1.3,0-2c0-0.9,0.1-1.9,0.1-2.8c0.1-0.8,0.2-1.6,0.2-2.3c0.1-0.8,0.2-1.6,0.4-2.4c0.4-2.2,0.9-4.4,1.6-6.5
		c0.1-0.2,0.2-0.4,0.2-0.7c0.7-2.1,1.6-4.2,2.6-6.3c0.1-0.2,0.2-0.4,0.3-0.6c4.6-9,11.9-16.7,20.7-21.7c0,0,0.1,0,0.1-0.1
		c2-1.1,4.1-2.1,6.2-2.9c0.6-0.2,1.1-0.4,1.7-0.6c1.9-0.7,3.8-1.3,5.8-1.7c0.3-0.1,0.5-0.2,0.8-0.2c2.5-0.5,4.9-0.8,7.4-0.9
		c0.5,0,0.9-0.1,1.4-0.1c2.5-0.1,5,0,7.5,0.3c0.1,0,0.3,0,0.4,0.1c2.6,0.3,5.2,0.8,7.7,1.6h0.1c2.6,0.8,5.2,1.7,7.7,2.9
		c2.3,1.1,4.5,2.3,6.6,3.7l0.3,0.2c0.3,0.2,0.6,0.4,0.9,0.6c1.4,1,2.8,2.1,4.1,3.2c0.3,0.3,0.6,0.6,0.9,0.8c1.3,1.2,2.6,2.5,3.7,3.8
		c0.1,0.1,0.2,0.3,0.4,0.4c2.7,3.2,5.1,6.6,6.9,10.4c0.4,0.9,0.9,1.7,1.3,2.6c0.6,1.5,1.2,3,1.7,4.5c0,0.1,0.1,0.2,0.1,0.3
		c0.5,1.5,0.9,3.1,1.2,4.7c0,0.1,0.1,0.2,0.1,0.4c0.3,1.6,0.6,3.2,0.7,4.8c0,0.1,0.1,0.3,0.1,0.4c0.2,1.7,0.3,3.5,0.3,5.3
		s-0.1,3.6-0.3,5.4c0,0.3-0.1,0.5-0.1,0.8c-0.2,1.5-0.4,3.1-0.8,4.6c0,0.2-0.1,0.3-0.1,0.5c-0.4,1.6-0.8,3.2-1.3,4.8
		c0,0.1-0.1,0.1-0.1,0.2c-0.6,1.7-1.2,3.3-1.9,4.9C350.2,482.6,332.4,494.9,311.8,494.9z M422.7,469.3c-16.2,0-32.3-2.2-45.6-6
		c0,0,0,0,0-0.1c0.8-2.8,1.4-5.6,1.9-8.5c0.1-0.7,0.2-1.4,0.3-2.1c0.4-2.9,0.7-5.9,0.7-8.9c0-2.2-0.1-4.4-0.3-6.6
		c-0.1-0.8-0.2-1.5-0.3-2.3c-0.1-1.1-0.2-2.2-0.4-3.3c12.9,2.4,28,3.7,43.8,3.7c20.4,0,49.9-2.6,68.3-10.7l0.1,27.2
		C488.9,456.9,463,469.3,422.7,469.3z M422.7,366.9c-40.1,0-66-12.3-68.2-17c0-9.7,0-19.6,0-27.8c0.2,0.1,0.5,0.2,0.7,0.3
		c2,0.9,4.2,1.7,6.4,2.4c0.1,0,0.2,0.1,0.4,0.1c2.3,0.8,4.8,1.4,7.3,2c0.8,0.2,1.7,0.4,2.5,0.6c1.8,0.4,3.7,0.8,5.6,1.2
		c0.9,0.2,1.8,0.3,2.7,0.5c2.1,0.4,4.2,0.7,6.3,1c0.7,0.1,1.3,0.2,2,0.3c2.8,0.4,5.5,0.7,8.3,1c0.7,0.1,1.4,0.1,2.1,0.2
		c2.1,0.2,4.2,0.4,6.3,0.5c0.9,0.1,1.8,0.1,2.6,0.2c1.9,0.1,3.8,0.2,5.6,0.3c0.8,0,1.6,0.1,2.3,0.1c2.5,0.1,4.9,0.1,7.2,0.1
		c2.3,0,4.7,0,7.2-0.1c0.8,0,1.6-0.1,2.3-0.1c1.8-0.1,3.7-0.2,5.6-0.3c0.9-0.1,1.8-0.1,2.7-0.2c2.1-0.1,4.2-0.3,6.3-0.5
		c0.7-0.1,1.3-0.1,2-0.2c2.7-0.3,5.5-0.6,8.3-1c0.7-0.1,1.3-0.2,2-0.3c2.1-0.3,4.2-0.6,6.2-1c0.9-0.2,1.8-0.3,2.7-0.5
		c1.9-0.4,3.7-0.8,5.6-1.2c0.8-0.2,1.7-0.4,2.5-0.6c2.6-0.6,5-1.3,7.4-2.1c0.1,0,0.2-0.1,0.3-0.1c2.2-0.7,4.3-1.5,6.3-2.4
		c0.2-0.1,0.5-0.2,0.8-0.3l0.1,27.2C488.9,354.5,463,366.9,422.7,366.9z"/>
</g>
</svg>
