<?xml version="1.0" encoding="utf-8"?>
<!-- Generator: Adobe Illustrator 23.0.2, SVG Export Plug-In . SVG Version: 6.00 Build 0)  -->
<svg version="1.1" id="Capa_1" xmlns="http://www.w3.org/2000/svg" xmlns:xlink="http://www.w3.org/1999/xlink" x="0px" y="0px"
	 viewBox="0 0 512 512" style="enable-background:new 0 0 512 512;" xml:space="preserve">
<style type="text/css">
	.st0{fill:#CF2027;}
</style>
<g>
	<path class="st0" d="M264.7,86.8c16.7,0,30.4-13.6,30.4-30.4S281.4,26,264.7,26s-30.4,13.6-30.4,30.4S247.9,86.8,264.7,86.8z
		 M264.7,43.4c7.2,0,13,5.8,13,13s-5.8,13-13,13s-13-5.8-13-13S257.5,43.4,264.7,43.4z"/>
	<path class="st0" d="M82.4,86.8c16.7,0,30.4-13.6,30.4-30.4S99.2,26,82.4,26S52.1,39.7,52.1,56.4S65.7,86.8,82.4,86.8z M82.4,43.4
		c7.2,0,13,5.8,13,13s-5.8,13-13,13s-13-5.8-13-13S75.3,43.4,82.4,43.4z"/>
	<path class="st0" d="M82.4,416.5c-16.7,0-30.4,13.6-30.4,30.4s13.6,30.4,30.4,30.4s30.4-13.6,30.4-30.4S99.2,416.5,82.4,416.5z
		 M82.4,459.9c-7.2,0-13-5.8-13-13s5.8-13,13-13s13,5.8,13,13S89.6,459.9,82.4,459.9z"/>
	<path class="st0" d="M399.2,147.7V0h-26h-17.4h-8.7h-17.4H321h-17.4H26v503.3h208.6c13.7,5.5,29.9,8.7,47.4,8.7
		c21.6,0,41.2-4.8,56.6-12.9c16,8.3,35.7,12.9,56.2,12.9c51.1,0,91.1-26.7,91.1-60.7v-34.7v-34.7v-34.7v-34.7v-34.7V243v-34.7
		C486,175.2,448.2,149.1,399.2,147.7z M468.6,208.3c0,23.5-33.8,43.4-73.8,43.4S321,231.8,321,208.3c0-1.4,0.1-2.9,0.4-4.3
		c0.1-0.4,0.2-0.8,0.3-1.2c0.2-1,0.5-2,0.8-3c0.2-0.4,0.4-0.9,0.6-1.3c0.4-0.9,0.8-1.9,1.2-2.8c0.3-0.5,0.6-1,0.9-1.5
		c0.5-0.8,1-1.6,1.6-2.4c0.5-0.6,1-1.3,1.6-1.9c0.5-0.6,1-1.2,1.5-1.8c0.9-0.9,1.8-1.8,2.8-2.7c0.3-0.3,0.6-0.6,0.9-0.8
		c2.7-2.3,5.8-4.6,9.3-6.6c3.4-2,7-3.8,10.9-5.3c0.2-0.1,0.5-0.2,0.7-0.3c3.8-1.5,7.8-2.8,12.1-3.9c0.1,0,0.3-0.1,0.5-0.1
		c3.6-0.9,7.3-1.6,11.1-2.1c0.2,0,0.3-0.1,0.5-0.1c4-0.5,8.1-0.9,12.3-1l4.1-0.1C434.9,164.9,468.6,184.8,468.6,208.3z M468,421.6
		c-0.1,0.7-0.4,1.4-0.6,2.2c-0.2,0.7-0.4,1.4-0.6,2c-0.3,0.7-0.6,1.4-1,2.1c-0.3,0.7-0.6,1.3-1,1.9c-0.4,0.7-0.8,1.4-1.3,2
		c-0.4,0.6-0.8,1.3-1.3,1.9c-0.5,0.7-1.1,1.3-1.6,2c-0.5,0.6-1,1.2-1.6,1.8c-0.6,0.6-1.3,1.3-2,1.9c-0.6,0.6-1.2,1.1-1.8,1.6
		c-0.7,0.6-1.5,1.2-2.3,1.8c-0.7,0.5-1.3,1-2,1.5c-0.8,0.6-1.7,1.1-2.5,1.6c-0.7,0.5-1.5,1-2.3,1.4c-0.9,0.5-1.8,1-2.8,1.5
		c-0.8,0.4-1.6,0.9-2.5,1.3c-1,0.5-2,0.9-3,1.3c-0.9,0.4-1.7,0.8-2.6,1.1c-1.1,0.4-2.2,0.8-3.3,1.2c-0.9,0.3-1.8,0.7-2.7,1
		c-1.2,0.4-2.4,0.7-3.6,1c-0.9,0.3-1.9,0.6-2.8,0.8c-1.2,0.3-2.5,0.6-3.8,0.8c-1,0.2-1.9,0.4-2.9,0.6c-1.4,0.3-2.8,0.4-4.2,0.7
		c-0.9,0.1-1.8,0.3-2.7,0.4c-1.6,0.2-3.2,0.3-4.8,0.4c-0.8,0.1-1.6,0.2-2.4,0.2c-2.4,0.2-4.9,0.2-7.3,0.2c-3.4,0-6.7-0.2-10-0.5
		c-0.9-0.1-1.8-0.2-2.7-0.3c-2.8-0.3-5.5-0.7-8.3-1.2c-0.4-0.1-0.8-0.1-1.2-0.2c0.3-2.2,0.5-4.3,0.5-6.6v-10.4
		c0.6,0.1,1.2,0.1,1.8,0.2c2.3,0.3,4.7,0.6,7.1,0.9c1,0.1,2,0.2,2.9,0.3c3.3,0.2,6.6,0.4,9.9,0.4c3.5,0,7-0.2,10.5-0.4
		c1.1-0.1,2.2-0.2,3.3-0.3c2.3-0.2,4.6-0.5,6.9-0.8c1.2-0.2,2.4-0.4,3.6-0.6c2.1-0.4,4.1-0.8,6.1-1.2c1.2-0.3,2.3-0.5,3.5-0.8
		c2.1-0.5,4.1-1.1,6.1-1.8c1-0.3,2-0.6,2.9-0.9c2.8-1,5.5-2,8.1-3.2c0.1,0,0.2-0.1,0.3-0.1c2.7-1.2,5.2-2.5,7.7-3.9
		c0.8-0.4,1.5-0.9,2.3-1.4c1.6-1,3.2-2,4.8-3.1c0.8-0.6,1.6-1.2,2.4-1.8c1.4-1.1,2.7-2.1,4-3.2c0.4-0.3,0.8-0.6,1.2-1
		c0,0.5-0.1,1-0.1,1.4C468.3,420.2,468.2,420.9,468,421.6z M355.2,421.6c-0.1,0.7-0.4,1.4-0.6,2.2c-0.2,0.7-0.4,1.4-0.6,2
		c-0.3,0.7-0.6,1.4-1,2.1c-0.3,0.7-0.6,1.3-1,1.9c-0.4,0.7-0.8,1.4-1.3,2c-0.4,0.6-0.8,1.3-1.3,1.9c-0.5,0.7-1.1,1.3-1.6,2
		c-0.5,0.6-1,1.2-1.6,1.8c-0.6,0.6-1.3,1.3-2,1.9c-0.6,0.6-1.2,1.1-1.8,1.6c-0.7,0.6-1.5,1.2-2.3,1.8c-0.7,0.5-1.3,1-2,1.5
		c-0.8,0.6-1.7,1.1-2.5,1.6c-0.7,0.5-1.5,1-2.3,1.4c-0.9,0.5-1.8,1-2.8,1.5c-0.8,0.4-1.6,0.9-2.5,1.3c-1,0.5-2,0.9-3,1.3
		c-0.9,0.4-1.7,0.8-2.6,1.1c-1.1,0.4-2.2,0.8-3.3,1.2c-0.9,0.3-1.8,0.7-2.7,1c-1.2,0.4-2.4,0.7-3.6,1c-0.9,0.3-1.9,0.6-2.8,0.8
		c-1.2,0.3-2.5,0.6-3.8,0.8c-1,0.2-1.9,0.4-2.9,0.6c-1.4,0.3-2.8,0.4-4.2,0.7c-0.9,0.1-1.8,0.3-2.7,0.4c-1.6,0.2-3.2,0.3-4.8,0.4
		c-0.8,0.1-1.6,0.2-2.4,0.2c-2.4,0.2-4.9,0.2-7.3,0.2c-2.5,0-4.9-0.1-7.3-0.2c-0.8-0.1-1.6-0.1-2.4-0.2c-1.6-0.1-3.2-0.3-4.8-0.4
		c-0.9-0.1-1.8-0.3-2.7-0.4c-1.4-0.2-2.8-0.4-4.2-0.7c-1-0.2-1.9-0.4-2.9-0.6c-1.3-0.3-2.6-0.5-3.8-0.8c-1-0.2-1.9-0.5-2.8-0.8
		c-1.2-0.3-2.4-0.7-3.6-1c-0.9-0.3-1.8-0.6-2.7-1c-1.1-0.4-2.2-0.8-3.3-1.2c-0.9-0.4-1.7-0.8-2.6-1.1c-1-0.4-2.1-0.9-3-1.3
		s-1.6-0.9-2.5-1.3c-0.9-0.5-1.9-1-2.8-1.5c-0.8-0.5-1.5-0.9-2.3-1.4c-0.9-0.5-1.7-1.1-2.5-1.6c-0.7-0.5-1.4-1-2-1.5
		c-0.8-0.6-1.5-1.2-2.3-1.8c-0.6-0.5-1.2-1.1-1.8-1.6c-0.7-0.6-1.3-1.2-2-1.9c-0.5-0.6-1-1.2-1.5-1.8c-0.6-0.7-1.1-1.3-1.6-2
		c-0.5-0.6-0.9-1.2-1.3-1.9c-0.5-0.7-0.9-1.4-1.3-2c-0.4-0.6-0.7-1.3-1-1.9c-0.3-0.7-0.7-1.4-1-2.1s-0.4-1.3-0.6-2
		c-0.2-0.7-0.4-1.4-0.6-2.2c-0.1-0.7-0.2-1.4-0.3-2.1c-0.1-0.5-0.1-1-0.1-1.4c0.4,0.3,0.8,0.6,1.2,1c1.3,1.1,2.6,2.2,4,3.3
		c0.8,0.6,1.6,1.2,2.4,1.7c1.5,1.1,3.1,2.1,4.8,3.1c0.8,0.5,1.5,0.9,2.3,1.4c2.5,1.4,5,2.7,7.7,3.9c0.1,0,0.2,0.1,0.3,0.1
		c2.6,1.2,5.3,2.2,8.1,3.2c0.9,0.3,1.9,0.6,2.9,0.9c2,0.6,4,1.2,6.1,1.8c1.2,0.3,2.3,0.6,3.5,0.8c2,0.5,4.1,0.9,6.1,1.2
		c1.2,0.2,2.4,0.4,3.6,0.6c2.2,0.3,4.5,0.6,6.9,0.8c1.1,0.1,2.2,0.2,3.3,0.3c3.5,0.3,6.9,0.4,10.5,0.4s7-0.2,10.5-0.4
		c1.1-0.1,2.2-0.2,3.3-0.3c2.3-0.2,4.6-0.5,6.9-0.8c1.2-0.2,2.4-0.4,3.6-0.6c2.1-0.4,4.1-0.8,6.1-1.2c1.2-0.3,2.3-0.5,3.5-0.8
		c2.1-0.5,4.1-1.1,6.1-1.8c1-0.3,2-0.6,2.9-0.9c2.8-1,5.5-2,8.1-3.2c0.1,0,0.2-0.1,0.3-0.1c2.7-1.2,5.2-2.5,7.7-3.9
		c0.8-0.4,1.5-0.9,2.3-1.4c1.6-1,3.2-2,4.8-3.1c0.8-0.6,1.6-1.2,2.4-1.8c1.4-1.1,2.7-2.1,4-3.2c0.4-0.3,0.8-0.6,1.2-1
		c0,0.5-0.1,1-0.1,1.4C355.4,420.2,355.4,420.9,355.2,421.6z M86.8,166.7v-54.1c27.7-2.1,49.8-24.2,51.9-51.9h69.7
		c2.1,27.7,24.3,49.8,51.9,51.9v54.1c-0.1-0.1-0.3-0.2-0.4-0.4c-1.5-1.5-3-2.8-4.6-4.2c-1.5-1.4-2.9-2.8-4.5-4.1
		c-0.6-0.5-1.2-0.9-1.7-1.3c-17.8-14.3-39.3-23.3-62.4-25.8c-0.3,0-0.6-0.1-0.8-0.1c-4.1-0.4-8.2-0.6-12.4-0.6s-8.3,0.2-12.4,0.6
		c-0.3,0-0.6,0.1-0.8,0.1c-23.1,2.5-44.6,11.6-62.4,25.8c-0.6,0.5-1.2,0.9-1.7,1.3c-1.5,1.3-3,2.7-4.5,4.1c-1.5,1.4-3.1,2.8-4.6,4.2
		C87,166.5,86.9,166.6,86.8,166.7z M296.1,269.9c0.1,0,0.3,0,0.4,0c4.6,0.6,9.1,1.4,13.5,2.5c3.8,0.9,7.4,2.1,10.9,3.4
		c1.7,0.6,3.3,1.3,4.9,2c0.9,0.4,1.8,0.8,2.7,1.2c2.4,1.2,4.7,2.4,6.8,3.8c0.5,0.3,0.9,0.6,1.4,0.9c4.7,3.1,8.7,6.6,11.8,10.3
		c0.1,0.1,0.2,0.2,0.3,0.3c1.1,1.3,2,2.6,2.8,3.9c0.1,0.2,0.2,0.3,0.3,0.5c0.7,1.3,1.3,2.5,1.9,3.8c0.1,0.3,0.2,0.5,0.3,0.7
		c0.5,1.2,0.8,2.4,1.1,3.6c0.1,0.3,0.2,0.6,0.3,0.9c0.3,1.5,0.5,3,0.5,4.6c0,23.5-33.8,43.4-73.8,43.4s-73.8-19.9-73.8-43.4
		c0-3.8,1-7.4,2.6-11c2.4-5.2,6.4-10,11.9-14.4c0.3-0.3,0.7-0.6,1.1-0.8c1.5-1.2,3.2-2.3,4.9-3.4c13.6-8.5,32.6-13.9,53.4-13.9
		C286.8,269,291.5,269.3,296.1,269.9z M326.4,248.7c0.8,0.6,1.6,1.2,2.4,1.7c1.5,1.1,3.1,2.1,4.8,3.1c0.8,0.5,1.5,0.9,2.3,1.4
		c2.5,1.4,5,2.7,7.7,3.9c0.1,0,0.2,0.1,0.3,0.1c2.6,1.2,5.3,2.2,8.1,3.2c0.9,0.3,1.9,0.6,2.9,0.9c2,0.6,4,1.2,6.1,1.8
		c1.2,0.3,2.3,0.6,3.5,0.8c2,0.5,4.1,0.9,6.1,1.2c1.2,0.2,2.4,0.4,3.6,0.6c2.2,0.3,4.5,0.6,6.9,0.8c1.1,0.1,2.2,0.2,3.3,0.3
		c3.4,0.3,6.9,0.4,10.5,0.4c3.5,0,7-0.2,10.5-0.4c1.1-0.1,2.2-0.2,3.3-0.3c2.3-0.2,4.6-0.5,6.9-0.8c1.2-0.2,2.4-0.4,3.6-0.6
		c2.1-0.4,4.1-0.8,6.1-1.2c1.2-0.3,2.3-0.5,3.5-0.8c2.1-0.5,4.1-1.1,6.1-1.8c1-0.3,2-0.6,2.9-0.9c2.8-1,5.5-2,8.1-3.2
		c0.1,0,0.2-0.1,0.3-0.1c2.7-1.2,5.2-2.5,7.7-3.9c0.8-0.4,1.5-0.9,2.3-1.4c1.6-1,3.2-2,4.8-3.1c0.8-0.6,1.6-1.2,2.4-1.8
		c1.4-1.1,2.7-2.1,4-3.2c0.4-0.3,0.8-0.6,1.2-1c0,0.5-0.1,1-0.1,1.4c-0.1,0.7-0.2,1.4-0.3,2.1c-0.1,0.7-0.4,1.4-0.6,2.2
		c-0.2,0.7-0.4,1.4-0.6,2c-0.3,0.7-0.6,1.4-1,2.1c-0.3,0.7-0.6,1.3-1,1.9c-0.4,0.7-0.8,1.4-1.3,2c-0.4,0.6-0.8,1.3-1.3,1.9
		c-0.5,0.7-1.1,1.3-1.6,2c-0.5,0.6-1,1.2-1.6,1.8c-0.6,0.6-1.3,1.3-2,1.9c-0.6,0.6-1.2,1.1-1.8,1.6c-0.7,0.6-1.5,1.2-2.3,1.8
		c-0.7,0.5-1.3,1-2,1.5c-0.8,0.6-1.7,1.1-2.5,1.6c-0.7,0.5-1.5,1-2.3,1.4c-0.9,0.5-1.8,1-2.8,1.5c-0.8,0.4-1.6,0.9-2.5,1.3
		c-1,0.5-2,0.9-3,1.3c-0.9,0.4-1.7,0.8-2.6,1.1c-1.1,0.4-2.2,0.8-3.3,1.2c-0.9,0.3-1.8,0.7-2.7,1c-1.2,0.4-2.4,0.7-3.6,1
		c-0.9,0.3-1.9,0.6-2.8,0.8c-1.2,0.3-2.5,0.6-3.8,0.8c-1,0.2-1.9,0.4-2.9,0.6c-1.4,0.3-2.8,0.4-4.2,0.7c-0.9,0.1-1.8,0.3-2.7,0.4
		c-1.6,0.2-3.2,0.3-4.8,0.4c-0.8,0.1-1.6,0.2-2.4,0.2c-2.4,0.1-4.9,0.2-7.3,0.2c-3.1,0-6.2-0.1-9.3-0.4c-1-0.1-1.9-0.2-2.9-0.3
		c-2.1-0.2-4.2-0.4-6.2-0.7c-1.1-0.2-2.2-0.4-3.4-0.6c-1.8-0.3-3.7-0.7-5.5-1.1c-1.1-0.3-2.3-0.6-3.4-0.9c-1.3-0.4-2.6-0.7-3.8-1.1
		c-8.1-9.2-19.7-16.7-33.7-21.9c-3.4-4.8-5.3-9.8-5.6-14.9c0.4,0.4,0.9,0.7,1.3,1.1C323.7,246.6,325,247.7,326.4,248.7z
		 M460.9,285.2c0.8-0.6,1.6-1.2,2.4-1.8c1.4-1.1,2.7-2.1,4-3.2c0.4-0.3,0.8-0.6,1.2-1c0,0.5-0.1,1-0.1,1.4c-0.1,0.7-0.2,1.4-0.3,2.1
		c-0.1,0.7-0.4,1.4-0.6,2.2c-0.2,0.7-0.4,1.4-0.6,2c-0.3,0.7-0.6,1.4-1,2.1c-0.3,0.7-0.6,1.3-1,1.9c-0.4,0.7-0.8,1.4-1.3,2
		c-0.4,0.6-0.8,1.3-1.3,1.9c-0.5,0.7-1.1,1.3-1.6,2c-0.5,0.6-1,1.2-1.6,1.8c-0.6,0.6-1.3,1.3-2,1.9c-0.6,0.6-1.2,1.1-1.8,1.6
		c-0.7,0.6-1.5,1.2-2.3,1.8c-0.7,0.5-1.3,1-2,1.5c-0.8,0.6-1.7,1.1-2.5,1.6c-0.7,0.5-1.5,1-2.3,1.4c-0.9,0.5-1.8,1-2.8,1.5
		c-0.8,0.4-1.6,0.9-2.5,1.3c-1,0.5-2,0.9-3,1.3c-0.9,0.4-1.7,0.8-2.6,1.1c-1.1,0.4-2.2,0.8-3.3,1.2c-0.9,0.3-1.8,0.7-2.7,1
		c-1.2,0.4-2.4,0.7-3.6,1c-0.9,0.3-1.9,0.6-2.8,0.8c-1.2,0.3-2.5,0.6-3.8,0.8c-1,0.2-1.9,0.4-2.9,0.6c-1.4,0.3-2.8,0.4-4.2,0.7
		c-0.9,0.1-1.8,0.3-2.7,0.4c-1.6,0.2-3.2,0.3-4.8,0.4c-0.8,0.1-1.6,0.2-2.4,0.2c-2.4,0.1-4.9,0.2-7.3,0.2c-4.4,0-8.7-0.3-13-0.8
		c-1.3-0.1-2.5-0.3-3.8-0.5c-1.7-0.2-3.3-0.6-4.9-0.9v-6.5c0-1.9-0.2-3.8-0.4-5.7c-0.2-1.2-0.4-2.3-0.7-3.5c-0.1-0.5-0.2-1-0.3-1.4
		c0.2,0,0.4,0,0.6,0.1c2.5,0.4,5,0.7,7.5,1c1.2,0.1,2.4,0.3,3.7,0.4c3.8,0.3,7.5,0.5,11.3,0.5c3.5,0,7-0.2,10.5-0.4
		c1.1-0.1,2.2-0.2,3.3-0.3c2.3-0.2,4.6-0.5,6.9-0.8c1.2-0.2,2.4-0.4,3.6-0.6c2.1-0.4,4.1-0.8,6.1-1.2c1.2-0.3,2.3-0.5,3.5-0.8
		c2.1-0.5,4.1-1.1,6.1-1.8c1-0.3,2-0.6,2.9-0.9c2.8-1,5.5-2,8.1-3.2c0.1,0,0.2-0.1,0.3-0.1c2.7-1.2,5.2-2.5,7.7-3.9
		c0.8-0.4,1.5-0.9,2.3-1.4C457.7,287.2,459.4,286.2,460.9,285.2z M460.9,319.9c0.8-0.6,1.6-1.2,2.4-1.8c1.4-1.1,2.7-2.1,4-3.2
		c0.4-0.3,0.8-0.6,1.2-1c0,0.5-0.1,1-0.1,1.4c-0.1,0.7-0.2,1.4-0.3,2.1c-0.1,0.7-0.4,1.4-0.6,2.2c-0.2,0.7-0.4,1.4-0.6,2
		c-0.3,0.7-0.6,1.4-1,2.1c-0.3,0.7-0.6,1.3-1,1.9c-0.4,0.7-0.8,1.4-1.3,2c-0.4,0.6-0.8,1.3-1.3,1.9c-0.5,0.7-1.1,1.3-1.6,2
		c-0.5,0.6-1,1.2-1.6,1.8c-0.6,0.6-1.3,1.3-2,1.9c-0.6,0.6-1.2,1.1-1.8,1.6c-0.7,0.6-1.5,1.2-2.3,1.8c-0.7,0.5-1.3,1-2,1.5
		c-0.8,0.6-1.7,1.1-2.5,1.6c-0.7,0.5-1.5,1-2.3,1.4c-0.9,0.5-1.8,1-2.8,1.5c-0.8,0.4-1.6,0.9-2.5,1.3c-1,0.5-2,0.9-3,1.3
		c-0.9,0.4-1.7,0.8-2.6,1.1c-1.1,0.4-2.2,0.8-3.3,1.2c-0.9,0.3-1.8,0.7-2.7,1c-1.2,0.4-2.4,0.7-3.6,1c-0.9,0.3-1.9,0.6-2.8,0.8
		c-1.2,0.3-2.5,0.6-3.8,0.8c-1,0.2-1.9,0.4-2.9,0.6c-1.4,0.3-2.8,0.4-4.2,0.7c-0.9,0.1-1.8,0.3-2.7,0.4c-1.6,0.2-3.2,0.3-4.8,0.4
		c-0.8,0.1-1.6,0.2-2.4,0.2c-2.4,0.1-4.9,0.2-7.3,0.2c-4.4,0-8.7-0.3-13-0.8c-1.3-0.1-2.5-0.3-3.8-0.5c-1.7-0.2-3.3-0.6-4.9-0.9
		v-6.5v-10.4c0.6,0.1,1.2,0.1,1.8,0.2c2.3,0.3,4.7,0.6,7.1,0.9c1,0.1,2,0.2,2.9,0.3c3.3,0.2,6.6,0.4,9.9,0.4c3.5,0,7-0.2,10.5-0.4
		c1.1-0.1,2.2-0.2,3.3-0.3c2.3-0.2,4.6-0.5,6.9-0.8c1.2-0.2,2.4-0.4,3.6-0.6c2.1-0.4,4.1-0.8,6.1-1.2c1.2-0.3,2.3-0.5,3.5-0.8
		c2.1-0.5,4.1-1.1,6.1-1.8c1-0.3,2-0.6,2.9-0.9c2.8-1,5.5-2,8.1-3.2c0.1,0,0.2-0.1,0.3-0.1c2.7-1.2,5.2-2.5,7.7-3.9
		c0.8-0.4,1.5-0.9,2.3-1.4C457.7,322,459.4,320.9,460.9,319.9z M460.9,354.6c0.8-0.6,1.6-1.2,2.4-1.8c1.4-1.1,2.7-2.1,4-3.2
		c0.4-0.3,0.8-0.6,1.2-1c0,0.5-0.1,1-0.1,1.4c-0.1,0.7-0.2,1.4-0.3,2.1c-0.1,0.7-0.4,1.4-0.6,2.2c-0.2,0.7-0.4,1.4-0.6,2
		c-0.3,0.7-0.6,1.4-1,2.1c-0.3,0.7-0.6,1.3-1,1.9c-0.4,0.7-0.8,1.4-1.3,2c-0.4,0.6-0.8,1.3-1.3,1.9c-0.5,0.7-1.1,1.3-1.6,2
		c-0.5,0.6-1,1.2-1.6,1.8c-0.6,0.6-1.3,1.3-2,1.9c-0.6,0.6-1.2,1.1-1.8,1.6c-0.7,0.6-1.5,1.2-2.3,1.8c-0.7,0.5-1.3,1-2,1.5
		c-0.8,0.6-1.7,1.1-2.5,1.6c-0.7,0.5-1.5,1-2.3,1.4c-0.9,0.5-1.8,1-2.8,1.5c-0.8,0.4-1.6,0.9-2.5,1.3c-1,0.5-2,0.9-3,1.3
		c-0.9,0.4-1.7,0.8-2.6,1.1c-1.1,0.4-2.2,0.8-3.3,1.2c-0.9,0.3-1.8,0.7-2.7,1c-1.2,0.4-2.4,0.7-3.6,1c-0.9,0.3-1.9,0.6-2.8,0.8
		c-1.2,0.3-2.5,0.6-3.8,0.8c-1,0.2-1.9,0.4-2.9,0.6c-1.4,0.3-2.8,0.4-4.2,0.7c-0.9,0.1-1.8,0.3-2.7,0.4c-1.6,0.2-3.2,0.3-4.8,0.4
		c-0.8,0.1-1.6,0.2-2.4,0.2c-2.4,0.1-4.9,0.2-7.3,0.2c-4.4,0-8.7-0.3-13-0.8c-1.3-0.1-2.5-0.3-3.8-0.5c-1.7-0.2-3.3-0.6-4.9-0.9
		v-6.5v-10.4c0.6,0.1,1.2,0.1,1.8,0.2c2.3,0.3,4.7,0.6,7.1,0.9c1,0.1,2,0.2,2.9,0.3c3.3,0.2,6.6,0.4,9.9,0.4c3.5,0,7-0.2,10.5-0.4
		c1.1-0.1,2.2-0.2,3.3-0.3c2.3-0.2,4.6-0.5,6.9-0.8c1.2-0.2,2.4-0.4,3.6-0.6c2.1-0.4,4.1-0.8,6.1-1.2c1.2-0.3,2.3-0.5,3.5-0.8
		c2.1-0.5,4.1-1.1,6.1-1.8c1-0.3,2-0.6,2.9-0.9c2.8-1,5.5-2,8.1-3.2c0.1,0,0.2-0.1,0.3-0.1c2.7-1.2,5.2-2.5,7.7-3.9
		c0.8-0.4,1.5-0.9,2.3-1.4C457.7,356.7,459.4,355.6,460.9,354.6z M460.9,389.3c0.8-0.6,1.6-1.2,2.4-1.8c1.4-1.1,2.7-2.1,4-3.2
		c0.4-0.3,0.8-0.6,1.2-1c0,0.5-0.1,1-0.1,1.4c-0.1,0.7-0.2,1.4-0.3,2.1c-0.1,0.7-0.4,1.4-0.6,2.2c-0.2,0.7-0.4,1.4-0.6,2
		c-0.3,0.7-0.6,1.4-1,2.1c-0.3,0.7-0.6,1.3-1,1.9c-0.4,0.7-0.8,1.4-1.3,2c-0.4,0.6-0.8,1.3-1.3,1.9c-0.5,0.7-1.1,1.3-1.6,2
		c-0.5,0.6-1,1.2-1.6,1.8c-0.6,0.6-1.3,1.3-2,1.9c-0.6,0.6-1.2,1.1-1.8,1.6c-0.7,0.6-1.5,1.2-2.3,1.8c-0.7,0.5-1.3,1-2,1.5
		c-0.8,0.6-1.7,1.1-2.5,1.6c-0.7,0.5-1.5,1-2.3,1.4c-0.9,0.5-1.8,1-2.8,1.5c-0.8,0.4-1.6,0.9-2.5,1.3c-1,0.5-2,0.9-3,1.3
		c-0.9,0.4-1.7,0.8-2.6,1.1c-1.1,0.4-2.2,0.8-3.3,1.2c-0.9,0.3-1.8,0.7-2.7,1c-1.2,0.4-2.4,0.7-3.6,1c-0.9,0.3-1.9,0.6-2.8,0.8
		c-1.2,0.3-2.5,0.6-3.8,0.8c-1,0.2-1.9,0.4-2.9,0.6c-1.4,0.3-2.8,0.4-4.2,0.7c-0.9,0.1-1.8,0.3-2.7,0.4c-1.6,0.2-3.2,0.3-4.8,0.4
		c-0.8,0.1-1.6,0.2-2.4,0.2c-2.4,0.1-4.9,0.2-7.3,0.2c-4.4,0-8.7-0.3-13-0.8c-1.3-0.1-2.5-0.3-3.8-0.5c-1.7-0.2-3.3-0.6-4.9-0.9
		v-6.5v-10.4c0.6,0.1,1.2,0.1,1.8,0.2c2.3,0.3,4.7,0.6,7.1,0.9c1,0.1,2,0.2,2.9,0.3c3.3,0.2,6.6,0.4,9.9,0.4c3.5,0,7-0.2,10.5-0.4
		c1.1-0.1,2.2-0.2,3.3-0.3c2.3-0.2,4.6-0.5,6.9-0.8c1.2-0.2,2.4-0.4,3.6-0.6c2.1-0.4,4.1-0.8,6.1-1.2c1.2-0.3,2.3-0.5,3.5-0.8
		c2.1-0.5,4.1-1.1,6.1-1.8c1-0.3,2-0.6,2.9-0.9c2.8-1,5.5-2,8.1-3.2c0.1,0,0.2-0.1,0.3-0.1c2.7-1.2,5.2-2.5,7.7-3.9
		c0.8-0.4,1.5-0.9,2.3-1.4C457.7,391.4,459.4,390.4,460.9,389.3z M355.2,386.8c-0.1,0.7-0.4,1.4-0.6,2.2c-0.2,0.7-0.4,1.4-0.6,2
		c-0.3,0.7-0.6,1.4-1,2.1c-0.3,0.7-0.6,1.3-1,1.9c-0.4,0.7-0.8,1.4-1.3,2c-0.4,0.6-0.8,1.3-1.3,1.9c-0.5,0.7-1.1,1.3-1.6,2
		c-0.5,0.6-1,1.2-1.6,1.8c-0.6,0.6-1.3,1.3-2,1.9c-0.6,0.6-1.2,1.1-1.8,1.6c-0.7,0.6-1.5,1.2-2.3,1.8c-0.7,0.5-1.3,1-2,1.5
		c-0.8,0.6-1.7,1.1-2.5,1.6c-0.7,0.5-1.5,1-2.3,1.4c-0.9,0.5-1.8,1-2.8,1.5c-0.8,0.4-1.6,0.9-2.5,1.3c-1,0.5-2,0.9-3,1.3
		c-0.9,0.4-1.7,0.8-2.6,1.1c-1.1,0.4-2.2,0.8-3.3,1.2c-0.9,0.3-1.8,0.7-2.7,1c-1.2,0.4-2.4,0.7-3.6,1c-0.9,0.3-1.9,0.6-2.8,0.8
		c-1.2,0.3-2.5,0.6-3.8,0.8c-1,0.2-1.9,0.4-2.9,0.6c-1.4,0.3-2.8,0.4-4.2,0.7c-0.9,0.1-1.8,0.3-2.7,0.4c-1.6,0.2-3.2,0.3-4.8,0.4
		c-0.8,0.1-1.6,0.2-2.4,0.2c-2.4,0.2-4.9,0.2-7.3,0.2c-2.5,0-4.9-0.1-7.3-0.2c-0.8-0.1-1.6-0.1-2.4-0.2c-1.6-0.1-3.2-0.3-4.8-0.4
		c-0.9-0.1-1.8-0.3-2.7-0.4c-1.4-0.2-2.8-0.4-4.2-0.7c-1-0.2-1.9-0.4-2.9-0.6c-1.3-0.3-2.6-0.5-3.8-0.8c-1-0.2-1.9-0.5-2.8-0.8
		c-1.2-0.3-2.4-0.7-3.6-1c-0.9-0.3-1.8-0.6-2.7-1c-1.1-0.4-2.2-0.8-3.3-1.2c-0.9-0.4-1.7-0.8-2.6-1.1c-1-0.4-2.1-0.9-3-1.3
		s-1.6-0.9-2.5-1.3c-0.9-0.5-1.9-1-2.8-1.5c-0.8-0.5-1.5-0.9-2.3-1.4c-0.9-0.5-1.7-1.1-2.5-1.6c-0.7-0.5-1.4-1-2-1.5
		c-0.8-0.6-1.5-1.2-2.3-1.8c-0.6-0.5-1.2-1.1-1.8-1.6c-0.7-0.6-1.3-1.2-2-1.9c-0.5-0.6-1-1.2-1.5-1.8c-0.6-0.7-1.1-1.3-1.6-2
		c-0.5-0.6-0.9-1.2-1.3-1.9c-0.5-0.7-0.9-1.4-1.3-2c-0.4-0.6-0.7-1.3-1-1.9c-0.3-0.7-0.7-1.4-1-2.1s-0.4-1.3-0.6-2
		c-0.2-0.7-0.4-1.4-0.6-2.2c-0.1-0.7-0.2-1.4-0.3-2.1c-0.1-0.5-0.1-1-0.1-1.4c0.4,0.3,0.8,0.6,1.2,1c1.3,1.1,2.6,2.2,4,3.3
		c0.8,0.6,1.6,1.2,2.4,1.7c1.5,1.1,3.1,2.1,4.8,3.1c0.8,0.5,1.5,0.9,2.3,1.4c2.5,1.4,5,2.7,7.7,3.9c0.1,0,0.2,0.1,0.3,0.1
		c2.6,1.2,5.3,2.2,8.1,3.2c0.9,0.3,1.9,0.6,2.9,0.9c2,0.6,4,1.2,6.1,1.8c1.2,0.3,2.3,0.6,3.5,0.8c2,0.5,4.1,0.9,6.1,1.2
		c1.2,0.2,2.4,0.4,3.6,0.6c2.2,0.3,4.5,0.6,6.9,0.8c1.1,0.1,2.2,0.2,3.3,0.3c3.5,0.3,6.9,0.4,10.5,0.4s7-0.2,10.5-0.4
		c1.1-0.1,2.2-0.2,3.3-0.3c2.3-0.2,4.6-0.5,6.9-0.8c1.2-0.2,2.4-0.4,3.6-0.6c2.1-0.4,4.1-0.8,6.1-1.2c1.2-0.3,2.3-0.5,3.5-0.8
		c2.1-0.5,4.1-1.1,6.1-1.8c1-0.3,2-0.6,2.9-0.9c2.8-1,5.5-2,8.1-3.2c0.1,0,0.2-0.1,0.3-0.1c2.7-1.2,5.2-2.5,7.7-3.9
		c0.8-0.4,1.5-0.9,2.3-1.4c1.6-1,3.2-2,4.8-3.1c0.8-0.6,1.6-1.2,2.4-1.8c1.4-1.1,2.7-2.1,4-3.2c0.4-0.3,0.8-0.6,1.2-1
		c0,0.5-0.1,1-0.1,1.4C355.4,385.5,355.4,386.2,355.2,386.8z M183.9,355.2c-3.5,0.4-6.9,0.6-10.4,0.6c-4.1,0-8.1-0.3-12.1-0.8
		c-1.3-0.1-2.6-0.4-3.8-0.6c-2.7-0.4-5.4-0.9-8-1.5c-1.4-0.3-2.9-0.7-4.3-1.1c-2.5-0.7-5-1.5-7.4-2.4c-1.3-0.5-2.6-0.9-3.9-1.4
		c-3.5-1.4-6.8-3-10.1-4.8c-1-0.6-2-1.2-2.9-1.8c-2.4-1.4-4.8-2.9-7.1-4.5c-1.2-0.8-2.3-1.7-3.4-2.5c-2.2-1.7-4.4-3.5-6.5-5.4
		c-0.8-0.7-1.6-1.4-2.4-2.2c-1.8-1.7-3.4-3.6-5-5.4l26.8-29.5c3.6-4,8.6-6,12.8-5.2c0.4,0.1,0.8,0.2,1.2,0.3c1.3,1,4.1,3.6,6.1,5.4
		c4.7,4.4,7.8,7.1,10.3,8.8c4.9,9.4,11.7,13.2,16.7,14.6c6.1,1.8,13,1.2,20.5-1.5v32.9v7c-0.9,0.2-1.9,0.4-2.8,0.5
		C186.7,354.8,185.3,355,183.9,355.2z M69.9,242.1c0.1-0.8,0.2-1.6,0.3-2.4c0.3-2.7,0.7-5.4,1.2-8.1c0.1-0.4,0.1-0.8,0.2-1.2
		c0.6-3.1,1.4-6.1,2.3-9.1c0.2-0.6,0.4-1.2,0.6-1.9c0.8-2.3,1.6-4.6,2.5-6.8c0.3-0.8,0.7-1.7,1-2.5c1-2.4,2.2-4.7,3.3-6.9
		c0.6-1.2,1.3-2.3,2-3.5c0.7-1.3,1.5-2.5,2.3-3.7c0,0,0-0.1,0.1-0.1l25,27.5c6.4,7,14.9,10.8,23.4,10.8c3.2-0.1,6.2-0.6,9.2-1.6
		c3.6-1.2,6-4.1,8.6-7.1c4.3-5,7.7-8.6,13-8.6c8.6,0,16.9,3.2,23.3,9.1l9.3,9.6l4.4-12.3c2.1-2.6,11.9-6,17.9-6.7
		c3.4,9.1,9.3,31-1.3,52c-0.6,0.4-1.2,0.8-1.8,1.2c-1.1,0.7-2.1,1.5-3.1,2.3c-0.9,0.7-1.8,1.3-2.6,2c-1,0.8-1.8,1.6-2.8,2.5
		c-0.8,0.7-1.6,1.4-2.3,2.2c-0.9,0.9-1.6,1.8-2.4,2.7c-0.7,0.8-1.4,1.5-2,2.3c-0.7,0.9-1.4,1.9-2.1,2.9c-0.5,0.8-1.1,1.6-1.6,2.4
		c-0.6,1-1.2,2.1-1.7,3.2c0,0.1-0.1,0.1-0.1,0.2c-8.6,5.7-16.2,8.1-20.7,6.8c-1.1-0.3-4.2-1.2-7-7.7l-2-4.7l-3.5-0.4
		c-1.8-1.4-5.4-4.7-7.7-6.8c-6-5.6-8.6-7.9-11.5-8.8c-1.5-0.5-3-0.9-4.5-1.1c-10.2-1.8-21,2.2-28.6,10.6l-24.7,27.2
		c0,0,0-0.1-0.1-0.1c-0.7-1.1-1.4-2.3-2.1-3.5c-0.8-1.3-1.5-2.6-2.2-3.9c-1.2-2.2-2.2-4.4-3.2-6.7c-0.4-0.8-0.7-1.7-1.1-2.6
		c-0.9-2.2-1.7-4.5-2.5-6.7c-0.2-0.6-0.4-1.3-0.6-1.9c-0.9-3-1.7-6-2.3-9.1c-0.1-0.4-0.1-0.8-0.2-1.2c-0.5-2.7-0.9-5.4-1.2-8.1
		c-0.1-0.8-0.2-1.6-0.3-2.4c-0.3-3.1-0.5-6.3-0.5-9.5S69.6,245.3,69.9,242.1z M213.6,352.8c0.8,0.6,1.6,1.2,2.4,1.7
		c1.5,1.1,3.1,2.1,4.8,3.1c0.8,0.5,1.5,0.9,2.3,1.4c2.5,1.4,5,2.7,7.7,3.9c0.1,0,0.2,0.1,0.3,0.1c2.6,1.2,5.3,2.2,8.1,3.2
		c0.9,0.3,1.9,0.6,2.9,0.9c2,0.6,4,1.2,6.1,1.8c1.2,0.3,2.3,0.6,3.5,0.8c2,0.5,4.1,0.9,6.1,1.2c1.2,0.2,2.4,0.4,3.6,0.6
		c2.2,0.3,4.5,0.6,6.9,0.8c1.1,0.1,2.2,0.2,3.3,0.3c3.4,0.3,6.9,0.4,10.5,0.4s7-0.2,10.5-0.4c1.1-0.1,2.2-0.2,3.3-0.3
		c2.3-0.2,4.6-0.5,6.9-0.8c1.2-0.2,2.4-0.4,3.6-0.6c2.1-0.4,4.1-0.8,6.1-1.2c1.2-0.3,2.3-0.5,3.5-0.8c2.1-0.5,4.1-1.1,6.1-1.8
		c1-0.3,2-0.6,2.9-0.9c2.8-1,5.5-2,8.1-3.2c0.1,0,0.2-0.1,0.3-0.1c2.7-1.2,5.2-2.5,7.7-3.9c0.8-0.4,1.5-0.9,2.3-1.4
		c1.6-1,3.2-2,4.8-3.1c0.8-0.6,1.6-1.2,2.4-1.8c1.4-1.1,2.7-2.1,4-3.2c0.4-0.3,0.8-0.6,1.2-1c0,0.5-0.1,1-0.1,1.4
		c-0.1,0.7-0.2,1.4-0.3,2.1c-0.1,0.7-0.4,1.4-0.6,2.2c-0.2,0.7-0.4,1.4-0.6,2c-0.3,0.7-0.6,1.4-1,2.1c-0.3,0.7-0.6,1.3-1,1.9
		c-0.4,0.7-0.8,1.4-1.3,2c-0.4,0.6-0.8,1.3-1.3,1.9c-0.5,0.7-1.1,1.3-1.6,2c-0.5,0.6-1,1.2-1.6,1.8c-0.6,0.6-1.3,1.3-2,1.9
		c-0.6,0.6-1.2,1.1-1.8,1.6c-0.7,0.6-1.5,1.2-2.3,1.8c-0.7,0.5-1.3,1-2,1.5c-0.8,0.6-1.7,1.1-2.5,1.6c-0.7,0.5-1.5,1-2.3,1.4
		c-0.9,0.5-1.8,1-2.8,1.5c-0.8,0.4-1.6,0.9-2.5,1.3c-1,0.5-2,0.9-3,1.3c-0.9,0.4-1.7,0.8-2.6,1.1c-1.1,0.4-2.2,0.8-3.3,1.2
		c-0.9,0.3-1.8,0.7-2.7,1c-1.2,0.4-2.4,0.7-3.6,1c-0.9,0.3-1.9,0.6-2.8,0.8c-1.2,0.3-2.5,0.6-3.8,0.8c-1,0.2-1.9,0.4-2.9,0.6
		c-1.4,0.3-2.8,0.4-4.2,0.7c-0.9,0.1-1.8,0.3-2.7,0.4c-1.6,0.2-3.2,0.3-4.8,0.4c-0.8,0.1-1.6,0.2-2.4,0.2c-2.4,0.1-4.9,0.2-7.3,0.2
		c-2.5,0-4.9-0.1-7.3-0.2c-0.8-0.1-1.6-0.1-2.4-0.2c-1.6-0.1-3.2-0.3-4.8-0.4c-0.9-0.1-1.8-0.3-2.7-0.4c-1.4-0.2-2.8-0.4-4.2-0.7
		c-1-0.2-1.9-0.4-2.9-0.6c-1.3-0.3-2.6-0.5-3.8-0.8c-1-0.2-1.9-0.5-2.8-0.8c-1.2-0.3-2.4-0.7-3.6-1c-0.9-0.3-1.8-0.6-2.7-1
		c-1.1-0.4-2.2-0.8-3.3-1.2c-0.9-0.4-1.7-0.8-2.6-1.1c-1-0.4-2.1-0.9-3-1.3s-1.6-0.9-2.5-1.3c-0.9-0.5-1.9-1-2.8-1.5
		c-0.8-0.5-1.5-0.9-2.3-1.4c-0.9-0.5-1.7-1.1-2.5-1.6c-0.7-0.5-1.4-1-2-1.5c-0.8-0.6-1.5-1.2-2.3-1.8c-0.6-0.5-1.2-1.1-1.8-1.6
		c-0.7-0.6-1.3-1.2-2-1.9c-0.5-0.6-1-1.2-1.5-1.8c-0.6-0.7-1.1-1.3-1.6-2c-0.5-0.6-0.9-1.2-1.3-1.9c-0.5-0.7-0.9-1.4-1.3-2
		c-0.4-0.6-0.7-1.3-1-1.9c-0.3-0.7-0.7-1.4-1-2.1s-0.4-1.3-0.6-2c-0.2-0.7-0.4-1.4-0.6-2.2c-0.1-0.7-0.2-1.4-0.3-2.1
		c-0.1-0.5-0.1-1-0.1-1.4c0.4,0.3,0.8,0.6,1.2,1C210.9,350.7,212.2,351.8,213.6,352.8z M270.7,252.2c-1.6,0.1-3.2,0.3-4.8,0.5
		c-1.4,0.2-2.8,0.3-4.2,0.5c-1.5,0.2-3.1,0.5-4.6,0.8c-1.4,0.3-2.7,0.5-4,0.8c-1.5,0.3-2.9,0.7-4.4,1.1c-1.3,0.3-2.6,0.7-3.8,1
		c-1.4,0.4-2.8,0.9-4.2,1.3c-0.1,0.1-0.3,0.1-0.5,0.1c5.9-28.3-6.3-52.7-6.9-53.9l-1.7-3.3L228,200c-7.5-2.2-24.6,1-34.8,8.1
		c-8.4-5.5-18.2-8.5-28.4-8.5c-13.7,0-21.8,9.6-26.2,14.8c-0.7,0.8-1.3,1.6-1.9,2.2c-0.9,0.2-1.9,0.4-2.9,0.4
		c-3.7-0.1-7.3-1.8-10.3-5.2l-27-29.8c1.6-1.8,3.3-3.7,5-5.4c0.8-0.7,1.6-1.4,2.4-2.2c2.1-1.9,4.3-3.7,6.5-5.4
		c1.1-0.9,2.2-1.7,3.4-2.5c2.3-1.6,4.7-3.1,7.1-4.5c1-0.6,1.9-1.2,2.9-1.8c3.3-1.8,6.7-3.4,10.1-4.8c1.3-0.5,2.6-1,3.9-1.4
		c2.4-0.9,4.9-1.7,7.4-2.4c1.4-0.4,2.9-0.8,4.3-1.1c2.6-0.6,5.3-1.1,8-1.5c1.3-0.2,2.5-0.4,3.8-0.6c4-0.5,8-0.8,12.1-0.8
		s8.1,0.3,12.1,0.8c1.3,0.1,2.6,0.4,3.8,0.6c2.7,0.4,5.4,0.9,8,1.5c1.4,0.3,2.9,0.7,4.3,1.1c2.5,0.7,5,1.5,7.4,2.4
		c1.3,0.5,2.6,0.9,3.9,1.4c3.5,1.4,6.8,3,10.1,4.8c1,0.6,2,1.2,2.9,1.8c2.4,1.4,4.8,2.9,7.1,4.5c1.2,0.8,2.3,1.7,3.4,2.5
		c2.2,1.7,4.4,3.5,6.5,5.4c0.8,0.7,1.6,1.4,2.4,2.2c5.9,5.7,11.3,12.2,15.9,19.4c10.2,16.1,16.2,35.1,16.2,55.6c0,0,0,0,0,0.1
		c-0.9,0-1.8,0.1-2.7,0.2C273.6,252,272.1,252,270.7,252.2z M86.8,336.6c0.1,0.1,0.3,0.2,0.4,0.3c3,3.1,6.2,6,9.6,8.7
		c1.2,1,2.4,1.8,3.7,2.7c2.2,1.7,4.4,3.3,6.8,4.9c1.6,1.1,3.3,2,4.9,3c2.1,1.2,4.2,2.4,6.4,3.5c1.8,0.9,3.5,1.8,5.3,2.6
		c2.2,1,4.5,1.9,6.8,2.8c1.8,0.7,3.5,1.4,5.4,2c2.6,0.8,5.2,1.5,7.8,2.2c1.6,0.4,3.2,0.9,4.9,1.3c4.2,0.9,8.4,1.5,12.7,2
		c1.4,0.1,2.9,0.1,4.3,0.2c2.6,0.2,5.3,0.4,7.9,0.4c0.4,0,0.9-0.1,1.3-0.1c2.4,0,4.8-0.3,7.2-0.4c2.3-0.2,4.5-0.3,6.8-0.6
		c0.7-0.1,1.4-0.1,2.1-0.2v10v34.7v26h-52.2c-2.1-27.7-24.3-49.8-51.9-51.9L86.8,336.6L86.8,336.6z M381.8,17.4v130.8
		c-2.9,0.3-5.8,0.6-8.7,1.1V17.4H381.8z M355.8,17.4v135.9c-3,0.9-5.9,2-8.7,3.1v-139C347.1,17.4,355.8,17.4,355.8,17.4z
		 M329.8,17.4v148c-3.2,2.1-6,4.5-8.7,6.9V17.4H329.8z M43.4,486V17.4h260.3v190.9V243v10.4l0,0c-2.8-0.5-5.7-0.8-8.7-1.1
		c0-0.2,0-0.4,0-0.7c0-22.8-6.4-44-17.4-62.3v-95l-9.5,0.9c-1.2,0.1-2.3,0.2-3.5,0.2c-21.5,0-39.1-17.5-39.1-39.1
		c0-1.2,0.1-2.4,0.2-3.6l0.8-9.4h-106l0.8,9.4c0.1,1.2,0.2,2.4,0.2,3.6c0,21.5-17.5,39.1-39.1,39.1c-1.2,0-2.4-0.1-3.5-0.2l-9.5-0.9
		v95c-0.1,0.2-0.2,0.4-0.4,0.6c-1.2,1.9-2.3,3.9-3.3,5.9c-1.3,2.6-2.6,5.2-3.8,7.8c-0.4,1-0.8,2-1.2,3c-1,2.5-2,5.1-2.8,7.6
		c-0.3,1.1-0.7,2.2-1,3.3c-0.7,2.6-1.4,5.1-2,7.7c-0.3,1.2-0.5,2.3-0.7,3.5c-0.5,2.7-0.9,5.4-1.2,8.1c-0.1,1.1-0.3,2.2-0.4,3.3
		c-0.4,3.8-0.6,7.6-0.6,11.5s0.2,7.7,0.6,11.5c0.1,1.1,0.3,2.2,0.4,3.3c0.3,2.7,0.7,5.4,1.2,8.1c0.2,1.2,0.5,2.3,0.7,3.5
		c0.6,2.6,1.2,5.2,2,7.7c0.3,1.1,0.6,2.2,1,3.3c0.8,2.6,1.8,5.1,2.8,7.6c0.4,1,0.7,2,1.2,3c1.1,2.6,2.4,5.2,3.8,7.8
		c1,2,2.2,4,3.3,5.9c0.1,0.2,0.3,0.4,0.4,0.6v95l9.5-0.9c1.2-0.1,2.3-0.2,3.5-0.2c21.5,0,39.1,17.5,39.1,39.1c0,1.2-0.1,2.4-0.2,3.6
		l-0.8,9.4h71.4c0.2,0.7,0.3,1.4,0.5,2.2c0.2,0.9,0.5,1.7,0.7,2.6c0.2,0.7,0.5,1.4,0.8,2.1c2.7,7,7,13.5,12.9,19.2L43.4,486
		L43.4,486z M237.6,485.5c-0.9-0.4-1.7-0.8-2.6-1.2c-1.2-0.6-2.4-1.2-3.5-1.8c-0.8-0.4-1.5-0.9-2.2-1.3c-2-1.2-3.9-2.5-5.7-3.9
		c-0.6-0.5-1.2-0.9-1.8-1.4c-0.8-0.7-1.5-1.4-2.2-2.1s-1.4-1.3-2-2s-1.2-1.3-1.8-2c-0.7-0.8-1.3-1.6-1.8-2.4
		c-0.4-0.6-0.9-1.2-1.2-1.8c-0.7-1.1-1.2-2.2-1.7-3.2c-0.2-0.4-0.4-0.8-0.6-1.2c-0.6-1.5-1.1-3.1-1.5-4.6c-0.1-0.4-0.1-0.8-0.2-1.2
		c-0.1-0.9-0.2-1.8-0.3-2.7c0.4,0.3,0.8,0.6,1.2,1c1.3,1.1,2.6,2.2,4,3.3c0.8,0.6,1.6,1.2,2.4,1.7c1.5,1.1,3.1,2.1,4.8,3.1
		c0.8,0.5,1.5,0.9,2.3,1.4c2.5,1.4,5,2.7,7.7,3.9c0.1,0,0.2,0.1,0.3,0.1c2.6,1.2,5.3,2.2,8.1,3.2c0.9,0.3,1.9,0.6,2.9,0.9
		c2,0.6,4,1.2,6.1,1.8c1.2,0.3,2.3,0.6,3.5,0.8c2,0.5,4.1,0.9,6.1,1.2c1.2,0.2,2.4,0.4,3.6,0.6c2.2,0.3,4.5,0.6,6.9,0.8
		c1.1,0.1,2.2,0.2,3.3,0.3c3.4,0.3,6.9,0.4,10.5,0.4s7-0.2,10.5-0.4c1.1-0.1,2.2-0.2,3.3-0.3c2.3-0.2,4.6-0.5,6.9-0.8
		c1.2-0.2,2.4-0.4,3.6-0.6c2.1-0.4,4.1-0.8,6.1-1.2c1.2-0.3,2.3-0.5,3.5-0.8c2.1-0.5,4.1-1.1,6.1-1.8c1-0.3,2-0.6,2.9-0.9
		c2.8-1,5.5-2,8.1-3.2c0.1,0,0.2-0.1,0.3-0.1c2.7-1.2,5.2-2.5,7.7-3.9c0.8-0.4,1.5-0.9,2.3-1.4c1.6-1,3.2-2,4.8-3.1
		c0.8-0.6,1.6-1.2,2.4-1.8c1.4-1.1,2.7-2.1,4-3.2c0.4-0.3,0.8-0.6,1.2-1c-0.1,0.9-0.1,1.8-0.3,2.7c0,0.2-0.1,0.5-0.1,0.7
		c-0.3,1.6-0.8,3.1-1.5,4.8l0,0c-2.3,5.8-6.7,11.2-12.8,16c-0.2,0.1-0.3,0.3-0.5,0.4c-1.8,1.4-3.8,2.8-5.9,4
		c-0.4,0.3-0.8,0.5-1.3,0.8l-0.2,0.1c-13.4,7.6-31.4,12.4-51,12.4C265.5,494.6,250,491.2,237.6,485.5z M394.8,494.6
		c-14.1,0-27.8-2.4-39.5-7c4.5-4.1,8.3-8.5,11.2-13.4c0.2,0,0.3,0,0.5,0.1c4,0.9,8.1,1.5,12.2,2c0.9,0.1,1.8,0.2,2.7,0.3
		c4.3,0.4,8.5,0.7,12.9,0.7c3.5,0,7-0.2,10.5-0.4c1.1-0.1,2.2-0.2,3.3-0.3c2.3-0.2,4.6-0.5,6.9-0.8c1.2-0.2,2.4-0.4,3.6-0.6
		c2.1-0.4,4.1-0.8,6.1-1.2c1.2-0.3,2.3-0.5,3.5-0.8c2.1-0.5,4.1-1.1,6.1-1.8c1-0.3,2-0.6,2.9-0.9c2.8-1,5.5-2,8.1-3.2
		c0.1,0,0.2-0.1,0.3-0.1c2.7-1.2,5.2-2.5,7.7-3.9c0.8-0.4,1.5-0.9,2.3-1.4c1.6-1,3.2-2,4.8-3.1c0.8-0.6,1.6-1.2,2.4-1.8
		c1.4-1.1,2.7-2.1,4-3.2c0.4-0.4,0.9-0.7,1.3-1.1C467.2,475.6,434,494.6,394.8,494.6z"/>
</g>
</svg>
