<?xml version="1.0" encoding="utf-8"?>
<!-- Generator: Adobe Illustrator 23.0.2, SVG Export Plug-In . SVG Version: 6.00 Build 0)  -->
<svg version="1.1" id="Capa_1" xmlns="http://www.w3.org/2000/svg" xmlns:xlink="http://www.w3.org/1999/xlink" x="0px" y="0px"
	 viewBox="0 0 512 512" style="enable-background:new 0 0 512 512;" xml:space="preserve">
<style type="text/css">
	.st0{fill:#CF2027;}
</style>
<path class="st0" d="M511.9,179.2c-0.8-14.6-18.2-26-52.9-34.7c1.2-2.6,1.8-5.2,1.8-8V76.8h-0.1c-3.1-49.7-206.8-51.2-230.3-51.2
	S3.2,27.1,0.1,76.8H0v1.1l0,0l0,0v58.6c0,16.2,21,28.9,52.1,38.3c-0.4,1.4-0.7,2.9-0.8,4.3h-0.1v1.1l0,0l0,0v58.5
	c-33.5,8.6-50.3,19.9-51.1,34.2H0v1.1l0,0l0,0v58.6c0,11.3,10.2,20.9,26.9,28.8c-0.6,1.7-1,3.5-1.1,5.3h-0.1v1.1l0,0l0,0v58.6
	c0.1,28.4,64,46,135,54.2c0.5,0.1,1,0.3,1.6,0.3c0.2,0,0.3-0.1,0.5-0.1c13.7,1.5,27.6,2.7,41.4,3.6c0.3,0,0.5,0.2,0.8,0.2
	c0.2,0,0.3-0.1,0.4-0.1c17.5,1.1,34.7,1.6,50.8,1.6s33.3-0.5,50.8-1.6c0.2,0,0.3,0.1,0.4,0.1c0.3,0,0.6-0.1,0.8-0.2
	c13.8-0.9,27.7-2.1,41.4-3.6c0.2,0,0.3,0.1,0.5,0.1c0.6,0,1-0.2,1.6-0.3c71-8.2,134.9-25.9,135-54.2v-59.7h-0.1
	c-0.6-10.5-9.5-19.2-27.1-26.5c1.1-2.5,1.7-5,1.7-7.7V277c30.6-9.4,51.2-22,51.2-38.1L511.9,179.2L511.9,179.2z M442.8,335.5
	l-2.9,2.6c-4.5,4-11.9,7.9-21.8,11.8v-40.7c10.1-3.5,18.8-7.4,25.6-11.7v35.3C443.7,333.6,443.4,334.6,442.8,335.5z M252,375.2
	c-1.2,0-2.5,0.1-3.8,0.1c-3,0.1-6.2,0.1-9.3,0.1v-42.6c2.3,0,4.7-0.1,7-0.1c0.5,0,0.9,0,1.4,0c8.6-0.2,17.2-0.4,25.7-0.8v42.6
	c-1.8,0.1-3.7,0.2-5.5,0.3C262.4,374.9,257.2,375.1,252,375.2z M214.7,375.3c-3.9-0.1-7.8-0.2-11.7-0.3c-0.5,0-1,0-1.4-0.1
	c-4.7-0.2-9.3-0.3-13.8-0.6v-42.6c8.6,0.4,17.1,0.7,25.7,0.8c0.5,0,0.9,0,1.3,0c2.3,0,4.7,0.1,7,0.1v42.6c-1.7,0-3.3,0-5,0
	C216.2,375.3,215.4,375.3,214.7,375.3z M60.6,355.9c-0.3-0.1-0.5-0.2-0.8-0.2v-41.2c8,2.2,16.5,4.1,25.6,5.9v41.7
	c-7.8-1.7-15.1-3.4-21.6-5.2C62.7,356.4,61.6,356.2,60.6,355.9z M240.4,426.5c2.3,0,4.7,0.1,7,0.1v42.7c-11.8-0.1-23.2-0.5-34.1-1
	v-42.6c8.6,0.4,17.1,0.7,25.7,0.8C239.5,426.5,240,426.5,240.4,426.5z M272.9,426.5c8.6-0.2,17.2-0.4,25.7-0.8v42.6
	c-11,0.5-22.3,0.9-34.1,1v-42.7c2.3,0,4.7-0.1,7-0.1C272,426.5,272.5,426.5,272.9,426.5z M341.3,422.6V465
	c-8.2,0.9-16.7,1.6-25.6,2.2v-42.6C324.4,424.1,332.9,423.4,341.3,422.6z M358.4,420.8c8.8-1.1,17.3-2.3,25.6-3.6v41.9
	c-8,1.4-16.6,2.7-25.6,3.9V420.8z M401.1,414.1c9.1-1.8,17.6-3.7,25.6-5.9v41.2c-7.6,2.2-16.2,4.3-25.6,6.3V414.1z M110.9,414.1
	v41.7c-9.4-2-18-4.1-25.6-6.3v-41.2C93.3,410.4,101.9,412.4,110.9,414.1z M128,417.2c8.3,1.3,16.8,2.5,25.6,3.6V463
	c-9-1.2-17.6-2.5-25.6-3.9V417.2z M170.7,422.6c8.4,0.8,16.9,1.5,25.6,2.1v42.6c-8.9-0.6-17.4-1.4-25.6-2.2V422.6z M149.5,371.6
	c-0.9-0.1-1.7-0.2-2.6-0.3c-0.6-0.1-1.2-0.1-1.8-0.2v-42.4c8.4,0.8,16.9,1.5,25.6,2.1v42.5C163.5,372.9,156.4,372.3,149.5,371.6z
	 M128,326.9v42.2c-9-1.2-17.6-2.5-25.6-3.9v-41.9C110.7,324.7,119.2,325.9,128,326.9z M295.8,373c-1.9,0.1-3.8,0.3-5.7,0.4v-42.6
	c8.7-0.6,17.2-1.3,25.6-2.1v42.4c-5.3,0.6-10.7,1.1-16.2,1.5C298.3,372.8,297.1,372.9,295.8,373z M332.8,369.1v-42.2
	c8.8-1.1,17.3-2.3,25.6-3.6v41.9C350.4,366.6,341.8,368,332.8,369.1z M375.5,320.3c9.1-1.8,17.6-3.7,25.6-5.9v41.2
	c-7.6,2.2-16.2,4.3-25.6,6.3V320.3z M258.8,281.3c-6.4-0.2-12.7-0.4-18.9-0.7c-0.3,0-0.7,0-1,0V238c8.6,0.4,17.1,0.7,25.7,0.8
	c0.5,0,0.9,0,1.3,0c2.3,0,4.7,0.1,7,0.1v42.6c-4.2,0-8.3-0.1-12.4-0.2C260,281.3,259.4,281.3,258.8,281.3z M59.7,159.4v-41.2
	c8,2.2,16.5,4.1,25.6,5.9v41.7c-1-0.2-2.1-0.4-3.2-0.7c-4.5-1-9-2-13.2-3.1C65.7,161,62.7,160.2,59.7,159.4z M214.8,136.4
	c2.3,0,4.7,0.1,7,0.1v42.6c-11.5-0.1-22.9-0.4-34.1-1v-42.6c8.6,0.4,17.1,0.7,25.7,0.8C213.9,136.4,214.4,136.4,214.8,136.4z
	 M247.3,136.4c8.6-0.2,17.2-0.4,25.7-0.8v42.6c-1.5,0.1-2.8,0.2-4.3,0.2c-0.1,0-0.2,0-0.4,0c-5.7,0.3-11.6,0.4-17.5,0.6
	c-0.9,0-1.8,0-2.8,0.1c-3,0.1-6.1,0.1-9.2,0.1v-42.6c2.3,0,4.7-0.1,7-0.1C246.4,136.4,246.9,136.4,247.3,136.4z M441.8,140.6
	l-0.2-0.1l-3.1,2.4c-4.5,3.5-11.4,7.1-20.3,10.5v-40.6c10.1-3.5,18.8-7.4,25.6-11.7v35.3C443.7,137.8,443.1,139.2,441.8,140.6z
	 M332.8,172.8v-42.2c8.8-1.1,17.3-2.3,25.6-3.6v41.8C350.3,170.3,341.8,171.6,332.8,172.8z M375.5,165.6V124
	c9.1-1.8,17.6-3.7,25.6-5.9v41.1C393.4,161.5,384.8,163.6,375.5,165.6z M315.7,132.5v42.3c-8.2,0.9-16.8,1.6-25.6,2.3v-42.5
	C298.8,134,307.3,133.3,315.7,132.5z M145.1,174.8v-42.3c8.4,0.8,16.9,1.5,25.6,2.1v42.5C162,176.4,153.4,175.7,145.1,174.8z
	 M128,130.7v42.2c-1.7-0.2-3.4-0.4-5.1-0.6c-1.1-0.2-2.1-0.3-3.2-0.5c-4.9-0.7-9.8-1.5-14.5-2.3c-0.9-0.2-1.9-0.3-2.8-0.5v-41.9
	C110.7,128.4,119.2,129.6,128,130.7z M219.8,279.4c-1.2-0.1-2.3-0.2-3.5-0.3c-5.5-0.4-10.8-0.9-16-1.4c-1.1-0.1-2.2-0.2-3.3-0.3
	c-0.2,0-0.5-0.1-0.7-0.1v-42.4c8.4,0.8,16.9,1.5,25.6,2.1v42.5C221.2,279.5,220.4,279.4,219.8,279.4z M163.4,273
	c-3.4-0.5-6.6-1.1-9.8-1.7v-41.8c8.3,1.3,16.8,2.5,25.6,3.6v42.2c-5.2-0.7-10.3-1.4-15.2-2.2C163.8,273.1,163.6,273,163.4,273z
	 M136.5,226.4V268c-9.4-2-18-4.2-25.6-6.4v-41.1C118.9,222.7,127.5,224.6,136.5,226.4z M93.9,215.3v40.5
	c-13.4-5.2-22.1-10.5-24.9-15.2l-0.6-1c-0.1-0.3-0.1-0.5-0.1-0.8v-35.3C75.1,207.9,83.7,211.8,93.9,215.3z M298.5,238.8
	c8.6-0.2,17.2-0.4,25.7-0.8v42.6c-11.2,0.6-22.6,0.9-34.1,1V239c2.3,0,4.7-0.1,7-0.1C297.6,238.8,298.1,238.8,298.5,238.8z
	 M408.8,271.5c-3.7,0.6-7.5,1.3-11.4,1.9c-2.2,0.3-4.5,0.7-6.8,1c-2.2,0.3-4.4,0.6-6.6,0.9v-42.2c8.8-1.1,17.3-2.3,25.6-3.6v41.9
	C409.3,271.4,409.1,271.5,408.8,271.5z M351,278.8c-3.2,0.3-6.5,0.4-9.7,0.7V237c8.7-0.6,17.2-1.3,25.6-2.1v42.3
	c-5,0.5-9.9,1-15,1.5C351.6,278.7,351.3,278.8,351,278.8z M448.5,262.8c-4.2,1.2-8.7,2.3-13.3,3.4c-2.1,0.5-4.3,1-6.5,1.5
	c-0.7,0.1-1.4,0.3-2,0.4v-41.6c9.1-1.8,17.6-3.7,25.6-5.9v41.2C451,262.1,449.8,262.4,448.5,262.8z M494.8,179.8
	c-0.8,5.8-13.9,13.5-37.4,20.7l0,0c-30.2,9.3-77.4,17.9-137.3,20.5c-3.1,0.1-6.1,0.3-9.2,0.4c-2.6,0.1-5.1,0.2-7.7,0.2
	c-7.1,0.2-14.2,0.3-21.6,0.3s-14.6-0.1-21.6-0.3c-2.6-0.1-5.2-0.1-7.7-0.2c-3.1-0.1-6.2-0.2-9.2-0.4
	c-59.9-2.6-107.1-11.2-137.3-20.5l0,0c-23.3-7.2-36.4-14.8-37.3-20.6c0-0.2,0-0.3,0.1-0.5c0.6,0.1,1.2,0.3,1.8,0.4
	c3.3,0.8,6.8,1.6,10.2,2.3c17,3.7,35.7,6.6,55.8,8.9c0.1,0,0.1,0,0.2,0l0,0c13.6,1.6,27.8,2.8,42.3,3.6c0.1,0,0.2,0.1,0.3,0.1
	s0.1,0,0.2,0c10.5,0.6,21,1.1,31.8,1.3c6.6,0.2,13,0.2,19.3,0.2c4.5,0,9.1-0.1,13.7-0.1c62-1,119.5-8.3,159.5-19.8
	c1.8-0.5,3.6-1.1,5.4-1.6c1.1-0.3,2.2-0.7,3.2-1c3.1-1,6.1-2,8.9-3.1c0.5-0.2,1-0.4,1.5-0.6c2.4-0.9,4.7-1.9,7-2.8
	c0.6-0.3,1.3-0.6,1.9-0.8c2.4-1.1,4.7-2.2,6.8-3.3c1-0.5,1.8-1,2.7-1.5c1-0.6,2-1.2,3-1.8c0.5-0.3,1.2-0.7,1.7-1
	C483.8,167.2,493.9,176.2,494.8,179.8z M230.4,42.7c140.7,0,211.9,22.2,213.2,34.9c-1,5.8-14.1,13.4-37.3,20.6l0,0
	c-30.2,9.3-77.4,17.9-137.3,20.5c-3.1,0.1-6.1,0.3-9.2,0.4c-2.6,0.1-5.1,0.2-7.7,0.2c-7.1,0.2-14.2,0.3-21.6,0.3s-14.6-0.1-21.6-0.3
	c-2.6-0.1-5.2-0.1-7.7-0.2c-3.1-0.1-6.2-0.2-9.2-0.4C132,116,84.7,107.4,54.5,98.1l0,0c-23.2-7.2-36.3-14.8-37.3-20.6
	C18.5,64.8,89.7,42.7,230.4,42.7z M17.1,136.5v-35.3c6.8,4.3,15.5,8.2,25.6,11.7v40.9C26.1,147.5,17.1,141.3,17.1,136.5z
	 M58.4,254.6c0.1,0.1,0.3,0.3,0.5,0.4c11.7,11.8,35.9,21.1,66,28c0.7,0.2,1.4,0.3,2.1,0.5c2.2,0.5,4.5,1,6.7,1.5
	c27.7,5.9,60.7,10.1,96.6,12.3c0,0,0,0,0.1,0s0,0,0,0c11.6,0.7,23.4,1.1,35.4,1.3c5.3,0.1,10.6,0.2,15.7,0.2
	c5.9,0,11.9-0.1,18.1-0.2c11.2-0.2,22.2-0.7,33-1.3h0.1c0.1,0,0.1,0,0.2,0c36.1-2.1,69.9-6.4,98.5-12.6c-6.2,3.2-14.7,6.6-25.2,9.9
	l0,0c-31.9,9.8-82.8,18.8-147.5,20.9c-1.9,0.1-3.8,0.1-5.8,0.2c-2.1,0.1-4.2,0.1-6.3,0.1c-5.4,0.1-10.8,0.2-16.3,0.2
	c-7.4,0-14.6-0.1-21.6-0.3c-2.6-0.1-5.2-0.1-7.7-0.2c-3.1-0.1-6.2-0.2-9.2-0.4c-59.9-2.6-107.1-11.2-137.3-20.5l0,0
	c-23.5-7.3-36.6-15-37.4-20.8C18.1,270.4,26.7,262.4,58.4,254.6z M17.1,332.8v-35.3c6.8,4.3,15.5,8.2,25.6,11.7v40.7l-4.9-1.9
	l-0.1,0.1C24.3,342.5,17.1,337.1,17.1,332.8z M42.7,426.6v-35.3c6.8,4.3,15.5,8.2,25.6,11.7v40.9C51.7,437.7,42.7,431.4,42.7,426.6z
	 M443.7,443.9V403c10.1-3.5,18.8-7.4,25.6-11.7v35.3C469.3,431.4,460.3,437.7,443.7,443.9z M469.2,367.6c-0.9,5.8-14,13.4-37.3,20.6
	l0,0c-30.2,9.3-77.4,17.9-137.3,20.5c-3.1,0.1-6.1,0.3-9.2,0.4c-2.6,0.1-5.1,0.2-7.7,0.2c-7.1,0.2-14.2,0.3-21.6,0.3
	s-14.6-0.1-21.6-0.3c-2.6-0.1-5.1-0.1-7.6-0.2c-3.1-0.1-6.2-0.2-9.3-0.4c-59.9-2.6-107.1-11.2-137.3-20.5l0,0
	c-22.6-7-35.6-14.4-37.2-20.1c2.5,0.9,5.2,1.7,7.9,2.6c0.3,0.1,0.5,0.2,0.8,0.2c2.3,0.7,4.7,1.4,7.1,2.1c0.9,0.3,1.8,0.5,2.8,0.8
	c1.4,0.4,2.8,0.7,4.2,1.1c31.1,8,70.7,13.6,113.6,16.1l0,0l0,0c13.2,0.8,26.7,1.3,40.4,1.4c3.6,0.1,7.2,0.1,10.8,0.1
	c4.7,0,9.5-0.1,14.4-0.1c12.5-0.2,24.7-0.7,36.8-1.4c0,0,0,0,0.1,0h0.1c14.6-0.9,28.8-2.1,42.4-3.7c0.1,0,0.1,0,0.1,0
	c0.2,0,0.3-0.1,0.5-0.1c15.2-1.7,29.5-3.9,42.9-6.4c2.7-0.5,5.5-1,8.1-1.6c0.6-0.1,1.2-0.2,1.8-0.4c25.2-5.2,47-11.9,62-20.2
	c0.8-0.4,1.6-0.9,2.4-1.4c0.9-0.6,1.9-1.1,2.7-1.7c0.8-0.5,1.8-1,2.5-1.6C464,360.1,468.7,365.4,469.2,367.6z M469.3,256.2v-40.8
	c10.1-3.5,18.8-7.4,25.6-11.7V239C494.9,243.7,485.9,249.9,469.3,256.2z"/>
</svg>
