<?xml version="1.0" encoding="utf-8"?>
<!-- Generator: Adobe Illustrator 23.0.2, SVG Export Plug-In . SVG Version: 6.00 Build 0)  -->
<svg version="1.1" id="Capa_1" xmlns="http://www.w3.org/2000/svg" xmlns:xlink="http://www.w3.org/1999/xlink" x="0px" y="0px"
	 viewBox="0 0 512 512" style="enable-background:new 0 0 512 512;" xml:space="preserve">
<style type="text/css">
	.st0{fill:#D12027;}
</style>
<g>
	<g>
		<path class="st0" d="M440.4,27H71.6C37,27,0,45.8,0,98.5v247.3c0,52.7,37,71.6,71.6,71.6h136.5V463h-22.7c-6.1,0-11,4.9-11,11
			c0,6.1,4.9,11,11,11h145.3c6.1,0,11-4.9,11-11c0-6.1-4.9-11-11-11h-26.9v-45.6h136.5c52.7,0,71.6-37,71.6-71.6V98.5
			C512,45.8,475,27,440.4,27z M281.9,463h-51.8v-45.6h51.8L281.9,463L281.9,463z M490,345.8c0,14.9-4.8,49.5-49.5,49.5H71.6
			c-14.9,0-49.5-4.8-49.5-49.5v-15.7h468V345.8z M490,308.2H22V99c0-44.7,34.7-49.5,49.5-49.5h368.9c14.9,0,49.5,4.8,49.5,49.5
			V308.2z"/>
	</g>
</g>
<g>
	<g>
		<path class="st0" d="M434.5,78.9c-4.9-3.7-11.8-2.7-15.4,2.2c0,0,0,0,0,0h0.6l-82.1,110.1l-38.5-50.1c-2-2.6-5.1-4.2-8.4-4.3
			c-3.3-0.1-6.4,1.3-8.6,3.7L219.2,212l-46-78.6c-2-3.3-5.5-5.4-9.4-5.4c-3.9,0-7.5,2-9.5,5.3L78.4,256c-3.9,4.7-3.3,11.6,1.4,15.5
			c4.7,3.9,11.6,3.3,15.5-1.4c0.8-0.9,1.4-2,1.9-3.1l66.1-107.7l44,75.9c3.1,5.2,9.8,7,15.1,3.9c1-0.6,1.9-1.3,2.7-2.2l64.1-71.7
			l39.3,51.1c2.2,2.5,5.4,4.1,8.8,4.3c3.4,0,6.6-1.7,8.7-4.4l90.8-121.9C440.3,89.5,439.4,82.6,434.5,78.9z"/>
	</g>
</g>
</svg>
