<?xml version="1.0" encoding="utf-8"?>
<!-- Generator: Adobe Illustrator 23.0.2, SVG Export Plug-In . SVG Version: 6.00 Build 0)  -->
<svg version="1.1" id="Capa_1" xmlns="http://www.w3.org/2000/svg" xmlns:xlink="http://www.w3.org/1999/xlink" x="0px" y="0px"
	 viewBox="0 0 512 512" style="enable-background:new 0 0 512 512;" xml:space="preserve">
<style type="text/css">
	.st0{fill:#D12027;}
</style>
<g>
	<g>
		<path class="st0" d="M384,187.8c-28.3,0-51.2,22.9-51.2,51.2s22.9,51.2,51.2,51.2c28.3,0,51.2-22.9,51.2-51.2
			C435.2,210.7,412.3,187.8,384,187.8z M384,273.1c-18.8,0-34.1-15.3-34.1-34.1s15.3-34.1,34.1-34.1s34.1,15.3,34.1,34.1
			S402.9,273.1,384,273.1z"/>
	</g>
</g>
<g>
	<g>
		<path class="st0" d="M204.9,341.1c-14.1-18.8-40.9-22.7-59.7-8.5s-22.7,40.9-8.5,59.7c2.4,3.2,5.3,6.1,8.5,8.5v59.9
			c0,4.7,3.8,8.5,8.5,8.5h34.1c4.7,0,8.5-3.8,8.5-8.5v-59.9C215.2,386.7,219,360,204.9,341.1z M183.5,388.9
			c-2.6,1.5-4.3,4.3-4.3,7.4v55.9h-17.1v-55.9c0-3-1.6-5.9-4.3-7.4c-7.9-4.5-12.8-12.9-12.8-22c0-14.1,11.5-25.6,25.6-25.6
			c14.1,0,25.6,11.5,25.6,25.6C196.3,376,191.5,384.4,183.5,388.9z"/>
	</g>
</g>
<g>
	<g>
		<path class="st0" d="M510.5,102.4c-3.6-10.2-13.3-17.1-24.1-17.1c-14.1,0-25.6,11.4-25.6,25.5c0,10.8,6.8,20.5,17.1,24.1v95.4
			h-0.4c-4.2-45-39.8-80.7-84.9-84.9v-27.6c13.3-4.7,20.3-19.3,15.6-32.7c-4.7-13.3-19.3-20.3-32.7-15.6
			c-13.3,4.7-20.3,19.3-15.6,32.7c2.6,7.3,8.3,13,15.6,15.6v27.6c-51.6,4.7-89.6,50.4-84.9,102c1.1,12,4.5,23.7,10,34.5
			c-0.6-0.2-1.2-0.3-1.9-0.4h-25.6v-34.1c0-2.9-0.2-5.7-0.4-8.5h0.4V34.2h112.5c4.7,13.3,19.3,20.3,32.7,15.6
			c13.3-4.7,20.3-19.3,15.6-32.7c-4.7-13.3-19.3-20.3-32.7-15.6c-7.3,2.6-13,8.3-15.6,15.6h-121c-4.7,0-8.5,3.8-8.5,8.5V191
			c-17.3-26.1-45.6-42.9-76.8-45.5V25.7c0-4.7-3.8-8.5-8.5-8.5h-121C45,3.8,30.4-3.2,17.1,1.5S-3.2,20.9,1.5,34.2
			s19.3,20.3,32.7,15.6c7.3-2.6,13-8.3,15.6-15.6h112.5v111.3c-15,1.2-29.6,5.8-42.7,13.4v-32.5c13.3-4.7,20.3-19.3,15.6-32.7
			s-19.3-20.3-32.7-15.6c-13.3,4.7-20.3,19.3-15.6,32.7c2.6,7.3,8.3,13,15.6,15.6v44.9c-17.2,15.4-28.7,36.2-32.6,59H49.7
			c-4.7-13.3-19.3-20.3-32.7-15.6s-20.3,19.3-15.6,32.7c4.7,13.3,19.3,20.3,32.7,15.6c7.3-2.6,13-8.3,15.6-15.6h18.6v34.1H42.8
			c-4.7,0-8.5,3.8-8.5,8.5v213.3c0,4.7,3.8,8.5,8.5,8.5h255.9c4.7,0,8.5-3.8,8.5-8.5V293c10.6,15.1,25.5,26.7,42.7,33.4v177
			c0,4.7,3.8,8.5,8.5,8.5h110.9c4.7,0,8.5-3.8,8.5-8.5v-34.1c0-4.7-3.8-8.5-8.5-8.5h-51.2v-17.1h25.6c4.7,0,8.5-3.8,8.5-8.5V401
			c0-4.7-3.8-8.5-8.5-8.5h-25.6v-66.1c33.2-12.9,56.2-43.5,59.3-78.9h8.9c4.7,0,8.5-3.8,8.5-8.5V135
			C508.2,130.3,515.2,115.7,510.5,102.4z M409.6,17.1c4.7,0,8.5,3.8,8.5,8.5s-3.8,8.5-8.5,8.5s-8.5-3.8-8.5-8.5
			S404.9,17.1,409.6,17.1z M25.7,34.2c-4.7,0-8.5-3.8-8.5-8.5s3.8-8.5,8.5-8.5s8.5,3.8,8.5,8.5S30.4,34.2,25.7,34.2z M25.7,247.5
			c-4.7,0-8.5-3.8-8.5-8.5c0-4.7,3.8-8.5,8.5-8.5s8.5,3.8,8.5,8.5C34.2,243.7,30.4,247.5,25.7,247.5z M111,93.9
			c4.7,0,8.5,3.8,8.5,8.5s-3.8,8.5-8.5,8.5c-4.7,0-8.5-3.8-8.5-8.5S106.3,93.9,111,93.9z M85.4,247.5c0-47.1,38.2-85.3,85.3-85.3
			s85.3,38.2,85.3,85.3v34.1h-25.6v-34.1c0-33-26.7-59.7-59.7-59.7S111,214.5,111,247.5v34.1H85.4V247.5z M213.4,247.5v34.1h-85.3
			v-34.1c0-23.6,19.1-42.7,42.7-42.7S213.4,223.9,213.4,247.5z M290.2,494.9H51.3V298.7h238.9V494.9z M384,85.4
			c4.7,0,8.5,3.8,8.5,8.5s-3.8,8.5-8.5,8.5c-4.7,0-8.5-3.8-8.5-8.5S379.3,85.4,384,85.4z M457.3,262c-7.5,23.9-26.3,42.7-50.2,50.2
			c-3.6,1.1-6,4.4-6,8.1V401c0,4.7,3.8,8.5,8.5,8.5h25.6v17.1h-25.6c-4.7,0-8.5,3.8-8.5,8.5v34.1c0,4.7,3.8,8.5,8.5,8.5h51.2v17.1
			H367V320.3c0-3.7-2.4-7-6-8.1c-40.5-12.7-62.9-55.8-50.2-96.3c12.7-40.5,55.8-62.9,96.3-50.2C447.5,178.4,470,221.5,457.3,262z
			 M486.4,119.5c-4.7,0-8.5-3.8-8.5-8.5c0-4.7,3.8-8.5,8.5-8.5s8.5,3.8,8.5,8.5C494.9,115.7,491.1,119.5,486.4,119.5z"/>
	</g>
</g>
<g>
	<g>
		<path class="st0" d="M324.3,51.2c-2.3,0-4.4,0.9-6,2.5l-25.6,25.6c-1.6,1.6-2.5,3.8-2.5,6v59.7h17.1V88.9l20.6-20.6h13.5V51.2
			H324.3z"/>
	</g>
</g>
<g>
	<g>
		<rect x="196.3" y="0.1" class="st0" width="17.1" height="102.4"/>
	</g>
</g>
<g>
	<g>
		<path class="st0" d="M56.6,147l-39.5-31.6V68.3H0.1v51.2c0,2.6,1.2,5,3.2,6.7l39.5,31.6v38.6h17.1v-42.7
			C59.8,151,58.7,148.6,56.6,147z"/>
	</g>
</g>
<g>
	<g>
		<path class="st0" d="M503.5,0.1h-51.2v17.1h42.7v51.2H512V8.6C512,3.9,508.2,0.1,503.5,0.1z"/>
	</g>
</g>
</svg>
