<?xml version="1.0" encoding="utf-8"?>
<!-- Generator: Adobe Illustrator 23.0.2, SVG Export Plug-In . SVG Version: 6.00 Build 0)  -->
<svg version="1.1" id="Capa_1" xmlns="http://www.w3.org/2000/svg" xmlns:xlink="http://www.w3.org/1999/xlink" x="0px" y="0px"
	 viewBox="0 0 512 512" style="enable-background:new 0 0 512 512;" xml:space="preserve">
<style type="text/css">
	.st0{fill:#FFFFFF;}
</style>
<g>
	<g>
		<polygon class="st0" points="255.2,512 298.6,420.8 213.4,421 		"/>
		<path class="st0" d="M11.8,0v399.5h488.3V0H11.8z M468.5,367.8h-425V31.7h424.9v336.1H468.5z"/>
		<path class="st0" d="M150.7,187.7l-57,59.4v100.2c0,2.8,2.3,5.1,5.1,5.1H168c2.8,0,5.1-2.3,5.1-5.1V193.6l-16-5.9L150.7,187.7
			L150.7,187.7z"/>
		<path class="st0" d="M291.7,234.2h-69.2c-2.8,0-5.1,2.3-5.1,5.1v107.8c0,2.8,2.3,5.1,5.1,5.1h69.2c2.8,0,5.1-2.3,5.1-5.1V239.3
			C296.9,236.5,294.6,234.2,291.7,234.2z"/>
		<path class="st0" d="M392.4,124.4l-12.6-10.5l-45.5,49.7v183.7c0,2.8,2.3,5.1,5.1,5.1h69.3c2.8,0,5.1-2.3,5.1-5.1V126.1
			c-0.3,0.2-0.5,0.4-0.8,0.5c-2.6,1.4-5.6,2.1-8.6,2.1C400,128.7,395.7,127.2,392.4,124.4z"/>
		<path class="st0" d="M76.7,239.4c2.7,0,5.4-1.1,7.4-3.1l65.2-67.8l114.1,42c3.9,1.4,8.3,0.4,11.1-2.7l105-114.6l24.6,20.5
			c1.2,1,2.9,1.2,4.3,0.5s2.2-2.2,2.1-3.8L405,50.8c-0.2-2.1-2.1-3.7-4.2-3.5l-59.6,5.3c-1.6,0.1-2.9,1.2-3.3,2.7
			c-0.1,0.5-0.2,1-0.2,1.5c0.1,1,0.6,2,1.4,2.6L363.8,80L264,188.8l-113.9-41.9c-3.8-1.4-8.1-0.4-10.9,2.5l-69.8,72.7
			c-3.9,4.1-3.8,10.5,0.3,14.4C71.6,238.4,74.2,239.4,76.7,239.4z"/>
	</g>
</g>
</svg>
