<?xml version="1.0" encoding="utf-8"?>
<!-- Generator: Adobe Illustrator 23.0.2, SVG Export Plug-In . SVG Version: 6.00 Build 0)  -->
<svg version="1.1" id="Capa_1" xmlns="http://www.w3.org/2000/svg" xmlns:xlink="http://www.w3.org/1999/xlink" x="0px" y="0px"
	 viewBox="0 0 512 512" style="enable-background:new 0 0 512 512;" xml:space="preserve">
<style type="text/css">
	.st0{fill:#D12027;}
</style>
<g transform="translate(-1)">
	<g>
		<g>
			<path class="st0" d="M502,142.2c-8.1-9-19.6-14.1-31.7-14.2V93.9c0-14.1-11.5-25.6-25.6-25.6H283.5c-2.5,0-4.9-1.1-6.5-3.1
				l-25.3-30.4c-4.9-5.9-12.1-9.3-19.7-9.2H69.3c-14.1,0-25.6,11.5-25.6,25.6V128c-12.1,0.1-23.6,5.3-31.7,14.2
				C3.9,151.1,0,163,1.2,174.9L28.9,448c2.2,22,20.9,38.6,43,38.4h370.2c22.1,0.2,40.7-16.4,43-38.4l27.7-273.1
				C514,163,510.1,151.1,502,142.2z M60.7,51.2c0-4.7,3.8-8.5,8.5-8.5h162.6c2.5,0,5,1.1,6.6,3.1l25.3,30.4c4.9,5.8,12,9.2,19.6,9.2
				h161.3c4.7,0,8.5,3.8,8.5,8.5V128H60.7V51.2z M495.8,173.2l-27.7,273.1c-1.4,13.2-12.7,23.2-26,23H71.9c-13.3,0.2-24.6-9.8-26-23
				L18.2,173.2c-0.7-7.1,1.6-14.2,6.4-19.5c5-5.5,12.1-8.7,19.6-8.6h425.6c7.4,0,14.5,3.1,19.5,8.6
				C494.2,159,496.6,166.1,495.8,173.2z"/>
			<path class="st0" d="M402.1,238.9H111.9c-33,0-59.7,26.7-59.7,59.7s26.7,59.7,59.7,59.7h290.1c33,0,59.7-26.7,59.7-59.7
				S435.1,238.9,402.1,238.9z M402.1,341.3H111.9c-23.6,0-42.7-19.1-42.7-42.7c0-23.6,19.1-42.7,42.7-42.7h290.1
				c23.6,0,42.7,19.1,42.7,42.7C444.7,322.2,425.6,341.3,402.1,341.3z"/>
			<path class="st0" d="M143.6,275.6c-3.3-3.3-8.7-3.3-12.1,0l-11,11l-11-11c-3.3-3.2-8.7-3.2-12,0.1c-3.3,3.3-3.3,8.6-0.1,12l11,11
				l-11,11c-2.2,2.1-3.1,5.3-2.3,8.3c0.8,3,3.1,5.3,6.1,6.1c3,0.8,6.2-0.1,8.3-2.3l11-11l11,11c3.3,3.2,8.7,3.2,12-0.1
				c3.3-3.3,3.3-8.6,0.1-12l-11-11l11-11C146.9,284.3,146.9,278.9,143.6,275.6z"/>
			<path class="st0" d="M211.8,275.6c-3.3-3.3-8.7-3.3-12.1,0l-11,11l-11-11c-3.3-3.2-8.7-3.2-12,0.1c-3.3,3.3-3.3,8.6-0.1,12l11,11
				l-11,11c-2.2,2.1-3.1,5.3-2.3,8.3c0.8,3,3.1,5.3,6.1,6.1c3,0.8,6.2-0.1,8.3-2.3l11-11l11,11c3.3,3.2,8.7,3.2,12-0.1
				c3.3-3.3,3.3-8.6,0.1-12l-11-11l11-11C215.2,284.3,215.2,278.9,211.8,275.6z"/>
			<path class="st0" d="M280.1,275.6c-3.3-3.3-8.7-3.3-12.1,0l-11,11l-11-11c-3.3-3.2-8.7-3.2-12,0.1c-3.3,3.3-3.3,8.6-0.1,12l11,11
				l-11,11c-2.2,2.1-3.1,5.3-2.3,8.3c0.8,3,3.1,5.3,6.1,6.1c3,0.8,6.2-0.1,8.3-2.3l11-11l11,11c3.3,3.2,8.7,3.2,12-0.1
				c3.3-3.3,3.3-8.6,0.1-12l-11-11l11-11C283.4,284.3,283.4,278.9,280.1,275.6z"/>
			<path class="st0" d="M348.4,275.6c-3.3-3.3-8.7-3.3-12.1,0l-11,11l-11-11c-3.3-3.2-8.7-3.2-12,0.1c-3.3,3.3-3.3,8.6-0.1,12l11,11
				l-11,11c-2.2,2.1-3.1,5.3-2.3,8.3c0.8,3,3.1,5.3,6.1,6.1c3,0.8,6.2-0.1,8.3-2.3l11-11l11,11c3.3,3.2,8.7,3.2,12-0.1
				c3.3-3.3,3.3-8.6,0.1-12l-11-11l11-11C351.7,284.3,351.7,278.9,348.4,275.6z"/>
			<path class="st0" d="M410.6,307.2h-34.1c-4.7,0-8.5,3.8-8.5,8.5c0,4.7,3.8,8.5,8.5,8.5h34.1c4.7,0,8.5-3.8,8.5-8.5
				C419.1,311,415.3,307.2,410.6,307.2z"/>
		</g>
	</g>
</g>
</svg>
