<?xml version="1.0" encoding="utf-8"?>
<!-- Generator: Adobe Illustrator 23.0.2, SVG Export Plug-In . SVG Version: 6.00 Build 0)  -->
<svg version="1.1" id="Layer_1" xmlns="http://www.w3.org/2000/svg" xmlns:xlink="http://www.w3.org/1999/xlink" x="0px" y="0px"
	 viewBox="0 0 512 512" style="enable-background:new 0 0 512 512;" xml:space="preserve">
<style type="text/css">
	.st0{fill:#D12027;}
</style>
<g>
	<g>
		<rect x="247.5" class="st0" width="17.1" height="51.2"/>
	</g>
</g>
<g>
	<g>
		
			<rect x="409.3" y="64" transform="matrix(0.7071 -0.7071 0.7071 0.7071 77.4135 331.9881)" class="st0" width="60.3" height="17.1"/>
	</g>
</g>
<g>
	<g>
		
			<rect x="64" y="42.4" transform="matrix(0.7071 -0.7071 0.7071 0.7071 -30.042 72.5272)" class="st0" width="17.1" height="60.3"/>
	</g>
</g>
<g>
	<g>
		
			<rect x="42.4" y="430.9" transform="matrix(0.7071 -0.7071 0.7071 0.7071 -289.4838 179.9845)" class="st0" width="60.3" height="17.1"/>
	</g>
</g>
<g>
	<g>
		<path class="st0" d="M480.4,232.6c3.9-8.8,6-18.2,6-27.8c0-37.6-30.6-68.3-68.3-68.3c-4.4,0-8.7,0.4-13,1.3
			c-9.9-26.2-35.1-43.9-63.8-43.9c-9.6,0-19.1,2-27.8,6c-12.4-19.4-34.1-31.6-57.5-31.6c-23.4,0-45.1,12.2-57.5,31.6
			c-8.8-3.9-18.2-6-27.8-6c-28.7,0-53.8,17.7-63.8,43.9c-4.3-0.8-8.7-1.3-13-1.3c-37.6,0-68.3,30.6-68.3,68.3c0,9.6,2,19.1,6,27.8
			C12.2,245.1,0,266.8,0,290.1c0,37.6,30.6,68.3,68.3,68.3h131c-1.9,3.9-3,8.2-3,12.8c0,8.4,3.5,15.9,9,21.3c-5.6,5.4-9,13-9,21.3
			c0,8.4,3.5,15.9,9,21.3c-5.6,5.4-9,13-9,21.3c0,15.4,11.7,27.9,26.7,29.6c3.7,14.8,17,25.9,33,25.9c16,0,29.3-11.1,33-25.9
			c15-1.6,26.7-14.2,26.7-29.6c0-8.4-3.5-15.9-9-21.3c5.6-5.4,9-13,9-21.3c0-8.4-3.5-15.9-9-21.3c5.6-5.4,9-13,9-21.3
			c0-4.6-1.1-8.9-3-12.8h46.1c4.3,43.1,40.7,76.8,84.9,76.8c4.7,0,8.5-3.8,8.5-8.5v-68.8c33.6-4.2,59.7-33,59.7-67.7
			C512,266.8,499.8,245.1,480.4,232.6z M256,494.9c-6.3,0-11.7-3.5-14.7-8.5h29.4C267.7,491.5,262.3,494.9,256,494.9z M285.9,469.3
			h-59.7c-7.1,0-12.8-5.7-12.8-12.8s5.7-12.8,12.8-12.8h59.7c7.1,0,12.8,5.7,12.8,12.8S292.9,469.3,285.9,469.3z M285.9,426.7h-59.7
			c-7.1,0-12.8-5.7-12.8-12.8s5.7-12.8,12.8-12.8h59.7c7.1,0,12.8,5.7,12.8,12.8S292.9,426.7,285.9,426.7z M285.9,384h-59.7
			c-7.1,0-12.8-5.7-12.8-12.8s5.7-12.8,12.8-12.8h59.7c7.1,0,12.8,5.7,12.8,12.8S292.9,384,285.9,384z M220.2,249.8
			c1.7,1.6,3.8,2.4,6,2.4s4.3-0.8,6-2.4c9.9-9.7,15.4-22.7,15.4-36.5c0-2.4-0.2-4.7-0.5-7c-0.1-0.5-0.2-1.1-0.2-1.6
			c-0.4-2.3-0.9-4.5-1.5-6.7c-0.1-0.2-0.1-0.3-0.2-0.5c-0.7-2-1.5-4-2.4-5.9c-0.2-0.5-0.5-1-0.7-1.4c-1-2-2.2-4-3.4-5.8
			c-0.1-0.1-0.1-0.2-0.1-0.2c10.6-6.5,24.8-6.5,35.4,0c-0.1,0.1-0.1,0.2-0.1,0.2c-1.3,1.9-2.4,3.8-3.4,5.8c-0.2,0.5-0.5,1-0.7,1.4
			c-0.9,1.9-1.7,3.9-2.4,5.9c-0.1,0.2-0.1,0.3-0.2,0.5c-0.7,2.2-1.2,4.4-1.5,6.7c-0.1,0.5-0.2,1.1-0.2,1.6c-0.3,2.3-0.6,4.6-0.6,7
			c0,13.8,5.5,26.8,15.4,36.5c1.7,1.6,3.8,2.4,6,2.4s4.3-0.8,6-2.4c9.9-9.7,15.4-22.7,15.4-36.5c0-2.4-0.2-4.7-0.5-7
			c-0.1-0.5-0.2-1.1-0.2-1.6c-0.4-2.3-0.9-4.5-1.5-6.7c-0.1-0.2-0.1-0.3-0.2-0.5c-0.7-2-1.5-4-2.4-5.9c-0.2-0.5-0.5-1-0.7-1.4
			c-1-2-2.2-4-3.4-5.8c-0.1-0.1-0.1-0.2-0.1-0.2c12.8-7.8,30.6-5.9,41.6,4.8c6.6,6.5,10.2,15.1,10.2,24.3v21l-73,48.7
			c-2.4,1.6-3.8,4.2-3.8,7.1v51.2h-34.1v-51.2c0-2.9-1.4-5.5-3.8-7.1l-73-48.7v-21c0-18.8,15.3-34.1,34.1-34.1
			c6.3,0,12.4,1.7,17.7,5c-0.1,0.1-0.1,0.2-0.1,0.2c-1.3,1.9-2.4,3.8-3.4,5.8c-0.2,0.5-0.5,1-0.7,1.4c-0.9,1.9-1.7,3.9-2.4,5.9
			c-0.1,0.2-0.1,0.3-0.2,0.5c-0.7,2.2-1.2,4.4-1.5,6.7c-0.1,0.5-0.2,1.1-0.2,1.6c-0.3,2.3-0.5,4.6-0.5,7
			C204.8,227.2,210.3,240.1,220.2,249.8z M221.9,213.3c0-2,0.2-4.1,0.6-6c0.1-0.4,0.2-0.9,0.3-1.3c0.4-1.9,1-3.8,1.7-5.6
			c0.1-0.3,0.2-0.5,0.4-0.7c0.4-0.8,0.9-1.6,1.3-2.4c0.4,0.8,1,1.6,1.3,2.4c0.1,0.2,0.2,0.5,0.4,0.7c0.7,1.8,1.3,3.7,1.7,5.6
			c0.1,0.4,0.2,0.9,0.3,1.3c0.3,2,0.6,4,0.6,6s-0.2,4.1-0.6,6c-0.1,0.5-0.2,0.9-0.3,1.3c-0.4,1.9-1,3.8-1.7,5.6
			c-0.1,0.2-0.2,0.5-0.3,0.7c-0.4,0.9-0.9,1.6-1.3,2.4c-0.4-0.8-1-1.6-1.3-2.4c-0.1-0.2-0.2-0.5-0.4-0.7c-0.7-1.8-1.3-3.7-1.7-5.6
			c-0.1-0.4-0.2-0.9-0.3-1.3C222.1,217.4,221.9,215.4,221.9,213.3z M281.6,213.3c0-2,0.2-4.1,0.6-6c0.1-0.4,0.2-0.9,0.3-1.3
			c0.4-1.9,1-3.8,1.7-5.6c0.1-0.3,0.2-0.5,0.4-0.7c0.4-0.8,0.9-1.6,1.3-2.4c0.4,0.8,1,1.6,1.3,2.4c0.1,0.2,0.2,0.5,0.4,0.7
			c0.7,1.8,1.3,3.7,1.7,5.6c0.1,0.4,0.2,0.9,0.3,1.3c0.3,2,0.6,4,0.6,6s-0.2,4.1-0.6,6c-0.1,0.5-0.2,0.9-0.3,1.3
			c-0.4,1.9-1,3.8-1.7,5.6c-0.1,0.2-0.2,0.5-0.3,0.7c-0.4,0.9-0.9,1.6-1.3,2.4c-0.4-0.8-1-1.6-1.3-2.4c-0.1-0.2-0.2-0.5-0.4-0.7
			c-0.7-1.8-1.3-3.7-1.7-5.6c-0.1-0.4-0.2-0.9-0.3-1.3C281.8,217.4,281.6,215.4,281.6,213.3z M443.7,341.3c-4.7,0-8.5,3.8-8.5,8.5
			v67.7c-33.6-4.2-59.7-33-59.7-67.7c0-4.7-3.8-8.5-8.5-8.5h-76.8v-46.6l73-48.7c2.4-1.6,3.8-4.2,3.8-7.1v-25.6
			c0-13.8-5.5-26.8-15.4-36.5l-6,6.1l6-6.1c-9.7-9.5-22.4-14.7-35.8-14.7c-10.9,0-21.2,3.4-29.9,9.7c-8.7-6.3-19-9.7-29.9-9.7
			c-10.9,0-21.2,3.4-29.9,9.7c-8.7-6.3-19-9.7-29.9-9.7c-28.2,0-51.2,23-51.2,51.2v25.6c0,2.9,1.4,5.5,3.8,7.1l73,48.7v46.6H68.3
			c-28.2,0-51.2-23-51.2-51.2c0-19.8,11.6-37.9,29.6-46.4c2.2-1,3.9-3,4.6-5.3c0.7-2.3,0.4-4.8-0.9-6.9c-5-8.1-7.6-17.4-7.6-26.8
			c0-28.2,23-51.2,51.2-51.2c5.4,0,10.8,0.9,16.1,2.6c2.3,0.8,4.8,0.5,6.8-0.6c2.1-1.2,3.6-3.1,4.2-5.5c5.6-23.1,26-39.2,49.7-39.2
			c9.4,0,18.7,2.6,26.8,7.6c2.1,1.3,4.6,1.6,6.9,0.9c2.3-0.7,4.2-2.4,5.3-4.6c8.4-18,26.6-29.6,46.3-29.6c19.8,0,38,11.6,46.4,29.6
			c1,2.2,3,3.9,5.3,4.6c2.4,0.7,4.9,0.4,6.9-0.9c8.1-5,17.3-7.6,26.8-7.6c23.7,0,44.2,16.1,49.7,39.2c0.6,2.3,2.1,4.3,4.2,5.5
			c2.1,1.2,4.6,1.4,6.8,0.6c5.3-1.7,10.7-2.6,16.1-2.6c28.2,0,51.2,23,51.2,51.2c0,9.4-2.6,18.7-7.6,26.8c-1.3,2.1-1.6,4.6-0.9,6.9
			c0.7,2.3,2.4,4.3,4.6,5.3c18,8.4,29.6,26.6,29.6,46.4C494.9,318.4,472,341.3,443.7,341.3z"/>
	</g>
</g>
<g>
	<g>
		<rect x="153.6" y="375.5" class="st0" width="17.1" height="17.1"/>
	</g>
</g>
<g>
	<g>
		<rect x="119.5" y="375.5" class="st0" width="17.1" height="17.1"/>
	</g>
</g>
<g>
	<g>
		<rect x="85.3" y="375.5" class="st0" width="17.1" height="17.1"/>
	</g>
</g>
</svg>
