<?xml version="1.0" encoding="utf-8"?>
<!-- Generator: Adobe Illustrator 23.0.2, SVG Export Plug-In . SVG Version: 6.00 Build 0)  -->
<svg version="1.1" id="Capa_1" xmlns="http://www.w3.org/2000/svg" xmlns:xlink="http://www.w3.org/1999/xlink" x="0px" y="0px"
	 viewBox="0 0 512 512" style="enable-background:new 0 0 512 512;" xml:space="preserve">
<style type="text/css">
	.st0{fill:#FFFFFF;}
</style>
<g>
	<g>
		<path class="st0" d="M9.2,486.5h400.6c5.1,0,9.2-4.1,9.2-9.2v-130h83.9c5.1,0,9.2-4.1,9.2-9.2V34.6c0-5.1-4.1-9.2-9.2-9.2H102.2
			c-5.1,0-9.2,4.1-9.2,9.2v126.7c0,1.2,0.3,2.3,0.7,3.3H9.2c-5.1,0-9.2,4.1-9.2,9.2v303.5C0,482.4,4.1,486.5,9.2,486.5z
			 M111.4,161.4V43.8h382.3V329h-74.8V173.9c0-5.1-4.1-9.2-9.2-9.2h-299C111.1,163.7,111.4,162.5,111.4,161.4z M18.3,183h382.3
			v285.2H18.3V183z"/>
		<path class="st0" d="M193.9,215.2H52.7c-5.1,0-9.2,4.1-9.2,9.2v141.2c0,5.1,4.1,9.2,9.2,9.2h141.2c5.1,0,9.2-4.1,9.2-9.2V224.4
			C203,219.3,198.9,215.2,193.9,215.2z M184.7,356.4H61.8V233.5h122.9V356.4z"/>
		<path class="st0" d="M373.1,305.9H231.9c-5.1,0-9.2,4.1-9.2,9.2v123.2c0,5.1,4.1,9.2,9.2,9.2h141.2c5.1,0,9.2-4.1,9.2-9.2V315.1
			C382.3,310,378.2,305.9,373.1,305.9z M364,429.1H241.1V324.2H364V429.1z"/>
		<path class="st0" d="M193.9,388.6H52.7c-5.1,0-9.2,4.1-9.2,9.2v32.5c0,5.1,4.1,9.2,9.2,9.2h141.2c5.1,0,9.2-4.1,9.2-9.2v-32.5
			C203,392.7,198.9,388.6,193.9,388.6z M184.7,421.1H61.8V407h122.9V421.1z"/>
		<path class="st0" d="M373.1,242.6H231.9c-5.1,0-9.2,4.1-9.2,9.2v32.5c0,5.1,4.1,9.2,9.2,9.2h141.2c5.1,0,9.2-4.1,9.2-9.2v-32.5
			C382.3,246.7,378.2,242.6,373.1,242.6z M364,275.1H241.1v-14.2H364V275.1z"/>
		<path class="st0" d="M379.6,195.9c-3.6-3.6-9.4-3.6-12.9,0l-4.5,4.5l-4.5-4.5c-3.6-3.6-9.4-3.6-12.9,0c-3.6,3.6-3.6,9.4,0,12.9
			l4.5,4.5l-4.5,4.5c-3.6,3.6-3.6,9.4,0,12.9c1.8,1.8,4.1,2.7,6.5,2.7c2.3,0,4.7-0.9,6.5-2.7l4.5-4.5l4.5,4.5
			c1.8,1.8,4.1,2.7,6.5,2.7s4.7-0.9,6.5-2.7c3.6-3.6,3.6-9.4,0-12.9l-4.5-4.5l4.5-4.5C383.2,205.2,383.2,199.4,379.6,195.9z"/>
		<path class="st0" d="M475.4,145v-32.5c0-5.1-4.1-9.2-9.2-9.2H325c-5.1,0-9.2,4.1-9.2,9.2V145c0,5.1,4.1,9.2,9.2,9.2h141.2
			C471.3,154.1,475.4,150.1,475.4,145z M457.1,135.8H334.2v-14.2h122.9V135.8z"/>
		<path class="st0" d="M302.5,103.4H161.3c-5.1,0-9.2,4.1-9.2,9.2V145c0,5.1,4.1,9.2,9.2,9.2h141.2c5.1,0,9.2-4.1,9.2-9.2v-32.5
			C311.7,107.5,307.6,103.4,302.5,103.4z M293.4,135.8H170.5v-14.2h122.9V135.8z"/>
		<path class="st0" d="M437.7,91.6c1.8,1.8,4.1,2.7,6.5,2.7c2.3,0,4.7-0.9,6.5-2.7l4.5-4.5l4.5,4.5c1.8,1.8,4.1,2.7,6.5,2.7
			c2.3,0,4.7-0.9,6.5-2.7c3.6-3.6,3.6-9.4,0-12.9l-4.5-4.5l4.5-4.5c3.6-3.6,3.6-9.4,0-12.9c-3.6-3.6-9.4-3.6-12.9,0l-4.5,4.5
			l-4.5-4.5c-3.6-3.6-9.4-3.6-12.9,0c-3.6,3.6-3.6,9.4,0,12.9l4.5,4.5l-4.5,4.5C434.1,82.2,434.1,88,437.7,91.6z"/>
	</g>
</g>
</svg>
