<?xml version="1.0" encoding="utf-8"?>
<!-- Generator: Adobe Illustrator 23.0.2, SVG Export Plug-In . SVG Version: 6.00 Build 0)  -->
<svg version="1.1" id="Capa_1" xmlns="http://www.w3.org/2000/svg" xmlns:xlink="http://www.w3.org/1999/xlink" x="0px" y="0px"
	 viewBox="0 0 512 512" style="enable-background:new 0 0 512 512;" xml:space="preserve">
<style type="text/css">
	.st0{fill:#D12027;}
</style>
<g>
	<g>
		<g>
			<path class="st0" d="M494.9,418.1V119.5c0-14.1-11.5-25.6-25.6-25.6H349.9C349.9,42,307.8,0,256,0s-93.9,42-93.9,93.9H42.7
				c-14.1,0-25.6,11.5-25.6,25.6v298.7c-9.4,0-17.1,7.6-17.1,17.1v34.1C0,492.9,19.1,512,42.7,512h426.7c23.6,0,42.6-19.1,42.7-42.7
				v-34.1C512,425.8,504.4,418.1,494.9,418.1z M179.2,93.9c0-42.4,34.4-76.8,76.8-76.8s76.8,34.4,76.8,76.8v68.3H179.2V93.9z
				 M358.4,179.2v17.1h-25.6c-4.7,0-8.5,3.8-8.5,8.5s3.8,8.5,8.5,8.5h25.6v17.1h-25.6c-4.7,0-8.5,3.8-8.5,8.5s3.8,8.5,8.5,8.5h25.6
				v17.1h-25.6c-4.7,0-8.5,3.8-8.5,8.5c0,4.7,3.8,8.5,8.5,8.5h25.6v17.1h-25.6c-4.7,0-8.5,3.8-8.5,8.5s3.8,8.5,8.5,8.5h24.7
				c-4.1,19.9-21.5,34.1-41.8,34.1H196.3c-20.3,0-37.7-14.3-41.8-34.1h24.7c4.7,0,8.5-3.8,8.5-8.5s-3.8-8.5-8.5-8.5h-25.6v-17.1
				h25.6c4.7,0,8.5-3.8,8.5-8.5c0-4.7-3.8-8.5-8.5-8.5h-25.6v-17.1h25.6c4.7,0,8.5-3.8,8.5-8.5s-3.8-8.5-8.5-8.5h-25.6v-17.1h25.6
				c4.7,0,8.5-3.8,8.5-8.5s-3.8-8.5-8.5-8.5h-25.6v-17.1H358.4z M34.1,119.5c0-4.7,3.8-8.5,8.5-8.5h119.5v51.2h-8.5
				c-9.4,0-17.1,7.6-17.1,17.1v128c0,33,26.8,59.7,59.7,59.7h119.5c33,0,59.7-26.8,59.7-59.7v-128c0-9.4-7.6-17.1-17.1-17.1h-8.5
				v-51.2h119.5c4.7,0,8.5,3.8,8.5,8.5v298.7h-17.1V145.1c0-9.4-7.6-17.1-17.1-17.1h-68.3c-4.7,0-8.5,3.8-8.5,8.5s3.8,8.5,8.5,8.5
				h68.3v273.1H68.3V145.1h68.3c4.7,0,8.5-3.8,8.5-8.5s-3.8-8.5-8.5-8.5H68.3c-9.4,0-17.1,7.6-17.1,17.1v273.1H34.1V119.5z
				 M327.5,435.2l-6.2,12.3c-1.4,2.9-4.4,4.7-7.6,4.7H198.3c-3.2,0-6.2-1.8-7.6-4.7l-6.2-12.3H327.5z M494.9,452.3h-93.9
				c-4.7,0-8.5,3.8-8.5,8.5s3.8,8.5,8.5,8.5h93.9c0,14.1-11.5,25.6-25.6,25.6H42.7c-14.1,0-25.6-11.5-25.6-25.6h93.9
				c4.7,0,8.5-3.8,8.5-8.5s-3.8-8.5-8.5-8.5H17.1v-17.1h148.3l10,20c4.3,8.7,13.2,14.2,22.9,14.1h115.4c9.7,0,18.6-5.5,22.9-14.1
				l10-20h148.3L494.9,452.3L494.9,452.3z"/>
			<path class="st0" d="M153.6,452.3h-8.5c-4.7,0-8.5,3.8-8.5,8.5s3.8,8.5,8.5,8.5h8.5c4.7,0,8.5-3.8,8.5-8.5
				S158.3,452.3,153.6,452.3z"/>
			<path class="st0" d="M358.4,469.3h8.5c4.7,0,8.5-3.8,8.5-8.5s-3.8-8.5-8.5-8.5h-8.5c-4.7,0-8.5,3.8-8.5,8.5
				S353.7,469.3,358.4,469.3z"/>
			<path class="st0" d="M247.5,271.5v18.6c0,4.7,3.8,8.5,8.5,8.5c4.7,0,8.5-3.8,8.5-8.5v-18.6c11.7-4.1,18.8-16.1,16.7-28.4
				c-2.1-12.3-12.8-21.2-25.2-21.2c-12.5,0-23.1,8.9-25.2,21.2C228.7,255.4,235.7,267.4,247.5,271.5z M256,238.9
				c4.7,0,8.5,3.8,8.5,8.5s-3.8,8.5-8.5,8.5s-8.5-3.8-8.5-8.5S251.3,238.9,256,238.9z"/>
			<path class="st0" d="M110.9,264.5H93.9c-4.7,0-8.5,3.8-8.5,8.5c0,4.7,3.8,8.5,8.5,8.5h17.1c4.7,0,8.5-3.8,8.5-8.5
				C119.5,268.4,115.6,264.5,110.9,264.5z"/>
			<path class="st0" d="M110.9,298.7H93.9c-4.7,0-8.5,3.8-8.5,8.5s3.8,8.5,8.5,8.5h17.1c4.7,0,8.5-3.8,8.5-8.5
				S115.6,298.7,110.9,298.7z"/>
			<path class="st0" d="M401.1,281.6h17.1c4.7,0,8.5-3.8,8.5-8.5c0-4.7-3.8-8.5-8.5-8.5h-17.1c-4.7,0-8.5,3.8-8.5,8.5
				C392.5,277.8,396.4,281.6,401.1,281.6z"/>
			<path class="st0" d="M401.1,315.7h17.1c4.7,0,8.5-3.8,8.5-8.5s-3.8-8.5-8.5-8.5h-17.1c-4.7,0-8.5,3.8-8.5,8.5
				S396.4,315.7,401.1,315.7z"/>
		</g>
	</g>
</g>
</svg>
