<?xml version="1.0" encoding="utf-8"?>
<!-- Generator: Adobe Illustrator 23.0.2, SVG Export Plug-In . SVG Version: 6.00 Build 0)  -->
<svg version="1.1" id="Layer_1" xmlns="http://www.w3.org/2000/svg" xmlns:xlink="http://www.w3.org/1999/xlink" x="0px" y="0px"
	 viewBox="0 0 295.2 295.2" style="enable-background:new 0 0 295.2 295.2;" xml:space="preserve">
<style type="text/css">
	.st0{fill:#D12027;}
</style>
<g>
	<g>
		<g>
			<path class="st0" d="M181,76.2c21,0,38.1-17.1,38.1-38.1S202,0,181,0s-38.1,17.1-38.1,38.1S159.9,76.2,181,76.2z M181,9.5
				c15.8,0,28.6,12.8,28.6,28.6S196.7,66.7,181,66.7c-15.8,0-28.6-12.8-28.6-28.6S165.2,9.5,181,9.5z"/>
			<path class="st0" d="M242.9,104.8L242.9,104.8c0-15.8-12.8-28.6-28.6-28.6H181h-33.3c-15.8,0-28.6,12.8-28.6,28.6v4.8h-17.6
				c13.5-9.5,22.4-25.1,22.4-42.9c0-28.9-23.5-52.4-52.4-52.4S19,37.8,19,66.7c0,27.3,21,49.7,47.6,52.1v24.1h76.2v152.4H219v-57.1
				h57.1v-66.7h-33.3V104.8z M28.6,66.7c0-23.6,19.2-42.9,42.9-42.9s42.9,19.2,42.9,42.9s-19.2,42.9-42.9,42.9S28.6,90.3,28.6,66.7z
				 M142.9,104.8v28.6H76.2V119h52.4v-14.3c0-10.5,8.5-19,19-19h66.7c10.5,0,19,8.5,19,19v66.7H219v-66.7h-9.5v52.4h-57.1v-19v-4.8
				v-28.6L142.9,104.8L142.9,104.8z M152.4,166.7h57.1v4.8h-19v66.7h19v23.8h-23.8v-76.2h-9.5v76.2h-23.8V166.7z M176.2,285.7h-23.8
				v-14.3h23.8V285.7z M209.5,285.7h-23.8v-14.3h23.8V285.7z M266.7,228.6H200v-23.8h9.5v4.8h9.5v-4.8h28.6v4.8h9.5v-4.8h9.5V228.6z
				 M266.7,181v14.3h-9.5v-4.8h-9.5v4.8H219v-4.8h-9.5v4.8H200V181h14.3h28.6H266.7z"/>
			<path class="st0" d="M78.6,38.1h-2.4v-9.5h-9.5v9.5h-2.4c-9.2,0-16.7,7.5-16.7,16.7s7.5,16.7,16.7,16.7h14.3
				c3.9,0,7.1,3.2,7.1,7.1s-3.2,7.1-7.1,7.1H64.3c-3.9,0-7.1-3.2-7.1-7.1v-2.4h-9.5v2.4c0,9.2,7.5,16.7,16.7,16.7h2.4v9.5h9.5v-9.5
				h2.4c9.2,0,16.7-7.5,16.7-16.7s-7.5-16.7-16.7-16.7H64.3c-3.9,0-7.1-3.2-7.1-7.1s3.2-7.1,7.1-7.1h14.3c3.9,0,7.1,3.2,7.1,7.1v2.4
				h9.5v-2.4C95.2,45.6,87.8,38.1,78.6,38.1z"/>
			<polygon class="st0" points="176.2,142.9 185.7,142.9 185.7,104.8 190.5,104.8 190.5,95.2 171.4,95.2 171.4,104.8 176.2,104.8 
							"/>
			<polygon class="st0" points="281,14.3 281,0 271.4,0 271.4,14.3 281,14.3 281,23.8 271.4,23.8 271.4,38.1 281,38.1 281,23.8 
				295.2,23.8 295.2,14.3 			"/>
			<rect x="257.1" y="14.3" class="st0" width="14.3" height="9.5"/>
			<polygon class="st0" points="38.1,133.3 23.8,133.3 23.8,119 14.3,119 14.3,133.3 0,133.3 0,142.9 14.3,142.9 14.3,133.3 
				23.8,133.3 23.8,142.9 38.1,142.9 			"/>
			<rect x="14.3" y="142.9" class="st0" width="9.5" height="14.3"/>
			<rect x="47.6" y="142.9" class="st0" width="9.5" height="9.5"/>
			<rect x="57.1" y="152.4" class="st0" width="9.5" height="9.5"/>
			<rect x="47.6" y="161.9" class="st0" width="9.5" height="9.5"/>
			<rect x="38.1" y="152.4" class="st0" width="9.5" height="9.5"/>
			<rect x="252.4" y="47.6" class="st0" width="9.5" height="9.5"/>
			<rect x="261.9" y="57.1" class="st0" width="9.5" height="9.5"/>
			<rect x="252.4" y="66.7" class="st0" width="9.5" height="9.5"/>
			<rect x="242.9" y="57.1" class="st0" width="9.5" height="9.5"/>
		</g>
	</g>
</g>
</svg>
