<?xml version="1.0" encoding="utf-8"?>
<!-- Generator: Adobe Illustrator 23.0.2, SVG Export Plug-In . SVG Version: 6.00 Build 0)  -->
<svg version="1.1" id="Capa_1" xmlns="http://www.w3.org/2000/svg" xmlns:xlink="http://www.w3.org/1999/xlink" x="0px" y="0px"
	 viewBox="0 0 512 512" style="enable-background:new 0 0 512 512;" xml:space="preserve">
<style type="text/css">
	.st0{fill:#FFFFFF;}
</style>
<g>
	<g>
		<path class="st0" d="M384,34.1h-76.8V8.5c0-4.7-3.8-8.5-8.5-8.5H93.9c-4.7,0-8.5,3.8-8.5,8.5v25.6H8.5C3.8,34.1,0,38,0,42.7v460.8
			c0,4.7,3.8,8.5,8.5,8.5H384c4.7,0,8.5-3.8,8.5-8.5V42.7C392.5,38,388.7,34.1,384,34.1z M102.4,17.1h187.7v17.1H102.4V17.1z
			 M102.4,51.2h187.7v34.1h-69.7C215.7,72,201.1,65,187.7,69.7c-7.3,2.6-13,8.3-15.6,15.6h-69.7C102.4,85.3,102.4,51.2,102.4,51.2z
			 M375.5,494.9H17.1V51.2h68.3v42.7c0,4.7,3.8,8.5,8.5,8.5h85.3c4.7,0,8.5-3.8,8.5-8.5s3.8-8.5,8.5-8.5s8.5,3.8,8.5,8.5
			s3.8,8.5,8.5,8.5h85.3c4.7,0,8.5-3.8,8.5-8.5V51.2h68.3v443.7H375.5z"/>
	</g>
</g>
<g>
	<g>
		<path class="st0" d="M85.3,119.5c-18.9,0-34.1,15.3-34.1,34.1s15.3,34.1,34.1,34.1s34.1-15.3,34.1-34.1S104.2,119.5,85.3,119.5z
			 M85.3,170.7c-9.4,0-17.1-7.6-17.1-17.1c0-9.4,7.6-17.1,17.1-17.1s17.1,7.6,17.1,17.1C102.4,163,94.8,170.7,85.3,170.7z"/>
	</g>
</g>
<g>
	<g>
		<path class="st0" d="M85.3,204.8c-18.9,0-34.1,15.3-34.1,34.1S66.5,273,85.3,273s34.1-15.3,34.1-34.1S104.2,204.8,85.3,204.8z
			 M85.3,256c-9.4,0-17.1-7.6-17.1-17.1c0-9.4,7.6-17.1,17.1-17.1s17.1,7.6,17.1,17.1S94.8,256,85.3,256z"/>
	</g>
</g>
<g>
	<g>
		<path class="st0" d="M332.8,128H213.3c-4.7,0-8.5,3.8-8.5,8.5s3.8,8.5,8.5,8.5h119.5c4.7,0,8.5-3.8,8.5-8.5S337.5,128,332.8,128z"
			/>
	</g>
</g>
<g>
	<g>
		<path class="st0" d="M179.2,128h-34.1c-4.7,0-8.5,3.8-8.5,8.5s3.8,8.5,8.5,8.5h34.1c4.7,0,8.5-3.8,8.5-8.5S183.9,128,179.2,128z"
			/>
	</g>
</g>
<g>
	<g>
		<path class="st0" d="M332.8,162.1h-68.3c-4.7,0-8.5,3.8-8.5,8.5s3.8,8.5,8.5,8.5h68.3c4.7,0,8.5-3.8,8.5-8.5
			C341.3,166,337.5,162.1,332.8,162.1z"/>
	</g>
</g>
<g>
	<g>
		<path class="st0" d="M230.4,162.1h-85.3c-4.7,0-8.5,3.8-8.5,8.5s3.8,8.5,8.5,8.5h85.3c4.7,0,8.5-3.8,8.5-8.5
			C238.9,166,235.1,162.1,230.4,162.1z"/>
	</g>
</g>
<g>
	<g>
		<path class="st0" d="M332.8,213.3h-34.1c-4.7,0-8.5,3.8-8.5,8.5s3.8,8.5,8.5,8.5h34.1c4.7,0,8.5-3.8,8.5-8.5
			C341.3,217.2,337.5,213.3,332.8,213.3z"/>
	</g>
</g>
<g>
	<g>
		<path class="st0" d="M264.5,213.3H145.1c-4.7,0-8.5,3.8-8.5,8.5s3.8,8.5,8.5,8.5h119.5c4.7,0,8.5-3.8,8.5-8.5
			C273.1,217.2,269.2,213.3,264.5,213.3z"/>
	</g>
</g>
<g>
	<g>
		<path class="st0" d="M332.8,247.5h-93.9c-4.7,0-8.5,3.8-8.5,8.5c0,4.7,3.8,8.5,8.5,8.5h93.9c4.7,0,8.5-3.8,8.5-8.5
			C341.3,251.3,337.5,247.5,332.8,247.5z"/>
	</g>
</g>
<g>
	<g>
		<path class="st0" d="M204.8,247.5h-59.7c-4.7,0-8.5,3.8-8.5,8.5c0,4.7,3.8,8.5,8.5,8.5h59.7c4.7,0,8.5-3.8,8.5-8.5
			C213.3,251.3,209.5,247.5,204.8,247.5z"/>
	</g>
</g>
<g>
	<g>
		<path class="st0" d="M477.9,35v-0.9c0-18.9-15.3-34.1-34.1-34.1c-18.9,0-34.1,15.3-34.1,34.1v409.6c0,0.1,0.1,0.2,0.1,0.3
			c0,0.9,0.2,1.8,0.5,2.6c0.1,0.2,0.1,0.4,0.2,0.6s0.1,0.2,0.1,0.3l24.7,49.4v6.5c0,4.7,3.8,8.5,8.5,8.5s8.5-3.8,8.5-8.5v-6.5
			l24.7-49.4c0.1-0.1,0.1-0.2,0.1-0.3c0.1-0.1,0.1-0.4,0.2-0.6c0.3-0.8,0.5-1.7,0.5-2.6c0-0.1,0.1-0.2,0.1-0.3v-391
			c10.2,3.6,17,13.2,17,24v76.8c0,4.7,3.8,8.5,8.5,8.5s8.5-3.8,8.5-8.5V76.8C512,56.5,497.7,39.1,477.9,35z M443.7,475.9l-11.8-23.6
			h23.6L443.7,475.9z M460.8,435.2h-34.1V196.3h34.1V435.2z M460.8,179.2h-34.1v-128h34.1V179.2z M426.7,34.1
			c0-9.4,7.6-17.1,17.1-17.1c9.4,0,17.1,7.6,17.1,17.1H426.7z"/>
	</g>
</g>
<g>
	<g>
		<path class="st0" d="M256,332.8v-17.1h-25.6c-2.3,0-4.4,0.9-6,2.5l-6.6,6.6c-32.7-40.2-91.8-46.4-132-13.7s-46.4,91.8-13.7,132
			s91.8,46.4,132,13.7c0.8-0.7,1.6-1.3,2.4-2c4.1-3.6,7.8-7.5,11.2-11.7l6.6,6.6c1.6,1.6,3.8,2.5,6.1,2.5H256v-17.1h-22.1l-6.5-6.5
			c15.3-27.9,15.4-61.6,0.1-89.5l6.4-6.4L256,332.8L256,332.8z M214.8,416.1l-12.5-12.5l-12.1,12.1l15.4,15.4
			c-1.5,1.9-3,3.7-4.6,5.4l-43.9-43.9h64.3C220.5,400.7,218.2,408.6,214.8,416.1z M136.5,375.5c-4.7,0-8.5,3.8-8.5,8.5
			c0,2.3,0.9,4.4,2.5,6l57.5,57.5c-35.1,23.8-82.9,14.6-106.7-20.5s-14.6-82.9,20.5-106.7c33.5-22.7,78.9-15.5,103.7,16.5L190,352.3
			l12.1,12.1l12.5-12.5c3.5,7.4,5.7,15.4,6.6,23.5L136.5,375.5L136.5,375.5z"/>
	</g>
</g>
<g>
	<g>
		<path class="st0" d="M307.2,290.1c-18.9,0-34.1,15.3-34.1,34.1c0,18.9,15.3,34.1,34.1,34.1s34.1-15.3,34.1-34.1
			C341.3,305.4,326.1,290.1,307.2,290.1z M307.2,341.3c-9.4,0-17.1-7.6-17.1-17.1c0-9.4,7.6-17.1,17.1-17.1s17.1,7.6,17.1,17.1
			C324.3,333.7,316.6,341.3,307.2,341.3z"/>
	</g>
</g>
<g>
	<g>
		<path class="st0" d="M307.2,409.6c-18.9,0-34.1,15.3-34.1,34.1c0,18.9,15.3,34.1,34.1,34.1s34.1-15.3,34.1-34.1
			C341.3,424.9,326.1,409.6,307.2,409.6z M307.2,460.8c-9.4,0-17.1-7.6-17.1-17.1c0-9.4,7.6-17.1,17.1-17.1s17.1,7.6,17.1,17.1
			C324.3,453.2,316.6,460.8,307.2,460.8z"/>
	</g>
</g>
</svg>
