<?xml version="1.0" encoding="utf-8"?>
<!-- Generator: Adobe Illustrator 23.0.2, SVG Export Plug-In . SVG Version: 6.00 Build 0)  -->
<svg version="1.1" id="Layer_1" xmlns="http://www.w3.org/2000/svg" xmlns:xlink="http://www.w3.org/1999/xlink" x="0px" y="0px"
	 viewBox="0 0 512 512" style="enable-background:new 0 0 512 512;" xml:space="preserve">
<style type="text/css">
	.st0{fill:#FFFFFF;}
</style>
<g>
	<g>
		<path class="st0" d="M414.3,0H97.7C73.6,0,53.9,19.7,53.9,43.8v424.3c0,24.2,19.7,43.8,43.8,43.8h316.5
			c24.2,0,43.8-19.7,43.8-43.8V43.8C458.1,19.7,438.4,0,414.3,0z M440.3,468.2c0,14.4-11.7,26-26,26H97.7c-14.4,0-26-11.7-26-26
			V43.8c0-14.4,11.7-26,26-26h316.5c14.4,0,26.1,11.7,26.1,26.1L440.3,468.2L440.3,468.2z"/>
	</g>
</g>
<g>
	<g>
		<path class="st0" d="M404.3,82h-48.7V50.9c0-4.9-4-8.9-8.9-8.9H165.3c-4.9,0-8.9,4-8.9,8.9V82h-48.7c-4.9,0-8.9,4-8.9,8.9v344.8
			c0,4.9,4,8.9,8.9,8.9h296.6c4.9,0,8.9-4,8.9-8.9V90.9C413.2,86,409.2,82,404.3,82z M174.2,59.8L174.2,59.8h163.6v31.1
			c0,14.4-11.7,26.2-26.2,26.2H200.4c-14.4,0-26.2-11.7-26.2-26.2V59.8L174.2,59.8z M116.6,426.8v-327h40.7
			c4.1,20,21.9,35.1,43.1,35.1h111.2c21.2,0,38.9-15.1,43-35.1h40.7v327H116.6L116.6,426.8z"/>
	</g>
</g>
<g>
	<g>
		<path class="st0" d="M200.3,142.3h-51c-4.9,0-8.9,4-8.9,8.9v51c0,4.9,4,8.9,8.9,8.9h51c4.9,0,8.9-4,8.9-8.9v-51
			C209.2,146.2,205.2,142.3,200.3,142.3z M191.4,193.2h-33.2V160h33.2V193.2z"/>
	</g>
</g>
<g>
	<g>
		<path class="st0" d="M356.8,193.2h-121c-4.9,0-8.9,4-8.9,8.9s4,8.9,8.9,8.9h120.9c4.9,0,8.9-4,8.9-8.9S361.7,193.2,356.8,193.2z"
			/>
	</g>
</g>
<g>
	<g>
		<path class="st0" d="M200.3,230h-51c-4.9,0-8.9,4-8.9,8.9v51c0,4.9,4,8.9,8.9,8.9h51c4.9,0,8.9-4,8.9-8.9v-51
			C209.2,234,205.2,230,200.3,230z M191.4,281h-33.2v-33.2h33.2V281z"/>
	</g>
</g>
<g>
	<g>
		<path class="st0" d="M356.8,281h-121c-4.9,0-8.9,4-8.9,8.9s4,8.9,8.9,8.9h120.9c4.9,0,8.9-4,8.9-8.9S361.7,281,356.8,281z"/>
	</g>
</g>
<g>
	<g>
		<path class="st0" d="M200.3,317.7h-51c-4.9,0-8.9,4-8.9,8.9v51c0,4.9,4,8.9,8.9,8.9h51c4.9,0,8.9-4,8.9-8.9v-51
			C209.2,321.7,205.2,317.7,200.3,317.7z M191.4,368.7h-33.2v-33.2h33.2V368.7z"/>
	</g>
</g>
<g>
	<g>
		<path class="st0" d="M356.8,368.7h-121c-4.9,0-8.9,4-8.9,8.9s4,8.9,8.9,8.9h120.9c4.9,0,8.9-4,8.9-8.9S361.7,368.7,356.8,368.7z"
			/>
	</g>
</g>
</svg>
