<?xml version="1.0" encoding="utf-8"?>
<!-- Generator: Adobe Illustrator 23.0.2, SVG Export Plug-In . SVG Version: 6.00 Build 0)  -->
<svg version="1.1" id="Capa_1" xmlns="http://www.w3.org/2000/svg" xmlns:xlink="http://www.w3.org/1999/xlink" x="0px" y="0px"
	 viewBox="0 0 512 512" style="enable-background:new 0 0 512 512;" xml:space="preserve">
<style type="text/css">
	.st0{fill:#D12027;}
</style>
<g>
	<g id="_x36__30_">
		<g>
			<path class="st0" d="M277.5,355.9c-6.3,6.3-6.3,16.4,0,22.6c6.3,6.3,16.4,6.3,22.6,0l110.4-110.4c3.3-3.3,4.8-7.8,4.5-12.1
				c0.2-4.4-1.2-8.8-4.5-12.1L300.1,133.5c-6.2-6.3-16.4-6.3-22.6,0c-6.3,6.3-6.3,16.4,0,22.6l83.9,83.9H16c-8.8,0-16,7.2-16,16
				s7.2,16,16,16h345.4L277.5,355.9z M448,32H128c-35.3,0-64,28.7-64,64v64h32V96c0-17.7,14.3-32,32-32h320c17.7,0,32,14.3,32,32
				v320c0,17.7-14.3,32-32,32H128c-17.7,0-32-14.3-32-32v-64H64v64c0,35.3,28.7,64,64,64h320c35.3,0,64-28.7,64-64V96
				C512,60.7,483.3,32,448,32z"/>
		</g>
	</g>
</g>
</svg>
