<?xml version="1.0" encoding="utf-8"?>
<!-- Generator: Adobe Illustrator 23.0.2, SVG Export Plug-In . SVG Version: 6.00 Build 0)  -->
<svg version="1.1" id="Capa_1" xmlns="http://www.w3.org/2000/svg" xmlns:xlink="http://www.w3.org/1999/xlink" x="0px" y="0px"
	 viewBox="0 0 512 512" style="enable-background:new 0 0 512 512;" xml:space="preserve">
<style type="text/css">
	.st0{fill:#FFFFFF;}
</style>
<g>
	<g>
		<path class="st0" d="M291.4,91.7H28.1c-15.4,0-27.9,12.5-27.9,27.9v364.6c0,15.4,12.5,27.9,27.9,27.9h263.3
			c15.4,0,27.9-12.5,27.9-27.9V119.6C319.3,104.2,306.8,91.7,291.4,91.7z M228.1,147.4h45.6v319H45.9v-319h45.6v20.3h136.7
			L228.1,147.4L228.1,147.4z M106.6,106.9H213v45.6H106.6V106.9z M304.1,484.1c0,7-5.7,12.7-12.7,12.7H28.1c-7,0-12.7-5.7-12.7-12.7
			V119.6c0-7,5.7-12.7,12.7-12.7h63.3v25.3H30.7v349.4H289V132.2h-60.8v-25.3h63.3c7,0,12.7,5.7,12.7,12.7L304.1,484.1L304.1,484.1z
			"/>
	</g>
</g>
<g>
	<g>
		<rect x="60.5" y="223.4" class="st0" width="117.5" height="15.2"/>
	</g>
</g>
<g>
	<g>
		<rect x="139.5" y="253.7" class="st0" width="15.2" height="15.2"/>
	</g>
</g>
<g>
	<g>
		<rect x="109.1" y="253.7" class="st0" width="15.2" height="15.2"/>
	</g>
</g>
<g>
	<g>
		<rect x="60.5" y="253.7" class="st0" width="33.4" height="15.2"/>
	</g>
</g>
<g>
	<g>
		<rect x="182.6" y="122.1" class="st0" width="15.2" height="15.2"/>
	</g>
</g>
<g>
	<g>
		<rect x="152.2" y="122.1" class="st0" width="15.2" height="15.2"/>
	</g>
</g>
<g>
	<g>
		<rect x="121.8" y="122.1" class="st0" width="15.2" height="15.2"/>
	</g>
</g>
<g>
	<g>
		<rect x="112.7" y="182.9" class="st0" width="48.6" height="15.2"/>
	</g>
</g>
<g>
	<g>
		<rect x="176.5" y="182.9" class="st0" width="30.4" height="15.2"/>
	</g>
</g>
<g>
	<g>
		<polygon class="st0" points="247.6,216.5 217.5,246.5 204.7,233.7 193.9,244.4 217.5,268 258.3,227.2 		"/>
	</g>
</g>
<g>
	<g>
		<rect x="60.5" y="294.3" class="st0" width="117.5" height="15.2"/>
	</g>
</g>
<g>
	<g>
		<rect x="139.5" y="324.6" class="st0" width="15.2" height="15.2"/>
	</g>
</g>
<g>
	<g>
		<rect x="109.1" y="324.6" class="st0" width="15.2" height="15.2"/>
	</g>
</g>
<g>
	<g>
		<rect x="60.5" y="324.6" class="st0" width="33.4" height="15.2"/>
	</g>
</g>
<g>
	<g>
		<polygon class="st0" points="247.6,287.4 217.5,317.4 204.7,304.6 193.9,315.3 217.5,338.9 258.3,298.1 		"/>
	</g>
</g>
<g>
	<g>
		<rect x="60.5" y="365.2" class="st0" width="117.5" height="15.2"/>
	</g>
</g>
<g>
	<g>
		<rect x="139.5" y="395.5" class="st0" width="15.2" height="15.2"/>
	</g>
</g>
<g>
	<g>
		<rect x="60.5" y="395.5" class="st0" width="33.4" height="15.2"/>
	</g>
</g>
<g>
	<g>
		<rect x="109.1" y="395.5" class="st0" width="15.2" height="15.2"/>
	</g>
</g>
<g>
	<g>
		<path class="st0" d="M198.8,365.1v45.6h45.6v-45.6H198.8z M229.2,395.5H214v-15.2h15.2V395.5L229.2,395.5z"/>
	</g>
</g>
<g>
	<g>
		
			<rect x="307.5" y="57.8" transform="matrix(0.9971 -7.590234e-02 7.590234e-02 0.9971 -4.033 24.6817)" class="st0" width="30.4" height="15.2"/>
	</g>
</g>
<g>
	<g>
		
			<rect x="243.9" y="62" transform="matrix(0.9971 -7.590234e-02 7.590234e-02 0.9971 -4.5088 20.5575)" class="st0" width="48.6" height="15.2"/>
	</g>
</g>
<g>
	<g>
		<polygon class="st0" points="380.4,87.2 352.7,119.4 338.9,107.6 329,119.1 354.3,140.8 391.9,97 		"/>
	</g>
</g>
<g>
	<g>
		<polygon class="st0" points="385.8,157.8 358.1,190.1 344.3,178.3 334.4,189.8 359.7,211.5 397.3,167.7 		"/>
	</g>
</g>
<g>
	<g>
		<path class="st0" d="M388.5,235.6l-45.4,3.5l3.5,45.4L392,281L388.5,235.6z M360.5,268.2l-1.2-15.1l15.1-1.2l1.2,15.1L360.5,268.2
			z"/>
	</g>
</g>
<g>
	<g>
		<polygon class="st0" points="438.8,68.4 438.8,83.6 496.5,83.6 496.5,402.6 337,402.6 337,417.8 511.7,417.8 511.7,68.4 		"/>
	</g>
</g>
<g>
	<g>
		<polygon class="st0" points="415.2,0 157.7,19.6 161.9,74.6 177,73.4 174,33.6 401.2,16.3 425.4,334.4 336.4,341.2 337.6,356.3 
			441.7,348.4 		"/>
	</g>
</g>
<g>
	<g>
		<g>
			<rect x="111.2" y="436" class="st0" width="15.2" height="15.2"/>
			<rect x="141.6" y="436" class="st0" width="40.5" height="15.2"/>
		</g>
	</g>
</g>
<g>
	<g>
		<g>
			<rect x="466.1" y="177.3" class="st0" width="15.2" height="50.6"/>
			<rect x="466.1" y="243.1" class="st0" width="15.2" height="15.2"/>
		</g>
	</g>
</g>
<g>
	<g>
		<polygon class="st0" points="448.4,98.8 448.4,114 466.1,114 466.1,131.7 481.3,131.7 481.3,98.8 		"/>
	</g>
</g>
<g>
	<g>
		<g>
			<rect x="417" y="372.2" class="st0" width="15.2" height="15.2"/>
			<polygon class="st0" points="466.1,354.5 466.1,372.2 447.4,372.2 447.4,387.4 481.3,387.4 481.3,354.5 			"/>
		</g>
	</g>
</g>
<g>
	<g>
		<polygon class="st0" points="224.3,60.2 223.1,45.1 190.3,47.6 192.8,80.4 208,79.3 206.6,61.6 		"/>
	</g>
</g>
<g>
	<g>
		<polygon class="st0" points="406.6,287.6 391.5,288.7 392.8,306.4 375.2,307.8 376.3,322.9 409.1,320.4 		"/>
	</g>
</g>
<g>
	<g>
		<polygon class="st0" points="242.3,418.3 242.3,436 224.6,436 224.6,451.2 257.5,451.2 257.5,418.3 		"/>
	</g>
</g>
<g>
	<g>
		<rect x="61" y="170.2" class="st0" width="15.2" height="24.3"/>
	</g>
</g>
</svg>
