<?xml version="1.0" encoding="utf-8"?>
<!-- Generator: Adobe Illustrator 23.0.2, SVG Export Plug-In . SVG Version: 6.00 Build 0)  -->
<svg version="1.1" id="Layer_1" xmlns="http://www.w3.org/2000/svg" xmlns:xlink="http://www.w3.org/1999/xlink" x="0px" y="0px"
	 viewBox="0 0 511 511" style="enable-background:new 0 0 511 511;" xml:space="preserve">
<style type="text/css">
	.st0{fill:#D12027;}
</style>
<path class="st0" d="M501.5,205.4h-17v-25.6c0-2.6-1.2-5.1-3.3-6.7L259.7,2.8c-3.1-2.4-7.3-2.4-10.4,0L27.9,173.1
	c-2.1,1.6-3.3,4.1-3.3,6.7v25.6h-17c-4.7,0-8.5,3.8-8.5,8.5V248c0,4.7,3.8,8.5,8.5,8.5h17V282c0,4.7,3.8,8.5,8.5,8.5v136.3
	c-4.7,0-8.5,3.8-8.5,8.5v25.6H16c-4.7,0-8.5,3.8-8.5,8.5v34.1c0,4.7,3.8,8.5,8.5,8.5H493c4.7,0,8.5-3.8,8.5-8.5v-34.1
	c0-4.7-3.8-8.5-8.5-8.5h-8.5v-25.6c0-4.7-3.8-8.5-8.5-8.5V290.6c4.7,0,8.5-3.8,8.5-8.5v-25.6h17c4.7,0,8.5-3.8,8.5-8.5v-34.1
	C510,209.2,506.2,205.4,501.5,205.4z M41.6,184L254.5,20.3L467.4,184v21.4H41.6V184z M484.5,477.9v17H24.6v-17H484.5z M41.6,273.5
	v-17h51.1v17H41.6z M84.2,290.6v136.3H50.1V290.6H84.2z M92.7,443.9v17H41.6v-17H92.7z M143.8,290.6v136.3c-4.7,0-8.5,3.8-8.5,8.5
	v25.6h-25.6v-25.6c0-4.7-3.8-8.5-8.5-8.5V290.6c4.7,0,8.5-3.8,8.5-8.5v-25.6h25.6V282C135.3,286.7,139.1,290.6,143.8,290.6z
	 M152.3,273.5v-17h51.1v17H152.3z M194.9,290.6v136.3h-34.1V290.6H194.9z M203.4,443.9v17h-51.1v-17H203.4z M297.1,290.6v136.3
	c-4.7,0-8.5,3.8-8.5,8.5v25.6h-68.1v-25.6c0-4.7-3.8-8.5-8.5-8.5V290.6c4.7,0,8.5-3.8,8.5-8.5v-25.6h68.1V282
	C288.6,286.7,292.4,290.6,297.1,290.6z M305.6,273.5v-17h51.1v17H305.6z M348.2,290.6v136.3h-34.1V290.6H348.2z M356.7,443.9v17
	h-51.1v-17H356.7z M407.8,290.6v136.3c-4.7,0-8.5,3.8-8.5,8.5v25.6h-25.6v-25.6c0-4.7-3.8-8.5-8.5-8.5V290.6c4.7,0,8.5-3.8,8.5-8.5
	v-25.6h25.6V282C399.3,286.7,403.1,290.6,407.8,290.6z M416.3,273.5v-17h51.1v17H416.3z M458.9,290.6v136.3h-34.1V290.6H458.9z
	 M467.4,443.9v17h-51.1v-17H467.4z M493,239.5H16v-17H493V239.5z"/>
<path class="st0" d="M246,77.6h17v17h-17V77.6z"/>
<path class="st0" d="M246,162.8h17v17h-17V162.8z"/>
<path class="st0" d="M212.3,98.6l12-12l12,12l-12,12L212.3,98.6z"/>
<path class="st0" d="M272.6,158.9l12-12l12,12l-12,12L272.6,158.9z"/>
<path class="st0" d="M203.4,120.2h17v17h-17V120.2z"/>
<path class="st0" d="M288.6,120.2h17v17h-17V120.2z"/>
<path class="st0" d="M212.3,158.9l12-12l12,12l-12,12L212.3,158.9z"/>
<path class="st0" d="M272.6,98.6l12-12l12,12l-12,12L272.6,98.6z"/>
</svg>
