<?xml version="1.0" encoding="utf-8"?>
<!-- Generator: Adobe Illustrator 23.0.2, SVG Export Plug-In . SVG Version: 6.00 Build 0)  -->
<svg version="1.1" id="Capa_1" xmlns="http://www.w3.org/2000/svg" xmlns:xlink="http://www.w3.org/1999/xlink" x="0px" y="0px"
	 viewBox="0 0 512 512" style="enable-background:new 0 0 512 512;" xml:space="preserve">
<style type="text/css">
	.st0{fill:#FFFFFF;}
</style>
<g>
	<g>
		<path class="st0" d="M131.8,109.3c-9.6-9.9-22.8-15.5-36.6-15.5h-2.6c-13.8,0-27,5.6-36.6,15.5c-9,9.3-13.8,21.9-13.2,34.8l1,23
			c1.5,26.3,23.5,46.7,49.8,46.2h0.6c26.3,0.5,48.3-19.9,49.8-46.2l1-23C145.6,131.2,140.8,118.6,131.8,109.3z M127,166.4
			c-1.2,17.1-15.6,30.3-32.8,29.9h-0.6c-17.2,0.4-31.6-12.7-32.8-29.9l-0.3-7c16.3-0.7,31.9-6.6,44.6-16.7
			c5.2,7.8,13.2,13.3,22.3,15.6L127,166.4z M116.3,126.1c-0.5-3.6-3.2-6.6-6.8-7.3c-3.6-0.7-7.2,0.9-9.1,4.1
			c-0.1,0.2-10.7,16.9-40.6,19.5c-0.1-7.9,3-15.5,8.5-21.2c6.4-6.6,15.1-10.3,24.3-10.2h2.6c9.1,0,17.9,3.7,24.3,10.2
			c5,5.2,7.9,12,8.3,19.2C121.9,137.7,117.6,132.4,116.3,126.1z"/>
	</g>
</g>
<g>
	<g>
		<path class="st0" d="M464.6,314.1c-9.6-9.9-22.8-15.5-36.6-15.5h-2.6c-13.8,0-27,5.6-36.6,15.5c-9,9.3-13.8,21.9-13.2,34.8l1,23
			c1.5,26.3,23.5,46.7,49.8,46.2h0.6c26.3,0.5,48.3-19.9,49.8-46.2l1-23C478.4,336,473.6,323.4,464.6,314.1z M460.8,348.2l-1,23
			c-1.2,17.1-15.6,30.3-32.8,29.9h-0.6c-17.2,0.4-31.6-12.7-32.8-29.9l-1-23c-0.3-8.3,2.8-16.3,8.5-22.2
			c6.4-6.6,15.1-10.3,24.3-10.2h2.6c9.1,0,17.9,3.7,24.3,10.2C458.1,331.9,461.1,340,460.8,348.2z"/>
	</g>
</g>
<g>
	<g>
		<path class="st0" d="M263.6,124.1c-9.2-8.9-23.7-8.9-32.8,0l-95.3,95.3c-1.6,1.6-3.8,2.5-6,2.5H42.7C19.1,221.9,0,241,0,264.5V384
			c0,14.1,11.5,25.6,25.6,25.6c2.9,0,5.8-0.5,8.5-1.5v10c0,4.7,3.8,8.5,8.5,8.5H145c4.7,0,8.5-3.8,8.5-8.5V279.8
			c0-2.2,0.8-4.2,2.3-5.8l108.3-116.5C273.2,148.1,273,133.2,263.6,124.1z M252,145.6C251.9,145.6,251.9,145.6,252,145.6
			L143.4,262.3c-4.4,4.7-6.8,11-6.8,17.4v129.8H51.2v-128c0-4.7-3.8-8.5-8.5-8.5s-8.5,3.8-8.5,8.5V384c0,4.7-3.8,8.5-8.5,8.5
			s-8.5-3.8-8.5-8.5V264.5c0-14.1,11.5-25.6,25.6-25.6h86.8c6.8,0,13.3-2.7,18.1-7.5l95.3-95.3c2.6-2.5,6.7-2.5,9.3,0
			C254.7,138.8,254.6,143,252,145.6z"/>
	</g>
</g>
<g>
	<g>
		<path class="st0" d="M93.9,247.5c-4.7,0-8.5,3.8-8.5,8.5v102.4c0,4.7,3.8,8.5,8.5,8.5s8.5-3.8,8.5-8.5V256
			C102.4,251.3,98.6,247.5,93.9,247.5z"/>
	</g>
</g>
<g>
	<g>
		<path class="st0" d="M276.8,314.1c-9.6-9.9-22.8-15.5-36.6-15.5h-2.6c-13.8,0-27,5.6-36.6,15.5c-9,9.3-13.8,21.9-13.2,34.8l1,23
			c1.5,26.3,23.5,46.7,49.8,46.2h0.6c26.3,0.5,48.3-19.9,49.8-46.2l1-23C290.7,336,285.9,323.4,276.8,314.1z M273.1,348.2l-1,23
			c-1.2,17.1-15.6,30.3-32.8,29.9h-0.6c-17.2,0.4-31.6-12.7-32.8-29.9l-1-23c-0.3-8.3,2.8-16.3,8.5-22.2
			c6.4-6.6,15.1-10.3,24.3-10.2h2.6c9.1,0,17.9,3.7,24.3,10.2C270.3,331.9,273.4,340,273.1,348.2z"/>
	</g>
</g>
<g>
	<g>
		<path class="st0" d="M283,426.7h-88.2c-22.8,0-41.2,18.5-41.2,41.2v35.6c0,4.7,3.8,8.5,8.5,8.5s8.5-3.8,8.5-8.5v-35.6
			c0-13.3,10.8-24.2,24.2-24.2H283c13.3,0,24.2,10.8,24.2,24.2v35.6c0,4.7,3.8,8.5,8.5,8.5s8.5-3.8,8.5-8.5v-35.6
			C324.2,445.1,305.8,426.7,283,426.7z"/>
	</g>
</g>
<g>
	<g>
		<path class="st0" d="M470.8,426.7h-88.2c-22.8,0-41.2,18.5-41.2,41.2v35.6c0,4.7,3.8,8.5,8.5,8.5s8.5-3.8,8.5-8.5v-35.6
			c0-13.3,10.8-24.2,24.2-24.2h88.2c13.3,0,24.2,10.8,24.2,24.2v35.6c0,4.7,3.8,8.5,8.5,8.5s8.5-3.8,8.5-8.5v-35.6
			C512,445.1,493.5,426.7,470.8,426.7z"/>
	</g>
</g>
<g>
	<g>
		<path class="st0" d="M486.8,0H187.3c-14,0.1-25.3,11.6-25.2,25.6v128c0,4.7,3.8,8.5,8.5,8.5s8.5-3.8,8.5-8.5V51.2h315.7V256
			c0.1,4.6-3.5,8.4-8.1,8.5H195.6c-4.7,0-8.5,3.8-8.5,8.5s3.8,8.5,8.5,8.5h291.2c14-0.1,25.3-11.6,25.2-25.6V25.6
			C512.1,11.6,500.8,0.1,486.8,0z M494.9,34.1H179.2v-8.5c-0.1-4.6,3.5-8.4,8.1-8.5h299.5c4.6,0.1,8.2,3.9,8.1,8.5V34.1z"/>
	</g>
</g>
<g>
	<g>
		<path class="st0" d="M469.3,108.8c-4.7,0-8.5,3.8-8.5,8.5v121.6c0,4.7,3.8,8.5,8.5,8.5s8.5-3.8,8.5-8.5V117.3
			C477.9,112.6,474,108.8,469.3,108.8z"/>
	</g>
</g>
<g>
	<g>
		<path class="st0" d="M435.2,162.1c-4.7,0-8.5,3.8-8.5,8.5v68.3c0,4.7,3.8,8.5,8.5,8.5s8.5-3.8,8.5-8.5v-68.3
			C443.7,166,439.9,162.1,435.2,162.1z"/>
	</g>
</g>
<g>
	<g>
		<path class="st0" d="M401.1,145.1c-4.7,0-8.5,3.8-8.5,8.5v85.3c0,4.7,3.8,8.5,8.5,8.5s8.5-3.8,8.5-8.5v-85.3
			C409.6,148.9,405.8,145.1,401.1,145.1z"/>
	</g>
</g>
<g>
	<g>
		<path class="st0" d="M366.9,196.3c-4.7,0-8.5,3.8-8.5,8.5v34.1c0,4.7,3.8,8.5,8.5,8.5s8.5-3.8,8.5-8.5v-34.1
			C375.5,200.1,371.6,196.3,366.9,196.3z"/>
	</g>
</g>
<g>
	<g>
		<path class="st0" d="M474.1,69.7c-3.9-2.6-9.2-1.6-11.8,2.4l-29.1,43.7l-26.9-20.2c-3.8-2.8-9.1-2.1-12,1.6
			c-0.3,0.4-0.6,0.9-0.8,1.4l-33.2,66.5l-32.5,24.4c-3.8,2.8-4.5,8.2-1.7,11.9c2.8,3.8,8.2,4.5,11.9,1.7l34.1-25.6
			c1.1-0.8,2-1.8,2.6-3l29.6-59.1l25.9,19.5c3.8,2.8,9.1,2.1,11.9-1.7c0.1-0.1,0.2-0.3,0.3-0.4l34.1-51.2
			C479,77.6,478,72.3,474.1,69.7z"/>
	</g>
</g>
<g>
	<g>
		<path class="st0" d="M307.2,68.3H204.8c-4.7,0-8.5,3.8-8.5,8.5s3.8,8.5,8.5,8.5h102.4c4.7,0,8.5-3.8,8.5-8.5
			S311.9,68.3,307.2,68.3z"/>
	</g>
</g>
<g>
	<g>
		<path class="st0" d="M358.4,68.3h-17.1c-4.7,0-8.5,3.8-8.5,8.5s3.8,8.5,8.5,8.5h17.1c4.7,0,8.5-3.8,8.5-8.5S363.1,68.3,358.4,68.3
			z"/>
	</g>
</g>
</svg>
