<?xml version="1.0" encoding="utf-8"?>
<!-- Generator: Adobe Illustrator 23.0.2, SVG Export Plug-In . SVG Version: 6.00 Build 0)  -->
<svg version="1.1" id="Capa_1" xmlns="http://www.w3.org/2000/svg" xmlns:xlink="http://www.w3.org/1999/xlink" x="0px" y="0px"
	 viewBox="0 0 512 512" style="enable-background:new 0 0 512 512;" xml:space="preserve">
<style type="text/css">
	.st0{fill:#FFFFFF;}
</style>
<g>
	<g>
		<g id="XMLID_1_">
			<g>
				<path class="st0" d="M501.2,138v52c-9.3-5.9-20.3-9.3-32.1-9.3H467v-23.8h-67.5c-7,0-12.7-5.7-12.7-12.7V74.7H34.2v317h379.6
					c3.3,2.4,6.9,4.5,10.7,6.2c0.4,0.6,0.8,1.1,1.2,1.6v26.6H30.8c-17,0-30.8-13.8-30.8-30.8V71.4c0-17,13.8-30.8,30.8-30.9h372.9
					c2.8,0,5.4,1.1,7.3,3l87.2,87.2C500.1,132.7,501.2,135.3,501.2,138z"/>
			</g>
			<g>
			</g>
		</g>
		<g id="XMLID_5_">
			<g>
				<path class="st0" d="M262.2,200.5c6.9,0,12.5,5.6,12.5,12.5s-5.6,12.5-12.6,12.5H84c-6.9,0-12.5-5.6-12.5-12.5
					s5.6-12.5,12.5-12.5H262.2z"/>
			</g>
			<g>
			</g>
		</g>
		<path class="st0" d="M84,288.2h97.8c6.9,0,12.5-5.6,12.5-12.5s-5.6-12.5-12.5-12.5H84c-6.9,0-12.5,5.6-12.5,12.5
			S77.1,288.2,84,288.2z"/>
		<path class="st0" d="M84,350.9h162.5c6.9,0,12.5-5.6,12.5-12.5s-5.6-12.5-12.5-12.5H84c-6.9,0-12.5,5.6-12.5,12.5
			S77.1,350.9,84,350.9z"/>
		<g id="XMLID_4_">
			<g>
				<path class="st0" d="M512,471.4H407.9c0-15.2,12.3-27.5,27.5-27.5h10v-53.4c-3.2-1.9-5.6-5-6.6-8.6
					c-17.6-4.8-30.5-20.9-30.5-40.1v-23.5h26.4v-25h-26.4v-25.8h26.4V245h-26.4v-4.7c0-23,18.6-41.6,41.6-41.6H470
					c23,0,41.6,18.6,41.6,41.6v4.7h-26.4v22.5h26.4v25.8h-26.4v25h26.4v23.5c0,19.1-12.9,35.2-30.5,40.1c-1,3.7-3.4,6.7-6.6,8.6
					v53.4h10C499.7,443.9,512,456.2,512,471.4z"/>
			</g>
			<g>
			</g>
		</g>
		<path class="st0" d="M79.9,165c3.8,0,6.9-3.1,6.9-6.9V147h9.4c16.6,0,26.9-9.3,26.9-24.3c0-14.8-10.3-23.9-26.9-23.9H78.4
			c-3.8,0-6.9,3.1-6.9,6.9v52.4c0,3.8,3.1,6.9,6.9,6.9H79.9L79.9,165z M86.8,114.1h9.4c11.6,0,11.6,6.3,11.6,8.6c0,2.5,0,9-11.6,9
			h-9.4V114.1z"/>
		<path class="st0" d="M154.6,131.8h-9.4v-17.6h9.4c11.6,0,11.6,6.3,11.6,8.6C166.2,125.2,166.2,131.8,154.6,131.8z"/>
		<g id="XMLID_3_">
			<g>
				<path class="st0" d="M179.9,153.6c1.1,1.3,1.7,2.8,1.7,4.5c0,1.8-0.8,3.5-2,4.8c-1.2,1.3-2.9,2.1-4.7,2.1h-2.1
					c-2.2,0-4.3-1-5.6-2.8L156.1,147c-0.5,0-1,0-1.5,0h-9.4v11.1c0,3.8-3.1,6.9-6.9,6.9h-1.5c-3.8,0-6.9-3.1-6.9-6.9v-52.4
					c0-3.8,3.1-6.9,6.9-6.9h17.8c16.6,0,26.9,9.1,26.9,23.9c0,8.7-3.4,15.5-9.8,19.7L179.9,153.6z"/>
			</g>
			<g>
			</g>
		</g>
		<g id="XMLID_2_">
			<g>
				<path class="st0" d="M235.4,156.6v1.5c0,3.8-3.1,6.9-6.9,6.9h-33.8c-3.8,0-6.9-3.1-6.9-6.9v-52.4c0-3.8,3.1-6.9,6.9-6.9h32.8
					c3.8,0,6.9,3.1,6.9,6.9v1.5c0,3.8-3.1,6.9-6.9,6.9l-24.4-0.1v9.4H224c3.8,0,6.9,3.1,6.9,6.9v1.5c0,3.8-3.1,6.9-6.9,6.9h-20.9v11
					h25.4C232.3,149.7,235.4,152.8,235.4,156.6z"/>
			</g>
			<g>
			</g>
		</g>
		<path class="st0" d="M289.1,145.5c0.1-15.2-13.2-19.2-21.2-21.6c-9.3-2.8-10.2-4-10.2-6.5c0-2,4.2-3.2,8.3-3.2
			c3.4,0,7.2,1,9.5,2.4c1.5,1,3.5,1.3,5.2,0.9c1.8-0.4,3.4-1.5,4.3-3.1l0.8-1.2c2-3.2,1-7.4-2.1-9.5c-4.7-3-11.5-4.9-17.7-4.9
			c-14.1,0-23.6,7.4-23.6,18.5c0,14.8,13.1,18.7,20.9,21.1c9.6,2.9,10.4,4.1,10.4,6.9c0,3.4-6.1,4.4-9.4,4.4c-4.3,0-9.2-2-11.9-4.7
			c-1.3-1.3-3.1-2.1-5-2.2c-1.9,0-3.6,0.7-4.9,2l-1.1,1.1c-2.7,2.7-2.7,7,0,9.7c5.7,5.8,14.5,9.4,22.8,9.4
			C279,165,289.1,157,289.1,145.5z"/>
		<path class="st0" d="M319,149.8c-4.3,0-9.2-2-11.9-4.7c-1.3-1.3-3.1-2.1-5-2.2c-1.9,0-3.6,0.7-4.9,2l-1.1,1.1
			c-2.7,2.7-2.7,7,0,9.7c5.7,5.8,14.5,9.4,22.8,9.4c14.5,0,24.7-8.1,24.7-19.6c0.1-15.2-13.2-19.2-21.2-21.6
			c-9.3-2.8-10.2-4-10.2-6.5c0-2,4.2-3.2,8.3-3.2c3.4,0,7.2,1,9.5,2.4c1.5,1,3.5,1.3,5.2,0.9c1.8-0.4,3.4-1.5,4.3-3.1l0.8-1.2
			c2-3.2,1-7.4-2.1-9.5c-4.7-3-11.5-4.9-17.7-4.9c-14.1,0-23.6,7.4-23.6,18.5c0,14.8,13.1,18.7,21,21.1c9.6,2.9,10.4,4.1,10.4,6.9
			C328.3,148.8,322.2,149.8,319,149.8z"/>
	</g>
</g>
</svg>
