<?xml version="1.0" encoding="utf-8"?>
<!-- Generator: Adobe Illustrator 23.0.2, SVG Export Plug-In . SVG Version: 6.00 Build 0)  -->
<svg version="1.1" id="Layer_1" xmlns="http://www.w3.org/2000/svg" xmlns:xlink="http://www.w3.org/1999/xlink" x="0px" y="0px"
	 viewBox="0 0 496 496" style="enable-background:new 0 0 496 496;" xml:space="preserve">
<style type="text/css">
	.st0{fill:#D12027;}
</style>
<path class="st0" d="M456,88h-40V8c0-4.4-3.6-8-8-8H88c-4.4,0-8,3.6-8,8v80H40c-22.1,0-40,17.9-40,40v248c0,22.1,17.9,40,40,40h160
	v16h-24c-30.9,0-56,25.1-56,56c0,4.4,3.6,8,8,8h240c4.4,0,8-3.6,8-8c0-30.9-25.1-56-56-56h-24v-16h160c22.1,0,40-17.9,40-40V128
	C496,105.9,478.1,88,456,88z M272,280c0-48.5,39.5-88,88-88s88,39.5,88,88s-39.5,88-88,88S272,328.5,272,280z M96,16h304v168
	c-12.3-5.2-25.8-8-40-8c-25.2,0-48.3,9-66.4,24H272v16h6.2c-13.9,17.7-22.2,39.9-22.2,64c0,27.9,11.1,53.3,29.1,72H96V16z
	 M359.2,480H136.8c3.7-18.2,19.9-32,39.2-32h144C339.3,448,355.5,461.8,359.2,480z M280,432h-64v-16h64V432z M480,376
	c0,13.2-10.8,24-24,24H40c-13.2,0-24-10.8-24-24V128c0-13.2,10.8-24,24-24h40v256c0,4.4,3.6,8,8,8h216.8c16,10.1,34.9,16,55.2,16
	c57.3,0,104-46.7,104-104c0-36.7-19.2-69-48-87.5V104h40c13.2,0,24,10.8,24,24V376z"/>
<path class="st0" d="M360,336v16h16v-17.1c13.8-3.6,24-16,24-30.9c0-9.6-4.3-18.1-11.1-24c6.7-5.9,11.1-14.4,11.1-24
	c0-14.9-10.2-27.3-24-30.9V208h-16v16h-8v-16h-16v16h-8c-4.4,0-8,3.6-8,8v96c0,4.4,3.6,8,8,8h8v16h16v-16H360z M384,304
	c0,8.8-7.2,16-16,16h-32v-32h32C376.8,288,384,295.2,384,304z M336,240h32c8.8,0,16,7.2,16,16s-7.2,16-16,16h-32V240z"/>
<path class="st0" d="M288,272h16v16h-16V272z"/>
<path class="st0" d="M416,272h16v16h-16V272z"/>
<path class="st0" d="M136,80c13.2,0,24-10.8,24-24s-10.8-24-24-24s-24,10.8-24,24S122.8,80,136,80z M136,48c4.4,0,8,3.6,8,8
	s-3.6,8-8,8s-8-3.6-8-8S131.6,48,136,48z"/>
<path class="st0" d="M200,80c13.2,0,24-10.8,24-24s-10.8-24-24-24s-24,10.8-24,24S186.8,80,200,80z M200,48c4.4,0,8,3.6,8,8
	s-3.6,8-8,8s-8-3.6-8-8S195.6,48,200,48z"/>
<path class="st0" d="M264,80c13.2,0,24-10.8,24-24s-10.8-24-24-24s-24,10.8-24,24S250.8,80,264,80z M264,48c4.4,0,8,3.6,8,8
	s-3.6,8-8,8s-8-3.6-8-8S259.6,48,264,48z"/>
<path class="st0" d="M112,104h80v16h-80V104z"/>
<path class="st0" d="M208,104h48v16h-48V104z"/>
<path class="st0" d="M272,104h16v16h-16V104z"/>
<path class="st0" d="M304,104h16v16h-16V104z"/>
<path class="st0" d="M112,136h48v16h-48V136z"/>
<path class="st0" d="M176,136h64v16h-64V136z"/>
<path class="st0" d="M272,136h48v16h-48V136z"/>
<path class="st0" d="M112,168h80v16h-80V168z"/>
<path class="st0" d="M208,168h48v16h-48V168z"/>
<path class="st0" d="M272,168h16v16h-16V168z"/>
<path class="st0" d="M304,168h16v16h-16V168z"/>
<path class="st0" d="M112,200h48v16h-48V200z"/>
<path class="st0" d="M176,200h64v16h-64V200z"/>
<path class="st0" d="M112,232h80v16h-80V232z"/>
<path class="st0" d="M208,232h48v16h-48V232z"/>
<path class="st0" d="M112,264h48v16h-48V264z"/>
<path class="st0" d="M176,264h64v16h-64V264z"/>
</svg>
