<?xml version="1.0" encoding="utf-8"?>
<!-- Generator: Adobe Illustrator 23.0.2, SVG Export Plug-In . SVG Version: 6.00 Build 0)  -->
<svg version="1.1" id="Capa_1" xmlns="http://www.w3.org/2000/svg" xmlns:xlink="http://www.w3.org/1999/xlink" x="0px" y="0px"
	 viewBox="0 0 512 512" style="enable-background:new 0 0 512 512;" xml:space="preserve">
<style type="text/css">
	.st0{fill:#D12027;}
</style>
<g>
	<g>
		<path class="st0" d="M512,384V145.1c0-23.6-19.1-42.6-42.7-42.7h-93.9V0h-17.1v117.9c-4.8-8-10.5-15.5-17.1-22.2V0h-17.1v99.3
			c0,2.3,0.9,4.5,2.6,6.2c20.2,19.2,31.6,45.9,31.5,73.8c0.1,56.6-45.8,102.4-102.3,102.5c-56.6,0.1-102.4-45.8-102.5-102.3
			c0-47.5,32.6-88.8,78.8-99.7c3.8-0.9,6.6-4.3,6.6-8.3V51.2h-17.1v13.6c-22.4,6.6-42.4,19.7-57.4,37.6H42.7
			C19.1,102.4,0,121.5,0,145.1V384c0,23.6,19.1,42.6,42.7,42.7h139.8l-17.1,34.1H8.5c-4.7,0-8.5,3.8-8.5,8.5C0,512,45,512,59.7,512
			h392.5c14.8,0,59.7,0,59.7-42.7c0-4.7-3.8-8.5-8.5-8.5H346.6l-17.1-34.1h139.8C492.9,426.6,512,407.6,512,384z M230,295.8
			c8.5,1.9,17.3,2.8,26,2.8c65.9-0.1,119.4-53.5,119.5-119.5v-25.6h85.3v204.8H51.2V153.6h88.2C125.1,217.9,165.7,281.6,230,295.8z
			 M493.9,477.9c-3,10.5-13.3,17.1-41.6,17.1H59.7c-28.4,0-38.7-6.6-41.6-17.1H493.9z M184.5,460.8l17.1-34.1h108.9l17.1,34.1H184.5
			z M42.7,409.6c-14.1,0-25.6-11.5-25.6-25.6V145.1c0-14.1,11.5-25.6,25.6-25.6h109.9c-3.2,5.5-5.9,11.2-8.1,17.1H42.7
			c-4.7,0-8.5,3.8-8.5,8.5v221.9c0,4.7,3.8,8.5,8.5,8.5h426.7c4.7,0,8.5-3.8,8.5-8.5V145.1c0-4.7-3.8-8.5-8.5-8.5h-93.9v-17.1h93.9
			c14.1,0,25.6,11.5,25.6,25.6V384c0,14.1-11.5,25.6-25.6,25.6H42.7z"/>
	</g>
</g>
<g>
	<g>
		<path class="st0" d="M256,136.5c-23.6,0-42.6,19.1-42.7,42.7c0,23.6,19.1,42.7,42.7,42.7c23.6,0,42.7-19.1,42.7-42.7
			S279.6,136.5,256,136.5z M256,204.8c-14.1,0-25.6-11.5-25.6-25.6s11.5-25.6,25.6-25.6c14.1,0,25.6,11.5,25.6,25.6
			S270.1,204.8,256,204.8z"/>
	</g>
</g>
<g>
	<g>
		<path class="st0" d="M290.1,0v64.7c-5.6-1.6-11.3-2.9-17.1-3.7V42.7H256v26c0,4.5,3.4,8.2,7.9,8.5c10.8,0.8,21.5,3.3,31.5,7.5
			c4.3,1.8,9.3-0.2,11.2-4.6c0.4-1,0.7-2.2,0.7-3.3V0H290.1z"/>
	</g>
</g>
<g>
	<g>
		<rect x="256" class="st0" width="17.1" height="25.6"/>
	</g>
</g>
<g>
	<g>
		<rect x="221.9" y="17.1" class="st0" width="17.1" height="17.1"/>
	</g>
</g>
<g>
	<g>
		<path class="st0" d="M332.8,153.6h-13.5c-0.1-0.3-0.3-0.7-0.4-1l9.6-9.6c3.3-3.3,3.3-8.7,0-12.1l-24.1-24.1
			c-3.4-3.2-8.7-3.2-12.1,0l-9.6,9.6l-1-0.4v-13.5c0-4.7-3.8-8.5-8.5-8.5h-34.1c-4.7,0-8.5,3.8-8.5,8.5v13.5l-1,0.4l-9.6-9.6
			c-3.3-3.3-8.7-3.3-12.1,0l-24.1,24.1c-3.3,3.3-3.3,8.7,0,12.1l9.6,9.6c-0.1,0.3-0.3,0.7-0.4,1h-13.5c-4.7,0-8.5,3.8-8.5,8.5v34.1
			c0,4.7,3.8,8.5,8.5,8.5h13.5c0.1,0.3,0.3,0.7,0.4,1l-9.6,9.6c-3.3,3.3-3.3,8.7,0,12.1l24.1,24.1c3.4,3.2,8.7,3.2,12.1,0l9.6-9.6
			l1,0.4V256c0,4.7,3.8,8.5,8.5,8.5h34.1c4.7,0,8.5-3.8,8.5-8.5v-13.5l1-0.4l9.6,9.6c3.3,3.3,8.7,3.3,12.1,0l24.1-24.1
			c3.3-3.3,3.3-8.7,0-12.1l-9.6-9.6c0.1-0.3,0.3-0.7,0.4-1h13.5c4.7,0,8.5-3.8,8.5-8.5v-34.1C341.3,157.4,337.5,153.6,332.8,153.6z
			 M324.3,187.7h-11c-3.8,0-7.1,2.5-8.2,6.1c-1,3.4-2.3,6.6-4,9.7c-1.8,3.3-1.2,7.4,1.5,10.1l7.8,7.8l-12.1,12l-7.8-7.8
			c-2.7-2.7-6.8-3.3-10.1-1.5c-3.1,1.7-6.3,3-9.7,4c-3.6,1.1-6.1,4.4-6.1,8.2v11h-17.1v-11c0-3.8-2.5-7.1-6.1-8.2
			c-3.4-1-6.6-2.3-9.7-4c-3.3-1.8-7.4-1.2-10.1,1.5l-7.8,7.8l-12.1-12.1l7.8-7.8c2.7-2.7,3.3-6.8,1.5-10.1c-1.7-3.1-3-6.3-4-9.7
			c-1.1-3.6-4.4-6.1-8.2-6.1h-11v-17.1h11c3.8,0,7.1-2.5,8.2-6.1c1-3.4,2.3-6.6,4-9.7c1.8-3.3,1.2-7.4-1.5-10.1l-7.8-7.8l12.1-12.1
			l7.8,7.8c2.7,2.7,6.8,3.3,10.1,1.5c3.1-1.7,6.3-3,9.7-4c3.6-1.1,6.1-4.4,6.1-8.2v-11h17.1v11c0,3.8,2.5,7.1,6.1,8.2
			c3.4,1,6.6,2.3,9.7,4c3.3,1.8,7.4,1.2,10.1-1.5l7.8-7.8l12.1,12.1l-7.8,7.8c-2.7,2.7-3.3,6.8-1.5,10.1c1.7,3.1,3,6.3,4,9.7
			c1.1,3.6,4.4,6.1,8.2,6.1h11V187.7z"/>
	</g>
</g>
<g>
	<g>
		<path class="st0" d="M125.5,245l-12.1-12.1l-42.7,42.7c-3.3,3.3-3.3,8.7,0,12.1l42.7,42.7l12.1-12.1l-36.6-36.6L125.5,245z"/>
	</g>
</g>
<g>
	<g>
		<path class="st0" d="M441.2,275.6l-42.7-42.7L386.5,245l36.6,36.6l-36.6,36.6l12.1,12.1l42.7-42.7
			C444.6,284.3,444.6,278.9,441.2,275.6z"/>
	</g>
</g>
</svg>
