<?xml version="1.0" encoding="utf-8"?>
<!-- Generator: Adobe Illustrator 23.0.2, SVG Export Plug-In . SVG Version: 6.00 Build 0)  -->
<svg version="1.1" id="Layer_1" xmlns="http://www.w3.org/2000/svg" xmlns:xlink="http://www.w3.org/1999/xlink" x="0px" y="0px"
	 viewBox="0 0 512 512" style="enable-background:new 0 0 512 512;" xml:space="preserve">
<style type="text/css">
	.st0{fill:#D12027;}
</style>
<g>
	<g>
		<path class="st0" d="M379.9,228.9c14.3,0,26-11.7,26-26V26c0-14.3-11.7-26-26-26h-88.5c-14.3,0-26,11.7-26,26v53.7
			c-2.3-0.2-4.7,0.6-6.4,2.4c-3.2,3.2-3.2,8.5,0,11.7l12.4,12.4h-24.8V26c0-14.3-11.7-26-26-26h-88.5c-14.3,0-26,11.7-26,26v176.9
			c0,14.3,11.7,26,26,26h35.9v54.2h-35.9c-14.3,0-26,11.7-26,26V486c0,14.3,11.7,26,26,26h88.5c14.3,0,26-11.7,26-26V309.1
			c0-14.3-11.7-26-26-26h-35.9v-54.2h35.9c14.3,0,26-11.7,26-26v-80.2h24.8L259,135.1c-3.2,3.2-3.2,8.5,0,11.7
			c1.6,1.6,3.7,2.4,5.9,2.4c0.2,0,0.4,0,0.6,0v53.7c0,14.3,11.7,26,26,26h35.9v54.2h-35.9c-14.3,0-26,11.7-26,26V486
			c0,14.3,11.7,26,26,26h88.5c14.3,0,26-11.7,26-26V309.1c0-14.3-11.7-26-26-26h-35.9v-54.2L379.9,228.9L379.9,228.9z M220.6,299.7
			c5.2,0,9.4,4.2,9.4,9.4V486c0,5.2-4.2,9.4-9.4,9.4h-88.5c-5.2,0-9.4-4.2-9.4-9.4V309.1c0-5.2,4.2-9.4,9.4-9.4h35.9v33.6
			l-12.4-12.4c-3.2-3.2-8.5-3.2-11.7,0s-3.2,8.5,0,11.7l26.5,26.5c0,0,0,0,0,0c0.2,0.2,0.4,0.4,0.6,0.5c0.1,0.1,0.2,0.1,0.3,0.2
			c0.1,0.1,0.2,0.2,0.4,0.3c0.1,0.1,0.2,0.1,0.3,0.2c0.1,0.1,0.2,0.1,0.3,0.2c0.1,0.1,0.2,0.1,0.4,0.2c0.1,0.1,0.2,0.1,0.4,0.2
			c0.1,0,0.2,0.1,0.4,0.1c0.1,0,0.3,0.1,0.4,0.1c0.1,0,0.2,0.1,0.4,0.1c0.1,0,0.3,0.1,0.4,0.1c0.1,0,0.3,0,0.4,0.1
			c0.1,0,0.2,0,0.4,0.1c0.3,0,0.5,0,0.8,0s0.5,0,0.8,0c0.1,0,0.2,0,0.4-0.1c0.1,0,0.3,0,0.4-0.1c0.1,0,0.3-0.1,0.4-0.1
			c0.1,0,0.2-0.1,0.4-0.1c0.1,0,0.3-0.1,0.4-0.1c0.1,0,0.2-0.1,0.4-0.1c0.1-0.1,0.3-0.1,0.4-0.2c0.1-0.1,0.2-0.1,0.4-0.2
			c0.1-0.1,0.2-0.1,0.3-0.2s0.2-0.1,0.3-0.2c0.1-0.1,0.2-0.2,0.4-0.3c0.1-0.1,0.2-0.1,0.3-0.2c0.2-0.2,0.4-0.3,0.6-0.5c0,0,0,0,0,0
			l26.5-26.5c3.2-3.2,3.2-8.5,0-11.7c-3.2-3.2-8.5-3.2-11.7,0l-12.4,12.4v-33.6H220.6z M176.4,123.9c-5.2,0-9.4-4.2-9.4-9.4
			s4.2-9.4,9.4-9.4s9.4,4.2,9.4,9.4S181.6,123.9,176.4,123.9z M230,202.9c0,5.2-4.2,9.4-9.4,9.4h-35.9v-73.2
			c7.7-2.6,13.7-8.7,16.3-16.3h29L230,202.9L230,202.9z M230,106.2h-29c-3.5-10.3-13.2-17.7-24.6-17.7c-14.3,0-26,11.7-26,26
			c0,11.4,7.4,21.2,17.7,24.6v73.2h-35.9c-5.2,0-9.4-4.2-9.4-9.4V26c0-5.2,4.2-9.4,9.4-9.4h88.5c5.2,0,9.4,4.2,9.4,9.4L230,106.2
			L230,106.2z M291.4,212.3c-5.2,0-9.4-4.2-9.4-9.4v-67.3l15.3-15.3c3.2-3.2,3.2-8.5,0-11.7L282,93.3V26c0-5.2,4.2-9.4,9.4-9.4h88.5
			c5.2,0,9.4,4.2,9.4,9.4v176.9c0,5.2-4.2,9.4-9.4,9.4h-35.9v-73.2c10.3-3.5,17.7-13.2,17.7-24.6c0-14.3-11.7-26-26-26
			s-26,11.7-26,26c0,11.4,7.4,21.2,17.7,24.6v73.2L291.4,212.3L291.4,212.3z M379.9,299.7c5.2,0,9.4,4.2,9.4,9.4V486
			c0,5.2-4.2,9.4-9.4,9.4h-88.5c-5.2,0-9.4-4.2-9.4-9.4V309.1c0-5.2,4.2-9.4,9.4-9.4h35.9v33.6l-12.4-12.4c-3.2-3.2-8.5-3.2-11.7,0
			c-3.2,3.2-3.2,8.5,0,11.7l26.5,26.5c0,0,0,0,0,0c0.2,0.2,0.4,0.4,0.6,0.5c0.1,0.1,0.2,0.1,0.3,0.2c0.1,0.1,0.2,0.2,0.4,0.3
			c0.1,0.1,0.2,0.1,0.3,0.2c0.1,0.1,0.2,0.1,0.3,0.2c0.1,0.1,0.2,0.1,0.4,0.2c0.1,0.1,0.2,0.1,0.4,0.2c0.1,0,0.2,0.1,0.4,0.1
			c0.1,0,0.3,0.1,0.4,0.1c0.1,0,0.2,0.1,0.4,0.1c0.1,0,0.3,0.1,0.4,0.1c0.1,0,0.3,0,0.4,0.1c0.1,0,0.2,0,0.4,0.1c0.3,0,0.5,0,0.8,0
			c0.3,0,0.5,0,0.8,0c0.1,0,0.2,0,0.4-0.1c0.1,0,0.3,0,0.4-0.1c0.1,0,0.3-0.1,0.4-0.1c0.1,0,0.2-0.1,0.4-0.1c0.1,0,0.3-0.1,0.4-0.1
			c0.1,0,0.2-0.1,0.4-0.1c0.1-0.1,0.3-0.1,0.4-0.2c0.1-0.1,0.2-0.1,0.4-0.2c0.1-0.1,0.2-0.1,0.3-0.2s0.2-0.1,0.3-0.2
			c0.1-0.1,0.2-0.2,0.4-0.3c0.1-0.1,0.2-0.1,0.3-0.2c0.2-0.2,0.4-0.3,0.6-0.5c0,0,0,0,0,0l26.5-26.5c3.2-3.2,3.2-8.5,0-11.7
			c-3.2-3.2-8.5-3.2-11.7,0l-12.4,12.4v-33.6H379.9z M335.6,123.9c-5.2,0-9.4-4.2-9.4-9.4s4.2-9.4,9.4-9.4s9.4,4.2,9.4,9.4
			S340.8,123.9,335.6,123.9z"/>
	</g>
</g>
<g>
	<g>
		<path class="st0" d="M335.6,371.6c-14.3,0-26,11.7-26,26s11.7,26,26,26s26-11.7,26-26C361.6,383.2,349.9,371.6,335.6,371.6z
			 M335.6,406.9c-5.2,0-9.4-4.2-9.4-9.4s4.2-9.4,9.4-9.4s9.4,4.2,9.4,9.4S340.8,406.9,335.6,406.9z"/>
	</g>
</g>
<g>
	<g>
		<path class="st0" d="M176.4,371.6c-14.3,0-26,11.7-26,26s11.7,26,26,26s26-11.7,26-26C202.4,383.2,190.7,371.6,176.4,371.6z
			 M176.4,406.9c-5.2,0-9.4-4.2-9.4-9.4s4.2-9.4,9.4-9.4s9.4,4.2,9.4,9.4S181.6,406.9,176.4,406.9z"/>
	</g>
</g>
</svg>
