<?xml version="1.0" encoding="utf-8"?>
<!-- Generator: Adobe Illustrator 23.0.2, SVG Export Plug-In . SVG Version: 6.00 Build 0)  -->
<svg version="1.1" id="Capa_1" xmlns="http://www.w3.org/2000/svg" xmlns:xlink="http://www.w3.org/1999/xlink" x="0px" y="0px"
	 viewBox="0 0 512 512" style="enable-background:new 0 0 512 512;" xml:space="preserve">
<style type="text/css">
	.st0{fill:#D12027;}
</style>
<g>
	<g>
		<path class="st0" d="M391.5,173.8c-4.2-4.2-10.9-4.2-15.1,0L234.7,315.6l-77.8-77.8c-4.2-4.2-10.9-4.2-15.1,0s-4.2,10.9,0,15.1
			l85.3,85.3c2.1,2.1,4.8,3.1,7.6,3.1s5.5-1,7.5-3.1l149.3-149.3C395.7,184.7,395.7,178,391.5,173.8z"/>
	</g>
</g>
<g>
	<g>
		<path class="st0" d="M472.4,64.4l-213.3-64c-2-0.6-4.1-0.6-6.1,0l-213.3,64C35.1,65.8,32,70,32,74.7v234.7
			c0,94.3,143.8,178.2,220.8,202.2c1,0.3,2.1,0.5,3.2,0.5c1.1,0,2.1-0.1,3.2-0.5c77-24,220.8-107.9,220.8-202.2V74.7
			C480,70,476.9,65.8,472.4,64.4z M458.7,309.3C458.7,384.2,340,463,256,490.2C172,463,53.3,384.2,53.3,309.3V82.6L256,21.8
			l202.7,60.8V309.3z"/>
	</g>
</g>
</svg>
