<?xml version="1.0" encoding="utf-8"?>
<!-- Generator: Adobe Illustrator 23.0.2, SVG Export Plug-In . SVG Version: 6.00 Build 0)  -->
<svg version="1.1" id="Capa_1" xmlns="http://www.w3.org/2000/svg" xmlns:xlink="http://www.w3.org/1999/xlink" x="0px" y="0px"
	 viewBox="0 0 512 512" style="enable-background:new 0 0 512 512;" xml:space="preserve">
<style type="text/css">
	.st0{fill:#D12027;}
</style>
<g>
	<path class="st0" d="M363.5,0h-215c-20.7,0-37.6,16.9-37.6,37.6v436.8c0,20.7,16.9,37.6,37.6,37.6h214.9
		c20.7,0,37.6-16.9,37.6-37.6V37.6C401.1,16.9,384.2,0,363.5,0z M128,68.3h256v324.3H128V68.3z M148.5,17.1h214.9
		c11.3,0,20.5,9.2,20.5,20.5v13.6H128V37.6C128,26.3,137.2,17.1,148.5,17.1z M363.5,494.9h-215c-11.3,0-20.5-9.2-20.5-20.5v-64.8
		h256v64.8C384,485.7,374.8,494.9,363.5,494.9z"/>
	<path class="st0" d="M256,418.1c-18.8,0-34.1,15.3-34.1,34.1s15.3,34.1,34.1,34.1c18.8,0,34.1-15.3,34.1-34.1
		S274.8,418.1,256,418.1z M256,469.3c-9.4,0-17.1-7.7-17.1-17.1s7.7-17.1,17.1-17.1c9.4,0,17.1,7.7,17.1,17.1S265.4,469.3,256,469.3
		z"/>
	<path class="st0" d="M221.9,42.7H256c4.7,0,8.5-3.8,8.5-8.5s-3.8-8.5-8.5-8.5h-34.1c-4.7,0-8.5,3.8-8.5,8.5S217.2,42.7,221.9,42.7z
		"/>
	<path class="st0" d="M281.6,42.7h8.5c4.7,0,8.5-3.8,8.5-8.5s-3.8-8.5-8.5-8.5h-8.5c-4.7,0-8.5,3.8-8.5,8.5S276.9,42.7,281.6,42.7z"
		/>
	<path class="st0" d="M272.7,94h-33.5c-9.6,0-17.4,7.8-17.4,17.4v33.5c0,9.6,7.8,17.4,17.4,17.4h33.5c9.6,0,17.4-7.8,17.4-17.4
		v-33.5C290.1,101.8,282.3,94,272.7,94z M273.1,144.9c0,0.2-0.1,0.3-0.3,0.3l-33.8-0.3l0.3-33.8l33.8,0.3V144.9z"/>
	<path class="st0" d="M195.9,94h-33.5c-9.6,0-17.4,7.8-17.4,17.4v33.5c0,9.6,7.8,17.4,17.4,17.4h33.5c9.6,0,17.4-7.8,17.4-17.4
		v-33.5C213.3,101.8,205.5,94,195.9,94z M196.3,144.9c0,0.2-0.1,0.3-0.3,0.3l-33.8-0.3l0.3-33.8l33.8,0.3V144.9z"/>
	<path class="st0" d="M349.5,94h-33.5c-9.6,0-17.4,7.8-17.4,17.4v33.5c0,9.6,7.8,17.4,17.4,17.4h33.5c9.6,0,17.4-7.8,17.4-17.4
		v-33.5C366.9,101.8,359.1,94,349.5,94z M349.9,144.9c0,0.2-0.1,0.3-0.3,0.3l-33.8-0.3l0.3-33.8l33.8,0.3V144.9z"/>
	<path class="st0" d="M272.7,170.7h-33.5c-9.6,0-17.4,7.8-17.4,17.4v33.5c0,9.6,7.8,17.4,17.4,17.4h33.5c9.6,0,17.4-7.8,17.4-17.4
		v-33.5C290.1,178.5,282.3,170.7,272.7,170.7z M273.1,221.5c0,0.2-0.1,0.3-0.3,0.3l-33.8-0.3l0.3-33.8l33.8,0.3V221.5z"/>
	<path class="st0" d="M195.9,170.7h-33.5c-9.6,0-17.4,7.8-17.4,17.4v33.5c0,9.6,7.8,17.4,17.4,17.4h33.5c9.6,0,17.4-7.8,17.4-17.4
		v-33.5C213.3,178.5,205.5,170.7,195.9,170.7z M196.3,221.5c0,0.2-0.1,0.3-0.3,0.3l-33.8-0.3l0.3-33.8l33.8,0.3V221.5z"/>
	<path class="st0" d="M349.5,170.7h-33.5c-9.6,0-17.4,7.8-17.4,17.4v33.5c0,9.6,7.8,17.4,17.4,17.4h33.5c9.6,0,17.4-7.8,17.4-17.4
		v-33.5C366.9,178.5,359.1,170.7,349.5,170.7z M349.9,221.5c0,0.2-0.1,0.3-0.3,0.3l-33.8-0.3l0.3-33.8l33.8,0.3V221.5z"/>
	<path class="st0" d="M272.7,247.5h-33.5c-9.6,0-17.4,7.8-17.4,17.4v33.5c0,9.6,7.8,17.4,17.4,17.4h33.5c9.6,0,17.4-7.8,17.4-17.4
		v-33.5C290.1,255.3,282.3,247.5,272.7,247.5z M273.1,298.3c0,0.2-0.1,0.3-0.3,0.3l-33.8-0.3l0.3-33.8l33.8,0.3V298.3z"/>
	<path class="st0" d="M195.9,247.5h-33.5c-9.6,0-17.4,7.8-17.4,17.4v33.5c0,9.6,7.8,17.4,17.4,17.4h33.5c9.6,0,17.4-7.8,17.4-17.4
		v-33.5C213.3,255.3,205.5,247.5,195.9,247.5z M196.3,298.3c0,0.2-0.1,0.3-0.3,0.3l-33.8-0.3l0.3-33.8l33.8,0.3V298.3z"/>
	<path class="st0" d="M349.5,247.5h-33.5c-9.6,0-17.4,7.8-17.4,17.4v33.5c0,9.6,7.8,17.4,17.4,17.4h33.5c9.6,0,17.4-7.8,17.4-17.4
		v-33.5C366.9,255.3,359.1,247.5,349.5,247.5z M349.9,298.3c0,0.2-0.1,0.3-0.3,0.3l-33.8-0.3l0.3-33.8l33.8,0.3V298.3z"/>
</g>
</svg>
