<?xml version="1.0" encoding="utf-8"?>
<!-- Generator: Adobe Illustrator 23.0.2, SVG Export Plug-In . SVG Version: 6.00 Build 0)  -->
<svg version="1.1" id="Capa_1" xmlns="http://www.w3.org/2000/svg" xmlns:xlink="http://www.w3.org/1999/xlink" x="0px" y="0px"
	 viewBox="0 0 480 480" style="enable-background:new 0 0 480 480;" xml:space="preserve">
<style type="text/css">
	.st0{fill:#D12027;}
</style>
<g>
	<g>
		<path class="st0" d="M246.7,339.6l-30.7-46V252c0-59.6-48.4-108-108-108S0,192.4,0,252v220c0,4.4,3.6,8,8,8c0,0,0,0,0,0h88
			c4.4,0,8-3.6,8-8c0,0,0,0,0,0v-56h104c4.4,0,8-3.6,8-8c0,0,0,0,0,0v-56h24c4.4,0,8-3.6,8-8C248,342.4,247.5,340.9,246.7,339.6z
			 M208,336c-4.4,0-8,3.6-8,8c0,0,0,0,0,0v56H96c-4.4,0-8,3.6-8,8c0,0,0,0,0,0v56H16V252c0-50.8,41.2-92,92-92s92,41.2,92,92v44
			c0,1.6,0.5,3.1,1.3,4.4l23.7,35.6H208z"/>
	</g>
</g>
<g>
	<g>
		<path class="st0" d="M112,216c-13.3,0-24,10.7-24,24c0,13.2,10.8,24,24,24c13.3,0,24-10.7,24-24S125.3,216,112,216z M112,248
			c-4.4,0-8-3.6-8-8c0-4.4,3.6-8,8-8c4.4,0,8,3.6,8,8S116.4,248,112,248z"/>
	</g>
</g>
<g>
	<g>
		<path class="st0" d="M171.1,225.4l-9.2-4.8c-0.3-0.7-0.6-1.4-0.9-2.2l3.2-9.9c0.8-2.5,0.3-5.2-1.3-7.3c-3.5-4.6-7.6-8.7-12.1-12.1
			c-2.1-1.6-4.8-2.1-7.3-1.3l-9.9,3.2c-0.7-0.3-1.4-0.6-2.1-0.9l-4.8-9.2c-1.4-2.7-4.1-4.3-7.1-4.3h-15c-3,0-5.7,1.7-7.1,4.3
			l-4.8,9.2c-0.7,0.3-1.4,0.6-2.1,0.9l-9.9-3.2c-2.5-0.8-5.2-0.3-7.3,1.3c-4.6,3.5-8.7,7.6-12.1,12.1c-1.6,2.1-2,4.8-1.3,7.3
			l3.2,9.9c-0.3,0.7-0.6,1.4-0.9,2.2l-9.2,4.8c-2.7,1.4-4.3,4.1-4.3,7.1v15c0,3,1.7,5.7,4.3,7.1l9.2,4.8c0.3,0.7,0.6,1.4,0.9,2.2
			l-3.2,9.9c-0.8,2.5-0.3,5.2,1.3,7.3c3.5,4.6,7.6,8.7,12.1,12.1c2.1,1.6,4.8,2.1,7.3,1.3l9.9-3.2c0.7,0.3,1.4,0.6,2.1,0.9l4.8,9.2
			c1.4,2.7,4.1,4.3,7.1,4.3h15c3,0,5.7-1.7,7.1-4.3l4.8-9.2c0.7-0.3,1.4-0.6,2.1-0.9l9.9,3.2c2.5,0.8,5.2,0.3,7.3-1.3
			c4.6-3.5,8.7-7.6,12.1-12.1c1.6-2.1,2-4.8,1.3-7.3l-3.2-9.9c0.3-0.7,0.6-1.4,0.9-2.2l9.2-4.8c2.7-1.4,4.3-4.1,4.3-7.1v-15
			C175.4,229.5,173.8,226.8,171.1,225.4z M159.4,242.6l-7.7,4c-1.9,1-3.3,2.7-4,4.7c-0.7,2-1.5,4-2.5,5.9c-1,1.9-1.2,4.1-0.5,6.1
			l2.8,8.8c-1.1,1.2-2.2,2.3-3.4,3.4l-8.8-2.8c-2-0.6-4.2-0.5-6.1,0.5c-1.9,1-3.9,1.8-6,2.5c-2,0.6-3.7,2.1-4.7,4l-4,7.7h-5.3
			l-4-7.7c-1-1.9-2.7-3.3-4.7-4c-2.1-0.7-4-1.5-6-2.5c-1.9-1-4.1-1.2-6.1-0.5l-8.8,2.8c-1.2-1.1-2.3-2.2-3.4-3.4l2.8-8.8
			c0.6-2,0.5-4.2-0.5-6.1c-1-1.9-1.8-3.9-2.5-5.9c-0.6-2-2.1-3.7-4-4.7l-7.7-4v-5.3l7.7-4c1.9-1,3.3-2.7,4-4.7c0.7-2,1.5-4,2.5-5.9
			c1-1.9,1.2-4.1,0.5-6.1l-2.8-8.8c1.1-1.2,2.2-2.3,3.4-3.4l8.8,2.8c2,0.6,4.2,0.5,6.1-0.5c1.9-1,3.9-1.8,5.9-2.5
			c2-0.6,3.7-2.1,4.7-4l4-7.7h5.3l4,7.7c1,1.9,2.7,3.3,4.7,4c2.1,0.7,4,1.5,6,2.5c1.9,1,4.1,1.2,6.1,0.5l8.8-2.8
			c1.2,1.1,2.3,2.2,3.4,3.4l-2.8,8.8c-0.6,2-0.5,4.2,0.5,6.1c1,1.9,1.8,3.9,2.5,5.9c0.6,2,2.1,3.7,4,4.7l7.7,4L159.4,242.6
			L159.4,242.6z"/>
	</g>
</g>
<g>
	<g>
		<path class="st0" d="M440,128c0-48.5-35.9-88-80-88s-80,39.5-80,88c-0.1,19.2,5.7,37.9,16.6,53.6c8.5,15.1,13.5,31.8,14.9,49.1
			c-9.4,8.9-9.9,23.7-1.2,33.3c-8.9,9.8-8.2,24.9,1.5,33.8c4.4,4,10.2,6.3,16.2,6.2h64c13.2,0.1,23.9-10.6,24-23.8
			c0-6-2.2-11.8-6.2-16.2c8.8-9.6,8.2-24.4-1.2-33.3c1.3-17.3,6.4-34,14.9-49.1C434.3,165.9,440.1,147.1,440,128z M392,288h-64
			c-4.4,0-8-3.6-8-8s3.6-8,8-8h64c4.4,0,8,3.6,8,8S396.4,288,392,288z M392,256h-64c-4.4,0-8-3.6-8-8s3.6-8,8-8h64c4.4,0,8,3.6,8,8
			C400,252.4,396.4,256,392,256z M393.2,224.1c-0.4,0-0.8-0.1-1.2-0.1h-64c-0.4,0-0.8,0.1-1.2,0.1c-1.9-18.2-7.8-35.9-17.1-51.7
			c-9-13.1-13.8-28.6-13.7-44.5c0-39.7,28.7-72,64-72s64,32.3,64,72c0.1,15.9-4.6,31.4-13.7,44.4C401,188.3,395.2,205.9,393.2,224.1
			z"/>
	</g>
</g>
<g>
	<g>
		<path class="st0" d="M312,120h16c0-17.7,14.3-32,32-32V72C333.5,72,312,93.5,312,120z"/>
	</g>
</g>
<g>
	<g>
		<rect x="352" class="st0" width="16" height="24"/>
	</g>
</g>
<g>
	<g>
		<rect x="456" y="96" class="st0" width="24" height="16"/>
	</g>
</g>
<g>
	<g>
		<rect x="240" y="96" class="st0" width="24" height="16"/>
	</g>
</g>
<g>
	<g>
		<rect x="275.6" y="31.6" transform="matrix(0.7071 -0.7071 0.7071 0.7071 52.2211 213.335)" class="st0" width="16" height="24"/>
	</g>
</g>
<g>
	<g>
		
			<rect x="424.4" y="35.6" transform="matrix(0.7071 -0.7071 0.7071 0.7071 96.9621 321.3525)" class="st0" width="24" height="16"/>
	</g>
</g>
<g>
	<g>
		<rect x="232" y="232" class="st0" width="16" height="16"/>
	</g>
</g>
<g>
	<g>
		<rect x="264" y="232" class="st0" width="16" height="16"/>
	</g>
</g>
<g>
	<g>
		<rect x="264" y="264" class="st0" width="16" height="16"/>
	</g>
</g>
<g>
	<g>
		<rect x="264" y="296" class="st0" width="16" height="16"/>
	</g>
</g>
<g>
	<g>
		<rect x="264" y="328" class="st0" width="16" height="16"/>
	</g>
</g>
<g>
	<g>
		<rect x="264" y="360" class="st0" width="16" height="16"/>
	</g>
</g>
<g>
	<g>
		<rect x="264" y="392" class="st0" width="16" height="16"/>
	</g>
</g>
<g>
	<g>
		<rect x="360" y="328" class="st0" width="16" height="16"/>
	</g>
</g>
<g>
	<g>
		<rect x="360" y="360" class="st0" width="16" height="16"/>
	</g>
</g>
<g>
	<g>
		<rect x="360" y="392" class="st0" width="16" height="16"/>
	</g>
</g>
<g>
	<g>
		<rect x="296" y="392" class="st0" width="16" height="16"/>
	</g>
</g>
<g>
	<g>
		<rect x="328" y="392" class="st0" width="16" height="16"/>
	</g>
</g>
</svg>
