<?xml version="1.0" encoding="utf-8"?>
<!-- Generator: Adobe Illustrator 23.0.2, SVG Export Plug-In . SVG Version: 6.00 Build 0)  -->
<svg version="1.1" id="Capa_1" xmlns="http://www.w3.org/2000/svg" xmlns:xlink="http://www.w3.org/1999/xlink" x="0px" y="0px"
	 viewBox="0 0 512 512" style="enable-background:new 0 0 512 512;" xml:space="preserve">
<style type="text/css">
	.st0{fill:#D12027;}
</style>
<g>
	<g>
		<g>
			<path class="st0" d="M276.2,327.6L276.2,327.6l-59.1-58.4l0.7-0.7c40.5-45.1,69.4-97,86.3-152h68.2V69.8H209.5V23.3h-46.5v46.5H0
				v46.3h260c-15.7,44.9-40.3,87.5-73.8,124.7c-21.6-24.1-39.6-50.3-53.8-78H85.9c17,37.9,40.3,73.8,69.4,106.1L36.9,386l32.9,32.9
				l116.4-116.4l72.4,72.4L276.2,327.6z"/>
			<path class="st0" d="M407.3,209.5h-46.5L256,488.7h46.5l26.2-69.8h110.5l26.2,69.8H512L407.3,209.5z M346.2,372.4L384,271.5
				l37.8,100.9H346.2z"/>
		</g>
	</g>
</g>
</svg>
