<?xml version="1.0" encoding="utf-8"?>
<!-- Generator: Adobe Illustrator 23.0.2, SVG Export Plug-In . SVG Version: 6.00 Build 0)  -->
<svg version="1.1" id="Capa_1" xmlns="http://www.w3.org/2000/svg" xmlns:xlink="http://www.w3.org/1999/xlink" x="0px" y="0px"
	 viewBox="0 0 512 512" style="enable-background:new 0 0 512 512;" xml:space="preserve">
<style type="text/css">
	.st0{fill:#D12027;}
</style>
<g>
	<path class="st0" d="M169,104.3c2.2,0,4.4-0.9,6.1-2.5l72.1-72.1v308.8c0,4.8,3.9,8.7,8.7,8.7c4.8,0,8.7-3.9,8.7-8.7V29.6
		l71.8,71.8c3.4,3.4,8.9,3.4,12.3,0s3.4-8.9,0-12.3L262.1,2.5c-0.8-0.8-1.8-1.4-2.8-1.9c-2.1-0.9-4.5-0.9-6.6,0
		c-1.1,0.4-2,1.1-2.8,1.9l-86.9,86.9c-3.4,3.4-3.4,8.9,0,12.3C164.6,103.5,166.8,104.3,169,104.3z"/>
	<path class="st0" d="M316.7,138.8c-4.8,0-8.7,3.9-8.7,8.7c0,4.8,3.9,8.7,8.7,8.7h112.8v338.4H82.4V156.2h112.8
		c4.8,0,8.7-3.9,8.7-8.7c0-4.8-3.9-8.7-8.7-8.7H65.1V512h381.8V138.8C446.9,138.8,316.7,138.8,316.7,138.8z"/>
</g>
</svg>
