<?xml version="1.0" encoding="utf-8"?>
<!-- Generator: Adobe Illustrator 23.0.2, SVG Export Plug-In . SVG Version: 6.00 Build 0)  -->
<svg version="1.1" id="Capa_1" xmlns="http://www.w3.org/2000/svg" xmlns:xlink="http://www.w3.org/1999/xlink" x="0px" y="0px"
	 viewBox="0 0 512 512" style="enable-background:new 0 0 512 512;" xml:space="preserve">
<style type="text/css">
	.st0{fill:#FFFFFF;}
</style>
<g>
	<g>
		<path class="st0" d="M435.2,0H8.5C3.8,0,0,3.8,0,8.5v494.9c0,4.7,3.8,8.5,8.5,8.5h426.7c4.7,0,8.5-3.8,8.5-8.5V8.5
			C443.7,3.8,439.9,0,435.2,0z M426.7,494.9H17.1V17.1h409.6V494.9z"/>
	</g>
</g>
<g>
	<g>
		<path class="st0" d="M511.4,48L494.3,5.4c-1.7-4.4-6.7-6.5-11.1-4.8c-2.2,0.9-3.9,2.6-4.8,4.8l-17,42.6c-0.4,1-0.6,2.1-0.6,3.2
			v435.2c0,14.1,11.5,25.6,25.6,25.6s25.6-11.5,25.6-25.6V51.2C512,50.1,511.8,49.1,511.4,48z M494.9,486.4c0,4.7-3.8,8.5-8.5,8.5
			s-8.5-3.8-8.5-8.5v-17.1H495v17.1H494.9z M494.9,452.3h-17.1v-367h17.1V452.3z M494.9,68.3h-17.1V52.8l8.5-21.3l8.5,21.3v15.5
			H494.9z"/>
	</g>
</g>
<g>
	<g>
		<path class="st0" d="M128,85.3c-51.8,0-93.9,42-93.9,93.9c-0.3,51.5,41.2,93.5,92.7,93.9c0.4,0,0.8,0,1.2,0
			c51.8,0,93.9-42,93.9-93.9S179.8,85.3,128,85.3z M136.5,102.9c14.4,1.6,28.1,7.2,39.4,16.3l-39.4,39.4V102.9z M68,227.1
			C41.5,194,46.9,145.7,80.1,119.2c11.3-9,25-14.7,39.4-16.3v76.3c0,1,0.2,2,0.6,2.9c0,0.1,0,0.2,0.1,0.3s0.2,0.3,0.3,0.5
			c0.3,0.7,0.7,1.3,1.2,1.9c0.1,0.1,0.2,0.3,0.3,0.4l54,54C142.8,265.7,94.5,260.3,68,227.1z M188,227.1l-47.9-47.9l47.9-47.9
			C210.4,159.3,210.4,199.1,188,227.1z"/>
	</g>
</g>
<g>
	<g>
		<rect x="375.5" y="136.5" class="st0" width="34.1" height="17.1"/>
	</g>
</g>
<g>
	<g>
		<rect x="273.1" y="136.5" class="st0" width="85.3" height="17.1"/>
	</g>
</g>
<g>
	<g>
		<rect x="358.4" y="204.8" class="st0" width="51.2" height="17.1"/>
	</g>
</g>
<g>
	<g>
		<rect x="273.1" y="204.8" class="st0" width="68.3" height="17.1"/>
	</g>
</g>
<g>
	<g>
		<rect x="324.3" y="170.7" class="st0" width="85.3" height="17.1"/>
	</g>
</g>
<g>
	<g>
		<rect x="273.1" y="170.7" class="st0" width="34.1" height="17.1"/>
	</g>
</g>
<g>
	<g>
		<path class="st0" d="M253.5,139c-3.4-3.2-8.7-3.2-12.1,0c-1.6,1.6-2.4,3.8-2.5,6.1c0,2.3,0.9,4.5,2.5,6.1c0.8,0.8,1.8,1.4,2.8,1.9
			c1,0.4,2.1,0.6,3.2,0.6c4.7,0,8.5-3.7,8.5-8.4c0-0.1,0-0.1,0-0.2C256,142.8,255.1,140.7,253.5,139z"/>
	</g>
</g>
<g>
	<g>
		<path class="st0" d="M255.3,176c-0.4-1-1-2-1.8-2.8c-3.4-3.2-8.7-3.2-12.1,0c-0.8,0.8-1.4,1.8-1.8,2.8c-1.4,3.2-0.7,6.9,1.8,9.3
			c3.3,3.3,8.7,3.4,12.1,0.1c1.6-1.6,2.5-3.8,2.5-6.1C256,178.1,255.8,177,255.3,176z"/>
	</g>
</g>
<g>
	<g>
		<path class="st0" d="M247.5,204.8c-4.7,0-8.5,3.8-8.5,8.5c0,2.3,0.9,4.5,2.5,6.1c3.3,3.3,8.7,3.4,12.1,0.1
			c1.6-1.6,2.5-3.8,2.5-6.1C256,208.6,252.2,204.8,247.5,204.8z"/>
	</g>
</g>
<g>
	<g>
		<rect x="273.1" y="42.7" class="st0" width="34.1" height="17.1"/>
	</g>
</g>
<g>
	<g>
		<rect x="136.5" y="42.7" class="st0" width="119.5" height="17.1"/>
	</g>
</g>
<g>
	<g>
		<path class="st0" d="M341.3,460.8H51.2V298.7c0-4.7-3.8-8.5-8.5-8.5s-8.5,3.8-8.5,8.5v170.7c0,4.7,3.8,8.5,8.5,8.5h298.7
			c4.7,0,8.5-3.8,8.5-8.5C349.9,464.6,346,460.8,341.3,460.8z"/>
	</g>
</g>
<g>
	<g>
		<path class="st0" d="M321.3,394.6c-0.1-0.1-0.2-0.2-0.3-0.2l-16.2-12.6l18.1-27.1c2.6-3.9,1.6-9.2-2.4-11.8s-9.2-1.6-11.8,2.4
			l-17.4,26.1l-47.1-36.6c-3-2.3-7.2-2.4-10.2-0.2l-55.6,39.7l-29.5-14.8c-2.4-1.2-5.2-1.2-7.6,0l-32.4,16.2L82.4,352
			c-3.5-3.1-8.9-2.8-12,0.7s-2.8,8.9,0.7,12l21.3,18.9L73,393.3c-4.2,2.1-5.9,7.3-3.8,11.5s7.2,5.9,11.4,3.8l0,0l25.6-12.8L148,433
			c2.3,2,5.5,2.7,8.4,1.7l48.7-16.2l57.2,16.3c0.8,0.2,1.5,0.3,2.3,0.3c2.9,0,5.5-1.4,7.1-3.8l23.6-35.5l15.2,11.8
			c3.7,3,9,2.4,12-1.2S324.9,397.5,321.3,394.6z M260.9,416.8l-53.8-15.4c-1.7-0.5-3.4-0.4-5,0.1L155.6,417l-33-29.3l22.5-11.3
			l30.3,15.2c2.8,1.4,6.2,1.1,8.8-0.7l54.6-39l43,33.5L260.9,416.8z"/>
	</g>
</g>
<g>
	<g>
		<path class="st0" d="M401.1,341.3H367c-4.7,0-8.5,3.8-8.5,8.5s3.8,8.5,8.5,8.5h34.1c4.7,0,8.5-3.8,8.5-8.5
			C409.6,345.2,405.8,341.3,401.1,341.3z"/>
	</g>
</g>
<g>
	<g>
		<path class="st0" d="M401.1,392.5H367c-4.7,0-8.5,3.8-8.5,8.5s3.8,8.5,8.5,8.5h34.1c4.7,0,8.5-3.8,8.5-8.5
			C409.6,396.4,405.8,392.5,401.1,392.5z"/>
	</g>
</g>
</svg>
