<?xml version="1.0" encoding="utf-8"?>
<!-- Generator: Adobe Illustrator 23.0.2, SVG Export Plug-In . SVG Version: 6.00 Build 0)  -->
<svg version="1.1" id="Layer_1" xmlns="http://www.w3.org/2000/svg" xmlns:xlink="http://www.w3.org/1999/xlink" x="0px" y="0px"
	 viewBox="0 0 512 512" style="enable-background:new 0 0 512 512;" xml:space="preserve">
<style type="text/css">
	.st0{fill:#D12027;}
</style>
<g>
	<path class="st0" d="M386.7,471c-46.5,0-84.3-37.8-84.3-84.3s37.8-84.3,84.3-84.3s84.3,37.8,84.3,84.3S433.2,471,386.7,471z
		 M386.7,322.4c-35.5,0-64.3,28.8-64.3,64.3s28.9,64.3,64.3,64.3s64.3-28.9,64.3-64.3S422.2,322.4,386.7,322.4z"/>
	<path class="st0" d="M385.1,421.5c-12-0.4-21.8-6.6-21.8-13c0-3.4,3-8.4,6.8-8.4c4.2,0,7.6,5.9,15,7.2v-16.2
		c-9.2-3.5-20-7.8-20-20.6c0-12.7,9.4-18.8,20-20.3v-2.8c0-1.4,1.6-2.7,3.8-2.7c1.9,0,3.8,1.3,3.8,2.7v2.5
		c6.2,0.2,17.9,1.8,17.9,8.7c0,2.7-1.8,8.2-6.2,8.2c-3.3,0-5.2-3.2-11.7-3.7v14.6c9.1,3.4,19.7,8.1,19.7,21.6
		c0,12.4-8,19.9-19.7,21.8v2.9c0,1.4-1.9,2.7-3.8,2.7c-2.2,0-3.8-1.3-3.8-2.7V421.5z M386.1,375.3v-11.9c-4.5,0.9-6.4,3.2-6.4,5.6
		C379.7,371.9,382.3,373.7,386.1,375.3z M391.7,393.8v13.4c3.4-0.8,6.1-2.7,6.1-6.3C397.8,397.6,395.3,395.5,391.7,393.8z"/>
	<path class="st0" d="M125.3,209.6c-46.5,0-84.3-37.8-84.3-84.3S78.8,41,125.3,41s84.3,37.8,84.3,84.3S171.8,209.6,125.3,209.6z
		 M125.3,61C89.8,61,61,89.8,61,125.3c0,35.5,28.8,64.3,64.3,64.3s64.3-28.9,64.3-64.3C189.6,89.8,160.8,61,125.3,61z"/>
	<path class="st0" d="M150.5,149.9c0,3.4-1.5,6.8-4.5,6.8h-42.4c-3,0-4.5-3.4-4.5-6.8c0-3.4,1.5-6.8,4.5-6.8h5l3.2-23h-4.7
		c-2.5,0-3.8-2.7-3.8-5.5c0-2.7,1.3-5.5,3.8-5.5h6.3l1-6.9c1.9-13.2,13.9-22.3,26.9-22.3h4.2c3.2,0,5,3.4,5,6.7c0,3.3-1.8,6.8-5,6.8
		h-4.7c-7.1,0-10.2,3.7-10.9,8.8l-1,6.9h10.7c2.5,0,3.8,2.8,3.8,5.5c0,2.8-1.3,5.5-3.8,5.5h-12.3l-3.3,23h22
		C149,143.1,150.5,146.5,150.5,149.9z"/>
	<path class="st0" d="M415.7,70.5c-0.7,0-1.3-0.1-2-0.2c-0.6-0.1-1.3-0.3-1.9-0.6c-0.6-0.3-1.2-0.6-1.7-0.9
		c-0.5-0.4-1.1-0.8-1.5-1.2c-0.5-0.5-0.9-1-1.2-1.5c-0.4-0.5-0.7-1.1-0.9-1.7c-0.3-0.6-0.4-1.2-0.6-1.9c-0.1-0.6-0.2-1.3-0.2-1.9
		c0-0.7,0.1-1.3,0.2-2c0.1-0.6,0.3-1.3,0.6-1.9s0.6-1.2,0.9-1.7c0.4-0.5,0.8-1.1,1.2-1.5c0.5-0.5,1-0.9,1.5-1.2
		c0.6-0.4,1.1-0.7,1.7-0.9c0.6-0.3,1.2-0.4,1.9-0.6c3.3-0.6,6.7,0.4,9,2.7c0.5,0.5,0.9,1,1.2,1.5c0.4,0.6,0.7,1.1,0.9,1.7
		c0.3,0.6,0.4,1.2,0.6,1.9c0.1,0.6,0.2,1.3,0.2,2c0,0.6-0.1,1.3-0.2,1.9s-0.3,1.3-0.6,1.9c-0.3,0.6-0.6,1.2-0.9,1.7
		c-0.4,0.6-0.8,1.1-1.2,1.5c-0.5,0.5-1,0.9-1.5,1.2c-0.6,0.4-1.1,0.7-1.7,0.9s-1.2,0.4-1.9,0.6C417.1,70.5,416.4,70.5,415.7,70.5z"
		/>
	<path class="st0" d="M96.3,461.5c-2.6,0-5.2-1.1-7.1-2.9c-1.9-1.9-2.9-4.4-2.9-7.1c0-0.6,0.1-1.3,0.2-1.9c0.1-0.6,0.3-1.3,0.6-1.9
		c0.3-0.6,0.6-1.2,0.9-1.7c0.4-0.6,0.8-1.1,1.2-1.5c0.5-0.5,1-0.9,1.5-1.2c0.6-0.4,1.1-0.7,1.7-0.9c0.6-0.3,1.2-0.4,1.9-0.6
		c3.3-0.7,6.7,0.4,9,2.7c0.5,0.5,0.9,1,1.2,1.5c0.4,0.5,0.7,1.1,0.9,1.7c0.3,0.6,0.4,1.2,0.6,1.9c0.1,0.6,0.2,1.3,0.2,1.9
		c0,2.6-1.1,5.2-2.9,7.1C101.5,460.4,98.9,461.5,96.3,461.5z"/>
	<path class="st0" d="M386.7,261.4c-69.1,0-125.3,56.2-125.3,125.3c0,9.3,1,18.3,2.9,26.9H102.7v-58.1h13.7c3.7,0,7.1-2,8.8-5.3
		s1.5-7.2-0.5-10.3l-53.2-79.4c-1.9-2.8-5-4.4-8.3-4.4s-6.4,1.7-8.3,4.4L1.7,340c-2.1,3.1-2.3,7-0.5,10.3c1.7,3.3,5.1,5.3,8.8,5.3
		h13.7v84.1c0,28.4,23.1,51.4,51.4,51.4h242.4c19.8,13.2,43.6,20.9,69.2,20.9c69.1,0,125.3-56.2,125.3-125.3
		S455.8,261.4,386.7,261.4z M43.7,439.7v-84.1h12.6c5.5,0,10-4.5,10-10s-4.5-10-10-10H28.7l34.4-51.4l34.4,51.4h-5
		c-5.5,0-10,4.5-10,10v78.1c0,5.5,4.5,10,10,10h177.9c1.1,2.7,2.2,5.3,3.5,7.8H136.1c-5.5,0-10,4.5-10,10c0,5.5,4.5,10,10,10H286
		c0.1,0,0.1,0,0.2,0c2.5,3.4,5.2,6.6,8,9.7H75.1C57.8,471.1,43.7,457,43.7,439.7z M386.7,492c-58.1,0-105.3-47.2-105.3-105.3
		s47.2-105.3,105.3-105.3S492,328.6,492,386.7S444.8,492,386.7,492z"/>
	<path class="st0" d="M125.3,250.6c69.1,0,125.3-56.2,125.3-125.3c0-9.3-1-18.3-2.9-26.9h161.7v58.1h-13.7c-3.7,0-7.1,2-8.8,5.3
		s-1.5,7.2,0.5,10.3l53.2,79.4c1.9,2.8,5,4.4,8.3,4.4s6.5-1.7,8.3-4.4l53.2-79.4c2.1-3.1,2.3-7,0.5-10.3s-5.1-5.3-8.8-5.3h-13.7
		V72.3c0-13.7-5.4-26.7-15.1-36.4s-22.6-15.1-36.4-15.1H194.5C174.6,7.7,150.8,0,125.3,0C56.2,0,0,56.2,0,125.3
		C0,194.4,56.2,250.6,125.3,250.6z M459.1,50.1c5.9,5.9,9.2,13.8,9.2,22.2v84.1h-12.6c-5.5,0-10,4.5-10,10s4.5,10,10,10h27.6
		l-34.4,51.4l-34.4-51.4h5c5.5,0,10-4.5,10-10V88.4c0-5.5-4.5-10-10-10H241.5c-1.1-2.7-2.2-5.3-3.5-7.8h137.9c5.5,0,10-4.5,10-10
		c0-5.5-4.5-10-10-10H226c-0.1,0-0.1,0-0.2,0c-2.5-3.4-5.2-6.6-8-9.7h219.1C445.3,40.9,453.2,44.1,459.1,50.1z M125.3,20
		c58.1,0,105.3,47.2,105.3,105.3c0,58.1-47.2,105.3-105.3,105.3S20,183.4,20,125.3C20,67.2,67.2,20,125.3,20z"/>
</g>
</svg>
