<?xml version="1.0" encoding="utf-8"?>
<!-- Generator: Adobe Illustrator 23.0.2, SVG Export Plug-In . SVG Version: 6.00 Build 0)  -->
<svg version="1.1" id="Capa_1" xmlns="http://www.w3.org/2000/svg" xmlns:xlink="http://www.w3.org/1999/xlink" x="0px" y="0px"
	 viewBox="0 0 512 512" style="enable-background:new 0 0 512 512;" xml:space="preserve">
<style type="text/css">
	.st0{fill:#D12027;}
</style>
<g>
	<g>
		<g>
			<g>
				<path class="st0" d="M238.9,477.9h34.1c4.7,0,8.5-3.8,8.5-8.5c0-4.7-3.8-8.5-8.5-8.5h-34.1c-4.7,0-8.5,3.8-8.5,8.5
					C230.4,474,234.2,477.9,238.9,477.9z"/>
				<path class="st0" d="M110.9,128c4.7,0,8.5-3.8,8.5-8.5V68.3h273.1v68.3c0,4.7,3.8,8.5,8.5,8.5c4.7,0,8.5-3.8,8.5-8.5V34.1
					c0-15.4-19.7-34.1-42.7-34.1H145.1c-23.6,0-42.6,19.1-42.7,42.7v76.8C102.4,124.2,106.2,128,110.9,128z M119.5,42.7
					c0-14.1,11.5-25.6,25.6-25.6h221.9c14.8,0,25.6,11.9,25.6,17.1v17.1H119.5L119.5,42.7L119.5,42.7z"/>
				<path class="st0" d="M401.1,375.5c-4.7,0-8.5,3.8-8.5,8.5v42.7H119.5v-34.1c0-4.7-3.8-8.5-8.5-8.5s-8.5,3.8-8.5,8.5v76.8
					c0,23.6,19.1,42.6,42.7,42.7h221.9c23.6,0,42.6-19.1,42.7-42.7V384C409.6,379.3,405.8,375.5,401.1,375.5z M392.5,469.3
					c0,14.1-11.5,25.6-25.6,25.6H145.1c-14.1,0-25.6-11.5-25.6-25.6v-25.6h273.1V469.3z"/>
				<path class="st0" d="M238.9,25.6h-17.1c-4.7,0-8.5,3.8-8.5,8.5s3.8,8.5,8.5,8.5h17.1c4.7,0,8.5-3.8,8.5-8.5
					S243.6,25.6,238.9,25.6z"/>
				<path class="st0" d="M290.1,25.6h-17.1c-4.7,0-8.5,3.8-8.5,8.5s3.8,8.5,8.5,8.5h17.1c4.7,0,8.5-3.8,8.5-8.5
					S294.8,25.6,290.1,25.6z"/>
				<path class="st0" d="M510,165.2L510,165.2c-1.6-2-4-3.1-6.6-3.1h-224l-4.4-29.3c-1.9-12.5-12.7-21.8-25.3-21.9h-36.5V128h36.5
					c4.2,0,7.8,3.1,8.4,7.3l29.8,201.3c1.9,12.5,12.7,21.8,25.3,21.9h21c4.6,13.3,19.1,20.3,32.4,15.7c7.3-2.6,13.1-8.3,15.7-15.7
					h37.3c4.7,13.3,19.3,20.3,32.7,15.6s20.3-19.3,15.6-32.7c-4.7-13.3-19.3-20.3-32.7-15.6c-7.3,2.6-13,8.3-15.6,15.6h-37.3
					c-4.6-13.3-19.1-20.3-32.4-15.7c-7.3,2.6-13.1,8.3-15.7,15.7h-21c-4.2,0-7.8-3.1-8.4-7.3l-2.7-18.3h175.6c4.1,0,7.6-2.9,8.4-7
					l25.6-136.5C512.3,169.7,511.7,167.2,510,165.2z M443.7,341.3c4.7,0,8.5,3.8,8.5,8.5c0,4.7-3.8,8.5-8.5,8.5s-8.5-3.8-8.5-8.5
					C435.2,345.2,439,341.3,443.7,341.3z M358.4,341.3c4.7,0,8.5,3.8,8.5,8.5c0,4.7-3.8,8.5-8.5,8.5s-8.5-3.8-8.5-8.5
					C349.9,345.2,353.7,341.3,358.4,341.3z M470.8,298.7H299.7L282,179.2h211.2L470.8,298.7z"/>
				<path class="st0" d="M221.9,256c0-61.3-49.7-110.9-110.9-110.9S0,194.7,0,256s49.7,110.9,110.9,110.9
					C172.2,366.9,221.8,317.2,221.9,256z M17.1,256c0-51.8,42-93.9,93.9-93.9s93.9,42,93.9,93.9s-42,93.9-93.9,93.9
					C59.1,349.8,17.1,307.8,17.1,256z"/>
				<path class="st0" d="M119.5,324.3v-9.7c18.2-4.7,29.2-23.3,24.5-41.5c-3.9-15.1-17.5-25.6-33-25.6c-9.4,0-17.1-7.6-17.1-17.1
					c0-9.4,7.6-17.1,17.1-17.1S128,221,128,230.4c0,4.7,3.8,8.5,8.5,8.5c4.7,0,8.5-3.8,8.5-8.5c-0.1-15.5-10.6-29-25.6-32.9v-9.7
					c0-4.7-3.8-8.5-8.5-8.5s-8.5,3.8-8.5,8.5v9.7c-18.2,4.7-29.2,23.3-24.5,41.5c3.9,15.1,17.5,25.6,33,25.6
					c9.4,0,17.1,7.6,17.1,17.1c0,9.4-7.6,17.1-17.1,17.1s-17.1-7.6-17.1-17.1c0-4.7-3.8-8.5-8.5-8.5s-8.5,3.8-8.5,8.5
					c0.1,15.5,10.6,29,25.6,32.9v9.7c0,4.7,3.8,8.5,8.5,8.5S119.5,329,119.5,324.3z"/>
				<path class="st0" d="M307.2,204.8h119.5c4.7,0,8.5-3.8,8.5-8.5c0-4.7-3.8-8.5-8.5-8.5H307.2c-4.7,0-8.5,3.8-8.5,8.5
					C298.7,201,302.5,204.8,307.2,204.8z"/>
				<path class="st0" d="M452.3,204.8h17.1c4.7,0,8.5-3.8,8.5-8.5c0-4.7-3.8-8.5-8.5-8.5h-17.1c-4.7,0-8.5,3.8-8.5,8.5
					C443.7,201,447.6,204.8,452.3,204.8z"/>
			</g>
		</g>
	</g>
</g>
</svg>
