<?xml version="1.0" encoding="utf-8"?>
<!-- Generator: Adobe Illustrator 23.0.2, SVG Export Plug-In . SVG Version: 6.00 Build 0)  -->
<svg version="1.1" id="Capa_1" xmlns="http://www.w3.org/2000/svg" xmlns:xlink="http://www.w3.org/1999/xlink" x="0px" y="0px"
	 viewBox="0 0 512 512" style="enable-background:new 0 0 512 512;" xml:space="preserve">
<style type="text/css">
	.st0{fill:#D12027;}
</style>
<g>
	<path class="st0" d="M478.1,33.9c-45.2-45.2-118.8-45.2-164,0l-88.8,88.8c-3.8,3.8-3.8,9.9,0,13.7s9.9,3.8,13.7,0l88.8-88.8
		c18.2-18.2,42.4-28.2,68.3-28.2c25.9,0,50.2,10,68.3,28.2s28.2,42.4,28.2,68.3s-10,50.2-28.2,68.3L348.3,300.5
		c-37.7,37.7-99,37.7-136.7,0c-3.8-3.8-9.9-3.8-13.7,0c-3.8,3.8-3.8,9.9,0,13.7c22.6,22.6,52.3,33.9,82,33.9
		c29.7,0,59.4-11.3,82-33.9l116.2-116.2c21.8-21.8,33.8-50.9,33.8-82C512,84.9,499.9,55.7,478.1,33.9z"/>
	<path class="st0" d="M259.4,389.3l-75.2,75.2c-18.2,18.2-42.4,28.2-68.3,28.2s-50.2-10-68.3-28.2c-37.7-37.7-37.7-99,0-136.7
		l109.4-109.4c37.7-37.7,99-37.7,136.7,0c3.8,3.8,9.9,3.8,13.7,0s3.8-9.9,0-13.7c-45.2-45.2-118.8-45.2-164,0L33.9,314.1
		C12.1,336,0,365.1,0,396.1s12,60.2,33.8,82s50.9,33.8,82,33.8c31.1,0,60.2-12,82-33.8l75.2-75.2c3.8-3.8,3.8-9.9,0-13.7
		C269.3,385.5,263.2,385.5,259.4,389.3z"/>
</g>
</svg>
