<?xml version="1.0" encoding="utf-8"?>
<!-- Generator: Adobe Illustrator 23.0.2, SVG Export Plug-In . SVG Version: 6.00 Build 0)  -->
<svg version="1.1" id="Capa_1" xmlns="http://www.w3.org/2000/svg" xmlns:xlink="http://www.w3.org/1999/xlink" x="0px" y="0px"
	 viewBox="0 0 480 480" style="enable-background:new 0 0 480 480;" xml:space="preserve">
<style type="text/css">
	.st0{fill:#CF2027;}
</style>
<g>
	<g>
		<path class="st0" d="M440,120v-8.9c21.6-22.1,21.3-57.5-0.8-79.2c-22.1-21.6-57.5-21.3-79.2,0.8c-21.3,21.8-21.3,56.6,0,78.4v8.9
			h-16v16h112v-16H440z M429.8,98.6c-1,1.1-2,2.2-3.2,3.2c-1.7,1.5-2.7,3.7-2.7,6V120h-16V99.3l21.7-21.7l-11.3-11.3L400,84.7
			l-18.3-18.3l-11.3,11.3L392,99.3V120h-16v-12.3c0-2.3-1-4.4-2.7-6c-16.5-14.7-17.9-40-3.2-56.5c14.7-16.5,40-17.9,56.5-3.2
			C443.1,56.8,444.5,82.1,429.8,98.6z"/>
	</g>
</g>
<g>
	<g>
		<rect x="64" y="64" class="st0" width="16" height="16"/>
	</g>
</g>
<g>
	<g>
		<rect x="352" y="184" class="st0" width="16" height="16"/>
	</g>
</g>
<g>
	<g>
		<path class="st0" d="M72,32c-22.1,0-40,17.9-40,40s17.9,40,40,40s40-17.9,40-40C112,49.9,94.1,32,72,32z M72,96
			c-13.3,0-24-10.7-24-24s10.7-24,24-24s24,10.7,24,24S85.3,96,72,96z"/>
	</g>
</g>
<g>
	<g>
		<path class="st0" d="M472,280H304V8c0-4.4-3.6-8-8-8H8C3.6,0,0,3.6,0,8v432c0,4.4,3.6,8,8,8h32v8c0,13.3,10.7,24,24,24
			s24-10.7,24-24v-8h72v24c0,4.4,3.6,8,8,8h304c4.4,0,8-3.6,8-8V288C480,283.6,476.4,280,472,280z M463.2,296
			c-3.8,18.6-20.2,32-39.2,32H216c-19,0-35.4-13.4-39.2-32H463.2z M72,456c0,4.4-3.6,8-8,8s-8-3.6-8-8v-24h16V456z M72,416H56v-16
			h16V416z M72,384H56V256h16V384z M56.9,240l7.1-14.1l7.1,14.1H56.9z M160,288v144H88V240c0-1.2-0.3-2.5-0.8-3.6l-16-32
			c-2.4-4-7.5-5.2-11.4-2.9c-1.2,0.7-2.2,1.7-2.9,2.9l-16,32c-0.6,1.1-0.8,2.3-0.8,3.6v192H16V16h272v264H168
			C163.6,280,160,283.6,160,288z M464,464H176V327.1c10.5,10.8,24.9,16.9,40,16.9h208c15.1,0,29.5-6.1,40-16.9V464z"/>
	</g>
</g>
<g>
	<g>
		<path class="st0" d="M472,152H328c-4.4,0-8,3.6-8,8v96c0,4.4,3.6,8,8,8h144c4.4,0,8-3.6,8-8v-96C480,155.6,476.4,152,472,152z
			 M464,248H336v-80h128V248z"/>
	</g>
</g>
<g>
	<g>
		<rect x="392" y="216" class="st0" width="40" height="16"/>
	</g>
</g>
<g>
	<g>
		<rect x="136" y="48" class="st0" width="136" height="16"/>
	</g>
</g>
<g>
	<g>
		<rect x="136" y="80" class="st0" width="104" height="16"/>
	</g>
</g>
<g>
	<g>
		<rect x="192" y="400" class="st0" width="16" height="16"/>
	</g>
</g>
<g>
	<g>
		<rect x="232" y="400" class="st0" width="104" height="16"/>
	</g>
</g>
<g>
	<g>
		<rect x="232" y="432" class="st0" width="72" height="16"/>
	</g>
</g>
<g>
	<g>
		<rect x="392" y="184" class="st0" width="56" height="16"/>
	</g>
</g>
</svg>
