<?xml version="1.0" encoding="utf-8"?>
<!-- Generator: Adobe Illustrator 23.0.2, SVG Export Plug-In . SVG Version: 6.00 Build 0)  -->
<svg version="1.1" id="Capa_1" xmlns="http://www.w3.org/2000/svg" xmlns:xlink="http://www.w3.org/1999/xlink" x="0px" y="0px"
	 viewBox="0 0 512 512" style="enable-background:new 0 0 512 512;" xml:space="preserve">
<style type="text/css">
	.st0{fill:#CF2027;}
</style>
<g>
	<g>
		<path class="st0" d="M384,118.3h-65c-5.5,0-10,4.5-10,10s4.5,10,10,10h65c5.5,0,10-4.5,10-10S389.5,118.3,384,118.3z"/>
	</g>
</g>
<g>
	<g>
		<path class="st0" d="M384,158.3h-65c-5.5,0-10,4.5-10,10s4.5,10,10,10h65c5.5,0,10-4.5,10-10S389.5,158.3,384,158.3z"/>
	</g>
</g>
<g>
	<g>
		<path class="st0" d="M191.8,295H128c-5.5,0-10,4.5-10,10s4.5,10,10,10h63.8c5.5,0,10-4.5,10-10S197.3,295,191.8,295z"/>
	</g>
</g>
<g>
	<g>
		<path class="st0" d="M241.1,297.9c-1.9-1.9-4.4-2.9-7.1-2.9s-5.2,1.1-7.1,2.9s-2.9,4.4-2.9,7.1s1.1,5.2,2.9,7.1
			c1.9,1.9,4.4,2.9,7.1,2.9s5.2-1.1,7.1-2.9c1.9-1.9,2.9-4.4,2.9-7.1S242.9,299.8,241.1,297.9z"/>
	</g>
</g>
<g>
	<g>
		<path class="st0" d="M234,255H128c-5.5,0-10,4.5-10,10s4.5,10,10,10h106c5.5,0,10-4.5,10-10S239.5,255,234,255z"/>
	</g>
</g>
<g>
	<g>
		<path class="st0" d="M488.9,193.9H485V95c0-5.5-4.5-10-10-10h-37V10c0-5.5-4.5-10-10-10H158.7c-5.5,0-10,4.5-10,10s4.5,10,10,10
			H418v173.9H315.1c-12.7,0-23.1,10.4-23.1,23.1v119.9c0,12.7,10.4,23.1,23.1,23.1h18.6l23.2,23.2c2,2,4.5,2.9,7.1,2.9
			s5.1-1,7.1-2.9l23.2-23.2H465V398H296h-80H47v-38h36.8c0.1,0,0.2,0,0.2,0s0.2,0,0.2,0h180.1c5.5,0,10-4.5,10-10s-4.5-10-10-10H94
			V124h20c5.5,0,10-4.5,10-10V10c0-5.5-4.5-10-10-10H10C4.5,0,0,4.5,0,10v104c0,5.5,4.5,10,10,10h64v216H47V149.5
			c0-5.5-4.5-10-10-10s-10,4.5-10,10V408c0,5.5,4.5,10,10,10h169v34h-39c-5.5,0-10,4.5-10,10v40c0,5.5,4.5,10,10,10h178
			c5.5,0,10-4.5,10-10v-40c0-5.5-4.5-10-10-10h-39v-34h169c5.5,0,10-4.5,10-10v-48.1h3.9c12.7,0,23.1-10.4,23.1-23.1V217
			C512,204.3,501.6,193.9,488.9,193.9z M20,104V20h84v53.9L88.8,58.7c-3.9-3.9-10.2-3.9-14.1,0L29.4,104H20z M57.6,104l24.1-24.1
			l22.3,22.3v1.8H57.6z M226,418h60v34h-60L226,418L226,418z M335.1,472v20H177v-20h39h80H335.1z M438,105h27v88.9h-27V105z
			 M492,336.9c0,1.7-1.4,3.1-3.1,3.1h-98.8c-2.7,0-5.2,1.1-7.1,2.9L364,361.9l-19.1-19.1c-1.9-1.9-4.4-2.9-7.1-2.9h-22.8
			c-1.7,0-3.1-1.4-3.1-3.1V217c0-1.7,1.4-3.1,3.1-3.1H418v6.4c0,5.5,4.5,10,10,10s10-4.5,10-10v-6.4h50.9c1.7,0,3.1,1.4,3.1,3.1
			V336.9z"/>
	</g>
</g>
<g>
	<g>
		<path class="st0" d="M441.9,264l-38.2-24.5c-6.1-3.9-13.9-4.2-20.3-0.7S373,249,373,256.3v49c0,7.3,4,14,10.4,17.5
			c3,1.6,6.3,2.4,9.6,2.4c3.8,0,7.5-1.1,10.8-3.2l38.2-24.5h0c5.8-3.7,9.2-10,9.2-16.8C451.1,274,447.7,267.7,441.9,264z M393,305.2
			l0-48.9l38.1,24.4L393,305.2z"/>
	</g>
</g>
<g>
	<g>
		<path class="st0" d="M261.5,172.1l-9-8.2c0.1-1.3,0.1-2.6,0.1-3.9s0-2.6-0.1-3.9l9-8.2c3.5-3.2,4.3-8.3,2-12.4l-14.6-25.3
			c-2.4-4.1-7.2-6-11.7-4.5l-11.5,3.7c-2.2-1.5-4.5-2.8-6.8-3.9l-2.5-11.9c-1-4.6-5.1-7.9-9.8-7.9h-29.2c-4.7,0-8.8,3.3-9.8,7.9
			l-2.5,11.9c-2.4,1.2-4.6,2.5-6.8,3.9l-11.5-3.7c-4.5-1.4-9.4,0.4-11.7,4.5l-14.6,25.3c-2.4,4.1-1.5,9.3,2,12.4l9,8.2
			c-0.1,1.3-0.1,2.6-0.1,3.9s0,2.6,0.1,3.9l-9,8.2c-3.5,3.2-4.3,8.3-2,12.4l14.6,25.3c2.4,4.1,7.2,6,11.7,4.5l11.5-3.7
			c2.2,1.5,4.5,2.8,6.8,3.9l2.5,11.9c1,4.6,5.1,7.9,9.8,7.9h29.2c4.7,0,8.8-3.3,9.8-7.9l2.5-11.9c2.4-1.2,4.6-2.5,6.8-3.9l11.5,3.7
			c4.5,1.4,9.4-0.4,11.7-4.5l14.6-25.3C265.8,180.4,265,175.3,261.5,172.1z M232.1,153.7c0.3,2.1,0.5,4.2,0.5,6.4s-0.2,4.3-0.5,6.4
			c-0.5,3.3,0.7,6.7,3.2,9l6.8,6.1l-6.5,11.3l-8.7-2.8c-3.2-1-6.7-0.4-9.4,1.7c-3.3,2.7-7,4.8-11,6.4c-3.2,1.2-5.5,3.9-6.2,7.2
			l-1.9,9h-13.1l-1.9-9c-0.7-3.3-3-6-6.2-7.2c-4-1.5-7.7-3.7-11-6.4c-2.6-2.1-6.2-2.8-9.4-1.7l-8.7,2.8l-6.5-11.3l6.8-6.1
			c2.5-2.3,3.7-5.6,3.2-9c-0.3-2.1-0.5-4.2-0.5-6.4s0.2-4.3,0.5-6.4c0.5-3.3-0.7-6.7-3.2-9l-6.8-6.1l6.5-11.3l8.7,2.8
			c3.2,1,6.7,0.4,9.4-1.7c3.3-2.7,7-4.8,11-6.4c3.2-1.2,5.5-3.9,6.2-7.2l1.9-9h13.1l1.9,9c0.7,3.3,3,6,6.2,7.2c4,1.5,7.7,3.7,11,6.4
			c2.6,2.1,6.2,2.8,9.4,1.7l8.7-2.8l6.5,11.3l-6.8,6.1C232.8,146.9,231.6,150.3,232.1,153.7z"/>
	</g>
</g>
<g>
	<g>
		<path class="st0" d="M202.5,46.9c-1.9-1.9-4.4-2.9-7.1-2.9c-2.6,0-5.2,1.1-7.1,2.9c-1.9,1.9-2.9,4.4-2.9,7.1s1.1,5.2,2.9,7.1
			c1.9,1.9,4.4,2.9,7.1,2.9c2.6,0,5.2-1.1,7.1-2.9c1.9-1.9,2.9-4.4,2.9-7.1S204.4,48.8,202.5,46.9z"/>
	</g>
</g>
<g>
	<g>
		<path class="st0" d="M165.7,46.9c-1.9-1.9-4.4-2.9-7.1-2.9c-2.6,0-5.2,1.1-7.1,2.9c-1.9,1.9-2.9,4.4-2.9,7.1
			c0,2.6,1.1,5.2,2.9,7.1c1.9,1.9,4.4,2.9,7.1,2.9c2.6,0,5.2-1.1,7.1-2.9c1.9-1.9,2.9-4.4,2.9-7.1C168.7,51.4,167.6,48.8,165.7,46.9
			z"/>
	</g>
</g>
<g>
	<g>
		<path class="st0" d="M384,44H232.2c-5.5,0-10,4.5-10,10s4.5,10,10,10H384c5.5,0,10-4.5,10-10S389.5,44,384,44z"/>
	</g>
</g>
<g>
	<g>
		<path class="st0" d="M44.9,33.9c-1.9-1.9-4.4-2.9-7.1-2.9c-2.6,0-5.2,1.1-7.1,2.9c-1.9,1.9-2.9,4.4-2.9,7.1s1.1,5.2,2.9,7.1
			c1.9,1.9,4.4,2.9,7.1,2.9c2.6,0,5.2-1.1,7.1-2.9c1.9-1.9,2.9-4.4,2.9-7.1S46.8,35.8,44.9,33.9z"/>
	</g>
</g>
</svg>
