<?xml version="1.0" encoding="utf-8"?>
<!-- Generator: Adobe Illustrator 23.0.2, SVG Export Plug-In . SVG Version: 6.00 Build 0)  -->
<svg version="1.1" id="Layer_1" xmlns="http://www.w3.org/2000/svg" xmlns:xlink="http://www.w3.org/1999/xlink" x="0px" y="0px"
	 viewBox="0 0 512 512" style="enable-background:new 0 0 512 512;" xml:space="preserve">
<style type="text/css">
	.st0{fill:#CF2027;}
</style>
<g>
	<g>
		<path class="st0" d="M420.2,250.2c-20.5-30.4-46.7-53.8-67.8-72.5c-18.9-16.8-35.5-31.7-39.7-44.5c8.8-3.4,15-12,15-22
			c0-9.7-5.9-18.1-14.4-21.7l17.4-68.3c1.9-6.6,0.7-12.7-3.3-16.7c-4-4.1-10.1-5.4-16.8-3.6c-0.1,0-0.3,0.1-0.4,0.1
			C310,1,277.6,11.4,266.8,14.5c-7,2-19.3,2-26.3,0C229.5,11.4,196.7,1,196.4,0.9c-0.1,0-0.2-0.1-0.4-0.1
			c-6.7-1.7-12.8-0.4-16.8,3.7c-4,4.1-5.2,10.2-3.2,16.9c0,0.1,0,0.2,0.1,0.2l22.1,68.2c-8.2,3.7-13.9,11.9-13.9,21.5
			c0,10,6.2,18.5,15,22c-4.2,12.8-20.8,27.7-39.7,44.5c-21.1,18.8-47.3,42.1-67.8,72.5C67.6,286,55.8,324.6,55.8,368
			c0,39.2,15.7,75.1,44.3,101.2c30.6,28,73.4,42.7,123.7,42.7h64.2c50.3,0,93.1-14.8,123.7-42.7c28.6-26.1,44.3-62.1,44.3-101.2
			C456.2,324.6,444.4,286,420.2,250.2L420.2,250.2z M271.9,119.7C271.9,119.7,271.9,119.7,271.9,119.7h-31.8c0,0,0,0,0,0h-32.2
			c-4.7,0-8.5-3.8-8.5-8.5c0-4.7,3.8-8.5,8.5-8.5c0,0,0,0,0,0c0,0,0,0,0,0h40.1c0,0,0,0,0,0c0,0,0,0,0,0h16c0,0,0,0,0,0c0,0,0,0,0,0
			h40.1c4.7,0,8.5,3.8,8.5,8.5s-3.8,8.5-8.5,8.5H271.9L271.9,119.7z M190.1,15.1c0.4,0,1,0,1.9,0.2c3.1,1,33.5,10.6,44.3,13.7
			c9.7,2.8,24.9,2.8,34.6,0c10.7-3.1,40.7-12.6,43.8-13.6c0.9-0.2,1.5-0.2,1.9-0.2c0,0.4,0,1-0.3,2c0,0.1,0,0.1-0.1,0.2l-17.9,70.3
			h-24.6l5.7-22.8c1-4-1.4-8.1-5.5-9.1c-4-1-8.1,1.4-9.1,5.5l-6.6,26.4h-4.3l-6.6-26.4c-1-4-5.1-6.5-9.1-5.5c-4,1-6.5,5.1-5.5,9.1
			l5.7,22.8h-25L190.4,17C190.1,16.1,190.1,15.4,190.1,15.1L190.1,15.1z M401.7,458.2c-27.8,25.4-67.1,38.8-113.6,38.8h-64.2
			c-46.5,0-85.8-13.4-113.6-38.8c-25.4-23.2-39.4-55.2-39.4-90.1c0-91.2,57-142.1,98.7-179.2c22.5-20,40.8-36.3,44.9-54.1h15
			l-4.7,14.2c-1.3,3.9,0.8,8.2,4.8,9.5c0.8,0.3,1.6,0.4,2.4,0.4c3.2,0,6.1-2,7.1-5.1l6.3-18.9h21.3l6.3,18.9c1.1,3.2,4,5.1,7.1,5.1
			c0.8,0,1.6-0.1,2.4-0.4c3.9-1.3,6.1-5.6,4.8-9.5l-4.7-14.2h15c4.1,17.8,22.4,34.1,44.9,54.1c41.7,37.1,98.7,87.9,98.7,179.2
			C441.1,402.9,427.1,434.9,401.7,458.2L401.7,458.2z"/>
		<path class="st0" d="M256,287.3c17.7,0,32.6,9.4,32.6,20.6c0,4.2,3.4,7.5,7.5,7.5c4.2,0,7.5-3.4,7.5-7.5
			c0-18.1-17.1-32.6-40.1-35.2v-9c0-4.2-3.4-7.5-7.5-7.5c-4.2,0-7.5,3.4-7.5,7.5v9c-23,2.6-40.1,17.1-40.1,35.2
			c0,20,20.9,35.6,47.7,35.6c17.7,0,32.6,9.4,32.6,20.6s-14.9,20.6-32.6,20.6s-32.6-9.4-32.6-20.6c0-4.2-3.4-7.5-7.5-7.5
			c-4.2,0-7.5,3.4-7.5,7.5c0,18.1,17.1,32.6,40.1,35.2v9c0,4.2,3.4,7.5,7.5,7.5c4.2,0,7.5-3.4,7.5-7.5v-9
			c23-2.6,40.1-17.1,40.1-35.2c0-20-20.9-35.6-47.7-35.6c-17.7,0-32.6-9.4-32.6-20.6C223.4,296.7,238.3,287.3,256,287.3z"/>
		<path class="st0" d="M256,216c-66.1,0-119.9,53.8-119.9,119.9S189.9,455.8,256,455.8S375.9,402,375.9,335.9S322.1,216,256,216z
			 M256,440.8c-57.8,0-104.8-47-104.8-104.8s47-104.8,104.8-104.8s104.8,47,104.8,104.8S313.8,440.8,256,440.8z"/>
	</g>
</g>
</svg>
