<?xml version="1.0" encoding="utf-8"?>
<!-- Generator: Adobe Illustrator 23.0.2, SVG Export Plug-In . SVG Version: 6.00 Build 0)  -->
<svg version="1.1" id="Layer_1" xmlns="http://www.w3.org/2000/svg" xmlns:xlink="http://www.w3.org/1999/xlink" x="0px" y="0px"
	 viewBox="0 0 512 512" style="enable-background:new 0 0 512 512;" xml:space="preserve">
<style type="text/css">
	.st0{fill:#CF2027;}
</style>
<path class="st0" d="M255.8,142.4c-2.9,0-3.6-0.2-14.1-6.7c-4.8-3-12.3-7.8-20.3-13.5c-21-15-34.4-28-39.7-38.8
	C175,70.1,173,55,176.1,40.9c3-14.1,10.7-25.9,21.4-33.2c10.6-7.2,23.1-9.4,36-6.4c10,2.4,15.8,7.5,22.2,14.1
	C262.1,8.8,268,3.7,278,1.3c13-3.1,25.4-0.8,36,6.4c10.8,7.3,18.4,19.1,21.4,33.2c3,14.1,1.1,29.2-5.6,42.4
	c-5.4,10.7-18.7,23.8-39.7,38.8c-8,5.7-15.5,10.5-20.3,13.5C259.4,142.1,258.7,142.4,255.8,142.4z M222.4,20
	c-4.9,0-9.5,1.4-13.6,4.2c-6.5,4.4-11.2,11.9-13.1,20.9c-2.1,9.7-0.7,20,3.9,29.2c7.5,14.9,42.1,38,56.2,46.5
	c14.1-8.4,48.8-31.5,56.2-46.5c4.6-9.2,6-19.6,3.9-29.2c-2-9-6.6-16.5-13.1-20.9c-5.9-4-12.7-5.2-20.2-3.4c-5.3,1.3-8,3.9-15,11.4
	c-1.4,1.5-2.9,3.1-4.6,4.8c-1.9,1.9-4.5,3-7.2,3c-2.7,0-5.3-1.1-7.2-3c-1.7-1.7-3.2-3.3-4.6-4.8c-7-7.5-9.7-10.1-15-11.4
	C226.7,20.3,224.5,20,222.4,20z"/>
<path class="st0" d="M477.6,512c-0.6,0-1.3-0.1-1.9-0.2c-0.6-0.1-1.3-0.3-1.9-0.6c-0.6-0.3-1.2-0.6-1.7-0.9
	c-0.6-0.4-1.1-0.8-1.5-1.2s-0.9-1-1.2-1.5c-0.4-0.5-0.7-1.1-0.9-1.7c-0.3-0.6-0.4-1.2-0.6-1.9c-0.1-0.6-0.2-1.3-0.2-1.9
	c0-0.6,0.1-1.3,0.2-1.9s0.3-1.3,0.6-1.9c0.3-0.6,0.6-1.2,0.9-1.7c0.4-0.6,0.8-1.1,1.2-1.5c0.5-0.5,1-0.9,1.5-1.2
	c0.5-0.4,1.1-0.7,1.7-0.9c0.6-0.3,1.2-0.5,1.9-0.6c1.3-0.3,2.6-0.3,3.9,0c0.6,0.1,1.3,0.3,1.9,0.6c0.6,0.3,1.2,0.6,1.7,0.9
	c0.5,0.4,1.1,0.8,1.5,1.2c1.9,1.9,2.9,4.4,2.9,7.1c0,0.7-0.1,1.3-0.2,1.9c-0.1,0.6-0.3,1.3-0.6,1.9c-0.3,0.6-0.6,1.2-0.9,1.7
	c-0.4,0.6-0.8,1.1-1.3,1.5s-1,0.9-1.5,1.2c-0.5,0.4-1.1,0.7-1.7,0.9c-0.6,0.3-1.2,0.4-1.9,0.6C478.9,511.9,478.2,512,477.6,512z"/>
<path class="st0" d="M438.9,512h-405c-5.5,0-10-4.5-10-10s4.5-10,10-10h405c5.5,0,10,4.5,10,10S444.4,512,438.9,512z"/>
<path class="st0" d="M427.7,330.5h-18.9v-12.6c37.5-13.8,64.4-49.9,64.4-92.1c0-2.2-0.2-32.8-0.2-32.8c0-50.7-39.1-84.9-97.4-85.1
	c-31-0.1-57.9,9.6-75.6,27.2c-14.7,14.7-22.5,34.4-22.5,56.9c0,0-0.5,32.5-0.5,33.4v0.3c0,42.3,26.9,78.4,64.4,92.1v12.6h-18.9
	c-35.7,0-64.8,29.1-64.8,64.8v62.8c0,5.5,4.5,10,10,10h214.8c5.5,0,10-4.5,10-10v-62.8C492.5,359.6,463.4,330.5,427.7,330.5z
	 M297.5,192.1c0-17.4,5.6-31.8,16.6-42.8c13.8-13.8,35.5-21.4,60.9-21.4h0.4c35.7,0.1,77.5,17.2,77.5,65.1v14.1
	c-4.7-1.2-8.1-3.3-10.3-6.3c-6.1-8.6-2.7-24.2-0.8-29.4c1.1-3.2,0.6-6.7-1.5-9.4c-2-2.7-5.3-4.2-8.6-3.9
	c-2.6,0.2-63.3,4.3-107.4,20.5c-3.3,1.2-5.7,4.1-6.4,7.5c-2.2,11.6-10.1,21.3-20.5,26.2V192.1z M297.5,233.7
	c18.3-5.2,33.2-19.6,38.8-38c28.7-9.7,64.5-14.4,83.5-16.4c-1.2,9.8-0.8,22.7,6.6,33.1c5.9,8.3,14.9,13.4,26.7,15.1
	c-0.9,42.2-35.6,76.3-78,76.3C334.7,303.9,301.4,273,297.5,233.7z M361.5,322.9c4.5,0.6,9,0.9,13.6,0.9s9.2-0.3,13.6-0.9v7.6h-27.3
	V322.9z M277.7,395.3c0-24.7,20.1-44.8,44.8-44.8h8.1v97.6h-52.9V395.3z M350.7,448.1v-97.6h48.9v97.6H350.7z M472.5,448.1h-52.9
	v-97.6h8.1c24.7,0,44.8,20.1,44.8,44.8V448.1z"/>
<path class="st0" d="M219.5,340.2c-8.6-6.4-18.8-9.7-29.4-9.7h-34.4v-9.8c39.7-11.1,69.3-46.4,71.5-89.5c0,0,0,0,0,0
	c0.1-1.6,0.1-3.3,0.1-4.9c0-18.8-5.3-37.1-15.4-52.8c-9.8-15.3-23.7-27.6-40-35.5c-7.1-3.4-14.5-5.9-22-7.6
	c-12.1-19.4-33.3-31.2-56.3-31.2c-36.6,0-66.4,29.8-66.4,66.4c0,11.4,2.9,22.4,8.4,32.3c-2.8,9.1-4.2,18.7-4.2,28.4
	c0,1.6,0,3.3,0.1,4.9v0c2.1,43.1,31.8,78.5,71.5,89.5v9.8H68.4c-10.7,0-20.9,3.4-29.5,9.7C26.4,349.5,19,364.3,19,379.9v78.3
	c0,5.5,4.5,10,10,10h200.4c5.5,0,10-4.5,10-10v-78.3C239.4,364.3,232,349.5,219.5,340.2z M207,220.5c-21.7-2.7-38.6-21.3-38.6-43.8
	c0-0.8,0-1.7,0.1-2.5c0.2-3.6-1.6-7-4.6-9s-6.9-2.1-10.1-0.4c-7.5,4-16,6.1-24.6,6.1c-8.6,0-17.1-2.1-24.6-6.1
	c-3.2-1.7-7-1.5-10.1,0.4s-4.8,5.4-4.6,9c0,0.8,0.1,1.7,0.1,2.5c0,22.5-16.9,41-38.6,43.8c2.1-27.5,18.9-52.5,44-64.6h0
	c10.6-5.1,22-7.7,33.9-7.7c4.1,0,8.2,0.3,12.2,0.9c0.2,0,0.5,0.1,0.7,0.1c7.2,1.2,14.2,3.4,20.9,6.7C188.2,168,205,193,207,220.5z
	 M93.4,119.1c10.3,0,20.1,3.4,28,9.4c-12.1,0.9-23.8,4.1-34.8,9.4c-15.9,7.7-29.4,19.5-39.2,34.2c-0.3-2.2-0.5-4.4-0.5-6.6
	C47,140,67.8,119.1,93.4,119.1z M52.5,240.5c28.5-2.9,51.5-24.6,56.5-52.5c13.1,3.8,27.4,3.8,40.5,0c5,27.9,28,49.5,56.5,52.5
	c-6.7,36.5-38.6,63.8-76.8,63.8C91.1,304.3,59.2,277,52.5,240.5z M112.8,350.5c5.5,0,10-4.5,10-10v-16.4c2.1,0.1,4.3,0.2,6.5,0.2
	s4.3-0.1,6.5-0.2v16.4c0,5.5,4.5,10,10,10h10.6c-7.6,6.3-17.1,9.8-27.1,9.8c-10,0-19.5-3.4-27.1-9.8H112.8z M219.4,448.1H39v-68.3
	c0-9.4,4.3-18,11.9-23.6c5.1-3.8,11.1-5.8,17.5-5.8h5.2L85.1,362c12.2,12.2,28.2,18.3,44.1,18.3c16,0,32-6.1,44.1-18.3l11.5-11.5
	h5.2c6.4,0,12.4,2,17.5,5.8c7.5,5.6,11.9,14.2,11.9,23.6V448.1z"/>
</svg>
