<?xml version="1.0" encoding="utf-8"?>
<!-- Generator: Adobe Illustrator 23.0.2, SVG Export Plug-In . SVG Version: 6.00 Build 0)  -->
<svg version="1.1" id="Capa_1" xmlns="http://www.w3.org/2000/svg" xmlns:xlink="http://www.w3.org/1999/xlink" x="0px" y="0px"
	 viewBox="0 0 512 512" style="enable-background:new 0 0 512 512;" xml:space="preserve">
<style type="text/css">
	.st0{fill:#CF2027;}
</style>
<g>
	<g>
		<path class="st0" d="M437.3,469.3H288v-10.7c0-5.9-4.8-10.7-10.7-10.7h-10.7v-21.9c112.7-5.6,202.7-98.8,202.7-212.8
			C469.3,95.7,373.6,0,256,0S42.7,95.7,42.7,213.3c0,114,90,207.2,202.7,212.8V448h-10.7c-5.9,0-10.7,4.8-10.7,10.7v10.7H74.7
			c-5.9,0-10.7,4.8-10.7,10.7s4.8,10.7,10.7,10.7H224v10.7c0,5.9,4.8,10.7,10.7,10.7h42.7c5.9,0,10.7-4.8,10.7-10.7v-10.7h149.3
			c5.9,0,10.7-4.8,10.7-10.7C448,474.1,443.2,469.3,437.3,469.3z M303.8,399.1c16.5-20.7,29.8-51.8,38.2-89.7H422
			C396.5,353.3,354.1,386.1,303.8,399.1z M324.4,288H187.6c-3.9-22.5-6.2-47.6-6.2-74.7s2.3-52.1,6.2-74.7h136.9
			c3.9,22.5,6.2,47.6,6.2,74.7S328.4,265.5,324.4,288z M448,213.3c0,26.5-5.4,51.7-15.1,74.7H346c3.8-23.2,6-48.2,6-74.7
			c0-26.4-2.2-51.5-6-74.7h86.8C442.6,161.6,448,186.9,448,213.3z M422,117.3H342c-8.4-37.9-21.7-69.1-38.2-89.7
			C354.1,40.6,396.5,73.4,422,117.3z M256,21.3c24.1,0,50,36.7,64.1,96H191.9C206,58.1,231.9,21.3,256,21.3z M208.2,27.6
			c-16.5,20.7-29.8,51.8-38.2,89.7H90C115.5,73.4,157.9,40.6,208.2,27.6z M64,213.3c0-26.5,5.4-51.7,15.1-74.7H166
			c-3.8,23.2-6,48.2-6,74.7c0,26.4,2.2,51.5,6,74.7H79.1C69.4,265,64,239.8,64,213.3z M90,309.3H170c8.4,37.9,21.7,69.1,38.2,89.7
			C157.9,386.1,115.5,353.3,90,309.3z M191.9,309.3h128.2c-14.1,59.3-40,96-64.1,96S206,368.6,191.9,309.3z M266.7,490.7h-21.3
			v-21.3h21.3V490.7z"/>
	</g>
</g>
</svg>
