<?xml version="1.0" encoding="utf-8"?>
<!-- Generator: Adobe Illustrator 23.0.2, SVG Export Plug-In . SVG Version: 6.00 Build 0)  -->
<svg version="1.1" id="Capa_1" xmlns="http://www.w3.org/2000/svg" xmlns:xlink="http://www.w3.org/1999/xlink" x="0px" y="0px"
	 viewBox="0 0 512 512" style="enable-background:new 0 0 512 512;" xml:space="preserve">
<style type="text/css">
	.st0{fill:#CF2027;}
</style>
<g>
	<g>
		<g>
			<path class="st0" d="M309.3,213.3v-96H352c2.8,0,5.5-1.1,7.5-3.1c4.2-4.2,4.2-10.9,0-15.1l-96-96c-4.2-4.2-10.9-4.2-15.1,0
				l-96,96c-2,2-3.1,4.7-3.1,7.5c0,5.9,4.8,10.7,10.7,10.7h42.7v53.3H128V192h85.3c5.9,0,10.7-4.8,10.7-10.7v-74.7
				c0-5.9-4.8-10.7-10.7-10.7h-27.6L256,25.7L326.3,96h-27.6c-5.9,0-10.7,4.8-10.7,10.7V224c0,5.9,4.8,10.7,10.7,10.7h64v-21.3
				H309.3z"/>
		</g>
	</g>
	<g>
		<g>
			<path class="st0" d="M224,245.3v-32c0-5.9-4.8-10.7-10.7-10.7h-32V224h21.3v32c0,5.9,4.8,10.7,10.7,10.7h117.3v-21.3H224z"/>
		</g>
	</g>
	<g>
		<g>
			<path class="st0" d="M501.3,448H480V204c0-18.4-14.9-33.3-33.3-33.3h-116V192h116c6.6,0,12,5.4,12,12v244h-21.3V309.3H416V448H96
				V234.7h32v-21.3H85.3c-5.9,0-10.7,4.8-10.7,10.7v224H53.3V204c0-6.6,5.4-12,12-12h41.3v-21.3H65.3C46.9,170.7,32,185.6,32,204
				v244H10.7C4.8,448,0,452.8,0,458.7v11.6C0,493.3,18.7,512,41.8,512h428.4c23.1,0,41.8-18.7,41.8-41.8v-11.6
				C512,452.8,507.2,448,501.3,448z M470.2,490.7H41.8c-11.3,0-20.4-9.2-20.4-20.4v-0.9h469.3v0.9h0
				C490.7,481.5,481.5,490.7,470.2,490.7z"/>
		</g>
	</g>
	<g>
		<g>
			<path class="st0" d="M426.7,213.3H384v21.3h32v33.6l-55.1,9.2c-4.4,0.7-7.9,4.2-8.7,8.6l-19.8,108.6h-14.3
				c-4.4-12.4-16.2-21.3-30.2-21.3c-17.7,0-32,14.3-32,32s14.3,32,32,32c13.9,0,25.8-8.9,30.2-21.3h23.2c5.2,0,9.6-3.7,10.5-8.8
				l20-110l56.6-9.4c5.1-0.9,8.9-5.3,8.9-10.5V224C437.3,218.1,432.6,213.3,426.7,213.3z M288,416c-5.9,0-10.7-4.8-10.7-10.7
				s4.8-10.7,10.7-10.7s10.7,4.8,10.7,10.7S293.9,416,288,416z"/>
		</g>
	</g>
	<g>
		<g>
			<path class="st0" d="M330.7,309.3V288h-192c-0.7,0-1.4,0.1-2.1,0.2c-5.8,1.2-9.5,6.8-8.3,12.6l21.3,106.7c1,5,5.4,8.5,10.5,8.5
				h23.2c4.4,12.4,16.2,21.3,30.2,21.3c17.7,0,32-14.3,32-32s-14.3-32-32-32c-13.9,0-25.8,8.9-30.2,21.3h-14.4l-8.5-42.7h42.5v10.7
				H224V352h53.3v10.7h21.3V352H320v-21.3h-21.3v-21.3H330.7z M213.3,394.7c5.9,0,10.7,4.8,10.7,10.7s-4.8,10.7-10.7,10.7
				s-10.7-4.8-10.7-10.7C202.7,399.4,207.4,394.7,213.3,394.7z M202.7,330.7h-46.7l-4.3-21.3h51V330.7z M277.3,330.7H224v-21.3h53.3
				V330.7z"/>
		</g>
	</g>
	<g>
		<g>
			<path class="st0" d="M174.7,2.3l-50.4,40.3H74.7V64H128c2.4,0,4.8-0.8,6.7-2.3L188,19L174.7,2.3z"/>
		</g>
	</g>
	<g>
		<g>
			<rect x="42.7" y="85.3" class="st0" width="64" height="21.3"/>
		</g>
	</g>
	<g>
		<g>
			<path class="st0" d="M387.7,42.7L337.3,2.3L324,19l53.3,42.7c1.9,1.5,4.2,2.3,6.7,2.3h53.3V42.7H387.7z"/>
		</g>
	</g>
	<g>
		<g>
			<rect x="405.3" y="85.3" class="st0" width="64" height="21.3"/>
		</g>
	</g>
</g>
</svg>
