<?xml version="1.0" encoding="utf-8"?>
<!-- Generator: Adobe Illustrator 23.0.2, SVG Export Plug-In . SVG Version: 6.00 Build 0)  -->
<svg version="1.1" id="Layer_1" xmlns="http://www.w3.org/2000/svg" xmlns:xlink="http://www.w3.org/1999/xlink" x="0px" y="0px"
	 viewBox="0 0 512 512" style="enable-background:new 0 0 512 512;" xml:space="preserve">
<style type="text/css">
	.st0{fill:#CF2027;}
</style>
<g>
	<path class="st0" d="M492.5,337.8l-20.3-164.7L492.5,8.4c0.3-2.1-0.4-4.3-1.8-5.9c-1.4-1.6-3.5-2.5-5.6-2.5H47.9
		c-3.8,0-7,2.8-7.4,6.6L20.1,172.1c0,0.3-0.1,0.7,0,1c0,0.3,0,0.7,0,1l10.6,86.1c0.5,4.1,4.2,7,8.4,6.5c4.1-0.5,7-4.3,6.5-8.4
		L36,180.7h422.1l18.5,150.5H54.5l-5.2-42.6c-0.5-4.1-4.3-7-8.4-6.5c-4.1,0.5-7,4.2-6.5,8.4l5.9,48.4L20.1,503.6
		c-0.3,2.1,0.4,4.3,1.8,5.9c1.4,1.6,3.5,2.5,5.6,2.5h437.2c3.8,0,7-2.8,7.4-6.6l9.5-77c0.5-4.1-2.4-7.9-6.5-8.4
		c-4.1-0.5-7.9,2.4-8.4,6.5l-8.7,70.4H36l18.5-150.5h422.1l-6.5,53.1c-0.5,4.1,2.4,7.9,6.5,8.4s7.9-2.4,8.4-6.5l7.6-61.6
		c0-0.3,0.1-0.7,0-1C492.6,338.5,492.6,338.2,492.5,337.8z M54.5,15h422.1l-18.5,150.5H36L54.5,15z"/>
	<path class="st0" d="M202.5,293.2c-3.8,0.5-6.6,3.7-6.6,7.4c-3.7,0.5-6.6,3.6-6.6,7.4c0,4.1,3.4,7.5,7.5,7.5h7.5
		c2.2,0,4.2-0.9,5.6-2.5c1.4-1.6,2.1-3.8,1.8-5.9l-0.9-7.4C210.4,295.6,206.6,292.7,202.5,293.2z"/>
	<path class="st0" d="M205.2,254.6c-0.5-4.1-4.3-7-8.4-6.5c-4.1,0.5-7,4.3-6.5,8.4l1.3,10.6c0.5,3.8,3.7,6.6,7.4,6.6
		c0.3,0,0.6,0,1-0.1c4.1-0.5,7-4.3,6.5-8.4L205.2,254.6z"/>
	<path class="st0" d="M199.8,212.7c-0.5-3.7-3.7-6.6-7.4-6.6h-7.5c-4.1,0-7.5,3.4-7.5,7.5s3.4,7.5,7.5,7.5h0.9l0.1,0.9
		c0.5,3.8,3.7,6.6,7.4,6.6c0.3,0,0.6,0,1-0.1c4.1-0.5,7-4.3,6.5-8.4L199.8,212.7z"/>
	<path class="st0" d="M144.8,206.1h-12.3c-4.1,0-7.5,3.4-7.5,7.5s3.4,7.5,7.5,7.5h12.3c4.1,0,7.5-3.4,7.5-7.5
		S148.9,206.1,144.8,206.1z"/>
	<path class="st0" d="M92.4,206.1h-7.5c-2.2,0-4.2,0.9-5.6,2.5c-1.4,1.6-2.1,3.8-1.8,5.9l0.9,7.4c0.5,3.8,3.7,6.6,7.4,6.6
		c0.3,0,0.6,0,1-0.1c3.8-0.5,6.6-3.7,6.6-7.4c3.7-0.5,6.6-3.6,6.6-7.4C99.9,209.5,96.5,206.1,92.4,206.1z"/>
	<path class="st0" d="M92.5,273.6c4.1-0.5,7-4.3,6.5-8.4l-1.3-10.6c-0.5-4.1-4.3-7-8.4-6.5c-4.1,0.5-7,4.3-6.5,8.4l1.3,10.6
		c0.5,3.8,3.7,6.6,7.4,6.6C91.9,273.6,92.2,273.6,92.5,273.6z"/>
	<path class="st0" d="M89.4,309c0.5,3.7,3.7,6.6,7.4,6.6h7.5c4.1,0,7.5-3.4,7.5-7.5s-3.4-7.5-7.5-7.5h-0.9l-0.1-0.9
		c-0.5-4.1-4.3-7-8.4-6.5c-4.1,0.5-7,4.3-6.5,8.4L89.4,309z"/>
	<path class="st0" d="M137,308.1c0,4.1,3.4,7.5,7.5,7.5h12.3c4.1,0,7.5-3.4,7.5-7.5s-3.4-7.5-7.5-7.5h-12.3
		C140.4,300.6,137,303.9,137,308.1z"/>
	<path class="st0" d="M429.5,387l0.9-7.4c0.3-2.1-0.4-4.3-1.8-5.9c-1.4-1.6-3.5-2.5-5.6-2.5h-7.5c-4.1,0-7.5,3.4-7.5,7.5
		c0,3.8,2.9,7,6.6,7.4c0,3.7,2.8,7,6.6,7.4c0.3,0,0.6,0.1,1,0.1C425.8,393.5,429.1,390.8,429.5,387z"/>
	<path class="st0" d="M423.8,432l1.3-10.6c0.5-4.1-2.4-7.9-6.5-8.4c-4.1-0.5-7.9,2.4-8.4,6.5l-1.3,10.6c-0.5,4.1,2.4,7.9,6.5,8.4
		c0.3,0,0.6,0.1,1,0.1C420.1,438.6,423.3,435.8,423.8,432z"/>
	<path class="st0" d="M404.5,464.6l-0.1,0.9h-0.9c-4.1,0-7.5,3.4-7.5,7.5s3.4,7.5,7.5,7.5h7.5c3.8,0,7-2.8,7.4-6.6l0.9-7.4
		c0.5-4.1-2.4-7.9-6.5-8.4S405.1,460.5,404.5,464.6z"/>
	<path class="st0" d="M351.1,465.5c-4.1,0-7.5,3.4-7.5,7.5s3.4,7.5,7.5,7.5h12.3c4.1,0,7.5-3.4,7.5-7.5s-3.4-7.5-7.5-7.5H351.1z"/>
	<path class="st0" d="M297,464.6l-0.9,7.4c-0.3,2.1,0.4,4.3,1.8,5.9c1.4,1.6,3.5,2.5,5.6,2.5h7.5c4.1,0,7.5-3.4,7.5-7.5
		c0-3.8-2.9-7-6.6-7.4c0-3.7-2.8-7-6.6-7.4C301.3,457.6,297.6,460.5,297,464.6z"/>
	<path class="st0" d="M308.9,438.6c3.7,0,6.9-2.8,7.4-6.6l1.3-10.6c0.5-4.1-2.4-7.9-6.5-8.4s-7.9,2.4-8.4,6.5l-1.3,10.6
		c-0.5,4.1,2.4,7.9,6.5,8.4C308.2,438.6,308.6,438.6,308.9,438.6z"/>
	<path class="st0" d="M322,387l0.1-0.9h0.9c4.1,0,7.5-3.4,7.5-7.5s-3.4-7.5-7.5-7.5h-7.5c-3.8,0-7,2.8-7.4,6.6l-0.9,7.4
		c-0.5,4.1,2.4,7.9,6.5,8.4c0.3,0,0.6,0.1,1,0.1C318.3,393.5,321.5,390.8,322,387z"/>
	<path class="st0" d="M382.9,378.6c0-4.1-3.4-7.5-7.5-7.5h-12.3c-4.1,0-7.5,3.4-7.5,7.5s3.4,7.5,7.5,7.5h12.3
		C379.6,386.1,382.9,382.7,382.9,378.6z"/>
	<path class="st0" d="M415.4,206.1H230.6c-4.1,0-7.5,3.4-7.5,7.5s3.4,7.5,7.5,7.5h184.7c4.1,0,7.5-3.4,7.5-7.5
		S419.5,206.1,415.4,206.1z"/>
	<path class="st0" d="M423,248.5H238.3c-4.1,0-7.5,3.4-7.5,7.5c0,4.1,3.4,7.5,7.5,7.5H423c4.1,0,7.5-3.4,7.5-7.5
		C430.5,251.9,427.2,248.5,423,248.5z"/>
	<path class="st0" d="M238.5,298.4c0,4.1,3.4,7.5,7.5,7.5h184.7c4.1,0,7.5-3.4,7.5-7.5c0-4.1-3.4-7.5-7.5-7.5H246
		C241.8,290.9,238.5,294.2,238.5,298.4z"/>
	<path class="st0" d="M71.6,457.9c-4.1,0-7.5,3.4-7.5,7.5c0,4.1,3.4,7.5,7.5,7.5h184.7c4.1,0,7.5-3.4,7.5-7.5c0-4.1-3.4-7.5-7.5-7.5
		H71.6z"/>
	<path class="st0" d="M271.5,423.1c0-4.1-3.4-7.5-7.5-7.5H79.2c-4.1,0-7.5,3.4-7.5,7.5s3.4,7.5,7.5,7.5H264
		C268.1,430.6,271.5,427.2,271.5,423.1z"/>
	<path class="st0" d="M279.1,380.7c0-4.1-3.4-7.5-7.5-7.5H86.9c-4.1,0-7.5,3.4-7.5,7.5s3.4,7.5,7.5,7.5h184.7
		C275.8,388.2,279.1,384.9,279.1,380.7z"/>
	<path class="st0" d="M257.9,123.1H73.1c-4.1,0-7.5,3.4-7.5,7.5c0,4.1,3.4,7.5,7.5,7.5h184.7c4.1,0,7.5-3.4,7.5-7.5
		C265.4,126.5,262,123.1,257.9,123.1z"/>
	<path class="st0" d="M265.5,80.8H80.8c-4.1,0-7.5,3.4-7.5,7.5c0,4.1,3.4,7.5,7.5,7.5h184.7c4.1,0,7.5-3.4,7.5-7.5
		C273,84.1,269.7,80.8,265.5,80.8z"/>
	<path class="st0" d="M273.2,38.4H88.4c-4.1,0-7.5,3.4-7.5,7.5c0,4.1,3.4,7.5,7.5,7.5h184.7c4.1,0,7.5-3.4,7.5-7.5
		C280.7,41.8,277.3,38.4,273.2,38.4z"/>
	<path class="st0" d="M413.8,73.3c-4.1,0.6-7,4.4-6.4,8.5c0.3,2.1,0.4,4.2,0.4,6.3c0,4.3-0.6,8.6-1.8,12.7c-1.2,4,1.1,8.1,5.1,9.3
		c0.7,0.2,1.4,0.3,2.1,0.3c3.2,0,6.2-2.1,7.2-5.4c1.6-5.5,2.4-11.2,2.4-16.9c0-2.8-0.2-5.7-0.6-8.4
		C421.7,75.5,417.9,72.7,413.8,73.3z"/>
	<path class="st0" d="M378.3,130.1c-4,1.4-8.2,2.3-12.5,2.5c-4.1,0.2-7.3,3.8-7.1,7.9c0.2,4,3.5,7.1,7.5,7.1c0.1,0,0.3,0,0.4,0
		c5.7-0.3,11.4-1.4,16.8-3.4c3.9-1.4,5.9-5.7,4.5-9.6C386.5,130.7,382.2,128.7,378.3,130.1z"/>
	<path class="st0" d="M391.2,35.4c-5.1-2.7-10.5-4.6-16.1-5.8c-4.1-0.8-8,1.8-8.8,5.9c-0.8,4.1,1.8,8,5.9,8.8
		c4.2,0.8,8.2,2.3,12,4.3c1.1,0.6,2.3,0.9,3.5,0.9c2.7,0,5.3-1.4,6.6-4C396.3,41.9,394.9,37.4,391.2,35.4z"/>
	<path class="st0" d="M323.1,44.1c-4.2,3.9-7.9,8.3-10.8,13.2c-2.1,3.5-1,8.2,2.5,10.3c1.2,0.7,2.6,1.1,3.9,1.1c2.5,0,5-1.3,6.4-3.6
		c2.2-3.7,4.9-7,8.1-9.9c3.1-2.8,3.3-7.5,0.5-10.6C330.9,41.5,326.2,41.3,323.1,44.1z"/>
	<path class="st0" d="M322.2,105.3c-1.6-3.8-6-5.6-9.8-4c-3.8,1.6-5.6,6-4,9.8c2.2,5.3,5.2,10.2,8.8,14.6c1.5,1.8,3.6,2.8,5.8,2.8
		c1.7,0,3.4-0.6,4.7-1.7c3.2-2.6,3.7-7.3,1.1-10.6C326,113,323.8,109.3,322.2,105.3z"/>
</g>
</svg>
