<?xml version="1.0" encoding="utf-8"?>
<!-- Generator: Adobe Illustrator 23.0.2, SVG Export Plug-In . SVG Version: 6.00 Build 0)  -->
<svg version="1.1" id="Capa_1" xmlns="http://www.w3.org/2000/svg" xmlns:xlink="http://www.w3.org/1999/xlink" x="0px" y="0px"
	 viewBox="0 0 480 480" style="enable-background:new 0 0 480 480;" xml:space="preserve">
<style type="text/css">
	.st0{fill:#D12027;}
</style>
<g>
	<g>
		<path class="st0" d="M32,344h16c0.1-48.6,39.4-87.9,88-88v-16C78.6,240.1,32.1,286.6,32,344z"/>
	</g>
</g>
<g>
	<g>
		<path class="st0" d="M224,344c-0.1,48.6-39.4,87.9-88,88v16c57.4-0.1,103.9-46.6,104-104H224z"/>
	</g>
</g>
<g>
	<g>
		<path class="st0" d="M440,0H104C81.9,0,64,17.9,64,40v188.8C0.3,268.5-19.1,352.3,20.6,416s123.5,83.1,187.2,43.4
			c27.8-17.3,48.4-44.1,58-75.4H368v-16h-25.6L330,312h110c22.1,0,40-17.9,40-40V40C480,17.9,462.1,0,440,0z M252.1,374
			c-13.7,52.9-61.4,89.9-116.1,90c-66.6,0.3-120.9-53.4-121.2-120c-0.3-66.6,53.4-120.9,120-121.2s120.9,53.4,121.2,120
			C256.1,353.3,254.7,363.8,252.1,374z M269.8,368c0.1-0.5,0.1-1,0.2-1.5c0.5-3,0.9-5.9,1.2-8.9c0.1-1,0.2-2,0.3-3
			c0.3-3.6,0.5-7.1,0.5-10.6c0-3.2-0.2-6.4-0.4-9.7c-0.1-1-0.2-1.9-0.3-2.9c-0.2-2.4-0.5-4.7-0.9-7c-0.1-1-0.3-1.9-0.4-2.9
			c-0.5-3.2-1.1-6.3-1.9-9.4v0h45.4l12.4,56L269.8,368L269.8,368z M464,272c0,13.3-10.7,24-24,24H263.2c-0.1-0.4-0.3-0.8-0.5-1.2
			c-1.1-2.9-2.3-5.7-3.7-8.5c-0.2-0.4-0.3-0.8-0.5-1.2c-1.5-3.2-3.2-6.3-5-9.3c-0.5-0.8-1-1.7-1.6-2.5c-1.4-2.2-2.8-4.4-4.3-6.5
			c-0.6-0.9-1.3-1.8-2-2.8c-1.6-2.2-3.3-4.4-5-6.5c-0.4-0.5-0.8-1-1.2-1.5H464L464,272L464,272z M464,240H223.5
			c-1.3-1.1-2.6-2-3.9-3c-1.5-1.2-3-2.4-4.5-3.5c-1.8-1.3-3.6-2.4-5.5-3.6c-1.5-1-3.1-2-4.6-3c-1.9-1.1-3.9-2.1-5.9-3.2
			c-1.6-0.8-3.1-1.7-4.8-2.5c-2-1-4.2-1.8-6.2-2.7c-1.6-0.7-3.2-1.4-4.8-2c-2.2-0.8-4.4-1.5-6.6-2.2c-1.6-0.5-3.2-1.1-4.8-1.5
			c-2.3-0.6-4.7-1.1-7.1-1.6c-1.5-0.3-3.1-0.8-4.6-1c-2.6-0.5-5.3-0.8-8-1.1c-1.3-0.2-2.7-0.4-4-0.5c-4-0.4-8.1-0.6-12.1-0.6
			c-4.3,0-8.6,0.3-12.9,0.7c-0.9,0.1-1.7,0.2-2.6,0.3c-4.1,0.5-8.3,1.1-12.4,2c-0.7,0.2-1.5,0.4-2.2,0.5c-3.8,0.9-7.6,1.9-11.3,3.1
			c-0.5,0.2-1,0.3-1.6,0.5c-4,1.3-7.9,2.9-11.7,4.6c-0.4,0.2-0.9,0.3-1.3,0.5V40c0-13.3,10.7-24,24-24h336c13.3,0,24,10.7,24,24V240
			z"/>
	</g>
</g>
<g>
	<g>
		<path class="st0" d="M183,360.1c-1.6-6.2-5-11.8-9.9-16.1c13.2-11.6,14.6-31.8,2.9-45c-4.2-4.8-9.8-8.3-16.1-9.9V272h-16v16h-16
			v-16h-16v16H96c-4.4,0-8,3.6-8,8v96c0,4.4,3.6,8,8,8h16v16h16v-16h16v16h16v-17.1C177.1,394.5,187.4,377.1,183,360.1z M152,384
			h-48v-32h48c8.8,0,16,7.2,16,16S160.9,384,152,384z M152,336h-48v-32h48c8.8,0,16,7.2,16,16S160.9,336,152,336z"/>
	</g>
</g>
<g>
	<g>
		<path class="st0" d="M424,48h-32v16h12.7L321,147.7l-34.5-48.3c-1.4-2-3.8-3.3-6.2-3.4c-2.5-0.1-4.9,1-6.5,2.9L208,179.4
			l-33.8-40.6c-1.5-1.9-3.9-3-6.4-2.9c-2.4,0.1-4.7,1.2-6.2,3.2l-24,32l12.8,9.6l17.9-23.9l33.5,40.2c1.5,1.8,3.8,2.9,6.2,2.9
			c2.4,0,4.6-1.1,6.2-2.9l65.4-79.9l33.9,47.5c2.6,3.6,7.6,4.4,11.2,1.9c0.4-0.3,0.7-0.5,1-0.8L416,75.3V88h16V56
			C432,51.6,428.4,48,424,48z"/>
	</g>
</g>
<g>
	<g>
		<rect x="104" y="48" class="st0" width="16" height="16"/>
	</g>
</g>
<g>
	<g>
		<rect x="104" y="80" class="st0" width="16" height="16"/>
	</g>
</g>
<g>
	<g>
		<rect x="104" y="112" class="st0" width="16" height="16"/>
	</g>
</g>
<g>
	<g>
		<rect x="104" y="144" class="st0" width="16" height="16"/>
	</g>
</g>
<g>
	<g>
		<rect x="104" y="176" class="st0" width="16" height="16"/>
	</g>
</g>
<g>
	<g>
		<rect x="224" y="208" class="st0" width="16" height="16"/>
	</g>
</g>
<g>
	<g>
		<rect x="256" y="208" class="st0" width="16" height="16"/>
	</g>
</g>
<g>
	<g>
		<rect x="288" y="208" class="st0" width="16" height="16"/>
	</g>
</g>
<g>
	<g>
		<rect x="320" y="208" class="st0" width="16" height="16"/>
	</g>
</g>
<g>
	<g>
		<rect x="352" y="208" class="st0" width="16" height="16"/>
	</g>
</g>
<g>
	<g>
		<rect x="384" y="208" class="st0" width="16" height="16"/>
	</g>
</g>
<g>
	<g>
		<rect x="416" y="208" class="st0" width="16" height="16"/>
	</g>
</g>
</svg>
