<?xml version="1.0" encoding="utf-8"?>
<!-- Generator: Adobe Illustrator 23.0.2, SVG Export Plug-In . SVG Version: 6.00 Build 0)  -->
<svg version="1.1" id="Capa_1" xmlns="http://www.w3.org/2000/svg" xmlns:xlink="http://www.w3.org/1999/xlink" x="0px" y="0px"
	 viewBox="0 0 512 512" style="enable-background:new 0 0 512 512;" xml:space="preserve">
<style type="text/css">
	.st0{fill:#D12027;}
</style>
<g>
	<g>
		<g>
			<path class="st0" d="M477.9,128.3c-21.6-37.5-52.7-69.2-89.8-91.6l-7.8,12.9c15.6,9.4,29.9,20.4,42.7,32.7l-29.2,29.2
				C359.7,78.8,314,58.1,263.5,56.3v-41c33.5,1,65.8,8.8,96,23.2l6.5-13.6C331.5,8.3,294.5,0,256,0C187.6,0,123.3,26.6,75,75
				C26.6,123.3,0,187.6,0,256s26.6,132.7,75,181c48.4,48.4,112.6,75,181,75s132.7-26.6,181-75s75-112.6,75-181
				C512,211.1,500.2,166.9,477.9,128.3z M433.6,93c38.7,42,61.4,96.6,63.1,155.4h-41c-1.8-48.4-20.9-92.5-51.3-126.2L433.6,93z
				 M248.5,15.2v41C199,58.1,154.1,78,120.2,109.5l-29-29C132.6,41.6,187.7,17.1,248.5,15.2z M80.5,91.2l29,29
				C78,154.1,58.1,199,56.3,248.5h-41C17.1,187.7,41.6,132.6,80.5,91.2z M15.2,263.5h41c1.9,50.4,22.5,96.2,55.2,130.4l-29,29
				C42.4,381.3,17.1,325.3,15.2,263.5z M248.5,496.8c-59.7-1.8-114-25.5-155.2-63.3l29-29c33.7,30.4,77.8,49.5,126.2,51.3
				L248.5,496.8L248.5,496.8z M71.2,256c0-101.9,82.9-184.8,184.8-184.8S440.8,154.1,440.8,256c0,101.9-82.9,184.8-184.8,184.8
				S71.2,357.9,71.2,256z M263.5,496.8v-41c49.4-1.8,94.3-21.7,128.3-53.2l29,29C379.4,470.4,324.3,494.9,263.5,496.8z M431.5,420.8
				l-29-29c31.5-34,51.4-78.9,53.2-128.3h41C494.9,324.3,470.4,379.4,431.5,420.8z"/>
			<path class="st0" d="M256,136.2c-66,0-119.8,53.7-119.8,119.8c0,31.5,12.2,61.3,34.2,83.8l10.8-10.6
				c-19.3-19.7-29.9-45.7-29.9-73.2c0-57.7,46.9-104.7,104.7-104.7S360.7,198.3,360.7,256s-47,104.7-104.7,104.7
				c-21.5,0-42.2-6.5-59.8-18.8l-8.6,12.4c20.1,14.1,43.8,21.5,68.4,21.5c66,0,119.8-53.7,119.8-119.8
				C375.7,190,322,136.2,256,136.2z"/>
			<rect x="248" y="96.2" class="st0" width="16" height="15.1"/>
			<rect x="248" y="400.7" class="st0" width="16" height="15.1"/>
			<rect x="95.7" y="248.5" class="st0" width="16" height="15.1"/>
			<rect x="135.8" y="136.3" class="st0" width="16" height="15.1"/>
			<rect x="368.2" y="144.3" class="st0" width="16" height="15.1"/>
			<rect x="368.2" y="352.6" class="st0" width="16" height="15.1"/>
			<rect x="127.8" y="352.6" class="st0" width="16" height="15.1"/>
			<rect x="400.3" y="248.5" class="st0" width="16" height="15.1"/>
			<path class="st0" d="M184.3,256h15.1c0-31.2,25.4-56.6,56.6-56.6v-15.1C216.5,184.3,184.3,216.5,184.3,256z"/>
			<path class="st0" d="M256,327.7c39.5,0,71.7-32.1,71.7-71.7h-15.1c0,31.2-25.4,56.6-56.6,56.6L256,327.7L256,327.7z"/>
		</g>
	</g>
</g>
</svg>
