<?xml version="1.0" encoding="utf-8"?>
<!-- Generator: Adobe Illustrator 23.0.2, SVG Export Plug-In . SVG Version: 6.00 Build 0)  -->
<svg version="1.1" id="Layer_1" xmlns="http://www.w3.org/2000/svg" xmlns:xlink="http://www.w3.org/1999/xlink" x="0px" y="0px"
	 viewBox="0 0 852 852" style="enable-background:new 0 0 852 852;" xml:space="preserve">
<style type="text/css">
	.st0{fill:#D12027;}
</style>
<path class="st0" d="M821.3,451.1c-0.6-1.1-1.3-2-2.1-2.9c-0.2-0.3-0.4-0.6-0.6-0.9c-1.3-1.2-30.6-26.9-102.1-29.8V404
	c0-7.3-6-13.3-13.3-13.3c-7.3,0-13.3,6-13.3,13.3v13.6c-69.4,2.8-98.9,27-101.8,29.5l-0.3,0.2c-0.1,0.1-0.2,0.3-0.3,0.4
	c-1,1-1.9,2.2-2.5,3.5c-0.2,0.4-0.4,0.7-0.5,1.1c-0.7,1.5-1,3.2-1.1,4.9v83.4c-29.5-12.1-61.3-17.8-93.2-16.9
	c-36-1.6-71.9,6.1-104,22.3c-12.3-38.5-32.1-74.1-58.3-104.9c-20.8-27-37.3-48.4-37.3-77.2c0-12.7,10.9-29.2,30.6-46.6
	c8.3-7.3,11.2-19,7.3-29.3c-3.9-10.3-13.8-17.2-24.8-17.2H117.8c-11.1,0-20.9,6.9-24.8,17.2c-3.9,10.4-1,22,7.3,29.3
	c19.8,17.4,30.6,33.9,30.6,46.6c-0.2,13.8-3.9,27.3-10.8,39.2c-27.3-4.3-52.6-16.6-72.9-35.3c-3.3-3.5-8.3-4.8-12.9-3.6
	c-4.7,1.2-8.3,4.9-9.5,9.5c-1.2,4.7,0.2,9.6,3.6,12.9c13.8,12.9,29.6,23.4,46.8,31.2c-25.8,10-50.7,26.4-50.7,52.6
	c0,7.4,6,13.3,13.3,13.3s13.3-6,13.3-13.3c0-12.5,20.6-23.7,44.1-31.3c-0.5,0.7-1,1.3-1.5,2c-30.8,40-69.2,89.9-69.2,185.6
	c0,124.1,64.4,189.7,186.3,189.7c76.4,0,130.2-25.8,159.7-75.5v35.6c0,3.8,1.6,7.4,4.4,9.9c1.4,1.2,34.2,30.1,115.4,30.1
	c59,0,91.9-14.8,106.6-23.7c14.6,8.8,47.9,23.7,106.4,23.7c84.4,0,115.6-30.2,115.9-30.5c2.5-2.5,3.9-5.9,3.9-9.4V457.2
	C822.9,455.1,822.4,453,821.3,451.1z M117.8,297.5h185.8c-17.6,13.6-30.7,32.1-37.8,53.2H155.6C148.6,329.6,135.4,311.1,117.8,297.5
	z M272.3,404H149.2c3.7-8.5,6.2-17.5,7.4-26.6h108.3C266.2,386.5,268.7,395.5,272.3,404z M210.7,789.9
	c-107.5,0-159.7-53.3-159.7-163c0-86.7,33.8-130.6,63.6-169.4c6.9-9,13.6-17.9,19.7-26.9h152.7c6.1,9.1,12.8,17.9,19.7,26.9
	c29.8,38.8,63.7,82.7,63.7,169.4C370.5,736.6,318.2,789.9,210.7,789.9z M490.2,550.4c27.1-0.8,54,3.8,79.4,13.3l-1.3,0.5
	c-1.3,0.5-2.7,1.1-4.1,1.6c-0.8,0.3-1.6,0.5-2.4,0.8c-1.4,0.5-2.8,1-4.3,1.4l-3,0.9c-1.5,0.4-3.1,0.9-4.7,1.3
	c-1.1,0.3-2.3,0.6-3.5,0.9c-1.7,0.4-3.5,0.8-5.3,1.1c-1.3,0.3-2.6,0.5-3.9,0.8c-1.9,0.3-3.8,0.7-5.8,1c-1.4,0.2-2.8,0.5-4.3,0.7
	c-2.1,0.3-4.4,0.6-6.7,0.8c-1.5,0.2-2.9,0.3-4.5,0.5c-2.6,0.2-5.3,0.4-8,0.6c-1.4,0.1-2.7,0.2-4.1,0.2c-4.2,0.2-8.6,0.3-13.2,0.3
	c-4.6,0-9-0.1-13.2-0.3c-1.4,0-2.8-0.2-4.2-0.2c-2.7-0.2-5.4-0.3-8-0.6c-1.6-0.1-3-0.3-4.5-0.5c-2.3-0.3-4.5-0.5-6.6-0.8
	c-1.5-0.2-2.9-0.4-4.3-0.6c-2-0.3-4-0.6-5.9-1c-1.3-0.2-2.6-0.5-3.9-0.8c-1.8-0.4-3.6-0.8-5.3-1.2c-1.2-0.3-2.3-0.6-3.4-0.8
	c-1.7-0.4-3.3-0.9-4.9-1.3c-0.9-0.3-1.9-0.5-2.8-0.8c-1.7-0.5-3.2-1-4.7-1.5l-2-0.7c-1.7-0.6-3.3-1.2-4.8-1.9l-0.8-0.3
	C436.2,554.1,463.2,549.6,490.2,550.4z M583.4,769.8c-10.3,6.3-39.1,20.2-93.2,20.2c-54.1,0-82.9-13.9-93.2-20.2v-23.3
	c0.6,0.3,1.4,0.6,2.1,0.8c1.4,0.6,2.8,1.2,4.4,1.8c1,0.4,2.2,0.8,3.2,1.2c1.5,0.6,3.1,1.1,4.8,1.7c1.2,0.4,2.5,0.8,3.8,1.2
	c1.7,0.5,3.5,1,5.3,1.5c1.4,0.4,2.9,0.8,4.3,1.1c1.9,0.5,3.9,1,5.9,1.4c1.6,0.4,3.2,0.7,4.8,1c2.2,0.4,4.4,0.8,6.6,1.2
	c1.7,0.3,3.4,0.6,5.2,0.8c2.5,0.4,5.1,0.7,7.7,1c1.8,0.2,3.5,0.4,5.3,0.6c3,0.3,6.2,0.5,9.3,0.7c1.6,0.1,3.2,0.3,4.8,0.3
	c4.9,0.2,10.1,0.4,15.5,0.4c5.4,0,10.8-0.1,16-0.4c0.6,0,1.2-0.1,1.8-0.1c4.6-0.2,9-0.6,13.2-1c21.4-1.7,42.4-6.9,62.2-15.3V769.8z
	 M583.4,716.5l-0.3,0.2c-1.2,0.7-2.7,1.5-4.3,2.4l-0.6,0.3c-1.5,0.8-3.3,1.7-5.3,2.5c-0.4,0.2-0.9,0.4-1.3,0.6c-2.2,1-4.7,2-7.4,3
	l-1.6,0.5c-2.5,0.9-5.3,1.7-8.2,2.7l-1.7,0.5c-3.4,0.9-7,1.8-10.9,2.7l-2.7,0.5c-3.7,0.7-7.7,1.4-11.9,2l-1.6,0.2
	c-4.6,0.6-9.5,1.1-14.6,1.5l-3.7,0.2c-5.4,0.3-11.1,0.5-17.1,0.5s-11.7-0.2-17.2-0.5c-1.2-0.1-2.5-0.1-3.7-0.2
	c-5.2-0.4-10.1-0.8-14.6-1.4c-0.6-0.1-1.1-0.2-1.6-0.2c-4.2-0.6-8.1-1.3-11.9-2l-2.6-0.5c-3.9-0.8-7.6-1.7-10.9-2.7l-1.7-0.5
	c-3-0.8-5.7-1.7-8.3-2.7l-1.5-0.5c-2.7-1-5.2-2-7.5-3l-1.3-0.6c-2-0.9-3.8-1.8-5.3-2.6l-0.5-0.2c-1.7-0.9-3.1-1.7-4.3-2.4l-0.3-0.2
	v-23.3c0.6,0.3,1.4,0.6,2.1,0.9c1.4,0.6,2.8,1.2,4.4,1.8c1,0.4,2.2,0.8,3.2,1.2c1.5,0.6,3.1,1.1,4.8,1.7c1.2,0.4,2.5,0.8,3.8,1.2
	c1.7,0.5,3.5,1,5.3,1.5c1.4,0.4,2.9,0.8,4.3,1.1c1.9,0.5,3.9,0.9,5.9,1.4c1.6,0.3,3.2,0.7,4.8,1c2.2,0.4,4.4,0.8,6.6,1.2
	c1.7,0.3,3.4,0.6,5.2,0.8c2.5,0.4,5.1,0.7,7.7,1c1.8,0.2,3.5,0.4,5.3,0.6c3,0.3,6.2,0.5,9.3,0.7c1.6,0.1,3.2,0.2,4.8,0.3
	c4.9,0.2,10.1,0.4,15.5,0.4c5.4,0,10.8-0.1,16-0.4c0.6,0,1.2-0.1,1.8-0.1c4.6-0.2,9-0.6,13.2-1c21.4-1.7,42.4-6.9,62.2-15.3V716.5z
	 M583.4,663.3l-0.3,0.2c-1.2,0.7-2.7,1.5-4.3,2.4l-0.6,0.3c-1.5,0.8-3.3,1.7-5.3,2.5c-0.4,0.2-0.9,0.4-1.3,0.6c-2.2,1-4.7,2-7.4,3
	l-1.6,0.5c-2.5,0.9-5.3,1.7-8.2,2.7l-1.7,0.5c-3.4,0.9-7,1.8-10.9,2.7l-2.7,0.5c-3.7,0.7-7.7,1.4-11.9,2l-1.6,0.2
	c-4.6,0.6-9.5,1.1-14.6,1.5l-3.7,0.2c-5.4,0.3-11.1,0.5-17.1,0.5s-11.7-0.2-17.2-0.5c-1.2-0.1-2.5-0.1-3.7-0.2
	c-5.2-0.4-10.1-0.8-14.6-1.5c-0.6-0.1-1.1-0.2-1.6-0.2c-4.2-0.6-8.1-1.3-11.9-2l-2.6-0.5c-3.9-0.8-7.6-1.7-10.9-2.7l-1.7-0.5
	c-3-0.9-5.7-1.7-8.3-2.7l-1.5-0.5c-2.7-1-5.2-2-7.5-3l-1.3-0.6c-2-0.9-3.8-1.8-5.3-2.6l-0.5-0.3c-1.7-0.9-3.1-1.7-4.3-2.4l-0.3-0.2
	V640c0.6,0.3,1.4,0.6,2.1,0.9c1.4,0.6,2.8,1.2,4.4,1.8c1,0.4,2.2,0.8,3.2,1.2c1.5,0.6,3.1,1.1,4.8,1.7c1.2,0.4,2.5,0.8,3.8,1.2
	c1.7,0.5,3.5,1,5.3,1.5c1.4,0.4,2.9,0.8,4.3,1.1c1.9,0.5,3.9,0.9,5.9,1.4c1.6,0.3,3.2,0.7,4.8,1c2.2,0.4,4.4,0.8,6.6,1.2
	c1.7,0.3,3.4,0.6,5.2,0.8c2.5,0.4,5.1,0.7,7.7,1c1.8,0.2,3.5,0.4,5.3,0.6c3,0.3,6.2,0.5,9.3,0.7c1.6,0.1,3.2,0.2,4.8,0.3
	c4.9,0.2,10.1,0.4,15.5,0.4c5.4,0,10.8-0.2,16-0.4c0.6,0,1.2-0.1,1.8-0.1c4.6-0.2,9-0.6,13.2-1c21.4-1.7,42.4-6.9,62.2-15.3V663.3z
	 M583.4,610l-0.3,0.2c-1.2,0.7-2.7,1.5-4.3,2.4l-0.6,0.3c-1.5,0.8-3.3,1.7-5.3,2.5c-0.4,0.2-0.9,0.4-1.3,0.6c-2.2,1-4.7,2-7.4,3
	l-1.6,0.5c-2.5,0.9-5.3,1.8-8.2,2.7l-1.7,0.5c-3.4,0.9-7,1.8-10.9,2.7l-2.7,0.5c-3.7,0.7-7.7,1.4-11.9,2l-1.6,0.2
	c-4.6,0.6-9.5,1.1-14.6,1.4l-3.7,0.2c-5.4,0.3-11.1,0.5-17.1,0.5s-11.7-0.2-17.2-0.5c-1.2-0.1-2.5-0.1-3.7-0.2
	c-5.2-0.4-10.1-0.8-14.6-1.5c-0.6-0.1-1.1-0.2-1.6-0.2c-4.2-0.6-8.1-1.3-11.9-2l-2.6-0.5c-3.9-0.8-7.6-1.7-10.9-2.7l-1.7-0.5
	c-3-0.9-5.7-1.7-8.3-2.7l-1.5-0.5c-2.7-1-5.2-2-7.5-3l-1.3-0.6c-2-0.9-3.8-1.8-5.3-2.6l-0.5-0.3c-1.7-0.9-3.1-1.7-4.3-2.4l-0.3-0.2
	v-23.3c0.6,0.3,1.4,0.6,2.1,0.9c1.4,0.6,2.8,1.2,4.4,1.8c1,0.4,2.2,0.8,3.2,1.2c1.5,0.6,3.1,1.1,4.8,1.7c1.2,0.4,2.5,0.8,3.8,1.2
	c1.7,0.5,3.5,1,5.3,1.5c1.4,0.4,2.9,0.8,4.3,1.1c1.9,0.5,3.9,0.9,5.9,1.4c1.6,0.4,3.2,0.7,4.8,1c2.2,0.4,4.4,0.8,6.6,1.2
	c1.7,0.3,3.4,0.6,5.2,0.8c2.5,0.4,5.1,0.7,7.7,1c1.8,0.2,3.5,0.4,5.3,0.6c3,0.3,6.2,0.5,9.3,0.7c1.6,0.1,3.2,0.2,4.8,0.3
	c4.9,0.2,10.1,0.4,15.5,0.4c5.4,0,10.5-0.1,15.4-0.4c1.7-0.1,3.2-0.2,4.8-0.3c3.2-0.2,6.4-0.4,9.3-0.7c1.8-0.2,3.5-0.4,5.3-0.6
	c2.7-0.3,5.2-0.6,7.7-1c1.8-0.3,3.5-0.5,5.2-0.8c2.3-0.4,4.5-0.8,6.7-1.2c1.7-0.3,3.2-0.7,4.8-1c2-0.4,4-0.9,5.9-1.4
	c1.5-0.4,2.9-0.7,4.3-1.1c1.8-0.5,3.6-1,5.3-1.5c1.3-0.4,2.7-0.8,3.8-1.2c1.7-0.5,3.2-1.1,4.8-1.7c1.1-0.4,2.2-0.8,3.2-1.2
	c1.5-0.6,3-1.2,4.4-1.8c0.7-0.3,1.4-0.6,2.1-0.9L583.4,610z M703.2,443.9c27.1-0.8,54,3.8,79.4,13.3l-1.4,0.6c-1.3,0.5-2.6,1-4,1.5
	c-0.8,0.3-1.7,0.6-2.5,0.9c-1.3,0.5-2.8,0.9-4.2,1.3l-3.1,0.9c-1.5,0.4-3,0.8-4.6,1.3l-3.6,0.9c-1.6,0.4-3.3,0.8-5.1,1.1
	c-1.3,0.3-2.7,0.5-4,0.8c-1.9,0.3-3.8,0.7-5.8,1c-1.4,0.2-2.9,0.5-4.4,0.7c-2.1,0.3-4.4,0.5-6.7,0.8c-1.5,0.2-3,0.3-4.5,0.5
	c-2.6,0.2-5.3,0.4-8,0.6c-1.4,0.1-2.7,0.2-4.2,0.2c-4.2,0.2-8.6,0.3-13.2,0.3c-4.6,0-9-0.1-13.2-0.3c-1.4,0-2.8-0.2-4.2-0.2
	c-2.7-0.2-5.4-0.3-8-0.6c-1.6-0.1-3-0.3-4.5-0.5c-2.3-0.2-4.5-0.5-6.6-0.8c-1.5-0.2-2.8-0.4-4.3-0.6c-2-0.3-4-0.6-5.9-1
	c-1.3-0.2-2.7-0.5-3.9-0.8c-1.8-0.4-3.6-0.8-5.3-1.2c-1.2-0.3-2.3-0.5-3.4-0.8c-1.7-0.4-3.3-0.9-4.9-1.3c-0.9-0.3-1.9-0.5-2.8-0.8
	c-1.7-0.5-3.2-1-4.7-1.5l-2-0.7c-1.7-0.6-3.3-1.2-4.8-1.9l-0.8-0.2C649.2,447.6,676.1,443.1,703.2,443.9z M796.4,769.8
	c-10.3,6.3-39.1,20.2-93.2,20.2c-54.1,0-82.9-13.9-93.2-20.2v-23.3c0.6,0.3,1.3,0.6,2.1,0.8c1.4,0.6,2.8,1.2,4.4,1.8
	c1,0.4,2.2,0.8,3.2,1.2c1.5,0.6,3.1,1.1,4.7,1.7c1.3,0.4,2.5,0.8,3.9,1.2c1.7,0.5,3.4,1,5.3,1.5c1.4,0.4,2.9,0.8,4.4,1.2
	c1.9,0.5,3.9,0.9,5.9,1.3c1.6,0.3,3.2,0.7,4.8,1c2.1,0.4,4.4,0.8,6.7,1.2c1.7,0.3,3.4,0.6,5.2,0.8c2.5,0.4,5.1,0.7,7.7,1
	c1.8,0.2,3.5,0.4,5.3,0.6c3,0.3,6.2,0.5,9.3,0.7c1.6,0.1,3.2,0.3,4.9,0.3c5,0.2,10.1,0.4,15.4,0.4c5.4,0,10.8-0.1,16-0.4
	c0.6,0,1.2-0.1,1.8-0.1c25.9-0.8,51.5-6.2,75.4-16.2V769.8z M796.4,716.5l-0.4,0.2c-1.2,0.7-2.5,1.5-4.1,2.3l-0.9,0.4
	c-1.5,0.8-3.1,1.6-5,2.4l-1.5,0.7c-2.2,0.9-4.6,1.9-7.3,2.9c-0.6,0.2-1.2,0.4-1.8,0.6c-2.4,0.9-5.1,1.7-7.9,2.5
	c-0.7,0.2-1.3,0.4-1.9,0.6c-3.3,0.9-6.9,1.8-10.8,2.6c-0.9,0.2-1.8,0.4-2.8,0.5c-3.7,0.7-7.6,1.4-11.7,2l-1.7,0.2
	c-4.6,0.6-9.5,1.1-14.6,1.4c-1.2,0.1-2.5,0.2-3.7,0.2c-5.4,0.3-11.1,0.5-17.1,0.5s-11.7-0.2-17.2-0.5c-1.3-0.1-2.5-0.1-3.7-0.2
	c-5.2-0.4-10.1-0.8-14.6-1.5c-0.6-0.1-1.1-0.2-1.6-0.2c-4.2-0.6-8.1-1.3-11.9-2l-2.6-0.5c-3.9-0.8-7.6-1.7-10.9-2.7l-1.7-0.5
	c-3-0.9-5.7-1.7-8.3-2.7l-1.5-0.5c-2.7-1-5.2-2-7.5-3l-1.3-0.6c-2-0.9-3.8-1.8-5.3-2.6l-0.5-0.3c-1.7-0.9-3.1-1.7-4.3-2.4l-0.4-0.1
	v-23.3c0.6,0.3,1.3,0.6,2.1,0.9c1.4,0.6,2.8,1.2,4.4,1.8c1,0.4,2.2,0.8,3.2,1.2c1.5,0.6,3.1,1.1,4.7,1.7c1.3,0.4,2.5,0.8,3.9,1.2
	c1.7,0.5,3.4,1,5.3,1.5c1.4,0.4,2.9,0.8,4.4,1.2c1.9,0.5,3.9,0.9,5.9,1.3c1.6,0.3,3.2,0.7,4.8,1c2.1,0.4,4.4,0.8,6.7,1.2
	c1.7,0.3,3.4,0.6,5.2,0.8c2.5,0.4,5.1,0.7,7.7,1c1.8,0.2,3.5,0.4,5.3,0.6c3,0.3,6.2,0.5,9.3,0.7c1.6,0.1,3.2,0.3,4.9,0.3
	c5,0.2,10.1,0.4,15.4,0.4c5.4,0,10.8-0.1,16-0.4c0.6,0,1.2-0.1,1.8-0.1c25.9-0.8,51.5-6.3,75.4-16.2V716.5z M796.4,663.3l-0.4,0.2
	c-1.2,0.7-2.5,1.5-4.1,2.3l-0.9,0.4c-1.5,0.8-3.1,1.6-5,2.4l-1.5,0.7c-2.2,0.9-4.6,1.9-7.3,2.9c-0.6,0.2-1.2,0.4-1.8,0.6
	c-2.4,0.9-5.1,1.7-7.9,2.5c-0.7,0.2-1.3,0.4-1.9,0.6c-3.3,0.9-6.9,1.8-10.8,2.6c-0.9,0.2-1.8,0.4-2.8,0.5c-3.7,0.7-7.6,1.4-11.7,2
	l-1.7,0.3c-4.6,0.6-9.5,1.1-14.6,1.4c-1.2,0.1-2.5,0.2-3.7,0.2c-5.4,0.3-11.1,0.6-17.1,0.6s-11.7-0.2-17.2-0.6
	c-1.3-0.1-2.5-0.1-3.7-0.2c-5.2-0.4-10.1-0.8-14.6-1.5c-0.6-0.1-1.1-0.2-1.6-0.2c-4.2-0.6-8.1-1.3-11.9-2l-2.6-0.5
	c-3.9-0.8-7.6-1.7-10.9-2.7l-1.7-0.5c-3-0.9-5.7-1.7-8.3-2.7l-1.5-0.5c-2.7-1-5.2-2-7.5-3l-1.3-0.6c-2-0.9-3.8-1.7-5.3-2.6l-0.5-0.2
	c-1.7-0.9-3.1-1.7-4.3-2.4l-0.4-0.1V640c0.6,0.3,1.3,0.6,2.1,0.9c1.4,0.6,2.8,1.2,4.4,1.8c1,0.4,2.2,0.8,3.2,1.2
	c1.5,0.6,3.1,1.1,4.7,1.7c1.3,0.4,2.5,0.8,3.9,1.2c1.7,0.5,3.4,1,5.3,1.5c1.4,0.4,2.9,0.8,4.4,1.2c1.9,0.5,3.9,0.9,5.9,1.3
	c1.6,0.3,3.2,0.7,4.8,1c2.1,0.4,4.4,0.8,6.7,1.2c1.7,0.3,3.4,0.6,5.2,0.8c2.5,0.4,5.1,0.7,7.7,1c1.8,0.2,3.5,0.4,5.3,0.6
	c3,0.3,6.2,0.5,9.3,0.7c1.6,0.1,3.2,0.3,4.9,0.3c5,0.2,10.1,0.4,15.4,0.4c5.4,0,10.8-0.1,16-0.4c0.6,0,1.2-0.1,1.8-0.1
	c25.9-0.8,51.5-6.3,75.4-16.2V663.3z M796.4,610l-0.4,0.2c-1.2,0.7-2.5,1.5-4.1,2.3L791,613c-1.5,0.8-3.1,1.6-5,2.4l-1.5,0.7
	c-2.2,0.9-4.6,1.9-7.3,2.9c-0.6,0.2-1.2,0.4-1.8,0.6c-2.4,0.9-5.1,1.7-7.9,2.5c-0.7,0.2-1.3,0.4-1.9,0.6c-3.3,0.9-6.9,1.8-10.8,2.6
	c-0.9,0.2-1.8,0.4-2.8,0.5c-3.7,0.7-7.6,1.4-11.7,2l-1.7,0.3c-4.6,0.6-9.5,1.1-14.6,1.4c-1.2,0.1-2.5,0.2-3.7,0.2
	c-5.4,0.3-11.1,0.6-17.1,0.6s-11.7-0.2-17.2-0.6c-1.3-0.1-2.5-0.1-3.7-0.2c-5.2-0.4-10.1-0.8-14.6-1.4c-0.6-0.1-1.1-0.2-1.6-0.2
	c-4.2-0.6-8.1-1.3-11.9-2l-2.6-0.5c-3.9-0.8-7.6-1.7-10.9-2.7l-1.7-0.5c-3-0.9-5.7-1.7-8.3-2.7l-1.5-0.5c-2.7-1-5.2-2-7.5-3
	l-1.3-0.6c-2-0.9-3.8-1.8-5.3-2.6l-0.5-0.2c-1.7-0.9-3.1-1.7-4.3-2.4L610,610v-23.3c0.6,0.3,1.3,0.6,2.1,0.9
	c1.4,0.6,2.8,1.2,4.4,1.8c1,0.4,2.2,0.8,3.2,1.2c1.5,0.6,3.1,1.1,4.7,1.7c1.3,0.4,2.5,0.8,3.9,1.2c1.7,0.5,3.4,1,5.3,1.5
	c1.4,0.4,2.9,0.8,4.4,1.2c1.9,0.5,3.9,0.9,5.9,1.3c1.6,0.3,3.2,0.7,4.8,1c2.1,0.4,4.4,0.8,6.7,1.2c1.7,0.3,3.4,0.6,5.2,0.8
	c2.5,0.4,5.1,0.7,7.7,1c1.8,0.2,3.5,0.4,5.3,0.6c3,0.3,6.2,0.5,9.3,0.7c1.6,0.1,3.2,0.2,4.9,0.3c5,0.2,10.1,0.4,15.4,0.4
	c5.4,0,10.8-0.1,16-0.4c0.6,0,1.2-0.1,1.8-0.1c25.9-0.8,51.5-6.3,75.4-16.2V610z M796.4,556.8L796,557c-1.2,0.7-2.5,1.5-4.1,2.3
	l-0.9,0.4c-1.5,0.8-3.1,1.6-5,2.4l-1.5,0.7c-2.2,0.9-4.6,1.9-7.3,2.9c-0.6,0.2-1.2,0.4-1.8,0.6c-2.4,0.9-5.1,1.7-7.9,2.5
	c-0.7,0.2-1.3,0.4-1.9,0.6c-3.3,0.9-6.9,1.8-10.8,2.6c-0.9,0.2-1.8,0.4-2.8,0.5c-3.7,0.7-7.6,1.4-11.7,2l-1.7,0.3
	c-4.6,0.6-9.5,1.1-14.6,1.4c-1.2,0.1-2.5,0.2-3.7,0.2c-5.4,0.3-11.1,0.5-17.1,0.5s-11.7-0.2-17.2-0.5c-1.3-0.1-2.5-0.1-3.7-0.2
	c-5.2-0.4-10.1-0.8-14.6-1.5c-0.6-0.1-1.1-0.2-1.6-0.2c-4.2-0.6-8.1-1.3-11.9-2l-2.6-0.5c-3.9-0.8-7.6-1.7-10.9-2.7l-1.7-0.5
	c-3-0.9-5.7-1.7-8.3-2.7l-1.5-0.5c-2.7-1-5.2-2-7.5-3l-1.3-0.6c-2-0.9-3.8-1.8-5.3-2.6l-0.5-0.3c-1.7-0.9-3.1-1.7-4.3-2.4l-0.4-0.1
	v-23.3c0.6,0.3,1.3,0.6,2.1,0.9c1.4,0.6,2.8,1.2,4.4,1.8c1,0.4,2.2,0.8,3.2,1.2c1.5,0.6,3.1,1.1,4.7,1.7c1.3,0.4,2.5,0.8,3.9,1.2
	c1.7,0.5,3.4,1,5.3,1.5c1.4,0.4,2.9,0.8,4.4,1.2c1.9,0.5,3.9,0.9,5.9,1.3c1.6,0.3,3.2,0.7,4.8,1c2.1,0.4,4.4,0.8,6.7,1.2
	c1.7,0.3,3.4,0.6,5.2,0.8c2.5,0.4,5.1,0.7,7.7,1c1.8,0.2,3.5,0.4,5.3,0.6c3,0.3,6.2,0.5,9.3,0.7c1.6,0.1,3.2,0.3,4.9,0.3
	c5,0.2,10.1,0.4,15.4,0.4c5.4,0,10.8-0.1,16-0.4c0.6,0,1.2-0.1,1.8-0.1c25.9-0.7,51.5-6.2,75.4-16.2V556.8z M796.4,503.6l-0.4,0.2
	c-1.2,0.7-2.5,1.5-4.1,2.3l-0.9,0.4c-1.5,0.8-3.1,1.6-5,2.4l-1.5,0.7c-2.2,0.9-4.6,1.9-7.3,2.9c-0.6,0.2-1.2,0.4-1.8,0.6
	c-2.4,0.9-5.1,1.7-7.9,2.5c-0.7,0.2-1.3,0.4-1.9,0.6c-3.3,0.9-6.9,1.8-10.8,2.6c-0.9,0.2-1.8,0.4-2.8,0.6c-3.7,0.7-7.6,1.4-11.7,2
	l-1.7,0.3c-4.6,0.6-9.5,1.1-14.6,1.4c-1.2,0.1-2.5,0.2-3.7,0.2c-5.4,0.3-11.1,0.5-17.1,0.5s-11.7-0.2-17.2-0.5
	c-1.3-0.1-2.5-0.1-3.7-0.2c-5.2-0.4-10.1-0.8-14.6-1.5c-0.6-0.1-1.1-0.2-1.6-0.2c-4.2-0.6-8.1-1.3-11.9-2l-2.6-0.5
	c-3.9-0.8-7.6-1.7-10.9-2.7l-1.7-0.5c-3-0.9-5.7-1.7-8.3-2.7l-1.5-0.5c-2.7-1-5.2-2-7.5-3l-1.3-0.6c-2-0.9-3.8-1.8-5.3-2.6l-0.5-0.3
	c-1.7-0.9-3.1-1.7-4.3-2.4l-0.4-0.1v-23.3c0.6,0.3,1.3,0.6,2.1,0.9c1.4,0.6,2.8,1.2,4.4,1.8c1,0.4,2.2,0.8,3.2,1.2
	c1.5,0.6,3.1,1.1,4.7,1.7c1.3,0.4,2.5,0.8,3.9,1.2c1.7,0.5,3.4,1,5.3,1.5c1.4,0.4,2.9,0.8,4.4,1.2c1.9,0.5,3.9,0.9,5.9,1.3
	c1.6,0.3,3.2,0.7,4.8,1c2.1,0.4,4.4,0.8,6.7,1.2c1.7,0.3,3.4,0.6,5.2,0.8c2.5,0.4,5.1,0.7,7.7,1c1.8,0.2,3.5,0.4,5.3,0.6
	c3,0.3,6.2,0.5,9.3,0.7c1.6,0.1,3.2,0.2,4.9,0.3c5,0.2,10.1,0.4,15.4,0.4c5.4,0,10.5-0.1,15.5-0.4c1.7-0.1,3.2-0.2,4.8-0.3
	c3.2-0.2,6.4-0.4,9.4-0.7c1.8-0.2,3.5-0.4,5.2-0.6c2.7-0.3,5.3-0.6,7.8-1c1.7-0.3,3.4-0.5,5-0.8c2.3-0.4,4.6-0.8,6.9-1.2
	c1.6-0.3,3.1-0.6,4.6-1c2.1-0.5,4.2-0.9,6.1-1.4c1.4-0.4,2.8-0.7,4.1-1.1c1.9-0.5,3.8-1.1,5.6-1.6c1.2-0.4,2.4-0.7,3.6-1.1
	c1.8-0.6,3.5-1.2,5.1-1.8c1-0.4,2-0.7,2.9-1.1c1.7-0.7,3.3-1.3,4.8-2c0.6-0.2,1.2-0.5,1.8-0.7V503.6z"/>
<path class="st0" d="M703.2,310.8c-7.3,0-13.3,6-13.3,13.3v26.6c0,7.4,6,13.3,13.3,13.3c7.4,0,13.3-6,13.3-13.3v-26.6
	C716.5,316.8,710.6,310.8,703.2,310.8z"/>
<path class="st0" d="M716.5,244.2c0-7.4-6-13.3-13.3-13.3c-7.3,0-13.3,6-13.3,13.3v26.6c0,7.4,6,13.3,13.3,13.3
	c7.4,0,13.3-6,13.3-13.3V244.2z"/>
<path class="st0" d="M716.5,164.4c0-7.4-6-13.3-13.3-13.3c-7.3,0-13.3,6-13.3,13.3V191c0,7.3,6,13.3,13.3,13.3
	c7.4,0,13.3-6,13.3-13.3V164.4z"/>
<path class="st0" d="M397.1,57.9h26.6c7.3,0,13.3-6,13.3-13.3c0-7.4-6-13.3-13.3-13.3h-26.6c-7.4,0-13.3,6-13.3,13.3
	C383.8,51.9,389.7,57.9,397.1,57.9z"/>
<path class="st0" d="M343.8,57.9c7.3,0,13.3-6,13.3-13.3c0-7.4-6-13.3-13.3-13.3h-26.6c-7.4,0-13.3,6-13.3,13.3
	c0,7.3,6,13.3,13.3,13.3H343.8z"/>
<path class="st0" d="M197.4,198.8l-17.2-17.2c-5.2-5-13.5-5-18.7,0.2c-5.1,5.1-5.2,13.4-0.2,18.7l39.9,39.9c1.2,1.2,2.7,2.2,4.3,2.9
	c3.3,1.4,6.9,1.4,10.2,0c1.6-0.7,3.1-1.6,4.3-2.9l39.9-39.9c5-5.2,5-13.5-0.2-18.7c-5.1-5.1-13.4-5.2-18.7-0.2l-17.2,17.2v-34.4
	c0-7.4-6-13.3-13.3-13.3c-7.3,0-13.3,6-13.3,13.3V198.8z"/>
<path class="st0" d="M503.6,57.9c7.4,0,13.3-6,13.3-13.3c0-7.4-6-13.3-13.3-13.3h-26.6c-7.4,0-13.3,6-13.3,13.3
	c0,7.3,6,13.3,13.3,13.3H503.6z"/>
<path class="st0" d="M583.4,57.9c7.4,0,13.3-6,13.3-13.3c0-7.4-6-13.3-13.3-13.3h-26.6c-7.3,0-13.3,6-13.3,13.3
	c0,7.3,6,13.3,13.3,13.3H583.4z"/>
<path class="st0" d="M716.5,71.2c0-22-17.9-39.9-39.9-39.9h-39.9c-7.3,0-13.3,6-13.3,13.3c0,7.3,6,13.3,13.3,13.3h39.9
	c7.4,0,13.3,6,13.3,13.3v39.9c0,7.3,6,13.3,13.3,13.3c7.4,0,13.3-6,13.3-13.3V71.2z"/>
<path class="st0" d="M210.7,124.5c7.4,0,13.3-6,13.3-13.3V71.2c0-7.3,6-13.3,13.3-13.3H264c7.4,0,13.3-6,13.3-13.3
	c0-7.4-6-13.3-13.3-13.3h-26.6c-22,0-39.9,17.9-39.9,39.9v39.9C197.4,118.5,203.4,124.5,210.7,124.5z"/>
<path class="st0" d="M295.4,558.8c-0.1-0.1-0.2-0.1-0.3-0.2c-46.7-46.5-122.1-46.5-168.8,0c-0.1,0.1-0.2,0.1-0.3,0.2
	c-0.1,0.1-0.1,0.2-0.2,0.3c-46.5,46.6-46.5,122.1,0,168.8c0.1,0.1,0.1,0.2,0.2,0.3c0.1,0.1,0.2,0.1,0.3,0.2
	c46.6,46.5,122.1,46.5,168.8,0c0.1-0.1,0.2-0.1,0.3-0.2c0.1-0.1,0.1-0.2,0.2-0.3c46.5-46.7,46.5-122.1,0-168.8
	C295.5,559.1,295.5,558.9,295.4,558.8z M224.1,551.4c15.4,2.2,29.9,8.2,42.4,17.6l-19,19c-7.1-4.7-15-8-23.3-9.7V551.4z
	 M197.4,551.4v26.9c-8.3,1.7-16.3,5-23.3,9.7l-19-19.1C167.5,559.7,182.1,553.6,197.4,551.4z M136.2,587.9l19,19
	c-4.7,7.1-8,15-9.7,23.3h-26.9C120.8,614.9,126.9,600.3,136.2,587.9z M118.6,656.9h26.9c1.7,8.3,5,16.2,9.7,23.3l-19.1,19
	C126.9,686.8,120.8,672.2,118.6,656.9z M197.4,735.6c-15.4-2.2-30-8.2-42.4-17.6l19-19c7.1,4.7,15,8,23.3,9.7V735.6z M170.8,643.5
	c0-16.2,9.7-30.7,24.6-36.9c14.9-6.2,32.1-2.8,43.5,8.7c11.4,11.4,14.8,28.6,8.7,43.5c-6.2,14.9-20.7,24.6-36.9,24.6
	C188.7,683.5,170.8,665.6,170.8,643.5z M224.1,735.6v-26.9c8.3-1.7,16.3-5,23.3-9.7l19,19.1C254,727.4,239.4,733.4,224.1,735.6z
	 M285.3,699.2l-19-19c4.7-7.1,8-15,9.7-23.3h26.9C300.6,672.2,294.6,686.8,285.3,699.2z M276,630.2c-1.7-8.3-5-16.2-9.7-23.3
	l19.1-19c9.3,12.4,15.4,27,17.6,42.4H276z"/>
</svg>
