<?xml version="1.0" encoding="utf-8"?>
<!-- Generator: Adobe Illustrator 23.0.2, SVG Export Plug-In . SVG Version: 6.00 Build 0)  -->
<svg version="1.1" id="Layer_1" xmlns="http://www.w3.org/2000/svg" xmlns:xlink="http://www.w3.org/1999/xlink" x="0px" y="0px"
	 viewBox="0 0 496 496" style="enable-background:new 0 0 496 496;" xml:space="preserve">
<style type="text/css">
	.st0{fill:#CF2027;}
</style>
<path class="st0" d="M40,48h240v56c0,4.4,3.6,8,8,8h56v64h16v-72c0-2.2-0.9-4.2-2.4-5.7l-64-64c-1.5-1.5-3.5-2.4-5.7-2.4H72V16h304
	v176h16V8c0-4.4-3.6-8-8-8H64c-4.4,0-8,3.6-8,8v24H32c-4.4,0-8,3.6-8,8v448c0,4.4,3.6,8,8,8h272v-16H40V48z M296,59.3L332.7,96H296
	V59.3z"/>
<path class="st0" d="M464,240h-12c-35.7,0-69.3-15.7-92.2-43.2l-1.6-1.9c-3-3.7-9.3-3.7-12.3,0l-1.6,1.9
	C321.4,224.3,287.8,240,252,240h-12c-4.4,0-8,3.6-8,8v129.6c0,31.5,17,60.8,44.3,76.4l71.7,41c1.2,0.7,2.6,1.1,4,1.1s2.7-0.4,4-1.1
	l71.7-41c27.4-15.6,44.3-44.9,44.3-76.4V248C472,243.6,468.4,240,464,240z M456,377.6c0,25.8-13.9,49.7-36.3,62.5L352,478.8
	l-67.7-38.7c-22.4-12.8-36.3-36.7-36.3-62.5V256h4c38.2,0,74.2-15.9,100-43.8c25.7,27.9,61.8,43.8,100,43.8h4V377.6z"/>
<path class="st0" d="M352,264c-48.5,0-88,39.5-88,88s39.5,88,88,88s88-39.5,88-88S400.5,264,352,264z M352,424
	c-39.7,0-72-32.3-72-72s32.3-72,72-72s72,32.3,72,72S391.7,424,352,424z"/>
<path class="st0" d="M348.2,376.9l-14.5-14.5l-11.3,11.3l24,24c1.5,1.5,3.6,2.3,5.7,2.3c0.6,0,1.3-0.1,2-0.2
	c2.7-0.7,4.9-2.8,5.7-5.5l24-80l-15.3-4.6L348.2,376.9z"/>
<path class="st0" d="M56,128h208v16H56V128z"/>
<path class="st0" d="M56,160h208v16H56V160z"/>
<path class="st0" d="M56,192h208v16H56V192z"/>
<path class="st0" d="M56,224h160v16H56V224z"/>
<path class="st0" d="M56,256h160v16H56V256z"/>
<path class="st0" d="M56,288h160v16H56V288z"/>
<path class="st0" d="M56,384h160v16H56V384z"/>
<path class="st0" d="M56,416h160v16H56V416z"/>
<path class="st0" d="M56,448h160v16H56V448z"/>
<path class="st0" d="M64,64h16v16H64V64z"/>
<path class="st0" d="M96,64h16v16H96V64z"/>
<path class="st0" d="M128,64h16v16h-16V64z"/>
<path class="st0" d="M160,64h104v16H160V64z"/>
</svg>
