<?xml version="1.0" encoding="utf-8"?>
<!-- Generator: Adobe Illustrator 23.0.2, SVG Export Plug-In . SVG Version: 6.00 Build 0)  -->
<svg version="1.1" id="Layer_1" xmlns="http://www.w3.org/2000/svg" xmlns:xlink="http://www.w3.org/1999/xlink" x="0px" y="0px"
	 viewBox="0 0 480 480.1" style="enable-background:new 0 0 480 480.1;" xml:space="preserve">
<style type="text/css">
	.st0{fill:#D12027;}
</style>
<path class="st0" d="M176.1,200.1v32c-17.7,0-32,14.3-32,32v80c0,17.7,14.3,32,32,32h128c17.7,0,32-14.3,32-32v-80
	c0-17.7-14.3-32-32-32h-8v16h8c8.8,0,16,7.2,16,16v80c0,8.8-7.2,16-16,16h-128c-8.8,0-16-7.2-16-16v-80c0-8.8,7.2-16,16-16h96v-16
	h-48v-24h32v-16h-32c-8.8,0-16,7.2-16,16v24h-16v-32c0-13.3,10.7-24,24-24h48c13.3,0,24,10.7,24,24h16c0-22.1-17.9-40-40-40h-48
	C194,160.1,176.1,178,176.1,200.1z"/>
<path class="st0" d="M264.1,288.1v-16c0-4.4-3.6-8-8-8h-8v-8h-16v8h-8c-4.4,0-8,3.6-8,8v32c0,4.4,3.6,8,8,8h24v16h-16v-8h-16v16
	c0,4.4,3.6,8,8,8h32c4.4,0,8-3.6,8-8v-32c0-4.4-3.6-8-8-8h-24v-16h16v8H264.1z"/>
<path class="st0" d="M320.1,208.1h72v192h-304v-192h72v-16h-80c-4.4,0-8,3.6-8,8v208c0,4.4,3.6,8,8,8h320c4.4,0,8-3.6,8-8v-208
	c0-4.4-3.6-8-8-8h-80V208.1z"/>
<path class="st0" d="M472.1,432.1H8.1c-4.4,0-8,3.6-8,8c0,22.1,17.9,40,40,40h400c22.1,0,40-17.9,40-40
	C480.1,435.7,476.5,432.1,472.1,432.1z M440.1,464.1h-400c-10.2,0-19.2-6.4-22.6-16h445.3C459.3,457.7,450.2,464.1,440.1,464.1z"/>
<path class="st0" d="M40.1,168.1v248h16v-240h104v-16h-112C43.6,160.1,40.1,163.7,40.1,168.1z"/>
<path class="st0" d="M320.1,176.1h104v240h16v-248c0-4.4-3.6-8-8-8h-112V176.1z"/>
<path class="st0" d="M72.1,48.1c0.1-12.2-9.1-22.5-21.2-23.9c-12.1-1.4-23.4,6.5-26.2,18.4s3.9,24,15.4,28.1v33.5c0,4.4,3.6,8,8,8
	h40v32h16v-40c0-4.4-3.6-8-8-8h-40V70.6C65.6,67.2,72,58.2,72.1,48.1z M48.1,40.1c4.4,0,8,3.6,8,8s-3.6,8-8,8s-8-3.6-8-8
	S43.6,40.1,48.1,40.1z"/>
<path class="st0" d="M456.1,48.1c-10.3,0-19.5,6.6-22.8,16.3c-3.3,9.8,0.1,20.6,8.4,26.7l-12.9,12.9h-60.7c-4.4,0-8,3.6-8,8v32h16
	v-24h56c2.1,0,4.2-0.8,5.7-2.3l22-22c12.4-1.9,21.2-13,20.2-25.5C479,57.7,468.6,48.1,456.1,48.1z M456.1,80.1c-4.4,0-8-3.6-8-8
	s3.6-8,8-8s8,3.6,8,8S460.5,80.1,456.1,80.1z"/>
<path class="st0" d="M324.1,89.2c-2.5,1.4-4,4.1-4,6.9v48h16v-43.4l52-29.7c2.5-1.4,4-4.1,4-6.9V46.6c11-3.9,17.6-15.2,15.7-26.7
	c-2-11.5-12-19.9-23.7-19.9s-21.7,8.4-23.7,19.9c-2,11.5,4.6,22.8,15.7,26.7v12.8L324.1,89.2z M384.1,16.1c4.4,0,8,3.6,8,8
	s-3.6,8-8,8s-8-3.6-8-8S379.6,16.1,384.1,16.1z"/>
<path class="st0" d="M104.1,0.1v56c0,2.4,1.1,4.7,3,6.2l37,29.6v52.2h16v-56c0-2.4-1.1-4.7-3-6.2l-37-29.6V0.1L104.1,0.1z"/>
<path class="st0" d="M144.1,16.1v24c0,2.4,1.1,4.7,3,6.2l37,29.6v44.2h16v-48c0-2.4-1.1-4.7-3-6.2l-37-29.6V16.1H144.1z"/>
<path class="st0" d="M297.4,32c3.9-0.6,6.7-4,6.7-7.9v-24h-16v17.2l-41.3,6.9c-3.9,0.6-6.7,4-6.7,7.9v17.5c-9.6,3.3-16,12.4-16,22.5
	s6.4,19.2,16,22.5v17.5c0,3.7,2.5,6.9,6.1,7.8l25.9,6.5v17.8h16v-24c0-3.7-2.5-6.9-6.1-7.8l-25.9-6.5V94.6c9.6-3.3,16-12.4,16-22.5
	c0-10.1-6.4-19.2-16-22.5V38.9L297.4,32z M248.1,80.1c-4.4,0-8-3.6-8-8s3.6-8,8-8s8,3.6,8,8S252.5,80.1,248.1,80.1z"/>
</svg>
