<?xml version="1.0" encoding="utf-8"?>
<!-- Generator: Adobe Illustrator 23.0.2, SVG Export Plug-In . SVG Version: 6.00 Build 0)  -->
<svg version="1.1" id="Capa_1" xmlns="http://www.w3.org/2000/svg" xmlns:xlink="http://www.w3.org/1999/xlink" x="0px" y="0px"
	 viewBox="0 0 480 480" style="enable-background:new 0 0 480 480;" xml:space="preserve">
<style type="text/css">
	.st0{fill:#CF2027;}
</style>
<g>
	<g>
		<path class="st0" d="M360,32h-72V8c0-4.4-3.6-8-8-8H88c-4.4,0-8,3.6-8,8v24H8c-4.4,0-8,3.6-8,8v432c0,4.4,3.6,8,8,8h352
			c4.4,0,8-3.6,8-8V40C368,35.6,364.4,32,360,32z M96,16h176v16H96V16z M96,48h176v32h-65.4c-4.4-12.5-18.1-19.1-30.6-14.6
			c-6.8,2.4-12.2,7.8-14.6,14.6H96V48z M352,464H16V48h64v40c0,4.4,3.6,8,8,8h80c4.4,0,8-3.6,8-8s3.6-8,8-8s8,3.6,8,8s3.6,8,8,8h80
			c4.4,0,8-3.6,8-8V48h64V464z"/>
	</g>
</g>
<g>
	<g>
		<path class="st0" d="M80,112c-17.7,0-32,14.3-32,32s14.3,32,32,32s32-14.3,32-32S97.7,112,80,112z M80,160c-8.8,0-16-7.2-16-16
			s7.2-16,16-16s16,7.2,16,16S88.8,160,80,160z"/>
	</g>
</g>
<g>
	<g>
		<path class="st0" d="M80,192c-17.7,0-32,14.3-32,32s14.3,32,32,32s32-14.3,32-32S97.7,192,80,192z M80,240c-8.8,0-16-7.2-16-16
			s7.2-16,16-16s16,7.2,16,16S88.8,240,80,240z"/>
	</g>
</g>
<g>
	<g>
		<path class="st0" d="M312,120H200c-4.4,0-8,3.6-8,8s3.6,8,8,8h112c4.4,0,8-3.6,8-8S316.4,120,312,120z"/>
	</g>
</g>
<g>
	<g>
		<path class="st0" d="M168,120h-32c-4.4,0-8,3.6-8,8s3.6,8,8,8h32c4.4,0,8-3.6,8-8S172.4,120,168,120z"/>
	</g>
</g>
<g>
	<g>
		<path class="st0" d="M312,152h-64c-4.4,0-8,3.6-8,8s3.6,8,8,8h64c4.4,0,8-3.6,8-8S316.4,152,312,152z"/>
	</g>
</g>
<g>
	<g>
		<path class="st0" d="M216,152h-80c-4.4,0-8,3.6-8,8s3.6,8,8,8h80c4.4,0,8-3.6,8-8S220.4,152,216,152z"/>
	</g>
</g>
<g>
	<g>
		<path class="st0" d="M312,200h-32c-4.4,0-8,3.6-8,8s3.6,8,8,8h32c4.4,0,8-3.6,8-8S316.4,200,312,200z"/>
	</g>
</g>
<g>
	<g>
		<path class="st0" d="M248,200H136c-4.4,0-8,3.6-8,8s3.6,8,8,8h112c4.4,0,8-3.6,8-8S252.4,200,248,200z"/>
	</g>
</g>
<g>
	<g>
		<path class="st0" d="M312,232h-88c-4.4,0-8,3.6-8,8s3.6,8,8,8h88c4.4,0,8-3.6,8-8S316.4,232,312,232z"/>
	</g>
</g>
<g>
	<g>
		<path class="st0" d="M192,232h-56c-4.4,0-8,3.6-8,8s3.6,8,8,8h56c4.4,0,8-3.6,8-8S196.4,232,192,232z"/>
	</g>
</g>
<g>
	<g>
		<path class="st0" d="M448,32.8V32c0-17.7-14.3-32-32-32s-32,14.3-32,32v384c0,0.1,0.1,0.2,0.1,0.3c0,0.8,0.2,1.7,0.5,2.5
			c0.1,0.2,0.1,0.4,0.2,0.5c0.1,0.2,0.1,0.2,0.1,0.3l23.2,46.3v6.1c0,4.4,3.6,8,8,8s8-3.6,8-8v-6.1l23.2-46.3c0-0.1,0.1-0.2,0.1-0.3
			c0-0.1,0.1-0.4,0.2-0.5c0.3-0.8,0.5-1.6,0.5-2.5c0-0.1,0.1-0.2,0.1-0.3V49.5c9.5,3.4,15.9,12.4,16,22.5v72c0,4.4,3.6,8,8,8
			s8-3.6,8-8V72C480,53,466.6,36.6,448,32.8z M416,446.1L404.9,424h22.1L416,446.1z M432,408h-32V184h32V408z M432,168h-32V48h32
			V168z M400,32c0-8.8,7.2-16,16-16s16,7.2,16,16H400z"/>
	</g>
</g>
<g>
	<g>
		<path class="st0" d="M240,312v-16h-24c-2.1,0-4.2,0.8-5.7,2.3l-6.1,6.1c-30.6-37.7-86.1-43.5-123.8-12.8s-43.5,86.1-12.8,123.8
			s86.1,43.5,123.8,12.8c0.8-0.6,1.5-1.2,2.2-1.9c3.8-3.3,7.3-7,10.5-11l6.2,6.2c1.5,1.5,3.6,2.3,5.7,2.3h24v-16h-20.7l-6.1-6.1
			c14.4-26.1,14.4-57.7,0.1-83.9l6-6L240,312L240,312z M201.4,390.1l-11.7-11.7l-11.3,11.3l14.5,14.4c-1.4,1.7-2.8,3.4-4.3,5.1
			L147.3,368h60.2C206.7,375.6,204.6,383.1,201.4,390.1z M128,352c-4.4,0-8,3.6-8,8c0,2.1,0.8,4.2,2.3,5.7l53.9,53.9
			c-32.9,22.3-77.7,13.7-100-19.2s-13.7-77.7,19.2-100c31.4-21.3,74-14.5,97.3,15.5l-14.5,14.5l11.3,11.3l11.7-11.7
			c3.3,7,5.4,14.4,6.2,22L128,352L128,352z"/>
	</g>
</g>
<g>
	<g>
		<path class="st0" d="M288,272c-17.7,0-32,14.3-32,32s14.3,32,32,32s32-14.3,32-32S305.7,272,288,272z M288,320
			c-8.8,0-16-7.2-16-16s7.2-16,16-16s16,7.2,16,16S296.8,320,288,320z"/>
	</g>
</g>
<g>
	<g>
		<path class="st0" d="M288,384c-17.7,0-32,14.3-32,32s14.3,32,32,32s32-14.3,32-32S305.7,384,288,384z M288,432
			c-8.8,0-16-7.2-16-16s7.2-16,16-16s16,7.2,16,16S296.8,432,288,432z"/>
	</g>
</g>
</svg>
