<?xml version="1.0" encoding="utf-8"?>
<!-- Generator: Adobe Illustrator 23.0.2, SVG Export Plug-In . SVG Version: 6.00 Build 0)  -->
<svg version="1.1" id="Capa_1" xmlns="http://www.w3.org/2000/svg" xmlns:xlink="http://www.w3.org/1999/xlink" x="0px" y="0px"
	 viewBox="0 0 512 512" style="enable-background:new 0 0 512 512;" xml:space="preserve">
<style type="text/css">
	.st0{fill:#CF2027;}
</style>
<g>
	<g>
		<path class="st0" d="M485.5,108.2C485.2,108,260.6,1,260.6,1c-2.9-1.4-6.3-1.4-9.2,0c0,0-224.6,107-224.9,107.2
			c-3.2,1.9-5.1,5.4-5.1,9.1v256c0,3.8,2,7.4,5.4,9.3l223.9,128c0,0,0,0,0,0c0,0,0,0,0,0l0,0l0,0c1.6,0.9,3.5,1.4,5.3,1.4
			c1.8,0,3.6-0.5,5.3-1.4l224-128c3.3-1.9,5.4-5.4,5.4-9.3v-256C490.7,113.6,488.7,110.1,485.5,108.2z M256,22.5l84.5,40.2L256,103
			l-84.5-40.2L256,22.5z M128,415.9l-85.3-48.8V263l85.3,44.7V415.9z M128,283.6l-85.3-44.7V135l85.3,44.7V283.6z M55.9,117.8
			l90.8-43.2l84.5,40.2l-94.8,45.2L55.9,117.8z M245.3,483l-96-54.9V318.8l96,50.3V483z M245.3,345l-96-50.3V190.8l96,50.3V345z
			 M256,222.6l-96-50.3l96-45.7l96,45.7L256,222.6z M362.7,428.1l-96,54.9V369.1l96-50.3V428.1z M362.7,294.8l-96,50.3V241.1
			l96-50.3V294.8z M280.8,114.8l84.5-40.2l90.8,43.2l-80.5,42.2L280.8,114.8z M469.3,367.1L384,415.9V307.7l85.3-44.7V367.1z
			 M469.3,238.9L384,283.6V179.7l85.3-44.7V238.9z"/>
	</g>
</g>
</svg>
