<?xml version="1.0" encoding="utf-8"?>
<!-- Generator: Adobe Illustrator 23.0.2, SVG Export Plug-In . SVG Version: 6.00 Build 0)  -->
<svg version="1.1" id="Capa_1" xmlns="http://www.w3.org/2000/svg" xmlns:xlink="http://www.w3.org/1999/xlink" x="0px" y="0px"
	 viewBox="0 0 512 512" style="enable-background:new 0 0 512 512;" xml:space="preserve">
<style type="text/css">
	.st0{fill:#CF2027;}
</style>
<g>
	<g>
		<path class="st0" d="M137.4,365.9c-11-7.3-25.5-6.9-36.1,1c-3.3,2.5-4,7.2-1.6,10.5c1.5,2,3.7,3,6,3c1.6,0,3.1-0.5,4.5-1.5
			c5.6-4.1,13.2-4.3,18.9-0.5c3.5,2.3,8.1,1.3,10.4-2.1C141.8,372.9,140.8,368.2,137.4,365.9z"/>
	</g>
</g>
<g>
	<g>
		<path class="st0" d="M156.7,340.3c-22.2-15.7-51.9-15.5-74,0.5c-3.4,2.4-4.1,7.1-1.7,10.5c1.5,2,3.8,3.1,6.1,3.1
			c1.5,0,3.1-0.5,4.4-1.4c16.8-12.2,39.5-12.3,56.5-0.4c3.4,2.4,8.1,1.6,10.5-1.8C160.9,347.3,160,342.7,156.7,340.3z"/>
	</g>
</g>
<g>
	<g>
		<path class="st0" d="M175,314c-33.2-23.4-77.6-23.2-110.6,0.4c-3.4,2.4-4.1,7.1-1.7,10.5c1.5,2,3.8,3.1,6.1,3.1
			c1.5,0,3-0.5,4.4-1.4c27.8-19.9,65.3-20.1,93.3-0.4c3.4,2.4,8.1,1.6,10.4-1.8C179.2,321,178.4,316.3,175,314z"/>
	</g>
</g>
<g>
	<g>
		<path class="st0" d="M183.9,208.4H55.6c-13,0-23.5,10.6-23.5,23.5v256.5c0,13,10.6,23.5,23.5,23.5h128.3c13,0,23.5-10.6,23.5-23.5
			V232C207.4,219,196.8,208.4,183.9,208.4z M192.4,488.5c0,4.7-3.8,8.5-8.5,8.5H55.6c-4.7,0-8.5-3.8-8.5-8.5V232
			c0-4.7,3.8-8.5,8.5-8.5h128.3c4.7,0,8.5,3.8,8.5,8.5V488.5z"/>
	</g>
</g>
<g>
	<g>
		<path class="st0" d="M167.8,448.9H71.6c-4.1,0-7.5,3.4-7.5,7.5s3.4,7.5,7.5,7.5h96.2c4.1,0,7.5-3.4,7.5-7.5
			C175.3,452.3,172,448.9,167.8,448.9z"/>
	</g>
</g>
<g>
	<g>
		<path class="st0" d="M127.7,473h-16c-4.1,0-7.5,3.4-7.5,7.5s3.4,7.5,7.5,7.5h16c4.1,0,7.5-3.4,7.5-7.5S131.9,473,127.7,473z"/>
	</g>
</g>
<g>
	<g>
		<path class="st0" d="M464.4,240.5h-0.5V31.5c0-17.4-14.2-31.5-31.5-31.5H127.7c-17.4,0-31.5,14.2-31.5,31.5v152.3
			c0,4.1,3.4,7.5,7.5,7.5s7.5-3.4,7.5-7.5V31.5c0-9.1,7.4-16.5,16.5-16.5h304.6c9.1,0,16.5,7.4,16.5,16.5v208.9H232
			c-4.1,0-7.5,3.4-7.5,7.5s3.4,7.5,7.5,7.5h24.6c0,0.2,0,0.3,0,0.5c0,4.1,3.4,7.5,7.5,7.5h32.1c4.1,0,7.5-3.4,7.5-7.5
			c0-0.2,0-0.3,0-0.5h160.9c0.3,0,0.5,0.2,0.5,0.5v16c0,0.3-0.2,0.5-0.5,0.5H232c-4.1,0-7.5,3.4-7.5,7.5s3.4,7.5,7.5,7.5h232.5
			c8.6,0,15.5-7,15.5-15.5v-16C479.9,247.4,473,240.5,464.4,240.5z"/>
	</g>
</g>
<g>
	<g>
		<path class="st0" d="M424.3,32.1H135.8c-4.1,0-7.5,3.4-7.5,7.5v144.3c0,4.1,3.4,7.5,7.5,7.5s7.5-3.4,7.5-7.5V47.1h273.6v161.4H232
			c-4.1,0-7.5,3.4-7.5,7.5s3.4,7.5,7.5,7.5h192.4c4.1,0,7.5-3.4,7.5-7.5V39.6C431.8,35.4,428.5,32.1,424.3,32.1z"/>
	</g>
</g>
</svg>
