<?xml version="1.0" encoding="utf-8"?>
<!-- Generator: Adobe Illustrator 23.0.2, SVG Export Plug-In . SVG Version: 6.00 Build 0)  -->
<svg version="1.1" id="Layer_1" xmlns="http://www.w3.org/2000/svg" xmlns:xlink="http://www.w3.org/1999/xlink" x="0px" y="0px"
	 viewBox="0 0 512 512" style="enable-background:new 0 0 512 512;" xml:space="preserve">
<style type="text/css">
	.st0{fill:#CF2027;}
</style>
<g id="surface1">
	<path class="st0" d="M488.9,84H384c-4.1,0-7.5,3.4-7.5,7.5s3.4,7.5,7.5,7.5h104.9c4.5,0,8.1,3.6,8.1,8.1v288.8
		c0,4.5-3.6,8.1-8.1,8.1H23.1c-4.5,0-8.1-3.6-8.1-8.1V107.1c0-4.5,3.6-8.1,8.1-8.1h164.8v15H37.5c-4.1,0-7.5,3.4-7.5,7.5v198.2
		c0,4.1,3.4,7.5,7.5,7.5s7.5-3.4,7.5-7.5V129h142.9v40.2l-32.1,15.3c-2.6,1.2-4.3,3.9-4.3,6.8v122.3c0,2.9,1.7,5.5,4.3,6.8l97,46.3
		c2.1,1,4.5,0.9,6.5,0l54.5-26.1c3.7-1.8,5.3-6.3,3.5-10c-1.8-3.7-6.3-5.3-10-3.5l-43.8,20.9V242.4l82-39.2v105.7l-11.1,5.3
		c-3.7,1.8-5.3,6.3-3.5,10c1.8,3.7,6.3,5.3,10,3.5l15.4-7.4c2.6-1.2,4.3-3.9,4.3-6.8V191.3c0-2.9-1.7-5.5-4.3-6.8l-32.1-15.3V129
		H467v245H45v-22.3c0-4.1-3.4-7.5-7.5-7.5s-7.5,3.4-7.5,7.5v29.8c0,4.1,3.4,7.5,7.5,7.5h437c4.1,0,7.5-3.4,7.5-7.5v-260
		c0-4.1-3.4-7.5-7.5-7.5H324.1V99H352c4.1,0,7.5-3.4,7.5-7.5S356.1,84,352,84h-27.9V69h67.3c4.1,0,7.5-3.4,7.5-7.5V43.7
		c8.7-3.1,15-11.4,15-21.2c0-12.4-10.1-22.5-22.5-22.5s-22.5,10.1-22.5,22.5c0,9.8,6.3,18.1,15,21.2V54h-67.3
		c-4.1,0-7.5,3.4-7.5,7.5V84h-45.6V43.7c8.7-3.1,15-11.4,15-21.2C278.5,10.1,268.4,0,256,0s-22.5,10.1-22.5,22.5
		c0,9.8,6.3,18.1,15,21.2V84h-45.6V61.5c0-4.1-3.4-7.5-7.5-7.5h-67.3V43.7c8.7-3.1,15-11.4,15-21.2C143.1,10.1,133,0,120.6,0
		S98.1,10.1,98.1,22.5c0,9.8,6.3,18.1,15,21.2v17.8c0,4.1,3.4,7.5,7.5,7.5h67.3v15H23.1C10.4,84,0,94.4,0,107.1v288.8
		C0,408.6,10.4,419,23.1,419h162.6c-2.9,27.5-21.1,43.6-26.8,48H127c-12.4,0-22.5,10.1-22.5,22.5S114.6,512,127,512h258
		c12.4,0,22.5-10.1,22.5-22.5S397.4,467,385,467h-31.8c-5.7-4.4-23.9-20.6-26.8-48h162.6c12.7,0,23.1-10.4,23.1-23.1V107.1
		C512,94.4,501.6,84,488.9,84z M391.4,15c4.1,0,7.5,3.4,7.5,7.5s-3.4,7.5-7.5,7.5s-7.5-3.4-7.5-7.5S387.2,15,391.4,15z M256,15
		c4.1,0,7.5,3.4,7.5,7.5S260.1,30,256,30s-7.5-3.4-7.5-7.5S251.9,15,256,15z M120.6,15c4.1,0,7.5,3.4,7.5,7.5s-3.4,7.5-7.5,7.5
		s-7.5-3.4-7.5-7.5S116.5,15,120.6,15z M202.9,129h45.6v11.3l-45.6,21.8V129z M335.6,191.3l-79.6,38l-79.6-38l79.6-38L335.6,191.3z
		 M166.5,203.2l82,39.2v105.7l-82-39.2V203.2z M309.1,162.1l-45.6-21.8V129h45.6V162.1z M309.1,99v15h-45.6V99H309.1z M248.5,99v15
		h-45.6V99H248.5z M392.5,489.5c0,4.1-3.4,7.5-7.5,7.5H127c-4.1,0-7.5-3.4-7.5-7.5s3.4-7.5,7.5-7.5h258
		C389.1,482,392.5,485.4,392.5,489.5z M331.6,467H180.4c8.8-10.3,18.5-26.3,20.4-48h110.4C313.1,440.7,322.8,456.7,331.6,467z"/>
</g>
</svg>
